<?xml version="1.0" encoding="UTF-8"?><svg id="Layer_2" xmlns="http://www.w3.org/2000/svg" viewBox="0 0 4430.36 4048.08"><defs><style>.cls-1,.cls-2,.cls-3{fill:#fff;}.cls-4{fill:#c8cfdc;}.cls-5,.cls-6,.cls-7,.cls-8,.cls-2,.cls-9,.cls-3{stroke-linecap:round;stroke-linejoin:round;stroke-width:10px;}.cls-5,.cls-6,.cls-8{fill:none;}.cls-5,.cls-9,.cls-3{stroke:#2e2e2e;}.cls-6{stroke:#fff;}.cls-10,.cls-7{fill:#c1c7d7;}.cls-7,.cls-8,.cls-2{stroke:#c1c7d7;}.cls-11{fill:#203058;}.cls-9,.cls-12{fill:#2e2e2e;}</style></defs><g id="Layer_1-2"><g><g><path class="cls-2" d="m3817.58,792.92l-151.88,20.26c-3.81,20.4-8.8,40.79-15,61.1-6.2,20.31-13.46,40.01-21.69,59.06l114.66,101.64c-17.78,34.54-38.19,67.14-60.89,97.66l-141.63-58.38c-27.48,32.12-58.38,60.81-91.95,85.67l48.45,145.26c-32.35,20.75-66.35,38.84-101.64,54.09l-93.43-121.33c-39.37,13.96-80.42,23.57-122.42,28.42l-30.68,150.09c-37.99,1.79-76.44.51-115.01-4.04l-20.26-151.88c-20.4-3.81-40.79-8.8-61.1-15-20.31-6.2-40.01-13.46-59.06-21.69l-101.64,114.66c-34.54-17.78-67.14-38.19-97.66-60.89l58.38-141.63c-32.12-27.48-60.81-58.38-85.67-91.95l-145.26,48.45c-20.75-32.35-38.84-66.35-54.09-101.64l121.33-93.43c-13.96-39.37-23.57-80.42-28.42-122.42l-150.09-30.68c-1.79-37.99-.51-76.44,4.04-115.01l151.88-20.26c3.82-20.4,8.8-40.79,15-61.1,6.2-20.31,13.46-40.01,21.69-59.06l-114.66-101.64c17.78-34.54,38.19-67.14,60.89-97.66l141.63,58.38c27.48-32.12,58.38-60.81,91.95-85.67l-48.45-145.26c32.35-20.75,66.35-38.84,101.64-54.09l93.43,121.33c39.37-13.96,80.42-23.57,122.42-28.42l30.68-150.09c37.99-1.79,76.44-.51,115.02,4.04l20.26,151.88c20.4,3.81,40.79,8.8,61.1,15,20.31,6.2,40.01,13.46,59.06,21.69l101.64-114.66c34.54,17.78,67.14,38.19,97.66,60.89l-58.38,141.63c32.12,27.48,60.81,58.38,85.67,91.95l145.26-48.45c20.75,32.35,38.84,66.35,54.09,101.64l-121.33,93.43c13.96,39.37,23.57,80.42,28.42,122.42l150.09,30.68c1.79,37.99.51,76.44-4.04,115.01Zm-627.01-325.17c-134.41-41.04-276.63,34.66-317.67,169.07-41.04,134.41,34.66,276.63,169.07,317.67s276.63-34.66,317.67-169.07c41.04-134.41-34.66-276.63-169.07-317.67Z"/><path class="cls-8" d="m2668.9,574.54c75.43-247.08,336.88-386.22,583.96-310.79"/></g><polyline class="cls-8" points="3240.2 221.82 3252.86 263.75 3219.13 293.72"/></g><g><path class="cls-7" d="m633.65,632.4h995.27c74.01,0,134.01,60,134.01,134.01v268.02c0,74.01-60,134.01-134.01,134.01h-841.56l-160.73,160.73v-160.91c-70.75-3.65-126.99-62.17-126.99-133.82v-268.02c0-74.01,60-134.01,134.01-134.01Z"/><line class="cls-6" x1="1590.84" y1="786.1" x2="680.37" y2="786.1"/><line class="cls-6" x1="1367.78" y1="901.42" x2="680.37" y2="901.42"/><line class="cls-6" x1="1214.16" y1="1016.74" x2="687.98" y2="1016.74"/></g><g><path class="cls-7" d="m3362.68,885.7h865.05c64.33,0,116.47,52.15,116.47,116.47v232.95c0,64.33-52.15,116.47-116.47,116.47h-731.45l-139.7,139.7v-139.86c-61.49-3.17-110.37-54.03-110.37-116.31v-232.95c0-64.33,52.15-116.47,116.47-116.47Z"/><line class="cls-6" x1="4194.63" y1="1019.29" x2="3403.28" y2="1019.29"/><line class="cls-6" x1="4000.76" y1="1119.52" x2="3403.28" y2="1119.52"/><line class="cls-6" x1="3867.24" y1="1219.75" x2="3409.9" y2="1219.75"/></g><g><g><rect class="cls-10" x="1031.04" y="338.5" width="980.1" height="372.63" rx="74.82" ry="74.82"/><rect class="cls-2" x="992.98" y="300.43" width="980.1" height="372.63" rx="74.82" ry="74.82"/></g><circle class="cls-11" cx="1164.84" cy="489.42" r="104.12"/><path class="cls-2" d="m1164.84,546.9c-4.52,0-9.05-1.68-12.55-5.07l-57.87-55.8c-7.19-6.93-7.4-18.38-.47-25.57,6.93-7.19,18.38-7.4,25.57-.46l45.03,43.42,97.12-97.96c7.03-7.09,18.48-7.14,25.58-.11,7.09,7.03,7.14,18.48.11,25.58l-109.68,110.63c-3.53,3.56-8.19,5.35-12.85,5.35Z"/><g><line class="cls-8" x1="1389.12" y1="424.98" x2="1850.14" y2="424.98"/><line class="cls-8" x1="1389.12" y1="493.01" x2="1850.14" y2="493.01"/><line class="cls-8" x1="1389.12" y1="561.05" x2="1747.46" y2="561.05"/></g></g><g><g><polygon class="cls-10" points="3583.82 3481.38 1413.02 3481.38 1413.02 622.93 3270.99 622.93 3322.84 1161.34 3583.82 3481.38"/><polygon class="cls-2" points="3493.98 3391.54 1323.18 3391.54 1323.18 533.08 3182.03 533.08 3493.98 848.98 3493.98 3391.54"/><polyline class="cls-8" points="3182.03 533.08 3182.03 851.1 3493.98 851.1"/></g><path class="cls-10" d="m3132.08,1161.34h-1447.01c-11.69,0-21.16-9.48-21.16-21.16s9.48-21.16,21.16-21.16h1447.01c11.69,0,21.16,9.48,21.16,21.16s-9.48,21.16-21.16,21.16Z"/><path class="cls-10" d="m3132.08,1297.63h-789.42c-11.69,0-21.16-9.48-21.16-21.16s9.48-21.16,21.16-21.16h789.42c11.69,0,21.16,9.48,21.16,21.16s-9.48,21.16-21.16,21.16Z"/><path class="cls-10" d="m3132.08,1433.91h-789.42c-11.69,0-21.16-9.48-21.16-21.16s9.48-21.16,21.16-21.16h789.42c11.69,0,21.16,9.48,21.16,21.16s-9.48,21.16-21.16,21.16Z"/><path class="cls-10" d="m3132.08,1570.19h-789.42c-11.69,0-21.16-9.48-21.16-21.16s9.48-21.16,21.16-21.16h789.42c11.69,0,21.16,9.48,21.16,21.16s-9.48,21.16-21.16,21.16Z"/><path class="cls-10" d="m3132.08,1706.48h-789.42c-11.69,0-21.16-9.48-21.16-21.16s9.48-21.16,21.16-21.16h789.42c11.69,0,21.16,9.48,21.16,21.16s-9.48,21.16-21.16,21.16Z"/><path class="cls-10" d="m3132.08,2921.96h-705c-11.69,0-21.16-9.48-21.16-21.16s9.48-21.16,21.16-21.16h705c11.69,0,21.16,9.48,21.16,21.16s-9.48,21.16-21.16,21.16Z"/><path class="cls-10" d="m2254.26,2921.96h-591.07c-11.69,0-21.16-9.48-21.16-21.16s9.48-21.16,21.16-21.16h591.07c11.69,0,21.16,9.48,21.16,21.16s-9.48,21.16-21.16,21.16Z"/><path class="cls-10" d="m2673.27,3035.29h-246.19c-11.69,0-21.16-9.48-21.16-21.16s9.48-21.16,21.16-21.16h246.19c11.69,0,21.16,9.48,21.16,21.16s-9.48,21.16-21.16,21.16Z"/><path class="cls-10" d="m2103.19,3035.29h-440c-11.69,0-21.16-9.48-21.16-21.16s9.48-21.16,21.16-21.16h440c11.69,0,21.16,9.48,21.16,21.16s-9.48,21.16-21.16,21.16Z"/><path class="cls-10" d="m3132.08,1842.76h-1447.01c-11.69,0-21.16-9.48-21.16-21.16s9.48-21.16,21.16-21.16h1447.01c11.69,0,21.16,9.48,21.16,21.16s-9.48,21.16-21.16,21.16Z"/><path class="cls-10" d="m3132.08,1979.04h-1447.01c-11.69,0-21.16-9.48-21.16-21.16s9.48-21.16,21.16-21.16h1447.01c11.69,0,21.16,9.48,21.16,21.16s-9.48,21.16-21.16,21.16Z"/><path class="cls-10" d="m3132.08,2115.33h-1447.01c-11.69,0-21.16-9.48-21.16-21.16s9.48-21.16,21.16-21.16h1447.01c11.69,0,21.16,9.48,21.16,21.16s-9.48,21.16-21.16,21.16Z"/><g><g><path class="cls-10" d="m1689.04,2623.17c-30-64.98-34.06-137.77-11.3-205.97,23.7-70.99,73.62-128.51,140.57-161.95,29.31-14.64,60.42-23.94,92.61-27.7l23.31,273.15-245.19,122.47Z"/><path class="cls-12" d="m1951.2,2492.22l-22.71-266.16c52.29-2.8,104.07,9.03,150.28,34.44,47.37,26.04,85.71,64.78,111.35,112.38l-238.92,119.34Z"/><path class="cls-11" d="m2068.73,2756.58c-31.96,15.97-66.07,25.58-101.38,28.59-55.27,4.7-110.28-7-159.08-33.83-47.37-26.04-85.71-64.78-111.35-112.38l501.08-250.3c30,64.98,34.06,137.77,11.3,205.97-23.7,70.99-73.62,128.51-140.57,161.95Z"/></g><circle class="cls-8" cx="1943.52" cy="2505.92" r="294.18"/><path class="cls-5" d="m2191.98,2425.36c8.22,25.37,12.66,52.44,12.66,80.55,0,144.21-116.91,261.12-261.12,261.12-83.32,0-157.52-39.02-205.33-99.78"/><path class="cls-8" d="m1943.52,2244.8c78.81,0,149.47,34.92,197.35,90.12"/><path class="cls-6" d="m1682.4,2505.92c0-116.07,75.74-214.46,180.49-248.43"/></g><g><rect class="cls-8" x="1663.19" y="1255.44" width="549.92" height="450.05"/><path class="cls-8" d="m1663.19,1496.23c98.92-114.6,155.25-108.28,257.17,21.83,51.3,65.49,116.78-5.94,166.99-10.91,50.21-4.97,125.76,112.42,125.76,112.42"/></g><g><rect class="cls-11" x="2621.5" y="1501.25" width="367.29" height="85.14" rx="42.57" ry="42.57"/><g><polyline class="cls-5" points="2951.31 1483.21 2933.11 1501.41 2914.91 1483.21"/><polyline class="cls-5" points="2914.91 1604.59 2933.11 1586.39 2951.31 1604.59"/><line class="cls-5" x1="2933.11" y1="1501.41" x2="2933.11" y2="1586.39"/></g><path class="cls-5" d="m2663.71,1559.49c1.74-1.76,7.24-7.05,14.49-7.05s12.75,5.28,14.49,7.05,7.24,7.05,14.49,7.05,12.75-5.28,14.49-7.05,7.24-7.05,14.49-7.05,12.75,5.28,14.49,7.05c1.74,1.76,7.24,7.05,14.49,7.05s12.75-5.28,14.49-7.05,7.24-7.05,14.49-7.05,12.75,5.28,14.49,7.05c1.74,1.76,7.24,7.05,14.49,7.05s12.75-5.28,14.49-7.05,7.24-7.05,14.49-7.05,12.75,5.28,14.49,7.05c1.74,1.76,7.24,7.05,14.49,7.05s12.75-5.28,14.49-7.05"/></g><g><g><path class="cls-11" d="m3069.09,2392.22v371.28h-641.96v-87.1c167.52,44.5,197.51-117.5,374.83-92.85,208.67,29,267.13-191.33,267.13-191.33Z"/><g><line class="cls-8" x1="2427.13" y1="2763.85" x2="3069.09" y2="2763.85"/><g><line class="cls-8" x1="3069.09" y1="2784.12" x2="3069.09" y2="2287.63"/><line class="cls-8" x1="2908.59" y1="2763.85" x2="2908.59" y2="2330.4"/><line class="cls-8" x1="2748.08" y1="2784.12" x2="2748.08" y2="2500.62"/><line class="cls-8" x1="2587.58" y1="2763.85" x2="2587.58" y2="2444.83"/><line class="cls-8" x1="2427.08" y1="2784.12" x2="2427.08" y2="2602.04"/><polyline class="cls-8" points="2427.08 2602.04 2587.58 2444.83 2748.08 2500.62 2908.59 2330.4 3069.09 2287.63"/><circle class="cls-2" cx="2427.08" cy="2602.04" r="18.5"/><circle class="cls-2" cx="2587.58" cy="2444.83" r="18.5"/><circle class="cls-2" cx="2748.08" cy="2500.62" r="18.5"/><circle class="cls-2" cx="2908.59" cy="2330.4" r="18.5"/><circle class="cls-2" cx="3069.09" cy="2287.63" r="18.5" transform="translate(-641.82 1348.63) rotate(-22.5)"/></g></g></g><line class="cls-5" x1="2427.13" y1="2784.12" x2="2427.13" y2="2676.4"/><line class="cls-5" x1="2587.58" y1="2784.12" x2="2587.58" y2="2651.7"/><line class="cls-5" x1="2748.03" y1="2784.12" x2="2748.03" y2="2581.19"/><line class="cls-5" x1="2908.48" y1="2784.12" x2="2908.48" y2="2573.58"/><line class="cls-5" x1="3068.93" y1="2784.12" x2="3068.93" y2="2388.66"/><line class="cls-5" x1="3069.09" y1="2763.5" x2="2427.13" y2="2763.5"/></g></g><g><g><path class="cls-11" d="m895.73,4043.08c-46.02-454.47-131.38-1297.54-131.38-1297.54l563.96,58.56c20.25,424.76,20.47,850.21,10.72,1238.98h-443.31Z"/><path class="cls-11" d="m790.79,4043.08c101.68-360.84,181.5-644.1,181.5-644.1,0,0,146.96-366.42,158.72-486.09,11.76-119.68-343.66-360.78-343.66-360.78-176.96,383.82-332.42,953.83-454.28,1490.97h457.73Z"/><line class="cls-5" x1="889.85" y1="3364.81" x2="1074.22" y2="3434.6"/><line class="cls-5" x1="972.28" y1="3398.98" x2="835.14" y2="3850.98"/><line class="cls-5" x1="982.41" y1="3690.59" x2="979.33" y2="3400.45"/><path class="cls-5" d="m1168.88,2855.6c-65.9,412.9-173.79,469.01-173.79,469.01"/></g><g><g><path class="cls-1" d="m2014.61,1771.92s28.2,22.86,45.91-13.56c-4.03-5.41-5.9-12.44-4.73-19.51l26.5-159.91c2.02-12.22,12.58-21.51,24.96-21.21,15.41.37,26.39,14.15,23.96,28.8-.82,4.94-6.91,41.68-13.07,78.87l74.53,9.89,14.24,38.44,31.33,34.97-7.49,13.19c7.24,7,10.06,17.88,6.31,27.91l-79.39,133.49c-26.8,38.67-51.08,51.64-86.8,38.26l-24.56-9.19c-17.16-6.42-31.06-19.39-38.65-36.07,0,0-13.75-43.17-20.28-71.64-6.52-28.46-.38-60.18,27.23-72.74Z"/><g><path class="cls-1" d="m2186.03,1703.93c13.6,1.43,25.77-8.44,27.2-22.04,1.42-13.6-8.44-25.77-22.04-27.2-10.09-1.06-45.18-6.15-55.28-7.21-13.6-1.42-25.77,8.44-27.2,22.04-1.43,13.6,8.44,25.77,22.04,27.2,10.09,1.06,45.18,6.15,55.28,7.21Z"/><path class="cls-5" d="m2119.82,1651.37c-6.02,3.93-10.29,10.44-11.1,18.16-1.43,13.6,8.44,25.77,22.04,27.2,10.09,1.06,45.18,6.15,55.28,7.21"/></g><g><path class="cls-1" d="m2217.78,1735.68c11.89-6.74,16.07-21.85,9.33-33.74-6.74-11.89-21.85-16.07-33.74-9.33-8.83,5-40.35,21.25-49.18,26.25-11.89,6.74-16.07,21.85-9.33,33.74,6.74,11.89,21.85,16.07,33.74,9.33,8.83-5,40.35-21.25,49.18-26.25Z"/><path class="cls-5" d="m2193.37,1692.61c-8.83,5-40.35,21.25-49.18,26.25-11.89,6.74-16.07,21.85-9.33,33.74,6.74,11.89,21.85,16.07,33.74,9.33"/></g><path class="cls-1" d="m2250.41,1765.53c6.64-11.95,2.33-27.02-9.61-33.66-11.95-6.64-27.02-2.33-33.66,9.61-4.93,8.87-23.37,39.16-28.3,48.03-6.64,11.95-2.33,27.02,9.61,33.66,11.95,6.64,27.02,2.33,33.66-9.61,4.93-8.87,23.37-39.16,28.3-48.03Z"/><path class="cls-5" d="m2191.19,1654.7c13.6,1.42,23.46,13.6,22.04,27.2-.3,2.9-1.12,5.62-2.32,8.11,6.61,1.46,12.6,5.59,16.2,11.94,5.01,8.84,3.98,19.45-1.76,27.08,5.15-.72,10.56.13,15.45,2.85,11.95,6.64,16.25,21.71,9.61,33.66-2.22,3.99-7.17,12.32-12.4,21.09-.25,1.06-.56,2.13-.95,3.18l-79.39,133.49c-26.8,38.67-51.08,51.64-86.8,38.26"/><path class="cls-5" d="m2207.14,1741.49c-4.93,8.87-23.37,39.16-28.3,48.03-6.64,11.95-2.33,27.02,9.61,33.66,11.95,6.64,27.02,2.33,33.66-9.61"/><g><g><path class="cls-4" d="m2004.92,1161.45c56.63-7.36,113.31,69.56,126.61,171.81,13.3,102.25-21.83,191.11-78.45,198.47-56.63,7.36-113.31-69.56-126.61-171.81-13.3-102.25,21.83-191.11,78.45-198.47Zm-42.92,193.85c13.3,102.25,69.98,179.17,126.61,171.81,56.63-7.36,91.75-96.22,78.45-198.47-13.3-102.25-69.98-179.17-126.61-171.81-56.63,7.36-91.75,96.22-78.45,198.47"/><path class="cls-5" d="m2088.61,1527.11c56.63-7.36,91.75-96.22,78.45-198.47-13.3-102.25-69.98-179.17-126.61-171.81"/><path class="cls-5" d="m1978.07,1357.83c-.22-1.51-.42-3.02-.62-4.53-8-61.55,1.54-118.25,22.75-155.24"/><path class="cls-5" d="m1926.18,1359.96c13.3,102.25,69.98,179.17,126.61,171.81,56.63-7.36,91.75-96.22,78.45-198.47-13.3-102.25-69.98-179.17-126.61-171.81-56.63,7.36-91.75,96.22-78.45,198.47"/></g><path class="cls-12" d="m2044.68,1525.05c15.25,117.25,41.1,315.66,41.1,315.66,1.81,13.9,14.54,23.7,28.44,21.89h0c13.9-1.81,23.7-14.54,21.89-28.44,0,0-25.85-198.41-41.1-315.66l-50.33,6.55Z"/></g><path class="cls-1" d="m2032.94,1636.43s-26.1,103.71-36.52,145.1c-10.42,41.39,31.84,43.48,50.54,11.89,16.97-28.68,22.03-79.07,19.46-116.32-2.57-37.37-33.48-40.67-33.48-40.67Z"/><g><path class="cls-1" d="m2158.38,1660.93c11.59,7.24,26.86,3.72,34.11-7.87,7.24-11.59,3.72-26.86-7.87-34.11-8.61-5.38-37.9-25.35-46.51-30.73-11.59-7.24-26.86-3.72-34.11,7.87-7.24,11.59-3.72,26.86,7.87,34.11,8.61,5.38,37.9,25.35,46.51,30.73Z"/><path class="cls-5" d="m2191.85,1652.91c7.24-11.59,3.72-26.86-7.87-34.11-8.61-5.38-37.9-25.35-46.51-30.73-11.59-7.24-26.86-3.72-34.11,7.87"/></g><path class="cls-5" d="m1987.38,1844.66c-7.48-28.82,28.43-134.52,45.56-208.23,41.34,5.36,31.5,50.2,31.5,50.2"/></g><polygon class="cls-1" points="1965.86 1841.14 1878.68 1988.91 1973.14 2102.66 2146.22 1981.79 1965.86 1841.14"/><path class="cls-4" d="m790.5,1688.38c113.18-156.65,347.86-155.02,469.02-62.08,121.16,92.94-362.19,371.03-424.25,264.67-62.07-106.36-44.77-202.59-44.77-202.59Z"/><path class="cls-10" d="m1231.41,1621.31c153.63,6.43,503.13,545.55,503.13,545.55l188.87-269.91,208.12,137.99s-229.74,524.35-391.95,529.32c-162.2,4.97-485.38-502.87-558.3-632.93-72.92-130.06,50.14-310.02,50.14-310.02Z"/><path class="cls-1" d="m1232.85,1642.15c171.15,59.42,169.21,524.21,147.42,721.52-22.57,204.34-42.11,470.73-42.11,470.73,0,0-201.27,145.02-422.4,69.63-166.41-56.74-460.95-959.22-331.65-1105.51,129.3-146.29,648.74-156.37,648.74-156.37Z"/><g><path class="cls-12" d="m1184.85,1716.4c-1.03,70.42-16.46,118.05-16.46,118.05,0,0,51.3,331.97,67.15,530.33,15.85,198.36-15.37,488.33-15.37,488.33l-66.41,149.11-85.34-115.37s27.83-887.01,55.33-1053.93c-42.99-61.64-54.87-138.61-51.78-137.03,3.09,1.58,72.2-48.32,72.2-48.32l40.67,68.83Z"/><g><path class="cls-12" d="m1201.79,1088.6c78.47,83.41-9.18,205.4-9.18,205.4l-156.27-172.66,165.45-32.75Z"/><polygon class="cls-1" points="1142.68 1419.47 926.68 1375.96 903.63 1668.88 1051.2 1702.82 1138.87 1662.24 1142.68 1419.47"/><line class="cls-5" x1="927.44" y1="1440.21" x2="907.79" y2="1655.36"/><path class="cls-1" d="m905.82,1585.47c97.33,109.5,201.25,105.16,226.91,61.52,13.2-22.45,10.91-52.5,10.91-52.5,0,0,46.2,27.31,76.08,73.73,29.88,46.42-11.8,120.91-13.34,120.24-1.54-.67-22.93-133.06-77.76-109.64-54.84,23.42-91.01,161.46-91.01,161.46,0,0-141.83-109.74-185.19-167.27,12.09-80.45,53.41-87.54,53.41-87.54Z"/><path class="cls-5" d="m852.41,1673.01c12.09-80.45,53.41-87.54,53.41-87.54,97.33,109.5,201.25,105.16,226.91,61.52,13.2-22.45,10.91-52.5,10.91-52.5"/><path class="cls-5" d="m1206.37,1788.46c-1.54-.67-22.93-133.06-77.76-109.64-54.84,23.42-91.01,161.46-91.01,161.46"/><g><g><g><path class="cls-1" d="m1052.4,1051.21c-237.89,39.03-190.93,292.47-65.22,436.93,57.14,65.66,163.49,105.77,208.87,98.33,63.18-10.36,76.64-164.02,57.5-296.69-19.46-134.88-48.76-263.56-201.15-238.56Z"/><path class="cls-5" d="m1029.02,1526.18c57.58,42.47,131.26,66.16,167.04,60.29,63.18-10.36,76.64-164.02,57.5-296.69-19.46-134.88-48.76-263.56-201.15-238.56"/><path class="cls-12" d="m1136.02,1302.42c-19.07-12.84-27.9,24.93-6.75,29.77,21.15,4.84,14.69-24.42,6.75-29.77Z"/><path class="cls-12" d="m1238.11,1284.04c-19.07-12.84-27.9,24.93-6.75,29.77,21.15,4.84,14.69-24.42,6.75-29.77Z"/><path class="cls-5" d="m1171.53,1278.04c21.46,67.51,35.85,87.94,35.85,87.94,0,0-3.38,10.9-23.76,14.25"/></g><path class="cls-12" d="m1230.95,1173.98c-18.77-66.6-52.72-63.38-78.16-46.72-88.48,57.95-196.77-3.86-216.95,47.93-20.18,51.79,47.97,143.1,31.09,166.6-16.88,23.5-36.16,90.94-74.49,33.95-166.24-247.17,19.41-335.25,106.59-360.41,87.29-25.2,178.69,23.86,207.21-38.67,75.54,61.82,79.7,124.92,24.7,197.33Z"/><g><path class="cls-1" d="m992.08,1425.54c34.09-65.39-78.58-133.32-97.74-77.61-19.16,55.7,65.84,138.8,97.74,77.61Z"/><path class="cls-5" d="m953.25,1407.59s-32.18-13.82-18.42-36.51"/><path class="cls-5" d="m963.09,1341.26c-26.29-18.14-65.8-50.93-75.37-23.11-16.41,47.7,43.57,115.5,81.18,95.56"/></g><path class="cls-5" d="m1222.74,1454.61s-36.77,15.09-71.48,6.62"/></g><g><ellipse class="cls-5" cx="1117.66" cy="1295.87" rx="43.72" ry="57.63" transform="translate(-195.04 198.03) rotate(-9.32)"/><ellipse class="cls-5" cx="1233.82" cy="1276.81" rx="43.72" ry="57.63" transform="translate(-190.42 216.58) rotate(-9.32)"/><line class="cls-5" x1="959.75" y1="1320.92" x2="1081.96" y2="1292.73"/><line class="cls-5" x1="1150.74" y1="1261.89" x2="1191.62" y2="1255.18"/></g></g></g></g><path class="cls-10" d="m1181.57,1625.34c271.95-63.89,377.63,602.52,164.33,1319.19l17.22,394.12c-8.05,8.03-50.24,9.1-86.66,4.67-162-19.72,117.3-738.16,53.95-1319.17-23.07-211.58-97.74-341.86-148.84-398.81Z"/><path class="cls-5" d="m1276.45,3343.32c-110.94-13.5-14.93-354.68,36.28-755,23.57-184.25,37.64-381.04,17.68-564.17"/><path class="cls-5" d="m1268.88,2879.3c-173.09,91.3-327.56,26.19-327.56,26.19"/><path class="cls-10" d="m849.85,1630.12c12.43,52.3,40.28,100.9,61.51,155.81,63.7,164.71,33.02,517.92,73.43,772.91,53.89,340-176.06,875.87-176.06,875.87,0,0-103.33,57.08-295.75-130.62-58.41-56.98,143.66-380.66,114.5-662.15-29.15-281.49-140.38-549.19-124.06-654.34,32.64-210.32,146.36-279.74,346.43-357.47Z"/><path class="cls-5" d="m984.8,2558.84c53.89,340-176.06,875.87-176.06,875.87,0,0-103.33,57.08-295.75-130.62"/><path class="cls-5" d="m796.99,1750.9c34.09,252.76,20.14,332.6,20.14,332.6l82.16,16.76-71.82,66.53s157.34,392.05,138.12,569.04"/><path class="cls-5" d="m1288.01,1719.05c90.93,186.12,98.87,336.91,98.87,336.91l-30.39,10.18,42.72,55.32"/><polyline class="cls-5" points="1740.03 2251.6 1734.54 2166.85 1701.53 2199.54"/><line class="cls-5" x1="1923.41" y1="1896.95" x2="2131.52" y2="2034.93"/><path class="cls-5" d="m674.47,2902.59c157.46,99.33,254.25,63.46,254.25,63.46"/><path class="cls-5" d="m1402.48,1805.7c107.59,181.45,53.18,529.15,53.18,529.15"/><line class="cls-5" x1="1965.86" y1="1841.14" x2="2146.22" y2="1981.79"/><g><path class="cls-3" d="m498.05,3529.82c-9.18,59.32-102.89,63.11-127.33,57.71s32.16-124.86,32.16-124.86l95.17,67.15Z"/><g><path class="cls-1" d="m913,3108.26l-671.19-269.44c-18.35-7.5-39.3,1.34-46.74,19.71L2.62,3334.02c-7.32,18.08,1.18,38.68,19.11,46.35l659.41,279.65c18.26,7.81,39.39-.73,47.09-19.04l204.23-485.69c7.72-18.36-1.02-39.49-19.46-47.02Z"/><path class="cls-5" d="m128.92,3426.45l552.22,233.57c18.26,7.81,39.39-.73,47.09-19.04l162.73-387"/><path class="cls-5" d="m494.12,2941.21l-252.31-102.38c-18.35-7.5-39.3,1.34-46.74,19.71l-56.06,138.5"/></g><g><path class="cls-1" d="m547.84,3550.71c-.98-1.29-22.51-95.56-33.86-133.29.3-2.94-26.1-66.3-27.71-70.92-6.54-16.28-19.28-29.3-35.42-36.19l-26.48-57.8c-65.86-24.28-137.52,106.44-176.79,150.57-3.81,8.94-18.46,83.33-22.28,92.27-10.24,22.96,19.84,43.91,37.78,26.8-11.38,27.35,28.99,46.27,42.79,20.24-6.4,27.42,33.9,40.69,44.93,14.48.91-2.14-10.92,18.14,13.81,29.03,52.3,23.02,39.99-128.08,108.47-111.4,6.19,24.45,18.29,50.12,32.48,68.92,16.43,21.76,44.89,17.89,42.27,7.29Z"/><path class="cls-5" d="m413.52,3544.18c10.97-39.89,22.86-78.62,59.56-69.68,6.19,24.45,18.29,50.12,32.48,68.92,16.43,21.76,44.89,17.89,42.27,7.29-.98-1.29-22.51-95.56-33.86-133.29.3-2.94-26.1-66.3-27.71-70.92-3.84-9.56-9.82-17.99-17.37-24.72"/><path class="cls-5" d="m353.17,3274.94c-41.81,35.78-80.38,99.81-105.59,128.14-3.81,8.94-18.46,83.33-22.28,92.27-10.24,22.96,19.84,43.91,37.78,26.8-11.38,27.35,28.99,46.27,42.79,20.24-6.4,27.42,33.9,40.69,44.93,14.48.91-2.14-10.92,18.14,13.81,29.03,6.18,2.72,21.88,3.58,26.75,3.39"/><line class="cls-5" x1="263.18" y1="3521.92" x2="279.13" y2="3463.27"/><line class="cls-5" x1="306.79" y1="3540.54" x2="320.29" y2="3482.79"/><line class="cls-5" x1="350.81" y1="3556.88" x2="363.51" y2="3501.53"/></g></g><polygon class="cls-1" points="303.32 3169.83 274.76 3280.46 513.89 3368.88 520.12 3182.64 303.32 3169.83"/><path class="cls-10" d="m773.17,2098.66c-171.57,216.47-250.09,1178.83-250.09,1178.83l-259.17-60.17c-2.71-67.14-59.92-791.77,197.89-1304.79,24.12-47.99,121.81-143.01,163.84-168.99,125.96-77.87,243.2,234.41,147.53,355.11Z"/><line class="cls-5" x1="513.89" y1="3368.88" x2="274.76" y2="3280.46"/><line class="cls-5" x1="249.98" y1="3213.45" x2="523.07" y2="3277.49"/><path class="cls-5" d="m760.93,2115.59c-150.52,345.22-173.98,633.29-173.98,633.29"/><path class="cls-5" d="m651.38,1728.62c81.79,8.14,111.13,94.4,111.13,94.4"/></g><path class="cls-5" d="m849.85,1630.12c-1.46,60.4,48.24,71.62,81.74,228.05"/></g><g><path class="cls-2" d="m3307.01,3447.24c-11,49.44-4.45,101.93-22.61,151.13-28.87,83.84-108.46,150.45-200.56,183.92,2.3-62.76,13.97-126.69,9.99-189.27-2.6-27.18-10.53-50.12-15.08-77.69-9.9-56.72-1.52-120.56,26.81-172.9,11.09-20.08,22.24-35.36,36.38-52.67,28.86-34.16,59.34-66.26,83.84-103.07,25.42-36.8,47.51-75.4,71.87-112.77,61.24,71.26,80.89,166.35,52.63,251.93-11.93,40.91-36.86,79.72-43.26,121.4Z"/><path class="cls-2" d="m3131.37,3367.97c6.73,75.69,13.05,152.57-.76,228.19-15.25,73.16-52.11,142.52-112.72,195.49-18.33-61.53-36.54-123.77-57.25-184.99-27.38-73.21-51.18-142.48-58.6-222.12-15.48-149.5,28.25-310.93,142.95-424.88,48.76,131.44,71.44,270.04,86.38,408.32Z"/><path class="cls-2" d="m2983.66,3417.26c-.46,22.4-1.3,44.82-3.24,67.15-1.73,38.53,6.28,78.08,12.65,117.07,11.05,62.13,21.54,124.24,25.85,186.59-129.6-55.02-238.36-162.72-261.05-289.02-6.33-45.36-4.75-94.66-2.14-139.39,3.92-60.83,7.66-119.49,8.08-180,.83-50.21.51-100.52,4.31-150.64,154.84,84.65,221.8,235.81,215.55,388.24Z"/><polygon class="cls-2" points="2922.97 4043.08 3179.56 4043.08 3259.23 3688.7 2843.3 3688.7 2922.97 4043.08"/><path class="cls-8" d="m2809.44,3135.1c58.86,260.51,9.81,419.01,122.63,553.6"/><path class="cls-8" d="m2886.19,3200.78c-14.61,114.03-47.96,118.37-47.96,118.37"/><path class="cls-8" d="m2773.47,3331.19c24.53,53.27,71.75,68.64,71.75,68.64"/><path class="cls-8" d="m2948.42,3432.52c0,77.32-81.84,125-81.84,125"/><path class="cls-8" d="m2845.22,3628.49c31.25,33.2,62.28,26.67,62.28,26.67"/><path class="cls-8" d="m3031.81,3059.87c-42.51,140.91-37.12,276.28-15.87,360,21.26,83.72,0,268.82,0,268.82"/><path class="cls-8" d="m2964.77,3097.62c-11.45,75.09,38.93,103.15,38.93,103.15"/><path class="cls-8" d="m3085.76,3218.35c-19.62,63.02-82.06,95.06-82.06,95.06"/><path class="cls-8" d="m2983.66,3417.26c10.54,36.86,38.99,44.12,38.99,44.12"/><path class="cls-8" d="m3116.28,3467.2c-23.97,105.33-92.6,123.29-92.6,123.29"/><path class="cls-8" d="m3301.61,3152.36c-47.44,195.88-117.74,263.76-130.82,342.66-13.08,78.9-10.61,181.67-38,193.67"/><path class="cls-8" d="m3218.85,3231.59c-18.64,59.53,22.31,98.16,22.31,98.16"/><path class="cls-8" d="m3322.84,3313.41c-44.15,129.56-139.49,138.24-139.49,138.24"/><path class="cls-8" d="m3138.83,3573.92c5.8,25.08,19.62,31.59,19.62,31.59"/><path class="cls-8" d="m3267.25,3548.79c-13.08,72.5-116.98,106.89-116.98,106.89"/><line class="cls-8" x1="2862.21" y1="3766.17" x2="3240.36" y2="3766.17"/><line class="cls-8" x1="2866.58" y1="3792.27" x2="3234.12" y2="3792.27"/></g><g><g><path class="cls-1" d="m3359.28,1942.06l-116.33-159.23,28.54-111.43c3.14-12.24,1.31-25.22-5.08-36.13l-13.56-23.14c-.88-1.5-1.87-2.91-2.96-4.21l-25.44-43.88c-2.36-4.07-6.02-7.24-10.38-8.99l-60.15-24.18c-3.88-1.56-8.14-1.93-12.23-1.07l-36,7.59c-11.4,2.4-18.7,13.6-16.29,25,.3,1.41.73,2.75,1.28,4.03,3.9,9.03,13.73,14.37,23.72,12.26l17.07-3.6c-1.18,2.43-1.95,5.09-2.23,7.91-6.99-.16-12.21-.29-14.15-.36-11.38-.44-20.97,8.43-21.41,19.81-.42,10.77,7.5,19.91,17.99,21.24-8.47,2.3-14.84,9.88-15.2,19.11-.44,11.38,8.43,20.97,19.81,21.41.78.03,2.06.07,3.73.11-10.1.99-18.17,9.28-18.57,19.71-.44,11.38,8.43,20.97,19.81,21.41.69.03,1.68.06,2.89.11,0,0-13.59,107.92,30.36,129.35l.24.03,89.13,185.96,115.36-78.81Z"/><path class="cls-5" d="m3359.28,1942.06l-116.33-159.23,28.54-111.43c3.14-12.24,1.31-25.22-5.08-36.13l-13.56-23.14c-.88-1.5-1.87-2.91-2.96-4.21l-25.44-43.88c-2.36-4.07-6.02-7.24-10.38-8.99l-60.15-24.18c-3.88-1.56-8.14-1.93-12.23-1.07l-36,7.59c-11.4,2.4-18.7,13.6-16.29,25,.3,1.41.73,2.75,1.28,4.03,3.9,9.03,13.73,14.37,23.72,12.26l17.07-3.6c-1.18,2.43-1.95,5.09-2.23,7.91-6.99-.16-12.21-.29-14.15-.36-11.38-.44-20.97,8.43-21.41,19.81-.42,10.77,7.5,19.91,17.99,21.24-8.47,2.3-14.84,9.88-15.2,19.11-.44,11.38,8.43,20.97,19.81,21.41.78.03,2.06.07,3.73.11-10.1.99-18.17,9.28-18.57,19.71-.44,11.38,8.43,20.97,19.81,21.41.69.03,1.68.06,2.89.11,0,0-13.59,107.92,30.36,129.35l.24.03,89.13,185.96,115.36-78.81Z"/><polyline class="cls-5" points="3178.61 1586.28 3191.59 1591.5 3208.02 1626.67"/><path class="cls-12" d="m3059.42,1579.24l-31.38-18.66c-2.79-1.66-1.17-5.95,2.02-5.35l35.89,6.72c6.49,1.22,12.87,3,19.05,5.33l277.03,104.52c5.67,2.14,8.54,8.48,6.4,14.15h0c-2.14,5.67-8.48,8.54-14.15,6.4l-277.03-104.52c-6.18-2.33-12.15-5.2-17.82-8.58Z"/><polygon class="cls-1" points="3129.5 1579.63 3127.37 1627.45 3187.12 1633.66 3176.41 1586.1 3129.5 1579.63"/><path class="cls-5" d="m3199.5,1688.64l-24.43-108.5c-2.49-11.05-12.58-18.7-23.89-18.11h0c-11.99.62-21.53,10.27-22.03,22.27l-4.84,118"/></g><polygon class="cls-11" points="3183.09 1957.17 3341.05 1849.56 3614.97 2231.27 3516.86 2517.49 3183.09 1957.17"/><path class="cls-12" d="m3536.13,1261.95c-104.27,206.73-51.56,360.22,56.96,411.53,99.05,46.83,447.93,285.17,489.1,84.5,41.16-200.67-546.06-496.03-546.06-496.03Z"/><path class="cls-12" d="m3775.94,980.78c153.87,32.22,134.53,204.43,155.65,308.31,22.7,111.59,121.89,44.91,242.29,116.64,92.89,55.34,28.87,191.07,219.62,316.81,85.65,56.46-46.33,253.5-155.36,297.62-270.36-235.12-454.02,79.84-557.57-135.31-103.55-215.15,112.69-355.03,24.91-486.54-87.78-131.51,70.45-417.53,70.45-417.53Z"/><path class="cls-5" d="m3791.54,981.58c153.87,32.22,92.57,174.02,165.18,303.54,55.69,99.33,112.36,49.68,232.76,121.41,92.89,55.34,28.69,218.13,235.87,289.76"/><path class="cls-12" d="m4130.89,4043.08c59.55-471.93,89.6-1006.15-2.38-1370.24-200.69-794.39-502.96-310.7-502.96-310.7-192.88,271.44-357.51,1025.78-470.36,1680.93,0,0,426.84,0,426.84,0,64.46-260.91,128.59-518.78,177.31-710.94,0,0-18.81,333.15-40.14,710.94h411.69Z"/><path class="cls-11" d="m3450.55,1634.81c83.27-54.72,590.46-93.06,651.8-65.78,125.24,55.71-18.1,819.22-18.1,819.22l100.55,457.97s-620.05,147.05-798.49,20.95l126.18-428.24-40.54-290.25s-104.68-459.17-21.41-513.89Z"/><path class="cls-5" d="m3439.15,1755.88c-36.63,192.06,32.81,392.81,32.81,392.81"/><path class="cls-5" d="m3386.31,2867.19c281.36,111.36,798.49-20.95,798.49-20.95"/><line class="cls-8" x1="3770.28" y1="3090.07" x2="3725.38" y2="3933.76"/><path class="cls-8" d="m3471.96,3786.49s-21.81,105.75-52.91,256.58"/><path class="cls-8" d="m4087.27,3092.9c-2.36,320.48-21.28,657.9-43.46,950.17"/><g><g><g><path class="cls-3" d="m3938.57,2352.47c-116.88,51.97-252.33,112.21-252.33,112.21-24.37,10.82-38.81,37.49-33.19,64.67,6.48,31.33,37.13,51.48,68.47,45,0,0,100.22-20.72,217.05-44.88v-177Z"/><g><line class="cls-5" x1="3367.64" y1="2441" x2="3586.61" y2="2457.83"/><g><g><g><path class="cls-3" d="m3208.01,2166.52h312.22c41.14-6.71,31.46-107.22-63.36-107.22h-274.91l26.05,107.22Z"/><path class="cls-5" d="m3376.03,2137.44h89.9c92.86,97.39,116.24-78.14-9.06-78.14"/></g><polygon class="cls-3" points="3446.61 2155.4 3845.7 2672.84 3423.57 2672.84 3024.47 2155.4 3446.61 2155.4"/><polygon class="cls-9" points="3430.75 2176.92 3829.85 2694.36 3407.71 2694.36 3009.67 2112.81 3430.75 2176.92"/><path class="cls-3" d="m3573.51,2418.28c-246.87-99.65-242.34-358.98-116.64-358.98h-425.52c-125.7,0-130.23,259.33,116.64,358.98h425.52Z"/></g><g><g><path class="cls-1" d="m3611.12,2404.21s-172.66-11.5-198.78-11.31c-26.12.2-27.68,31.9,7.8,38.48-23.22,8.01-26.39,39.97,38.73,49.76-20.83,12.59-6.52,25.54,34.54,33.88-11.44,7.12,74.44,30.81,100.09,40.46,41.08,15.47,142.78,21.29,159.91,8.29,92.3-15.11-.18-70.92-35.68-107.49-32.5-33.47-44.68-48.09-106.6-52.09Z"/><path class="cls-1" d="m3574.52,2286.91c-23.06,31.82-2.61,66.63,17.36,85.95,19.97,19.32,17.02,65.15,17.02,65.15,0,0,79.42,47.88,102.34,35.95,22.92-11.94-15.71-82.22-69.77-122.25-54.06-40.03-66.95-64.79-66.95-64.79Z"/><path class="cls-5" d="m3717.72,2456.3c-3.15-26.52-35.27-74.25-76.25-104.6-54.06-40.03-66.95-64.79-66.95-64.79-23.06,31.82-2.61,66.63,17.36,85.95"/></g><line class="cls-5" x1="3420.14" y1="2431.39" x2="3535.15" y2="2457.17"/><line class="cls-5" x1="3458.87" y1="2481.15" x2="3552.46" y2="2512.61"/></g><path class="cls-5" d="m3605.32,2402.59s-167.78-11.44-186.42-13.98c-18.64-2.54-25,9.32-25,18.22"/></g></g><path class="cls-5" d="m3721.52,2574.36c35.23-3.83,73.69-15.24,73.69-15.24"/></g><path class="cls-11" d="m3878.33,2591.85c160.34-33.15,385.35-138.02,436.32-162.06,49.71-23.45,88.32-84.22,70.56-141.56l-193.22-624c-1.22-3.9-2.69-8.07-4.26-11.93-30.75-75.68-117.03-112.11-192.71-81.36-75.68,30.75-112.11,117.03-81.36,192.71l197.55,486.24s-115.73,87.57-332.31,147.77l99.41,194.19Z"/></g><path class="cls-5" d="m3878.33,2591.85l-99.41-194.19c142.16-37.4,332.31-147.77,332.31-147.77l-129.84-350.93"/><polyline class="cls-5" points="4174.57 2263.99 4111.22 2249.89 4142.89 2300.73"/><line class="cls-5" x1="3997.3" y1="2559.12" x2="4212.79" y2="2475.86"/></g><line class="cls-5" x1="3778.91" y1="2397.66" x2="3894.47" y2="2512.61"/><line class="cls-5" x1="3183.09" y1="1957.17" x2="3341.05" y2="1849.56"/><g><path class="cls-12" d="m3637.1,1029.21c-277.83-81.37-241.81,171.92-123.86,309.73,78.97,92.26,123.86-309.73,123.86-309.73Z"/><path class="cls-5" d="m3958.9,1585.8c12.89,38.44-1.77,87.41-43.58,145.58-32.54,45.27-79.59,92.69-129.09,130.1-43.91,33.19-85.18,50.02-122.67,50.02s-70.04-16.65-92.95-46.89c-17.94-23.68-29.66-55.49-33.89-91.98"/><path class="cls-1" d="m3826.69,1572.45c180.1-24.67,67.78,153.04-66.52,254.56-216.14,163.39-227.77-208.9-97.92-239.4,0,0,85.96-4.41,164.44-15.16Z"/><g><path class="cls-1" d="m3836.2,1343.32l48.04,261.83c11.12,80.28-212.18,111.46-225.96,28.63-13.78-82.83-65.15-391.62-65.15-391.62,0,0,186.91-115.27,243.07,101.16Z"/><line class="cls-5" x1="3810.44" y1="1215.48" x2="3884.23" y2="1605.15"/><path class="cls-1" d="m3672.86,1002.49c198.87,18.57,173.77,164.99,146.28,325.73-16.17,94.57-93.81,197.14-202.66,197.03-27.04-.03-98.17-113.02-116.17-253.75-16.67-130.34,24.29-282.86,172.55-269.01Z"/><path class="cls-5" d="m3777.36,1431.04c-36.24,53.68-92.38,94.28-160.88,94.21-27.04-.03-98.17-113.02-116.17-253.75-16.67-130.34,24.29-282.86,172.55-269.01"/><path class="cls-12" d="m3671.74,1240.47c17.48-13.62,28.5,22.11,8.48,28.18-20.02,6.07-15.76-22.51-8.48-28.18Z"/><path class="cls-12" d="m3540.22,1231.49c17.48-13.62,28.5,22.11,8.48,28.18-20.02,6.07-15.76-22.51-8.48-28.18Z"/><path class="cls-5" d="m3506.74,1200.03c23.57-16.44,62.96-10.47,62.96-10.47"/><path class="cls-5" d="m3638.25,1201.14c19.12-17.65,69.39-6.41,69.39-6.41"/><path class="cls-5" d="m3589.76,1224.57c-16.12,66.37-29.83,100.26-29.83,100.26,0,0,.19,14.71,21.18,19.81"/><path class="cls-5" d="m3576.81,1414.8c16.24-.11,32.91-6.82,46.66-14.9"/></g><g><g><path class="cls-5" d="m3699.11,1143.39c-35.99-36.68-30.63-62.69-8.93-83.85"/><path class="cls-12" d="m3507.49,1146.28c27.49-109.11,146.84-39.76,182.69-86.75-30.99,80.81,105.93,95.69,86.72,222.52,20.71,10.57,58.24,61.76,64.86,94.74,32.39-46.56,71.77-101.07,78.84-210.51,7.07-109.44-41.41-192.56-181.73-218.45-169.18-31.21-266.61,103.93-231.39,198.44Z"/></g><g><path class="cls-1" d="m3768.13,1316.22c-37.17-60.62,66.66-133.5,88.82-81.2,22.16,52.3-54.04,137.91-88.82,81.2Z"/><line class="cls-5" x1="3789.11" y1="1291.28" x2="3827.61" y2="1251.72"/><path class="cls-5" d="m3777.36,1245.91c24.07-28.73,66.37-42.09,79.6-10.89,18.98,44.79-34.18,114.01-71.69,97.35"/></g></g></g></g><line class="cls-5" x1="204.06" y1="4043.08" x2="4257.07" y2="4043.08"/></g></svg>