<?xml version="1.0" encoding="UTF-8"?><svg xmlns="http://www.w3.org/2000/svg" xmlns:xlink="http://www.w3.org/1999/xlink" viewBox="0 0 4460.12 4029.16"><defs><style>.cls-1,.cls-2,.cls-3{fill:#fff;}.cls-4,.cls-5{fill:#c8cfdc;}.cls-6{isolation:isolate;}.cls-7,.cls-8,.cls-9,.cls-10,.cls-2,.cls-11,.cls-12,.cls-13,.cls-14,.cls-3{stroke-width:10px;}.cls-7,.cls-8,.cls-9,.cls-10,.cls-2,.cls-11,.cls-12,.cls-13,.cls-3{stroke-linecap:round;}.cls-7,.cls-8,.cls-9,.cls-10,.cls-11{fill:none;}.cls-7,.cls-8,.cls-10,.cls-2,.cls-11,.cls-12,.cls-3{stroke-linejoin:round;}.cls-7,.cls-9,.cls-12,.cls-13,.cls-14,.cls-3{stroke:#2e2e2e;}.cls-8{stroke:#fff;}.cls-15{fill:url(#radial-gradient);mix-blend-mode:multiply;}.cls-5,.cls-9,.cls-13,.cls-14{stroke-miterlimit:10;}.cls-5,.cls-10,.cls-2{stroke:#c1c7d7;}.cls-16{fill:#c1c7d7;}.cls-17{fill:#203058;}.cls-18{fill:#2e2e2e;}.cls-11{stroke:#000;}.cls-12{fill:#304672;}.cls-13{fill:#4671f1;}.cls-14{fill:#2d4068;}</style><radialGradient id="radial-gradient" cx="1954.77" cy="1787.47" fx="1954.77" fy="1787.47" r="528.92" gradientTransform="translate(2138.4 4707.11) rotate(-45) scale(1 -1)" gradientUnits="userSpaceOnUse"><stop offset=".44" stop-color="#acb1bf"/><stop offset=".94" stop-color="#f5f5f7"/><stop offset="1" stop-color="#fff"/></radialGradient></defs><g class="cls-6"><g id="Layer_2"><g id="Layer_1-2"><path class="cls-16" d="m2445.45,3970.9c-346.16-57.38-705.62-174.16-1050.59-343.3C240.76,3061.75-322.79,1993.96,190.93,1132.2,681.34,136.85,2482.04-154.04,3087.04,189.41c1117.79,634.57,1641.89,2177.94,1237.08,3069.55-179.22,394.74-531.4,624.6-968.28,711.94h-910.39Z"/><g><g><path class="cls-8" d="m470.71,622.65v2973.69m894.83,427.83V186m-824.83,2277.23h754.82v636.18h-754.82v-636.18Zm0-706.19h754.82v636.18h-754.82v-636.18Zm0-706.19h754.82v636.19h-754.82v-636.19Zm0-706.19h754.82v636.18h-754.82V344.67Z"/><g><g><rect class="cls-8" x="1162.43" y="1147.21" width="133.11" height="539.84" transform="translate(2457.97 2834.26) rotate(180)"/><circle class="cls-8" cx="1228.98" cy="1588.95" r="32.63" transform="translate(-651.81 883.42) rotate(-31.72)"/><rect class="cls-8" x="1182.84" y="1243.66" width="92.28" height="177.5" transform="translate(2457.97 2664.83) rotate(180)"/><rect class="cls-8" x="1162.43" y="1147.21" width="133.11" height="539.84" transform="translate(2457.97 2834.26) rotate(180)"/><line class="cls-8" x1="1262.62" y1="1305.36" x2="1197.58" y2="1305.36"/><line class="cls-8" x1="1262.62" y1="1340.33" x2="1197.58" y2="1340.33"/><line class="cls-8" x1="1262.62" y1="1375.29" x2="1197.58" y2="1375.29"/></g><g><rect class="cls-8" x="1027.92" y="1147.21" width="133.11" height="539.84" transform="translate(2188.94 2834.26) rotate(180)"/><circle class="cls-8" cx="1094.47" cy="1588.95" r="32.63" transform="translate(-792.36 1992.04) rotate(-67.5)"/><rect class="cls-8" x="1048.33" y="1243.66" width="92.28" height="177.5" transform="translate(2188.94 2664.83) rotate(180)"/><rect class="cls-8" x="1027.92" y="1147.21" width="133.11" height="539.84" transform="translate(2188.94 2834.26) rotate(180)"/><line class="cls-8" x1="1128.1" y1="1305.36" x2="1063.06" y2="1305.36"/><line class="cls-8" x1="1128.1" y1="1340.33" x2="1063.06" y2="1340.33"/><line class="cls-8" x1="1128.1" y1="1375.29" x2="1063.06" y2="1375.29"/></g><g><rect class="cls-8" x="893.4" y="1147.21" width="133.11" height="539.84" transform="translate(1919.91 2834.26) rotate(180)"/><circle class="cls-8" cx="959.95" cy="1588.95" r="32.63" transform="translate(-339.38 263.06) rotate(-13.28)"/><rect class="cls-8" x="913.81" y="1243.66" width="92.28" height="177.5" transform="translate(1919.91 2664.83) rotate(180)"/><rect class="cls-8" x="893.4" y="1147.21" width="133.11" height="539.84" transform="translate(1919.91 2834.26) rotate(180)"/><line class="cls-8" x1="993.59" y1="1305.36" x2="928.55" y2="1305.36"/><line class="cls-8" x1="993.59" y1="1340.33" x2="928.55" y2="1340.33"/><line class="cls-8" x1="993.59" y1="1375.29" x2="928.55" y2="1375.29"/></g><g><polygon class="cls-8" points="626.21 1645.17 754.77 1687.05 892.65 1165.37 764.09 1130.9 626.21 1645.17"/><path class="cls-8" d="m682.46,1566.36c-4.67,17.4,5.66,35.3,23.06,39.96,17.4,4.67,35.3-5.66,39.96-23.06,4.67-17.4-5.66-35.3-23.07-39.96-17.4-4.67-35.3,5.66-39.96,23.06Z"/><rect class="cls-8" x="734.27" y="1238.27" width="92.28" height="177.5" transform="translate(1190.54 2810.88) rotate(-164.99)"/><polygon class="cls-8" points="626.21 1645.17 754.77 1687.05 892.65 1165.37 764.09 1130.9 626.21 1645.17"/><line class="cls-8" x1="819.9" y1="1309.61" x2="757.08" y2="1292.76"/><line class="cls-8" x1="810.84" y1="1343.38" x2="748.02" y2="1326.53"/><line class="cls-8" x1="801.79" y1="1377.15" x2="738.97" y2="1360.31"/></g></g><g><g><rect class="cls-8" x="941.27" y="2563.66" width="133.11" height="535.76"/><circle class="cls-8" cx="1007.82" cy="3005.4" r="32.63" transform="translate(-1429.52 978.7) rotate(-31.72)"/><rect class="cls-8" x="961.68" y="2660.11" width="92.28" height="177.5"/><rect class="cls-8" x="941.27" y="2563.66" width="133.11" height="535.76"/><line class="cls-8" x1="974.19" y1="2721.82" x2="1039.23" y2="2721.82"/><line class="cls-8" x1="974.19" y1="2756.78" x2="1039.23" y2="2756.78"/><line class="cls-8" x1="974.19" y1="2791.74" x2="1039.23" y2="2791.74"/></g><g><rect class="cls-8" x="1075.78" y="2563.66" width="133.11" height="535.76"/><circle class="cls-8" cx="1142.34" cy="3005.4" r="32.63" transform="translate(-659.94 342.85) rotate(-13.28)"/><rect class="cls-8" x="1096.19" y="2660.11" width="92.28" height="177.5"/><rect class="cls-8" x="1075.78" y="2563.66" width="133.11" height="535.76"/><line class="cls-8" x1="1108.7" y1="2721.82" x2="1173.74" y2="2721.82"/><line class="cls-8" x1="1108.7" y1="2756.78" x2="1173.74" y2="2756.78"/><line class="cls-8" x1="1108.7" y1="2791.74" x2="1173.74" y2="2791.74"/></g><g><rect class="cls-8" x="540.97" y="2563.66" width="133.11" height="535.76"/><circle class="cls-8" cx="607.52" cy="3005.4" r="32.63" transform="translate(-838.04 301.36) rotate(-16.7)"/><rect class="cls-8" x="561.38" y="2660.11" width="92.28" height="177.5"/><rect class="cls-8" x="540.97" y="2563.66" width="133.11" height="535.76"/><line class="cls-8" x1="573.89" y1="2721.82" x2="638.93" y2="2721.82"/><line class="cls-8" x1="573.89" y1="2756.78" x2="638.93" y2="2756.78"/><line class="cls-8" x1="573.89" y1="2791.74" x2="638.93" y2="2791.74"/></g><g><polygon class="cls-8" points="941.27 3061.62 812.7 3099.42 674.82 2581.83 803.39 2547.36 941.27 3061.62"/><circle class="cls-8" cx="853.5" cy="2991.26" r="32.63" transform="translate(-772.15 339.21) rotate(-15.58)"/><rect class="cls-8" x="740.92" y="2654.72" width="92.28" height="177.5" transform="translate(-683.62 297.42) rotate(-15.01)"/><polygon class="cls-8" points="941.27 3061.62 812.7 3099.42 674.82 2581.83 803.39 2547.36 941.27 3061.62"/><line class="cls-8" x1="747.57" y1="2726.06" x2="810.39" y2="2709.22"/><line class="cls-8" x1="756.63" y1="2759.83" x2="819.45" y2="2742.99"/><line class="cls-8" x1="765.68" y1="2793.6" x2="828.5" y2="2776.76"/></g></g><g><g><rect class="cls-8" x="777.46" y="2059.58" width="134.89" height="532.43" transform="translate(-1480.89 3170.69) rotate(-90)"/><circle class="cls-8" cx="1020.43" cy="2324.9" r="32.63" transform="translate(-1380.71 3150.09) rotate(-85.27)"/><rect class="cls-8" x="717.75" y="2236.15" width="92.28" height="177.5" transform="translate(-1561.01 3088.79) rotate(-90)"/><rect class="cls-8" x="777.46" y="2059.58" width="134.89" height="532.43" transform="translate(-1480.89 3170.69) rotate(-90)"/><line class="cls-8" x1="736.84" y1="2358.53" x2="736.84" y2="2293.49"/><line class="cls-8" x1="771.81" y1="2358.53" x2="771.81" y2="2293.49"/><line class="cls-8" x1="806.77" y1="2358.53" x2="806.77" y2="2293.49"/></g><g><rect class="cls-8" x="778.35" y="1925.97" width="133.11" height="532.43" transform="translate(-1347.28 3037.08) rotate(-90)"/><circle class="cls-8" cx="1020.43" cy="2192.18" r="32.63" transform="translate(-1280.01 2937.12) rotate(-82.98)"/><rect class="cls-8" x="717.75" y="2103.43" width="92.28" height="177.5" transform="translate(-1428.29 2956.07) rotate(-90)"/><rect class="cls-8" x="778.35" y="1925.97" width="133.11" height="532.43" transform="translate(-1347.28 3037.08) rotate(-90)"/><line class="cls-8" x1="736.84" y1="2225.82" x2="736.84" y2="2160.78"/><line class="cls-8" x1="771.81" y1="2225.82" x2="771.81" y2="2160.78"/><line class="cls-8" x1="806.77" y1="2225.82" x2="806.77" y2="2160.78"/></g><g><rect class="cls-8" x="778.35" y="1791.45" width="133.11" height="532.43" transform="translate(-1212.76 2902.57) rotate(-90)"/><circle class="cls-8" cx="1020.43" cy="2057.67" r="32.63" transform="translate(-1096.67 2948.26) rotate(-86.44)"/><rect class="cls-8" x="717.75" y="1968.92" width="92.28" height="177.5" transform="translate(-1293.77 2821.56) rotate(-90)"/><rect class="cls-8" x="778.35" y="1791.45" width="133.11" height="532.43" transform="translate(-1212.76 2902.57) rotate(-90)"/><line class="cls-8" x1="736.84" y1="2091.3" x2="736.84" y2="2026.26"/><line class="cls-8" x1="771.81" y1="2091.3" x2="771.81" y2="2026.26"/><line class="cls-8" x1="806.77" y1="2091.3" x2="806.77" y2="2026.26"/></g><g><rect class="cls-8" x="750.44" y="1656.94" width="133.11" height="532.43" transform="translate(2740.14 1106.16) rotate(90)"/><circle class="cls-8" cx="641.47" cy="1923.15" r="32.63" transform="translate(-1379.92 1768.31) rotate(-67.17)"/><rect class="cls-8" x="851.86" y="1834.4" width="92.28" height="177.5" transform="translate(2821.16 1025.15) rotate(90)"/><rect class="cls-8" x="750.44" y="1656.94" width="133.11" height="532.43" transform="translate(2740.14 1106.16) rotate(90)"/><line class="cls-8" x1="925.05" y1="1889.52" x2="925.05" y2="1954.56"/><line class="cls-8" x1="890.09" y1="1889.52" x2="890.09" y2="1954.56"/><line class="cls-8" x1="855.13" y1="1889.52" x2="855.13" y2="1954.56"/></g></g><g><rect class="cls-8" x="745.72" y="862.54" width="517.47" height="118.32" transform="translate(2008.91 1843.39) rotate(180)"/><rect class="cls-8" x="718.55" y="790.34" width="499.38" height="72.19" transform="translate(1936.48 1652.88) rotate(180)"/><rect class="cls-8" x="782.68" y="714.37" width="445.1" height="75.97" transform="translate(2010.45 1504.71) rotate(180)"/><rect class="cls-8" x="935.7" y="622.65" width="327.49" height="91.72" transform="translate(2198.89 1337.02) rotate(180)"/><polygon class="cls-8" points="1004.45 447.58 1105.5 622.59 903.42 622.59 1004.45 447.58"/><path class="cls-8" d="m974.46,622.2c1.58-4.67,30-174.62,30-174.62"/><g><line class="cls-8" x1="848.27" y1="891.44" x2="874.34" y2="917.5"/><line class="cls-8" x1="821.71" y1="892.71" x2="873.07" y2="944.06"/><line class="cls-8" x1="820.44" y1="919.27" x2="846.51" y2="945.33"/></g><g><line class="cls-8" x1="1191.86" y1="641.56" x2="1217.93" y2="667.63"/><line class="cls-8" x1="1165.31" y1="642.83" x2="1216.66" y2="694.19"/><line class="cls-8" x1="1164.03" y1="669.39" x2="1190.1" y2="695.46"/></g><line class="cls-8" x1="1124.17" y1="826.44" x2="820.44" y2="826.44"/><line class="cls-8" x1="1154.99" y1="716.73" x2="1154.99" y2="792.36"/><line class="cls-8" x1="1132.98" y1="716.73" x2="1132.98" y2="792.36"/><line class="cls-8" x1="859.28" y1="716.73" x2="859.28" y2="792.36"/><line class="cls-8" x1="837.27" y1="716.73" x2="837.27" y2="792.36"/></g></g><g><path class="cls-8" d="m2048.85,24.24c78.97,1383.55,669.54,2087.6,789.43,2697.58,119.89,609.97-116.32,1293.52-116.32,1293.52"/><path class="cls-8" d="m2334.56,27.17c-101.26,949.38-227.6,1849.88-24.5,2486.32,133.39,418,485.53,1112.57,689.11,1507.99"/><path class="cls-8" d="m2665.1,30.27c-59.18,650.86,1215.94,2636.03,522.64,3932.44"/><path class="cls-8" d="m3417.53,27.17c-440.68,1723.73,633.35,3032.13,581.21,3883.48"/><path class="cls-8" d="m3766.95,51.31c132.77,1468.67,759.2,2353.6,294.54,3859.35"/><path class="cls-8" d="m2877.38,27.17c1721.21,2102.53,617.7,3169.3,790.26,3878.69"/></g></g><g><g><path class="cls-17" d="m3088.12,137.76c-290.57,0-563.66,113.15-769.09,318.58s-318.58,478.52-318.52,769.03l-.06,343.82v221.5s-229.87,0-229.87,0h-335.39c-290.51-.06-563.6,113.09-769.03,318.52-205.43,205.43-318.58,478.52-318.58,769.09s113.09,563.6,318.52,769.03c205.43,205.43,478.58,318.52,769.09,318.58,290.57,0,563.66-113.15,769.09-318.58s318.58-478.52,318.52-769.03v-565.26h221.5s343.82-.06,343.82-.06c145.29,0,286.2-28.26,416.4-82.25,130.26-53.93,249.88-133.53,352.62-236.27,205.43-205.43,318.58-478.52,318.58-769.09,0-599.73-487.88-1087.61-1087.61-1087.61Zm-1327.45,2175.28l239.78-.06v239.72s0,325.54,0,325.54c0,151.07-58.79,292.97-165.54,399.72-106.81,106.81-248.71,165.6-399.72,165.54-151.01.06-292.91-58.73-399.72-165.54-106.75-106.75-165.54-248.65-165.48-399.66-.06-151.01,58.73-292.91,165.54-399.72,106.75-106.75,248.65-165.54,399.72-165.54h325.41Zm1892.65-1087.67c.06,151.01-58.79,292.97-165.54,399.72-106.75,106.75-248.71,165.6-399.72,165.54h-353.73s-211.52,0-211.52,0v-211.52l.06-353.67c-.06-151.01,58.79-292.97,165.54-399.72,106.75-106.75,248.71-165.6,399.72-165.54,311.63,0,565.2,253.57,565.2,565.2Z"/><path class="cls-7" d="m3899.72,502.08c-199.33-223.43-489.31-364.32-811.6-364.32-290.57,0-563.66,113.15-769.09,318.58"/><path class="cls-8" d="m3421.27,2160.9c-77.08,27.44-157.09,45.04-239.14,52.64m652.52-1641.52c42.63,48.65,80.6,101.49,113.19,157.81,84.43,145.91,132.78,315.18,132.78,495.53,0,130.56-25.04,257.27-72.85,374.66m-416.61-1229.98c43.01,25.39,83.95,53.94,122.5,85.31m-1618.1,1113.83l.06-343.8c-.03-145.72,31.15-286.65,90.39-415.17M481.99,2600.16c19.69-67.83,46.6-133.23,80.35-195.26m-33.9,878.27c-56.19-125.72-85.75-263.03-85.75-404.88m992.51,992.5h0c-177.08-.04-347.05-46.09-496.26-132.49"/></g><path class="cls-7" d="m2000.52,1225.36l-.06,343.82v955.58m1087.67-211.79c145.29,0,286.2-28.26,416.4-82.25,130.26-53.93,249.88-133.53,352.62-236.27,205.43-205.43,318.58-478.52,318.58-769.09M666.11,3647.32c205.43,205.43,478.58,318.52,769.09,318.58,290.57,0,563.66-113.15,769.09-318.58s318.58-478.52,318.52-769.03v-565.26m-1487.33,964.92c-106.75-106.75-165.54-248.65-165.48-399.66-.06-151.01,58.73-292.91,165.54-399.72,106.75-106.75,248.65-165.54,399.72-165.54h325.41s239.78-.06,239.78-.06m522.35-522.35v-211.52l.06-353.67c-.06-151.01,58.79-292.97,165.54-399.72,106.75-106.75,248.71-165.6,399.72-165.54"/><path class="cls-15" d="m2522.8,1579.1c-161.29-90.62-358.41-93.94-522.35-9.91v983.51c163.88,84.09,361.06,80.83,522.35-9.79v-963.81Z"/><polygon class="cls-17" points="2714.22 2313 1634.29 2313.02 1634.29 1790.63 2708.7 1790.63 2967.87 2044.02 2714.22 2313"/><polyline class="cls-7" points="2714.22 2313 2967.87 2044.02 2708.7 1790.63"/><line class="cls-7" x1="1581.62" y1="2313.03" x2="2600.69" y2="2313.03"/></g><path class="cls-7" d="m666.17,2109.2c-205.43,205.43-318.58,478.52-318.58,769.09,0,202.51,54.97,396.6,157.89,565.2"/><g><g><path class="cls-18" d="m2957.07,148.21c-7.28,360.39,109.25,612.96,109.25,612.96l179.78-42.78-46.22-629.79-242.81,59.61Z"/><path class="cls-17" d="m3066.89,649.91c-101.32-59.41-156.99,68.69-190.42,163.37-33.43,94.68-83.02,298.86-83.02,298.86l-131.78-64.69-59.7,170.87s292.42,97.52,373.93,60.52c81.52-37,194.17-563.96,90.99-628.93Z"/><path class="cls-7" d="m3066.89,649.91c-101.32-59.41-156.99,68.69-190.42,163.37-33.43,94.68-83.02,298.86-83.02,298.86l-131.78-64.69-59.7,170.87"/><path class="cls-17" d="m3024.23,619.85c72.11-27.09,324.68-135.98,404.9-109.24,91.92,30.64,152.73,94.45,141.66,338-11.07,243.55-80.37,434.24-90.21,436.7-9.84,2.46-371.48,34.44-380.09,25.83-8.61-8.61-19.61-91.19-19.61-91.19,0,0-156.38-359.9-157.82-462.02-.78-55.35,22.32-108.46,101.17-138.08Z"/><path class="cls-7" d="m2923.06,757.94c-.78-55.35,22.32-108.46,101.17-138.08,72.11-27.09,324.68-135.98,404.9-109.24"/><path class="cls-4" d="m3713.66,1314.4c-89.43,222.14-273.56,393.37-499.23,467.7-16.53.91-33.59,1.38-51.2,1.38-453.89,0-799.65-371.73-888.01-470.87-86.1-96.6,6.06-236.41,140.13-184.74,134.08,51.66,600.27,240.13,600.27,240.13l68.89-146.64,426.82-8.62s160.75,29.15,202.33,101.66Z"/><path class="cls-7" d="m3713.66,1314.4c-71.36,177.25-203,322.08-367.94,411.14"/><path class="cls-7" d="m3026.68,1458.65c-40.51-84.27,57.82-237.29,57.82-237.29l377.38-13.28"/><g><path class="cls-1" d="m2496.72,1530.42l172.24-105.46s258.37,238.23,257.8,239.11c-.57.88-111.38,123.78-111.38,123.78l-318.66-257.43Z"/><g><path class="cls-1" d="m2934.34,1645.63l137.88-.88-48.42,161.76-86.78,15.73c-49.72-2.59-59.44-3.91-104.58-32.3l101.89-144.31Z"/><path class="cls-18" d="m3324.91,1736.4s0,0-.02,0c-13.74,6.92-27.71,13.46-41.88,19.59-22.37,9.71-45.25,18.42-68.59,26.11-21.67,7.14-43.72,13.39-66.11,18.7-67.78,16.09-138.64,23.61-211.29,21.43-48.36-40.59-23.11-150.52,73.96-150.52l-4.79-31.53s106.21-7.25,210.93-7.25c52.84,0,96.7,51.97,107.79,103.46Z"/><path class="cls-1" d="m3324.89,1736.4c-13.74,6.92-27.71,13.46-41.88,19.59-8.01-48.25-50.19-99.71-100.89-123.07h34.99c52.84,0,96.7,51.98,107.77,103.47Z"/><path class="cls-1" d="m3324.91,1736.4c-35.47,17.85-72.38,33.17-110.48,45.71-21.67,7.14-43.72,13.39-66.11,18.7-2.43-58.89,25.91-144.21,126.87-145.88,24.86,19.93,43.11,50.78,49.72,81.47Z"/><path class="cls-8" d="m2999.83,1731.73c-11,27.4-18.61,57.83-14.12,87.91"/><path class="cls-8" d="m3031.44,1731.73c-12.18,26.44-17.89,56.88-14.15,86.5"/><path class="cls-8" d="m3063.05,1731.73c-8.68,20.51-14.56,42.45-15.27,64.79-.2,6.28.01,12.58.68,18.83"/><path class="cls-8" d="m3094.67,1731.73c-10.21,24.3-16.69,50.71-15.19,77.2"/><path class="cls-8" d="m3126.28,1731.73c-9.96,23.48-17.25,49.04-15.38,74.77"/></g><path class="cls-7" d="m3182.12,1632.93c50,19.14,92.1,76.03,98.93,127.22"/></g><path class="cls-4" d="m2514.36,1600.02s-400.3-260.05-235.55-437.71c114.95-123.96,445.69,295.59,440.77,293.13-4.92-2.46-205.22,144.58-205.22,144.58Z"/><path class="cls-7" d="m2418.08,1127.87c-98.67-38.02-174.63,27.66-173.55,103.5-34.82,168.95,272.56,368.65,272.56,368.65"/><path class="cls-7" d="m2514.36,1600.02l205.22-144.58s-108.73-141.63-201.16-228.31"/><path class="cls-7" d="m2292.28,1218.68c50.74,128.72,231.44,308.13,231.44,308.13"/><polygon class="cls-3" points="3310.26 1142.24 3171.36 1197.8 2975.17 1178.7 2947.39 1279.41 3402.28 1291.56 3310.26 1142.24"/><path class="cls-17" d="m3439.82,518.63c191.42,26.21,146.83,693.41,146.83,693.41l-337.16,89.07-29.52-152.79,130.22-67.71c-12.7-225.14-31.63-578.57,89.63-561.97Z"/><path class="cls-7" d="m3439.82,518.63c191.42,26.21,146.83,693.41,146.83,693.41"/><path class="cls-7" d="m3351.07,758.63c-6.33,108.52-3.6,230.33.89,327.11l-126.77,57.38,19.1,130.22"/><path class="cls-7" d="m2954.04,874.74c6.03,70.09,77.37,211.73,77.37,211.73"/><g><path class="cls-1" d="m3123.12,1279.07h-481.05c-13.81,0-26.82-6.51-35.09-17.56l-257.59-344c-7.29-9.74-.34-23.62,11.82-23.62h481.05c13.81,0,26.82,6.51,35.09,17.56l257.59,344c7.29,9.74.34,23.62-11.82,23.62Z"/><path class="cls-7" d="m2441.76,1040.86l-92.37-123.36c-7.29-9.74-.34-23.62,11.82-23.62h297.92"/><path class="cls-7" d="m2842.26,893.88c13.81,0,26.82,6.51,35.09,17.56l257.59,344c7.29,9.74.34,23.62-11.82,23.62h-481.05c-13.81,0-26.82-6.51-35.09-17.56"/><g><g><path class="cls-1" d="m2545.28,1202.16c0-8.77,7.1-15.9,15.87-15.92l30.56-.18c4.26-.01,8.13,1.65,10.99,4.36,2.7,2.56,4.51,6.06,4.9,9.97.95,9.54-7.46,17.49-17.04,17.52l-29.31.18c-8.81.03-15.97-7.11-15.97-15.92h0Z"/><path class="cls-7" d="m2561.15,1186.24l30.56-.18c4.26-.01,8.13,1.65,10.99,4.36,2.7,2.56,4.51,6.06,4.9,9.97.95,9.54-7.46,17.49-17.04,17.52l-29.31.18"/></g><g><path class="cls-1" d="m2486,1126.95c-4.79-7.35-2.74-17.19,4.59-22.01l30.28-19.97c3.56-2.34,7.71-3.06,11.59-2.36,3.66.67,7.09,2.61,9.55,5.68,6.01,7.47,3.31,18.72-4.7,23.99l-29.24,19.29c-7.37,4.84-17.26,2.77-22.08-4.61h0Z"/><path class="cls-7" d="m2532.46,1082.61c3.66.67,7.09,2.61,9.55,5.68,6.01,7.47,3.31,18.72-4.7,23.99l-29.24,19.29c-7.37,4.84-17.26,2.77-22.08-4.61h0c-4.79-7.35-2.74-17.19,4.59-22.01"/></g><g><path class="cls-1" d="m2506.19,1150.28c0-8.77,7.1-15.9,15.87-15.92l58.72-.18c4.26-.01,8.13,1.65,10.99,4.36,2.7,2.56,4.51,6.06,4.9,9.97.95,9.54-7.46,17.49-17.04,17.52l-57.47.18c-8.81.03-15.97-7.11-15.97-15.92h0Z"/><line class="cls-7" x1="2580.78" y1="1134.18" x2="2518.42" y2="1134.8"/></g><path class="cls-1" d="m2514.35,1176.57c0-8.77,7.1-15.9,15.87-15.92l70.11-.18c4.26-.01,8.13,1.65,10.99,4.36,2.7,2.56,4.51,6.06,4.9,9.97.95,9.54-7.46,17.49-17.04,17.52l-68.86.18c-8.81.03-15.97-7.11-15.97-15.92h0Z"/><path class="cls-3" d="m2514.35,1176.57h0c0-8.77,7.1-15.9,15.87-15.92l70.11-.18c4.26-.01,8.13,1.65,10.99,4.36,2.7,2.56,4.51,6.06,4.9,9.97.95,9.54-7.46,17.49-17.04,17.52h-42.64"/></g></g><path class="cls-18" d="m2940.73,186l-16.38,564.25s38.22,38.22,38.22,20.02,9.1-567.89,9.1-567.89l-30.94-16.38Z"/><path class="cls-1" d="m3214.38,541.55c199.69,19.83-18.47,234.88-142.32,223.18-123.85-11.69-28.31-240.13,142.32-223.18Z"/><g><g><g><path class="cls-1" d="m3058.54,373.09l46.5,236.01c17.3,71.17,215.32,23.28,199.42-50.91-15.9-74.19-75.18-350.78-75.18-350.78,0,0-195.35-34.87-170.74,165.68Z"/><path class="cls-1" d="m3114.81,33.63c292.15,13.69,158.1,434.19-47.37,457.48-32.36,3.67-99.38-128.69-96.3-240.45,3.13-113.62,15.01-223.06,143.67-217.03Z"/><path class="cls-7" d="m3142.46,464.11c-23.32,14.44-48.58,24.01-75.02,27.01-32.36,3.67-99.38-128.69-96.3-240.45,3.13-113.62,15.01-223.06,143.67-217.03"/><path class="cls-18" d="m3084.29,271.14c14.56-12.47,25.51,17.97,8.46,24.01-17.05,6.05-14.52-18.82-8.46-24.01Z"/><path class="cls-18" d="m3000.4,276.67c14.56-12.47,25.51,17.97,8.46,24.01-17.05,6.05-14.52-18.82-8.46-24.01Z"/><path class="cls-7" d="m2967.6,259.44c14.88-16.75,33.52-23.25,57.98-17.82"/><path class="cls-7" d="m3071.7,243.99c34.85-15.69,76.23,9.29,76.23,9.29"/><path class="cls-7" d="m3048.41,262.07c-3.96,58.95-10.65,89.86-10.65,89.86,0,0,2.33,12.51,20.98,13.77"/></g><g><path class="cls-1" d="m3209.95,302.11c-34.55-50.89,52.26-118.03,73.5-73.72,21.24,44.31-41.18,121.34-73.5,73.72Z"/><line class="cls-7" x1="3227.07" y1="279.71" x2="3258.77" y2="243.99"/><path class="cls-7" d="m3215.11,240.98c19.65-25.79,55.67-39.03,68.35-12.59,18.19,37.94-24.97,99.89-58.05,86.99"/></g></g><path class="cls-7" d="m3107.56,393.86c-39.61,27.06-62.3,17.48-62.3,17.48"/></g><path class="cls-18" d="m3192.59,157.3l-19.43,699.25,128.96,56.48s-10.84-197.87-8.78-248.15c2.06-50.29,26.42-134.16,89.3-159.08l-72.53-270.77-117.51-77.72Z"/><path class="cls-18" d="m3146.99,1.09c122.92,11.19,164.85,139.07,163.11,233.93-1.73,94.85-112.98-14.59-112.98-14.59,0,0-68.84-11.52-180.67-7.18l-7.97-77.66-18.47,78.95c-15.89.93-32.53,2.18-49.84,3.83-5.99-153.41,83.89-228.46,206.81-217.27Z"/></g><path class="cls-3" d="m2640.74,1282.15h787.39v27.61l-720.46-1.81c-21.78-.05-43.44-3.19-64.34-9.31l-4.76-1.39c-3.28-.96-5.54-3.97-5.54-7.39h0c0-4.25,3.45-7.7,7.7-7.7Z"/><g><g><path class="cls-1" d="m2872.91,1595.51s186.25-108.5,188.96-106.69c2.71,1.81,100.99,175.31,93.89,170.84-7.09-4.47-217.29,91.25-217.29,91.25l-65.56-155.39Z"/><g><polygon class="cls-1" points="2887.2 1579.2 2776.7 1639.28 2838.91 1811.65 2974.22 1744.98 2887.2 1579.2"/><path class="cls-18" d="m2795.59,1626.74h-200.63c-104.72,0-174.17,204.13-23.15,204.13h259.05c100.31,0,89.29-165.35-29.76-165.35l-5.51-38.78Z"/><path class="cls-1" d="m2594.96,1626.74h35c-83.27,38.39-143.58,152.55-67.2,203.84-139.05-8.1-70.36-203.84,32.2-203.84Z"/><path class="cls-1" d="m2536.9,1648.73c125.15,2.08,138.71,132.68,120.41,182.14h-85.5c-120.24,0-100.72-129.4-34.92-182.14Z"/><path class="cls-8" d="m2812.26,1725.54c29.82,70.98,7.16,112.13,7.16,112.13"/><path class="cls-8" d="m2780.64,1725.54c29.82,70.98,7.16,112.13,7.16,112.13"/><path class="cls-8" d="m2749.03,1725.54c29.82,70.98,7.16,112.13,7.16,112.13"/><path class="cls-8" d="m2717.42,1725.54c29.82,70.98,7.16,112.13,7.16,112.13"/><path class="cls-8" d="m2685.81,1725.54c29.82,70.98,7.16,112.13,7.16,112.13"/><path class="cls-7" d="m2562.74,1830.58c-139.05-8.1-70.36-203.84,32.2-203.84"/></g><path class="cls-7" d="m2629.96,1626.74c-80,30.62-139.78,157.88-67.2,203.84"/></g><path class="cls-4" d="m3004.19,1508.97l127.27,176.72s420.62-159.75,532.92-227.66c55.5-33.56,127.94-182.07,87.96-255.25-40.92-74.9-160.5-87.26-279.4-17.25-47.5,27.97-94.94,57.84-140.41,87.71-179.55,117.93-328.35,235.73-328.35,235.73Z"/><polyline class="cls-7" points="3342.46 1271.87 3004.19 1508.97 3133.19 1683.96 3485.02 1535.64"/><line class="cls-7" x1="3089.17" y1="1627.35" x2="3586.78" y2="1389.05"/><line class="cls-7" x1="2887.2" y1="1579.2" x2="2976.84" y2="1750.91"/></g><polyline class="cls-7" points="3412.7 1113.59 3351.96 1085.73 3379.71 1130.96"/><path class="cls-7" d="m3741.32,1181.54c72.44,108.65-18.69,265.45-147.6,304.39"/></g><g><g><polygon class="cls-18" points="2349.83 3418.81 1864.57 3208.13 1926.46 3127.83 2124.69 3169.57 2349.83 3418.81"/><g><path class="cls-16" d="m2360.11,3423.28c-3.17,6.32-11.96,24.21-15.42,31.13l-503.51-218.6c3.26-6.51,12.05-24.39,15.42-31.13l503.51,218.6Z"/><line class="cls-7" x1="2360.11" y1="3423.28" x2="1856.6" y2="3204.67"/><line class="cls-7" x1="2344.69" y1="3459.26" x2="1841.18" y2="3232.61"/></g></g><path class="cls-14" d="m1207.61,2978.43c22.81,4.37,773.82-744.56,852.27-694.03,78.45,50.53,75.1,877.88,75.1,877.88l-240.72,58.34-64.7-367.63-295.22,413.86-326.73-288.42Z"/><line class="cls-7" x1="1920.72" y1="2804.91" x2="1966.45" y2="3147.65"/></g><path class="cls-13" d="m1367.19,3051.5c-131.94-5.94-213.61,40.73-213.61,40.73"/><path class="cls-9" d="m1861.3,2801.4c-6.05,10.65-12.29,21.19-18.76,31.59-3.62,5.82-7.31,11.6-11.14,17.29-.61.91-1.22,1.81-1.84,2.71"/><path class="cls-17" d="m870,2955.64c49.36,297.85,272.89,451.36,467.32,479.49l390.63-174.58,429.05,620.72s75.76-22.87,126.66-53.78c50.9-30.91,102.3-85.27,102.3-85.27,0,0-354.87-804.74-542.8-808.79s-536.77,106.03-536.77,106.03l-70.9-161.23-365.48,77.41Z"/><path class="cls-7" d="m870,2955.64c49.36,297.85,272.89,451.36,467.32,479.49l390.63-174.58,429.05,620.72s79.93-25.4,126.66-53.78c46.73-28.38,102.3-85.27,102.3-85.27,0,0-354.87-804.74-542.8-808.79s-536.77,106.03-536.77,106.03l-70.9-161.23-365.48,77.41Z"/><g><path class="cls-1" d="m1165.28,2075.23l301.29-125.1,163.46-448.39c8.9-24.46,34.06-40.13,60.8-36.11,30.51,4.59,51.53,33.04,46.94,63.56l-79.79,530.48c-4.09,26.11-19.94,50.55-44.97,64.11l-13.84,7.5-323.48,175.36c-3.8,2.05-7.88,4.01-11.95,5.7-65.48,27.19-140.59-3.85-167.78-69.33-27.19-65.48,3.85-140.59,69.33-167.78Z"/><path class="cls-7" d="m1737.76,1529.18l-79.79,530.48c-4.09,26.11-19.94,50.55-44.97,64.11l-13.84,7.5-323.48,175.36c-3.8,2.05-7.88,4.01-11.95,5.7"/><path class="cls-5" d="m1091.09,2236.94c29.93,73.87,90.64,160.64,162.61,110.36,118.28-82.63,288.66-150.36,288.66-150.36l-126.72-235.39s-98.06,44.54-216.15,90.15c-47.56,4.94-82.48,10.13-103.13,28.58-38.14,34.06-29.29,97.39-5.27,156.66Z"/><path class="cls-5" d="m1296.51,2148.4c-46.37-115.09-181.6-56.8-323.57-31.91-131.98,23.14-239.64,127.95-245.96,200.69-9.7,111.75,21.06,509.71,143.02,698.67,0,0,96.75,3.53,259.82-1.12,114.19-3.26,267.27-81.86,249.81-135.5-18.83-57.86-49.51-123.64-60.55-265.91-13.39-172.57,58.41-263.91-22.58-464.91Z"/><path class="cls-7" d="m1383.3,2896.21c-108.39,131.28-328.57,118.51-328.57,118.51l-184.73,1.12"/><path class="cls-1" d="m1043.34,2440.87c50.1,81.5,106.01,172.45,106.01,172.45l465.89-29.03c28.69-1.96,105.41,91.09,72.73,99.71l-583.46,171.19c-38.94,10.23-82.02-3.05-107.94-37.07,0,0-86.91-114.06-155.75-204.4v-172.86h202.51Z"/><path class="cls-7" d="m1475.09,2746.46l-370.57,108.73c-38.94,10.23-82.02-3.05-107.94-37.07,0,0-86.91-114.06-155.75-204.4v-172.86"/><path class="cls-5" d="m789.9,2244.98c-192.09,89.88,73.73,470.17,73.73,470.17l266.18-170.65s-130.63-397.44-339.91-299.52Z"/><path class="cls-1" d="m936.45,2118.96c-152.68,107.82-3.89,224.55,177.66,114.14,140.92-85.7-18.94-226.23-177.66-114.14Z"/><polyline class="cls-7" points="1029.34 2330.46 1129.82 2544.5 863.63 2715.14 822.53 2645.17"/><path class="cls-7" d="m1192.82,2177.48c-65.39,140.86-276.93,132.36-300.8,106.78"/><polyline class="cls-7" points="1515.92 1980.24 1465.78 1947.59 1490.26 1991.04"/><path class="cls-7" d="m1810.47,2680.41c20.65,7.27,44.48.37,57.72-18.41"/><g><path class="cls-1" d="m1772.01,2497.45c5.03,41.33-31.79,63.09-60.22,70.74-28.43,7.66-49.23,51.64-49.23,51.64,0,0-105.22-7.68-100.44-34.65,3.64-20.53,43.92-49.8,114.58-59.14,70.66-9.35,95.31-28.59,95.31-28.59Z"/><path class="cls-1" d="m1631.15,2788.05h274.11c17.6,0,32.07-8.31,39.04-22.42l239.1-490.9c6.14-12.43-7.21-30.15-22.71-30.15h-274.11c-17.6,0-32.07,8.31-39.04,22.42l-239.1,490.9c-6.14,12.43,7.21,30.15,22.71,30.15Z"/><path class="cls-7" d="m2046.61,2555.57l136.79-280.84c6.14-12.43-7.21-30.15-22.71-30.15h-92.44"/><path class="cls-7" d="m1886.58,2244.58c-17.6,0-32.07,8.31-39.04,22.42l-239.1,490.9c-6.14,12.43,7.21,30.15,22.71,30.15h274.11c17.6,0,32.07-8.31,39.04-22.42"/></g><path class="cls-1" d="m1702.89,2577.33s172.77,61.35,198.1,72.52c25.32,11.17,13.53,42.65-23.75,34.15,19.22,17.55,8.88,49.96-58.58,32.13,14.97,21-4.39,27.58-47.83,18.44,8.14,11.74-87.48,2.69-116.46,4.39-28.98,1.69-81.66-10.18-117.38-19.91-11.2-19.84-20.28-87.67,12.34-124.8,32.62-37.13,91.65-39.05,153.56-16.92Z"/><path class="cls-7" d="m1695.92,2572.77s179.74,65.92,205.07,77.08c25.32,11.17,13.53,42.65-23.75,34.15,19.22,17.55,8.88,49.96-58.58,32.13,14.97,21-4.39,27.58-47.83,18.44,8.14,11.74-87.48,2.69-116.46,4.39-28.98,1.69-81.66-10.18-117.38-19.91"/><path class="cls-7" d="m1720.37,2518.28c-32.86,5.59-67.1,10.35-100.39,19.86-33.29,10.46-56.12,35.19-75.3,62.03"/><line class="cls-7" x1="1790.48" y1="2663.44" x2="1877.24" y2="2684"/><line class="cls-7" x1="1762.92" y1="2707.82" x2="1818.66" y2="2716.14"/><polyline class="cls-11" points="1114.9 2557.28 1149.34 2613.32 1559.74 2584.29"/><path class="cls-7" d="m894.1,2139.63c-263.11,109.1-148.21,355.1-148.21,355.1"/><path class="cls-7" d="m1074.02,2071.18c55.15-30.68,131.2-7.29,181.39,32.91"/><polyline class="cls-7" points="1542.37 2196.94 1415.65 1961.55 1199.5 2051.7"/><polyline class="cls-7" points="1630.03 1501.74 1465.78 1947.59 1420.36 1969.31"/><g><path class="cls-1" d="m1624.48,1498.75l7.07-53.87c1.13-8.64,4.8-16.32,10.14-22.41.76-1.73,1.72-3.53,2.9-5.41,17.53-27.86,55.02-87.7,55.02-87.7,4.68-7.44,22.83,6.89,19.4,28.58-3.27,20.62-12.79,44.43-25.13,62.44,8.47,3.63,20.25,4.17,34.49-6.77,3.46-2.65,8.1-6.27,12.05-9.35,10.79-10.38,84.24-81.02,89.66-86.23,7.6-7.31,19.68-7.07,26.99.53,7.31,7.6,7.07,19.68-.53,26.99-4.25,4.09-50.44,48.51-75.32,72.44l1.46,1.91c33.94-26.07,102.54-78.75,107.33-82.43,8.36-6.42,20.34-4.85,26.76,3.51,6.42,8.36,4.85,20.34-3.51,26.76-4.79,3.68-73.39,56.36-107.33,82.43l.67.87c30.45-21.19,87.87-61.16,92.73-64.54,8.65-6.02,20.55-3.89,26.57,4.76,6.02,8.65,3.89,20.55-4.76,26.57-4.78,3.33-60.47,42.09-91.26,63.52l1.41,1.83c25.07-14.9,66.85-39.73,71.74-42.63,9.06-5.39,20.77-2.4,26.16,6.66,5.39,9.06,2.4,20.77-6.66,26.16-6.73,4-83.38,49.55-90.1,53.55-.92.55-1.88.99-2.85,1.37l-84.87,65.18c-21.29,16.97-46.95,12.64-49.58,14.03l-64.74-76.6c-5.25-9.77-7.36-21-5.9-32.13Z"/><path class="cls-7" d="m1630.38,1530.89c-5.25-9.77-7.36-21-5.9-32.13l7.07-53.87c1.13-8.64,4.8-16.32,10.14-22.41.76-1.73,1.72-3.53,2.9-5.41,17.53-27.86,55.02-87.7,55.02-87.7,4.68-7.44,22.83,6.89,19.4,28.58-3.27,20.62-12.79,44.43-25.13,62.44,8.47,3.63,20.25,4.17,34.49-6.77,3.46-2.65,8.1-6.27,12.05-9.35,10.79-10.38,84.24-81.02,89.66-86.23,7.6-7.31,19.68-7.07,26.99.53,7.31,7.6,7.07,19.68-.53,26.99-4.25,4.09-50.44,48.51-75.32,72.44l1.46,1.91c33.94-26.07,102.54-78.75,107.33-82.43,8.36-6.42,20.34-4.85,26.76,3.51,6.42,8.36,4.85,20.34-3.51,26.76-4.79,3.68-73.39,56.36-107.33,82.43l.67.87c30.45-21.19,87.87-61.16,92.73-64.54,8.65-6.02,20.55-3.89,26.57,4.76,6.02,8.65,3.89,20.55-4.76,26.57-4.78,3.33-60.47,42.09-91.26,63.52l1.41,1.83c25.07-14.9,66.85-39.73,71.74-42.63,9.06-5.39,20.77-2.4,26.16,6.66,5.39,9.06,2.4,20.77-6.66,26.16-6.73,4-83.38,49.55-90.1,53.55-.92.55-1.88.99-2.85,1.37l-84.87,65.18c-2.44,1.87-4.99,3.48-7.61,4.87-17.83,10.73-41.97,9.15-41.97,9.15"/><path class="cls-7" d="m1703.73,1429.63s46.8,69.14-15.6,116.58"/><path class="cls-7" d="m1746.96,1437.23c34.35,21.62,52.35,74.2,52.35,74.2"/></g><path class="cls-7" d="m1326.65,2246.8c20.03,115.44-13.52,271.2-9.26,316.21"/><path class="cls-18" d="m1909.88,2654.73c1.93,0,1.93-3,0-3s-1.93,3,0,3h0Z"/></g><polyline class="cls-7" points="1720.37 3204.67 1727.95 3260.55 1762.92 3223.22"/><path class="cls-7" d="m1268.37,3119.41c0-47.81,38.01-79.95,38.01-79.95-57.93,21.56-129.29,123.2-129.29,123.2"/><path class="cls-7" d="m2303.78,3686c-34.98,110.58-146.78,195.27-146.78,195.27"/><line class="cls-7" x1="1818.66" y1="3260.55" x2="2157" y2="3821.64"/><path class="cls-7" d="m1168.06,3379.75c203.11-6.33,459.92-112.9,459.92-112.9"/><g><path class="cls-18" d="m864.58,1757.29c-51.31,71.35-65.8,102.96-22.75,161.15,43.05,58.19,117.66,153.85,152.59,168.54,34.92,14.69-129.83-329.68-129.83-329.68Z"/><g><path class="cls-1" d="m1095.42,2011.86l3.96,203.33c-1.51,61.9-193.88,53.87-194.07-10.28l19.31-299.27s155.12-63.88,170.8,106.22Z"/><path class="cls-7" d="m905.83,2196.94l18.8-291.29s155.12-63.88,170.8,106.22l1.89,129.54"/></g><path class="cls-1" d="m924.65,1667.68c-267.42,113.75,71.55,448.27,173.87,408.74,94.1-36.35,76.5-153.19,35-256.24-42.19-104.76-91.09-202.6-208.86-152.51Z"/><path class="cls-7" d="m1098.51,2076.43c94.1-36.35,76.5-153.19,35-256.24-42.19-104.76-91.09-202.6-208.86-152.51"/><path class="cls-18" d="m1025.32,1848.4c-17.88-6.58-17.56,25.56.42,25.29,17.98-.26,7.02-22.55-.42-25.29Z"/><path class="cls-18" d="m1110.55,1807.7c-17.88-6.59-17.56,25.56.42,25.29,17.98-.26,7.02-22.55-.42-25.29Z"/><path class="cls-7" d="m1058.49,1830.73c30.55,50.13,46.16,63.75,46.16,63.75,0,0-.57,9.44-16.33,16.14"/><path class="cls-18" d="m1094.15,1735.21c-28.21-49.92-57.51-42.79-72.11-22.24-14.6,20.55-35.24,62.25-154.4,108.18,0,0,50.03,111.54,41.06,133.77-8.97,22.24-51.28,28.83-84.95-17.07-82.67-112.69-16.44-192.72,54-245.96,17.61-13.31,52.96-37.77,33.94-65.8,71.14-53.61,222.37,16.56,182.45,109.11Z"/><g><path class="cls-1" d="m951.31,1984.72c14.59-59.35-89.48-91.88-93.95-43.26-4.47,48.62,80.3,98.8,93.95,43.26Z"/><line class="cls-7" x1="916.52" y1="1977.9" x2="894.51" y2="1952.13"/><path class="cls-7" d="m911.4,1922.56c-24.73-9.43-51.8-5.39-54.04,18.89-3.83,41.63,57.79,84.41,84.15,60.97"/></g><path class="cls-18" d="m1104.84,1910.95c-44.75,10.36-69.78,49.91-60.94,81.26-35.66,16.1-111.51-57.6-111.51-57.6,0,0,19.7,59.61,18.52,78.8-1.18,19.19,142.03,108.8,217.17,76.77,59.06-25.18-6.19-176.16-6.19-176.16,0,0-.74,22.27-11.89,24.98,1.2-20.47-22.87-33.19-45.15-28.03Z"/><path class="cls-1" d="m1148.98,1948.61c-1.07-2.48-2.35-5.73-4.07-7.26-13.05-24.3-67,13.68-73.76,39.26-.72,3.51-.48,6.09.49,10.03,4.32,17.56,30.06,37.3,58.08,19.75,28.02-17.55,22.06-55.3,19.26-61.78Z"/><path class="cls-7" d="m1142.74,1962.75s-26.63,19.38-56.25,19.39"/><path class="cls-7" d="m1044.1,1839.69c13.2,31.04,4.82,64.33-18.73,74.34-23.55,10.02-53.35-7.03-66.55-38.07-13.2-31.04,4.7-41.95,28.25-51.97s43.83-15.35,57.03,15.69Z"/><path class="cls-7" d="m1158.9,1790.85c13.2,31.04,4.82,64.33-18.73,74.34-23.55,10.02-53.35-7.03-66.55-38.07-13.2-31.04,4.7-41.95,28.25-51.97,23.55-10.02,43.83-15.35,57.03,15.69Z"/><line class="cls-7" x1="879.89" y1="1918.49" x2="956.36" y2="1870.29"/><line class="cls-7" x1="1026.97" y1="1814.52" x2="1067.38" y2="1797.34"/><path class="cls-7" d="m866.79,1686.85c-99.08,90.8-90.33,138.27-50.26,198.44"/></g><path class="cls-18" d="m2667.79,3929.66l-506.78,1.51,1.19-51.53c68.19-8.45,160.27-79.93,160.27-79.93l39.16-8.14,306.17,138.09Z"/><g><path class="cls-16" d="m2679,3929.63c-.37,7.06-1.25,26.97-1.65,34.7l-526.68,1.57c.38-7.27,1.26-27.17,1.65-34.7l526.68-1.57Z"/><line class="cls-7" x1="2679" y1="3929.63" x2="2152.31" y2="3931.2"/></g><line class="cls-7" x1="3511.27" y1="3750.68" x2="3559.66" y2="3965.9"/><g><g><path class="cls-2" d="m3803.74,3277.97c-12.69,57.08-5.14,117.69-26.11,174.49-33.33,96.8-125.22,173.7-231.56,212.34,2.66-72.47,16.13-146.27,11.53-218.53-3-31.38-12.16-57.87-17.41-89.7-11.43-65.49-1.75-139.2,30.95-199.63,12.81-23.19,25.68-40.82,42-60.81,33.32-39.44,68.52-76.5,96.8-119,29.35-42.49,54.85-87.06,82.98-130.2,70.7,82.28,93.39,192.06,60.76,290.86-13.77,47.23-42.56,92.04-49.95,140.17Z"/><path class="cls-7" d="m3709.95,2977.14c29.35-42.49,54.85-87.06,82.98-130.2,70.7,82.28,93.39,192.06,60.76,290.86-13.77,47.23-42.56,92.04-49.95,140.17"/><path class="cls-12" d="m3600.95,3186.44c7.77,87.39,15.07,176.15-.88,263.46-17.61,84.46-60.16,164.54-130.15,225.7-21.17-71.04-42.19-142.9-66.1-213.58-31.61-84.52-59.09-164.5-67.65-256.46-17.87-172.61,32.62-358.99,165.04-490.55,56.3,151.75,82.48,311.77,99.74,471.43Z"/><path class="cls-2" d="m3430.41,3243.35c-.54,25.86-1.5,51.75-3.74,77.53-2,44.49,7.25,90.15,14.61,135.16,12.76,71.74,24.87,143.45,29.85,215.43-149.63-63.53-275.21-187.87-301.4-333.69-7.31-52.37-5.48-109.29-2.47-160.93,4.53-70.24,8.84-137.96,9.32-207.82.95-57.97.59-116.06,4.98-173.93,178.77,97.73,256.08,272.26,248.87,448.24Z"/><path class="cls-3" d="m3167.25,3176.85c2.64-40.99,5.21-81.12,6.99-121.33,1.27-28.68,2.13-57.4,2.33-86.49.95-57.97.59-116.06,4.98-173.93,178.77,97.73,256.08,272.26,248.87,448.24-.54,25.86-1.5,51.75-3.74,77.53-2,44.49,7.25,90.15,14.61,135.16,12.76,71.74,24.87,143.45,29.85,215.43"/><polygon class="cls-2" points="3360.34 3965.9 3656.58 3965.9 3748.57 3556.74 3268.35 3556.74 3360.34 3965.9"/><path class="cls-10" d="m3229.26,2917.58c67.96,300.77,11.33,483.77,141.58,639.16"/><path class="cls-10" d="m3317.87,2993.41c-16.87,131.66-55.37,136.66-55.37,136.66"/><path class="cls-10" d="m3187.73,3143.97c28.32,61.51,82.84,79.25,82.84,79.25"/><path class="cls-10" d="m3389.72,3260.97c0,89.27-94.49,144.32-94.49,144.32"/><path class="cls-10" d="m3270.58,3487.23c36.09,38.33,71.9,30.79,71.9,30.79"/><path class="cls-7" d="m3486,2830.72c-49.08,162.68-42.86,318.98-18.32,415.65,24.54,96.67,0,310.37,0,310.37"/><path class="cls-7" d="m3408.6,2874.31c-13.21,86.7,44.95,119.1,44.95,119.1"/><path class="cls-7" d="m3548.29,3013.7c-22.65,72.76-94.74,109.75-94.74,109.75"/><path class="cls-7" d="m3430.41,3243.35c12.17,42.55,45.02,50.94,45.02,50.94"/><path class="cls-7" d="m3583.52,3301.01c-27.68,121.61-106.91,142.35-106.91,142.35"/><path class="cls-10" d="m3797.5,2937.51c-54.77,226.16-135.94,304.53-151.04,395.63-15.1,91.09-12.24,209.75-43.88,223.61"/><path class="cls-10" d="m3701.96,3028.98c-21.52,68.74,25.75,113.33,25.75,113.33"/><path class="cls-10" d="m3822.02,3123.45c-50.97,149.58-161.05,159.6-161.05,159.6"/><path class="cls-10" d="m3757.83,3395.21c-15.1,83.71-135.05,123.41-135.05,123.41"/><line class="cls-10" x1="3290.18" y1="3646.19" x2="3726.79" y2="3646.19"/><line class="cls-10" x1="3295.24" y1="3676.32" x2="3719.59" y2="3676.32"/></g><polyline class="cls-7" points="3268.35 3556.74 3748.57 3556.74 3684.19 3843.09"/><line class="cls-7" x1="3507.41" y1="3646.19" x2="3726.79" y2="3646.19"/><line class="cls-7" x1="3576.92" y1="3676.32" x2="3403.31" y2="3676.32"/></g><line class="cls-7" x1="1928.38" y1="3965.9" x2="3853.62" y2="3965.9"/><path class="cls-8" d="m3444.95,1886.41c-105.66,56.33-226.29,88.26-354.38,88.26"/><path class="cls-8" d="m3753.86,860.77c58.06,106.88,91.04,229.37,91.04,359.56"/><path class="cls-8" d="m3854.45,1648.73c-60.18,107.08-142.23,200.23-240.08,273.38"/><path class="cls-8" d="m2477.13,595.45c87.63-86.03,193.27-153.77,310.75-197.05"/><path class="cls-8" d="m1762.93,3546.55c-91.19,39.12-191.63,60.78-297.14,60.78-54.69,0-108.01-5.82-159.4-16.87"/><path class="cls-8" d="m895.46,3517.47c-68.42-58.78-127.65-127.94-175.27-205.04"/><polyline class="cls-8" points="3388.64 1863.1 3453.89 1880.6 3436.39 1945.85"/><polyline class="cls-8" points="3791.38 1661.81 3856.75 1644.75 3873.8 1710.11"/><polyline class="cls-8" points="3732.41 925.12 3752.52 860.63 3817.01 880.74"/><polyline class="cls-8" points="2543.12 599.35 2475.57 598.7 2476.21 531.15"/><polyline class="cls-8" points="2144.36 1524.06 2095.45 1570.66 2048.85 1521.76"/><g><polyline class="cls-8" points="2394.18 2767.07 2346.42 2814.84 2298.65 2767.07"/><line class="cls-8" x1="2346.42" y1="2814.84" x2="2346.42" y2="2609.11"/></g><g><polyline class="cls-8" points="2055.55 1913.78 2103.32 1961.55 2055.55 2009.32"/><line class="cls-8" x1="2103.32" y1="1961.55" x2="1897.59" y2="1961.55"/></g><g><polyline class="cls-8" points="2530.67 2091.86 2578.43 2139.63 2530.67 2187.4"/><line class="cls-8" x1="2578.43" y1="2139.63" x2="2201.73" y2="2139.63"/></g><polyline class="cls-8" points="1336.21 3644.46 1300.86 3586.9 1358.42 3551.54"/><polyline class="cls-8" points="502.3 2417.82 566.98 2398.31 586.49 2462.98"/><polyline class="cls-8" points="703.49 3372.83 717.2 3306.68 783.34 3320.39"/></g></g></g></svg>