<?xml version="1.0" encoding="UTF-8"?><svg id="Layer_2" xmlns="http://www.w3.org/2000/svg" viewBox="0 0 4489.77 4004.4"><defs><style>.cls-1,.cls-2,.cls-3,.cls-4{fill:#fff;}.cls-5,.cls-6,.cls-7,.cls-8,.cls-9,.cls-10,.cls-11,.cls-2,.cls-3,.cls-4{stroke-linecap:round;stroke-linejoin:round;stroke-width:10px;}.cls-5,.cls-7,.cls-10,.cls-11,.cls-12{fill:none;}.cls-5,.cls-4{stroke:#2e2e2e;}.cls-6{fill:#e7eeff;}.cls-6,.cls-8,.cls-10,.cls-3{stroke:#c8cfdc;}.cls-7{stroke:#fff;}.cls-8,.cls-13,.cls-9{fill:#c1c7d7;}.cls-9,.cls-11,.cls-2{stroke:#c1c7d7;}.cls-14{fill:#203058;}.cls-15{fill:#2e2e2e;}</style></defs><g id="Layer_1-2"><g><path class="cls-2" d="m3001.22,2035.33h548.25c48.53,0,87.87,39.34,87.87,87.87v93.24c0,44.69-33.37,81.56-76.55,87.12v94.46l-93.71-93.71h-465.86c-48.53,0-87.87-39.34-87.87-87.87v-93.24c0-48.53,39.34-87.87,87.87-87.87Z"/><line class="cls-2" x1="3524.5" y1="2124.78" x2="3031.85" y2="2124.78"/><line class="cls-2" x1="3524.5" y1="2216.43" x2="3116.63" y2="2216.43"/></g><g><polygon class="cls-2" points="2460.14 801.23 1858.47 801.23 1858.47 75.5 2373.68 75.5 2460.14 163.06 2460.14 801.23"/><polyline class="cls-11" points="2373.68 75.5 2373.68 167.84 2460.14 167.84"/><line class="cls-11" x1="2078.33" y1="295.6" x2="2342.59" y2="295.6"/><line class="cls-11" x1="1971.15" y1="365.96" x2="2342.59" y2="365.96"/><line class="cls-11" x1="1971.15" y1="436.33" x2="2342.59" y2="436.33"/><line class="cls-11" x1="1971.15" y1="506.69" x2="2342.59" y2="506.69"/><line class="cls-11" x1="1971.15" y1="577.05" x2="2185.51" y2="577.05"/></g><g><polygon class="cls-2" points="1366.82 3313.15 737.55 3313.15 737.55 2554.15 1276.39 2554.15 1366.82 2645.72 1366.82 3313.15"/><polyline class="cls-11" points="1276.39 2554.15 1276.39 2650.72 1366.82 2650.72"/><line class="cls-11" x1="967.49" y1="2784.34" x2="1243.87" y2="2784.34"/><line class="cls-11" x1="855.4" y1="2857.93" x2="1243.87" y2="2857.93"/><line class="cls-11" x1="855.4" y1="2931.52" x2="1243.87" y2="2931.52"/><line class="cls-11" x1="855.4" y1="3005.11" x2="1243.87" y2="3005.11"/><line class="cls-11" x1="855.4" y1="3078.7" x2="1079.58" y2="3078.7"/></g><g><polygon class="cls-2" points="3017.91 1886.05 2425.15 1886.05 2425.15 1171.08 2932.73 1171.08 3017.91 1257.34 3017.91 1886.05"/><polyline class="cls-11" points="2932.73 1171.08 2932.73 1262.05 3017.91 1262.05"/><line class="cls-11" x1="2641.75" y1="1387.92" x2="2902.1" y2="1387.92"/><line class="cls-11" x1="2536.16" y1="1457.24" x2="2902.1" y2="1457.24"/><line class="cls-11" x1="2536.16" y1="1526.56" x2="2902.1" y2="1526.56"/><line class="cls-11" x1="2536.16" y1="1595.88" x2="2902.1" y2="1595.88"/><line class="cls-11" x1="2536.16" y1="1665.2" x2="2747.34" y2="1665.2"/></g><g><path class="cls-2" d="m1432.55,3994.53v-605.29h538.84l90.43,91.57v513.72"/><polyline class="cls-11" points="1971.39 3389.23 1971.39 3485.81 2061.81 3485.81"/><line class="cls-11" x1="1662.49" y1="3619.43" x2="1938.87" y2="3619.43"/><line class="cls-11" x1="1550.39" y1="3693.02" x2="1938.87" y2="3693.02"/><line class="cls-11" x1="1550.39" y1="3766.6" x2="1938.87" y2="3766.6"/><line class="cls-11" x1="1550.39" y1="3840.19" x2="1938.87" y2="3840.19"/><line class="cls-11" x1="1550.39" y1="3913.78" x2="1774.58" y2="3913.78"/></g><g><path class="cls-2" d="m809.23,3231.28c-14.12,63.47-5.71,130.86-29.03,194.02-37.06,107.64-139.24,193.15-257.48,236.11,2.96-80.58,17.94-162.65,12.82-242.99-3.34-34.89-13.52-64.34-19.36-99.74-12.71-72.82-1.95-154.78,34.41-221.97,14.24-25.78,28.55-45.39,46.7-67.62,37.05-43.85,76.19-85.06,107.64-132.32,32.64-47.25,60.99-96.8,92.26-144.78,78.62,91.49,103.84,213.56,67.56,323.42-15.31,52.52-47.33,102.34-55.54,155.86Z"/><path class="cls-2" d="m583.74,3129.5c8.64,97.17,16.75,195.87-.97,292.95-19.58,93.92-66.89,182.96-144.71,250.97-23.54-78.99-46.91-158.89-73.5-237.49-35.15-93.98-65.7-182.91-75.23-285.16-19.87-191.93,36.27-399.17,183.52-545.46,62.6,168.74,91.72,346.67,110.9,524.2Z"/><path class="cls-2" d="m394.12,3192.79c-.6,28.76-1.67,57.54-4.16,86.21-2.22,49.47,8.06,100.24,16.24,150.29,14.19,79.77,27.65,159.5,33.19,239.54-166.38-70.64-306.01-208.9-335.14-371.04-8.13-58.24-6.09-121.52-2.75-178.95,5.03-78.1,9.83-153.4,10.37-231.08,1.06-64.46.66-129.05,5.53-193.39,198.79,108.67,284.75,302.74,276.72,498.42Z"/><polygon class="cls-2" points="316.2 3996.21 645.61 3996.21 747.89 3541.26 213.92 3541.26 316.2 3996.21"/><path class="cls-11" d="m170.45,2830.55c75.57,334.44,12.59,537.92,157.43,710.71"/><path class="cls-11" d="m268.98,2914.87c-18.76,146.39-61.57,151.96-61.57,151.96"/><path class="cls-11" d="m124.28,3082.29c31.49,68.39,92.12,88.12,92.12,88.12"/><path class="cls-11" d="m348.87,3212.38c0,99.26-105.06,160.48-105.06,160.48"/><path class="cls-11" d="m216.39,3463.96c40.12,42.62,79.95,34.24,79.95,34.24"/><path class="cls-11" d="m455.92,2733.97c-54.58,180.89-47.66,354.69-20.37,462.17,27.29,107.49,0,345.11,0,345.11"/><path class="cls-11" d="m369.86,2782.44c-14.69,96.4,49.98,132.43,49.98,132.43"/><path class="cls-11" d="m525.19,2937.43c-25.19,80.91-105.35,122.04-105.35,122.04"/><path class="cls-11" d="m394.12,3192.79c13.53,47.32,50.06,56.64,50.06,56.64"/><path class="cls-11" d="m564.37,3256.9c-30.78,135.22-118.88,158.28-118.88,158.28"/><path class="cls-11" d="m802.29,2852.71c-60.9,251.47-151.16,338.62-167.95,439.91s-13.62,233.23-48.79,248.64"/><path class="cls-11" d="m696.06,2954.42c-23.93,76.43,28.64,126.01,28.64,126.01"/><path class="cls-11" d="m829.56,3059.47c-56.67,166.33-179.08,177.47-179.08,177.47"/><path class="cls-11" d="m593.32,3393.91c7.44,32.19,25.18,40.56,25.18,40.56"/><path class="cls-11" d="m758.19,3361.64c-16.79,93.08-150.17,137.23-150.17,137.23"/><line class="cls-11" x1="238.19" y1="3640.72" x2="723.67" y2="3640.72"/><line class="cls-11" x1="243.81" y1="3674.22" x2="715.66" y2="3674.22"/></g><g><rect class="cls-13" x="109.24" y="656.14" width="2578.52" height="1807.31" rx="94.56" ry="94.56"/><rect class="cls-2" x="5" y="490.02" width="2599.95" height="1898.64" rx="97.32" ry="97.32"/><path class="cls-13" d="m5,654.18v-66.84c0-53.75,43.57-97.32,97.32-97.32h2405.31c53.75,0,97.32,43.57,97.32,97.32v66.84H5Z"/><g><circle class="cls-7" cx="96.27" cy="573.79" r="32.91"/><circle class="cls-7" cx="215.49" cy="573.79" r="32.91"/><circle class="cls-7" cx="334.71" cy="573.79" r="32.91"/><polyline class="cls-7" points="465.94 600.52 436.12 570.7 465.94 540.88"/><polyline class="cls-7" points="545.05 540.88 574.87 570.7 545.05 600.52"/><g><rect class="cls-7" x="2298.59" y="553.45" width="65.49" height="65.49"/><polyline class="cls-7" points="2314.85 553.45 2314.85 537.19 2380.34 537.19 2380.34 602.68 2364.08 602.68"/></g><line class="cls-7" x1="2485.54" y1="578.4" x2="2548.87" y2="578.4"/><line class="cls-7" x1="2517.2" y1="546.73" x2="2517.2" y2="610.07"/></g><g><g><path class="cls-2" d="m1832.52,1030.55c-33.95-14.35-71.43-22.33-110.84-22.33-5.47,0-10.89.17-16.28.47l16.28,268.62,110.84-246.76Z"/><path class="cls-2" d="m1705.41,1008.69c-145.73,8.17-261.31,125.31-261.31,268.62s124.28,269.09,277.58,269.09c73.93,0,141.1-28.02,190.84-73.7l-190.84-195.39-16.28-268.62Z"/><path class="cls-2" d="m1999.28,1277.31c0-110.42-68.61-205.28-166.75-246.76l-110.84,246.76,190.84,195.39c53.42-49.04,86.75-118.45,86.75-195.4Z"/></g><polyline class="cls-11" points="1029.73 1428.49 1286.72 1428.48 1595.1 1318.14"/><polyline class="cls-11" points="1768.97 1056.79 2072.39 843.83 2464.24 843.82"/><polyline class="cls-11" points="1912.53 1304.58 2154.27 1428.48 2464.24 1428.47"/><line class="cls-2" x1="229.82" y1="776.1" x2="1421.21" y2="776.09"/><line class="cls-2" x1="2200.12" y1="776.07" x2="2464.24" y2="776.06"/><line class="cls-2" x1="2200.12" y1="1250.54" x2="2464.24" y2="1250.54"/><line class="cls-2" x1="2200.12" y1="1304.58" x2="2464.24" y2="1304.57"/><line class="cls-2" x1="2200.12" y1="1358.61" x2="2400.33" y2="1358.61"/><line class="cls-2" x1="229.82" y1="824.5" x2="1421.21" y2="824.49"/><line class="cls-2" x1="229.82" y1="872.9" x2="1421.21" y2="872.89"/><line class="cls-2" x1="229.82" y1="921.29" x2="1421.21" y2="921.28"/><path class="cls-2" d="m229.82,969.69c93.33.74,987.7-.56,1083.56,0"/><line class="cls-2" x1="1277.33" y1="1652.63" x2="2468.73" y2="1652.61"/><line class="cls-2" x1="1277.33" y1="1732.23" x2="2468.73" y2="1732.21"/><line class="cls-2" x1="1277.33" y1="1811.82" x2="2468.73" y2="1811.81"/><line class="cls-2" x1="1277.33" y1="1891.42" x2="2468.73" y2="1891.4"/><path class="cls-2" d="m1277.33,1971.02c93.33,1.22,987.7-.92,1083.56-.01"/></g><path class="cls-5" d="m5,1657.71V587.34c0-53.75,43.57-97.32,97.32-97.32h1616.5"/><path class="cls-5" d="m2604.95,766.93v1524.42c0,53.75-43.57,97.32-97.32,97.32H332.12"/><g><g><path class="cls-15" d="m612.26,2388.66c-31.06-101.71-50.3-164.71-50.3-164.71,0,0,34.99-1.9,88.83-4.81h576.96c14.25,56.56,28.41,113.09,42.49,169.52h-657.97Z"/><path class="cls-15" d="m1055.31,2388.66c8.13-71.06,12.83-132.28,10.96-169.52H418.29c-11.29,2.43-17.53,3.84-17.53,3.84-8.07,52.52-15.13,107.89-21.25,165.68h675.81Z"/><path class="cls-5" d="m1062.54,2279.92c1.77,38.86,2.68,75.04,2.85,108.74"/></g><g><g><path class="cls-4" d="m1621.88,1726.43c198.38-107.92,349.19-189.97,349.19-189.97l-40.29-147.18s-122.7,50.99-294.77,122.5l-14.13,214.65Z"/><polygon class="cls-1" points="1569.32 1821.64 1923.69 1638.14 1814.1 1406.3 1540.69 1567.96 1569.32 1821.64"/><path class="cls-14" d="m1274.09,1950.62c-21-19.49-37.02-44.14-46.19-71.93l-271.65-605.84c-29.7-89.93,95.68-239.89,185.61-269.59,89.93-29.7,186.91,19.12,216.62,109.05l135.27,477.69,279.87-182.01,93.04,286.76-405.17,286.38c-44.32,20.07-95.07,20.37-139.62.84-17.75-7.79-33.86-18.43-47.77-31.34Z"/><g><path class="cls-1" d="m2225.88,1189.82c11.41-9.64,12.85-26.71,3.21-38.13-9.64-11.41-26.71-12.85-38.13-3.21-8.47,7.16-158.44,134.53-166.91,141.69-11.41,9.64-12.85,26.71-3.21,38.13,9.64,11.41,26.71,12.85,38.13,3.21,8.47-7.16,158.44-134.53,166.91-141.69Z"/><path class="cls-1" d="m1911.95,1528.42l-38.49-49.76c-12.92-15.3-19.24-35.1-17.56-55.05l6.46-76.75c2.78-33.04,31.82-57.57,64.86-54.79,0,0,28.95,38.95,70.16,4.13,10.02-8.46,27.33-23.39,27.33-23.39,8.24-7.05,20.64-6.05,27.63,2.24l108.71,128.68c10.17,12.03,8.65,30.03-3.38,40.19l-134.71,85.83c-53.27,27.15-84.1,30.51-111.01-1.34Z"/><path class="cls-5" d="m1963.56,1320.5s70.83,94.81-14.4,166.1"/><g><path class="cls-1" d="m2046.91,1236.31s-92.89,37.3-136.22,54.59c-43.33,17.29-18.1,56.06,21.86,52.38,36.27-3.35,83.85-29.21,112.74-58.04,22.03-21.98,13.19-53.55,1.62-48.93Z"/><path class="cls-5" d="m1932.55,1343.28c36.27-3.35,83.85-29.21,112.74-58.04"/></g><g><path class="cls-1" d="m2150.42,1393.81c14.46-3.78,23.11-18.56,19.34-33.02-3.78-14.46-18.56-23.11-33.02-19.34-10.73,2.8-86.05,22.48-96.78,25.28-14.46,3.78-23.11,18.56-19.34,33.02,3.78,14.46,18.56,23.11,33.02,19.34,10.73-2.8,86.05-22.48,96.78-25.28Z"/><path class="cls-1" d="m2136.74,1341.45c14.46-3.78,23.11-18.56,19.34-33.02-3.78-14.46-18.56-23.11-33.02-19.34-10.73,2.8-76.27,19.93-87,22.73-14.46,3.78-23.11,18.56-19.34,33.02,3.78,14.46,18.56,23.11,33.02,19.34,10.73-2.8,76.27-19.93,87-22.73Z"/><path class="cls-1" d="m2164.1,1446.16c14.46-3.78,23.11-18.56,19.34-33.02-3.78-14.46-18.56-23.11-33.02-19.34-10.73,2.8-74.89,19.56-85.62,22.37-14.46,3.78-23.11,18.56-19.34,33.02,3.78,14.46,18.56,23.11,33.02,19.34,10.73-2.8,74.89-19.56,85.62-22.37Z"/><g><path class="cls-5" d="m2136.74,1341.45c-10.73,2.8-86.05,22.48-96.78,25.28-14.46,3.78-23.11,18.56-19.34,33.02,3.78,14.46,18.56,23.11,33.02,19.34,10.73-2.8,86.05-22.48,96.78-25.28"/><path class="cls-5" d="m2067.05,1303.73c-14.32,3.74-26.81,7-30.99,8.1-14.46,3.78-23.11,18.56-19.34,33.02,3.78,14.46,18.56,23.11,33.02,19.34,10.73-2.8,76.27-19.93,87-22.73"/><path class="cls-5" d="m2150.42,1393.81c-10.73,2.8-74.89,19.56-85.62,22.37-14.46,3.78-23.11,18.56-19.34,33.02,3.78,14.46,18.56,23.11,33.02,19.34,6.66-1.74,33.9-8.86,56.17-14.67"/></g></g></g><path class="cls-5" d="m1911.48,1527.98c26.91,31.85,57.74,28.48,111.01,1.34l124.29-79.2c7.9-2.06,14.11-3.69,16.84-4.4,14.46-3.78,23.11-18.56,19.34-33.02-3.61-13.82-17.28-22.31-31.1-19.74l-.14-.16c13.37-4.49,21.18-18.61,17.56-32.45-3.78-14.46-18.56-23.11-33.02-19.34-.53.14-1.25.33-2.08.54.81-.21,1.53-.4,2.08-.54,14.46-3.78,23.11-18.56,19.34-33.02-3.78-14.46-18.56-23.11-33.02-19.34-3.1.81-10.8,2.82-20.41,5.33,47.62-40.43,117.52-99.79,123.22-104.61,11.41-9.64,12.85-26.71,3.21-38.13-9.64-11.41-26.71-12.85-38.13-3.21-6.1,5.16-85.61,72.68-132.78,112.73,2.79-15.28-3.64-27.94-11.26-24.9,0,0-92.89,37.3-136.22,54.59-3.57,1.42-6.67,3-9.34,4.68-21.15,7.84-36.98,27.32-39,51.28l-6.45,76.75m276.3-80.96c.08-.02.16-.04.24-.06-.09.02-.16.04-.24.06Zm-15.59,4.07c.18-.05.37-.1.55-.14-.18.05-.36.1-.55.14Zm7.56-1.97c.79-.21,1.56-.41,2.3-.6-.74.19-1.5.39-2.3.6Z"/><path class="cls-5" d="m1369.59,1646.63c14.96-9.06,124.15-56.63,124.15-56.63l-62.83,67.71"/><line class="cls-5" x1="1773.61" y1="1407.99" x2="1866.65" y2="1694.74"/><line class="cls-5" x1="1814.1" y1="1406.3" x2="1923.69" y2="1638.14"/></g><path class="cls-14" d="m265.82,1009.93c199.32-232.54,893.25-212.68,1077.91,54.05,81.07,117.1-35.61,518.38-43.69,814.37-7.64,279.53,54.99,391.41-159.86,406.8-304.96,21.84-526.06,24.22-661.17-21.99-135.11-46.21-111.09-992.01-114.1-1001.01-3-9.01-225.19-105.09-99.08-252.21Z"/><path class="cls-5" d="m1269.71,2241.58c-23.71,25-63.53,38.84-129.53,43.56-304.96,21.84-526.06,24.22-661.17-21.99"/><path class="cls-1" d="m1084.73,1193.35c-21.15,113.71-57.29,210.2-57.29,210.2,0,0-25.22-52.85-66.05-126.17-63.29-113.66-164.08-276.53-266.61-368.13,0,0,372.3-53.51,396.44,53.83,15.34,68.22,7.87,153.2-6.48,230.27Z"/><g><path class="cls-14" d="m501.98,1033.95c-130.99-133.3-220.21-35.9-274.84,66.65,0,0-155.53,509.06-144.45,761.3,7.76,176.57,175.65,278.61,330.49,363.37,92.3,50.52,246.74-180.59,122.56-260.41-115.04-73.94-138.71-115.87-138.71-115.87,0,0,276.43-640.55,104.95-815.06Z"/><path class="cls-5" d="m413.18,2225.28c92.3,50.52,246.74-180.59,122.56-260.41-115.04-73.94-138.71-115.87-138.71-115.87,0,0,276.43-640.55,104.95-815.06"/><g><path class="cls-4" d="m671.32,2206.05s29.92-26.71,49.14-24.57c29.88,3.32,11.29,35.2,11.29,35.2,0,0,19.26,23.91,0,51.13-48.63,68.76-91.64,38.52-91.64,38.52-41.17,20.59-81.68-4.65-81.68-4.65-34.53,2.66-52.46-15.27-52.46-15.27-37.85,17.27-61.76-29.88-67.07-64.42-5.31-34.53-1.99-138.13-1.99-138.13l-107.97,46.35c-13.62,5.85-29.46,1.11-37.64-11.24h0c-9.91-14.96-4.9-35.2,10.84-43.81l121.54-66.5c40.8-22.32,91.1-17.38,126.78,12.45,25.61,21.41,54.87,45.82,77.63,64.66,24.66,20.42,39.58,50.19,41.26,82.17l1.99,38.11Z"/><line class="cls-5" x1="731.75" y1="2216.67" x2="669.99" y2="2287.73"/><line class="cls-5" x1="671.32" y1="2206.05" x2="588.97" y2="2277.1"/><path class="cls-5" d="m501.98,2174.84l5.31,41.84s46.82-59.71,74.38-38.52c17.27,13.28,0,38.52,0,38.52,0,0,71.15-55.36,89.65-10.63"/><line class="cls-5" x1="525.89" y1="2263.16" x2="581.67" y2="2216.67"/></g><path class="cls-5" d="m276.22,1850.85c77.64-29.11,120.81-1.84,120.81-1.84,0,0-44.79-4.63-77.14,29.34"/><path class="cls-5" d="m465.46,1978.62c42.04-32.48,87.56,0,87.56,0"/></g><path class="cls-5" d="m1316.06,1124.38c36.82,260.2-34.37,733.5-34.37,733.5l18.56,138.52"/><path class="cls-15" d="m1084.73,1193.35c-21.15,113.71-57.29,210.2-57.29,210.2,0,0-25.22-52.85-66.05-126.17,2.3-25.38,4.15-48.18,5.24-66.39,6.99-116.43-8.93-189-8.93-189l-73.14-89.01,140.48-14.08-13.26,89.18s36.32,82.54,72.96,185.28Z"/><g><path class="cls-1" d="m740.31,748.71c-66.2,31.97-97.36,106.11-97.36,106.11l170.63,179.13s49.75-96.08,139.83-99.08c90.08-3,144.12,99.08,144.12,99.08,0,0,13.1-76.97-5.45-142.62-6.57-23.24-43.65-66.32-77.28-88.68-74.25-49.38-274.49-53.94-274.49-53.94Z"/><path class="cls-5" d="m642.94,854.82l170.63,179.13s49.75-96.08,139.83-99.08c90.08-3,144.12,99.08,144.12,99.08,0,0,10.53-61.86-.65-121.97"/><g><g><g><path class="cls-1" d="m1027.27,645.82l-27.26,238.06c-14.24,97.89-269.87-29.91-257.89-131.68,11.98-101.77,34.58-307.51,34.58-307.51,0,0,258.24-71.64,250.57,201.13Z"/><path class="cls-1" d="m824.65,206.08c-374.9,124.4,27.6,605.57,190.15,573.03,95.39-19.1,120.64-199.03,75.86-343.24-45.52-146.61-100.9-284.58-266.01-229.79Z"/><path class="cls-5" d="m830.64,692.7c64.64,59.5,135.26,96.2,184.16,86.41,82.47-16.51,112.51-153.24,90.2-283.16"/><path class="cls-15" d="m928.17,473.87c-11.85-23.03-41.07,9.45-22.83,25.71,18.24,16.26,27.76-16.13,22.83-25.71Z"/><path class="cls-15" d="m1070.23,434.49c-9.52-24.08-41.8,5.36-25.25,23.34,16.55,17.98,29.21-13.31,25.25-23.34Z"/><path class="cls-5" d="m1064.33,358.08c-39.3-14.33-69.58,9.93-69.58,9.93"/><path class="cls-5" d="m912,396.57c-43.89,0-76.14,29.22-76.14,29.22"/><path class="cls-5" d="m964.47,441.71c35.82,71.31,60.35,106.27,60.35,106.27,0,0,3.66,16.8-18.89,28.13"/></g><g><path class="cls-15" d="m1064.33,358.08c-34.79-139.32-146.34-117.74-256.66-32.93,26.52,68.31-40.66,156.55-40.66,156.55,0,0-12.4,131.22-22.86,210.99-39.72-37.97-90.65-81.92-127.51-161.31-51.78-111.51-53.99-258.43,107.19-300.97,48.3-121.76,247.51-92,284.88-65.22,81.53,58.43,85.56,117.55,55.62,192.88Z"/><g><path class="cls-1" d="m812.75,589.14c26.35-78.78-111.02-134.41-122.47-69.04-11.46,65.36,97.82,142.75,122.47,69.04Z"/><line class="cls-5" x1="782.32" y1="566.27" x2="728.07" y2="531.38"/><path class="cls-5" d="m783.75,511.53c-34.96-26.37-86.63-30.44-93.47,8.56-9.81,55.98,68.92,120.77,107.22,91.93"/></g></g></g><path class="cls-5" d="m951.01,638.31c43.74,23.92,98.37,10.69,98.37,10.69"/><ellipse class="cls-5" cx="908.87" cy="481.7" rx="64.54" ry="45.91" transform="translate(179.61 1207.14) rotate(-72.77)"/><ellipse class="cls-5" cx="1048.43" cy="434.14" rx="64.54" ry="45.91" transform="translate(323.27 1306.97) rotate(-72.77)"/><line class="cls-5" x1="752.77" y1="495.4" x2="862.57" y2="477.89"/><line class="cls-5" x1="951.01" y1="441.71" x2="998.79" y2="422.98"/><path class="cls-5" d="m754.18,614.94c-.22-.08-12.07,137.25-12.07,137.25,27.9,113.81,166.76,166.71,166.76,166.71"/><line class="cls-5" x1="1014.8" y1="779.11" x2="1000.01" y2="883.87"/></g></g><path class="cls-5" d="m905.76,1182.03c87.39,129.26,121.68,221.53,121.68,221.53,0,0,62.13-189.42,67.18-274.56"/></g></g><line class="cls-5" x1="5" y1="654.18" x2="513.25" y2="654.18"/></g><g><path class="cls-11" d="m2682.46,267.24h585.73c51.85,0,93.88,42.03,93.88,93.88h0c0,47.75-35.65,87.14-81.78,93.08v100.92l-100.12-100.12h-497.71c-51.85,0-93.88-42.03-93.88-93.88h0c0-51.85,42.03-93.88,93.88-93.88Z"/><line class="cls-11" x1="3241.51" y1="361.77" x2="2715.18" y2="361.77"/></g><g><path class="cls-2" d="m1834.23,5h-548.25c-48.53,0-87.87,39.34-87.87,87.87v93.24c0,44.69,33.37,81.56,76.55,87.12v94.46l93.71-93.71h465.86c48.53,0,87.87-39.34,87.87-87.87v-93.24c0-48.53-39.34-87.87-87.87-87.87Z"/><line class="cls-2" x1="1310.96" y1="94.45" x2="1803.6" y2="94.45"/><line class="cls-2" x1="1310.96" y1="186.1" x2="1718.82" y2="186.1"/></g><g><path class="cls-9" d="m3026.3,607.31h758.74c56.42,0,102.16,45.74,102.16,102.16v204.32c0,56.42-45.74,102.16-102.16,102.16h-641.56l-122.53,122.53v-122.67c-53.93-2.78-96.81-47.39-96.81-102.02v-204.32c0-56.42,45.74-102.16,102.16-102.16Z"/><line class="cls-7" x1="3756.01" y1="724.48" x2="3061.92" y2="724.48"/><line class="cls-7" x1="3585.96" y1="812.39" x2="3061.92" y2="812.39"/><line class="cls-7" x1="3468.85" y1="900.31" x2="3067.72" y2="900.31"/></g><g><rect class="cls-13" x="689.48" y="2935.78" width="1004.2" height="381.79" rx="76.66" ry="76.66"/><rect class="cls-2" x="650.48" y="2896.78" width="1004.2" height="381.79" rx="76.66" ry="76.66"/></g><circle class="cls-14" cx="826.57" cy="3090.42" r="106.68" transform="translate(-1943.16 1489.64) rotate(-45)"/><path class="cls-2" d="m826.57,3149.31c-4.63,0-9.27-1.73-12.86-5.19l-59.3-57.18c-7.37-7.1-7.58-18.83-.48-26.2,7.1-7.37,18.84-7.58,26.2-.48l46.14,44.49,99.51-100.37c7.21-7.27,18.94-7.32,26.21-.11,7.27,7.21,7.32,18.94.11,26.21l-112.37,113.35c-3.62,3.65-8.39,5.48-13.16,5.48Z"/><g><line class="cls-11" x1="1056.37" y1="3024.39" x2="1528.72" y2="3024.39"/><line class="cls-11" x1="1056.37" y1="3094.1" x2="1528.72" y2="3094.1"/><line class="cls-11" x1="1056.37" y1="3163.81" x2="1423.51" y2="3163.81"/></g><g><polygon class="cls-9" points="1490.2 3300.49 1481.85 3281.44 1354.74 3240.72 1414.51 3376.19 1435.58 3355.11 1493.94 3413.48 1527.49 3379.92 1519.13 3360.88 1469.13 3321.56 1490.2 3300.49"/><polygon class="cls-2" points="1481.85 3281.44 1346.38 3221.68 1406.15 3357.14 1427.22 3336.07 1485.58 3394.43 1519.13 3360.88 1460.77 3302.51 1481.85 3281.44"/></g><g><rect class="cls-2" x="3591.81" y="916.43" width="431.82" height="535.42" rx="37.44" ry="37.44"/><g><g><line class="cls-11" x1="3769.97" y1="1042.63" x2="3925.55" y2="1042.63"/><line class="cls-11" x1="3687.44" y1="1321.34" x2="3843.02" y2="1321.34"/><line class="cls-11" x1="3687.44" y1="1089.08" x2="3925.55" y2="1089.08"/><line class="cls-11" x1="3687.44" y1="1135.53" x2="3925.55" y2="1135.53"/><line class="cls-11" x1="3687.44" y1="1181.98" x2="3925.55" y2="1181.98"/><line class="cls-11" x1="3687.44" y1="1228.44" x2="3925.55" y2="1228.44"/><line class="cls-11" x1="3687.44" y1="1274.89" x2="3925.55" y2="1274.89"/></g><polyline class="cls-11" points="3888.45 959.15 3982.72 959.15 3982.72 1412.23 3630.27 1412.23 3630.27 959.15 3724.4 959.15"/><g><path class="cls-2" d="m3835.74,893.15v-39.83h-58.49v39.83h-28.5c-20.71,0-37.5,16.79-37.5,37.5h0c0,20.71,16.79,37.5,37.5,37.5h115.49c20.71,0,37.49-16.79,37.49-37.5h0c0-20.71-16.79-37.5-37.49-37.5h-28.5Z"/><line class="cls-11" x1="3764.5" y1="935.15" x2="3848.49" y2="935.15"/></g></g></g><g><path class="cls-15" d="m3304.25,1685.03c65.11,198.97,8.59,383.88,8.59,383.88,0,0,123.72-16.51,223.04-73.56,0,0-34.9-176.51-67.77-342.72l-163.86,32.4Z"/><g><g><polygon class="cls-4" points="3312.62 1734.68 3432.59 2117.05 3627.27 2132.83 3603.9 1700.12 3312.62 1734.68"/><g><path class="cls-15" d="m3535.06,1387.84c-130.76-126.13-310.84-16.1-246.09,154.22,55.3,145.45,332.73,76.07,332.73,76.07l-86.64-230.3Z"/><path class="cls-1" d="m3496.28,1396.02c-77.32-25.09-142.15,4.16-190.09,84.85-5.59,9.4-16.1,61.26-19.95,71.12-24.84,63.68-74.69,90.92-82.17,99.11-17.95,19.66,26.11,44.5,26.11,44.5,0,0-17.66,116.48,9.73,162.59,27.39,46.11,344.48,27.72,350.74-138.34,5.35-141.98,81.39-289.08-94.38-323.82Z"/><path class="cls-5" d="m3496.28,1396.02c-192.03-37.41-206.19,146.11-210.04,155.97-24.84,63.68-74.69,90.92-82.17,99.11-17.95,19.66,26.11,44.5,26.11,44.5,0,0-17.66,116.48,9.73,162.59,10.82,18.22,66.47,19.32,131.09,19.32s98.95-42.1,98.95-42.1"/></g><path class="cls-5" d="m3335.01,1528.56c29.95,15.83,38.24,58.77,38.24,58.77"/><path class="cls-15" d="m3310.7,1590.04c-9.5,35.31,28,.75,24-12.41-4-13.16-17.36-12.28-24,12.41Z"/><path class="cls-5" d="m3224.79,1759.22c41.45,8.55,72.97-12.78,72.97-12.78"/><path class="cls-15" d="m3376.8,1417.07l235.2,477.94s25.67-23.77,106.47-148.58c164.17-253.56-61.33-397.76-175.98-397.55-188.94.35-165.69,68.18-165.69,68.18Z"/></g><path class="cls-13" d="m2179.99,2491.07l-203.16,383.33c-29.18,55.07,10.73,121.4,73.05,121.4h397.48l-79.53-4.47c-68.46-3.85-118.39-66.33-107.05-133.96l60.28-359.45-141.07-6.84Z"/><g><g><path class="cls-13" d="m2610.08,2946.86h-854.44v48.94h854.44v-48.94Z"/><line class="cls-5" x1="2842.25" y1="2946.86" x2="1705.44" y2="2946.86"/></g><g><path class="cls-1" d="m2979.76,3999.4c-31.86-131.58-54.51-225.15-54.51-225.15l686.49,41.27-301.91-427.31-563.95,70.69c-155.74,19.52-249.59,182.57-188.25,327.04,0,0,37.44,88.19,90.63,213.47h331.5Z"/><path class="cls-5" d="m2557.63,3785.93s37.44,88.19,90.63,213.47"/></g><g><path class="cls-1" d="m2733.4,3999.4c-31.86-131.58-54.51-225.15-54.51-225.15l686.49,41.27-301.91-427.31-563.95,70.69c-155.74,19.52-249.59,182.57-188.25,327.04,0,0,37.44,88.19,90.63,213.47h331.5Z"/><path class="cls-5" d="m2733.4,3999.4c-31.86-131.58-54.51-225.15-54.51-225.15"/><path class="cls-5" d="m3365.37,3815.52l-301.91-427.31-563.95,70.69c-155.74,19.52-249.59,182.57-188.25,327.04,0,0,37.44,88.19,90.63,213.47"/></g><g><line class="cls-5" x1="1755.63" y1="2995.79" x2="3748.27" y2="2995.79"/><line class="cls-2" x1="1956.95" y1="3066.86" x2="3140.79" y2="3066.86"/></g><g><path class="cls-13" d="m3682.8,2235.39c23.72-111.48,73.53-220.6,227.71-109.11,154.18,111.48,449.79,595.31,423.69,721.03-26.09,125.72-559.48,177.03-559.48,177.03l-91.92-788.95Z"/><path class="cls-13" d="m3968.42,2216.04c-136.76-263.55-551.06-195.91-723.83-51.88-188.86,157.46,294.99,957.62,294.99,957.62l481.14-37.06s107.73-560.29-52.29-868.68Z"/><path class="cls-5" d="m3938.97,2176.09c194.5,305.99,6.29,858.39,92.51,818.34"/></g><path class="cls-5" d="m3682.8,2126.28c63.39,98.6,104.1,276.05,124.92,434.67"/><path class="cls-14" d="m4020.72,3084.71l-2.64,86.91s254.33,372.43,18.98,649.6h-1269.61c-107.96-11.45-191.34-100.07-196.24-208.53h0c-5.01-110.84,73.41-208.02,182.82-226.53l676.34-97.77s85.76-83.88,101.08-131.74l8.15-34.89,481.14-37.06Z"/><line class="cls-5" x1="4018.08" y1="3171.62" x2="3531.43" y2="3156.66"/><g><path class="cls-13" d="m3740.02,2008.25c-54.43-88.32-289.98,5.31-365.85,92.2,144.2,75.05,425.8,15.84,365.85-92.2Z"/><path class="cls-5" d="m3745.8,2053.51c-167.04,47.53-358.52,36.67-358.52,36.67"/></g><g><path class="cls-1" d="m3388.41,2144.76c-73.75-22.17-151.5,19.65-173.67,93.39-.71,2.37-1.46,5.17-2.04,7.55l-150.87,627.54-488.75-4.95c-33.54-.34-61,26.57-61.34,60.11-.3,29.47,77.24,51.49,77.24,51.49l553.46,130.53c54.2,11.35,107.4-20.87,123.2-72.86l4.26-14.21,211.89-704.92c22.17-73.75-19.65-151.5-93.39-173.67Z"/><g><path class="cls-1" d="m2395.68,2949.1c-5.85,0-11.69-2.3-16.05-6.88-8.44-8.86-8.09-22.88.77-31.32l91.27-86.89c5.58-5.32,12.81-8.3,20.98-5.36,25.38,6.64,67.89,48.8,67.89,48.8,11.82,3.15-2.68,14.43-14.51,11.28l-52.8-14.07-82.28,78.34c-4.29,4.08-9.79,6.11-15.27,6.11Z"/><path class="cls-5" d="m2395.68,2949.1c-5.85,0-11.69-2.3-16.05-6.88-8.44-8.86-8.09-22.88.77-31.32l91.27-86.89c5.58-5.32,12.81-8.3,20.98-5.36,25.38,6.64,67.89,48.8,67.89,48.8,11.82,3.15-2.68,14.43-14.51,11.28l-52.8-14.07-82.28,78.34c-4.29,4.08-9.79,6.11-15.27,6.11Z"/><path class="cls-1" d="m2353.55,2943.14c-5.85,0-11.69-2.3-16.05-6.88-8.44-8.86-8.09-22.88.77-31.32l91.27-86.89c5.58-5.32,12.81-8.3,20.98-5.36,25.38,6.64,67.89,48.8,67.89,48.8,11.82,3.15-2.68,14.43-14.51,11.28l-52.79-14.07-82.28,78.34c-4.29,4.08-9.79,6.11-15.27,6.11Z"/><path class="cls-5" d="m2451.1,2858.69l-82.28,78.34c-4.29,4.08-9.79,6.11-15.27,6.11-5.85,0-11.69-2.3-16.05-6.88-8.44-8.86-8.09-22.88.77-31.32l91.27-86.89c5.58-5.32,12.81-8.3,20.98-5.36,6.91,1.81,15.1,3.92,23.35,9.42"/><g><path class="cls-1" d="m2674.9,2949.1c-62.27,29.26-102.18,43.83-133.92,32.66-19.04-6.7-132.92-121.06-132.92-121.06,0,0-14.38-44.47-7.32-45.92,13.36-2.75,159.12,41.24,219.04,53.99,59.92,12.75,55.13,80.33,55.13,80.33Z"/><path class="cls-1" d="m2310.51,2945.14c-5.85,0-11.69-2.3-16.05-6.88-8.44-8.86-8.09-22.88.77-31.32l91.27-86.89c5.58-5.32,13.53-7.35,20.98-5.36l64.79,17.27c11.82,3.15,18.85,15.29,15.7,27.11-3.15,11.82-15.28,18.85-27.11,15.7l-52.8-14.07-82.28,78.34c-4.29,4.08-9.79,6.11-15.27,6.11Z"/><path class="cls-5" d="m2459.95,2838.61l-52.47-23.92c-7.45-1.98-15.4.04-20.98,5.36l-91.27,86.89c-8.86,8.44-9.2,22.46-.77,31.32,4.35,4.57,10.19,6.88,16.05,6.88,5.49,0,10.98-2.03,15.27-6.11l82.28-78.34,114.74,108.35c25.16,21.76,73.15,12.91,73.15,12.91"/></g></g><polyline class="cls-5" points="2786.64 2870.45 2619.78 2868.76 2539.82 2848.62 2514.49 2829.4"/></g><polygon class="cls-1" points="2876.09 2871.87 2786.64 2865.12 2747.82 3094.66 2887.43 3057.86 2876.09 2871.87"/><path class="cls-13" d="m2828.83,2858.24c113.68-.5,223.27-.98,223.27-.98l145.61-616.98c.76-3.18,1.73-6.8,2.69-9.96,25.83-84.64,115.39-132.32,200.03-106.5,84.64,25.83,132.32,115.39,106.5,200.03l-214.86,704.12-5.64,18.49c-18.25,59.24-79.33,95.38-140.83,81.56,0,0-168.83-8.82-322.33-43.3l5.57-226.48Z"/><polyline class="cls-5" points="3052.1 2857.26 2828.83 2858.24 2823.26 3084.71 3066.54 3121.78"/><path class="cls-5" d="m3454.4,3545.79c-253.98,24.58-504.79,42.71-758.41,68.72"/><path class="cls-5" d="m3707.67,3821.23v178.18"/><line class="cls-5" x1="3440.41" y1="2497.91" x2="3345.12" y2="2837.36"/><line class="cls-5" x1="2786.64" y1="2865.12" x2="2747.82" y2="3094.66"/><path class="cls-5" d="m3374.17,2196.58c155.61,89.37,66.24,301.33,66.24,301.33"/><polyline class="cls-5" points="3075.19 2914.15 3052.1 2857.26 3107.52 2870.45"/><line class="cls-5" x1="4018.08" y1="2400.53" x2="4076.91" y2="2526.38"/></g><g><polygon class="cls-13" points="1597.4 2785.4 1332.92 1850.94 2736.81 1850.94 3001.29 2785.4 1597.4 2785.4"/><polygon class="cls-1" points="1628.63 2744.1 2946.68 2744.1 2705.58 1892.24 1387.53 1892.24 1628.63 2744.1"/><g><g><g><polygon class="cls-3" points="1780.72 2442.28 2082.24 2442.28 2000.43 2145.16 1698.91 2145.16 1780.72 2442.28"/><path class="cls-8" d="m1737.2,2284.23s52.34,97.36,133.1,85.98c80.76-11.38,91.28-136.55,155.89-131.49l56.05,203.56h-301.52l-43.52-158.04Z"/></g><path class="cls-6" d="m1899.66,2502.97c-34.34.28-67.38.28-102.23,0"/><path class="cls-6" d="m1987.33,2502.97h-40.47"/><path class="cls-6" d="m2098.95,2502.97c-22.67.28-43,.28-66.85,0"/><path class="cls-6" d="m1951.24,2544.69c-32.53.57-65.16.77-97.91.55"/><path class="cls-6" d="m2032.01,2544.69h-35.78"/><path class="cls-6" d="m2110.44,2544.69h-39.22"/><path class="cls-6" d="m2001.64,2586.41c-57.8-1.17-115.32-1.23-172.51-.17"/><path class="cls-6" d="m2067.46,2586.41h-18.49"/><path class="cls-6" d="m2121.93,2586.41h-18.61"/></g><polygon class="cls-8" points="1682.9 2087 1984.42 2087 1968.06 2027.57 1666.53 2027.57 1682.9 2087"/><polygon class="cls-8" points="2110.2 2137.57 2571.36 2137.57 2541.07 2027.57 2079.91 2027.57 2110.2 2137.57"/><polygon class="cls-10" points="2212.9 2510.55 2674.05 2510.55 2590.16 2205.85 2129 2205.85 2212.9 2510.55"/><line class="cls-6" x1="2694.52" y1="2584.89" x2="2233.36" y2="2584.89"/></g><polyline class="cls-5" points="2779.33 2001.15 3001.29 2785.4 2555.01 2785.4"/><polyline class="cls-5" points="1465.16 2318.17 1332.92 1850.94 1517.6 1850.94"/></g><g><path class="cls-13" d="m4122.7,3821.12c110.72,0,196.26-90.99,189.61-201.68l-26.38-439.02c-1.45-24.15,1.54-48.18,8.81-70.91l189.15-590.96c25.14-78.54-33.46-158.82-115.92-158.82h-412.48c-96.06,0-181.78,60.3-214.25,150.71l-215.12,599.07c-8.16,22.73-12.09,46.77-11.58,70.91l9.24,439.02c2.33,110.69-86.76,201.68-197.48,201.68h796.39Z"/><path class="cls-5" d="m4367.97,2359.72h-412.48c-96.06,0-181.78,60.3-214.25,150.71l-215.12,599.07c-8.16,22.73-12.09,46.77-11.58,70.91l9.24,439.02c2.33,110.69-86.76,201.68-197.48,201.68h796.39c110.72,0,196.26-90.99,189.61-201.68l-26.38-439.02c-1.45-24.15,1.54-48.18,8.81-70.91"/><line class="cls-5" x1="4014.37" y1="3090.42" x2="3586.49" y2="3090.42"/><line class="cls-5" x1="4210.93" y1="3149.7" x2="3863.18" y2="3149.7"/><path class="cls-13" d="m2702.48,3681.88l-88.54-376.79c-19.8-84.25,38.63-167.25,124.73-176.09,215.17-22.08,485.03,50.09,633.45,97.66,64.68,20.73,106,83.92,99.19,151.5l-31.71,314.72c-7.34,72.82-68.63,128.25-141.82,128.25h-419.55c-83.8,0-156.58-57.66-175.75-139.24Zm285.77,139.24h419.55c73.19,0,134.49-55.43,141.82-128.25l31.71-314.72c6.81-67.58-34.51-130.77-99.19-151.5-148.42-47.56-418.29-119.73-633.45-97.66-86.1,8.83-144.52,91.84-124.73,176.09l88.54,376.79c19.17,81.58,91.95,139.24,175.75,139.24Z"/><g><path class="cls-12" d="m2812.49,3681.88l-88.54-376.79c-19.8-84.25,38.63-167.25,124.73-176.09,10.27-1.05,20.67-1.89,31.17-2.53,181.99,9.69,375.02,62.61,492.27,100.18,64.68,20.73,106,83.92,99.19,151.5l-31.71,314.72c-7.34,72.82-68.63,128.25-141.82,128.25h-309.54c-83.8,0-156.58-57.66-175.75-139.24Z"/><path class="cls-5" d="m3564.68,3543.33l-15.07,149.54c-7.34,72.82-68.63,128.25-141.82,128.25h-110.01c73.19,0,134.49-55.43,141.82-128.25l31.71-314.72c6.81-67.58-34.51-130.77-99.19-151.5-117.25-37.57-310.28-90.49-492.27-100.18"/><path class="cls-5" d="m3297.78,3821.12h-419.55c-83.8,0-156.58-57.66-175.75-139.24l-88.54-376.79c-19.8-84.25,38.63-167.25,124.73-176.09,45.19-4.64,92.8-5.1,141.18-2.53-10.5.64-20.9,1.47-31.17,2.53"/></g><path class="cls-5" d="m3554.19,3278.57c-24.31-36.79-68.15-50.75-82.15-55.13"/></g></g><path class="cls-15" d="m3428.16,1522.22c159.3,287.7-22.49,616.6-22.49,616.6,0,0,293.38,34.74,392.09-85.42,103.57-126.09,3.7-558.01-99.7-607.98-103.4-49.97-269.9,76.81-269.9,76.81Z"/><g><path class="cls-1" d="m3453.57,1723.95c-45.17-52.7,43.69-138.94,73.11-91.95,29.42,47-30.85,141.26-73.11,91.95Z"/><line class="cls-5" x1="3469.94" y1="1696.68" x2="3500.97" y2="1652.61"/><path class="cls-5" d="m3451.63,1654.75c18.78-31.4,57.49-50.79,75.04-22.75,25.19,40.25-15.39,115.16-54.1,104.87"/></g><path class="cls-5" d="m3380.34,1393.81c-7.1,69.62,68.25,171.63,60.66,224.65"/><path class="cls-5" d="m3740.25,1486.28c188.15,323.95,91.37,541.3,91.37,541.3"/></g><line class="cls-5" x1="76.68" y1="3997.22" x2="4014.37" y2="3997.22"/></g></svg>