<?xml version="1.0" encoding="UTF-8"?><svg id="Layer_2" xmlns="http://www.w3.org/2000/svg" viewBox="0 0 4622.76 4073.81"><defs><style>.cls-1,.cls-2{fill:#fff;}.cls-3{fill:#e17847;}.cls-4,.cls-5,.cls-6,.cls-2,.cls-7,.cls-8{stroke-linecap:round;stroke-linejoin:round;stroke-width:10px;}.cls-4,.cls-5,.cls-6,.cls-7{fill:none;}.cls-4,.cls-2{stroke:#2e2e2e;}.cls-5,.cls-7,.cls-8{stroke:#fff;}.cls-9,.cls-8{fill:#c1c7d7;}.cls-6{stroke:#c1c7d7;}.cls-10{fill:#203058;}.cls-11{fill:#2e2e2e;}.cls-7{stroke-dasharray:0 0 19.08 38.15;}</style></defs><g id="Layer_1-2"><path class="cls-9" d="m3236.16,4068.81c182.01-84.75,347.44-202.22,488.29-351.47,681.65-722.32,1440.65-1968.14,205.5-3028.04C2964.32-139.31,1183.26-237.39,501.61,484.93-180.03,1207.25-65.6,2671.03,859.81,3544.34c250.72,236.6,525.82,410.72,807.24,524.48h1569.11Z"/><g><path class="cls-5" d="m3012.55,132.76c152.08,198.13,67.04,652.98-240.57,773.99"/><path class="cls-5" d="m872.99,2927.64c-24.74-19.07-48.83-39.43-72.18-61.1-315.83-293.16-403.84-739.9-255.77-1118.26"/><g><rect class="cls-5" x="429.97" y="198.53" width="2337.73" height="1550.9" rx="51.26" ry="51.26"/><polyline class="cls-5" points="512.87 1537.05 532.75 1556.94 572.24 1517.82"/><polyline class="cls-5" points="512.87 1250.91 532.75 1270.8 572.24 1231.68"/><g><rect class="cls-5" x="512.87" y="1537.38" width="39.77" height="39.77"/><line class="cls-5" x1="603.22" y1="1678.75" x2="887.11" y2="1678.75"/><line class="cls-5" x1="603.22" y1="1631.63" x2="1022.29" y2="1631.63"/><line class="cls-5" x1="603.22" y1="1584.5" x2="991.39" y2="1584.5"/><line class="cls-5" x1="603.22" y1="1537.38" x2="1022.29" y2="1537.38"/></g><g><rect class="cls-5" x="512.87" y="1251.24" width="39.77" height="39.77"/><line class="cls-5" x1="603.22" y1="1392.61" x2="887.11" y2="1392.61"/><line class="cls-5" x1="603.22" y1="1345.49" x2="1022.29" y2="1345.49"/><line class="cls-5" x1="603.22" y1="1298.36" x2="991.39" y2="1298.36"/><line class="cls-5" x1="603.22" y1="1251.24" x2="1022.29" y2="1251.24"/></g><g><line class="cls-5" x1="603.22" y1="1106.48" x2="887.11" y2="1106.48"/><line class="cls-5" x1="603.22" y1="1059.35" x2="1022.29" y2="1059.35"/><line class="cls-5" x1="603.22" y1="1012.23" x2="991.39" y2="1012.23"/><line class="cls-5" x1="603.22" y1="965.1" x2="1022.29" y2="965.1"/></g><g><line class="cls-5" x1="603.22" y1="820.34" x2="887.11" y2="820.34"/><line class="cls-5" x1="603.22" y1="773.21" x2="1022.29" y2="773.21"/><line class="cls-5" x1="603.22" y1="726.09" x2="991.39" y2="726.09"/><line class="cls-5" x1="603.22" y1="678.96" x2="1022.29" y2="678.96"/></g><line class="cls-5" x1="429.97" y1="316.26" x2="2767.7" y2="316.26"/><g><circle class="cls-5" cx="519.26" cy="259.5" r="28.65" transform="translate(146.09 704.16) rotate(-76.55)"/><circle class="cls-5" cx="519.26" cy="259.5" r="11"/><circle class="cls-5" cx="615.9" cy="259.5" r="28.65" transform="translate(247.79 817.33) rotate(-79.43)"/><circle class="cls-5" cx="712.54" cy="259.5" r="28.65" transform="translate(-45.28 287.03) rotate(-22.09)"/></g><g><line class="cls-5" x1="2415.03" y1="281.6" x2="2457.78" y2="281.6"/><g><line class="cls-5" x1="2624.67" y1="236.65" x2="2669.61" y2="281.6"/><line class="cls-5" x1="2669.61" y1="236.65" x2="2624.67" y2="281.6"/></g><rect class="cls-5" x="2515.59" y="236.65" width="44.95" height="44.95"/></g><g><rect class="cls-5" x="512.87" y="397.27" width="547.89" height="112.27"/><line class="cls-5" x1="1215.29" y1="973.98" x2="2142.63" y2="973.98"/><line class="cls-5" x1="1215.29" y1="1334.46" x2="2664.55" y2="1334.46"/><g><line class="cls-5" x1="1268.23" y1="639.85" x2="1268.23" y2="899.64"/><line class="cls-5" x1="2142.63" y1="455.27" x2="2142.63" y2="899.64"/><line class="cls-5" x1="2069.77" y1="539.59" x2="2069.77" y2="899.64"/><line class="cls-5" x1="1996.9" y1="705.94" x2="1996.9" y2="899.64"/><line class="cls-5" x1="1924.03" y1="619.34" x2="1924.03" y2="899.64"/><line class="cls-5" x1="1851.17" y1="582.88" x2="1851.17" y2="899.64"/><line class="cls-5" x1="1778.3" y1="633.02" x2="1778.3" y2="899.64"/><line class="cls-5" x1="1705.43" y1="753.8" x2="1705.43" y2="899.64"/><line class="cls-5" x1="1632.56" y1="607.95" x2="1632.56" y2="899.64"/><line class="cls-5" x1="1559.7" y1="503.12" x2="1559.7" y2="899.64"/><line class="cls-5" x1="1486.83" y1="594.28" x2="1486.83" y2="899.64"/><line class="cls-5" x1="1413.96" y1="769.75" x2="1413.96" y2="899.64"/><line class="cls-5" x1="1341.1" y1="539.59" x2="1341.1" y2="899.64"/></g></g></g><g><g><path class="cls-5" d="m1457.85,2930.1H475.42c-25.8,0-46.72,20.92-46.72,46.72v117.76c0,25.81,20.92,46.72,46.72,46.72h982.44"/><line class="cls-8" x1="1853.74" y1="3035.71" x2="1286.31" y2="3035.71"/><g><line class="cls-5" x1="1002.6" y1="2986.24" x2="992.34" y2="2986.24"/><line class="cls-7" x1="953.23" y1="2986.24" x2="562.14" y2="2986.24"/><line class="cls-5" x1="542.58" y1="2986.24" x2="532.33" y2="2986.24"/></g><g><line class="cls-5" x1="1002.6" y1="3035.71" x2="992.34" y2="3035.71"/><line class="cls-7" x1="953.23" y1="3035.71" x2="562.14" y2="3035.71"/><line class="cls-5" x1="542.58" y1="3035.71" x2="532.33" y2="3035.71"/></g><g><line class="cls-5" x1="1002.6" y1="3085.18" x2="992.34" y2="3085.18"/><line class="cls-7" x1="953.23" y1="3085.18" x2="562.14" y2="3085.18"/><line class="cls-5" x1="542.58" y1="3085.18" x2="532.33" y2="3085.18"/></g></g><g><line class="cls-8" x1="1770.05" y1="3141.31" x2="1770.05" y2="3215.54"/><line class="cls-8" x1="582.73" y1="3141.31" x2="582.73" y2="3215.54"/></g><g><rect class="cls-5" x="428.7" y="3215.54" width="1495.39" height="211.21" rx="46.72" ry="46.72" transform="translate(2352.78 6642.3) rotate(180)"/><line class="cls-8" x1="1853.74" y1="3321.15" x2="1286.31" y2="3321.15"/><g><line class="cls-5" x1="1002.6" y1="3271.68" x2="992.34" y2="3271.68"/><line class="cls-7" x1="953.23" y1="3271.68" x2="562.14" y2="3271.68"/><line class="cls-5" x1="542.58" y1="3271.68" x2="532.33" y2="3271.68"/></g><g><line class="cls-5" x1="1002.6" y1="3321.15" x2="992.34" y2="3321.15"/><line class="cls-7" x1="953.23" y1="3321.15" x2="562.14" y2="3321.15"/><line class="cls-5" x1="542.58" y1="3321.15" x2="532.33" y2="3321.15"/></g><g><line class="cls-5" x1="1002.6" y1="3370.62" x2="992.34" y2="3370.62"/><line class="cls-7" x1="953.23" y1="3370.62" x2="562.14" y2="3370.62"/><line class="cls-5" x1="542.58" y1="3370.62" x2="532.33" y2="3370.62"/></g></g><g><line class="cls-8" x1="1770.05" y1="3426.76" x2="1770.05" y2="3500.99"/><line class="cls-8" x1="582.73" y1="3426.76" x2="582.73" y2="3500.99"/></g><g><rect class="cls-5" x="428.7" y="3500.99" width="1495.39" height="211.21" rx="46.72" ry="46.72" transform="translate(2352.78 7213.19) rotate(180)"/><line class="cls-8" x1="1853.74" y1="3606.59" x2="1286.31" y2="3606.59"/><g><line class="cls-5" x1="1002.6" y1="3557.13" x2="992.34" y2="3557.13"/><line class="cls-7" x1="953.23" y1="3557.13" x2="562.14" y2="3557.13"/><line class="cls-5" x1="542.58" y1="3557.13" x2="532.33" y2="3557.13"/></g><g><line class="cls-5" x1="1002.6" y1="3606.59" x2="992.34" y2="3606.59"/><line class="cls-7" x1="953.23" y1="3606.59" x2="562.14" y2="3606.59"/><line class="cls-5" x1="542.58" y1="3606.59" x2="532.33" y2="3606.59"/></g><g><line class="cls-5" x1="1002.6" y1="3656.06" x2="992.34" y2="3656.06"/><line class="cls-7" x1="953.23" y1="3656.06" x2="562.14" y2="3656.06"/><line class="cls-5" x1="542.58" y1="3656.06" x2="532.33" y2="3656.06"/></g></g></g><g><g><path class="cls-5" d="m1227.73,3226.93v-1585.49c0-49.03,39.75-88.77,88.77-88.77h3076.17c49.03,0,88.77,39.75,88.77,88.77v2098.17c0,49.03-39.75,88.77-88.77,88.77h-2065.19"/><rect class="cls-5" x="1325.89" y="1650.38" width="3057.39" height="2080.31"/></g><g><g><line class="cls-8" x1="2024.92" y1="1748.28" x2="2024.92" y2="3730.68"/><line class="cls-8" x1="3684.25" y1="1650.38" x2="3684.25" y2="3730.68"/></g><g><line class="cls-8" x1="2565.06" y1="1905.83" x2="3305.36" y2="1905.83"/><line class="cls-8" x1="2565.06" y1="1970.02" x2="3339.29" y2="1970.02"/><line class="cls-8" x1="2565.06" y1="2034.21" x2="3305.36" y2="2034.21"/><line class="cls-8" x1="2565.06" y1="2098.4" x2="3203.57" y2="2098.4"/></g><g><line class="cls-8" x1="2565.06" y1="2415.19" x2="3271.43" y2="2415.19"/><line class="cls-8" x1="2565.06" y1="2479.38" x2="3305.36" y2="2479.38"/><line class="cls-8" x1="2565.06" y1="2543.56" x2="3271.43" y2="2543.56"/><line class="cls-8" x1="2565.06" y1="2607.75" x2="3169.64" y2="2607.75"/></g><g><g><circle class="cls-8" cx="2291.23" cy="2894.33" r="108.68"/><g><path class="cls-8" d="m2367.09,2945.13c-12.9-29.88-42.63-50.79-77.25-50.79s-64.34,20.91-77.25,50.79"/><circle class="cls-8" cx="2289.85" cy="2849.73" r="31.01"/></g></g><g><line class="cls-8" x1="2565.06" y1="2924.54" x2="3357.7" y2="2924.54"/><line class="cls-8" x1="2565.06" y1="2988.73" x2="3391.63" y2="2988.73"/><line class="cls-8" x1="2565.06" y1="3052.92" x2="3357.7" y2="3052.92"/><line class="cls-8" x1="2565.06" y1="3117.11" x2="3255.91" y2="3117.11"/></g><g><polygon class="cls-8" points="2596.79 2788.54 2606.59 2808.41 2628.52 2811.6 2612.65 2827.06 2616.4 2848.9 2596.79 2838.59 2577.18 2848.9 2580.92 2827.06 2565.06 2811.6 2586.98 2808.41 2596.79 2788.54"/><polygon class="cls-8" points="2684.38 2788.54 2694.19 2808.41 2716.12 2811.6 2700.25 2827.06 2703.99 2848.9 2684.38 2838.59 2664.77 2848.9 2668.52 2827.06 2652.65 2811.6 2674.58 2808.41 2684.38 2788.54"/><polygon class="cls-8" points="2771.98 2788.54 2781.78 2808.41 2803.71 2811.6 2787.84 2827.06 2791.59 2848.9 2771.98 2838.59 2752.37 2848.9 2756.11 2827.06 2740.25 2811.6 2762.17 2808.41 2771.98 2788.54"/><polygon class="cls-8" points="2859.57 2788.54 2869.38 2808.41 2891.3 2811.6 2875.44 2827.06 2879.18 2848.9 2859.57 2838.59 2839.96 2848.9 2843.71 2827.06 2827.84 2811.6 2849.77 2808.41 2859.57 2788.54"/></g><g><circle class="cls-8" cx="2291.23" cy="2389.15" r="108.68"/><g><path class="cls-8" d="m2367.09,2439.95c-12.9-29.88-42.63-50.79-77.25-50.79s-64.34,20.91-77.25,50.79"/><circle class="cls-8" cx="2289.85" cy="2344.55" r="31.01"/></g></g><g><polygon class="cls-8" points="2596.79 2283.36 2606.59 2303.23 2628.52 2306.41 2612.65 2321.88 2616.4 2343.72 2596.79 2333.41 2577.18 2343.72 2580.92 2321.88 2565.06 2306.41 2586.98 2303.23 2596.79 2283.36"/><polygon class="cls-8" points="2684.38 2283.36 2694.19 2303.23 2716.12 2306.41 2700.25 2321.88 2703.99 2343.72 2684.38 2333.41 2664.77 2343.72 2668.52 2321.88 2652.65 2306.41 2674.58 2303.23 2684.38 2283.36"/><polygon class="cls-8" points="2771.98 2283.36 2781.78 2303.23 2803.71 2306.41 2787.84 2321.88 2791.59 2343.72 2771.98 2333.41 2752.37 2343.72 2756.11 2321.88 2740.25 2306.41 2762.17 2303.23 2771.98 2283.36"/></g></g><g><g><circle class="cls-8" cx="2291.23" cy="3403.69" r="108.68" transform="translate(-1735.69 2617.06) rotate(-45)"/><g><path class="cls-8" d="m2367.09,3454.48c-12.9-29.88-42.63-50.79-77.25-50.79s-64.34,20.91-77.25,50.79"/><circle class="cls-8" cx="2289.85" cy="3359.09" r="31.01"/></g></g><g><line class="cls-8" x1="2565.06" y1="3433.9" x2="3305.36" y2="3433.9"/><line class="cls-8" x1="2565.06" y1="3498.09" x2="3339.29" y2="3498.09"/><line class="cls-8" x1="2565.06" y1="3562.28" x2="3305.36" y2="3562.28"/><line class="cls-8" x1="2565.06" y1="3626.47" x2="3203.57" y2="3626.47"/></g><g><polygon class="cls-8" points="2596.79 3297.9 2606.59 3317.77 2628.52 3320.95 2612.65 3336.42 2616.4 3358.26 2596.79 3347.95 2577.18 3358.26 2580.92 3336.42 2565.06 3320.95 2586.98 3317.77 2596.79 3297.9"/><polygon class="cls-8" points="2684.38 3297.9 2694.19 3317.77 2716.12 3320.95 2700.25 3336.42 2703.99 3358.26 2684.38 3347.95 2664.77 3358.26 2668.52 3336.42 2652.65 3320.95 2674.58 3317.77 2684.38 3297.9"/></g></g><g><line class="cls-8" x1="3549.83" y1="1766.94" x2="3549.83" y2="3626.47"/><circle class="cls-8" cx="3549.83" cy="2323.57" r="30.64" transform="translate(-691.41 2213.28) rotate(-31.72)"/></g><g><line class="cls-8" x1="3799.83" y1="2051.56" x2="3799.83" y2="2158.34"/><line class="cls-8" x1="3866.2" y1="1988.92" x2="3866.2" y2="2158.34"/><line class="cls-8" x1="3932.57" y1="2002.48" x2="3932.57" y2="2158.34"/><line class="cls-8" x1="3998.93" y1="1905.64" x2="3998.93" y2="2158.34"/><line class="cls-8" x1="4065.3" y1="1976.7" x2="4065.3" y2="2158.34"/><line class="cls-8" x1="4131.67" y1="1967.21" x2="4131.67" y2="2158.34"/><line class="cls-8" x1="4198.03" y1="1941.23" x2="4198.03" y2="2158.34"/><line class="cls-8" x1="4264.4" y1="1819.25" x2="4264.4" y2="2158.34"/><polyline class="cls-5" points="3799.83 2117.82 3866.2 2075.55 3932.57 2086.46 3998.93 2057.94 4065.3 2014.22 4131.67 2019.17 4198.03 2051.56 4264.4 2018.02"/><line class="cls-5" x1="3781.63" y1="2158.34" x2="4284.43" y2="2158.34"/></g><g><line class="cls-8" x1="3891.33" y1="2277.19" x2="4284.43" y2="2277.19"/><line class="cls-8" x1="3781.63" y1="2328.17" x2="4284.43" y2="2328.17"/><line class="cls-8" x1="3781.63" y1="2379.14" x2="4284.43" y2="2379.14"/><line class="cls-8" x1="3781.63" y1="2430.12" x2="4161.06" y2="2430.12"/></g><g><line class="cls-8" x1="3857.71" y1="2974.22" x2="4234.82" y2="2974.22"/><line class="cls-8" x1="3857.71" y1="3039.83" x2="4286.99" y2="3039.83"/><line class="cls-8" x1="3857.71" y1="3105.43" x2="4222.73" y2="3105.43"/></g><g><line class="cls-8" x1="3789.69" y1="1741.46" x2="4118.06" y2="1741.46"/><line class="cls-8" x1="3789.69" y1="1800.01" x2="4012.51" y2="1800.01"/></g><circle class="cls-8" cx="3800.37" cy="2972.07" r="18.73" transform="translate(34.66 5987.94) rotate(-76.72)"/><circle class="cls-8" cx="3800.37" cy="3039.83" r="18.73" transform="translate(-31.29 6040.12) rotate(-76.72)"/><circle class="cls-8" cx="3800.37" cy="3107.58" r="18.73" transform="translate(-1084.29 3597.46) rotate(-45)"/><rect class="cls-8" x="3781.63" y="3225.33" width="228.47" height="74.82"/><rect class="cls-8" x="3781.63" y="3443.66" width="128.69" height="74.82"/><line class="cls-8" x1="3781.63" y1="3201.87" x2="3781.63" y2="3648.86"/></g></g><g><circle class="cls-8" cx="3043.15" cy="486.07" r="197.07" transform="translate(547.61 2294.2) rotate(-45)"/><g><g><path class="cls-5" d="m3083.9,566.35c0-17.65,7.02-34.29,18.53-47.67,11.67-13.56,18.73-31.19,18.73-50.49,0-45.82-39.67-82.38-86.54-77.19-35.14,3.89-63.73,31.99-68.17,67.06-3.01,23.76,4.75,45.7,19.04,61.71,11.74,13.15,17.58,30.55,17.58,48.18"/><path class="cls-5" d="m3002.96,567.95h81.06v15.39c0,6.51-5.28,11.79-11.79,11.79h-57.48c-6.51,0-11.79-5.28-11.79-11.79v-15.39h0Z"/><line class="cls-5" x1="3009.39" y1="615.54" x2="3077.58" y2="615.54"/><line class="cls-5" x1="3009.39" y1="634.8" x2="3077.58" y2="634.8"/><path class="cls-5" d="m3063.58,647.38c-11.1,11.1-29.09,11.1-40.18,0"/><path class="cls-5" d="m2999.92,456.03c24.06-11.1,63.07-11.1,87.13,0"/><line class="cls-5" x1="3043.49" y1="483.39" x2="3043.49" y2="567.95"/><line class="cls-5" x1="3034.65" y1="483.39" x2="3052.33" y2="483.39"/><g><path class="cls-5" d="m3025.18,567.95c-.84-54.25-9.68-97.19-25.26-111.92"/><path class="cls-5" d="m3061.8,567.95c.84-54.25,9.68-97.19,25.26-111.92"/></g></g><g><g><line class="cls-5" x1="3130.72" y1="516.98" x2="3164.63" y2="536.56"/><line class="cls-5" x1="2922.35" y1="396.68" x2="2956.25" y2="416.25"/></g><line class="cls-5" x1="2973.55" y1="345.48" x2="2993.12" y2="379.38"/><line class="cls-5" x1="3043.49" y1="326.74" x2="3043.49" y2="365.89"/><line class="cls-5" x1="3113.43" y1="345.48" x2="3093.85" y2="379.38"/><g><line class="cls-5" x1="2956.25" y1="516.98" x2="2922.35" y2="536.56"/><line class="cls-5" x1="3164.63" y1="396.68" x2="3130.72" y2="416.25"/></g><g><line class="cls-5" x1="2942.75" y1="466.62" x2="2903.61" y2="466.62"/><line class="cls-5" x1="3183.37" y1="466.62" x2="3144.22" y2="466.62"/></g></g></g></g><g><circle class="cls-8" cx="473.47" cy="2115.14" r="191.05"/><g><path class="cls-5" d="m513.03,2001.58h34.85c15.8,0,28.61,12.81,28.61,28.61v194.48c0,15.8-12.81,28.61-28.61,28.61h-146.41c-15.8,0-28.61-12.81-28.61-28.61v-194.48c0-15.8,12.81-28.61,28.61-28.61h34.89"/><g><line class="cls-5" x1="458.32" y1="2062.89" x2="527.97" y2="2062.89"/><line class="cls-5" x1="421.38" y1="2187.66" x2="491.02" y2="2187.66"/><line class="cls-5" x1="421.38" y1="2083.68" x2="527.97" y2="2083.68"/><line class="cls-5" x1="421.38" y1="2104.48" x2="527.97" y2="2104.48"/><line class="cls-5" x1="421.38" y1="2125.27" x2="527.97" y2="2125.27"/><line class="cls-5" x1="421.38" y1="2146.07" x2="527.97" y2="2146.07"/><line class="cls-5" x1="421.38" y1="2166.86" x2="527.97" y2="2166.86"/></g><polyline class="cls-5" points="511.36 2025.52 553.56 2025.52 553.56 2228.34 395.78 2228.34 395.78 2025.52 437.92 2025.52"/><g><path class="cls-5" d="m487.76,1995.98v-17.83h-26.18v17.83h-12.76c-9.27,0-16.78,7.52-16.78,16.78h0c0,9.27,7.51,16.79,16.78,16.79h51.7c9.27,0,16.78-7.52,16.78-16.79h0c0-9.27-7.52-16.78-16.78-16.78h-12.76Z"/><line class="cls-5" x1="455.87" y1="2014.78" x2="493.47" y2="2014.78"/></g></g></g><g><circle class="cls-8" cx="3971.35" cy="1172.06" r="265.81"/><g><rect class="cls-5" x="3830.86" y="1112.16" width="71.94" height="207.55"/><rect class="cls-5" x="3936.06" y="1153.72" width="71.94" height="165.99"/><rect class="cls-5" x="4041.25" y="987.73" width="71.94" height="331.98"/><line class="cls-5" x1="3775.02" y1="1319.71" x2="4142.18" y2="1319.71"/><polyline class="cls-5" points="3775.02 1275.18 3854.13 1259.39 3966.51 1187.37 4058.71 1193.78 4142.18 1123.25"/><polyline class="cls-5" points="3761.67 1172.9 3840.77 1164.71 3953.16 1127.34 4045.36 1130.67 4128.83 1094.07"/></g></g><path class="cls-5" d="m3236.24,525.67c515.53,88.02,651.62,393.96,651.62,393.96"/><path class="cls-5" d="m3789.69,1366.1c-87.53,69.77-87.53,186.57-87.53,186.57"/><path class="cls-5" d="m4214.3,1280.05c185.1,93.39,197.99,274.8,197.99,274.8"/></g><g><g><ellipse class="cls-4" cx="3016.64" cy="1100.14" rx="30.65" ry="63.25" transform="translate(-60.71 183.43) rotate(-3.45)"/><path class="cls-2" d="m3444.5,1270.21c171.75-101.9,167.02-374.81-46.79-435.2-213.8-60.39-248.84-9.5-286.65,56.64-37.81,66.14-63.71,97.6-79.48,137.73-15.57,39.63,10.11,52.57,1.95,91.56-3.51,16.74-45.96,65.02-55.33,91.59-4.95,14.04,37.29,31.13,37.29,31.13,0,0-24.69,167.13,29.84,213.66,54.53,46.53,302.71-63.71,399.17-187.12Z"/><polygon class="cls-1" points="3360.41 1117.57 3523.72 1610.69 3206.54 1651.7 3125.65 1314.75 3360.41 1117.57"/><polyline class="cls-4" points="3360.41 1117.57 3523.72 1610.69 3206.54 1651.7 3148.01 1415.67"/><path class="cls-11" d="m3438.57,1378.72c100.33-220.33,235.53-300.11,167.27-428.51-68.26-128.4-211.78-118.73-214.42-127.8-2.64-9.07-126.41-100.38-210.33-75.01-161.47,48.82-80.36,201.07-80.36,201.07,0,0,18.87,132.3,13.95,198.7-4.93,66.4-44.81,121.76-96.46,122.38-51.66.62-121.74,198.04-26.6,228.81,31.1,10.06,114.34,19.15,169.45-30.15l-8.41-33.91c-74.95-20.53-11.84-197.75,2.73-314.09,15.77-125.99,175.99-64.73,97.85,65.48-50.58,84.28,106.23,171.46,185.35,193.02Z"/><path class="cls-4" d="m3062.38,848.85c2.85,38.44,19.26,74.44,46.39,101.1"/><g><path class="cls-1" d="m3166.19,1083.48c23.84-35.4,68.18-55.69,88.52-22.84,25.41,41.03-5.25,111.26-43.45,125.68-2.87-38.6-17.52-76.22-45.07-102.84Z"/><line class="cls-4" x1="3185.4" y1="1138.89" x2="3223.36" y2="1085.53"/><path class="cls-4" d="m3163.39,1087.84c23-38.05,70.16-61.38,91.32-27.21,30.38,49.05-19.37,139.84-66.36,127.12"/></g><path class="cls-4" d="m3179.09,1066.89c-16.1,1.05-211,15.94-211,15.94"/></g><circle class="cls-11" cx="3251.15" cy="777.65" r="87.43" transform="translate(402.36 2526.68) rotate(-45)"/><circle class="cls-11" cx="3453.78" cy="1300.83" r="87.43" transform="translate(91.76 2823.2) rotate(-45)"/><circle class="cls-11" cx="3572.55" cy="1043.32" r="87.43" transform="translate(308.64 2831.76) rotate(-45)"/><circle class="cls-11" cx="3372.28" cy="1286" r="87.43" transform="translate(78.38 2761.22) rotate(-45)"/><circle class="cls-11" cx="3330.31" cy="825.86" r="87.43" transform="translate(391.45 2596.78) rotate(-45)"/><circle class="cls-11" cx="3523.41" cy="1172.06" r="107.42" transform="translate(203.21 2834.71) rotate(-45)"/><circle class="cls-11" cx="3532.09" cy="937.98" r="107.42" transform="translate(371.27 2772.29) rotate(-45)"/><circle class="cls-11" cx="3417.86" cy="859.4" r="107.42" transform="translate(393.38 2668.5) rotate(-45)"/></g><g><g><path class="cls-2" d="m846.96,2629.49s-4.21-30.28-9.88-71.04l-202.73,28.19c-76.16,120.8-227.05,375.02-227.05,375.02h0l-382.68,27.67c-11.95.98-20.76,11.61-19.51,23.53,1.15,10.96,10.45,19.25,21.47,19.14l53.96-.55c-28.99,12.77-56.03,24.69-60.07,26.44-11.89,5.17-17.34,19-12.18,30.89,5.17,11.89,19,17.34,30.89,12.18,4.52-1.96,37.77-16.62,70.37-30.98-18.15,14.21-32.85,25.72-35.56,27.82-10.25,7.94-12.12,22.69-4.18,32.94,7.94,10.25,22.69,12.12,32.94,4.18,1.8-1.4,8.91-6.96,18.81-14.7.21,4.67,1.81,9.33,4.89,13.3,7.94,10.25,22.69,12.12,32.94,4.18,5.3-4.1,56.36-44.11,89.48-70.04.94.15,1.9.28,2.86.35l23.56,3.25-55.46,32.32c-11.14,6.49-15.98,20.07-11.46,32.15h0c4.79,12.8,18.54,19.85,31.73,16.27l209.54-56.91c19.75-5.36,32.63-22.41,34.15-41.16,50.83-58.54,269.53-310.78,363.17-424.44Z"/><g><path class="cls-1" d="m2375.81,351.63c-14.14-3.72-28.61,4.73-32.33,18.86-2.01,7.62-19.15,72.79-29.44,111.91l-3.17-.44c9.59-51.12,26.93-143.59,28.42-151.53,2.69-14.37-6.77-28.2-21.13-30.89-14.37-2.69-28.2,6.77-30.89,21.13-1.51,8.07-19.39,103.42-28.87,153.97l-1.51-.21c8.19-58.77,24.75-177.56,25.91-185.85,2.02-14.48-8.08-27.85-22.56-29.87-14.48-2.02-27.85,8.08-29.87,22.56-1.16,8.29-17.71,127.08-25.91,185.85l-3.3-.46c1.32-47.85,3.77-136.67,3.99-144.84.4-14.61-11.12-26.78-25.73-27.19-14.61-.4-26.78,11.12-27.19,25.73-.29,10.42-4.18,151.66-4.75,172.42-.91,6.88-1.98,14.97-2.82,20.95-3.44,24.66-15.61,35.58-27.51,40.23-5.31-29.8-19.06-62.59-35.88-86.15-17.69-24.77-49.57-21.28-46.96-9.38,0,0,21.15,95.6,30.92,140.19.66,3,1.47,5.69,2.39,8.13.63,11.23,4.48,22.4,11.77,32.04l45.41,60.12c2.72,3.6,6.05,8.3,9.85,13.53-16.36,95.33-40.43,235.57-59.34,345.78l198.32-95.4c2.03-80.63,4.08-161.83,5.71-226.63,9.73-11.3,46.96-56.46,51.85-91.53l25.03-116.03c.59-1.32,1.11-2.68,1.49-4.12,2.76-10.49,34.22-130.06,36.98-140.55,3.72-14.14-4.73-28.61-18.86-32.33Z"/><path class="cls-4" d="m2259.3,457.02c8.19-58.77,22.32-160.15,23.48-168.45,2.02-14.48-8.08-27.85-22.56-29.87-14.48-2.02-27.85,8.08-29.87,22.56-1.16,8.29-17.71,127.08-25.91,185.85l-3.3-.46c1.32-47.85,3.77-136.67,3.99-144.84.4-14.61-11.12-26.78-25.73-27.19-14.61-.4-26.78,11.12-27.19,25.73-.29,10.42-4.18,151.66-4.75,172.42-.91,6.88-1.98,14.97-2.82,20.95-3.44,24.66-15.61,35.58-27.51,40.23-5.31-29.8-19.06-62.59-35.88-86.15-17.69-24.77-49.57-21.28-46.96-9.38,0,0,21.15,95.6,30.92,140.19.66,3,1.47,5.69,2.39,8.13.63,11.23,4.48,22.4,11.77,32.04l45.41,60.12c2.72,3.6,6.05,8.3,9.85,13.53-16.36,95.33-40.43,235.57-59.34,345.78l198.32-95.4c2.03-80.63,4.08-161.83,5.71-226.63,9.73-11.3,46.96-56.46,51.85-91.53l25.03-116.03c.59-1.32,1.11-2.68,1.49-4.12,2.76-10.49,34.22-130.06,36.98-140.55,3.72-14.14-4.73-28.61-18.86-32.33s-28.61,4.73-32.33,18.86c-2.01,7.62-19.15,72.79-29.44,111.91l-3.17-.44c9.59-51.12,26.93-143.59,28.42-151.53,2.69-14.37-6.77-28.2-21.13-30.89-8.66-1.62-17.13,1.17-23.08,6.79"/><path class="cls-2" d="m2142.63,576.06c65.95,27.14,72.22,83.44,72.22,83.44"/><polygon class="cls-1" points="2072.02 937.03 2087.98 790.38 2301.86 845.87 2269.2 983.27 2072.02 937.03"/><path class="cls-10" d="m2059.28,864.04l244.5,27.13s67.24,511.01-53.78,629.12c-121.02,118.11-478.81,497.26-695.51,334.57-216.7-162.69-167.26-216.76,50.01-306.13,217.27-89.37,392.69-214.27,392.69-214.27l62.08-470.41Z"/><line class="cls-4" x1="2059.28" y1="864.04" x2="2303.78" y2="891.17"/><line class="cls-4" x1="2072.02" y1="790.38" x2="2301.86" y2="845.87"/><polyline class="cls-4" points="2021.65 1406.16 1997.2 1334.46 2070.36 1393.07"/></g><path class="cls-11" d="m1708.68,856.54c11.34,561.58-245.22,1007.48-245.22,1007.48l-205.16-119,72.03-981.37,378.36,92.89Z"/><g><path class="cls-3" d="m655.64,4068.81c60.82-214.54,109.2-385.18,109.2-385.18l362.5,138.79s-29.91,94.48-78,246.39h-393.7Z"/><g><path class="cls-1" d="m1850.58,4068.81c.91-5.13,1.39-7.8,1.39-7.8,0,0-1.45-553.86-1.45-962.26h-367.7c-10.8,187.71-35.38,556.86-63.66,970.06h431.43Z"/><path class="cls-3" d="m1850.58,4068.81c.91-5.13,1.39-7.8,1.39-7.8,0,0-1.45-553.86-1.45-962.26h-367.7c-10.8,187.71-35.38,556.86-63.66,970.06h431.43Z"/></g></g><path class="cls-4" d="m121.57,3120.2c18.05-14.13,45.38-35.53,66.75-52.26"/><path class="cls-4" d="m108.49,3070.44c31.5-13.88,62.68-27.62,67.05-29.52"/><path class="cls-4" d="m224.26,3051.53c-4.19-6.57-6-14.1-5.55-21.49l-140.85,1.43"/><line class="cls-4" x1="334.88" y1="3036.53" x2="270.77" y2="3073.89"/><path class="cls-10" d="m1872.8,2767.33s-689.4-124.75-674.41-109.75c15,15-61.06-849.54-61.06-849.54,0,0,87.05-365.06,468.75-311.33,487.94,68.69,266.72,1270.62,266.72,1270.62Z"/><path class="cls-9" d="m1594.44,2767.33c-189.65-5.19-367.58-221.2-367.58-221.2,0,0-321.22-914.32,0-1041.69,268.96-106.64,356.64,24.31,446.72,162.41,78.89,120.95,193.61,457.77,164.68,911.45-15.86,248.75-243.81,189.03-243.81,189.03Z"/><path class="cls-4" d="m1798.91,1658.57l-32.66,49.63,60.02,20.56s38.57,243.86,40.74,350.88"/><path class="cls-11" d="m1900.21,4068.81c44.72-451.13,36.06-899.57,17.11-1038.04-33.94-248-58.58-338.19-58.58-338.19l-19.65-127.94-678.22-18.51v149.64s-294.28,511.05-559.99,1373.05h1299.33Z"/><polyline class="cls-4" points="1715.37 2562.98 1160.87 2546.12 1160.87 2695.76"/><line class="cls-6" x1="1858.74" y1="2692.57" x2="1226.86" y2="2692.57"/><path class="cls-2" d="m1593.83,1520.23l58.52-392.63c-3.27-276.18-261.55-193.29-261.55-193.29,0,0-21.6,357.88-32.33,516.05-218.33,50.48-7.38,347.65,277.18,508.9,77.19-162.6,50.28-340.46-41.83-439.04Z"/><path class="cls-10" d="m1067.46,1553.99c74.1-59.64,172.64-86.48,255-90.63,0,0-5.28,71.27,17.23,108.11,47.92,78.42,92.18,161.56,98.61,314.31,13.01,309.03-130.12,881.55-130.12,881.55h-302.52l93.81-370.48s-130.79-763.36-32.01-842.86Z"/><path class="cls-4" d="m1322.45,1463.36s-5.28,71.27,17.23,108.11c47.92,78.42,92.18,161.56,98.61,314.31,13.01,309.03-130.12,881.55-130.12,881.55h-302.52"/><polygon class="cls-1" points="497.03 2773.93 452.06 2839.41 624.08 2980.32 672.21 2834.3 497.03 2773.93"/><line class="cls-4" x1="452.06" y1="2839.41" x2="624.08" y2="2980.32"/><path class="cls-10" d="m1094.84,1554.6c-140.23-45.14-374.53,821.96-374.53,821.96l-246.84,431.68,181.37,114.99s256.98-203.1,416.7-545.3c210.52-451.04,153.1-781.54,23.3-823.33Z"/><path class="cls-4" d="m1071.54,2377.93c53.18-113.93,89.26-220.17,111.39-316.01"/><path class="cls-4" d="m825.18,2399.79c-70.71-15.55-104.87-23.23-104.87-23.23l41.46,69.14"/><line class="cls-4" x1="473.47" y1="2808.24" x2="660.35" y2="2925.01"/><path class="cls-6" d="m1328.31,3216.65s-221.52,677.69-278.54,852.16"/><path class="cls-4" d="m1867.01,1761.68c41.61,129.87,84.75,457.27,40.93,738.54"/><polygon class="cls-11" points="1720.54 947.49 1758.72 1833.54 1624.75 1919.99 1647.82 974.16 1720.54 947.49"/><g><path class="cls-1" d="m1480.9,760.54c-380.02,124.23-50.54,629.64,228.7,585.65,43.97-6.93,84.19-205.7,39.51-351.87-45.42-148.6-100.85-288.5-268.21-233.79Z"/><path class="cls-4" d="m1509.11,1294.98c62.62,40.4,133.02,61.84,200.5,51.22,43.97-6.93,84.19-205.7,39.51-351.87-45.42-148.6-100.85-288.5-268.21-233.79"/><path class="cls-11" d="m1583.9,1030.34c-23.72-11.14-27.09,32.95-2.42,34.72,24.67,1.77,12.29-30.08,2.42-34.72Z"/><path class="cls-11" d="m1723.46,1003.72c-23.72-11.14-27.09,32.95-2.42,34.72,24.67,1.77,12.29-30.08,2.42-34.72Z"/><path class="cls-4" d="m1621.45,1001.33c35.94,72.34,60.61,107.83,60.61,107.83,0,0,3.63,17.02-19.25,28.39"/><g><path class="cls-11" d="m1709.3,884.82c-60.22-118.65-179.75-7.49-233.36-52.3,52.01,115.91-122.78,135.33-47.18,321.7-21.13,17.6-120.82-31.03-157.58-155.4-36.76-124.37-7.24-227.54,150.68-286.95,157.92-59.42,303.36,54.75,287.45,172.96Z"/><g><path class="cls-1" d="m1453.11,1148.91c27.03-79.62-111.76-136.54-123.65-70.43-11.89,66.11,98.36,144.93,123.65,70.43Z"/><line class="cls-4" x1="1422.4" y1="1125.63" x2="1367.66" y2="1090.07"/><path class="cls-4" d="m1424.1,1070.23c-35.27-26.84-87.55-31.2-94.64,8.25-10.18,56.61,69.21,122.55,108.11,93.54"/></g></g></g><path class="cls-11" d="m1442.63,906.75l30.28,1089.6-162.52,90.01s-21.55-310.33-24.75-388.69-58.59-194.05-158.41-182.81l87.95-500.53,227.44-107.58Z"/><path class="cls-11" d="m1353.09,700.81c-178.55,71.48-184.17,281.12-139.31,421.98,44.86,140.86,162.19-72.13,162.19-72.13,0,0,97.66-47.88,266.57-91.24l-22.71-119.51,62.76,109.65c24.15-5.69,49.54-11.23,76.12-16.49-59.42-231.74-227.08-303.74-405.63-232.26Z"/></g><path class="cls-4" d="m1621.45,1216.11c43.92,23.38,92.54,7.71,92.54,7.71"/></g><g><g><path class="cls-9" d="m4155.53,4068.81c-58.6-419.36-130.42-906.1-165.38-1037.93-64.66-243.84-329.75-582.42-329.75-582.42l-312.38,587.25c1.53,17.77,87.84,539.36,191.08,1033.11h616.43Z"/><line class="cls-4" x1="4023.68" y1="3196.37" x2="4155.53" y2="4068.81"/><g><path class="cls-2" d="m4612.87,3305c-6.68-10.14-82.8-125.65-89.49-135.79-.92-1.39-1.95-2.65-3.05-3.84l-74.29-148.48c-1.85-3.69-3.94-7.17-6.23-10.46l-91.1-760.36c-3.41-28.17-16.59-55.48-39.23-76.06l-14.17-12.88-614.9-558.75c-3.04-2.74-6.56-5.75-9.81-8.32-82.28-65.17-201.8-51.31-266.97,30.97-65.17,82.28-51.31,201.8,30.97,266.97l617.87,489.42,205.21,641.3-2.19,1.1c-19.6,9.81-34.5,27-41.43,47.79l-26.64,79.98c-4.27,12.84-4.36,26.06-1.02,38.19-.1,2.92,0,6.06.38,9.47,5.6,50.76,17.37,159.69,17.37,159.69,1.49,13.55,36.54,5.85,46.43-26.75,9.41-31,12.26-70.69,7.23-104.18,14.28.68,31.09,7.9,43.56,32.82,3.03,6.05,7.06,14.24,10.48,21.21,8.03,21.8,62.69,170.17,66.72,181.11,5.65,15.35,22.68,23.21,38.03,17.55,15.35-5.65,23.21-22.68,17.55-38.03-3.17-8.59-37.54-101.88-56.05-152.14l3.34-1.67c29.71,59.38,89.76,179.4,93.96,187.78,7.32,14.63,25.11,20.55,39.74,13.23,14.63-7.32,20.55-25.11,13.23-39.74-4.19-8.38-64.24-128.4-93.96-187.78l1.53-.76c28.14,50.21,81.2,144.9,85.7,152.92,8,14.27,26.05,19.35,40.31,11.36,14.27-8,19.35-26.04,11.36-40.31-4.42-7.89-55.89-99.72-84.34-150.49l3.2-1.6c24.9,37.79,66.4,100.75,71.25,108.12,9,13.66,27.37,17.43,41.02,8.43,13.66-9,17.43-27.37,8.43-41.02Z"/><path class="cls-4" d="m4332.11,3053.69c31.5,65.48-68.78,142.68-68.78,142.68"/><path class="cls-4" d="m4324.56,3215.03c144.85-25.67,165.23-71.33,165.23-71.33"/></g><g><path class="cls-10" d="m3767.49,2232.66c.96-8.22,289.54-317.35,289.54-317.35,0,0-469.36-533.69-650.24-297.5-248.24,324.15,360.7,614.85,360.7,614.85Z"/><line class="cls-4" x1="4057.02" y1="1915.31" x2="3923.27" y2="2051.24"/></g><path class="cls-9" d="m3472.68,4068.81c109.57-461.2,228.45-990.1,230.49-1121.74,3.79-244.99-335.44-557.92-335.44-557.92l-279.3,353.61c-8.8,21.3-123.1,732.7-206.15,1326.05h590.4Z"/><line class="cls-4" x1="3002.65" y1="3258.63" x2="2882.28" y2="4068.81"/><line class="cls-4" x1="3472.68" y1="4068.81" x2="3644.28" y2="3307.47"/><path class="cls-10" d="m3123.02,1609.89c19.47,102.15,542.61-32.42,478.4-71.04-64.21-38.62-20.95-111.51-173.58-102.15-152.63,9.36-304.82,173.19-304.82,173.19Z"/><path class="cls-10" d="m2823.33,1703.81c498.38-120.09,612.16-321.63,882.53-129.49,166.09,118.04,279.82,689.6,256.64,1168.44,0,0,127.93,584.04,132.56,651.2,12.01,174.13-708.08,220.55-1140.41,4.54,106.73-456.69,4.8-1127.13-131.31-1694.69Z"/><path class="cls-4" d="m3123.02,1609.89c261.53-109.66,445.57-104.76,445.57-104.76"/><path class="cls-4" d="m3786.78,1668.51c92.44,165.25,169.87,720.64,169.87,720.64"/><path class="cls-4" d="m3143.48,3472.11c501.05,149.68,928.05,50.9,951.57-78.15"/><path class="cls-4" d="m3031.72,3470.72c6.36,47.11,16.91,93.65,30.58,139.16,8.77,29.2,18.77,58.08,30.38,86.28,2.02,4.91,4.08,9.82,6.28,14.65"/><path class="cls-4" d="m3020.99,3589.97s-16.43,223.19-35.24,478.84"/><path class="cls-4" d="m3870.17,3675.29s50.97,179.64,111.65,393.52"/><g><path class="cls-2" d="m2695.28,1380.08l-169.92-593.98s.02-.02.03-.03l55.57-63.39c8.92-10.17,14.13-22.32,15.75-34.8,1.23-2.65,2.35-5.59,3.33-8.88,14.53-48.96,45.93-153.93,45.93-153.93,3.88-13.07-31.41-19.56-53.17,6.64-20.7,24.92-38.71,60.4-47.06,93.22-12.9-6.16-25.59-19.33-27.42-47.14-.44-6.75-.99-15.86-1.44-23.61,1.05-23.21,8.21-181.16,8.74-192.81.74-16.34-11.9-30.18-28.24-30.93-16.34-.74-30.18,11.9-30.93,28.24-.41,9.15-4.92,108.46-7.34,161.97l-3.72.24c-4.36-66.26-13.16-200.18-13.77-209.52-1.07-16.32-15.17-28.68-31.49-27.61-16.32,1.07-28.68,15.17-27.61,31.49.61,9.35,9.42,143.27,13.77,209.52l-1.71.11c-6.46-57.19-18.65-165.05-19.68-174.18-1.84-16.25-16.5-27.94-32.75-26.1-16.25,1.84-27.94,16.5-26.1,32.75,1.02,8.98,12.84,113.59,19.37,171.42l-3.57.23c-8.3-44.49-22.12-118.62-23.74-127.29-3-16.08-18.46-26.68-34.54-23.68-16.08,3-26.68,18.46-23.68,34.54,2.23,11.94,27.59,147.93,29.82,159.87.31,1.64.77,3.2,1.32,4.72l18.48,131.53c1.69,25.78,18.39,57.48,32.56,80.13l63.06,713.32c2.53,28.26,14.85,55.97,36.85,77.24l13.76,13.31s226.67,219.2,400.72,387.53h243.61v-267c-174.2-147.01-394.77-333.17-394.77-333.17Z"/><path class="cls-10" d="m2908.98,1514.86c-1.22,8.18-299.26,308.21-299.26,308.21,0,0,205.22,208.54,362.51,343.75,86.37,74.25,212.02,54.85,278.18-26.2,78.2-95.8,114.19-228.67,46-293.98-157.15-150.51-387.43-331.77-387.43-331.77Z"/><path class="cls-4" d="m3120.18,1688.65c88.81,49.09,170.15,144.9,170.15,144.9"/><line class="cls-4" x1="2908.98" y1="1514.86" x2="2609.72" y2="1823.06"/></g><path class="cls-4" d="m3962.49,2742.76c-78.71,468.1-616.69,651.2-616.69,651.2"/></g><polygon class="cls-11" points="2326.54 888 2451.45 859.23 2455.45 967.58 2331.54 948.53 2326.54 888"/><polygon class="cls-11" points="2559.65 862.74 2521.78 857.35 2537.77 951.94 2576.96 932.77 2559.65 862.74"/><ellipse class="cls-2" cx="2494.43" cy="913.3" rx="66.96" ry="78.75" transform="translate(-52.3 158.02) rotate(-3.59)"/><polyline class="cls-2" points="2519.09 867.72 2495.13 916.54 2546.3 932.77"/></g><line class="cls-4" x1="473.47" y1="4068.81" x2="4338.24" y2="4068.81"/></g></svg>