<?xml version="1.0" encoding="UTF-8"?><svg id="Layer_2" xmlns="http://www.w3.org/2000/svg" viewBox="0 0 4523.02 4188.43"><defs><style>.cls-1,.cls-2,.cls-3,.cls-4{fill:#fff;}.cls-5,.cls-2,.cls-6,.cls-7,.cls-3,.cls-8,.cls-4,.cls-9{stroke-width:10px;}.cls-5,.cls-2,.cls-6,.cls-7,.cls-3,.cls-4,.cls-9{stroke-linecap:round;stroke-linejoin:round;}.cls-5,.cls-6,.cls-7{fill:none;}.cls-5,.cls-4{stroke:#2e2e2e;}.cls-2,.cls-6,.cls-8{stroke:#fff;}.cls-10,.cls-8{fill:#c1c7d7;}.cls-7,.cls-3,.cls-9{stroke:#c1c7d7;}.cls-11,.cls-9{fill:#203058;}.cls-12{fill:#2e2e2e;}.cls-8{stroke-miterlimit:10;}</style></defs><g id="Layer_1-2"><path class="cls-10" d="m3171.14,4179.35c182.01-84.75,347.44-202.22,488.29-351.47,681.65-722.32,1440.65-1968.14,205.5-3028.04C2899.29-28.77,1118.23-126.85,436.58,595.47-245.06,1317.79-130.63,2781.57,794.78,3654.88c250.72,236.6,525.82,410.72,807.24,524.48h1569.11Z"/><g><g><rect class="cls-6" x="369.35" y="644.49" width="1545.62" height="531.61" rx="265.81" ry="265.81"/><rect class="cls-6" x="369.35" y="1589.58" width="1545.62" height="531.61" rx="265.81" ry="265.81"/><rect class="cls-6" x="369.35" y="2534.68" width="1545.62" height="531.61" rx="265.81" ry="265.81"/><path class="cls-6" d="m2617.79,1117.04h952.61c143.39,0,259.81,116.42,259.81,259.81v12c0,143.39-116.42,259.81-259.81,259.81h-952.61c-143.39,0-259.81-116.42-259.81-259.81v-12c0-143.39,116.42-259.81,259.81-259.81Z"/><path class="cls-6" d="m3570.4,2593.75h-952.61c-143.49,0-259.81-116.32-259.81-259.81v-12c0-143.49,116.32-259.81,259.81-259.81h952.61c143.49,0,259.81,116.32,259.81,259.81v12c0,143.49-116.32,259.81-259.81,259.81Z"/><path class="cls-6" d="m2617.79,3007.22h952.6c143.39,0,259.81,116.42,259.81,259.81v12c0,143.39-116.42,259.81-259.81,259.81h-952.61c-143.39,0-259.81-116.42-259.81-259.81v-12c0-143.39,116.42-259.81,259.81-259.81Z"/><path class="cls-6" d="m1914.97,910.3h0c133.51,0,241.73,108.23,241.73,241.73v1422.87c0,133.51-108.23,241.73-241.73,241.73h0"/><path class="cls-6" d="m3826.24,1371.28h0c133.51,0,241.73,108.23,241.73,241.73v1422.25c0,131.32-106.45,237.77-237.77,237.77h0"/><line class="cls-6" x1="1914.97" y1="1855.39" x2="2156.71" y2="1855.39"/><line class="cls-6" x1="2357.98" y1="1376.85" x2="2151.41" y2="1376.85"/><line class="cls-6" x1="2357.98" y1="2333.94" x2="2151.41" y2="2333.94"/><line class="cls-2" x1="3114.99" y1="2593.87" x2="3114.99" y2="3007.22"/><circle class="cls-8" cx="1914.97" cy="910.3" r="54.75"/><circle class="cls-8" cx="1914.97" cy="1855.39" r="54.75" transform="translate(-751.08 1897.52) rotate(-45)"/><circle class="cls-8" cx="3114.99" cy="2593.87" r="54.75" transform="translate(-729.13 3879.96) rotate(-58.28)"/><circle class="cls-8" cx="2357.98" cy="2327.94" r="54.75" transform="translate(-471.77 604.03) rotate(-13.28)"/><circle class="cls-8" cx="2357.98" cy="1376.85" r="54.75"/><circle class="cls-8" cx="3830.2" cy="1376.85" r="54.75"/><circle class="cls-8" cx="3830.2" cy="3273.03" r="54.75"/><circle class="cls-8" cx="3114.99" cy="3007.22" r="54.75" transform="translate(-1080.76 4076) rotate(-58.28)"/><line class="cls-2" x1="3114.99" y1="1648.71" x2="3114.99" y2="2062.07"/><circle class="cls-8" cx="3114.99" cy="1648.71" r="54.75" transform="translate(74.86 3431.7) rotate(-58.28)"/><circle class="cls-8" cx="3114.99" cy="2062.07" r="54.75" transform="translate(-276.76 3627.74) rotate(-58.28)"/><circle class="cls-8" cx="1914.97" cy="2816.64" r="54.75"/></g><g><line class="cls-6" x1="605.47" y1="793.03" x2="1603.53" y2="793.03"/><line class="cls-6" x1="605.47" y1="910.3" x2="1603.53" y2="910.3"/><line class="cls-6" x1="605.47" y1="1027.57" x2="1073.66" y2="1027.57"/></g><g><line class="cls-6" x1="605.47" y1="1738.12" x2="899.84" y2="1738.12"/><line class="cls-6" x1="605.47" y1="1855.39" x2="1603.53" y2="1855.39"/><line class="cls-6" x1="605.47" y1="1972.66" x2="1443.72" y2="1972.66"/></g><g><line class="cls-6" x1="605.47" y1="2683.21" x2="981.14" y2="2683.21"/><line class="cls-6" x1="605.47" y1="2800.48" x2="1603.53" y2="2800.48"/><line class="cls-6" x1="605.47" y1="2917.76" x2="1502.6" y2="2917.76"/></g><g><line class="cls-6" x1="2615.96" y1="2216.66" x2="3313.68" y2="2216.66"/><line class="cls-6" x1="2615.96" y1="2333.94" x2="3614.02" y2="2333.94"/><line class="cls-6" x1="2615.96" y1="2451.21" x2="3566" y2="2451.21"/></g><g><line class="cls-6" x1="2615.96" y1="1259.57" x2="3493.11" y2="1259.57"/><line class="cls-6" x1="2615.96" y1="1376.85" x2="3540.77" y2="1376.85"/><line class="cls-6" x1="2615.96" y1="1494.12" x2="3060.24" y2="1494.12"/></g><g><line class="cls-6" x1="2595.07" y1="3155.76" x2="2970.74" y2="3155.76"/><line class="cls-6" x1="2595.07" y1="3273.03" x2="3593.12" y2="3273.03"/><line class="cls-6" x1="2595.07" y1="3390.3" x2="3492.2" y2="3390.3"/></g></g><g><path class="cls-11" d="m2616.91,1347.95c241.88,183.21,788.62,571.31,631.92,752.53-156.7,181.22-609.88-241.22-712.09-378.65-102.21-137.42-46.11-469.53,80.16-373.89Z"/><g><g><path class="cls-11" d="m3427.55,1847.69c43.62-111.89-248.02-263.54-298.4-211.36-50.37,52.18-190.14,248.37-124.36,411.84,69.3,172.24,303.31,105.94,422.76-200.47Z"/><path class="cls-5" d="m3178.69,1632.58c-93.3-21.06-83.71,82.79-46.47,157.91,65.57,132.3,249.33,196.82,295.33,57.2,7.49-22.74,1.83-44.51-3.87-58.26"/></g><g><path class="cls-4" d="m3959.48,1171.8s17.12-12.33,3.86-32.06c-19.28-28.69-180.6,3.46-248.89,11.25-68.29,7.79-81.46,8.83-86.33-16.57-6.22-32.43,33.44-50.43,42.55-93.45,9.11-43.02-20.71-102.48-43.99-39.75-20.24,54.55-120.37,140.25-177.98,211.93-9.28,11.54-15.17,25.31-17.56,39.81-68.04,109.03-215.86,345.24-269.97,424.45-52.08,76.23,160.08,276.56,223.73,121.13,29.35-71.66,90.55-275.35,154.23-430.32,58.13,6.96,144.61,10.14,182.12,12.02,42.4,2.12,126.35-81.41,174.36-112.62,23.99-1.22,25.76-.94,38.7-2.22,38.41-3.82,13.47-38.26,13.47-38.26,0,0,41.72.58,46.53-26.33,4.81-26.91-34.84-29.01-34.84-29.01Z"/><path class="cls-5" d="m3959.48,1171.8c-76.25-10.33-222.34,20.39-222.34,20.39"/><path class="cls-5" d="m3947.79,1227.14c-81.68-14.37-214.26,20.91-214.26,20.91"/><path class="cls-5" d="m3895.61,1267.62c13.08-15.72-7.58-41.86-38.51-23.61-32.47,19.15-122.18,65.28-122.18,65.28"/></g></g></g><g><path class="cls-11" d="m1517.75,1401.06c-127.85,285.73-394.91,980.82-163.25,1066.97,231.66,86.15,364.6-634.4,388.85-809.41,24.25-175.01-158.86-406.72-225.6-257.56Z"/><path class="cls-11" d="m1054.85,2371.19c-111.74-53.51,78.98-346.58,152.42-332.28,73.44,14.3,315.12,37.91,327.89,250.32,9.59,159.46-92.16,267.84-480.31,81.96Z"/><path class="cls-5" d="m1054.85,2371.19c135.7,76.1,259.17-108.51,223.4-268.67"/><path class="cls-5" d="m1152.6,2062.75c76.1-69.62,255.66,51.79,255.66,51.79"/><g><path class="cls-4" d="m1218.81,2097.46c-55-22.65-199.48-76.44-310.01-117.23-4.37-6.45-9.63-12.3-15.73-17.3-69.28-56.86-181.92-118.58-212.13-166.57-34.75-55.19-51.3,7.49-34.01,46.71,17.29,39.22,58.72,48.46,59.27,80.63.43,25.2-12.33,26.84-79.03,33.06-66.7,6.22-227.01,7.8-239.66,39.02-8.7,21.48,10.09,29.81,10.09,29.81,0,0-37.4,9.93-27.43,34.64,9.97,24.71,49.65,15.81,49.65,15.81,0,0-16.9,37.84,20.5,33.8,12.6-1.36,14.24-1.99,37.36-5.62,52.04,20.17,148.81,83.07,188.83,72.57,32.4-8.5,103.72-26.24,157.02-43.19,96.7,71.31,227.36,166.95,282.49,204.09,92.57,62.38,206.89-201.51,112.81-240.24Z"/><path class="cls-5" d="m397.59,2025.6c70.67-25.1,216.15-25,216.15-25"/><path class="cls-5" d="m419.81,2076.05c75.04-30.04,208.55-22.89,208.55-22.89"/><path class="cls-5" d="m477.67,2104.23c-15.62-12.38-1.14-41.44,32.01-30.22,34.8,11.78,129.59,37.84,129.59,37.84"/></g></g><g><g><path class="cls-1" d="m2866.7,4179.35c-32.77-150.98-67.02-308.76-67.02-308.76l-765.69-903.16s153.26,560.13,426.13,1211.92h406.58Z"/><path class="cls-5" d="m2866.7,4179.35c-32.77-150.98-67.02-308.76-67.02-308.76l-765.69-903.16s153.26,560.13,426.13,1211.92"/><g><path class="cls-1" d="m1692.63,4179.35c-34.53-194.05-57.97-325.75-57.97-325.75,0,0,1.41-536.97,1.41-932.91h416.1c13.19,229.21,13.51,737.49,49.06,1258.66h-408.6Z"/><path class="cls-5" d="m1692.63,4179.35c-34.53-194.05-57.97-325.75-57.97-325.75,0,0,1.41-536.97,1.41-932.91h416.1c13.19,229.21,13.51,737.49,49.06,1258.66"/></g><path class="cls-12" d="m2866.23,4041.33l-1240.45,13.16c-105.97-537.14,49.76-1424.76,49.76-1424.76l768.47-43.67s333.49,919.57,422.22,1455.27Z"/><line class="cls-7" x1="1930.74" y1="2785.51" x2="2033.99" y2="3982.23"/></g><g><path class="cls-12" d="m1933.44,566.31c70.43-156.54-64.91-257.97-194.29-215.02-129.38,42.94-165.08,234.7-155.87,456.66,9.22,221.96-172.27,83-255.82,296.67-83.55,213.67,237.1,433.88,390.05,384.12,70.47-22.93,217.2-130.59,156.74-426.96,96.68-217.03,59.18-495.46,59.18-495.46Z"/><path class="cls-5" d="m1758.07,365.62c-132.44,32.26-183.65,220.47-192.55,442.45-8.89,221.97-197.31,65.43-297.99,271.58"/></g><path class="cls-7" d="m2503.47,2661.85c-264.12,124.79-727.76,147.41-808.18,102.17"/><path class="cls-1" d="m2201.69,1695.12c-585.75,15-389.52-426.59-289.48-440.42,100.03-13.83,262-39.46,415.7,0,153.7,39.46,450.09,425.66-126.22,440.42Z"/><line class="cls-5" x1="2193.36" y1="1907.88" x2="1902.46" y2="1894"/><g><path class="cls-10" d="m2593.86,1383.19c-123.49-35.28-134.09-62.92-212.8-96.78-61.74,246.69-528.57,157.1-545.23,14.72-129.14,45.74-246.06,42.09-286.03,82.06-56.91,56.91,85.21,472.53,88.21,739.1,1.69,150.02,37.53,507.44,37.53,507.44,0,0,40.92,97.13,334.44,61.19,293.52-35.94,446.16-94.25,449.15-103.24,3-8.98,323.41-1150.58,134.72-1204.49Z"/><path class="cls-5" d="m2549.29,1533.1c-130.48,166.57-347.6,272.06-347.6,272.06"/></g><path class="cls-11" d="m1912.2,1254.7c-183.38,289.75-153.3,1523.46-187.42,1724.3-37.78,222.44-102.33,263.04-102.33,263.04,0,0-18.7,7.5-86.08-40.6,30.98-132.47,105.3-320.32,105.3-608.81,0-334.74-79.17-648.24-79.17-648.24,0,0-126.73-512.01-23.43-579.68,43.48-28.48,373.12-110,373.12-110Z"/><path class="cls-5" d="m1912.2,1254.7c-183.38,289.75-153.3,1523.46-187.42,1724.3-37.78,222.44-102.33,263.04-102.33,263.04"/><path class="cls-11" d="m2327.9,1254.7c100.13,457.16,116.11,1331.37,116.11,1331.37l154.04,660.18s50.19-20.04,75.86-108.06c25.67-88.02-127.21-478.77-130.88-643.81-3.67-165.05,220.89-1047.94,97.75-1136.23-81.85-58.68-312.89-103.45-312.89-103.45Z"/><path class="cls-5" d="m2327.9,1254.7c100.13,457.16,116.11,1331.37,116.11,1331.37l154.04,660.18"/><path class="cls-7" d="m2405.17,2810.1c28.93,173.8,133.01,270.58,133.01,270.58"/><path class="cls-5" d="m2327.9,1254.7c138.89,113.1,210.28,262.99,210.28,262.99l-88.98,50.05,88.98,44.76s-52.89,208.87-84.89,413.09"/><path class="cls-5" d="m1892.33,1262.21c-127.34,111.55-187.4,236.73-187.4,236.73l72.03,55.97-81.67,57.59,37.11,452.79"/><g><rect class="cls-1" x="1955.04" y="851.41" width="301.92" height="506.74" transform="translate(4211.99 2209.55) rotate(180)"/><line class="cls-4" x1="2256.96" y1="1324.6" x2="2256.96" y2="870.87"/><line class="cls-4" x1="1955.04" y1="1324.6" x2="1955.04" y2="870.87"/></g><g><path class="cls-12" d="m1869.95,635.84c28.63-206.72,320.36-283.67,455.09-182.01,133.39,100.64,82.58,318.77-89.52,361.93-172.1,43.16-365.58-179.92-365.58-179.92Z"/><g><g><path class="cls-1" d="m2030.51,458.07c-388.23,194.12,46.34,684.2,339.16,592.36,46.11-14.46,57.54-234.34-13.79-384.16-72.51-152.31-154.39-293.69-325.37-208.19Z"/><path class="cls-5" d="m2125.21,1017.31c79.49,40.96,166.94,57.43,244.46,33.11,46.11-14.46,57.54-234.34-13.79-384.16-72.51-152.31-154.39-293.69-325.37-208.19"/><path class="cls-12" d="m2184.21,731.33c-27.26-8.18-23.83,39.71,2.95,37.67,26.78-2.04,8.4-34.27-2.95-37.67Z"/><path class="cls-12" d="m2329.83,680.45c-27.26-8.18-23.83,39.71,2.95,37.67,26.78-2.04,8.4-34.27-2.95-37.67Z"/><path class="cls-5" d="m2321.51,618.99c-40.26-8.31-72.98,19.55-72.98,19.55"/><path class="cls-5" d="m2157.43,672.4c-42.25,10.24-63.56,54.8-63.56,54.8"/><path class="cls-5" d="m2219.91,694.17c50.15,71.93,82.31,106.11,82.31,106.11,0,0,6.61,17.69-16.14,33.56"/></g><g><g><g><path class="cls-5" d="m2222.79,562.22c-56.65-36.86-155.55,3.6-186.12-26.07"/><path class="cls-12" d="m2295.62,555.03c-83.62-117.79-194.21,20.68-258.95-18.88,39.56,70.13-27.77,163.65-27.77,163.65,0,0-39.18,64.21,28.51,189.34,0,0-23.17,103.71-84.66,94.98-28.28-4.02-111.51-86.5-121.01-220.11-9.99-140.44-32.5-259.75,127.58-348.78,160.08-89.04,334.51,10.32,336.31,139.8Z"/></g><path class="cls-6" d="m1924.18,436.73c-94.47,59.87-92.44,143.92-92.44,143.92"/></g><g><path class="cls-1" d="m2062.71,879.56c16.3-89.82-141.83-128.77-144.04-55.88-2.21,72.89,128.78,139.92,144.04,55.88Z"/><line class="cls-5" x1="2026.02" y1="859.46" x2="1961.55" y2="830.02"/><path class="cls-5" d="m2018.99,799.71c-42.16-23.19-99-19.52-100.31,23.98-1.89,62.42,93.91,120.54,131.04,83.17"/></g></g></g><path class="cls-5" d="m2239.24,898.32s62.96,13.7,116.15-.7"/></g></g><path class="cls-10" d="m3230.33,791.23c-101.19-168.37-186.85-582.19,161.19-732.62,272.09-117.61,635.88-54.11,737.61,153.7s23.47,578.76-208.61,784.76c-232.07,206-589-37.47-690.19-205.83Z"/><path class="cls-6" d="m3230.33,791.23c-32.47-54.02-63.34-133.31-78.79-221.07-16.58-94.12-15.43-197.98,20.5-290.83"/><path class="cls-6" d="m4141.14,638.14c-24.37,83.35-62.59,165.59-114.05,238.79-30.82,43.85-66.39,84.46-106.57,120.13-128.27,113.86-294.68,90.41-434.97,18.23"/><g><path class="cls-1" d="m3353.26,245.53l91.1,115.02s136.95-155.06,261.78-114.56c145.73,47.28-58.08,189.77-84.17,310.32-20.47,94.59,7.21,171.59,7.21,171.59l122.07-23.14s-12.67-98.08,6.41-144.32c50.12-121.44,226.98-226.12,135.61-371.17-91.37-145.05-357.13-121.25-540.02,56.25Z"/><path class="cls-1" d="m3701.28,791.55c116.81-65.32,206.69,88.26,91.41,149.34-115.29,61.08-198.69-89.35-91.41-149.34Z"/></g><path class="cls-6" d="m3226.53,685.87c84.43,203.79,336.2,313.58,336.2,313.58"/><path class="cls-6" d="m4077.76,722.43c68.5-214.16,78.51-514.76-95.51-601.48"/><path class="cls-6" d="m3324.24,131.3c-118.94,81.51-135.05,238.07-135.05,238.07"/><path class="cls-7" d="m4141.53,150.03c104.44,168.25,72.87,333.88,72.87,333.88"/><path class="cls-7" d="m3255.79,81.23c-162.94,123.57-169.7,373.13-169.7,373.13"/><path class="cls-6" d="m4051.31,657.87c-47.76,152.11-106.68,204.79-106.68,204.79"/><g><path class="cls-1" d="m417.87,1478.76c1.93,0,1.93-3,0-3s-1.93,3,0,3h0Z"/><path class="cls-11" d="m1033.96,1087.32c86.05,176.58,121.72,624.24-238.16,743.62-281.35,93.33-624.75-29.71-707.88-245.63-83.14-215.92,27.31-578.59,276.53-763.47,249.22-184.88,583.46,88.91,669.51,265.49Z"/><path class="cls-6" d="m1033.96,1087.32c27.61,56.66,51.42,138.35,59.13,227.12,8.27,95.21-1.97,198.57-45.89,287.91"/><path class="cls-6" d="m1017.11,1193.7c-51.3-239.58-296.04-342.92-296.04-342.92"/><path class="cls-6" d="m183.76,1081.63c-87,207.34-123.29,505.9,42.46,607.54"/><path class="cls-6" d="m882.61,1736.48c125.62-70.78,155.38-225.33,155.38-225.33"/><path class="cls-6" d="m204.46,1148.26c60.9-147.34,124.2-194.66,124.2-194.66"/><g><path class="cls-1" d="m418.61,954.56l22.95,144.92s195.41-67.91,284.31,28.63c103.78,112.7-143.72,136.85-225.6,229.1-64.25,72.37-77.91,153.05-77.91,153.05l117.72,39.74s37.08-91.68,76.4-122.61c103.26-81.23,308.73-85.66,300.28-256.87-8.44-171.22-251.69-280.88-498.15-215.96Z"/><path class="cls-1" d="m453.94,1601.1c133.83.4,136.79,178.32,6.37,174.97-130.42-3.35-129.28-175.34-6.37-174.97Z"/></g></g><path class="cls-6" d="m268.54,1779.31c318,168.74,580.92,35.68,580.92,35.68"/><path class="cls-7" d="m153.17,970.02c-117.51,184.31-129.46,395.54-129.46,395.54"/><path class="cls-6" d="m941.25,1257.28c-33.66,104.44-172.78,133.75-172.78,133.75"/><g><path class="cls-3" d="m1178.82,3386.73c-14.7,66.11-5.95,136.3-30.23,202.08-38.6,112.11-145.02,201.17-268.17,245.92,3.08-83.92,18.68-169.4,13.36-253.08-3.48-36.34-14.08-67.02-20.16-103.88-13.24-75.85-2.03-161.21,35.84-231.19,14.84-26.85,29.74-47.28,48.64-70.43,38.59-45.67,79.35-88.6,112.11-137.81,33.99-49.21,63.52-100.82,96.1-150.79,81.88,95.29,108.16,222.42,70.37,336.85-15.95,54.7-49.29,106.59-57.85,162.33Z"/><path class="cls-5" d="m1070.2,3038.34c33.99-49.21,63.52-100.82,96.1-150.79,81.88,95.29,108.16,222.42,70.37,336.85-15.95,54.7-49.29,106.59-57.85,162.33-14.7,66.11-5.95,136.3-30.23,202.08-38.6,112.11-145.02,201.17-268.17,245.92"/><path class="cls-9" d="m943.97,3280.73c9,101.21,17.45,204-1.01,305.12-20.4,97.82-69.67,190.56-150.72,261.39-24.51-82.27-48.86-165.49-76.56-247.35-36.61-97.88-68.43-190.51-78.35-297.01-20.7-199.9,37.78-415.75,191.14-568.11,65.2,175.75,95.52,361.07,115.51,545.97Z"/><path class="cls-5" d="m683.82,2955.6c32.1-80.94,79.92-156.54,144.64-220.83,65.2,175.75,95.52,361.07,115.51,545.97,9,101.21,17.45,204-1.01,305.12-20.4,97.82-69.67,190.56-150.72,261.39"/><path class="cls-1" d="m746.47,3346.64c-.62,29.95-1.74,59.93-4.33,89.79-2.32,51.52,8.39,104.4,16.92,156.53,14.78,83.08,28.8,166.13,34.57,249.49-173.29-73.57-318.72-217.57-349.06-386.45-8.47-60.65-6.35-126.57-2.87-186.38,5.24-81.34,10.24-159.77,10.8-240.68,1.1-67.14.69-134.41,5.76-201.42,207.04,113.18,296.57,315.31,288.21,519.12Z"/><path class="cls-4" d="m444.56,3456c-8.47-60.65-6.35-126.57-2.87-186.38,5.24-81.34,10.24-159.77,10.8-240.68,1.1-67.14.69-134.41,5.76-201.42,207.04,113.18,296.57,315.31,288.21,519.12-.62,29.95-1.74,59.93-4.33,89.79-2.32,51.52,8.39,104.4,16.92,156.53,14.78,83.08,28.8,166.13,34.57,249.49"/><polygon class="cls-3" points="665.31 4183.43 1008.4 4183.43 1114.93 3709.58 558.78 3709.58 665.31 4183.43"/><path class="cls-7" d="m513.51,2969.36c78.7,348.33,13.12,560.26,163.97,740.22"/><path class="cls-7" d="m616.13,3057.18c-19.54,152.47-64.13,158.27-64.13,158.27"/><path class="cls-7" d="m465.42,3231.55c32.79,71.23,95.94,91.78,95.94,91.78"/><path class="cls-7" d="m699.34,3367.05c0,103.38-109.43,167.14-109.43,167.14"/><path class="cls-7" d="m561.36,3629.07c41.79,44.39,83.27,35.66,83.27,35.66"/><path class="cls-6" d="m810.84,2868.77c-56.84,188.41-49.64,369.42-21.22,481.36,28.42,111.95,0,359.45,0,359.45"/><path class="cls-6" d="m721.21,2919.25c-15.3,100.4,52.06,137.93,52.06,137.93"/><path class="cls-6" d="m882.99,3080.68c-26.23,84.27-109.72,127.11-109.72,127.11"/><path class="cls-6" d="m768.04,3385.8c14.93,15.84,30.56,19.83,30.56,19.83"/><path class="cls-6" d="m923.79,3413.41c-32.06,140.84-123.82,164.85-123.82,164.85"/><path class="cls-7" d="m1171.59,2992.44c-63.43,261.91-157.43,352.68-174.92,458.18-17.49,105.5-14.18,242.92-50.81,258.96"/><path class="cls-7" d="m1060.94,3098.38c-24.92,79.6,29.83,131.25,29.83,131.25"/><path class="cls-7" d="m1199.99,3207.79c-59.03,173.23-186.51,184.84-186.51,184.84"/><path class="cls-7" d="m953.94,3556.11c7.75,33.53,26.23,42.24,26.23,42.24"/><path class="cls-7" d="m1125.66,3522.51c-17.49,96.94-156.41,142.92-156.41,142.92"/><line class="cls-7" x1="584.07" y1="3813.17" x2="1089.71" y2="3813.17"/><line class="cls-7" x1="589.92" y1="3848.07" x2="1081.36" y2="3848.07"/></g><polyline class="cls-5" points="1114.93 3709.58 558.78 3709.58 614.81 3958.78"/><line class="cls-5" x1="209.39" y1="4179.35" x2="4074.16" y2="4179.35"/></g></svg>