<?xml version="1.0" encoding="UTF-8"?><svg id="Layer_2" xmlns="http://www.w3.org/2000/svg" viewBox="0 0 4511.91 3987.35"><defs><style>.cls-1,.cls-2,.cls-3,.cls-4{fill:#fff;}.cls-5{fill:#e17847;}.cls-6,.cls-7,.cls-2,.cls-8,.cls-9,.cls-3,.cls-10,.cls-4,.cls-11,.cls-12{stroke-linecap:round;stroke-linejoin:round;stroke-width:10px;}.cls-6,.cls-7,.cls-9,.cls-10{fill:none;}.cls-6,.cls-8,.cls-4,.cls-11{stroke:#2e2e2e;}.cls-7,.cls-12{stroke:#fff;}.cls-13,.cls-8,.cls-12{fill:#c1c7d7;}.cls-2,.cls-10{stroke:#000;}.cls-9,.cls-3{stroke:#c1c7d7;}.cls-14,.cls-11{fill:#203058;}.cls-15{fill:#c92627;}</style></defs><g id="Layer_1-2"><path class="cls-13" d="m1342.35,3985.93c-182.01-84.75-347.44-202.22-488.29-351.47C172.41,2912.14-572.23,1758.54,662.93,698.64,1628.56-129.97,3392.67-244.24,4074.31,478.07c681.65,722.32,569.8,2110.07-355.62,2983.38-250.72,236.6-525.82,410.72-807.24,524.48h-1569.11Z"/><g><rect class="cls-1" x="680.04" y="3374.92" width="573.17" height="99.14"/><line class="cls-6" x1="659.28" y1="3374.92" x2="1280.32" y2="3374.92"/><line class="cls-6" x1="697.75" y1="3399.34" x2="1318.79" y2="3399.34"/><line class="cls-6" x1="677.8" y1="3426.39" x2="1298.85" y2="3426.39"/><line class="cls-6" x1="718.49" y1="3450.23" x2="1339.53" y2="3450.23"/><g><path class="cls-13" d="m731.5,3982.35c32.57-163.32,54.69-274.26,54.69-274.26h-144.63s-15.05,110.94-37.21,274.26h127.15Z"/><g><path class="cls-13" d="m2856.99,3527.76H533.29v-53.69h2323.71v53.69Z"/><path class="cls-13" d="m2856.99,3796.15H605.82v-268.4h2251.17v268.4Z"/><path class="cls-6" d="m560.56,3474.07h2296.43"/><path class="cls-6" d="m562,3527.76h2295"/></g><path class="cls-6" d="m571.98,3796.15h2285.02"/><path class="cls-6" d="m629.61,3796.15s-9.87,72.73-25.26,186.2"/></g></g><g><path class="cls-4" d="m1737.18,1273.57c172.66-30.95,371.73-55.74,589.25-72.73l.02-538.8c-217.53,16.99-416.6,41.79-589.27,72.73v538.8Z"/><g><path class="cls-4" d="m1851.38,1128.94c118.75-18.28,247.85-33.84,385.14-46.23v-255.59c-137.29,12.39-266.39,27.95-385.14,46.23v255.59Z"/><path class="cls-6" d="m2236.52,915.1c-137.29,12.39-266.39,27.95-385.14,46.23"/><path class="cls-6" d="m2236.52,759.79c-100.06,9.03-195.76,19.74-286.28,31.97"/><path class="cls-6" d="m2068.06,1159.47c-75.43,8.69-147.8,18.38-216.68,28.98"/><path class="cls-6" d="m2236.52,974.36c-137.29,12.39-266.39,27.95-385.14,46.23"/><path class="cls-6" d="m2236.52,1030.92c-137.29,12.39-266.39,27.95-385.14,46.23"/><line class="cls-6" x1="2120.41" y1="838.55" x2="2120.41" y2="1096.4"/><line class="cls-6" x1="1991.14" y1="946.34" x2="1991.14" y2="1001.73"/><line class="cls-6" x1="1991.14" y1="1065.18" x2="1991.14" y2="1106.95"/></g></g><g><path class="cls-4" d="m3780.22,1008.08c-126.17-22.69-271.63-40.86-430.58-53.32V416.53c158.94,12.46,304.41,30.63,430.58,53.32v538.23Z"/><g><path class="cls-12" d="m3462.74,575.54c-144.33-18.9-302.71-33.61-471.15-43.31v600.6c168.44,9.7,326.81,24.41,471.15,43.31v-600.6Z"/><g><g><path class="cls-12" d="m3315.05,1073.23c0,11.7-10.13,20.84-21.81,19.66-11.18-1.12-22.42-2.22-33.74-3.29-14.63-1.38-29.37-2.72-44.23-4.01-10.24-.89-20.53-1.76-30.87-2.61-10.29-.85-18.21-9.41-18.21-19.7v-87.62c0-11.56,9.91-20.66,21.47-19.7,9.25.76,18.45,1.55,27.61,2.34,14.85,1.29,29.6,2.63,44.23,4.01,12.66,1.2,25.23,2.43,37.72,3.69,10.13,1.02,17.84,9.52,17.84,19.67v87.55Z"/><path class="cls-12" d="m3281.27,631.34c37.14,3.65,73.52,7.58,109.06,11.78,9.98,1.18,17.49,9.61,17.49,19.63v58.34c0,11.84-10.36,21.01-22.16,19.63-35.29-4.14-71.4-8.01-108.26-11.61-10.15-.99-17.9-9.5-17.9-19.67v-58.43c0-11.68,10.11-20.82,21.77-19.68Z"/><path class="cls-12" d="m3281.27,782.84c37.14,3.65,73.52,7.58,109.06,11.78,9.98,1.18,17.49,9.61,17.49,19.63v68.19c0,11.84-10.36,21.01-22.16,19.63-35.29-4.14-71.4-8.01-108.26-11.61-10.15-.99-17.9-9.5-17.9-19.67v-68.27c0-11.68,10.11-20.82,21.77-19.68Z"/><path class="cls-12" d="m3193.78,882.89c-35.51-2.97-71.64-5.69-108.34-8.15-10.41-.7-18.5-9.32-18.5-19.72v-68.37c0-11.44,9.73-20.5,21.18-19.73,36.92,2.49,73.26,5.24,108.97,8.25,10.27.87,18.17,9.42,18.17,19.7v68.32c0,11.57-9.91,20.66-21.48,19.69Z"/><path class="cls-12" d="m3193.78,721.55c-35.51-2.97-71.64-5.69-108.34-8.15-10.41-.7-18.5-9.32-18.5-19.72v-58.53c0-11.44,9.73-20.5,21.18-19.73,36.92,2.49,73.26,5.24,108.97,8.25,10.27.87,18.17,9.42,18.17,19.7v58.48c0,11.57-9.91,20.66-21.48,19.69Z"/></g><path class="cls-12" d="m3259.49,962.32v-12.19c0-16.15,13.83-28.85,29.98-27.53l14.21,1.16c16.14,1.32,29.98-11.39,29.98-27.53h0"/><path class="cls-12" d="m3227.72,959.41v-16.08c0-14.33-10.99-26.28-25.31-27.52l-36-3.13c-14.32-1.24-25.31-13.19-25.31-27.52v-2.19"/><line class="cls-12" x1="3141.1" y1="770.71" x2="3141.1" y2="717.37"/><line class="cls-12" x1="3333.65" y1="788.23" x2="3333.65" y2="734.89"/></g></g></g><g><path class="cls-12" d="m1602,552.38c-167.55,16.3-322.12,37.37-459.63,62.38v552.58c137.51-25.01,292.08-46.08,459.63-62.38v-552.58Z"/><g><path class="cls-12" d="m1224.99,1052.81v-3.06c86.7-14.07,179.28-26.66,276.85-37.58v3.06"/><path class="cls-12" d="m1224.99,990.43v-3.06c86.7-14.07,179.28-26.66,276.85-37.58v3.06"/><path class="cls-12" d="m1224.99,928.05v-3.06c86.7-14.07,179.28-26.66,276.85-37.58v3.06"/><path class="cls-12" d="m1224.99,865.68v-3.06c86.7-14.07,179.28-26.66,276.85-37.58v3.06"/><path class="cls-12" d="m1224.99,803.3v-3.06c86.7-14.07,179.28-26.66,276.85-37.58v3.06"/><path class="cls-12" d="m1224.99,740.92v-3.06c38.45-6.24,78.05-12.19,118.73-17.83h35.16"/></g></g><g><path class="cls-12" d="m928.73,1056.05c-248.17,67.95-395.38,152.61-395.38,244.39v672.44c0-91.78,147.21-176.44,395.38-244.39v-672.44Z"/><g><line class="cls-7" x1="579.57" y1="1405.01" x2="579.57" y2="1708.4"/><line class="cls-7" x1="622.08" y1="1370.93" x2="622.08" y2="1601.25"/><line class="cls-7" x1="664.6" y1="1345.24" x2="664.6" y2="1493.01"/><line class="cls-7" x1="707.11" y1="1323.99" x2="707.11" y2="1610.88"/><line class="cls-7" x1="749.61" y1="1305.58" x2="749.61" y2="1493.01"/><line class="cls-7" x1="792.13" y1="1289.26" x2="792.13" y2="1401.77"/><line class="cls-7" x1="834.64" y1="1274.53" x2="834.64" y2="1531.79"/></g></g><g><path class="cls-7" d="m3364.58,1101.58c83.22,11.91,169.4,23.93,254.14,39.94"/><path class="cls-7" d="m3167.7,1077.74c47.07,4.92,94.09,10.39,141.03,16.41"/><path class="cls-7" d="m2895.09,1055.12c10.24.64,20.47,1.29,30.7,1.98"/><path class="cls-7" d="m2827.89,1051.28c5.37.28,10.75.57,16.12.86"/><path class="cls-7" d="m2717.82,1046.37c12.97.48,25.94.99,38.91,1.54"/><path class="cls-7" d="m2598.66,1043.24c11.11.22,22.23.38,33.34.44"/><path class="cls-7" d="m3326.61,1150.05c31.86,3.32,63.6,7.57,95.35,11.76,30.47,4.02,61.18,6.55,91.07,13.83,16.57,4.03,33.5,5.16,50.34,7.59"/><path class="cls-7" d="m3120.69,1126.88c36.49,2.64,70.56,6.65,106.64,8.66,16.03,2,30.06,8.02,46.34,8.26"/><path class="cls-7" d="m2978.41,1116.34c13.03.98,26.06,1.99,39.09,3.05"/><path class="cls-7" d="m2859.65,1108.4c2.33.14,4.66.27,6.99.41"/><path class="cls-7" d="m2770.36,1103.69c11.16.52,22.32,1.07,33.47,1.64"/><path class="cls-7" d="m2660.25,1099.29c13.94.46,27.87.95,41.8,1.49"/><path class="cls-7" d="m2548.85,1096.38c4.64.09,9.27.18,13.91.28"/><path class="cls-7" d="m1742.69,1116.54c3.22-.24,6.45-.48,9.67-.72"/><path class="cls-7" d="m3251.44,1240.78c70.09,4.99,138.23,15.01,205.55,26.16"/><path class="cls-7" d="m3010.51,1217.77c62.49,3.94,122.62,11.96,185.23,16.85"/><path class="cls-7" d="m2845.12,1207.2c27.73,1.44,55.46,3.04,83.17,4.81"/><path class="cls-7" d="m2670.69,1200.26c18.02.51,36.03,1.08,54.04,1.71"/><path class="cls-7" d="m2592.14,1198.44c3.62.07,7.23.14,10.85.21"/><path class="cls-7" d="m2523.88,1197.34c3.23.06,6.47.12,9.7.18"/><path class="cls-7" d="m2430.88,1195.99c7.88.09,15.76.18,23.63.28"/><path class="cls-7" d="m2314.09,1195.34c4.17,0,8.34,0,12.51,0"/><path class="cls-7" d="m2230.57,1195.76c6.03-.06,12.07-.11,18.1-.16"/><path class="cls-7" d="m1724.71,1218.75c7.45-.57,14.9-1.14,22.34-1.69"/><path class="cls-7" d="m1640.97,1225.69c5.11-.45,10.23-.9,15.35-1.35"/><path class="cls-7" d="m3889.25,1563.05c6.03,1.85,12.04,3.74,18.04,5.67"/><path class="cls-7" d="m3794.58,1537.07c14.55,3.54,29.06,7.26,43.52,11.18"/><path class="cls-7" d="m3472.71,1472.48c5.29.82,10.59,1.65,15.88,2.49"/><path class="cls-7" d="m3318.59,1451.14c30.29,3.73,60.56,7.71,90.78,11.97"/><path class="cls-7" d="m3147.11,1432.49c8.39.81,16.78,1.62,25.17,2.46"/><path class="cls-7" d="m2894.88,1412.33c35.24,2.1,70.43,3.89,105.59,7.07"/><path class="cls-7" d="m2607.4,1399.96c13,.01,25.99.15,38.99.38"/><path class="cls-7" d="m2476.94,1397.41c5.48.07,10.97.14,16.45.21"/><path class="cls-8" d="m3632.58,1593.75c-163.12-29.33-351.19-52.83-556.7-68.94l-.02-510.7c205.52,16.11,393.59,39.61,556.72,68.94v510.7Z"/><path class="cls-4" d="m1361.02,1642.77c126.17-22.69,271.63-40.86,430.58-53.32v-538.23c-158.94,12.46-304.41,30.63-430.58,53.32v538.23Z"/><path class="cls-4" d="m3864.91,812.89c256.75,77.04,407.18,170.55,407.18,271.37v634.13c0-100.82-150.43-194.33-407.19-271.37v-634.13Z"/><path class="cls-8" d="m1260.11,1530.16c-242.18,37.73-438.34,87.52-567.85,145.09v-745.99c129.51-57.57,325.68-107.36,567.85-145.09v745.99Z"/></g><g><path class="cls-4" d="m3357.41,1674.52c35.24,21.23,49.46,31.81,49.46,31.81,0,0,238.81-123.41,412.29-210.07,1.18-3.27,2.41-6.61,3.68-10.03,31.39-84.65,29.98-157.43,41.06-178.21.18-4.76.26-9.31.33-13.78.67-41.41,3.73-70.09,55.71-135.18,8.87-11.1,25.05-12.91,36.15-4.05,11.1,8.86,12.91,25.05,4.05,36.15-24.43,30.58-35.27,49.53-40.18,65.85,8.76-12.33,19.39-25.2,31.98-40.15,9.15-10.87,25.38-12.26,36.25-3.11.89.75,1.69,1.56,2.45,2.39,22.67-26.6,47.81-51.27,69.72-72.76,6.41-6.29,12.55-12.31,18.28-18.04,10.05-10.05,26.33-10.05,36.38,0,10.05,10.05,10.05,26.33,0,36.38-5.83,5.84-12.1,11.98-18.63,18.39-10.19,9.99-21.16,20.76-32.18,32.02,10.98-9.51,23.16-20.2,37.14-33,10.48-9.59,26.75-8.87,36.34,1.61,9.59,10.48,8.87,26.75-1.61,36.34-19.67,18-36.44,32.44-49.91,44.05-31.81,27.4-47.95,41.32-59.3,63.48-2.7,5.26-13.53,32.79-19.82,50.86-3.99,13.07-7.08,26.7-8.31,39.19,15.2-32.58,37.88-61.63,70.71-85.29,10.92-7.87,26.15-5.4,34.02,5.52,7.87,10.92,5.4,26.15-5.52,34.02-28.03,20.2-41.31,58.53-54.16,95.59-14.29,41.21-39.55,72.39-76.52,91.45-.39.2-22.86,9.43-31.62,12.76-133.41,177.51-503.53,434.98-562.61,434.98-28.25,0-103.55-.82-163.34-42.4-63.15-43.91,95.97-317.98,147.74-286.79Z"/><g><path class="cls-6" d="m3920.61,1254.91c5.2-15.85,16.14-34.46,39.52-63.74,8.87-11.1,7.05-27.29-4.05-36.15-11.1-8.87-27.28-7.06-36.15,4.05-51.98,65.09-55.03,93.77-55.71,135.18"/><path class="cls-6" d="m4101.33,1179.15c-19.1,17.48-34.85,31.05-48.76,43.02-49.48,42.62-72.07,62.08-89.86,129.96"/><path class="cls-6" d="m3988.17,1213.77c-10.87-9.15-27.09-7.76-36.25,3.11-31.8,37.76-51.31,62.34-58.95,98.06"/><path class="cls-6" d="m3990.61,1216.16c-30.03,35.23-55.74,73.88-63.89,113.09"/></g><g><path class="cls-4" d="m3731.17,1500.09c59.13-23.03,101.21-38.35,101.21-38.35,75.2,25.82,94.34,136.89,94.34,136.89,0,0-92.71,91.86-195.55,176.87v-275.4Z"/><path class="cls-14" d="m3783.2,1472.94c105.06,36.07,131.79,191.24,131.79,191.24,0,0-448.59,444.49-602.14,444.49s-287.71-247.36-171.33-345.93,641.68-289.8,641.68-289.8Z"/></g><path class="cls-14" d="m2316.13,1116.08c413.85-146.21,234.51,405.22,102.16,646.65-61.65,112.47-132.7,249.59-224.1,350.07-104.81,115.22-323.96,306.93-446.52,340.1-129.48,35.04-292.38-82.13-232.57-203.23,23.44-47.46,410.61-397.71,410.61-397.71,0,0,259.6-689.66,390.42-735.87Z"/><g><g><path d="m2887.44,752.31c106.7,24.39,222.07-35.34,247.56-81.89,25.5-46.56,21.35-82.71,15.8-129.27-5.54-46.56,45.36-65.15,44.25-115.03-1.11-49.88-57.39-44.04-68.47-80.62-11.08-36.58,6.31-57.4-24.16-84.36-36.98-32.73-60.08-19.83-109.97-20.94-49.88-1.11-51.82-54.58-105.02-70.1-53.21-15.52-78.98,34.63-112.24,47.93-33.25,13.3-44.59-8.6-91.14,12.46-46.56,21.06-41.88,69.56-65.15,98.38-23.28,28.82-55.92,29-57.07,72.48-1.08,41,30.46,63.86,32.68,98.23,2.22,34.36-23.28,92,55.42,142.98l237.5,109.76Z"/><g><g><path class="cls-14" d="m2032.85,3978.72c203.93-817.26,407.02-1621.7,407.02-1621.7l901.09-108.64c15.02,117.78,56.4,475.11,58.86,638.8,4.64,308.89-8.54,700.79-28.89,1091.54,0,0-537.5,0-537.5,0,26.99-510.86,50.28-930.28,50.28-930.28h-65.12s-118.75,417.58-264.46,930.29h-521.28Z"/><path class="cls-10" d="m2954.14,3042.39c-22.59,0-282.39,8.07-282.39,8.07"/><path class="cls-10" d="m2936.39,2982.69c-4.84,0-52.68,65.75-52.68,65.75l105.93,64.96"/><path class="cls-10" d="m2418.29,2822.43s-115.46,550.15-242.67,1156.29"/><path class="cls-10" d="m3312.79,2809.82c9.16,201.09-5.18,670.3-26.14,1168.9"/></g><g><g><path class="cls-14" d="m3122.38,1914.79c202.45-155.32,250.89-292.56,250.89-292.56,0,0-10.2,872.98,13.01,1111.3-141.28-318.89-263.9-818.74-263.9-818.74Z"/><path class="cls-2" d="m3036.04,715.76l.57,331.82c-17.4,102.85-346.4,62.92-331.29-44.08,15.11-107,71.46-505.9,71.46-505.9,0,0,274-69.22,259.25,218.16Z"/><path class="cls-1" d="m2673.53,926.41l45.05-122.71s80.37,81.84,171.9,88.06c0,0,92.27,123.51,102.93,244.35,10.66,120.84,0,177.71,0,177.71,0,0-308.33-198.15-319.88-387.41Z"/><path class="cls-1" d="m3038.36,967.8l-59.58,95.28-55.64,339.42,145.54,106.09s35.81-292.12,38.47-363.2c2.67-71.08-68.79-177.58-68.79-177.58Z"/><path class="cls-1" d="m2691,878.81c34.95,93.8,361.97,508.79,361.97,508.79,0,0,71.64-194.26,0-398.12,0,0,247.88,185.72,276.31,238.15,28.43,52.43,50.25,1072.84,9.77,1125.81-100.08,130.97-729.35,44.37-729.35,44.37,0,0,102.92-669.02,63.82-892.05-39.1-223.03-93.3-495.72-93.3-495.72l110.77-131.22Z"/><path class="cls-14" d="m2194.21,1269.71c-2.71,39.54,252.73,719.42,294.5,797.61-37.32,103.07-87.97,579.34-87.97,579.34,0,0,350.98-160.83,389.19-509.15,38.21-348.32,35.43-595.58,27.55-725.07-15.62-256.6-161.42-427.52-126.47-533.64,0,0-482.8,186.95-496.79,390.9Z"/><path class="cls-10" d="m2400.74,2646.66s350.98-160.83,389.19-509.15c38.21-348.32,35.43-595.58,27.55-725.07-15.62-256.6-161.42-427.52-126.47-533.64"/><path class="cls-14" d="m3034.87,990.08c161.99,249.04,261.23,417.78,263.64,1000.13,2.71,656.54,103.42,918.66,103.42,918.66,0,0-20.66-526.92-9.02-744.22,10.43-194.7,37.31-728.67-89.25-999.21-47.75-102.07-197.91-186.94-267.05-221.72l-1.74,46.36Z"/><path class="cls-10" d="m3067.22,1028.42c146.81,229.7,229,409.16,231.29,961.79.96,231.21,22.78,413.38,50.66,552.38"/><path class="cls-10" d="m2516.61,1168.27c128.2,165.89-129.33,650.94-129.33,650.94"/><path class="cls-10" d="m2673.53,2197.25c-82.94-25.3-184.82-129.93-184.82-129.93,0,0,29.84,84.14,55.62,110.48"/><path class="cls-10" d="m2607.63,914.74v399.08l122.13,24.02-87.49,76.09s177.27,456.9,158.14,617.2"/><path d="m2834.88,1011.77c45.92,49.16,127.8,119.3,127.8,119.3v-83.5l-98.08-101.94-29.72,66.13Z"/><path class="cls-10" d="m2823.95,1042.26c26.8-81.35,65.46-140.44,65.46-140.44,0,0,108.74,137.95,117.45,291.53"/><path class="cls-1" d="m3003.96,1072.38s56.85,58.7,103.19,16.73c-5.11-79.08-64-124.57-64-124.57l-64.37,86.82,25.19,21.02Z"/><path d="m3031.72,1096.93c22-61.73,6.64-129.13,6.64-129.13l-47.61,76.14,40.97,52.99Z"/><path class="cls-10" d="m2978.78,1063.08l59.58-95.28c51.04,40.11,68.79,121.31,68.79,121.31"/><path class="cls-10" d="m3073.93,983.05c144.12,108.65,206.45,250.29,206.45,250.29l-43.71,65.97,66.99,50.45s.59,137.72-.16,281.63"/></g><path class="cls-10" d="m3396.9,1894.01c-6.37,93.73-16.54,172.18-16.62,215.09-.24,137.28,21.65,280.63,21.65,280.63"/></g></g><g><g><g><path class="cls-1" d="m2809.54,242.38c292.34,0,285.9,312.51,163.82,510.07-55.49,89.8-174.89,158.67-230.65,158.67-77.64,0-123.91-181.24-127.05-343.76-3.19-165.23,6.61-324.98,193.88-324.98Z"/><path d="m2777.49,537.33c20.3-19.11,38.28,24.36,13.92,34.3-24.36,9.94-22.37-26.35-13.92-34.3Z"/><path d="m2639.41,531.34c20.3-19.11,38.28,24.36,13.92,34.3-24.36,9.94-22.37-26.35-13.92-34.3Z"/><path class="cls-10" d="m2711.51,537.21c-12.43,85-25.63,112.28-25.63,112.28,0,0,6.18,12.39,31.23,12.39"/></g><path d="m2619.97,424.35c9.39-83.38,50.64-86.2,84.36-71.25,117.26,51.98,234.71-43.25,269.03,14.76,34.32,58.02-29.31,180.67-4.5,205.48,24.81,24.81,75.3,35.13,109.52-40.81,108.24-240.18-83.72-306.8-193.63-312.14-135.96-6.6-280.37,33.66-264.77,203.95Z"/><g><path class="cls-1" d="m2955.21,678.49c-53.64-71.56,67.86-174.97,101.73-112.07,33.87,62.9-51.54,179.02-101.73,112.07Z"/><path class="cls-10" d="m2998.15,649.38s35.79-22.86,14.87-47.3"/><path class="cls-10" d="m2973.36,571.94c27.9-26.86,66.67-36.93,83.58-5.52,29,53.87-29.47,146.77-78.38,130.29"/></g><path class="cls-5" d="m2674.33,742.25c.02-3.95.82-7.43,2.27-10.49,12.11.44,37.82-5.36,54.83-19.46,19.33,18.49,42.11,26.56,60.09,29.3,2.98,4.32,4.13,7.93,5.08,13.78,4.24,26.12-19.11,67.45-66.9,59.86-47.78-7.59-55.42-62.67-55.37-72.99Z"/><path class="cls-10" d="m2684.89,758.55s46.96,10.85,86.84-6.11"/></g><g><ellipse class="cls-10" cx="2779.47" cy="547.96" rx="53.02" ry="69.89"/><ellipse class="cls-10" cx="2636.73" cy="547.96" rx="53.02" ry="69.89"/><line class="cls-10" x1="2973.36" y1="546.95" x2="2821.58" y2="537.21"/><line class="cls-10" x1="2733.22" y1="513.8" x2="2682.98" y2="513.8"/></g></g><g><path d="m2994.9,546.95l-4.46,232.15s-90.25,200.73-223.06,220.16c-167.89,24.56-166.94-181.13-137.37-240.17-9.58-13.86-19.48-78.28,85.18-80.64,137.78-3.1,116.39,84.9,116.39,84.9l96.27-73.17,39.66-140.61,27.39-2.62Z"/><path class="cls-1" d="m2743.35,720.96c-127.79-14.9-109.82,89.27-28.7,71.74,78.81-17.03,85.3-65.14,28.7-71.74Z"/><path class="cls-10" d="m2793.39,733.63c-40.13,21.98-106.55,20.87-106.55,20.87"/></g><path class="cls-10" d="m2690.62,2398.79c464.75,82.32,630.88-28.25,630.88-28.25"/><path class="cls-10" d="m2724.2,2492.12c397.68,46.32,607.74-39.22,607.74-39.22"/><path class="cls-10" d="m3089.81,1454.52c87.38,612.8-.07,902.5-.07,902.5"/></g><path d="m2919.73,1089.11c2.33-64.07,87.19-58.97,115.14-13.71,27.95,45.26,17.76,133.97,17.76,133.97l-49.43,14.48s-85.36-83.03-83.48-134.75Z"/><g><path d="m3428.53,1622.23c-318.64-168.44-375.9-412.85-375.9-412.85l-49.43,14.48c46.94,394.68,358.1,487.11,420.16,583.62,55.74,86.68,13.32,292.5,13.32,292.5l21.68,233.39s181.09-121.65,184.04-118.7c-6.57-6.8,104.66-424.07-213.87-592.45Z"/><path class="cls-15" d="m3680.46,2172.79s0,0,0,0c.23.23.21.21,0,0Z"/></g></g><path class="cls-4" d="m1483.16,2304.36l116.38-68.01s102.09,65.27,105.12,134.19c3.03,68.92-110.75,69.47-110.75,69.47l-110.75-135.65Z"/><g><path class="cls-1" d="m1376.22,2156.27c-15.08-3.52-24.45-18.59-20.93-33.67,3.52-15.08,18.6-24.46,33.67-20.93,6.4,1.49,157.11,37.92,183.56,152.41l25.41,129.68c121.74-45.35,165.25,15.59,143.99,40.11-21.26,24.52-142.86,28.2-193.81,46.13-39.66,13.95-116.52-5.99-163.34-57.65-10.43.3-20.79-4.57-27.03-13.88-4.81-7.18-20.9-29.01-24.66-36.8-12.97-26.89,29.6-61.35,44-71.01l.03.1c32.54-22.41,87.58-31.3,130.98-34.74-29.53-68.58-130.79-99.5-131.89-99.76Z"/><g><path class="cls-6" d="m1506.84,2256.13c-46.01,3.74-104.64,13.62-135.75,39.13"/><path class="cls-6" d="m1385.42,2413.08c46.88,51.12,123.22,70.8,162.69,56.91,50.95-17.93,172.55-21.61,193.81-46.13s-22.25-85.46-143.99-40.11l-25.41-129.68"/><path class="cls-6" d="m1572.52,2254.08c-26.44-114.49-177.15-150.91-183.56-152.41-15.07-3.53-30.15,5.85-33.67,20.93-3.52,15.08,5.85,30.15,20.93,33.67,1.18.28,118.88,36.22,137.44,116.59"/><path class="cls-6" d="m1410.61,2397.41c-2.29,3.74-5.41,7.06-9.29,9.66-14.41,9.65-33.91,5.8-43.57-8.61-4.81-7.18-20.9-29.01-24.66-36.8-12.97-26.89,29.6-61.35,44-71.01"/><path class="cls-6" d="m1468.64,2369.62c9.65,14.41,5.8,33.91-8.61,43.57s-33.91,5.8-43.57-8.61c-4.81-7.18-19.85-29.62-24.66-36.8-6.02-8.98-6.79-19.94-3.03-29.26,1.2-2.97,5.97-19.08,11-34.16"/><path class="cls-6" d="m1513.67,2272.86s-3.88,45.09-2.07,47.79c4.81,7.18,15.88,23.69,20.69,30.88,9.65,14.41,5.8,33.91-8.61,43.57-14.41,9.66-33.92,5.8-43.57-8.61-4.81-7.18-19.85-29.62-24.66-36.8-4.18-6.24-5.82-13.43-5.17-20.37.16-1.66,2.56-16.32,4.86-30.1"/></g></g><path class="cls-6" d="m1580.14,2197.25c219.82,3.54,200.43,228.63,200.43,228.63"/><polyline class="cls-6" points="1948.66 1894.01 1925.71 1851.96 1969.67 1859.75"/></g><g><path class="cls-4" d="m4120.98,2334.9c-88.91,52.27-230.68,99.35-411.97,138.46v-745.99c181.29-39.11,323.06-86.19,411.97-138.46v745.99Z"/><path class="cls-7" d="m965.66,2471.87c-3.43-.86-6.85-1.73-10.27-2.6"/><path class="cls-7" d="m1084.46,2497.99c-18.01-3.44-36-6.97-53.98-10.6"/><path class="cls-7" d="m1722.12,2474.32v184.37c-199.89-19.5-384.3-44.73-548.35-74.66v-661.39c164.05,29.93,348.46,55.16,548.35,74.66v221.28"/><path class="cls-4" d="m3932.36,2546.99c-100.44,33.14-224.56,62.86-367.43,88.15v-502.06c142.86-25.28,266.99-55.01,367.43-88.15v502.06Z"/><path class="cls-4" d="m3432.33,2994.21c-140.58,18.47-294.84,32.84-458.91,42.32v-698.78c164.06-9.48,318.32-23.85,458.91-42.32v698.78Z"/><g><path class="cls-7" d="m3954.1,1683.27c-11.38,4.05-22.85,7.86-34.39,11.41"/><path class="cls-7" d="m4028.84,1653.26c-6.13,2.72-12.29,5.39-18.46,8.01"/><path class="cls-7" d="m3993.85,2082.21c-10.96,4.33-21.99,8.49-33.07,12.49"/><path class="cls-7" d="m1093.81,2634.72c-39.73-7.91-79.26-16.9-118.32-27.68"/><path class="cls-7" d="m1221.38,2657.19c-15.03-2.41-30.06-4.87-45.07-7.41"/></g></g><g><g><path class="cls-3" d="m4184.34,3279.84c-12.96,58.29-5.25,120.18-26.66,178.19-34.04,98.85-127.88,177.39-236.47,216.85,2.72-74,16.47-149.37,11.78-223.16-3.06-32.04-12.41-59.09-17.78-91.6-11.67-66.88-1.79-142.15,31.6-203.86,13.08-23.68,26.22-41.69,42.89-62.1,34.03-40.27,69.97-78.12,98.85-121.52,29.97-43.39,56.01-88.9,84.74-132.96,72.2,84.02,95.37,196.13,62.05,297.03-14.06,48.24-43.46,93.99-51.01,143.14Z"/><path class="cls-6" d="m4088.56,2972.63c29.97-43.39,56.01-88.9,84.74-132.96,72.2,84.02,95.37,196.13,62.05,297.03-14.06,48.24-43.46,93.99-51.01,143.14"/><path class="cls-11" d="m3977.24,3186.36c7.94,89.24,15.39,179.88-.89,269.05-17.98,86.25-61.44,168.03-132.91,230.49-21.62-72.55-43.08-145.93-67.51-218.11-32.28-86.31-60.34-167.99-69.09-261.89-18.25-176.27,33.31-366.6,168.54-500.95,57.49,154.97,84.23,318.38,101.85,481.42Z"/><path class="cls-3" d="m3803.1,3244.48c-.55,26.41-1.54,52.84-3.82,79.17-2.04,45.43,7.4,92.06,14.92,138.03,13.03,73.26,25.39,146.49,30.48,220-152.8-64.87-281.04-191.85-307.79-340.77-7.47-53.48-5.6-111.6-2.53-164.35,4.62-71.72,9.03-140.88,9.52-212.22.97-59.2.6-118.52,5.08-177.61,182.56,99.8,261.51,278.03,254.14,457.75Z"/><path class="cls-4" d="m3534.35,3176.57c2.7-41.86,5.32-82.84,7.14-123.9,1.3-29.29,2.18-58.62,2.38-88.33.97-59.2.6-118.52,5.08-177.61,182.56,99.8,261.51,278.03,254.14,457.75-.55,26.41-1.54,52.84-3.82,79.17-2.04,45.43,7.4,92.06,14.92,138.03,13.03,73.26,25.39,146.49,30.48,220"/><polygon class="cls-3" points="3731.53 3982.35 4034.06 3982.35 4127.99 3564.52 3637.6 3564.52 3731.53 3982.35"/><path class="cls-9" d="m3597.68,2911.8c69.4,307.15,11.57,494.03,144.58,652.72"/><path class="cls-9" d="m3688.17,2989.24c-17.23,134.45-56.55,139.56-56.55,139.56"/><path class="cls-9" d="m3555.27,3143c28.92,62.81,84.6,80.93,84.6,80.93"/><path class="cls-9" d="m3761.54,3262.48c0,91.16-96.49,147.38-96.49,147.38"/><path class="cls-9" d="m3639.87,3493.53c36.85,39.14,73.43,31.44,73.43,31.44"/><path class="cls-6" d="m3859.86,2823.11c-50.12,166.13-43.77,325.74-18.71,424.46,25.06,98.72,0,316.95,0,316.95"/><path class="cls-6" d="m3780.82,2867.62c-13.49,88.53,45.91,121.62,45.91,121.62"/><path class="cls-6" d="m3923.47,3009.96c-23.13,74.3-96.75,112.08-96.75,112.08"/><path class="cls-6" d="m3803.1,3244.48c12.42,43.46,45.97,52.02,45.97,52.02"/><path class="cls-6" d="m3959.45,3303.36c-28.27,124.19-109.18,145.37-109.18,145.37"/><path class="cls-9" d="m4177.96,2932.16c-55.93,230.95-138.82,310.99-154.24,404.01-15.42,93.02-12.5,214.2-44.81,228.35"/><path class="cls-9" d="m4080.4,3025.57c-21.98,70.19,26.3,115.73,26.3,115.73"/><path class="cls-9" d="m4203,3122.04c-52.05,152.75-164.46,162.99-164.46,162.99"/><path class="cls-9" d="m4137.46,3399.56c-15.42,85.48-137.92,126.03-137.92,126.03"/><line class="cls-9" x1="3659.89" y1="3655.86" x2="4105.76" y2="3655.86"/><line class="cls-9" x1="3665.05" y1="3686.63" x2="4098.4" y2="3686.63"/></g><polyline class="cls-6" points="3637.6 3564.52 4127.99 3564.52 4062.26 3856.94"/><line class="cls-6" x1="3881.73" y1="3655.86" x2="4105.76" y2="3655.86"/><line class="cls-6" x1="3952.71" y1="3686.63" x2="3775.42" y2="3686.63"/></g><path class="cls-4" d="m867.63,2590.7c-248.17-67.95-395.38-152.61-395.38-244.39v-672.44c0,91.78,147.21,176.44,395.38,244.39v672.44Z"/><g><path class="cls-4" d="m2120.47,3315.69c-206.56-9.31-400.95-25.38-577.48-47.04v-665.85c176.54,21.66,370.92,37.73,577.48,47.04v665.85Z"/><g><path class="cls-4" d="m1616.87,3040.23v150.13c25.26,2.8,50.85,5.49,76.76,8.06v-150.13c-25.91-2.57-51.5-5.26-76.76-8.06Z"/><path class="cls-4" d="m1727.46,2841.52v360.18c25.3,2.39,50.89,4.67,76.76,6.85v-360.18c-25.87-2.17-51.46-4.45-76.76-6.85Z"/><path class="cls-4" d="m1838.05,2939.91v271.4c25.34,2.01,50.93,3.92,76.76,5.72v-271.4c-25.83-1.8-51.43-3.7-76.76-5.72Z"/><path class="cls-4" d="m1948.64,3219.31c25.37,1.66,50.96,3.21,76.76,4.66v-498.81c-25.8-1.45-51.39-3-76.76-4.66v498.81Z"/></g></g><g><g><path class="cls-4" d="m3285.11,2451.02c0-11.7-10.13-20.84-21.81-19.66-11.18,1.12-22.42,2.22-33.74,3.29-14.63,1.38-29.37,2.72-44.23,4.01-10.24.89-20.53,1.76-30.87,2.61-10.29.85-18.21,9.41-18.21,19.7v87.62c0,11.56,9.91,20.66,21.47,19.7,9.25-.76,18.45-1.55,27.61-2.34,14.85-1.29,29.6-2.63,44.23-4.01,12.66-1.2,25.23-2.42,37.72-3.69,10.13-1.02,17.84-9.52,17.84-19.67v-87.55Z"/><path class="cls-4" d="m3251.33,2892.9c37.14-3.65,73.52-7.58,109.06-11.78,9.98-1.18,17.49-9.61,17.49-19.63v-58.34c0-11.84-10.36-21.01-22.16-19.63-35.29,4.14-71.4,8.01-108.26,11.61-10.15.99-17.9,9.5-17.9,19.67v58.43c0,11.68,10.11,20.82,21.77,19.68Z"/><path class="cls-4" d="m3251.33,2741.41c37.14-3.65,73.52-7.58,109.06-11.78,9.98-1.18,17.49-9.61,17.49-19.63v-68.19c0-11.84-10.36-21.01-22.16-19.63-35.29,4.14-71.4,8.01-108.26,11.61-10.15.99-17.9,9.5-17.9,19.67v68.27c0,11.68,10.11,20.82,21.77,19.68Z"/><path class="cls-4" d="m3163.85,2641.35c-35.51,2.97-71.64,5.69-108.34,8.15-10.41.7-18.5,9.32-18.5,19.72v68.37c0,11.44,9.73,20.5,21.18,19.73,36.92-2.49,73.26-5.24,108.97-8.25,10.27-.87,18.17-9.42,18.17-19.7v-68.32c0-11.57-9.92-20.66-21.48-19.69Z"/><path class="cls-4" d="m3163.85,2802.69c-35.51,2.97-71.64,5.69-108.34,8.15-10.41.7-18.5,9.32-18.5,19.72v58.53c0,11.44,9.73,20.5,21.18,19.73,36.92-2.49,73.26-5.24,108.97-8.25,10.27-.86,18.17-9.42,18.17-19.7v-58.48c0-11.57-9.91-20.66-21.48-19.69Z"/></g><path class="cls-4" d="m3229.56,2561.93v12.19c0,16.15,13.83,28.85,29.98,27.53l14.21-1.16c16.14-1.32,29.98,11.39,29.98,27.53h0"/><path class="cls-4" d="m3197.78,2564.84v16.08c0,14.33-10.99,26.28-25.31,27.52l-36,3.13c-14.32,1.24-25.31,13.19-25.31,27.52v2.19"/><line class="cls-4" x1="3111.17" y1="2753.54" x2="3111.17" y2="2806.88"/><line class="cls-4" x1="3303.72" y1="2736.02" x2="3303.72" y2="2789.36"/></g><g><path class="cls-4" d="m1233.18,3041.01c-167.55-16.3-322.12-37.37-459.63-62.38v-552.58c137.51,25.01,292.08,46.08,459.63,62.38v552.58Z"/><g><path class="cls-4" d="m856.17,2540.58v3.06c86.7,14.07,179.28,26.66,276.85,37.58v-3.06"/><path class="cls-4" d="m856.17,2602.96v3.06c86.7,14.07,179.28,26.66,276.85,37.58v-3.06"/><path class="cls-4" d="m856.17,2665.33v3.06c86.7,14.07,179.28,26.66,276.85,37.58v-3.06"/><path class="cls-4" d="m856.17,2727.71v3.06c86.7,14.07,179.28,26.66,276.85,37.58v-3.06"/><path class="cls-4" d="m856.17,2790.09v3.06c86.7,14.07,179.28,26.66,276.85,37.58v-3.06"/><path class="cls-4" d="m856.17,2852.46v3.06c38.45,6.24,78.05,12.19,118.73,17.83h35.16"/></g></g><g><line class="cls-6" x1="518.47" y1="2241.74" x2="518.47" y2="1938.35"/><line class="cls-6" x1="560.98" y1="2275.83" x2="560.98" y2="2045.5"/><line class="cls-6" x1="603.5" y1="2301.51" x2="603.5" y2="2153.74"/><line class="cls-6" x1="646.01" y1="2322.77" x2="646.01" y2="2035.88"/><line class="cls-6" x1="688.52" y1="2341.17" x2="688.52" y2="2153.74"/><line class="cls-6" x1="731.04" y1="2357.49" x2="731.04" y2="2244.98"/><line class="cls-6" x1="773.55" y1="2372.22" x2="773.55" y2="2114.97"/></g><g><path class="cls-6" d="m3661.42,2202.44c84.93-17.32,162.08-36.27,230.27-56.6"/><path class="cls-6" d="m3605.59,2284.34c107.17-20.17,203.25-42.83,286.1-67.54"/><path class="cls-6" d="m3605.59,2355.31c107.17-20.17,203.25-42.83,286.1-67.54"/><path class="cls-6" d="m3605.59,2426.28c107.17-20.17,203.25-42.83,286.1-67.54"/><path class="cls-6" d="m3605.59,2497.24c107.17-20.17,203.25-42.83,286.1-67.54"/><path class="cls-6" d="m3605.59,2568.21c83.16-15.65,159.64-32.8,228.44-51.25"/></g><g><path class="cls-6" d="m1092.43,1454.28c19.12-3.68,38.67-7.26,58.63-10.75"/><path class="cls-6" d="m1092.43,1361.05c19.12-3.68,38.67-7.26,58.63-10.75"/><path class="cls-6" d="m1092.43,1267.82c19.12-3.68,38.67-7.26,58.63-10.75"/><path class="cls-6" d="m1092.43,1174.59c19.12-3.68,38.67-7.26,58.63-10.75"/><path class="cls-6" d="m1092.43,1081.36c19.12-3.68,38.67-7.26,58.63-10.75"/><path class="cls-6" d="m1092.43,988.13c19.12-3.68,38.67-7.26,58.63-10.75"/></g><g><path class="cls-6" d="m801.32,1514.47c65.33-22.73,143.23-43.73,231.72-62.59"/><path class="cls-6" d="m801.32,1421.24c27.81-9.68,57.9-19.04,90.12-28.06"/><path class="cls-6" d="m801.32,1328.01c49.1-17.09,105.31-33.19,167.77-48.15"/><path class="cls-6" d="m801.32,1234.78c40.57-14.12,86-27.57,135.8-40.25"/><path class="cls-6" d="m801.32,1141.55c53.26-18.53,114.87-35.91,183.76-51.92"/><path class="cls-6" d="m801.32,1048.32c38.08-13.25,80.43-25.91,126.66-37.9"/></g><line class="cls-6" x1="518.47" y1="3982.35" x2="4250.28" y2="3982.35"/></g></svg>