<?xml version="1.0" encoding="UTF-8"?><svg id="Layer_2" xmlns="http://www.w3.org/2000/svg" viewBox="0 0 4425.55 4197.21"><defs><style>.cls-1,.cls-2{fill:#fff;}.cls-3,.cls-4,.cls-5,.cls-6{fill:none;}.cls-3,.cls-4,.cls-5,.cls-6,.cls-2{stroke-linecap:round;stroke-linejoin:round;}.cls-3,.cls-5{stroke:#fff;}.cls-3,.cls-6{stroke-width:6px;}.cls-4,.cls-5,.cls-2{stroke-width:10px;}.cls-4,.cls-2{stroke:#2e2e2e;}.cls-7{fill:#c1c7d7;}.cls-6{stroke:#000;}.cls-8{fill:#203058;}.cls-9{fill:#2e2e2e;}</style></defs><g id="Layer_1-2"><path class="cls-7" d="m3966.35,530.4c681.65,722.32,623.3,2077.48-302.11,2950.78-925.41,873.31-2182.99,895.33-2864.64,173.01C117.96,2931.87-542.77,1800.68,692.39,740.79,1658.02-87.83,3284.7-191.92,3966.35,530.4Z"/><g><path class="cls-5" d="m1761.83,5c85.12,1410.71,983.87,2203.44,1138.28,2898.58,78.5,353.38-187.03,805.09-373.54,1055.65"/><path class="cls-5" d="m2069.8,7.99c-109.15,968.02-245.33,1886.21-26.41,2535.14,143.79,426.2,481.64,1012.91,701.08,1416.1"/><path class="cls-5" d="m2254.41,7.99c551.89,1112.24,704.63,3283.87,773.89,3672.41,17.67,99.14,56.08,193.4,103.49,278.83"/><path class="cls-5" d="m3039.23,7.99c-371.76,1237.95,846.5,3027.11,583.68,3951.24"/><path class="cls-5" d="m3406.23,7.99c680.04,1520.82,738.26,2294.53,386.7,3951.24"/><path class="cls-5" d="m2526.29,7.99c1555.49,1856.97,1408.05,2927.46,851.85,3954.85"/></g><g><line class="cls-5" x1="207.23" y1="469.14" x2="207.23" y2="3001.37"/><line class="cls-5" x1="1417.42" y1="3603.44" x2="1417.42" y2="243.45"/><line class="cls-5" x1="1472.92" y1="3867.76" x2="1472.92" y2="243.45"/><line class="cls-5" x1="1417.42" y1="1343.43" x2="207.23" y2="1343.43"/><line class="cls-5" x1="1417.42" y1="2506.02" x2="207.23" y2="2506.02"/><line class="cls-5" x1="1417.42" y1="3668.61" x2="207.23" y2="3668.61"/><g><rect class="cls-5" x="241.18" y="584.28" width="95.54" height="759.15"/><rect class="cls-5" x="1079" y="536.16" width="76.57" height="807.27"/><rect class="cls-5" x="821.56" y="536.16" width="95.54" height="807.27"/><rect class="cls-5" x="983.46" y="584.28" width="95.54" height="759.15"/><rect class="cls-5" x="917.1" y="469.14" width="66.36" height="874.28"/><rect class="cls-5" x="723.03" y="582.84" width="66.54" height="759.15" transform="translate(79.24 -57.3) rotate(4.58)"/><rect class="cls-5" x="336.72" y="420.3" width="34.44" height="923.12"/><rect class="cls-5" x="432" y="422.07" width="34.44" height="923.12" transform="translate(-112.85 67.12) rotate(-7.59)"/><rect class="cls-5" x="466.74" y="422.11" width="33.89" height="923.12" transform="translate(-112.55 71.68) rotate(-7.59)"/><rect class="cls-5" x="540.61" y="427.34" width="34.44" height="923.12" transform="translate(-177.59 140.25) rotate(-12.38)"/><rect class="cls-5" x="1203.04" y="422.07" width="34.44" height="923.12" transform="translate(-106.08 169.03) rotate(-7.59)"/></g><g><rect class="cls-5" x="1149.29" y="1717.11" width="166.99" height="321.19" transform="translate(2465.58 3755.41) rotate(180)"/><line class="cls-5" x1="1293.65" y1="1828.76" x2="1175.96" y2="1828.76"/><line class="cls-5" x1="1293.65" y1="1892.03" x2="1175.96" y2="1892.03"/><line class="cls-5" x1="1293.65" y1="1955.29" x2="1175.96" y2="1955.29"/><rect class="cls-5" x="905.88" y="1717.11" width="166.99" height="321.19" transform="translate(1978.76 3755.41) rotate(180)"/><line class="cls-5" x1="1050.24" y1="1828.76" x2="932.55" y2="1828.76"/><line class="cls-5" x1="1050.24" y1="1892.03" x2="932.55" y2="1892.03"/><line class="cls-5" x1="1050.24" y1="1955.29" x2="932.55" y2="1955.29"/><rect class="cls-5" x="580.99" y="1707.35" width="166.99" height="321.2" transform="translate(822.56 3844.26) rotate(-164.99)"/><g><circle class="cls-5" cx="1232.79" cy="2341.92" r="59.04" transform="translate(-477.96 322.59) rotate(-12.51)"/><rect class="cls-5" x="1112.36" y="1542.57" width="240.86" height="963.45" transform="translate(2465.58 4048.59) rotate(180)"/><circle class="cls-5" cx="989.38" cy="2341.92" r="59.04" transform="translate(-615.31 370.01) rotate(-16.24)"/><rect class="cls-5" x="868.95" y="1542.57" width="240.86" height="963.45" transform="translate(1978.76 4048.59) rotate(180)"/><path class="cls-5" d="m487.24,2301.04c-8.44,31.49,10.24,63.87,41.74,72.32,31.49,8.44,63.87-10.24,72.32-41.74,8.44-31.49-10.24-63.87-41.74-72.32-31.49-8.44-63.87,10.24-72.32,41.74Z"/><rect class="cls-5" x="506.09" y="1527.82" width="240.86" height="963.45" transform="translate(711.26 4112.78) rotate(-164.99)"/></g><line class="cls-5" x1="735.94" y1="1836.44" x2="622.27" y2="1805.96"/><line class="cls-5" x1="719.56" y1="1897.55" x2="605.88" y2="1867.07"/><line class="cls-5" x1="703.18" y1="1958.66" x2="589.5" y2="1928.18"/></g><g><path class="cls-5" d="m1172.95,3489.14c32.61,0,59.04,26.43,59.04,59.04s-26.43,59.04-59.04,59.04-59.04-26.43-59.04-59.04,26.43-59.04,59.04-59.04Z"/><rect class="cls-5" x="625.24" y="3387.59" width="166.99" height="321.19" transform="translate(-2839.44 4256.92) rotate(-90)"/><rect class="cls-5" x="735.25" y="3066.81" width="240.16" height="963.45" transform="translate(-2693.21 4403.87) rotate(-90)"/><line class="cls-5" x1="659.79" y1="3609.04" x2="659.79" y2="3491.35"/><line class="cls-5" x1="723.06" y1="3609.04" x2="723.06" y2="3491.35"/><line class="cls-5" x1="786.33" y1="3609.04" x2="786.33" y2="3491.35"/><path class="cls-5" d="m1172.95,3248.99c32.61,0,59.04,26.43,59.04,59.04s-26.43,59.04-59.04,59.04-59.04-26.43-59.04-59.04,26.43-59.04,59.04-59.04Z"/><rect class="cls-5" x="625.24" y="3147.43" width="166.99" height="321.19" transform="translate(-2599.29 4016.77) rotate(-90)"/><rect class="cls-5" x="734.9" y="2826.3" width="240.86" height="963.45" transform="translate(-2452.7 4163.36) rotate(-90)"/><line class="cls-5" x1="659.79" y1="3368.89" x2="659.79" y2="3251.2"/><line class="cls-5" x1="723.06" y1="3368.89" x2="723.06" y2="3251.2"/><line class="cls-5" x1="786.33" y1="3368.89" x2="786.33" y2="3251.2"/><path class="cls-5" d="m1172.95,3005.58c32.61,0,59.04,26.43,59.04,59.04s-26.43,59.04-59.04,59.04-59.04-26.43-59.04-59.04,26.43-59.04,59.04-59.04Z"/><rect class="cls-5" x="625.24" y="2904.02" width="166.99" height="321.19" transform="translate(-2355.88 3773.35) rotate(-90)"/><rect class="cls-5" x="732.99" y="2583.53" width="244.69" height="963.45" transform="translate(-2209.92 3920.58) rotate(-90)"/><line class="cls-5" x1="659.79" y1="3125.48" x2="659.79" y2="3007.79"/><line class="cls-5" x1="723.06" y1="3125.48" x2="723.06" y2="3007.79"/><line class="cls-5" x1="786.33" y1="3125.48" x2="786.33" y2="3007.79"/><circle class="cls-5" cx="487.21" cy="2821.2" r="59.04" transform="translate(-1619.51 882.57) rotate(-37.58)"/><rect class="cls-5" x="867.92" y="2660.61" width="166.99" height="321.2" transform="translate(3772.62 1869.79) rotate(90)"/><rect class="cls-5" x="683.76" y="2340.12" width="242.14" height="963.45" transform="translate(3626.67 2017.01) rotate(90)"/><line class="cls-5" x1="1000.36" y1="2760.34" x2="1000.36" y2="2878.03"/><line class="cls-5" x1="937.1" y1="2760.34" x2="937.1" y2="2878.03"/><line class="cls-5" x1="873.83" y1="2760.34" x2="873.83" y2="2878.03"/></g></g><g><g><g><path class="cls-8" d="m3328.54,3972.21c-3.9-29.81-4.35-62.67-.81-98.69,40.08-408.47,417.2-1653.91,698.81-1491.26,401.84,232.1,204.87,1229.47,9.93,1589.95h-707.93Z"/><path class="cls-8" d="m4187.81,2669.46c-127.26-466.63-692.05-706.82-1722.88-497.59-114.18,23.17-193.27,81.45-245.26,166.27-.02.03-.04.05-.06.08-191.38,267.69-335.62,626.6-383.45,984.58-45.86-45.47-75.87-71.91-75.87-71.91l-442.73,262.19s53.05,224.63,151.44,459.13h2655.27c96.18-520.14,127.8-1067.15,63.54-1302.76Z"/><path class="cls-2" d="m3668.63,2171.86c-218.51,31.65-493.6,618.81-653.15,1007.96-80.17,195.54-131.16,341.08-131.16,341.08,0,0-119.41-222.57-223.29-491.67-143.86-372.7-257.92-834.62,16.48-917.98,472.53-143.54,991.12,60.61,991.12,60.61Z"/><g><g><polygon class="cls-2" points="3276.27 1487.64 3313.64 2112.69 2865.05 2457.97 2782.04 2150.18 2655.87 1730.64 3276.27 1487.64"/><g><g><g><g><path class="cls-2" d="m2573.87,1575.83c28.91-212.96,211.82-552.17,253.1-641.94,41.28-89.77-3.17-101.54,239.67,4.38,242.84,105.92,401.26,80.62,261.63,489.17-27.66,80.94-745.9,476.16-745.9,476.16,0,0-25.96-199.16-8.5-327.76Z"/><path class="cls-9" d="m3309.98,1654.11c-111.59-147.71-61.85-522.01-64.22-523.29-2.37-1.28-407.41-23.98-490.63-187.1-41.61-81.56-32-222.89,54.14-275.42,90.34,167.03,421.84,24.1,518.94,165.98,36.44,53.24,6.19,145.48,6.19,145.48,0,0,108.74-55.06,184.91,64.38,166.81,261.59-209.33,609.98-209.33,609.98Z"/><path class="cls-1" d="m3241.09,1501.86l-13.8,185.51c279.38,45.81,254.5-301.2,13.8-185.51Z"/><path class="cls-4" d="m3227.29,1687.37c279.38,45.81,254.5-301.2,13.8-185.51"/></g><path class="cls-6" d="m3066.44,1692.93c-147.56,140.34-392.54,41.8-392.54,41.8"/></g><path class="cls-9" d="m2627.97,1364.45c-100.31,253.87-135.62,505.73-109.13,583.8,26.48,78.07,154.28,136.92,293.45,113.34,260.48-44.15,436.17-543.2,436.17-543.2l10.1-101.41-371.92,267.53s26.2-195.73-103.88-237.9c-130.07-42.17-166.51,58.7-166.51,58.7l11.73-140.86Z"/><path class="cls-1" d="m2652.52,1542.25c-58.22,86.45,100.59,213.5,158.36,120.34,57.76-93.16-114.11-186.05-158.36-120.34Z"/><path class="cls-4" d="m2693.18,1584.05c57.18,48.64,168.49,10.97,168.49,10.97"/><path class="cls-4" d="m3251.21,734.54c196.7,62.91,94.63,230.61,94.63,230.61,0,0,69.14-81.35,152.7-50.63"/><path class="cls-4" d="m3350.55,965.82c203.7-81.26,366.95,273.98,72.66,563"/></g><path class="cls-4" d="m2837.49,1222.93c-56.09,86.89-126.61,127.63-126.61,127.63-24.02,24.13,20.24,58.07,20.24,58.07"/></g></g><path class="cls-4" d="m2938.59,1185.34c131.65,19.13,173.72,108.53,173.72,108.53"/><path class="cls-4" d="m2738.45,1091.64c66.01-9.83,106.69,34.3,106.69,34.3"/><line class="cls-4" x1="3367.3" y1="1539.79" x2="3261.15" y2="1608.93"/><path class="cls-9" d="m2892.82,1261.39c29.74-28.22,56.43,35.59,20.67,50.35-35.76,14.77-33.05-38.61-20.67-50.35Z"/><path class="cls-9" d="m2723.72,1182.17c29.74-28.22,56.43,35.59,20.67,50.35-35.76,14.77-33.05-38.61-20.67-50.35Z"/><g><path class="cls-1" d="m3387.64,2086.66l-81.85-222.95s-146.02,148.69-312.3,159.99c0,0-167.63,224.39-187.01,443.94-19.37,219.55,0,322.86,0,322.86,0,0,560.17-359.99,581.16-703.84Z"/><path class="cls-4" d="m3349.03,2144.08c-119.59,127.99-234.68,153.06-234.68,153.06-48.68-147.8-120.86-273.43-120.86-273.43,0,0-195.62,268.91-211.45,547.92"/><path class="cls-4" d="m2833.07,2334.96l-108.25-173.1c-92.73,72.88-124.98,220.4-124.98,220.4"/></g></g><g><path class="cls-1" d="m1670.02,3242.31c-131.69-168.43-220.13-277.19-220.13-277.19-31.27-49.05-286.24,34.7-261.29,99.07,0,0,53.22,131.03,121.6,299.39l359.81-121.27Z"/><path class="cls-9" d="m1083.68,2302.06h377.71c28.86,0,55.22,16.4,67.98,42.29l376.18,763.37c5.91,11.99,3.37,25.15-4.28,34.14-1.35,1.59-13.31,13.13-14.96,14.43-5.2,4.09-22.99-32.88-30.42-32.88l-315.79,7.55c-28.34,0-54.31-15.81-67.32-40.98l-395.02-764.13c-5.46-10.55-33.09,5.84-27.52-3.02,1.2-1.92,9.6-9.84,11.19-11.46,5.54-5.66,13.29-9.29,22.26-9.29Z"/><path class="cls-9" d="m1074.59,2311.15h377.71c28.86,0,55.22,16.4,67.98,42.29l376.18,763.37c10.24,20.77-4.88,45.07-28.04,45.07h-359.26c-28.34,0-54.31-15.81-67.32-40.98l-395.02-764.13c-10.76-20.8,4.35-45.61,27.77-45.61Z"/><path class="cls-3" d="m1136.64,2335.9h294.79c28.86,0,55.22,16.4,67.98,42.29l365.01,740.7"/><path class="cls-1" d="m1164.72,2719.72c133.65-70.01,358.13,204.27,357.66,351.95-.34,104.08-235.17,178.8-310.38,49.87-75.21-128.93-92.4-378.19-47.27-401.83Z"/><path class="cls-1" d="m1200.62,2826.25c-6.31,0-12.73-1.08-19-3.36-28.87-10.5-43.76-42.41-33.27-71.27l57.57-158.34c8.77-24.11,32.89-39.09,58.38-36.28l194.47,21.49c30.53,3.37,52.55,30.86,49.17,61.39-3.37,30.53-30.86,52.56-61.39,49.17l-151.03-16.69-42.64,117.26c-8.22,22.59-29.55,36.63-52.27,36.63Z"/><path class="cls-1" d="m1244.26,2866.66c-15.99,0-31.87-6.86-42.87-20.14-19.59-23.66-16.3-58.72,7.36-78.31,153.49-127.11,362.74-109.16,371.57-108.33,30.58,2.86,53.06,29.97,50.19,60.56-2.86,30.58-29.98,53.05-60.56,50.19-1.57-.13-172.82-14.01-290.26,83.25-10.38,8.59-22.95,12.78-35.44,12.78Z"/><path class="cls-1" d="m1266.75,2944.03c-24.62,0-47.13-16.48-53.73-41.4-7.86-29.69,9.84-60.14,39.54-67.99l323.4-85.58c29.7-7.86,60.14,9.84,67.99,39.54,7.86,29.69-9.84,60.14-39.54,67.99l-323.4,85.58c-4.77,1.26-9.55,1.86-14.26,1.86Z"/><path class="cls-1" d="m1288.25,3040.73c-24.2,0-46.47-15.92-53.45-40.35-8.44-29.53,8.66-60.32,38.2-68.76l218.1-62.32c29.53-8.44,60.32,8.66,68.76,38.2,8.44,29.53-8.66,60.32-38.2,68.76l-218.1,62.32c-5.1,1.46-10.25,2.15-15.31,2.15Z"/><path class="cls-4" d="m1252.56,2834.64s281.09-74.09,323.4-85.58c15.22-4.13,27.67-1.76,37.36,2.97"/><path class="cls-4" d="m1273,2931.62s178.15-52.66,218.1-62.32c39.96-9.66,54.67,14.21,54.67,14.21"/><line class="cls-4" x1="1314.33" y1="3035.5" x2="1545.77" y2="2969.37"/><path class="cls-4" d="m1224.73,2755.65c57.92-47.86,206.19-98.64,276.92-95.53"/><ellipse class="cls-3" cx="1441.83" cy="2426.09" rx="12.95" ry="34.23" transform="translate(-1167.88 1351.75) rotate(-36.9)"/><ellipse class="cls-3" cx="1383.39" cy="2426.09" rx="12.95" ry="34.23" transform="translate(-1179.58 1316.65) rotate(-36.9)"/><ellipse class="cls-3" cx="1482.09" cy="2502.79" rx="12.95" ry="34.23" transform="translate(-1205.86 1391.28) rotate(-36.9)"/><path class="cls-3" d="m1439.22,2502.79c9.35,15.71,9.96,28.45,1.35,28.45s-23.16-12.74-32.52-28.45c-9.35-15.71-9.96-28.45-1.36-28.45s23.16,12.74,32.52,28.45Z"/><path class="cls-4" d="m1522.38,3071.68c0,73.53-68.14,90.21-68.14,90.21"/><polygon class="cls-1" points="1272.42 3340.2 1695.25 3189.87 1739.21 3257.52 1363.19 3480.21 1272.42 3340.2"/></g></g><path class="cls-4" d="m3717.79,2244.32c-193.81,94.4-331.1,276.83-427.67,469.57-41.58,82.99-76.93,168.78-110.96,255.19"/><path class="cls-4" d="m1760.28,3250.89c133.02,157.87,341.36,440.35,402.45,616.02"/><path class="cls-4" d="m2310.62,2498.71c-67.05,231.59-72.83,480.61-16.61,715.06"/><path class="cls-4" d="m2293.3,3262.08c-46.56,211.69-74.67,480.4-72.92,697.15"/><path class="cls-4" d="m3842.6,2536.49c-117.26,156.2-175.64,355.55-161.17,550.33"/><path class="cls-4" d="m3679.83,3082.6c12.2,60.13,32.09,118.7,59.04,173.82"/><path class="cls-4" d="m3755.89,3168.14c-34.63-7.83-65.19-32.03-80.75-63.94,0,0-76.5,421.57-91.64,591.53"/><g><g><g><path class="cls-1" d="m3078.93,3215.88c-71.39-87.54-218.48-256.96-218.48-256.96-3.9-4.78-8.03-9.25-12.38-13.42-4.6-5.51-10.4-11.15-17.52-16.95-91.52-74.46-387.92-231.94-522.8-257.52s-355,0-355,0c-27.32,0-49.47,22.15-49.47,49.47s21.66,49.02,48.66,49.46l254.98,4.15c-2.78.93-58.99,35.27-100.83,60.95-24.7,15.16-31.88,47.78-15.84,71.91,13.02,19.58,37.72,27.76,59.85,19.82l37.27-13.37-24.99,26.56c-17.21,18.3-19.55,46.05-5.64,66.97,13.01,19.57,37.18,28.48,59.78,22.06l39.34-11.18-25.12,29.27c-15.76,18.37-17.39,44.98-3.99,65.13l3.52,5.3c12.55,18.87,35.54,27.91,57.59,22.64l128.88-30.84s144.11,90.13,240.91,72.64c36.18,52.43,86.21,129.34,121,200.45l300.26-166.56Z"/><path class="cls-4" d="m3078.93,3215.88c-81.55-99.07-219.97-259.82-230.86-270.38-96.02-90.4-393.96-242.3-540.32-274.46-134.88-25.57-355,0-355,0-27.32,0-49.47,22.15-49.47,49.47s21.66,49.02,48.66,49.46"/><line class="cls-4" x1="2206.92" y1="2774.12" x2="2262.48" y2="2748.61"/><line class="cls-4" x1="2187.37" y1="2913.44" x2="2324.38" y2="2844.59"/><line class="cls-4" x1="2255.87" y1="3017.85" x2="2365.41" y2="2969.07"/></g><path class="cls-4" d="m2416.76,3109.35c-13.49-10.89-24.78-29.64-24.78-29.64,0,0-15.71,21.21-89.01,53.32"/></g><polygon class="cls-1" points="2704.62 3395.04 3060.28 3157.5 3130.22 3262.35 2795.35 3517.2 2704.62 3395.04"/></g><polygon class="cls-8" points="3169.57 3234.66 2720.63 3577.12 2873.82 3972.21 3635.67 3972.21 3169.57 3234.66"/><polyline class="cls-4" points="3635.67 3972.21 3169.57 3234.66 2720.63 3577.12 2849.35 3909.09"/></g><path class="cls-4" d="m1289.27,3327.51c-131.51-331.76-164.79-377.99-147.66-554.11,2.59-26.67,25.56-80.36,40.25-113.97"/><polyline class="cls-4" points="1325.6 3422.24 1272.42 3340.2 1695.25 3189.87"/><line class="cls-4" x1="1317.55" y1="3513.08" x2="1760.28" y2="3250.89"/><polyline class="cls-4" points="2704.62 3395.04 3060.28 3157.5 3137.86 3274.44"/><path class="cls-2" d="m3105.1,1994.99c135.47-49.94,199.3-131.28,199.3-131.28l85.18,232-16.17,23.3"/><path class="cls-4" d="m3642.38,2218.33c254.78,71.77,348.68,204.97,348.68,204.97,0,0,283.27,170.46,224.57,701.61"/><line class="cls-4" x1="4193.56" y1="3331.01" x2="4086.26" y2="3972.21"/><path class="cls-4" d="m2332.83,2222.79c110.14-60.93,276.58-77.85,276.58-77.85"/><path class="cls-4" d="m3668.63,2171.86c227.65,63.15,348.76,205.4,348.76,205.4"/><path class="cls-4" d="m2500.09,2164.87c-117.72,162.24-36.71,377.46-36.71,377.46"/></g><g><rect class="cls-1" x="529.41" y="3972.21" width="3533.56" height="225"/><line class="cls-4" x1="169.16" y1="3972.21" x2="4252.57" y2="3972.21"/></g></g></svg>