<?xml version="1.0" encoding="UTF-8"?><svg id="Layer_2" xmlns="http://www.w3.org/2000/svg" viewBox="0 0 4738.95 4149.19"><defs><style>.cls-1,.cls-2{fill:#fff;}.cls-3,.cls-4,.cls-5,.cls-6{fill:none;}.cls-3,.cls-4,.cls-5,.cls-6,.cls-7,.cls-2,.cls-8{stroke-linecap:round;}.cls-3,.cls-4,.cls-5,.cls-7,.cls-2,.cls-8{stroke-width:10px;}.cls-3,.cls-4,.cls-6,.cls-7,.cls-2,.cls-8{stroke-linejoin:round;}.cls-3,.cls-6,.cls-7,.cls-2{stroke:#2e2e2e;}.cls-4,.cls-5,.cls-8{stroke:#fff;}.cls-9,.cls-7,.cls-8{fill:#c1c7d7;}.cls-5{stroke-miterlimit:10;}.cls-6{stroke-width:6px;}.cls-10{fill:#203058;}.cls-11{fill:#2e2e2e;}</style></defs><g id="Layer_1-2"><path class="cls-9" d="m4098.7,482.37c681.65,722.32,623.3,2077.48-302.11,2950.78-925.41,873.31-2182.99,895.33-2864.64,173.01C250.3,2883.84-410.43,1752.66,824.73,692.76,1790.37-135.85,3417.05-239.95,4098.7,482.37Z"/><g><g><g><path class="cls-4" d="m3969.08,247.81h-1668.78"/><line class="cls-5" x1="46.96" y1="3150.18" x2="4733.95" y2="3150.18"/></g><g><g><line class="cls-4" x1="306.74" y1="537.58" x2="306.74" y2="2586.64"/><line class="cls-4" x1="971.26" y1="537.58" x2="971.26" y2="2960.15"/><line class="cls-4" x1="1635.78" y1="537.58" x2="1635.78" y2="2714.17"/><line class="cls-4" x1="2300.3" y1="537.58" x2="2300.3" y2="2777.94"/><line class="cls-4" x1="2964.82" y1="537.58" x2="2964.82" y2="2841.7"/><line class="cls-4" x1="3629.34" y1="537.58" x2="3629.34" y2="2905.47"/><line class="cls-4" x1="4293.86" y1="537.58" x2="4293.86" y2="2969.24"/></g><line class="cls-4" x1="258.59" y1="537.58" x2="4293.86" y2="537.58"/><line class="cls-4" x1="258.59" y1="1131.73" x2="4293.86" y2="1131.73"/><line class="cls-4" x1="84.08" y1="1725.89" x2="4644.08" y2="1725.89"/><line class="cls-4" x1="46.96" y1="2320.05" x2="4694.08" y2="2320.05"/><line class="cls-4" x1="258.59" y1="2914.21" x2="4293.86" y2="2914.21"/><polyline class="cls-4" points="359.02 2609.93 975.71 2057.1 1637.08 1959.33 2300.3 1498.27 2954.07 1418.73 3638.44 981.65 4293.86 866.63"/><path class="cls-4" d="m377.08,2656.97c0,38.85-31.49,70.34-70.34,70.34s-70.34-31.49-70.34-70.34,31.49-70.34,70.34-70.34,70.34,31.49,70.34,70.34Z"/><circle class="cls-8" cx="975.17" cy="2059.86" r="70.34" transform="translate(-987.15 900.86) rotate(-34.1)"/><circle class="cls-8" cx="1636.61" cy="1950.79" r="70.34" transform="translate(-68.5 59.58) rotate(-2.04)"/><circle class="cls-4" cx="2300.3" cy="1506.1" r="70.34" transform="translate(634.92 3693.85) rotate(-85.93)"/><circle class="cls-8" cx="2967.33" cy="1416.6" r="70.34" transform="translate(-38.16 82.88) rotate(-1.59)"/><circle class="cls-8" cx="3632.97" cy="987.3" r="70.34" transform="translate(-107.37 559.39) rotate(-8.68)"/><circle class="cls-8" cx="4293.86" cy="866.63" r="70.34" transform="translate(-72.52 1217.33) rotate(-16)"/></g></g><line class="cls-4" x1="3385.39" y1="3521.97" x2="5" y2="3521.97"/></g><g><path class="cls-11" d="m3124.09,1779.96c16.68-47.1-38.07-96.4-24.41-144.46,14.79-52.04,98.3-63.35,105.91-116.91,7.45-52.46-65.37-83.46-74.12-135.72-10.05-60.06,68.21-105.92,63.64-166.64-5.17-68.66-107.18-91.64-124-158.4-10.79-42.84,17.39-92.75-6.05-130.2-25.14-40.14-88.92-33-122.99-65.9-32.61-31.48-27.73-89.44-61.95-119.15-51.57-44.77-150.56,7.21-192.29-46.85-17.66-22.87-16.22-56.84-35.51-78.35-25.74-28.69-72.78-20.02-107.46-3.21-34.69,16.81-70.45,40.15-108.42,33.5-55.91-9.79-87.31-80.14-143.77-86.01-35.65-3.71-68.21,20.39-92.12,47.09-23.9,26.7-44.08,57.93-74.53,76.82-31.96,19.81-70.93,23.39-107.41,32.49-36.48,9.1-74.95,27.56-88.48,62.64-14.98,38.82,5.47,85.92-13.84,122.79-31.83,60.8-143.43,46.16-164.85,111.36-15.23,46.33,30.9,98.64,10.51,142.95-24.24,52.65-116.88,40.85-139.83,94.07-16.6,38.5,16.85,81.19,13.32,122.97-2.7,31.89-26.12,57.42-44.22,83.82-18.09,26.4-31.43,62.61-13.69,89.25,13.83,20.77,42.24,28.21,55.69,49.23,30.07,46.97-36.99,110.49-13.35,161,17.27,36.88,68.52,38.63,102.9,60.46,59.7,37.9,16.23,119.11,45.82,194.51,29.6,75.41,162.85,13.86,225.99,53.92,54.55,34.62,61.38,118.78,65.85,145.55,17.03,101.86,135.34,115.06,376.06,8.97,50.42-22.22,77.54-69.77,122.23-102.01,35.04-25.28,83.08-22.86,124.75-11.41,41.66,11.45,102.48,9.68,145.33,15.24,42.85,5.56,92.26-41.32,114.05-78.63,31.18-53.39-6.61-132.06,34.24-178.46,38.76-44.03,127.44-31,147.02-86.29Z"/><g><g><path class="cls-6" d="m2217.64,2511.81c65.25-23.94,133.51-36.02,201.83-37.49"/><path class="cls-6" d="m2156.67,2538.2c5.37-2.7,10.77-5.31,16.2-7.82"/><path class="cls-6" d="m1818.21,2865.21c13.5-20.85,27.87-40.95,43.33-59.85"/><path class="cls-6" d="m3031.47,2794.92c61.51,84.68,110.71,180.55,154.03,279.19"/><path class="cls-6" d="m2975.65,2725.36c7.86,8.83,15.56,17.86,23.1,27.08"/><path class="cls-6" d="m2737.53,2533.49c73.38,38.21,141.31,90.12,201.65,152.15"/><path class="cls-6" d="m2469.09,2474.32c74.81,7.26,150.71,11.83,222.89,38"/></g><g><line class="cls-6" x1="2309.91" y1="3300.2" x2="2721.94" y2="3480.68"/><line class="cls-6" x1="2166.62" y1="3237.44" x2="2238.78" y2="3269.04"/></g></g><g><g><path class="cls-10" d="m1680.33,2310.06c-412.9,303.37-1238.4,914.97-978.29,1224.81,260.11,309.84,994.54-459.02,1170.5-688.53,175.96-229.51,23.34-694.65-192.21-536.28Z"/><path class="cls-10" d="m3185.49,2265.49c408.43,309.36,1331.66,964.71,1067.06,1270.72-264.6,306.01-987.74-473.48-1160.33-705.53-172.59-232.05-119.95-726.69,93.27-565.19Z"/><path class="cls-10" d="m3116.69,3924.19c13.78-113.67,30.82-238.47,48.92-366.11,13.6-95.91,74.78-193.43,88.65-289.04,56.27-387.81,60.1-744.34,43.21-835.42-45.9-247.42-472.88-374.2-822.78-354.27-349.9-19.93-791.69,81.71-837.59,329.13-16.45,88.64-20.3,445.85,27.81,828.95,10.13,80.69,56.55,162.52,67.84,243.24,22.06,157.75,45.77,311.23,68.9,443.51h1315.05Z"/><path class="cls-3" d="m1674.87,2533.49c-35.6,221.21,35.6,505.65,35.6,505.65"/><path class="cls-3" d="m3269.08,2685.64c12.59,163.17-31.89,422.25-31.89,422.25"/></g><g><path class="cls-1" d="m2490.4,2082.86c-117.45,6.82-208.74-12.8-287.7,21.18-394.52,169.75-309.48,607.73,247.75,607.73,533.47,0,663.6-374.82,442.62-565.12-83.15-71.6-222.89-74.23-402.67-63.79Z"/><path class="cls-3" d="m2135.59,2138.09c-315.22,187.71-208.24,573.68,314.86,573.68,484.23,0,636.14-308.82,494.8-508.15"/><g><path class="cls-1" d="m2624.17,1072.21l132.58,1023.71c9.19,70.97-188.35,211.45-206.18,321.74-32.27-127.65-273.04-259.67-282.23-330.65l-123.39-952.74,479.22-62.06Z"/><g><g><path class="cls-1" d="m1948.2,1363.29c11.82-44.32,80.03-11.31,115.7,2.74l21.43,40.36c8.41,60.07,60.07,118.24,37.17,178.8-10.21,17.33-35.25,20.96-53.6,12.74-45.57-25.48-52.51-63.12-75.84-107.02-11.09-29.09-52.89-97.47-44.85-127.63Z"/><path class="cls-1" d="m2767.76,1512.53c9.4,88.62-85.8,412.6-241.92,424.06-117.51,8.63-174.58-46.46-276.32-98.54-120.97-61.92-168.4-337.24-219.42-483.15-61.83-176.86-31.17-585.83,486.85-492.14,95.33,41.77,174.06,111.36,189.06,212.35,5.97,40.19,58.76,338.65,61.75,437.41Z"/><path class="cls-3" d="m2516.95,862.77c95.33,41.77,174.06,111.36,189.06,212.35,5.97,40.19,58.76,338.65,61.75,437.41,9.4,88.62-85.8,412.6-241.92,424.06-92.54,6.8-147.59-25.92-216.49-65.56"/><path class="cls-3" d="m2451.8,1300.76c24.57,189.65,80.65,193.13,60.29,215.31-20.36,22.18-57.76,22.49-57.76,22.49"/></g><path class="cls-3" d="m2365.63,1239.95c-122.41-29.95-221.16,71.97-226.43,75.56"/><path class="cls-3" d="m2708.18,1180.4c-122.41-29.95-206.15,67.77-211.42,71.36"/></g><path class="cls-11" d="m2614.8,1327.74c28.66-35.92,68.14,30.8,30.72,52.71-37.42,21.91-42.65-37.76-30.72-52.71Z"/><path class="cls-11" d="m2277.08,1378.94c28.66-35.92,68.14,30.8,30.72,52.71-37.42,21.91-42.65-37.76-30.72-52.71Z"/></g></g><path class="cls-10" d="m438.39,2981.95c-57.05-194.6,508.43-282.88,571.34-177.81,62.91,105.07,261.32,469.29,16.62,717.16-183.7,186.08-389.8,136.62-587.96-539.35Z"/><path class="cls-10" d="m4378.05,2874.55c-66.77-191.48-581.59-16.78-589,105.46-7.42,122.24,2.53,478.05,266.31,615.71,277.93,145.04,505.56-196.79,322.69-721.16Z"/><path class="cls-1" d="m440.64,1722.77h0c-54.47,16.86-88.82,70.57-81.29,127.09,0,0,137.3,954.58,164.06,1146.13,26.76,191.55,475.44,45.05,416.46-121.06-58.98-166.11-356.28-1084.23-356.28-1084.23-22.74-56.37-84.89-85.9-142.95-67.93Z"/><path class="cls-3" d="m438.39,2981.95c55.74,248.48,415.59,196.93,571.51-21.8"/><path class="cls-3" d="m3805.36,3060.05c33.73,33.69,82.01,63.98,130.84,84.83,229.32,97.88,535.97-20.92,441.84-250.61-15.33-37.41-46.49-59.15-68.9-70.53"/><path class="cls-3" d="m920.92,2763.64c168.01,16.54,199.68,305.75,199.68,305.75"/></g><g><g><path class="cls-10" d="m337.8,1048.3h374.26c32.61,0,59.22,18.39,68.63,47.42l277.46,856.15c4.36,13.44-1.05,28.2-11.44,38.29-1.83,1.78-17.58,14.73-19.69,16.18-6.67,4.59-19.61-36.88-28.01-36.88l-305.76,8.47c-32.02,0-58.31-17.73-68.14-45.96l-298.6-857.01c-4.12-11.84-39.06,35.17-39.08,16.82-.02-15.18,21.32-31.24,23.43-33.06,7.36-6.34,16.81-10.42,26.94-10.42Z"/><path class="cls-10" d="m322.48,1072.21h374.26c32.61,0,59.22,18.39,68.63,47.43l277.46,856.15c7.55,23.3-14.23,50.55-40.39,50.55h-353.41c-32.02,0-58.31-17.73-68.14-45.96l-298.6-857.01c-8.13-23.33,13.73-51.15,40.19-51.15Z"/><path class="cls-3" d="m284.72,1096.39c6.86-13.59,21.43-24.19,37.76-24.19h374.26c32.61,0,59.22,18.39,68.63,47.43l277.46,856.15c3.39,10.45.87,21.69-5.29,30.91"/><path class="cls-1" d="m354.29,1648.63c126.91-66.48,340.07,193.97,339.62,334.21-.32,98.83-223.31,169.78-294.73,47.36-71.42-122.43-87.74-359.12-44.89-381.56Z"/><path class="cls-1" d="m388.38,1749.78c-5.99,0-12.08-1.03-18.04-3.19-27.41-9.97-41.55-40.27-31.59-67.68l54.67-150.35c8.32-22.89,31.23-37.12,55.43-34.45l184.66,20.41c28.99,3.2,49.9,29.3,46.69,58.29-3.2,28.99-29.3,49.91-58.29,46.69l-143.41-15.85-40.49,111.35c-7.8,21.45-28.06,34.78-49.64,34.78Z"/><path class="cls-1" d="m429.82,1788.16c-15.19,0-30.26-6.52-40.7-19.13-18.6-22.46-15.47-55.76,6.99-74.36,145.75-120.7,344.44-103.65,352.83-102.87,29.04,2.72,50.38,28.46,47.66,57.5-2.72,29.04-28.46,50.37-57.5,47.66-1.49-.13-164.1-13.3-275.62,79.05-9.85,8.16-21.79,12.14-33.66,12.14Z"/><path class="cls-1" d="m451.18,1861.63c-23.38,0-44.76-15.64-51.02-39.32-7.46-28.2,9.35-57.1,37.55-64.56l307.09-81.26c28.2-7.46,57.1,9.35,64.56,37.55,7.46,28.2-9.35,57.1-37.55,64.56l-307.09,81.26c-4.53,1.2-9.07,1.77-13.54,1.77Z"/><path class="cls-1" d="m471.59,1953.45c-22.98,0-44.13-15.12-50.75-38.32-8.01-28.04,8.23-57.28,36.27-65.29l207.11-59.17c28.04-8.01,57.28,8.23,65.29,36.27,8.01,28.04-8.23,57.28-36.27,65.29l-207.11,59.17c-4.85,1.38-9.73,2.05-14.53,2.05Z"/><path class="cls-3" d="m437.7,1757.75s266.92-70.35,307.09-81.26c14.46-3.93,26.27-1.67,35.47,2.82"/><path class="cls-3" d="m457.11,1849.84s169.16-50,207.11-59.17c37.94-9.17,51.91,13.5,51.91,13.5"/><line class="cls-3" x1="496.35" y1="1948.48" x2="716.12" y2="1885.69"/><path class="cls-3" d="m411.27,1682.74c55-45.45,195.79-93.66,262.95-90.71"/><ellipse class="cls-11" cx="680.53" cy="1196.37" rx="15.8" ry="35.56" transform="translate(-501.02 490.43) rotate(-29.51)"/><path class="cls-11" d="m733.73,1290.7c7.53,17.62,5.75,31.91-3.97,31.91s-23.71-14.29-31.24-31.91c-7.53-17.62-5.75-31.91,3.97-31.91s23.71,14.29,31.24,31.91Z"/></g><path class="cls-3" d="m693.91,1982.83c0,69.82-50.86,102.07-50.86,102.07"/></g><g><path class="cls-1" d="m3699.35,1791.09c61.48-142.59,185.86-327.14,194.24-425.03,9.64-112.58,84.93-29.23,89.48,44.88,4.55,74.12-51.9,121.26-27.18,171.25,19.36,39.14,40.32,31.52,147.95-11.9,107.63-43.42,355.71-168.38,400-130.37,30.47,26.15,8.16,53.92,8.16,53.92,0,0,65.47-14.43,69.76,31.53,4.29,45.96-63.87,63.8-63.87,63.8,0,0,56.08,44.83-4.71,68.33-20.48,7.92-23.5,8.25-61.98,21.04-64.09,72.41-163.11,246.15-233.06,261.79-66.76,14.92-226.94,53.04-324,65.57-160.11,20.67-237.24-116.35-194.79-214.8Z"/><path class="cls-3" d="m4512.01,1493.84c-128.75,17.51-352.67,133.27-352.67,133.27"/><path class="cls-3" d="m4517.9,1589.17c-139.41,13.38-339.29,130.49-339.29,130.49"/><path class="cls-3" d="m4451.2,1678.54c14.21-31.47-31.18-64.71-73.31-21.09-44.22,45.78-169.45,161.25-169.45,161.25"/></g><path class="cls-1" d="m3770.15,1725.82h0c-54.47,16.86-88.82,70.57-81.29,127.09,0,0,139.62,922.77,160.45,1115.06,16.79,154.99,508.91,179.36,420.07-89.99-55.21-167.4-356.28-1084.23-356.28-1084.23-22.74-56.37-84.89-85.9-142.95-67.93Z"/><path class="cls-11" d="m2710.83,793.82c41.13,197.51-135.29,165.07-181.25,150.06-45.95-15.01-6.59,44.42-55.97,94.62-46.2,46.97-126.11-2.12-191.63,39.55-65.52,41.67,8.3,143.35-56.26,181.7-116.44,69.18,11.06,156.63-28.27,237.37-39.33,80.75-145.23,12.24-180.87,80.65-35.64,68.42-251.8-69.27-185.98-301.04,65.82-231.77,251.98-507.09,437.6-543.45,365.18-71.53,442.64,60.51,442.64,60.51Z"/></g><line class="cls-3" x1="2239.16" y1="1861.63" x2="2297.23" y2="2338.01"/><line class="cls-3" x1="2717" y1="1734.71" x2="2768.39" y2="2172.56"/><path class="cls-3" d="m2598.05,2511.81c118.98-89.18,377.6-155.85,377.6-155.85"/><path class="cls-3" d="m2393.84,1711.63c93.96,35.35,165.19,0,165.19,0"/><path class="cls-3" d="m3800.85,1937.49c15.33,84.34,128.81,58.27,128.81,58.27"/><g><rect class="cls-1" x="491.76" y="3637.29" width="1658.61" height="286.9"/><line class="cls-3" x1="398.39" y1="3637.29" x2="2195.53" y2="3637.29"/><line class="cls-3" x1="509.7" y1="3707.95" x2="2306.84" y2="3707.95"/><line class="cls-3" x1="451.98" y1="3786.21" x2="2249.12" y2="3786.21"/><line class="cls-3" x1="569.7" y1="3855.2" x2="2274.79" y2="3855.2"/></g><g><rect class="cls-1" x="738.02" y="3924.19" width="3533.56" height="225"/><line class="cls-3" x1="377.76" y1="3924.19" x2="4461.18" y2="3924.19"/></g><g><path class="cls-7" d="m3499.08,3702.57c0,85.42-73.72,154.66-164.67,154.66s-164.67-69.24-164.67-154.66,73.72-154.66,164.67-154.66,164.67,69.24,164.67,154.66Zm-71.31,0c0-48.35-41.88-87.69-93.36-87.69s-93.36,39.34-93.36,87.69,41.88,87.68,93.36,87.68,93.36-39.33,93.36-87.68Z"/><path class="cls-7" d="m3385.99,3492.09c-7.92,197.33-60.48,362.21-132.35,432.09h-298.72c-71.88-69.88-124.43-234.76-132.35-432.09h563.43Z"/><path class="cls-2" d="m3332.17,3632.08c13.23-.27,28.97-.27,42.62,0"/><path class="cls-2" d="m3075.78,3632.08c72.94-.27,146.37-.27,220.78,0"/><path class="cls-2" d="m2968.7,3632.08h59.27"/><path class="cls-2" d="m2839.57,3632.08c28.56-.27,60.02-.27,88.34,0"/></g><path class="cls-1" d="m3723.04,2850.57c186.85,38.02-60.6,263.4-214.44,266.71-153.84,3.3-155.18,131.61-201.13,189.07-45.95,57.47-223.09,38.79-260.38,125.49-8.3-116,35.89-208.26,133.78-227.22,97.9-18.96,25.22-93.39,108.52-163.01,56.11-46.9,120.22-25.76,173.79-95.12,62-80.27,161.95-115.85,259.86-95.92Z"/></g></svg>