<?xml version="1.0" encoding="UTF-8"?><svg id="Layer_2" xmlns="http://www.w3.org/2000/svg" viewBox="0 0 4576.6 4087.07"><defs><style>.cls-1,.cls-2,.cls-3{fill:#fff;}.cls-4{fill:#e17847;}.cls-5,.cls-6,.cls-7,.cls-8,.cls-2,.cls-9,.cls-3,.cls-10,.cls-11,.cls-12{stroke-linecap:round;stroke-linejoin:round;stroke-width:10px;}.cls-5,.cls-7,.cls-3,.cls-12{stroke:#2e2e2e;}.cls-5,.cls-8,.cls-9{fill:none;}.cls-13,.cls-6,.cls-7{fill:#c1c7d7;}.cls-6,.cls-8,.cls-2,.cls-10,.cls-11{stroke:#c1c7d7;}.cls-14,.cls-11,.cls-12{fill:#203058;}.cls-15{fill:#2e2e2e;}.cls-9{stroke:#000;}.cls-10{fill:#3c99de;}</style></defs><g id="Layer_1-2"><g><g><path class="cls-2" d="m842.62,2267.25V651.33c0-36.09,29.26-65.35,65.35-65.35h2849.48c36.09,0,65.35,29.26,65.35,65.35v1846.41c0,36.09-29.26,65.35-65.35,65.35H1057.07"/><path class="cls-2" d="m842.62,769.79v-118.46c0-36.09,29.26-65.35,65.35-65.35h2849.48c36.09,0,65.35,29.26,65.35,65.35v118.46H842.62Z"/><polyline class="cls-8" points="948.3 1927.58 973.65 1952.93 1023.99 1903.06"/><g><line class="cls-8" x1="1063.48" y1="2411.76" x2="1425.38" y2="2411.76"/><line class="cls-8" x1="1063.48" y1="2351.69" x2="1597.71" y2="2351.69"/><line class="cls-8" x1="1063.48" y1="2291.61" x2="1558.32" y2="2291.61"/><line class="cls-8" x1="1063.48" y1="2171.46" x2="1597.71" y2="2171.46"/></g><g><rect class="cls-8" x="948.3" y="1927.99" width="50.7" height="50.7"/><line class="cls-8" x1="1063.48" y1="2108.22" x2="1425.38" y2="2108.22"/><line class="cls-8" x1="1063.48" y1="2048.14" x2="1597.71" y2="2048.14"/><line class="cls-8" x1="1063.48" y1="1988.07" x2="1558.32" y2="1988.07"/><line class="cls-8" x1="1063.48" y1="1927.99" x2="1597.71" y2="1927.99"/></g><g><line class="cls-8" x1="1063.48" y1="1743.45" x2="1425.38" y2="1743.45"/><line class="cls-8" x1="1063.48" y1="1683.37" x2="1597.71" y2="1683.37"/><line class="cls-8" x1="1063.48" y1="1623.29" x2="1558.32" y2="1623.29"/><line class="cls-8" x1="1063.48" y1="1563.22" x2="1597.71" y2="1563.22"/></g><g><line class="cls-8" x1="1063.48" y1="1378.67" x2="1425.38" y2="1378.67"/><line class="cls-8" x1="1063.48" y1="1318.6" x2="1597.71" y2="1318.6"/><line class="cls-8" x1="1063.48" y1="1258.52" x2="1558.32" y2="1258.52"/><line class="cls-8" x1="1063.48" y1="1198.45" x2="1597.71" y2="1198.45"/><line class="cls-8" x1="1063.48" y1="1027.34" x2="1371.72" y2="1027.34"/></g><g><rect class="cls-13" x="997.63" y="1448.09" width="371.01" height="43.03"/><rect class="cls-13" x="997.63" y="1816.76" width="550.86" height="43.03"/><line class="cls-8" x1="3049.34" y1="1363.76" x2="3320.06" y2="1363.76"/><g><path class="cls-2" d="m3330.29,1083.11c-4.7,52.7-51.24,91.62-103.94,86.92-8.09-.72-15.86-2.43-23.2-5l-43.54,124.15c17.41,6.09,35.84,10.15,55.05,11.87,125.06,11.16,235.49-81.18,246.64-206.24,5.99-67.11-17.84-129.99-60.51-175.59l-96,89.9c17.99,19.22,28.02,45.72,25.5,74Z"/><path class="cls-11" d="m3139.63,1085.31l-130.73,14.7c9.67,86.82,68.81,160.51,150.71,189.17l43.54-124.15c-34.52-12.08-59.44-43.13-63.51-79.72Z"/><path class="cls-6" d="m3139.63,1085.31c-.7-6.27-.79-12.7-.2-19.22,4.7-52.7,51.24-91.62,103.94-86.92,24.42,2.18,45.88,13.35,61.41,29.94l96-89.9c-36.86-39.38-87.77-65.88-145.73-71.05-125.06-11.16-235.49,81.18-246.64,206.24-1.38,15.48-1.17,30.74.49,45.61l130.73-14.7Z"/></g><g><line class="cls-8" x1="1911.24" y1="1064.74" x2="1911.24" y2="1277.92"/><line class="cls-8" x1="2774.21" y1="913.28" x2="2774.21" y2="1277.92"/><line class="cls-8" x1="2702.29" y1="982.47" x2="2702.29" y2="1277.92"/><line class="cls-8" x1="2630.38" y1="1118.97" x2="2630.38" y2="1277.92"/><line class="cls-8" x1="2558.47" y1="1047.91" x2="2558.47" y2="1277.92"/><line class="cls-8" x1="2486.55" y1="1018" x2="2486.55" y2="1277.92"/><line class="cls-8" x1="2414.64" y1="1059.13" x2="2414.64" y2="1277.92"/><line class="cls-8" x1="2342.73" y1="1158.24" x2="2342.73" y2="1277.92"/><line class="cls-8" x1="2270.81" y1="1038.56" x2="2270.81" y2="1277.92"/><line class="cls-8" x1="2198.9" y1="952.55" x2="2198.9" y2="1277.92"/><line class="cls-8" x1="2126.99" y1="1027.34" x2="2126.99" y2="1277.92"/><line class="cls-8" x1="2055.07" y1="1171.33" x2="2055.07" y2="1277.92"/><line class="cls-8" x1="1983.16" y1="982.47" x2="1983.16" y2="1277.92"/></g><g><path class="cls-8" d="m1721.54,1799.35c436.98-310.88,678.36,74.99,967.93,256.15,289.57,181.15,462.13-253.46,679.43-199.06,174.24,43.62,335.76,199.06,335.76,199.06"/><line class="cls-8" x1="3698.56" y1="2280.25" x2="3698.56" y2="1445.87"/><line class="cls-8" x1="3466.71" y1="2250.97" x2="3466.71" y2="1507.66"/><line class="cls-8" x1="3234.86" y1="2280.25" x2="3234.86" y2="1753.54"/><line class="cls-8" x1="3003.01" y1="2250.97" x2="3003.01" y2="1520.74"/><line class="cls-8" x1="2771.16" y1="2216.64" x2="2771.16" y2="1900.05"/><line class="cls-8" x1="2539.31" y1="2250.97" x2="2539.31" y2="2111.57"/><line class="cls-8" x1="2307.46" y1="2075.9" x2="2307.46" y2="1972.16"/><line class="cls-8" x1="2075.61" y1="2250.97" x2="2075.61" y2="1885.89"/><line class="cls-8" x1="1843.76" y1="2280.25" x2="1843.76" y2="2121.31"/><polyline class="cls-8" points="1843.76 2121.31 2075.61 1885.89 2307.46 1964.23 2539.31 2109.44 2771.16 1900.05 3003.01 1520.74 3234.86 1753.54 3466.71 1507.66 3698.56 1445.87"/><circle class="cls-2" cx="1843.76" cy="2121.31" r="26.72" transform="translate(-821.65 3012.93) rotate(-67.5)"/><circle class="cls-2" cx="2075.61" cy="1885.89" r="26.72" transform="translate(-681.48 1372.87) rotate(-31.72)"/><circle class="cls-2" cx="2307.46" cy="1965.57" r="26.72" transform="translate(-391.51 3345.19) rotate(-67.5)"/><circle class="cls-2" cx="2539.31" cy="2107.64" r="26.72"/><circle class="cls-2" cx="2771.16" cy="1900.05" r="26.72"/><circle class="cls-2" cx="3003.01" cy="1520.74" r="26.72" transform="translate(-353.37 1264.96) rotate(-22.5)"/><circle class="cls-2" cx="3234.86" cy="1753.54" r="26.72" transform="translate(785.01 4498.99) rotate(-76.72)"/><circle class="cls-2" cx="3466.71" cy="1507.66" r="26.72"/><circle class="cls-2" cx="3698.56" cy="1445.87" r="26.72"/></g></g><line class="cls-6" x1="1721.54" y1="1574.53" x2="1721.54" y2="2351.69"/></g><path class="cls-2" d="m2866.95,1420.93h-1067.13c-20.62,0-37.34-16.72-37.34-37.34h0c0-20.62,16.72-37.34,37.34-37.34h1067.13c20.62,0,37.34,16.72,37.34,37.34h0c0,20.62-16.72,37.34-37.34,37.34Z"/><path class="cls-13" d="m2165.03,1420.93h-365.21c-20.62,0-37.34-16.72-37.34-37.34h0c0-20.62,16.72-37.34,37.34-37.34h365.21v74.69Z"/><g><circle class="cls-6" cx="954.98" cy="689" r="37.04"/><circle class="cls-8" cx="1079.92" cy="689" r="37.04"/><circle class="cls-8" cx="1204.87" cy="689" r="37.04"/></g><g><line class="cls-8" x1="3405.94" y1="717.56" x2="3461.22" y2="717.56"/><g><line class="cls-8" x1="3676.97" y1="659.45" x2="3735.08" y2="717.56"/><line class="cls-8" x1="3735.08" y1="659.45" x2="3676.97" y2="717.56"/></g><rect class="cls-8" x="3535.95" y="659.45" width="58.11" height="58.11"/></g></g><g><g><rect class="cls-2" x="2708.16" y="2440.09" width="611.1" height="872.23"/><g><polyline class="cls-8" points="3269.64 2825.55 3034.77 2823.07 3036.6 2636.7"/><polyline class="cls-8" points="3028.34 2746.06 3119.14 2676.91 3155.76 2701.25 3255.48 2617.59"/><line class="cls-8" x1="3079.93" y1="2750.69" x2="3079.21" y2="2823.54"/><line class="cls-8" x1="3136.72" y1="2623.92" x2="3134.76" y2="2824.13"/><line class="cls-8" x1="3191.4" y1="2712.73" x2="3190.3" y2="2824.71"/><line class="cls-8" x1="3247.42" y1="2663.66" x2="3245.84" y2="2825.3"/><line class="cls-8" x1="2825.07" y1="2634.46" x2="3004.83" y2="2636.37"/><line class="cls-8" x1="2794.25" y1="2672.7" x2="3004.45" y2="2674.93"/><line class="cls-8" x1="2793.87" y1="2711.26" x2="3004.08" y2="2713.48"/><line class="cls-8" x1="2793.49" y1="2749.81" x2="3003.7" y2="2752.04"/><line class="cls-8" x1="2793.11" y1="2788.37" x2="3003.32" y2="2790.6"/><line class="cls-8" x1="2792.73" y1="2826.93" x2="3002.94" y2="2829.16"/><line class="cls-8" x1="2792.36" y1="2865.49" x2="2912.69" y2="2866.76"/><line class="cls-8" x1="2822.43" y1="2904.37" x2="3002.19" y2="2906.27"/><line class="cls-8" x1="2791.6" y1="2942.6" x2="3001.81" y2="2944.83"/><line class="cls-8" x1="2789.33" y1="3173.95" x2="2999.54" y2="3176.18"/><line class="cls-8" x1="3065.42" y1="2868.38" x2="3245.18" y2="2870.28"/><line class="cls-8" x1="3034.59" y1="2906.62" x2="3244.8" y2="2908.84"/><line class="cls-8" x1="3034.21" y1="2945.17" x2="3244.42" y2="2947.4"/><line class="cls-8" x1="3033.84" y1="2983.73" x2="3244.04" y2="2985.96"/><line class="cls-8" x1="3033.46" y1="3022.29" x2="3243.66" y2="3024.52"/><line class="cls-8" x1="3033.08" y1="3060.85" x2="3243.29" y2="3063.07"/><line class="cls-8" x1="3032.7" y1="3099.4" x2="3153.03" y2="3100.68"/><line class="cls-8" x1="3062.77" y1="3138.28" x2="3242.53" y2="3140.19"/><line class="cls-8" x1="3031.95" y1="3176.52" x2="3242.15" y2="3178.75"/><line class="cls-8" x1="3031.57" y1="3215.08" x2="3241.78" y2="3217.3"/><line class="cls-8" x1="2787.98" y1="2552.14" x2="3124.48" y2="2554.07"/></g></g><rect class="cls-6" x="2767.79" y="2983.73" width="234.4" height="154.23"/><g><rect class="cls-2" x="1704.96" y="2440.09" width="611.1" height="872.23"/><g><polygon class="cls-2" points="2240.68 2887.89 1791.1 2887.89 1791.1 2598 2243.37 2598 2240.68 2887.89"/><path class="cls-8" d="m2239.33,2826.4c-137.57-101.95-169.39-105.56-249.24-55.2-79.84,50.36-198.99-58.96-198.99-58.96"/><path class="cls-8" d="m1793.56,2839.99c110.55-45.45,149.86-110.55,228.47-137.58,78.61-27.02,125.29,24.57,218.65-55.28"/><line class="cls-8" x1="2145.11" y1="2694.49" x2="2145.11" y2="2887.89"/><line class="cls-8" x1="1945.9" y1="2783.33" x2="1945.9" y2="2887.89"/></g><line class="cls-8" x1="1900.13" y1="2520.85" x2="2131.65" y2="2520.85"/><line class="cls-2" x1="1855.65" y1="2946.87" x2="2197.54" y2="2946.87"/><line class="cls-2" x1="1855.65" y1="2980.52" x2="2197.54" y2="2980.52"/><line class="cls-2" x1="1855.65" y1="3014.17" x2="2197.54" y2="3014.17"/></g><g><rect class="cls-2" x="2287.02" y="2333.41" width="611.1" height="872.23"/><g><path class="cls-2" d="m2505.22,2543.32l82.37,198.79-167.99-134.53c-53.49,66.84-63.98,162.14-19.03,241.06,58.83,103.29,190.25,139.32,293.54,80.49,103.29-58.83,139.32-190.25,80.49-293.54-54.33-95.39-170.57-133.35-269.38-92.27Z"/><path class="cls-2" d="m2802.14,2759.25l-214.55-17.14c-2.86-5.02,62.68-205.89,62.68-205.89"/><polyline class="cls-2" points="2393.94 2837 2587.59 2742.11 2735.44 2898.57"/><path class="cls-6" d="m2426.87,2437.5c-8.18,3.4-16.26,7.28-24.15,11.78-24.37,13.88-44.94,31.84-61.46,52.48l167.99,134.53-82.37-198.79Z"/></g><line class="cls-10" x1="2508.52" y1="2410.08" x2="2718.97" y2="2410.08"/><line class="cls-10" x1="2508.52" y1="2444.99" x2="2718.97" y2="2444.99"/><line class="cls-10" x1="2400.24" y1="3024.76" x2="2802.85" y2="3024.76"/><line class="cls-10" x1="2400.24" y1="3075.91" x2="2802.85" y2="3075.91"/><line class="cls-10" x1="2400.24" y1="3127.06" x2="2802.85" y2="3127.06"/></g><g><rect class="cls-2" x="1134.65" y="2333.41" width="611.1" height="872.23"/><g><g><line class="cls-2" x1="1319.64" y1="2423.28" x2="1586.47" y2="2424.43"/><line class="cls-2" x1="1261.78" y1="2481.19" x2="1642.39" y2="2482.83"/><polyline class="cls-2" points="1261.43 2579.55 1260.16 2876.03 1640.76 2877.67"/><line class="cls-2" x1="1259.89" y1="2938.6" x2="1640.49" y2="2940.24"/><line class="cls-2" x1="1259.64" y1="2976.59" x2="1520.25" y2="2977.71"/><line class="cls-2" x1="1316.37" y1="3039.56" x2="1640.49" y2="3041.2"/><line class="cls-2" x1="1259.64" y1="3077.54" x2="1520.25" y2="3078.67"/></g><line class="cls-2" x1="1300.98" y1="2876.2" x2="1301.27" y2="2634.46"/><line class="cls-2" x1="1344.94" y1="2876.39" x2="1345.49" y2="2681.82"/><line class="cls-2" x1="1388.9" y1="2876.58" x2="1389.23" y2="2663.66"/><line class="cls-2" x1="1432.85" y1="2876.77" x2="1433.29" y2="2634.46"/><line class="cls-2" x1="1476.81" y1="2876.96" x2="1477.52" y2="2652.58"/><line class="cls-2" x1="1520.77" y1="2877.15" x2="1521.72" y2="2655.65"/><line class="cls-2" x1="1564.72" y1="2877.34" x2="1565.31" y2="2623.92"/><line class="cls-2" x1="1608.68" y1="2877.53" x2="1609.85" y2="2605.61"/></g></g></g><g><path class="cls-15" d="m240.35,1709.79c183.42-95.94,68.75-204.63,94.28-278,39.96-114.83,119.39-64.11,141.33-203.2s179.33-305.41,356.82-281.14c156.34,21.37,270.24,102.33,273.64,296.44,3.4,194.11,126.79,145.97,138.34,275.07,11.55,129.1-38.14,162.25,46.96,241.3-182.95,124-941.1,125.66-1051.37-50.45Z"/><path class="cls-5" d="m213.01,1685.43c183.51-85.32,75.86-197.03,103.93-267.63,43.92-110.49,119.51-57.16,146.82-192.24,27.3-135.09,188.29-290.48,360.95-258.46"/><path class="cls-4" d="m1102.72,4077.94c-23.22-102.47-46.34-204.5-67.53-298.03h520.19c15.34,96.29,31.55,198.09,47.47,298.03h-500.13Z"/><path class="cls-4" d="m952.86,4077.94c5.09-105.81,9.6-206.04,13.33-298.03l-476.15,2.59c2.35,91.42,5.28,190.75,8.65,295.45h454.17Z"/><g><path class="cls-13" d="m1279.17,2964.62s-843.33-97.49-828.87-83.03c14.46,14.46,71.93-811.34,71.93-811.34,0,0,718.65-42.75,717.93-40.91-.72,1.84,39.01,935.28,39.01,935.28Z"/><g><path class="cls-1" d="m963.01,2995.27c-182.87-5.01-354.45-213.3-354.45-213.3,0,0-309.74-881.66,0-1004.47,309.74-122.81,489.09,29.5,552.78,150.12,63.69,120.62,127.87,621.5,68.3,854.35-59.57,232.85-266.62,213.3-266.62,213.3Z"/><path class="cls-14" d="m1625.1,4077.94c-64.83-340.19-155.54-710.25-241.77-913.29-69.91-164.59-165.47-241.46-165.47-241.46l11.77-141.22h-621.07v144.29s-112.92,172.86-134.88,354.62c-8.25,68.27-5.07,404.18,2.11,797.06,0,0,513.86,0,513.86,0,5.85-106.65,9.53-173.6,9.53-173.6,0,0,18.39,71.5,44.64,173.6h581.28Z"/></g></g><line class="cls-5" x1="1217.86" y1="2923.19" x2="608.56" y2="2923.19"/><path class="cls-5" d="m1080.79,2925.04c40.82,378.6-14.07,482.75-14.07,482.75"/><path class="cls-5" d="m872.04,2923.19c-9.41,213.23-370.13,357.69-370.13,357.69"/><path class="cls-5" d="m576.19,4077.94c2.99-447.26,5.59-834.92,5.59-834.92"/><g><path class="cls-13" d="m1187.03,1980.07c-183.79-236.01-475.61-263.55-509.88-108.28-34.27,155.27-182.71-61.09-124.78-93.65,115.93-65.16,400.08-57.45,534.86,2.79,134.78,60.24,99.8,199.14,99.8,199.14Z"/><g><path class="cls-1" d="m793.17,1721.98c-263.22,26.14-53.58,333.08,234,496.05,114.75-241.72-9.09-518.39-234-496.05Z"/><g><g><path class="cls-1" d="m966.57,1473.93l5.26,317.04c-2.63,96.51-271.1,89.49-271.1-10.53v-472.89s242.15-98.91,265.83,166.37Z"/><path class="cls-1" d="m989.73,1061.3c-377.8-76.77-337.57,492.51-87.07,599.98,67.5,28.96,168.53-132.41,200.66-276.24,32.67-146.23,52.8-289.93-113.6-323.74Z"/><path class="cls-5" d="m749.48,1494.24c32.87,74.89,85.3,137.91,153.18,167.03,67.5,28.96,168.53-132.41,200.66-276.24,32.67-146.23,52.8-289.93-113.6-323.74"/><path class="cls-15" d="m947.64,1336.57c-14.59-20.64-38.41,14.73-18.56,27.96,19.85,13.23,24.63-19.37,18.56-27.96Z"/><path class="cls-15" d="m1077.34,1380.69c-14.59-20.64-38.4,14.73-18.56,27.96,19.85,13.23,24.63-19.37,18.56-27.96Z"/><path class="cls-5" d="m1105.16,1333.16c-23.61-27.85-61.75-26.28-61.75-26.28"/><path class="cls-5" d="m961.17,1280.69c-35.16-15.97-74.45,3.53-74.45,3.53"/><path class="cls-5" d="m992.95,1330.12c-4.3,77.77-.52,119.27-.52,119.27,0,0-5.06,16-29.66,14.64"/></g><g><path class="cls-15" d="m1122.08,1274.25c6-128.16-147.16-91.86-170.78-154.97-10.72,70.71-112.55,92.9-133.7,104.71-21.15,11.81-61.99,48.5-59.03,142.58-26.1,4.7-40.76,24.31-58.87,58.13-43.39-44.93-27.67-141.67.72-263.46,28.39-121.79,102.27-194.24,262.97-168.88,160.71,25.36,228.31,190.35,158.69,281.89Z"/><g><path class="cls-1" d="m781.51,1373.73c60.58-53.9-28.71-167.71-70.15-117.94-41.45,49.77,13.48,168.36,70.15,117.94Z"/><line class="cls-5" x1="766.85" y1="1339.58" x2="737.88" y2="1283.7"/><path class="cls-5" d="m794.65,1293.94c-16.79-39.3-58.56-67.84-83.29-38.15-35.49,42.62-.31,135.72,46.12,129.91"/></g></g></g></g><line class="cls-5" x1="933.68" y1="1519.4" x2="958.52" y2="1531.66"/></g><g><path class="cls-13" d="m994.37,1784.79c137.62-30.58,225.4,48.23,281.37,158.69,93.28,184.1,272.51,509.71,286.76,682.8,16.96,205.89-115.71,195.47-256.92,192.38-62.97-845.5-311.21-1033.86-311.21-1033.86Z"/><path class="cls-13" d="m978.52,1770.4c332.93,22.37,357.7,589.5,313.2,836.93-23.91,132.93,12.06,413.57,12.06,413.57l-44.38-56.27c60.69-732.01-280.88-1194.23-280.88-1194.23Z"/><path class="cls-5" d="m1305.58,2206.52c45.24,187.34,58.06,375.43,61.3,437.43"/><path class="cls-5" d="m1020.88,1778.14c103.63,58.08,139.29,147.98,139.29,147.98l-31.5,47.86,57.88,19.83s37.2,235.15,39.29,338.35"/></g><path class="cls-13" d="m454.85,1825.28c71.45-57.51,166.47-83.39,245.89-87.39,0,0-5.09,68.72,16.62,104.25,46.21,75.62,88.88,155.79,95.09,303.08,12.55,297.99-87.16,710.39-125.47,850.06-38.31,139.67-346.84,171.15-346.84,171.15,0,0,155.44-397.1,146.38-620.48-12.44-306.52-126.01-644.73-31.66-720.66Z"/><path class="cls-5" d="m613.85,1765.51c-36.41,87.62,66.3,163.1,56.95,265.63,9.17-2.85,83.22,11.39,83.22,11.39l-70.4,75.48"/><path class="cls-5" d="m1252.32,2607.32c31.29,184.07,7.08,357.3,7.08,357.3"/><path class="cls-13" d="m501.91,1818.67c-145.12-18.33-192.54,354.25-275.94,714.92-83.4,360.67,289.17,438.75,349.26,122.04,71.82-378.55,95.24-815.66-73.32-836.95Z"/><path class="cls-5" d="m523.8,1824.09c144.67,68.58,92.87,335.6,64.26,508.06-28.6,172.47-117.17,663.52-117.17,663.52"/><path class="cls-5" d="m943.61,1115.68c27.8,90.33-77.72,98.06-96.01,136.93"/><line class="cls-5" x1="999.18" y1="3904.34" x2="1013.23" y2="3673.8"/><line class="cls-5" x1="1094.86" y1="3680.84" x2="921.74" y2="3663.95"/><path class="cls-5" d="m1049.82,3676.62s69.95,205.6,136.54,401.32"/><line class="cls-5" x1="1229.63" y1="2781.97" x2="858.41" y2="2780.07"/><path class="cls-13" d="m1083.96,2396.02c315.08,10.2,503.22,165.98,428.4,341.08-42.36,99.12-167.7,95.27-286.52,54.85-91.08-30.98-175.3-24.3-218.4-68.35-99.33-101.53,11.74-329.68,76.53-327.58Z"/><path class="cls-5" d="m1512.36,2737.1c-39.84,93.23-153.1,95.36-265.29,61.65"/><path class="cls-5" d="m1196.08,2406.45c90.63,14.4,166.3,42.29,222.46,79.43"/><path class="cls-3" d="m696.36,2317.97c154.94,55.8,372.05,104.34,411.62,109.49,39.57,5.15-1.01,226.33-78.12,226.33s-315.98-150.69-358.88-196.08c-42.89-45.39,25.38-139.74,25.38-139.74Z"/><path class="cls-5" d="m1103.82,2409.88c50.73,68.19-22.3,243.7-64.93,272.12"/><path class="cls-3" d="m769.17,1697.89c-29.29,210.06-258.87,623.94-258.87,623.94,0,0,102.19,140.49,181.61,133.7,79.41-6.79,208.57-672.03,208.57-672.03l-131.3-85.61Z"/><g><path class="cls-1" d="m795.03,1820.15c49.13,70.95,76.56,40.19,134.46,10.88,57.9-29.31,126.3-82.21,121.27-106.64-5.03-24.46-22.73-15.73-22.73-15.73,0,0,21.98-12.73,14.96-31.42-6.18-16.46-24.16-14.64-24.16-14.64,0,0,20.23-7.78,16.6-24.95-3.96-18.74-22.57-18.75-22.57-18.75,0,0,26.5-.2,26.05-25.24-.45-25.04-80-14.86-120.6-13.27-40.61,1.59-106.69,89.01-106.69,89.01,0,0-21.86-78.69-62.02-96.24-40.16-17.54-46.44-9.03-28.16,23.91,18.28,32.94,43.38,115.08,30.98,153.26-12.39,38.18,42.6,69.82,42.6,69.82Z"/><path class="cls-5" d="m866.49,1861.72c18.07-4.71,37.6-17.84,63-30.7,57.9-29.31,126.3-82.21,121.27-106.64-5.03-24.46-22.73-15.73-22.73-15.73,0,0,21.98-12.73,14.96-31.42-6.18-16.46-24.16-14.64-24.16-14.64,0,0,20.23-7.78,16.6-24.95-3.96-18.74-22.57-18.75-22.57-18.75,0,0,26.5-.2,26.05-25.24-.45-25.04-80-14.86-120.6-13.27-40.61,1.59-106.69,89.01-106.69,89.01,0,0-21.86-78.69-62.02-96.24-40.16-17.54-46.44-9.03-28.16,23.91,18.28,32.94,43.38,115.08,30.98,153.26-2.27,6.99-2.28,13.76-.78,20.16.82,3.52,2.1,6.92,3.71,10.18"/><path class="cls-5" d="m934.45,1633.12c33.24-7.22,80.41-14.58,80.41-14.58"/><path class="cls-5" d="m955.44,1680.72c43.2-6.79,63.38-18.12,63.38-18.12"/><path class="cls-5" d="m964.51,1732.71c44.93-9.58,63.52-24.05,63.52-24.05"/></g><path class="cls-13" d="m565.16,2157.59l242.58,143.27s-209.69,600.12-416.42,550.14c-342.24-82.74,173.84-693.41,173.84-693.41Z"/><path class="cls-5" d="m305.36,2455.53c86.24-163.96,259.8-297.94,259.8-297.94l242.58,143.27s-209.69,600.12-416.42,550.14"/></g><g><g><path class="cls-14" d="m3199.99,4077.94c28.05-555.53,49.39-996.05,49.39-996.05l970.29-3.07c20.97,224.29,45.09,592.69,68.62,999.12,0,0-530.19,0-530.19,0-19.73-186.66-32.34-306.04-32.34-306.04,0,0-11.84,119.69-30.27,306.04h-495.49Z"/><g><path class="cls-1" d="m4037,1766c-106.49-53.24-306.61-74.84-429.62-47.52-123.01,27.32-192.78,98.93-192.78,98.93,0,0,367.2,1070.38,363.52,1064.87-3.67-5.51,258.87-1116.28,258.87-1116.28Z"/><polygon class="cls-15" points="3847.89 1739.35 3708.36 1719.16 3739.57 1885.37 3607.38 2461.83 3738.46 2759.26 3948.87 2370.03 3818.52 1897.25 3847.89 1739.35"/></g><g><path class="cls-14" d="m3401.53,1695.39c-199.27,43.18-388.46,170.81-410.02,486.9-29.62,434.36-125.6,820.94,246.38,786.92,371.98-34.01,163.64-1273.82,163.64-1273.82Z"/><path class="cls-14" d="m4150.15,1769.82c113.07,36.54,263.96,84.87,323.81,411.23,79.39,432.93,143.61,822.17-228.36,788.16-371.98-34.01-95.45-1199.4-95.45-1199.4Z"/><path class="cls-14" d="m4257.54,3548.43s-58.98,11.72-287.89,9.43c-61.16-.61-171.68-61.06-179.39-118.83,0,0-35.86,132.91-140.82,132.91-236.31,0-441.58,4.7-439.72-2.71l23.49-809.96s-30.62-887.21-25.32-940.21c132.51-133.81,379.67-183.7,379.67-183.7-49.89,176.93,189.12,945.18,189.12,945.18,0,0,223.73-793.77,190.2-889.88,0,0,326.86,107.83,336.49,170.38,9.47,61.58-26.28,909.42-26.28,909.42l-19.56,777.98Z"/><path class="cls-9" d="m3209.72,3569.22c-1.85,7.41,203.42,2.71,439.72,2.71,104.96,0,140.82-132.91,140.82-132.91,7.71,57.77,118.22,118.22,179.39,118.83,228.91,2.29,287.89-9.43,287.89-9.43l3.17-125.97"/></g><g><path class="cls-9" d="m4012.95,1706.62c55.09,56.05,58.73,339.15,58.73,339.15l-81.63,26.08,46.95,82.76-325.74,709.61,34.52-153.21-209.94-514.45,46.06-120.18-103.17-28.34s-19.27-321.99,73.53-404.23"/><path class="cls-9" d="m3705.41,2888.45c23.56-106.81,51.02-222.81,58.01-253.1,12.06-52.26,237.01-839.73,203.48-944.71"/></g><path class="cls-9" d="m3601.45,1897.4c50.19,284.89,171.42,670.8,171.42,670.8"/><path class="cls-14" d="m3066.07,2660.09c385.26-89.67,757.24-129.53,757.24-129.53l79.71,288.95s-428.44,187.59-704.1,166.86c-275.66-20.73-132.85-326.28-132.85-326.28Z"/><path class="cls-9" d="m3066.07,2660.09c385.26-89.67,757.24-129.53,757.24-129.53l79.71,288.95s-428.44,187.59-704.1,166.86"/><path class="cls-9" d="m3248.15,1875.29c103.73,192.32,10.62,652.87,10.62,652.87"/><path class="cls-9" d="m3823.4,3641.92c-21.99,0-153.71,10.73-153.71,10.73"/><path class="cls-9" d="m3319.26,3579.08s-10.96,205.21-26.65,498.86"/><path class="cls-9" d="m4156.11,3553.9c5.01,109.91,13.59,297.65,23.94,524.04"/><g><path class="cls-1" d="m3700.62,2515.58c-3.91,0-185.89-4.07-244.42,3.44-89.82,11.53-121.19,72.71-121.19,72.71,0,0,96.05-15.68,335.27,151.84,101.51,71.09,30.33-228,30.33-228Z"/><polygon class="cls-1" points="3781.11 2551.34 3535.84 2503.39 3466.05 2746.92 3735.63 2809.67 3781.11 2551.34"/><g><path class="cls-14" d="m4436.98,2643.51c-385.26-89.67-814.37-140.12-814.37-140.12l-79.71,288.95s485.57,198.18,761.23,177.45c275.66-20.73,132.85-326.28,132.85-326.28Z"/><path class="cls-9" d="m4369.43,2622.09c-385.26-89.67-746.82-118.7-746.82-118.7l-79.71,288.95s485.57,198.18,761.23,177.45"/></g></g><line class="cls-9" x1="3535.84" y1="2503.39" x2="3466.05" y2="2746.92"/><path class="cls-9" d="m3746.54,3538.32s-29.54,307.74-51.8,539.62"/><path class="cls-1" d="m3614.77,1833.76c98.64-138.32,287.61-81.63,361.67-12.47,35.15-163.54-33.92-251.69-243.67-253.96-207.51-2.24-118,266.43-118,266.43Z"/><path class="cls-9" d="m3614.77,1833.76c98.64-138.32,287.61-81.63,361.67-12.47"/><path class="cls-9" d="m4232.58,2209.62c-16.17,124.37-32.44,249.01-48.59,373.25,22.75-16.53,51.98-21.33,79.23-24.98"/><path class="cls-9" d="m4231.46,1799.35c49.17,75.94,31.76,221.23,31.76,221.23"/><line class="cls-9" x1="3772.5" y1="2987.97" x2="3790.26" y2="3439.03"/><line class="cls-9" x1="3632.65" y1="2770.45" x2="3801.68" y2="2829.32"/><path class="cls-9" d="m3266.4,3082.44c151.81,19.27,248.57-3.63,248.57-3.63"/></g><g><g><g><g><path class="cls-1" d="m3614.74,1378.36l21.69,277.46c15.24,49.76,263.1,83.81,270.56-38.74,6.72-110.4,19.15-413.99,19.15-413.99,0,0-271.58-116.55-311.4,175.27Z"/><path class="cls-1" d="m3963.82,982.86c351.29,241.56-221.79,638.33-369.22,536.95-59.37-40.82-55.34-114-46.84-179.05,8.96-68.58,25.23-129.74,71.28-199.57,91.22-138.32,190.07-264.72,344.78-158.33Z"/><path class="cls-5" d="m3817.34,1488.33c-88.35,46.07-176.48,63.29-222.73,31.49-59.37-40.82-55.34-114-46.84-179.05,8.96-68.58,25.23-129.74,71.28-199.57,91.22-138.32,190.07-264.72,344.78-158.33"/><path class="cls-15" d="m3775.35,1216.4c27.62-4.25,17.78,41.87-7.99,36.24-25.77-5.62-3.51-34.47,7.99-36.24Z"/><path class="cls-15" d="m3653.35,1141.77c27.62-4.25,17.78,41.87-7.99,36.24-25.77-5.62-3.51-34.47,7.99-36.24Z"/><path class="cls-5" d="m3659.17,1083.48c41.62,6.89,62.56,22.17,62.56,22.17"/><path class="cls-5" d="m3778.77,1127.78c34.64,22.7,52.31,45.98,61.31,64.42"/><path class="cls-5" d="m3705.35,1229.46c-32.79,32.51-51.72,47.74-51.72,47.74,0,0-8.83,16.31,11.14,34.84"/></g><g><g><path class="cls-5" d="m3740.9,1059.84c60.11-28.17,145.77,48.07,179.54,23.35"/><path class="cls-15" d="m3669.7,1068.46c97.34-103.22,182.4,44.42,250.75,14.73-48.01,62.85,30.72,147.29,30.72,147.29l-35.11,197.24-4.34,85.01c16.27-33.55,120.55-64.84,182.6-136.07,87.17-100.05,121.03-245.79-33.28-338.29-13.64-95.16-201.04-115.35-174.18-190.64-157.88,5.18-204.25,136.82-217.16,220.73Z"/></g><g><path class="cls-1" d="m3861.11,1383.55c-3.66-89.59,155.46-106,147.7-34.79-7.75,71.2-144.28,118.62-147.7,34.79Z"/><line class="cls-5" x1="3899.54" y1="1368.99" x2="3966.25" y2="1349.1"/><path class="cls-5" d="m3914.49,1311.81c44.17-16.83,98.95-5.54,94.32,36.95-6.64,60.98-107.72,104.51-138.77,63.11"/></g></g></g><line class="cls-5" x1="3601.79" y1="1356.87" x2="3627.69" y2="1381.11"/><ellipse class="cls-5" cx="3641.88" cy="1167.85" rx="39.09" ry="74.63"/><ellipse class="cls-5" cx="3760.83" cy="1234.62" rx="39.09" ry="74.63"/><line class="cls-5" x1="3680.35" y1="1154.6" x2="3735.08" y2="1178.49"/><line class="cls-5" x1="3799.92" y1="1219.73" x2="3947.84" y2="1304.56"/><line class="cls-5" x1="3916.05" y1="1427.72" x2="3906.99" y2="1617.08"/></g><path class="cls-5" d="m3626.84,1533.12l9.59,122.7c50.72,64.9,182.83,68.73,237.45,34.83"/></g></g><g><g><path class="cls-2" d="m1553.83,3444.52c11.77,52.9,4.76,109.07,24.19,161.71,30.89,89.71,116.05,160.98,214.6,196.79-2.46-67.16-14.95-135.56-10.69-202.52,2.78-29.08,11.27-53.63,16.13-83.13,10.59-60.7,1.62-129-28.68-185.01-11.87-21.49-23.8-37.83-38.93-56.36-30.88-36.55-63.5-70.9-89.71-110.28-27.2-39.38-50.83-80.68-76.9-120.67-65.52,76.25-86.55,177.99-56.31,269.56,12.76,43.77,39.44,85.3,46.29,129.9Z"/><path class="cls-5" d="m1640.75,3165.72c-27.2-39.38-50.83-80.68-76.9-120.67-65.52,76.25-86.55,177.99-56.31,269.56,12.76,43.77,39.44,85.3,46.29,129.9"/><path class="cls-12" d="m1741.77,3359.69c-7.2,80.99-13.96,163.25.81,244.17,16.32,78.28,55.75,152.49,120.61,209.17,19.62-65.84,39.1-132.43,61.26-197.94,29.3-78.33,54.76-152.45,62.7-237.68,16.56-159.97-30.23-332.7-152.96-454.62-52.17,140.64-76.44,288.94-92.43,436.9Z"/><path class="cls-2" d="m1899.81,3412.43c.5,23.97,1.39,47.96,3.47,71.85,1.85,41.23-6.72,83.55-13.54,125.26-11.83,66.48-23.05,132.94-27.66,199.65,138.67-58.87,255.05-174.11,279.33-309.25,6.78-48.54,5.08-101.28,2.29-149.15-4.19-65.09-8.19-127.85-8.64-192.6-.88-53.73-.55-107.56-4.61-161.19-165.68,90.57-237.33,252.32-230.64,415.42Z"/><path class="cls-3" d="m2143.7,3350.8c-2.45-37.99-4.83-75.18-6.48-112.44-1.18-26.58-1.98-53.2-2.16-80.16-.88-53.73-.55-107.56-4.61-161.19-165.68,90.57-237.33,252.32-230.64,415.42.5,23.97,1.39,47.96,3.47,71.85,1.85,41.23-6.72,83.55-13.54,125.26-11.83,66.48-23.05,132.94-27.66,199.65"/><polygon class="cls-2" points="1964.76 4082.07 1690.21 4082.07 1604.96 3702.87 2050 3702.87 1964.76 4082.07"/><path class="cls-8" d="m2086.23,3110.52c-62.98,278.75-10.5,448.34-131.21,592.35"/><path class="cls-8" d="m2004.11,3180.79c15.64,122.01,51.32,126.65,51.32,126.65"/><path class="cls-8" d="m2124.72,3320.34c-26.24,57-76.78,73.45-76.78,73.45"/><path class="cls-8" d="m1937.52,3428.77c0,82.73,87.57,133.75,87.57,133.75"/><path class="cls-8" d="m2047.94,3638.45c-33.44,35.52-66.64,28.54-66.64,28.54"/><path class="cls-5" d="m1848.3,3030.02c45.49,150.77,39.72,295.62,16.98,385.21-22.74,89.59,0,287.64,0,287.64"/><path class="cls-5" d="m1920.03,3070.42c12.25,80.35-41.66,110.38-41.66,110.38"/><path class="cls-5" d="m1790.57,3199.6c20.99,67.43,87.8,101.72,87.8,101.72"/><path class="cls-5" d="m1899.81,3412.43c-11.27,39.44-41.72,47.21-41.72,47.21"/><path class="cls-5" d="m1757.92,3465.87c25.65,112.7,99.08,131.92,99.08,131.92"/><path class="cls-8" d="m1559.61,3128.99c50.76,209.59,125.98,282.23,139.98,366.65s11.35,194.39,40.66,207.23"/><path class="cls-8" d="m1648.16,3213.77c19.95,63.7-23.87,105.03-23.87,105.03"/><path class="cls-8" d="m1536.89,3301.32c47.24,138.63,149.25,147.91,149.25,147.91"/><path class="cls-8" d="m1596.37,3553.17c14,77.58,125.16,114.37,125.16,114.37"/><line class="cls-8" x1="2029.77" y1="3785.77" x2="1625.14" y2="3785.77"/><line class="cls-8" x1="2025.09" y1="3813.69" x2="1631.82" y2="3813.69"/></g><polyline class="cls-5" points="2050 3702.87 1604.96 3702.87 1664.62 3968.25"/><line class="cls-5" x1="1828.45" y1="3785.77" x2="1625.14" y2="3785.77"/><line class="cls-5" x1="1764.04" y1="3813.69" x2="1924.93" y2="3813.69"/></g><g><path class="cls-12" d="m288.08,294.07l78.12,90.47s106.11-130.93,209.11-102.28c120.24,33.45-40.72,156.46-57.79,255.48-13.4,77.7,11.79,139.41,11.79,139.41l98.56-23.05s-13.7-79.39.24-117.69c36.6-100.57,176.94-191.88,97.56-306.78-79.38-114.9-294.86-86.35-437.59,64.43Z"/><path class="cls-12" d="m590.2,726.47c92.82-57.2,171.28,64.7,79.55,118.39-91.72,53.69-164.8-65.86-79.55-118.39Z"/></g><g><path class="cls-7" d="m5,649.82l91.82,37.59s29.31-136.78,116.31-154.3c101.56-20.44,28.68,131.09,53.27,210.79,19.29,62.53,61.13,98.74,61.13,98.74l64.27-54.1s-39.98-53.61-44.07-87.19c-10.72-88.19,58.81-208.51-43.12-263.71-101.93-55.2-250.67,46.93-299.62,212.18Z"/><path class="cls-7" d="m391.12,856.26c47.19-77.22,151.08-16.5,103.38,57.71-47.7,74.21-146.72,13.21-103.38-57.71Z"/></g><g><path class="cls-7" d="m820.27,240.99l16.83,102.2s137.64-48.8,200.82,18.96c73.75,79.1-100.85,97.24-158.24,162.71-45.04,51.37-54.32,108.38-54.32,108.38l83.27,27.53s25.77-64.88,53.39-86.88c72.53-57.79,217.55-61.82,210.84-182.64-6.71-120.82-178.9-197.16-352.59-150.25Z"/><path class="cls-7" d="m848.05,697.22c94.47-.31,97.35,125.27,5.27,123.48-92.08-1.79-92.03-123.2-5.27-123.48Z"/></g><g><path class="cls-12" d="m3995.75,163.58l12.62,118.87s161.82-47.09,230.12,35.17c79.73,96.03-122.64,105.34-193.11,176.97-55.3,56.2-69.78,121.27-69.78,121.27l94.12,37.24s34-73.04,67.28-96.56c87.4-61.77,254.75-56.8,255.03-196.45s-193.04-239.03-396.27-196.5Z"/><path class="cls-12" d="m3997.5,691.07c108.87,5.91,103.85,150.79-2.12,142.62-105.97-8.17-97.86-148.05,2.12-142.62Z"/></g><g><path class="cls-7" d="m3545.57,245.3l59.37,91.47s112.16-105.16,201.7-66.47c104.52,45.17-56.23,136.35-83.96,223.72-21.76,68.56-6.66,127.47-6.66,127.47l91.94-8.59s-2.52-73.46,14.83-106.34c45.57-86.35,183.74-151.45,126.27-265.15-57.47-113.71-255.77-114.67-403.5,3.89Z"/><path class="cls-7" d="m3764.91,673.62c90.99-40.17,146.77,79.75,57.2,116.88-89.57,37.14-140.77-79.99-57.2-116.88Z"/></g><g><path class="cls-7" d="m4383.73,528.69l-37.35,78.66s118.46,32.25,129.63,109.34c13.04,89.99-116.26,18.84-187.29,36.56-55.73,13.9-89.47,48.83-89.47,48.83l44.33,58.92s48.9-32.46,78.52-34.43c77.8-5.16,179.91,61.55,233.17-25.12,53.27-86.68-29.09-221.93-171.55-272.76Z"/><path class="cls-7" d="m4184.28,857.15c65.41,45.06,7.21,133.19-55.54,87.82-62.75-45.36-4.53-129.21,55.54-87.82Z"/></g><line class="cls-8" x1="198.4" y1="943.21" x2="340.13" y2="1018"/><line class="cls-8" x1="113.49" y1="187.67" x2="213.01" y2="286.4"/><line class="cls-8" x1="732.07" y1="493.75" x2="737.88" y2="585.98"/><line class="cls-8" x1="1330.6" y1="464.13" x2="1244.43" y2="539.87"/><line class="cls-8" x1="872.04" y1="101.54" x2="871.75" y2="187.67"/><line class="cls-8" x1="88.81" y1="325.9" x2="163.25" y2="365.4"/><line class="cls-8" x1="5" y1="1020.43" x2="126.03" y2="1047.91"/><line class="cls-8" x1="450.12" y1="101.54" x2="421.78" y2="5"/><line class="cls-8" x1="545.94" y1="901.8" x2="581.78" y2="952.55"/><line class="cls-8" x1="88.81" y1="784.98" x2="163.25" y2="834.02"/><line class="cls-8" x1="340.13" y1="1239.63" x2="240.35" y2="1258.52"/><line class="cls-8" x1="1105.16" y1="913.28" x2="1149.34" y2="858.42"/><line class="cls-8" x1="1493.98" y1="539.87" x2="1586.47" y2="464.13"/><line class="cls-8" x1="1191.11" y1="237.03" x2="1244.43" y2="159.18"/><line class="cls-8" x1="3390.68" y1="443.89" x2="3436.02" y2="502"/><line class="cls-8" x1="3361.97" y1="144.6" x2="3400.79" y2="227"/><line class="cls-8" x1="3935.07" y1="53.27" x2="3935.07" y2="144.6"/><line class="cls-8" x1="4260.7" y1="585.98" x2="4184" y2="677.15"/><line class="cls-8" x1="3873.88" y1="539.87" x2="3873.88" y2="631.57"/><line class="cls-8" x1="3049.34" y1="422.57" x2="3159.61" y2="493.75"/><line class="cls-8" x1="4392.02" y1="98.94" x2="4359.22" y2="187.67"/><line class="cls-8" x1="4571.6" y1="443.89" x2="4507.33" y2="493.75"/><line class="cls-8" x1="4304.97" y1="1018" x2="4213.02" y2="1027.34"/><line class="cls-8" x1="4392.02" y1="885.85" x2="4304.97" y2="913.28"/><line class="cls-8" x1="4473.96" y1="1178.49" x2="4385.43" y2="1159.99"/><line class="cls-8" x1="3680.97" y1="365.4" x2="3707.71" y2="418.17"/><line class="cls-8" x1="3104.48" y1="237.03" x2="3184.7" y2="325.9"/><line class="cls-8" x1="4266.21" y1="1274.4" x2="4359.22" y2="1324.14"/><line class="cls-5" x1="251.25" y1="4077.94" x2="4359.22" y2="4077.94"/></g></svg>