<?xml version="1.0" encoding="UTF-8"?><svg id="Layer_2" xmlns="http://www.w3.org/2000/svg" viewBox="0 0 4542.33 4117.36"><defs><style>.cls-1,.cls-2,.cls-3{fill:#fff;}.cls-4,.cls-5,.cls-6,.cls-7,.cls-2,.cls-3,.cls-8,.cls-9{stroke-linecap:round;stroke-linejoin:round;stroke-width:10px;}.cls-4,.cls-5,.cls-7{fill:none;}.cls-4,.cls-6,.cls-3,.cls-8{stroke:#2e2e2e;}.cls-5,.cls-9{stroke:#fff;}.cls-10,.cls-6,.cls-9{fill:#c1c7d7;}.cls-11{fill:#9fbfd5;}.cls-7,.cls-2{stroke:#c1c7d7;}.cls-12,.cls-8{fill:#203058;}.cls-13{fill:#2e2e2e;}</style></defs><g id="Layer_1-2"><path class="cls-10" d="m3171.14,4112.36c182.01-84.75,347.44-202.22,488.29-351.47,681.65-722.32,1440.65-1968.14,205.5-3028.04C2899.29-95.77,1118.23-193.85,436.58,528.47-245.06,1250.79-130.63,2714.57,794.78,3587.88c250.72,236.6,525.82,410.72,807.24,524.48h1569.11Z"/><g><path class="cls-5" d="m3198.13,6.24c-81.24,1464.9-227.9,2249.23-375.28,2971.07-74.92,366.96,67.88,874.86,245.88,1135.05"/><path class="cls-5" d="m2904.2,9.35c104.18,1005.2,75.84,1958.65-133.1,2632.52-137.23,442.57-301.37,1051.82-510.81,1470.49"/><path class="cls-5" d="m4209.34,9.35c104.18,1005.2,234.15,1958.65,25.2,2632.52-137.23,442.57-459.68,1051.82-669.12,1470.49"/><path class="cls-5" d="m2728.01,9.35c-526.72,1154.96-672.51,3410-738.61,3813.47-16.87,102.94-53.52,200.83-98.77,289.54"/><path class="cls-5" d="m1978.97,9.35c354.81,1285.5-807.9,3143.38-557.07,4103"/><path class="cls-5" d="m4264.66,9.35c-649.03,1579.24-755.3,2382.66-419.77,4103.01"/><path class="cls-5" d="m2468.53,9.35C983.96,1937.65,891.06,3045.5,1421.9,4112.35"/></g><g><rect class="cls-1" x="491.02" y="3504.93" width="573.17" height="99.14"/><line class="cls-4" x1="470.27" y1="3504.93" x2="1091.31" y2="3504.93"/><line class="cls-4" x1="508.73" y1="3529.35" x2="1129.77" y2="3529.35"/><line class="cls-4" x1="488.79" y1="3556.39" x2="1109.83" y2="3556.39"/><line class="cls-4" x1="529.47" y1="3580.23" x2="1150.51" y2="3580.23"/><g><path class="cls-10" d="m542.48,4112.35c32.57-163.32,54.69-274.26,54.69-274.26h-144.63s-15.05,110.94-37.21,274.26h127.15Z"/><g><path class="cls-10" d="m2667.98,3657.76H344.27v-53.69h2323.71v53.69Z"/><path class="cls-10" d="m2667.98,3926.15H416.81v-268.4h2251.17v268.4Z"/><path class="cls-4" d="m371.55,3604.07h2296.43"/><path class="cls-4" d="m372.98,3657.76h2295"/></g><path class="cls-4" d="m382.96,3926.15h2637.33"/><path class="cls-4" d="m440.59,3926.15s-9.87,72.73-25.26,186.2"/></g></g><path class="cls-9" d="m589.15,1215.27c242.18,37.73,438.34,87.52,567.85,145.09v-745.99c-129.51-57.57-325.68-107.36-567.85-145.09v745.99Z"/><path class="cls-9" d="m565.61,1146.51c-167.55,16.3-322.12,37.37-459.63,62.38v552.58c137.51-25.01,292.08-46.08,459.63-62.38v-552.58Z"/><path class="cls-5" d="m1159.47,66.18c-96.58,660.84-305.58,811.88-486.22,1274.67-121.18,310.46,19.6,823.8,19.6,823.8"/><path class="cls-5" d="m343.36,121.18C36.08,743.15,633.11,1369.7,747.42,1677.15c114.31,307.45-50.05,583.49-50.05,583.49"/><path class="cls-5" d="m804.44,5c-247.19,633.31-9.56,1019.51,16.93,1344.72,32.19,395.28-245.01,833.75-245.01,833.75"/><path class="cls-5" d="m375.36,323.88c247.19,633.31,9.56,1019.51-16.93,1344.72-32.19,395.28,245.01,833.75,245.01,833.75"/><g><path class="cls-3" d="m480.75,688.52c172.66-30.95,371.73-55.74,589.25-72.73l.02-538.8c-217.53,16.99-416.6,41.79-589.27,72.73v538.8Z"/><g><path class="cls-3" d="m594.95,543.89c118.75-18.28,247.85-33.84,385.14-46.23v-255.59c-137.29,12.39-266.39,27.95-385.14,46.23v255.59Z"/><path class="cls-4" d="m980.09,330.05c-137.29,12.39-266.39,27.95-385.14,46.23"/><path class="cls-4" d="m980.09,174.74c-100.06,9.03-195.76,19.74-286.28,31.97"/><path class="cls-4" d="m811.63,574.42c-75.43,8.69-147.8,18.38-216.68,28.98"/><path class="cls-4" d="m980.09,389.31c-137.29,12.39-266.39,27.95-385.14,46.23"/><path class="cls-4" d="m980.09,445.88c-137.29,12.39-266.39,27.95-385.14,46.23"/><line class="cls-4" x1="863.98" y1="253.51" x2="863.98" y2="511.35"/><line class="cls-4" x1="734.72" y1="361.3" x2="734.72" y2="416.69"/><line class="cls-4" x1="734.72" y1="480.13" x2="734.72" y2="521.91"/></g></g><g><path class="cls-3" d="m896.9,1671.35c-146.08-6.58-283.55-17.95-408.4-33.27v-470.89c124.85,15.32,262.31,26.68,408.4,33.27v470.89Z"/><g><path class="cls-3" d="m540.76,1476.54v106.17c17.87,1.98,35.96,3.88,54.29,5.7v-106.18c-18.32-1.82-36.42-3.72-54.29-5.7Z"/><path class="cls-3" d="m618.97,1336.01v254.72c17.9,1.69,35.99,3.31,54.29,4.84v-254.72c-18.29-1.54-36.39-3.15-54.29-4.84Z"/><path class="cls-3" d="m697.18,1405.59v191.93c17.92,1.42,36.02,2.77,54.29,4.04v-191.93c-18.27-1.27-36.37-2.62-54.29-4.04Z"/><path class="cls-3" d="m775.39,1603.19c17.94,1.17,36.04,2.27,54.29,3.3v-352.76c-18.25-1.02-36.35-2.12-54.29-3.3v352.76Z"/></g></g><g><path class="cls-3" d="m567.9,1972.33c-122.37-11.9-235.27-27.29-335.7-45.56v-403.59c100.43,18.26,213.33,33.66,335.7,45.56v403.59Z"/><g><path class="cls-3" d="m292.54,1606.84v2.23c63.33,10.28,130.94,19.47,202.2,27.44v-2.24"/><path class="cls-3" d="m292.54,1652.39v2.23c63.33,10.28,130.94,19.47,202.2,27.44v-2.24"/><path class="cls-3" d="m292.54,1697.95v2.23c63.33,10.28,130.94,19.47,202.2,27.44v-2.24"/><path class="cls-3" d="m292.54,1743.51v2.23c63.33,10.28,130.94,19.47,202.2,27.44v-2.24"/><path class="cls-3" d="m292.54,1789.07v2.23c63.33,10.28,130.94,19.47,202.2,27.44v-2.24"/><path class="cls-3" d="m292.54,1834.63v2.23c28.08,4.56,57,8.9,86.72,13.02h25.68"/></g></g><g><path class="cls-3" d="m639.36,1227.25c-140.58,18.47-294.84,32.84-458.91,42.32v-698.78c164.06-9.48,318.32-23.85,458.91-42.32v698.78Z"/><g><g><path class="cls-3" d="m492.14,684.06c0-11.7-10.13-20.84-21.81-19.66-11.18,1.12-22.42,2.22-33.74,3.29-14.63,1.38-29.37,2.72-44.23,4.01-10.24.89-20.53,1.76-30.87,2.61-10.29.85-18.21,9.41-18.21,19.7v87.62c0,11.56,9.91,20.66,21.47,19.7,9.25-.76,18.45-1.55,27.61-2.34,14.85-1.29,29.6-2.63,44.23-4.01,12.66-1.2,25.23-2.43,37.72-3.69,10.13-1.02,17.84-9.52,17.84-19.67v-87.55Z"/><path class="cls-3" d="m458.36,1125.95c37.14-3.65,73.52-7.58,109.06-11.78,9.98-1.18,17.49-9.61,17.49-19.63v-58.34c0-11.84-10.36-21.01-22.16-19.63-35.29,4.14-71.4,8.01-108.26,11.61-10.15.99-17.9,9.5-17.9,19.67v58.43c0,11.68,10.11,20.82,21.77,19.68Z"/><path class="cls-3" d="m458.36,974.46c37.14-3.65,73.52-7.58,109.06-11.78,9.98-1.18,17.49-9.61,17.49-19.63v-68.19c0-11.84-10.36-21.01-22.16-19.63-35.29,4.14-71.4,8.01-108.26,11.61-10.15.99-17.9,9.5-17.9,19.67v68.27c0,11.68,10.11,20.82,21.77,19.68Z"/><path class="cls-3" d="m370.88,874.4c-35.51,2.97-71.64,5.69-108.34,8.15-10.41.7-18.5,9.32-18.5,19.72v68.37c0,11.44,9.73,20.5,21.18,19.73,36.92-2.49,73.26-5.24,108.97-8.25,10.27-.86,18.17-9.42,18.17-19.7v-68.32c0-11.57-9.91-20.66-21.48-19.69Z"/><path class="cls-3" d="m370.88,1035.74c-35.51,2.97-71.64,5.69-108.34,8.15-10.41.7-18.5,9.32-18.5,19.72v58.53c0,11.44,9.73,20.5,21.18,19.73,36.92-2.49,73.26-5.24,108.97-8.25,10.27-.86,18.17-9.42,18.17-19.7v-58.48c0-11.57-9.91-20.66-21.48-19.69Z"/></g><path class="cls-3" d="m436.58,794.97v12.19c0,16.15,13.83,28.85,29.98,27.53l14.21-1.16c16.14-1.32,29.98,11.39,29.98,27.53h0"/><path class="cls-3" d="m404.81,797.89v16.08c0,14.33-10.99,26.28-25.31,27.52l-36,3.13c-14.32,1.24-25.31,13.19-25.31,27.52v2.19"/><line class="cls-3" x1="318.2" y1="986.59" x2="318.2" y2="1039.93"/><line class="cls-3" x1="510.75" y1="969.07" x2="510.75" y2="1022.41"/></g></g><g><path class="cls-12" d="m1383.18,1461.91c-196.54-28.93-459.97,709.41-459.97,709.41l-501.48,227.6s162.71,266.14,176.76,272.14c14.05,6,624.43-190.64,686.13-327.65,61.7-137.01,384.87-839.35,98.56-881.5Z"/><g><g><polygon class="cls-11" points="1913.16 2482.2 2020.07 2923.48 1132.01 3131.17 1198.68 2430.57 1913.16 2482.2"/><g><g><g><path class="cls-1" d="m1514.53,1107l-2.56,344.07c3.81,104.69,295.06,94.41,294.06-14.12-.99-108.53-4.7-513.13-4.7-513.13,0,0-263.73-104.92-286.8,183.17Z"/><path class="cls-1" d="m1718.35,657.47c397.06,131.76-29.23,641.37-201.39,606.91-101.03-20.23-127.77-210.8-80.35-363.53,48.21-155.28,106.87-301.41,281.74-243.38Z"/><path class="cls-4" d="m1712.01,1172.86c-68.46,63.02-143.25,101.89-195.05,91.52-87.34-17.49-119.17-162.3-95.54-299.9"/><path class="cls-13" d="m1608.71,941.09c12.55-24.39,43.5,10.01,24.18,27.23-19.32,17.22-29.4-17.08-24.18-27.23Z"/><path class="cls-13" d="m1458.26,899.38c10.08-25.51,44.27,5.68,26.74,24.72-17.53,19.04-30.94-14.1-26.74-24.72Z"/><path class="cls-4" d="m1464.5,818.46c41.62-15.18,73.7,10.52,73.7,10.52"/><path class="cls-4" d="m1625.85,859.22c46.49,0,80.65,30.94,80.65,30.94"/><path class="cls-4" d="m1570.27,907.04c-37.94,75.52-63.92,112.55-63.92,112.55,0,0-3.87,17.79,20.01,29.79"/></g><g><path class="cls-13" d="m1464.5,818.46c36.85-147.56,155-124.7,271.83-34.88-28.09,72.35,43.07,165.81,43.07,165.81,0,0,13.14,138.98,24.21,223.46,42.07-40.21,96-86.77,135.04-170.85,54.84-118.11,57.18-273.7-113.52-318.76-51.16-128.96-262.14-97.44-301.72-69.07-86.35,61.88-90.61,124.5-58.91,204.29Z"/><g><path class="cls-1" d="m1730.96,1063.18c-27.91-83.44,117.58-142.35,129.72-73.12,12.14,69.23-103.6,151.19-129.72,73.12Z"/><line class="cls-4" x1="1763.19" y1="1038.96" x2="1820.64" y2="1002"/><path class="cls-4" d="m1761.68,980.99c37.03-27.92,91.75-32.24,98.99,9.07,10.39,59.29-72.99,127.91-113.56,97.37"/></g></g></g><path class="cls-10" d="m1489.87,4112.36c130.78-428.21,355.37-1163.61,355.37-1163.61l-586.62-259.06c-122.57,485.67-221.07,977.34-298.48,1422.68h529.72Z"/><path class="cls-10" d="m1561.07,4112.36c-20.7-330.19-57.65-702-57.65-702,0,0-74.58-427.69-60.76-559.27,13.82-131.57,654.25,0,654.25,0,37.3,349.43,38.38,807.38,23.92,1261.27h-559.77Z"/><line class="cls-4" x1="1597.75" y1="3392" x2="1388.23" y2="3425.89"/><path class="cls-4" d="m1503.42,3410.35s36.19,464.61,54.69,702"/><line class="cls-4" x1="1428.89" y1="3722.26" x2="1495.68" y2="3410.35"/><path class="cls-4" d="m1415.3,2780.87c-20.99,459.63,80.37,544.24,80.37,544.24"/><path class="cls-1" d="m1962.29,2784.85c-55.47-260.45-138.01-692.38-111.32-844.64,39.22-223.75,93.6-497.33,93.6-497.33l-111.13-131.65c-226.09-16.1-274.21-18.24-363.15,111.03,0,0-177.2,225.89-205.72,278.48-27.9,51.43-83.8,978.86-81.43,1084.11h779.15Z"/><path class="cls-12" d="m2315.51,1711.88c2.72,39.66-237.22,713.28-279.12,791.72,78.36,281.25,112.67,880.79,112.67,880.79,0,0-376.53-460.92-414.87-810.37-38.33-349.45-35.54-597.51-27.63-727.42,15.67-257.44,161.95-428.9,126.88-535.37,0,0,468.03,196.03,482.07,400.64Z"/><path class="cls-4" d="m2149.06,3384.4s-376.53-460.92-414.87-810.37c-38.33-349.45-35.54-597.51-27.63-727.42,15.67-257.44,161.95-428.9,126.88-535.37"/><path class="cls-12" d="m1517.99,1362.62c-188.68,288.98-291.41,430.82-294.03,1063.62-2.72,658.68-136.48,933.96-136.48,933.96,0,0,53.45-540.96,41.77-758.97-10.46-195.33-37.44-731.03,89.54-1002.45,62.98-134.62,299.2-236.17,299.2-236.17Z"/><path class="cls-4" d="m1419.24,1514.76c-127.43,208.63-193.13,393.04-195.28,911.48-2.72,658.68-136.48,933.96-136.48,933.96"/><path class="cls-4" d="m1917.08,1381.12v366.54l-122.52,24.1,87.77,76.34s-96.29,248.18-139.52,443.37"/><path class="cls-4" d="m1426.97,1435.43c-144.59,109-184.82,231.48-184.82,231.48l43.85,66.18-67.21,50.61s-1.97,459.37,5.83,578.11"/></g><line class="cls-4" x1="1785.21" y1="2784.74" x2="1208.32" y2="2780.87"/><line class="cls-4" x1="1804.34" y1="2843.03" x2="1660.39" y2="2853.02"/></g><path class="cls-4" d="m1148.77,1848.55c-44.8,294.29-23.59,671.14-23.59,671.14"/><path class="cls-4" d="m1584.52,1115.26c-46.32,25.33-104.19,11.32-104.19,11.32"/><ellipse class="cls-4" cx="1629.16" cy="949.39" rx="48.62" ry="68.35" transform="translate(-208.08 525.07) rotate(-17.23)"/><ellipse class="cls-4" cx="1481.35" cy="899.02" rx="48.62" ry="68.35" transform="translate(-199.8 479.04) rotate(-17.23)"/><line class="cls-4" x1="1794.48" y1="963.9" x2="1678.19" y2="945.35"/><line class="cls-4" x1="1584.52" y1="907.04" x2="1533.93" y2="887.2"/><line class="cls-4" x1="1516.97" y1="1264.38" x2="1516.97" y2="1333.74"/></g><g><path class="cls-13" d="m1690.96,1442.59l-100.09,104.4s-144.48,553.15-20.6,1221.5l-129.32,152-118.18-179.22c-47.93-684.53,199.08-1197.73,199.08-1197.73l-26.75-115.62s58.67-28.53,105.26-22.89c46.59,5.64,90.59,37.56,90.59,37.56Z"/><path class="cls-1" d="m1718.35,1538.34c-41.08-95.23-115.69-127.4-148.08-118.82s-68.55,10.72-96.57,72.91c-21.59-83.63,43.26-158.69,43.26-158.69-25.21,53.61,203.2,152.26,289.07-69.36,0,0,14.61,49.18-14.12,161.57-28.73,112.39-73.57,112.39-73.57,112.39Z"/></g><path class="cls-4" d="m1718.35,1538.34c-41.08-95.23-114.61-120.39-148.08-118.82-32.07,1.51-68.55,10.72-96.57,72.91-21.59-83.63,43.26-158.69,43.26-158.69,6.27,56.57,203.2,152.26,289.07-69.36"/><g><path class="cls-1" d="m1102.88,2468.64c44.54-9.25,128.11-10.3,187.21-9.93l451.53,2.81,20.73,228.4-397.07-86.63c-67.49,36.11-116.28,31.64-172.67-.26l-5.83,55.09c-.95,8.94-5.66,16.57-12.39,21.47-5.91,4.31-13.36,6.52-21.21,5.69-16.78-1.78-28.94-16.82-27.16-33.59,0,0,4.74-44.75,9.23-87.25-.44-.33-.88-.65-1.31-.98l-75.9,109.41c-4.66,6.71-11.52,10.98-18.92,12.5-7.9,1.63-16.43.14-23.59-4.82-13.86-9.62-17.3-28.65-7.69-42.51l74.99-108.09s-25.55-51.83,20.05-61.31Z"/><path class="cls-1" d="m1121.22,2512.75c-7.82,8.5-12.36,13.44-12.36,13.44,0-.26,0-.4,0-.4l-155.41,79.1c-7.98,4.13-16.95,4.39-24.75,1.47-6.85-2.56-12.8-7.57-16.42-14.58-7.75-14.99-1.88-33.42,13.11-41.16,0,0,113.05-56.66,162.09-77.42s33.75,39.55,33.75,39.55Z"/><path class="cls-4" d="m1077.89,2537.92l-124.46,66.98c-7.98,4.13-16.95,4.39-24.75,1.47-6.85-2.56-12.8-7.57-16.42-14.58-7.75-14.99-1.88-33.42,13.11-41.16"/><path class="cls-4" d="m1762.34,2689.91l-397.07-86.63c-67.49,36.11-116.28,31.64-172.67-.26l-5.83,55.09c-.95,8.94-5.66,16.57-12.39,21.47-5.91,4.31-13.36,6.52-21.21,5.69-16.78-1.78-28.94-16.82-27.16-33.59,0,0,4.74-44.75,9.23-87.25-.44-.33-.88-.65-1.31-.98l-75.9,109.41c-4.66,6.71-11.52,10.98-18.92,12.5-7.9,1.63-16.43.14-23.59-4.82-13.86-9.62-17.3-28.65-7.69-42.51l74.99-108.09"/><line class="cls-4" x1="1077.61" y1="2644.64" x2="1147.32" y2="2544.16"/><line class="cls-4" x1="1007.84" y1="2638.03" x2="1091.38" y2="2518.65"/></g><polyline class="cls-4" points="1016.43 2221.21 923.21 2171.31 960.77 2248.58"/><g><path class="cls-1" d="m1383.18,2710.19h-811.67c-45.28,0-90.25-7.52-133.07-22.25l-10.91-3.76c-9.14-3.15-6.88-16.67,2.79-16.67h1085.78c9.65,0,11.93,13.47,2.83,16.65l-16.61,5.81c-38.29,13.38-78.56,20.22-119.13,20.22Z"/><line class="cls-4" x1="813.9" y1="2710.19" x2="571.51" y2="2710.19"/><path class="cls-4" d="m438.43,2687.94l-10.91-3.76c-9.14-3.15-6.88-16.67,2.79-16.67h1085.78"/><path class="cls-1" d="m885.03,2667.52h-491.98c-26.52,0-47.73-12.57-57.25-33.93l-265.63-579.44c-8.39-18.81,12.96-45.64,36.32-45.64h491.98c26.52,0,47.73,12.57,57.25,33.93l265.63,579.44c8.39,18.81-12.96,45.64-36.32,45.64Z"/><path class="cls-4" d="m598.47,2008.5c26.52,0,47.73,12.57,57.25,33.93l265.63,579.44c8.39,18.81-12.96,45.64-36.32,45.64h-491.98c-26.52,0-47.73-12.57-57.25-33.93"/><g><g><path class="cls-1" d="m277.43,2520.73c0-16.37,13.24-29.65,29.61-29.7l57-.34c7.94-.02,15.16,3.07,20.5,8.13,5.05,4.77,8.42,11.3,9.14,18.61,1.77,17.8-13.91,32.63-31.79,32.68l-54.67.33c-16.44.05-29.8-13.26-29.8-29.7h0Z"/><path class="cls-4" d="m307.04,2491.02l57-.34c7.94-.02,15.16,3.07,20.5,8.13,5.05,4.77,8.42,11.3,9.14,18.61,1.77,17.8-13.91,32.63-31.79,32.68l-54.67.33"/></g><g><path class="cls-1" d="m166.84,2380.42c-8.94-13.71-5.11-32.07,8.57-41.06l56.49-37.26c6.64-4.36,14.37-5.71,21.61-4.4,6.83,1.24,13.23,4.86,17.83,10.59,11.2,13.94,6.18,34.93-8.77,44.75l-54.54,35.98c-13.74,9.03-32.2,5.17-41.19-8.6h0Z"/><path class="cls-4" d="m253.52,2297.7c6.83,1.24,13.23,4.86,17.83,10.59,11.2,13.94,6.18,34.93-8.77,44.75l-54.54,35.98c-13.74,9.03-32.2,5.17-41.19-8.6h0c-8.94-13.71-5.11-32.07,8.57-41.06"/></g><g><path class="cls-1" d="m204.51,2423.94c0-16.37,13.24-29.65,29.61-29.7l109.54-.34c7.94-.02,15.16,3.07,20.5,8.13,5.05,4.77,8.42,11.3,9.14,18.61,1.77,17.8-13.91,32.63-31.79,32.68l-107.21.33c-16.44.05-29.8-13.26-29.8-29.7h0Z"/><line class="cls-4" x1="343.66" y1="2393.9" x2="227.33" y2="2395.07"/></g><path class="cls-1" d="m219.72,2472.98c0-16.37,13.24-29.65,29.61-29.7l130.79-.34c7.94-.02,15.16,3.07,20.5,8.13,5.05,4.77,8.42,11.3,9.14,18.61,1.77,17.8-13.91,32.63-31.79,32.68l-128.46.33c-16.44.05-29.8-13.26-29.8-29.7h0Z"/><path class="cls-3" d="m219.72,2472.98h0c0-16.37,13.24-29.65,29.61-29.7l130.79-.34c7.94-.02,15.16,3.07,20.5,8.13,5.05,4.77,8.42,11.3,9.14,18.61,1.77,17.8-13.91,32.63-31.79,32.68h-79.55"/></g></g><polygon class="cls-1" points="1503.78 2444.53 1343.71 2444.53 1343.71 2651.09 1553.41 2667.52 1503.78 2444.53"/><path class="cls-12" d="m2320.15,1750.88c16.16,393.55-114.44,922.56-190.69,959.31-76.25,36.75-683.06,14.08-683.06,14.08,0,0-46.81-295.94-32.52-293.71,14.29,2.23,447.68-34.39,447.68-34.39,0,0,80.78-491.27,110.31-708.26,29.53-216.99,338.68-170.94,348.28,62.95Z"/><polyline class="cls-4" points="2081.59 2724.27 1446.4 2724.27 1413.88 2430.57 1861.56 2396.18 1893.51 2199.23"/><path class="cls-4" d="m2075.88,1618.35c-104.78,39.2-159.52,281.1-187.35,484.87"/><line class="cls-4" x1="1343.71" y1="2444.53" x2="1343.71" y2="2657.75"/></g><g><g><path class="cls-2" d="m2949.19,3463.95c-11.97,53.8-4.84,110.93-24.61,164.47-31.42,91.24-118.03,163.72-218.25,200.14,2.51-68.3,15.21-137.87,10.87-205.97-2.83-29.57-11.46-54.54-16.41-84.55-10.77-61.73-1.65-131.2,29.17-188.16,12.07-21.85,24.2-38.48,39.59-57.32,31.41-37.17,64.58-72.11,91.24-112.16,27.66-40.05,51.7-82.05,78.21-122.72,66.64,77.55,88.02,181.02,57.27,274.15-12.98,44.52-40.12,86.75-47.08,132.11Z"/><path class="cls-8" d="m2758.05,3377.68c7.32,82.37,14.2,166.03-.83,248.32-16.6,79.61-56.7,155.09-122.67,212.73-19.95-66.96-39.77-134.69-62.31-201.31-29.79-79.66-55.69-155.05-63.77-241.72-16.84-162.69,30.75-338.37,155.56-462.36,53.06,143.03,77.74,293.86,94.01,444.34Z"/><path class="cls-2" d="m2597.31,3431.32c-.5,24.37-1.42,48.77-3.53,73.07-1.89,41.93,6.83,84.97,13.77,127.4,12.03,67.62,23.44,135.2,28.13,203.05-141.03-59.88-259.39-177.07-284.09-314.52-6.89-49.36-5.16-103.01-2.33-151.69,4.27-66.2,8.33-130.03,8.79-195.88.9-54.64.56-109.39,4.69-163.93,168.5,92.11,241.37,256.62,234.57,422.49Z"/><path class="cls-3" d="m2349.26,3368.64c2.49-38.64,4.91-76.46,6.59-114.36,1.2-27.04,2.01-54.1,2.2-81.52.9-54.64.56-109.39,4.69-163.93,168.5,92.11,241.37,256.62,234.57,422.49-.5,24.37-1.42,48.77-3.53,73.07-1.89,41.93,6.83,84.97,13.77,127.4,12.03,67.62,23.44,135.2,28.13,203.05"/><polygon class="cls-2" points="2531.26 4112.36 2810.48 4112.36 2897.18 3726.7 2444.56 3726.7 2531.26 4112.36"/><path class="cls-7" d="m2407.72,3124.26c64.05,283.49,10.68,455.98,133.45,602.44"/><path class="cls-7" d="m2491.23,3195.74c-15.9,124.09-52.19,128.81-52.19,128.81"/><path class="cls-7" d="m2368.57,3337.65c26.69,57.97,78.08,74.7,78.08,74.7"/><path class="cls-7" d="m2558.96,3447.93c0,84.14-89.06,136.03-89.06,136.03"/><path class="cls-7" d="m2446.65,3661.18c34.01,36.13,67.77,29.02,67.77,29.02"/><path class="cls-4" d="m2649.7,3042.4c-46.26,153.34-40.4,300.65-17.27,391.77,23.13,91.11,0,292.54,0,292.54"/><path class="cls-4" d="m2576.75,3083.48c-12.45,81.71,42.37,112.26,42.37,112.26"/><path class="cls-4" d="m2708.42,3214.86c-21.35,68.58-89.3,103.45-89.3,103.45"/><path class="cls-4" d="m2597.31,3431.32c11.47,40.11,42.43,48.01,42.43,48.01"/><path class="cls-4" d="m2741.62,3485.66c-26.09,114.62-100.77,134.17-100.77,134.17"/><path class="cls-7" d="m2943.3,3143.05c-51.62,213.16-128.13,287.04-142.36,372.9-14.23,85.86-11.54,197.7-41.36,210.76"/><path class="cls-7" d="m2853.25,3229.27c-20.28,64.79,24.27,106.82,24.27,106.82"/><path class="cls-7" d="m2966.41,3318.31c-48.04,140.99-151.8,150.43-151.8,150.43"/><path class="cls-7" d="m2905.92,3574.45c-14.23,78.9-127.3,116.32-127.3,116.32"/><line class="cls-7" x1="2465.14" y1="3811.01" x2="2876.66" y2="3811.01"/><line class="cls-7" x1="2469.9" y1="3839.41" x2="2869.87" y2="3839.41"/></g><polyline class="cls-4" points="2444.56 3726.7 2897.18 3726.7 2836.51 3996.6"/><line class="cls-4" x1="2669.88" y1="3811.01" x2="2876.66" y2="3811.01"/><line class="cls-4" x1="2735.4" y1="3839.41" x2="2571.77" y2="3839.41"/></g><line class="cls-4" x1="318.2" y1="4112.36" x2="4362.1" y2="4112.36"/><g><path class="cls-13" d="m3300.46,786.69c-179.89,28.15-167.71,228.49-198.3,347.39-32.86,127.73-143.65,44.72-287.16,120.57-110.72,58.51-44.71,219.3-272.79,353.44-102.42,60.23,21.51,351,261.52,378.21,326.64-255.94,420.98,94.47,553.49-148.25,132.51-242.73-109.32-417.32,0-564.24,109.32-146.91-56.76-487.12-56.76-487.12Z"/><g><path class="cls-3" d="m2817.3,1791.78l-64.21,477.76-328.31-69.12,323.89,320.01c73.24,72.37,197.44,37.06,221.65-63.02l146.91-607.15-299.93-58.48Z"/><path class="cls-12" d="m3106.49,2107.15l-366.34-76.36s85.72-521.54,244.94-523.73c-7.98,235.1,90.4,325.86,168.58,321.69-10.91,143.43-47.18,278.4-47.18,278.4Z"/><g><path class="cls-3" d="m2338.36,2219.83c-70.7-42.75-170.19-6.06-199.46-3.87-43.23,3.23-36.06,18.71-29.54,31.49,6.52,12.77,29.75,26.52,102.53,16.36,72.78-10.16,126.47-43.97,126.47-43.97Z"/><g><path class="cls-3" d="m2734.82,2230.65c-20.36,94.8,94.39,369.93,94.39,369.93l-746.12,580.08s-180.65-287.5-53.76-466.11c126.89-178.61,472.78-462.73,705.5-483.9Z"/><path class="cls-6" d="m2721.58,2402.96c20.6,87,52.07,164.78,52.07,164.78l-741.85,576.43s-160.12-290.36-33.24-468.97c126.89-178.61,699.17-372.95,723.02-272.24Z"/><path class="cls-6" d="m2733.03,2210.01c-38.75,61.62,31.18,290.14,31.18,290.14l-741.85,576.43s-160.12-290.36-33.24-468.97c126.89-178.61,511.18-376.43,743.9-397.6Z"/><path class="cls-3" d="m2731.44,2185.83c-42.33,62.18-4.11,385.43-4.11,385.43l-803.85,486.25s-125.27-307.01,21.53-469.66c146.8-162.64,552.83-408.06,786.43-402.02Z"/><path class="cls-6" d="m2718.11,2170.65c-72.03,63.8-51.6,319.52-51.6,319.52,0,0-522.07,267.52-803.85,486.25-34.19-68.82-110.86-303.01,35.94-465.65,146.8-162.64,585.91-346.15,819.51-340.11Z"/><path class="cls-3" d="m2710.63,2153.98c-89.07,86.75-111.01,300.02-102.99,422.4-426.9,57.06-802.76,289.72-802.76,289.72,0,0-79.94-312.59,82.41-459.71,162.35-147.12,591.51-281.83,823.33-252.42Z"/></g></g><polyline class="cls-4" points="3145.16 1908.47 3106.49 2107.15 2740.15 2030.78"/></g><path class="cls-13" d="m3442.54,794.21c259.53-63.19,317.08,155.42,232.78,268-84.3,112.58-232.78-268-232.78-268Z"/><path class="cls-13" d="m3591.58,1065.35c158.42,216.36,127.37,401.75,13.14,480.99-104.27,72.33-457.55,410.93-542.72,189.5-85.17-221.44,529.58-670.48,529.58-670.48Z"/><path class="cls-4" d="m3282.37,786.69c-179.89,28.15-117.38,195.81-209.04,341.32-70.29,111.6-132.91,50.8-276.42,126.65-110.72,58.51-46.1,250.61-289.98,321.18"/><path class="cls-3" d="m3603.71,1597.43c80.07-49.55,185.15-24.82,234.7,55.25l330.41,533.86,71.6,319.6c-7.32,8.92-16.31,17.58-26.13,24.62-60.41,43.3-144.49,29.43-187.79-30.99l-9.39-13.11-462.25-644.95c-2.12-2.99-4.44-6.44-6.4-9.6-49.55-80.07-24.82-185.15,55.25-234.7Z"/><path class="cls-13" d="m2924.39,4112.36c-61.05-475.63-78.51-924.01,12.96-1286.08,232.43-920.04,628.34-440.94,628.34-440.94,252.57,528.81,474.58,1162.15,649,1727.02,0,0-604.4,0-604.4,0-84.73-223.77-156.92-435.41-199.56-603.6,0,0,21.45,264.95,48.86,603.6h-535.21Z"/><path class="cls-12" d="m4104.55,2058.22s-239.72-451.89-336.16-515.26c-96.44-63.37-744.83-105.32-815.88-73.72-145.05,64.52-170.52,504-170.52,504l204.24,82.33,29,398.81-131.42,489.55s699.63,141.25,958.97,26.34l-146.14-495.98,46.95-336.16,71.64,118.48,289.32-198.39Z"/><path class="cls-4" d="m3516.91,782.96c160.61-21.82,202.03,80.42,202.03,80.42"/><path class="cls-1" d="m3332.75,1470.73c-208.59-28.57-288.34,118.25,58.15,198.35,305.74,70.68,282.69-145.47,132.3-180.79,0,0-99.56-5.1-190.45-17.55Z"/><path class="cls-4" d="m3112.05,1501.15c-26.83,52.87,40.14,149.21,273.99,203.27,268.73,62.12,322.04-74.27,261.74-160.73"/><g><path class="cls-1" d="m3264.22,1215.35l-5.12,308.27c2.56,93.84,263.59,87.01,263.59-10.24v-459.8s-235.44-96.17-258.48,161.77Z"/><line class="cls-4" x1="3269.35" y1="1064.4" x2="3259.1" y2="1523.61"/><path class="cls-1" d="m3386.05,794.91c-223.67,59.02-212.76,277.11-98.24,427.29,79.33,104.04,165.02,185.4,262,159.24,64.81-17.48,120.6-197.27,85.22-342.72-35.97-147.87-82.23-287.81-248.98-243.81Z"/><path class="cls-4" d="m3347.97,1294.01c62.29,65.92,128.87,107.12,201.84,87.43,64.81-17.48,120.6-197.27,85.22-342.72-35.97-147.87-82.23-287.81-248.98-243.81"/><path class="cls-13" d="m3432.56,1066.59c-22.56-12.24-28.36,30.68-4.34,33.81,24.02,3.13,13.73-28.71,4.34-33.81Z"/><path class="cls-13" d="m3585.11,1048.7c-19.71-10.69-24.77,26.8-3.79,29.53,20.98,2.73,11.99-25.08,3.79-29.53Z"/><path class="cls-4" d="m3617.93,1019.68c-16.07-33.88-56.66-27.56-56.66-27.56"/><path class="cls-4" d="m3470.52,1000c-72.43-.37-104.33,64.39-104.33,64.39"/><path class="cls-4" d="m3523.2,1032.85c31.04,72.77,53.14,108.87,53.14,108.87,0,0,2.58,16.84-20.43,26.66"/><path class="cls-4" d="m3583.45,1225.3s-42.23,0-87.96,28.85"/></g><g><g><path class="cls-4" d="m3382.84,960.87c34.14-48.75,23.08-77.44-5.74-97.5"/><path class="cls-13" d="m3602.31,927.76c-52.15-119.43-175.32-17.52-225.21-64.38,50.76,86.43-102.84,129.46-56.78,270.7-21.66,16.01-54.8,81.63-56.1,120.57-45.85-47.04-101.2-101.83-130.09-225.51-28.88-123.69,39.16-237.66,196.93-286.8,157.78-49.13,293.51,70.75,271.24,185.42Z"/></g><g><path class="cls-1" d="m3336.83,1171.45c30.95-76.32-101.53-139.85-116.91-75.89-15.38,63.96,87.95,147.29,116.91,75.89Z"/><line class="cls-4" x1="3308.13" y1="1146.94" x2="3256.62" y2="1109.06"/><path class="cls-4" d="m3312.93,1092.87c-32.96-28.25-83.83-35.47-93.01,2.69-13.17,54.78,60.72,123.76,100.4,97.59"/></g></g><path class="cls-4" d="m3842.78,2970.27c-325.87,128.97-958.97-26.34-958.97-26.34"/><line class="cls-4" x1="4104.55" y1="2058.22" x2="3815.23" y2="2256.61"/><path class="cls-7" d="m3398.08,3228.4s46.93,666.58,62.24,883.95"/><path class="cls-7" d="m2952.51,3228.4c2.16,294.01,23.86,600.64,52.81,883.95"/><g><path class="cls-3" d="m4438.46,1903.42c-5.38-1.35-427.07-271.23-427.07-271.23l-634.55,150.77,440.72,178.57,620.89-58.11Z"/><path class="cls-3" d="m4438.08,1954.42c-5.38-1.35-427.07-271.23-427.07-271.23l-634.55,150.77,440.72,178.57,620.89-58.11Z"/><path class="cls-3" d="m4363.35,2013c-5.38-1.35-427.07-271.23-427.07-271.23l-634.55,150.77,440.72,178.57,620.89-58.11Z"/><path class="cls-3" d="m4459.22,1996.97c-5.45-1-443.46-243.5-443.46-243.5l-623.66,190.86,451.19,150.15,615.93-97.51Z"/><polygon class="cls-3" points="4459.22 2146.89 4053.4 2033.12 3270.62 2157.35 3517.7 2198.6 3270.62 2483.09 4216.98 2301.41 4434.02 2247.08 4406.09 2154.07 4459.22 2146.89"/><polygon class="cls-6" points="4053.4 2033.12 3270.62 2157.35 3517.7 2198.6 4051.7 2065.38 4406.09 2154.07 4459.22 2146.89 4053.4 2033.12"/><polygon class="cls-3" points="4051.7 2065.38 4085.66 2301.41 3270.62 2483.09 3241.75 2267.45 4051.7 2065.38"/><polygon class="cls-6" points="4065.28 1834.46 4053.4 2033.12 3270.62 2157.35 3270.62 1927.85 4065.28 1834.46"/><path class="cls-4" d="m4051.7,2065.38s158.16,35.35,354.39,88.69"/><path class="cls-4" d="m4469.41,2236.88c-200.97,60.92-383.75,64.52-383.75,64.52"/><path class="cls-3" d="m4065.28,1834.46s269.98,103.58,404.12,246.21h-34.77l-6.65,57.46-374.58-105.01,11.89-198.67Z"/><ellipse class="cls-4" cx="3380.67" cy="2343.86" rx="33.11" ry="42.45"/><ellipse class="cls-4" cx="3380.67" cy="2022.93" rx="33.11" ry="42.45"/><path class="cls-4" d="m4434.63,2080.67c-149.1-108.95-324.91-170.01-324.91-170.01"/><path class="cls-4" d="m4431.27,2109.73c-.24,2.04-186.66-110.73-273.05-136.5"/><path class="cls-4" d="m4294.75,2071.75c-63.77-25.77-185.02-60.62-185.02-60.62"/><line class="cls-4" x1="4412.94" y1="2176.9" x2="4158.22" y2="2138.13"/><line class="cls-4" x1="4419.46" y1="2198.6" x2="4120.33" y2="2209.67"/><path class="cls-4" d="m4426.72,2222.78c-123,24.78-242.2,33.83-242.2,33.83"/><g><polygon class="cls-6" points="4100.7 2357.39 4146.61 2579.67 3376.77 2823.33 3313.2 2590.36 4100.7 2357.39"/><path class="cls-3" d="m4508.46,2296.31l-32.77,12.72,33.63,100.33,28.01-9.47c-91.69,88.3-390.72,179.78-390.72,179.78l-45.91-222.28s205.7-112.01,407.76-61.07Z"/><ellipse class="cls-4" cx="3466.19" cy="2681.76" rx="33.11" ry="42.45"/><path class="cls-4" d="m4475.7,2309.03c-106.8-9.94-317.47,61.29-317.47,61.29"/><line class="cls-4" x1="4503.78" y1="2332.43" x2="4202.24" y2="2403.67"/><line class="cls-4" x1="4496.24" y1="2370.32" x2="4177.93" y2="2483.09"/><line class="cls-4" x1="4406.09" y1="2443.07" x2="4228.89" y2="2511.27"/><g><path class="cls-3" d="m4202.24,2531.5c104.34,32.99,40.73,96.91,0,117.98-40.73,21.07-156.49,36.81-156.49,36.81,0,0-148.88-28.09-196.64-18.26-47.75,9.83-11.24-44.95,42.14-39.33,16.9-37.11,89.89-11.24,89.89-11.24,0,0-24.24-29.49,23.46-32.22,25.69-1.47,98.74,5.54,98.74,5.54l47.75-14.05s-33.77-46.42-8.48-54.85c25.28-8.43,59.63,9.62,59.63,9.62Z"/><line class="cls-3" x1="4083.67" y1="2631.86" x2="3981.14" y2="2617.47"/><path class="cls-3" d="m4020.61,2656.93c-56.42-18.81-129.36-28.23-129.36-28.23"/></g><path class="cls-3" d="m4198.08,2317.15s-743.86,236.57-784.78,321.44c-32.64-58.92-15.91-122.76,23.49-137.92,39.41-15.16,761.29-183.52,761.29-183.52Z"/><polygon class="cls-3" points="3313.2 2555.97 4198.08 2317.15 3370.11 2505.21 3313.2 2555.97"/><polygon class="cls-3" points="4198.08 2317.15 3298.88 2521.88 3388.33 2460.49 4198.08 2317.15"/><line class="cls-4" x1="3997.57" y1="2443.07" x2="4015.76" y2="2548.16"/><line class="cls-4" x1="3943.52" y1="2469.34" x2="3961.71" y2="2574.43"/><line class="cls-4" x1="3889.47" y1="2495.61" x2="3907.66" y2="2600.69"/></g><line class="cls-4" x1="3871.03" y1="2166.88" x2="3894.58" y2="2271.63"/><line class="cls-4" x1="3808.99" y1="2181.7" x2="3832.54" y2="2286.45"/><line class="cls-4" x1="3746.95" y1="2196.52" x2="3770.51" y2="2301.27"/><line class="cls-4" x1="3971.59" y1="1891.69" x2="3971.26" y2="1996.97"/><line class="cls-4" x1="3907.6" y1="1906.44" x2="3907.27" y2="2011.73"/><line class="cls-4" x1="3843.61" y1="1921.19" x2="3843.29" y2="2026.48"/></g><polyline class="cls-4" points="3053.9 1674.83 2986.68 2080.67 3015.23 2454.38"/><polyline class="cls-4" points="3096.27 2430.16 3015.23 2454.38 3087.91 2486.08"/><line class="cls-4" x1="2974.41" y1="2606.44" x2="3015.23" y2="2454.38"/></g><path class="cls-4" d="m1126.66,3254.58s-111.8,585.53-163.78,857.77"/><path class="cls-4" d="m2123.23,3351.55s-4.08,509.9-6.09,760.81"/></g></svg>