<?xml version="1.0" encoding="UTF-8"?><svg id="Layer_2" xmlns="http://www.w3.org/2000/svg" viewBox="0 0 4442.33 4350"><defs><style>.cls-1,.cls-2,.cls-3{fill:#fff;}.cls-4,.cls-5,.cls-6,.cls-7{fill:none;}.cls-4,.cls-5,.cls-8,.cls-2,.cls-7,.cls-3,.cls-9{stroke-linecap:round;stroke-linejoin:round;}.cls-4,.cls-5,.cls-8,.cls-2,.cls-3,.cls-9{stroke-width:10px;}.cls-4,.cls-6,.cls-8,.cls-7,.cls-3,.cls-9{stroke:#2e2e2e;}.cls-5{stroke:#fff;}.cls-6{stroke-miterlimit:10;stroke-width:0px;}.cls-10,.cls-8{fill:#c1c7d7;}.cls-11,.cls-9{fill:#203058;}.cls-2{stroke:#c1c7d7;}.cls-12{fill:#2e2e2e;}.cls-7{stroke-width:10.48px;}</style></defs><g id="Layer_1-2"><path class="cls-10" d="m3966.35,574.47c681.65,722.32,662.8,2105.01-262.61,2978.32-925.41,873.31-2222.49,867.79-2904.14,145.47C117.96,2975.94-542.77,1844.75,692.39,784.86,1658.02-43.76,3284.7-147.85,3966.35,574.47Z"/><rect class="cls-1" x="712.72" y="4079.09" width="2976.47" height="270.91"/><g><path class="cls-5" d="m815.82,126.7c95.95,1410.71,954.41,2167.06,1128.47,2862.2,88.49,353.38-56.23,841.47-266.46,1092.03"/><path class="cls-5" d="m1307.17,5c-123.04,968.02-420.74,2010.9-173.97,2659.84,162.07,426.2,542.9,1012.91,790.25,1416.1"/><path class="cls-5" d="m1371.05,129.69c622.08,1112.24,781.57,3634.12,988.98,3951.24"/><path class="cls-5" d="m2409.8,40c-419.04,1237.95,800.06,3116.8,503.82,4040.93"/><path class="cls-5" d="m2614.51,40c766.53,1520.82,887.02,2384.22,490.74,4040.94"/><path class="cls-5" d="m1677.51,129.69c1753.33,1856.97,1587.14,2927.46,960.19,3954.85"/></g><g><path class="cls-11" d="m2955.03,1967.14c-62.44-124.53-94.82-147.65-199.44-53.93-104.63,93.71-278.61,751.03-278.61,751.03l500.38,15.41-22.33-712.5Z"/><path class="cls-1" d="m2453.39,3241.37s63.32,108.87,109.66,120.96c46.33,12.1,208.15-83.77,208.15-83.77l-317.81-37.19Z"/><g><path class="cls-1" d="m3757.1,1783.35c-118.76-120.48-142.72-124.42-142.72-124.42,0,0-41.44-78.69-112.01-102.78-70.57-24.1-324.45-45.61-377.8,168.68-53.36,214.29-122.2,456.12-74.87,691.06,47.33,234.94-37.13,1124.18-37.13,1124.18,0,0,781.97,160.74,775.95,12.72-6.02-148.02-31.41-1769.44-31.41-1769.44Z"/><path class="cls-12" d="m4253.44,4084.54c-4.96-19.99-9.86-39.66-14.69-59-90.47-362.31-178.28-596.25-178.28-596.25l-1114.24-74.41c-19.67,177.61-43.12,468.8-34.25,729.66h1341.46Z"/><line class="cls-4" x1="3953.88" y1="3514.62" x2="2978.64" y2="3506.14"/></g><path class="cls-12" d="m3413.4,1741.5l-75.71,152.78,18.32,1419.68-148.41,199.29-165.37-165.37s84.93-1175.18,218.38-1459.01c-28.8-56.58-22.98-160.89-22.98-160.89l175.77,13.52Z"/><path class="cls-11" d="m3354.88,2942.04s-92.96-530.54,182.04-1130.55c23.12-50.45,29.44-138.44,58.04-189.6,159.84,6.16,413.98,71.51,514.87,275.09,0,0-72.41,767.58-91.55,1040.37-19.14,272.79,220.14,971.51,220.14,971.51,0,0-138.05,38.29-367.76,105.29-229.72,67-348.61,38.29-391.68-81.36l-124.09-990.75Z"/><path class="cls-4" d="m4238.42,3908.86s-138.05,38.29-367.76,105.29c-229.72,67-348.61,38.29-391.68-81.36l-124.09-990.75s-94.14-537.24,187.27-1141.88"/><path class="cls-11" d="m2755.58,1913.21s258.76-221.8,398.29-272.22c-12.5,46.43-41.07,146.91-41.61,234.01-1.9,305.07,62.41,800.85,69.91,1071.45,9.64,347.85,16.96,958.28,16.96,958.28-14.36,263.22-311.63,117.45-311.63,117.45,0,0,2.09-371.74,40.38-797.67,38.29-425.93-172.29-1311.29-172.29-1311.29Z"/><path class="cls-4" d="m3124.56,1724.83c-42.09,211.17,47.97,873.76,57.61,1221.61,9.64,347.85,16.96,958.28,16.96,958.28-14.36,263.22-311.63,117.45-311.63,117.45"/><path class="cls-1" d="m3524.27,1896.99c-86.53-191.99-366.4-174.41-406.96-41.91-14.87-110.87,2.7-367.76,296.1-342.07,252.43,22.1,247.42,227.14,110.87,383.98Z"/><path class="cls-4" d="m3080.34,1729.54c-104.19,178.28-81.04,349.61-81.04,349.61l74.09,39.36-90.3,90.3s181.37,484.51,189.86,692.28"/><path class="cls-4" d="m3635.86,1691.35c7.09,221.09-55.42,387.8-55.42,387.8l-113.45,9.26,71.77,115.77s-192.17,420.43-192.17,611.24"/><path class="cls-4" d="m3524.27,1896.99c-86.75-176.39-330.1-187.81-406.96-41.91,0,0-32.15-60.41,28.37-214.09"/><path class="cls-4" d="m2853.44,1833.73c-157.44,252.37,64.83,928.44,64.83,928.44"/><path class="cls-4" d="m4055.08,3259.95c-88,40.47-180.47,80.1-278.07,102.38"/><path class="cls-4" d="m4085.18,3384.98c-185.22,83.35-259.31,99.56-284.78-30.1"/><path class="cls-1" d="m3193.55,1255.2l24.57,391.13c13.06,118.61,365.86,81.45,355.92-41.76-9.94-123.21-46.99-582.57-46.99-582.57,0,0-328.67-96.13-333.5,233.19Z"/><path class="cls-7" d="m3574.04,1604.58c-9.94-123.21-46.99-582.57-46.99-582.57,0,0-328.67-96.13-333.5,233.19l24.57,391.13c8.77,79.7,170.94,89.07,273.39,49.26"/><path class="cls-1" d="m3412.24,876.59c452.64,148.85-54.04,761.56-243.88,698.72-119.06-39.41-129.81-246.56-76.26-420.66,54.44-177,120.8-343.61,320.14-278.06Z"/><path class="cls-7" d="m3455.69,1412.51c-94.19,111.05-214.24,186.99-287.33,162.79-119.06-39.41-129.81-246.56-76.26-420.66,54.44-177,120.8-343.61,320.14-278.06"/><path class="cls-12" d="m3265.18,1168.81c28.3-13.23,32.22,39.33,2.81,41.38-29.41,2.06-14.59-35.87-2.81-41.38Z"/><path class="cls-12" d="m3129.08,1144.49c28.3-13.23,32.22,39.33,2.81,41.38-29.41,2.06-14.59-35.87-2.81-41.38Z"/><path class="cls-7" d="m3117.03,1080.14c46.81-5.68,99.51,14.17,99.51,14.17"/><path class="cls-7" d="m3280.99,1077.21c95.41,29.03,107.19,85.71,107.19,85.71"/><path class="cls-7" d="m3214.45,1145.79c-42.98,86.13-87.68,118.58-87.68,118.58,0,0,10.87,30.08,38.11,43.68"/><g><g><path class="cls-7" d="m3197.28,1029.13c55.64-49.08,171.45,5.81,199.92-31.3"/><path class="cls-12" d="m3123.61,1060.72c72.02-141.27,209.6-9.6,273.59-62.9,3.53,131.38,105.07,222.15,105.07,222.15,0,0,40.45,120.13,53.32,216.32,77.32-92.56,146.48-229.1,164.51-334.39,26.44-154.39-133.74-252.38-186.16-196.27-57.59-103.79-231.22-154.86-309.05-113.6-106.91,56.66-113.77,174.66-101.28,268.71Z"/></g><g><path class="cls-1" d="m3427.84,1338.64c-32.05-94.95,133.48-162.49,147.52-83.68,14.03,78.81-117.53,172.52-147.52,83.68Z"/><line class="cls-7" x1="3464.48" y1="1310.95" x2="3529.8" y2="1268.69"/><path class="cls-7" d="m3462.58,1244.93c42.09-31.92,104.4-37,112.78,10.03,12.02,67.49-82.75,145.91-129.05,111.25"/></g></g><path class="cls-7" d="m3458.99,792.76c71.45,42.91,74.95,112.86,74.95,112.86,0,0,29.3-47.62,65.51-39.35"/><path class="cls-7" d="m3108.68,1398.42c58.11,0,95.5,26.05,95.5,26.05"/><g><path class="cls-4" d="m3133.94,1278.5c-5.38,3.02-11.16,4.69-17.19,4.75-29.29.28-53.39-37.48-53.84-84.34-.45-46.86,22.93-85.08,52.22-85.36,29.29-.28,53.39,37.48,53.84,84.34.08,8.45-.61,16.63-1.98,24.35"/><path class="cls-4" d="m3331.67,1226.32c.45,46.86-22.93,85.08-52.22,85.36-29.29.28-53.39-37.48-53.84-84.34-.45-46.86,22.93-85.08,52.22-85.36,29.29-.28,53.39,37.48,53.84,84.34Z"/><path class="cls-4" d="m3166.79,1171.74c35.9-43.05,68.57,3.28,68.57,3.28"/></g><line class="cls-4" x1="3330.56" y1="1210.27" x2="3509.68" y2="1222.66"/><g><g><rect class="cls-11" x="2630.74" y="2583.49" width="298.46" height="1193.84" transform="translate(-738.99 5517.11) rotate(-82.43)"/><polyline class="cls-4" points="3391.34 3111.13 3352.02 3406.99 2168.59 3249.69 2183.09 3140.6"/><rect class="cls-3" x="2496.45" y="2957.48" width="206.92" height="398" transform="translate(-871.6 5317.84) rotate(-82.43)"/><line class="cls-4" x1="2529.85" y1="3223.24" x2="2549.06" y2="3078.68"/><line class="cls-4" x1="2607.56" y1="3233.57" x2="2626.78" y2="3089.01"/><line class="cls-4" x1="2691.27" y1="3215.94" x2="2704.49" y2="3099.34"/></g><g><rect class="cls-10" x="2647.07" y="1980.21" width="298.46" height="1193.84" transform="translate(-126.79 5009.51) rotate(-82.43)"/><polyline class="cls-4" points="3407.68 2507.85 3368.36 2803.71 2184.93 2646.41 2202.63 2513.22"/><path class="cls-12" d="m3194.16,2570.97c32.04,4.26,54.56,33.69,50.31,65.73-4.26,32.04-33.69,54.56-65.73,50.31-32.04-4.26-54.56-33.69-50.31-65.73,4.26-32.04,33.69-54.56,65.73-50.31Z"/><rect class="cls-3" x="2514.14" y="2352.85" width="206.92" height="400.7" transform="translate(-258.23 4811.58) rotate(-82.43)"/><line class="cls-4" x1="2550.55" y1="2621.61" x2="2569.76" y2="2477.04"/><line class="cls-4" x1="2626.62" y1="2630.3" x2="2645.83" y2="2485.73"/><line class="cls-4" x1="2704.33" y1="2640.62" x2="2723.55" y2="2496.06"/></g><g><rect class="cls-11" x="2607.32" y="2279.3" width="298.46" height="1193.84" transform="translate(5970.88 522.65) rotate(97.57)"/><polyline class="cls-4" points="3367.93 2806.93 3328.6 3102.79 2145.18 2945.49 2158.7 2843.74"/><path class="cls-12" d="m2358.7,2882.37c-32.04-4.26-54.56-33.69-50.31-65.73,4.26-32.04,33.69-54.56,65.73-50.31,32.04,4.26,54.56,33.69,50.31,65.73-4.26,32.04-33.69,54.56-65.73,50.31Z"/><rect class="cls-3" x="2833.15" y="2701.14" width="206.92" height="398" transform="translate(6198.4 371.25) rotate(97.57)"/><line class="cls-4" x1="3009.39" y1="2833.38" x2="2990.18" y2="2977.94"/><line class="cls-4" x1="2928.96" y1="2823.05" x2="2909.74" y2="2967.61"/><line class="cls-4" x1="2851.25" y1="2812.72" x2="2832.03" y2="2957.28"/></g><g><rect class="cls-9" x="2648.28" y="1681.98" width="298.46" height="1193.84" transform="translate(169.89 4751.77) rotate(-82.43)"/><path class="cls-12" d="m3195.36,2272.74c32.04,4.26,54.56,33.69,50.31,65.73-4.26,32.04-33.69,54.56-65.73,50.31-32.04-4.26-54.56-33.69-50.31-65.73,4.26-32.04,33.69-54.56,65.73-50.31Z"/><rect class="cls-3" x="2513.99" y="2055.97" width="206.92" height="398" transform="translate(37.28 4552.5) rotate(-82.43)"/><line class="cls-4" x1="2551.75" y1="2323.38" x2="2570.97" y2="2178.81"/><line class="cls-4" x1="2629.47" y1="2333.71" x2="2648.68" y2="2189.14"/><line class="cls-4" x1="2707.18" y1="2344.04" x2="2726.39" y2="2199.47"/></g></g><g><path class="cls-1" d="m3027.34,3290.8s-170.77,89.63-202.23,94.12c-31.46,4.49-263.03-.15-274.57-33.03-3.67-10.45,9.58-26.22,29.37-42.86,41.53-12.52,114.97-75.45,114.97-75.45,0,0-97.15-44.42-125.12-72.28-27.97-27.86,0-61.95,0-61.95,0,0,124.2,51.96,174.84,52.39s88.09,19.12,88.09,19.12l127.32-59.72,67.34,179.67Z"/><path class="cls-4" d="m2486.89,3292c29.01,59.45,80.52,72.18,80.52,72.18,56.07,21.72,230.7,24.6,257.72,20.74,31.46-4.49,202.23-94.12,202.23-94.12l-67.34-179.67-127.32,59.72s-37.45-18.69-88.09-19.12-174.84-52.39-174.84-52.39c0,0-27.97,34.09,0,61.95,27.97,27.86,125.12,72.28,125.12,72.28,0,0-73.44,62.94-114.97,75.45"/><g><polygon class="cls-1" points="2945.35 3042.49 2832.03 3111.13 2960 3354.88 3078.02 3283.06 2945.35 3042.49"/><path class="cls-9" d="m3670.74,1976.08l-179.23,680.42-613.96,400.11,163.48,295.29,675.06-366.03c57.61-30.41,102.34-80.57,125.96-141.29l285.15-732.78c41.52-114-9.14-241.01-117.73-295.13h0c-137.9-68.73-303.82,9.35-338.74,159.42Z"/><line class="cls-4" x1="2832.03" y1="3111.13" x2="2960" y2="3354.88"/></g></g><g><path class="cls-3" d="m2300.92,2237.92l-110.01,51.95c-15.5,7.32-34,.69-41.31-14.81h0c-7.32-15.5-.69-34,14.81-41.31l110.01-51.95c15.5-7.32,34-.69,41.31,14.81h0c7.32,15.5.69,34-14.81,41.31Z"/><path class="cls-3" d="m2326.07,2328.82l-148.03,32.79c-16.73,3.71-33.3-6.85-37.01-23.59h0c-3.71-16.73,6.85-33.3,23.59-37.01l148.03-32.79c16.73-3.71,33.3,6.85,37.01,23.59h0c3.71,16.73-6.85,33.3-23.59,37.01Z"/><path class="cls-3" d="m2283.55,2470.9l-98.42-5.78c-15.35-.9-27.05-14.07-26.15-29.42h0c.9-15.35,14.07-27.05,29.42-26.15l98.42,5.78c15.35.9,27.05,14.07,26.15,29.42h0c-.9,15.35-14.07,27.05-29.42,26.15Z"/><path class="cls-3" d="m2316.7,2390.42l-132.77,29.41c-15.01,3.32-29.87-6.15-33.19-21.16h0c-3.32-15.01,6.15-29.87,21.16-33.19l132.77-29.41c15.01-3.32,29.87,6.15,33.19,21.16h0c3.32,15.01-6.15,29.87-21.16,33.19Z"/></g></g><g><g><path class="cls-11" d="m1586.93,2064.17c-90.87,190.01-86.09,839.43-47.83,924.82,143.93,397.37,572.91,149.34,425.24-83.33-34.47-90.31-94.53-187.57-200.1-472.14-105.57-284.56-91.22-356.1-177.31-369.35Z"/><path class="cls-3" d="m1877.62,2033.06l-242.59,847.44c-25.3,96.21,38.9,192.98,137.38,207.08h0c95.01,13.6,181.81-55.77,189.49-151.44l66.79-832.28c3.95-49.21-31.52-92.83-80.5-98.99h0c-45.94-5.78-58.79-16.59-70.57,28.19Z"/><circle class="cls-12" cx="1211.51" cy="1652.07" r="361.61" transform="translate(-813.35 1340.55) rotate(-45)"/><path class="cls-12" d="m906.7,1433.45c-101.57-263.93-12.59-475.49,254.74-468.6,267.32,6.88,359.15,228.87,251.91,475.59-103.77,238.74-506.64-6.99-506.64-6.99Z"/><path class="cls-11" d="m1762.79,4084.54c-77.93-208.66-148.96-373.44-161.22-480.71l8.18-448.98-738.14-76.18c31.53,171.27-3.79,309.84-3.79,309.84,0,0-158.65,231.24-193.3,529.71-4.13,35.61-5.21,93.9-4.13,166.32h1092.39Z"/><path class="cls-11" d="m915.56,2086.52c-127.34-122.25-114.04-311.43,140.26-298.66,302.22,15.18,505.58,233.99,403.55,330.9-102.03,96.91-332.63,170.51-543.81-32.24Z"/><path class="cls-1" d="m1323.04,2000.66c-3.51-25.41-9.78-42.12-12.94-67.57l7.54-408.41-337.44,7.41-11.64,347.94-55.65,168.54s-47.82,29.54-48.28,41.39c-.48,12.26,8.23,22.97,17.43,31.3,47.24,42.74,115.31,53.55,179.32,58.62,96.85,7.68,231.05-7.3,327.67-17.07-38.6-54.52-56.92-96.39-66-162.15Z"/><path class="cls-1" d="m1065.21,2166.39c-136.42-166.51-175.77-260.8-81.29-278.02,94.48-17.22,195.9-30.13,326.18,44.71,130.27,74.84,300.15,332.84,244.02,568.31-56.13,235.47-25.62,310.22-110.15,153.92-84.53-156.3-378.76-488.93-378.76-488.93Z"/><path class="cls-11" d="m935.88,1896.91c-183.13,26.85-241.6-7.76-342.49,90.27-109.44,106.33,54.61,622.59,116.23,870.08,51.53,165,97.32,334.53,222.47,454.26,125.15,119.72,640.07,126.93,682.72,27.05,22.96-53.78,79.7-228.76,87.01-437.81,12.51-357.79-40.16-803.11-78.81-822.69-61.23-31.03-312.91-144.98-312.91-144.98,0,0,288.51,300.67,167.14,732.73-49.4-191.18-343.74-578.34-471.7-699.11-35.14-33.17-40.05-64.59-36.99-86.67,2.66-19.25-17.16,14.61-32.68,16.88Z"/><g><ellipse class="cls-3" cx="1382.81" cy="1428.68" rx="84.07" ry="51.29" transform="translate(-574.91 1775.97) rotate(-55.99)"/><line class="cls-4" x1="1404.02" y1="1440.08" x2="1420.22" y2="1391.63"/><path class="cls-6" d="m924.43,1343.17c-1.6-.06-3.2-.12-4.8-.18"/><path class="cls-1" d="m923.65,1498.84c.64,57.22.27,94.49,39.34,135.97,38.99,43.64,113.6,124.51,176.2,129.38,75.59-2.94,137.86-68.15,192.39-124.17,26.42-27.14,34.67-41.55,42.35-111.47,8.21-74.82,29.69-151.85,17.37-230.04-1.55-9.84-18.46-41.07-17.71-82.94,3.51-195.29-431.26-222.14-435.29,2.6-.47,26.09-10.87,52.95-17.25,76.23-17.07,62.29-2.89,141.22,2.59,204.43Z"/><path class="cls-4" d="m1393.99,1378c1.79-26.34,1.52-52.85-2.68-79.49-1.55-9.84-18.46-41.07-17.71-82.94,3.51-195.29-431.26-222.14-435.29,2.6-.47,26.09-10.87,52.95-17.25,76.23-17.07,62.29-2.89,141.22,2.59,204.43.64,57.22.27,94.49,39.34,135.97,38.99,43.64,113.6,124.51,176.2,129.38,49.21-1.91,92.77-30.22,132.23-65.2"/><path class="cls-12" d="m1246.41,1384.56c12.68,37.77,45.47,7.8,29.22-19.53-16.95-15.49-37.38-2.38-29.22,19.53Z"/><path class="cls-12" d="m1038.18,1367.86c1.82,17.35,28.32,25.93,32.2,5.38,2.59-13.35.15-29.99-16.12-31.33-18.91-2.38-19.05,13.8-16.08,25.95Z"/><path class="cls-4" d="m1151.39,1356.71c-3.82,85.74-51.54,125.96-36.9,138.58,2.58,2.22,5.45,3.98,8.42,5.35"/><path class="cls-6" d="m1074.68,1342.45c-1.6-.06-3.2-.12-4.8-.18"/></g><path class="cls-4" d="m884.58,3273.32c93.03,85.76,216.9,121.76,341.06,138.51,124.16,16.75,257.36,1.16,375.01-41.91l-17.93,429.93"/><path class="cls-4" d="m1394.43,3466.41c3.23,103.12-17.79,206.92-60.89,300.65"/><path class="cls-11" d="m909.16,2444.76c-136.25-344.77-231.87-461.52-295.28-447.17-63.41,14.35-101.07,99.39-147.22,298.26-39.08,168.42-81.52,348.47-26.36,533.83,19.15,64.36,471.25,130.67,511.9,74.2,40.65-56.47,1.52-346.37-43.04-459.13Z"/><g><path class="cls-1" d="m1906.8,2119.04c-35.75,4.23-52.48-76.34-35.55-129.86,16.93-53.52-13.31-163.85,17.19-173.52,30.49-9.67,43.03,103.48,71.61,136.51,28.59,33.03,33.99,156.53-53.25,166.87Z"/><path class="cls-4" d="m1871.6,2074.84c-5.84-32.95-6-67.78-.34-85.66,16.93-53.52-13.31-163.85,17.19-173.52,30.49-9.67,43.03,103.48,71.61,136.51"/><g><path class="cls-8" d="m2029.31,1411.99l-26-90.19-197.31-41.71c-33.2-7.02-65.05,10.65-71.14,39.46l-130.23,616.01,816.94,172.7,113.09-534.94c6.09-28.81-15.88-57.86-49.08-64.88l-456.26-96.45Z"/><g><polygon class="cls-2" points="2272.88 189.89 2132.8 290.95 2036.24 887.57 2585.03 976.39 2701.11 259.19 2272.88 189.89"/><polygon class="cls-2" points="2253.37 310.46 2272.88 189.89 2132.8 290.95 2253.37 310.46"/><line class="cls-2" x1="2237.67" y1="407.49" x2="2542.18" y2="456.78"/><line class="cls-2" x1="2221.17" y1="509.44" x2="2525.68" y2="558.72"/><line class="cls-2" x1="2204.67" y1="611.38" x2="2509.18" y2="660.67"/><line class="cls-2" x1="2188.17" y1="713.33" x2="2492.68" y2="762.61"/></g><g><polygon class="cls-2" points="1731.63 679.55 1649.93 831.75 1824.35 1410.41 2356.64 1249.97 2146.96 554.36 1731.63 679.55"/><polygon class="cls-2" points="1766.88 796.5 1731.63 679.55 1649.93 831.75 1766.88 796.5"/><line class="cls-2" x1="1795.24" y1="890.61" x2="2090.6" y2="801.58"/><line class="cls-2" x1="1825.05" y1="989.49" x2="2120.4" y2="900.46"/><line class="cls-2" x1="1854.85" y1="1088.37" x2="2150.2" y2="999.34"/><line class="cls-2" x1="1884.66" y1="1187.24" x2="2180.01" y2="1098.22"/></g><g><polygon class="cls-2" points="2012.97 1137.88 1889.46 1253.78 1870.66 1846.13 2415.52 1863.42 2438.12 1151.37 2012.97 1137.88"/><polygon class="cls-2" points="2009.17 1257.58 2012.97 1137.88 1889.46 1253.78 2009.17 1257.58"/><line class="cls-2" x1="2006.11" y1="1353.92" x2="2308.44" y2="1363.52"/><line class="cls-2" x1="2002.9" y1="1455.13" x2="2305.23" y2="1464.73"/><line class="cls-2" x1="1999.68" y1="1556.35" x2="2302.01" y2="1565.94"/><line class="cls-2" x1="1996.47" y1="1657.56" x2="2298.8" y2="1667.16"/></g><g><polygon class="cls-2" points="2487.15 1032.25 2332.44 1109.06 2139.72 1681.9 2666.64 1859.17 2898.3 1170.57 2487.15 1032.25"/><polygon class="cls-2" points="2448.21 1148.01 2487.15 1032.25 2332.44 1109.06 2448.21 1148.01"/><line class="cls-2" x1="2416.86" y1="1241.18" x2="2709.24" y2="1339.54"/><line class="cls-2" x1="2383.93" y1="1339.06" x2="2676.31" y2="1437.42"/><line class="cls-2" x1="2351" y1="1436.94" x2="2643.38" y2="1535.3"/><line class="cls-2" x1="2318.07" y1="1534.82" x2="2610.45" y2="1633.18"/></g><path class="cls-3" d="m2421.57,2108.26l-816.94-172.7-21.84-415.47c-1.6-30.44,24.02-49.42,57.22-42.41l696.71,147.29c33.2,7.02,61.41,37.38,63.01,67.82l21.84,415.47Z"/></g><path class="cls-1" d="m1888.72,2094.19c50.36-68.67,71.69-78.35,71.69-78.35,0,0-56.57-93.61-36.2-107.19,20.36-13.58,36.2,0,36.2,0,0,0-36.91-19.91-20.36-42.99,16.55-23.08,38.47,0,38.47,0,0,0-22.84-29.53-7.8-45.32,22.61-24.61,96.04,45.32,96.04,45.32,0,0,0-44.28,38.47-22.63,15.84,11.31,119.93,85.46,122.19,100.43,2.26,14.97-54.31,107.27-54.31,107.27,0,0,13.58,22,0,37.84-13.58,15.84-29.42,12.41-29.42,12.41,0,0,0,31.68-13.58,40.73-9.85,6.56-89.88,27.06-147.33,53.2-49.78,22.65-114.12-73.36-94.06-100.72Z"/><path class="cls-4" d="m1924.52,2181.39c18.29,14.34,39.6,22.01,58.26,13.51,57.45-26.14,137.48-46.64,147.33-53.2,13.58-9.05,13.58-40.73,13.58-40.73,0,0,15.84,3.43,29.42-12.41,13.58-15.84,0-37.84,0-37.84,0,0,56.57-92.3,54.31-107.27-2.26-14.97-106.35-89.12-122.19-100.43-38.47-21.65-38.47,22.63-38.47,22.63,0,0-73.43-69.93-96.04-45.32-15.05,15.79,13.44,41.73,13.44,41.73,0,0-24.46-27.11-41.01-4.03-16.55,23.08,17.26,50.61,17.26,50.61,0,0-21.66-20.06-36.2,0-20.37,13.58,58.19,154.19,58.19,154.19"/><path class="cls-4" d="m2073.54,2094.19c-76.93-128.98-113.14-185.55-113.14-185.55"/><path class="cls-4" d="m2112.01,2035.77c-40.73-99.97-127.86-173.71-127.86-173.71"/><path class="cls-4" d="m2152.74,2001.41c-11.31-92.77-85.98-135.76-85.98-135.76"/><path class="cls-4" d="m2173.1,1950.71c-32.29,4.29-37.43-7.26-37.43-7.26"/></g><path class="cls-11" d="m745.49,2937.63c-30.08-163.79-114.21-381.37-262.62-302.28-104.94,55.93-173.05,216.35-75.21,353.55,80.25,112.53,359.35,65.9,337.83-51.27Z"/><path class="cls-4" d="m837.98,1907.31c-21.42,156.86,224,552.4,224,552.4l127.75-33.62-35.75,75.95s262.39,27.86,305.93,182.35"/><path class="cls-4" d="m1527.89,2077.9c83.59,145.53,102.17,298.66,102.17,298.66h-77.9l63.51,46.23s-23.6,131.22-72.87,212.56"/><path class="cls-4" d="m1664.78,2303.25c98.01,398.63-5.64,895.44-5.64,895.44"/><path class="cls-4" d="m1494.89,2737.57c13.06,368.5,6.12,622.76-50.16,646.73"/><path class="cls-4" d="m1007.06,1288.99c69.31-20.65,106.92,15.48,106.92,15.48"/><path class="cls-4" d="m1205.89,1304.48c68.57-35.39,123.14,11.8,123.14,11.8"/><path class="cls-4" d="m1069.87,1584.48c65.18,43.74,141.63,0,141.63,0"/><path class="cls-4" d="m853.03,2479.58c31.55,307.95-119.51,509.33-119.51,509.33"/><path class="cls-3" d="m336.73,1960.73l47.91,849.55c5.69,99.32,96.67,171.5,194.68,154.45h0c94.56-16.44,155.65-109.25,133.37-202.61l-206.63-825.47c-11.46-48.02-45.87-65.21-94.37-55.92h0c-45.47,8.7-77.61,33.78-74.96,80Z"/><g><g><path class="cls-1" d="m328.52,1921.3c28.77,84.99,59.65,89.16,104.13,59.37,76.63-.6,81.91-73.67,81.91-73.67,0,0,54.64-2.09,64.32-55.13,6.44-35.26-96.02-38.94-96.02-38.94,0,0,105.05,6.85,108.93-30.22,3.89-37.07-107.32-38.49-107.32-38.49,0,0,116.44,14.08,122.23-21.56,8.06-49.65-127.53-52.26-127.53-52.26,0,0,95.2,11.26,104.44-19.54,15.52-51.72-119.53-42.98-119.53-42.98,0,0,24.63-70.65-5.73-115.84-22.62-33.68-76.85-39.82-79.43-14.92-2.51,24.29,27.38,29.52,20.62,83.01-6.76,53.49-9.35,60.85-9.35,60.85,0,0-21.56-1.23-25.76,22.77-4.2,24-41.5,230.95-35.92,277.55Z"/><path class="cls-4" d="m453.83,1978.41c56.47-12.4,60.74-71.41,60.74-71.41,0,0,54.64-2.09,64.32-55.13,6.44-35.26-96.02-38.94-96.02-38.94,0,0,105.05,6.85,108.93-30.22,3.89-37.07-107.32-38.49-107.32-38.49,0,0,116.44,14.08,122.23-21.56,8.06-49.65-127.53-52.26-127.53-52.26,0,0,95.2,11.26,104.44-19.54,15.52-51.72-119.53-42.98-119.53-42.98,0,0,24.63-70.65-5.73-115.84-22.62-33.68-76.85-39.82-79.43-14.92-2.51,24.29,27.38,29.52,20.62,83.01-6.76,53.49-9.35,60.85-9.35,60.85,0,0-21.56-1.23-25.76,22.77-4.2,24-50.42,264.05-27.71,316.98"/><path class="cls-4" d="m428.71,1676.67s19.86-8.4,52.12-6.84"/><path class="cls-4" d="m484.48,1744.23c-28.3-1.42-56.54.12-56.54.12"/><path class="cls-4" d="m482.87,1812.93c-40.31-3.47-75.21-.18-75.21-.18"/></g><path class="cls-4" d="m390.2,1620.98c36.94-13.1,73.89-13.1,73.89-13.1"/></g><path class="cls-4" d="m1382.81,4084.54c-14.92,0-413.55-500.8-413.55-500.8l109.75,395.03"/><path class="cls-4" d="m807.66,2875.01s41.68,298.53,117.11,398.3"/><path class="cls-4" d="m1140.69,970.82c-366.5-6.13-313.47,382.26-224.54,469.27"/><path class="cls-12" d="m1211.51,1020.18c83.9,214.04-308.48,162.03-298.6,408.5-11.3-26.32-63.82-241.96,48.77-349.56,112.58-107.6,249.83-58.94,249.83-58.94Z"/><path class="cls-12" d="m1151.39,1023.51c0,182.19,268.84,280.29,268.84,280.29,0,0,10.27-245.18-131.99-270.67-120.82-21.64-136.84-9.62-136.84-9.62Z"/></g><line class="cls-4" x1="1315.2" y1="1661.36" x2="1306.95" y2="2006.76"/><path class="cls-4" d="m1285.88,2315.31c126.24,164.27,191.36,350.5,191.36,350.5,39.4-157.96,63.06-477.39-167.14-732.73"/></g><line class="cls-4" x1="252.91" y1="4084.54" x2="4347.91" y2="4084.54"/></g></svg>