<?xml version="1.0" encoding="UTF-8"?><svg id="Layer_2" xmlns="http://www.w3.org/2000/svg" viewBox="0 0 4657.63 3898.77"><defs><style>.cls-1,.cls-2,.cls-3,.cls-4,.cls-5,.cls-6,.cls-7,.cls-8,.cls-9,.cls-10,.cls-11,.cls-12,.cls-13,.cls-14{stroke-linecap:round;stroke-linejoin:round;stroke-width:10px;}.cls-1,.cls-4,.cls-14{stroke:#fff;}.cls-1,.cls-15{fill:#203058;}.cls-16,.cls-10,.cls-12,.cls-13{fill:#fff;}.cls-2,.cls-4,.cls-8,.cls-9{fill:none;}.cls-2,.cls-7,.cls-11,.cls-13{stroke:#2e2e2e;}.cls-3{fill:#e7eeff;}.cls-3,.cls-5,.cls-8,.cls-12{stroke:#c8cfdc;}.cls-5,.cls-17,.cls-6,.cls-7{fill:#c1c7d7;}.cls-6,.cls-9,.cls-10{stroke:#c1c7d7;}.cls-11,.cls-18,.cls-14{fill:#2e2e2e;}</style></defs><g id="Layer_1-2"><g><g><path class="cls-10" d="m879.54,806.98h693.7c55.54,0,100.99,45.44,100.99,100.99v144.94c0,55.54-45.44,100.99-100.99,100.99h-23.39v90.13l-90.13-90.13h-580.18c-55.54,0-100.99-45.44-100.99-100.99v-144.94c0-55.54,45.44-100.99,100.99-100.99Z"/><line class="cls-10" x1="1515.73" y1="906.66" x2="989.51" y2="906.66"/><line class="cls-10" x1="1515.73" y1="979.04" x2="940.07" y2="979.04"/><line class="cls-10" x1="1515.73" y1="1051.42" x2="1106.86" y2="1051.42"/></g><g><path class="cls-10" d="m956.95,368.28h422.09c55.54,0,100.99,45.44,100.99,100.99v21.98c0,55.54-45.44,100.99-100.99,100.99h-317.49l-89.98,89.98v-89.98h-14.62c-55.54,0-100.99-45.44-100.99-100.99v-21.98c0-55.54,45.44-100.99,100.99-100.99Z"/><line class="cls-10" x1="1275.57" y1="440.14" x2="1083.24" y2="440.14"/><line class="cls-10" x1="1275.57" y1="512.52" x2="1033.8" y2="512.52"/></g><g><path class="cls-10" d="m534.13,988.48c-23.92-24.11-62.91-24.11-86.83,0l-145.48,146.65h0v243.32h377.79v-243.32h0l-145.48-146.65Z"/><g><rect class="cls-10" x="353.97" y="1006.33" width="273.48" height="354.74"/><line class="cls-10" x1="437.2" y1="1063.02" x2="579.8" y2="1063.02"/><line class="cls-10" x1="401" y1="1099.48" x2="579.8" y2="1099.48"/><line class="cls-10" x1="401" y1="1135.94" x2="579.8" y2="1135.94"/><line class="cls-10" x1="401" y1="1172.41" x2="579.8" y2="1172.41"/><line class="cls-10" x1="401" y1="1208.87" x2="579.8" y2="1208.87"/><line class="cls-10" x1="401" y1="1245.33" x2="579.8" y2="1245.33"/></g><g><polygon class="cls-10" points="301.82 1135.13 301.82 1378.45 457.2 1256.79 301.82 1135.13"/><polygon class="cls-10" points="679.61 1135.13 679.61 1378.45 524.22 1256.79 679.61 1135.13"/><path class="cls-10" d="m679.61,1378.45h-377.79l145.48-146.65c23.92-24.11,62.91-24.11,86.83,0l145.48,146.65Z"/></g></g><g><circle class="cls-10" cx="803.22" cy="1612.81" r="146.66" transform="translate(-905.17 1040.34) rotate(-45)"/><path class="cls-10" d="m755.99,1559.95c3.13-3.29,7.53-5.11,12.08-4.99,3.99.1,7.79,1.68,10.69,4.44l6.77,6.44c3.12,2.97,4.89,6.97,5,11.27.11,4.3-1.47,8.39-4.43,11.51l-4.22,4.43h0c-2.03,2.13-4.59,3.66-7.4,4.43l-1.26.34c-.79.22-1.45.77-1.79,1.52-.35.75-.35,1.6,0,2.35l.55,1.18c8.63,18.5,23.73,33.07,42.51,41.05l1.07.45c.7.3,1.5.29,2.2-.01.7-.31,1.24-.89,1.5-1.6l.39-1.08c.76-2.09,1.93-3.97,3.47-5.58l4.22-4.44c3.14-3.29,7.54-5.12,12.08-5,3.99.1,7.79,1.68,10.69,4.44l6.77,6.45c6.43,6.12,6.69,16.34.57,22.77l-4.23,4.44c-1.15,1.22-2.51,2.25-4.08,3.11-4,2.32-9.19,3.25-14.61,2.62-45.29-5.22-82.14-40.28-89.6-85.26-1.58-9.43,2.01-16.24,4.81-18.51.09-.07.18-.16.26-.24l.2-.2c.08-.09.16-.18.23-.28.41-.56.85-1.09,1.33-1.59l4.22-4.44Z"/></g><g><g><circle class="cls-10" cx="742.45" cy="764.91" r="136.84" transform="translate(-323.41 749.03) rotate(-45)"/><path class="cls-10" d="m793.85,836.86c-.75-31.29-19.64-57.55-45.18-65.85,2.28-1.39,4.42-3.05,6.36-4.99,6.31-6.32,9.78-14.69,9.78-23.58-.01-18.39-14.98-33.35-33.37-33.35-8.9,0-17.27,3.48-23.58,9.79-6.31,6.31-9.78,14.69-9.78,23.59,0,12.08,6.47,22.69,16.13,28.54-10.06,3.26-19.28,9.35-26.9,17.96-11.39,12.88-17.84,29.82-18.27,47.91h124.81Z"/></g><line class="cls-10" x1="803.22" y1="702.65" x2="803.22" y2="736.28"/><line class="cls-10" x1="786.4" y1="719.47" x2="820.03" y2="719.47"/></g><g><circle class="cls-10" cx="484.19" cy="1827.81" r="15.33" transform="translate(-382.77 147.42) rotate(-12.45)"/><circle class="cls-10" cx="531.96" cy="1827.81" r="15.33" transform="translate(-326.69 128.81) rotate(-10.58)"/><circle class="cls-10" cx="579.73" cy="1827.81" r="15.33" transform="translate(-62.75 21.1) rotate(-1.98)"/></g><g><circle class="cls-10" cx="2270.56" cy="20.33" r="15.33"/><circle class="cls-10" cx="2318.33" cy="20.33" r="15.33" transform="translate(57.35 533.19) rotate(-13.28)"/><circle class="cls-10" cx="2366.1" cy="20.33" r="15.33" transform="translate(38.85 447.82) rotate(-10.9)"/></g><g><circle class="cls-10" cx="730.78" cy="297.36" r="15.33" transform="translate(369.82 998.91) rotate(-84.91)"/><circle class="cls-10" cx="778.55" cy="297.36" r="15.33" transform="translate(-47.32 185.56) rotate(-13.19)"/><circle class="cls-10" cx="826.33" cy="297.36" r="15.33" transform="translate(483.81 1106.02) rotate(-86.84)"/></g></g><g><g><g><rect class="cls-6" x="1449.63" y="235.93" width="2968.55" height="2163.87" rx="71.52" ry="71.52"/><path class="cls-10" d="m1368.62,2247.29V226.44c0-39.5,32.02-71.52,71.52-71.52h2825.51c39.5,0,71.52,32.02,71.52,71.52v2020.82c0,39.5-32.02,71.52-71.52,71.52H1440.12c-39.49,0-71.5-32.01-71.5-71.5Z"/><path class="cls-2" d="m4337.17,1314.04v933.23c0,39.5-32.02,71.52-71.52,71.52h-796.54"/><path class="cls-6" d="m1368.62,356.1v-129.66c0-39.5,32.02-71.52,71.52-71.52h2825.51c39.5,0,71.52,32.02,71.52,71.52v129.65H1368.62Z"/><g><g><circle class="cls-4" cx="1498.31" cy="261.72" r="39.97" transform="translate(899.35 1659.82) rotate(-76.72)"/><circle class="cls-1" cx="1633.15" cy="261.72" r="39.97" transform="translate(1003.2 1791.05) rotate(-76.72)"/><circle class="cls-4" cx="1767.98" cy="261.72" r="39.97" transform="translate(332.76 1326.81) rotate(-45)"/></g><g><line class="cls-4" x1="3888.55" y1="292.55" x2="3948.2" y2="292.55"/><g><line class="cls-4" x1="4181.05" y1="229.84" x2="4243.76" y2="292.55"/><line class="cls-4" x1="4243.76" y1="229.84" x2="4181.05" y2="292.55"/></g><rect class="cls-4" x="4028.86" y="229.84" width="62.71" height="62.71"/></g></g><path class="cls-2" d="m1368.62,827.62V226.44c0-39.5,32.02-71.52,71.52-71.52h1670.69"/><path class="cls-2" d="m4337.17,408.79v-182.35c0-39.5-32.02-71.52-71.52-71.52h-387.86"/></g><polyline class="cls-4" points="1980.67 299.79 1942.6 261.72 1980.67 223.65"/><polyline class="cls-4" points="2081.69 223.65 2119.76 261.72 2081.69 299.79"/><line class="cls-2" x1="1949.21" y1="356.32" x2="1368.62" y2="356.32"/></g><g><g><g><path class="cls-9" d="m1997.84,668.82h-430.53c-38.11,0-69,30.89-69,69v138.01c0,38.11,30.89,69,69,69h351.38l82.76,82.76v-82.86c36.43-1.88,65.39-32.01,65.39-68.91v-138.01c0-38.11-30.89-69-69-69Z"/><path class="cls-9" d="m1997.84,1395.84h-430.53c-38.11,0-69,30.89-69,69v298.22c0,38.11,30.89,69,69,69h360.56l73.59,73.59v-73.68c36.43-1.88,65.39-32.01,65.39-68.91v-298.22c0-38.11-30.89-69-69-69Z"/><path class="cls-15" d="m1997.84,1101.33h-430.53c-38.11,0-69,30.89-69,69h0c0,35.09,26.21,64.05,60.11,68.41v74.18l73.59-73.59h365.83c38.11,0,69-30.89,69-69h0c0-38.11-30.89-69-69-69Z"/><path class="cls-6" d="m1997.84,1988.57h-430.53c-38.11,0-69,30.89-69,69v73.22c0,35.09,26.21,64.05,60.11,68.41v74.18l73.59-73.59h365.83c38.11,0,69-30.89,69-69v-73.22c0-38.11-30.89-69-69-69Z"/></g><line class="cls-9" x1="1586.92" y1="747.96" x2="1973.79" y2="747.96"/><line class="cls-4" x1="1586.92" y1="1170.82" x2="1973.79" y2="1170.82"/><line class="cls-4" x1="1586.92" y1="2058.81" x2="1973.79" y2="2058.81"/><line class="cls-4" x1="1586.92" y1="2130.79" x2="1907.21" y2="2130.79"/><line class="cls-9" x1="1586.92" y1="807.34" x2="1973.79" y2="807.34"/><line class="cls-9" x1="1586.92" y1="866.72" x2="1861.32" y2="866.72"/></g><line class="cls-9" x1="2146.92" y1="356.32" x2="2146.92" y2="2318.79"/><path class="cls-10" d="m3042.47,776.87c-32.36-233.38-247.79-396.34-481.17-363.98-233.38,32.36-396.34,247.79-363.98,481.17,32.36,233.38,247.79,396.34,481.17,363.98,45.42-6.3,88.17-19.53,127.33-38.48l126.97,69.83-33.08-131.85c105.05-91.44,163.31-232.44,142.75-380.68Z"/><g><path class="cls-16" d="m3079.84,2191.03c129.62-252.34,336.9-655.86,336.9-655.86,2.17-4.27-106.64,165.71-104.72,161.24,48.29-112.22-11.43-212.15-123.65-260.43-112.22-48.29-207.95,7.12-256.23,119.33,0,0-237.4,488.66-308.85,635.72h456.55Z"/><path class="cls-2" d="m3079.84,2191.03c129.62-252.34,336.9-655.86,336.9-655.86,2.17-4.27-106.64,165.71-104.72,161.24,48.29-112.22-11.43-212.15-123.65-260.43-112.22-48.29-207.95,7.12-256.23,119.33,0,0-237.4,488.66-308.85,635.72"/><g><path class="cls-15" d="m3113.2,2191.03c-155.54-78.9-400.51-203.16-400.51-203.16,0,0,262.88-921.45,644.86-648.51,287.29,205.28,30.14,679.82-77.18,851.67h-167.18Z"/><path class="cls-2" d="m2983.26,1423.62c-161.18,195.24-270.57,564.25-270.57,564.25,0,0,220.67,111.94,376.21,190.84"/><path class="cls-2" d="m3226.35,2129.35c.49-.78-489.72-248.45-489.72-248.45"/></g><path class="cls-15" d="m4227.46,2191.03h-1275.35c-24.98-346.22-15-708.07,111.89-839.23,243.8-251.99,862.07-2.79,1110.51,226.2,20.44,18.84,38.07,41.64,52.95,67.87v545.15Z"/><path class="cls-16" d="m4137.02,2191.03c-102.89-77.9-434.31-309.16-471.18-213.17,0,0-48.81,99.26-104.82,213.17h576Z"/><path class="cls-2" d="m2933.64,1740.16c4.43,128.05,12.59,307.06,19.48,450.87"/><path class="cls-2" d="m3602.92,1573.18c-472.46,126.98-546.87-69.32-503.31-113.77"/><g><path class="cls-15" d="m4227.46,2191.03h-670.98c82.8-167.68,407.01-770.39,665.79-496.91,1.78,2.7,3.51,5.49,5.19,8.36v488.55Z"/><path class="cls-2" d="m4134.06,1641.17c-245.84-112.87-507.23,397.66-578.62,549.86"/><path class="cls-2" d="m3659.99,2191.03c-49.02-35.55-82.88-60.08-82.88-60.08"/></g><g><path class="cls-16" d="m3783.43,1387.35c-19.8,223.06-653.69,221.2-646.69,74.03,7-147.18,199.38-196.83,353.78-191.1,146.05,5.41,298.28,56.57,292.91,117.08Z"/><g><g><path class="cls-16" d="m3192.11,1021.79l106.33,409.21c40.97,134.05,418.37,6.86,379.73-133.12-38.64-139.98-182.69-661.83-182.69-661.83,0,0-372.71,5.31-303.37,385.74Z"/><path class="cls-16" d="m3317.61,423.84c555.1,71.93,105.6,890.63-127.31,859.99-146.07-19.22-204.16-255.86-180.76-468.55,23.78-216.24,63.6-423.11,308.07-391.43Z"/><path class="cls-2" d="m3402.47,1154.09c-70.48,84.27-149.23,138.02-212.17,129.74-146.07-19.22-204.16-255.86-180.76-468.55,23.78-216.24,63.6-423.11,308.07-391.43"/><path class="cls-18" d="m3209.87,819.93c23.79-17.21,36.68,30.62,9.89,37.7-26.78,7.09-19.8-30.54-9.89-37.7Z"/><path class="cls-18" d="m3047.48,821.89c23.79-17.21,36.68,30.62,9.89,37.7-26.78,7.09-19.8-30.54-9.89-37.7Z"/><path class="cls-2" d="m3021.88,723.81c52.76-16.87,92.36,15.83,92.36,15.83"/><path class="cls-2" d="m3203.5,739.63c67.56-24.37,149.49,19.89,149.49,19.89"/><path class="cls-2" d="m3148.75,778.07c-30.6,108.86-55.29,164.11-55.29,164.11,0,0-.56,24.35,33.87,34.04"/><path class="cls-2" d="m3183.27,1084.21s-34.31,12.03-72.26,10.29"/></g><path class="cls-18" d="m3037.41,625.98c51.94-178.89,308.49,10.07,369.82-88.38,216.09,14.21,140.34,290.58,176.4,398.72,68.8-123.84,114.1-133.38,154.93-252.05,61.05-177.44-5.94-327.83-180.6-364.68-102.46-63.66-304.15-88.5-443.73,25.14-23.26,18.94-123.48,75.89-146.34-20.58-80.02,184.54-.83,265.78,69.52,301.83Z"/></g></g><line class="cls-2" x1="3709.82" y1="1355.41" x2="3555.44" y2="898.17"/><line class="cls-2" x1="3287.16" y1="1300.97" x2="3308.16" y2="1404.49"/><path class="cls-18" d="m3534.96,1003.6c-20.98-31.68-24.87-100.76-24.87-100.76,0,0-141.11,170.01-218.07,177.69-15.84-62.4-97.78-105.37-184.62-78.88-43.24,13.19-71.85,58.75-49.58,92.6-21.78,6.38-37.82-32.31-37.82-32.31,0,0-56.22,318.08,156.27,308.99,161.31-6.9,379.69-335.65,358.7-367.33Zm-441.6,99.57c-10.76-53.25,144.83-69.71,158.21-2.35,13.38,67.37-144.59,69.71-158.21,2.35Z"/><g><path class="cls-14" d="m3839.45,932.9c-11.18,112.21-90.56,208.35-196.28,192.51-69.62-10.43-117.78-103.6-106.6-215.82,11.18-112.21,76.72-188.1,147.08-190.55,102.86-3.57,166.98,101.64,155.8,213.85Z"/><ellipse class="cls-14" cx="3732.62" cy="929.42" rx="169.13" ry="105.58" transform="translate(2437.8 4551.53) rotate(-84.31)"/><path class="cls-4" d="m3731.66,1060.84c-44.9-4.47-75.49-66.4-68.32-138.32,2.14-21.44,7.38-41.34,14.89-58.61"/><path class="cls-14" d="m3114.23,344.73c303.56-132.3,463.31,119.02,482.55,271.9,12.4,98.56,129.76,50.8,122.28-14.33s-85.09-353.82-386.24-355.55c-115.55-.66-218.59,97.98-218.59,97.98Z"/><line class="cls-4" x1="3651.85" y1="672.92" x2="3663.6" y2="749.26"/><line class="cls-4" x1="3694.09" y1="663.9" x2="3705.75" y2="739.63"/><line class="cls-14" x1="3728.99" y1="902.84" x2="3778.31" y2="895"/><line class="cls-14" x1="3729.13" y1="936.32" x2="3778.44" y2="928.48"/><line class="cls-14" x1="3730.66" y1="966.61" x2="3779.98" y2="958.77"/><path class="cls-18" d="m3572.44,982.71c-112.81,95.08-258.11,73.31-258.11,73.31l17.72,23.67s146.49,21.95,259.49-74.48c5.9-5.03,6.82-13.82,2.17-20.02h0c-5.07-6.77-14.8-7.92-21.27-2.47Z"/><path class="cls-14" d="m3572.44,982.71c6.47-5.45,16.2-4.3,21.27,2.47h0c4.65,6.21,3.73,14.99-2.17,20.02-12.46,10.64-28.61,22.52-41.96,29.93-14.34,7.95-30.33,15.72-30.33,15.72"/><circle class="cls-18" cx="3321.66" cy="1072.08" r="49.49" transform="translate(771.97 3455.74) rotate(-60.96)"/><path class="cls-14" d="m3370.11,1082.15c-5.56,26.76-31.76,43.95-58.52,38.39-26.76-5.56-43.95-31.76-38.39-58.52"/><path class="cls-4" d="m3332.05,1079.68s81.33,12.19,169.54-21.49"/><path class="cls-4" d="m3445.32,1046.67c-28.35,7.16-54.68,10.13-76.18,11.1"/></g><ellipse class="cls-2" cx="3038.93" cy="831.41" rx="59.42" ry="88.4" transform="translate(-81.16 1268.88) rotate(-23.28)"/><ellipse class="cls-2" cx="3222.36" cy="841.68" rx="59.42" ry="88.4" transform="translate(-70.28 1342.23) rotate(-23.28)"/><line class="cls-2" x1="3088.9" y1="798.3" x2="3159.6" y2="798.3"/><line class="cls-2" x1="3272.16" y1="863.91" x2="3582.4" y2="739.63"/></g><polyline class="cls-2" points="2364.4 2196.21 4227.69 2196.21 4227.69 1459.41"/></g><line class="cls-9" x1="1588.96" y1="1485.68" x2="1975.83" y2="1485.68"/><line class="cls-9" x1="1588.96" y1="1554.95" x2="1975.83" y2="1554.95"/><line class="cls-9" x1="1588.96" y1="1624.22" x2="1975.83" y2="1624.22"/><line class="cls-9" x1="1588.96" y1="1693.48" x2="1975.83" y2="1693.48"/><line class="cls-9" x1="1588.96" y1="1762.75" x2="1868.19" y2="1762.75"/></g><g><g><path class="cls-17" d="m4237.43,533.31h240.13c44.11,0,79.91,35.81,79.91,79.91v238.19c0,44.11-35.81,79.91-79.91,79.91h-240.13c-44.11,0-79.91-35.81-79.91-79.91v-238.19c0-44.11,35.81-79.91,79.91-79.91Z"/><rect class="cls-10" x="4116.86" y="492.65" width="399.96" height="398.02" rx="79.91" ry="79.91"/></g><circle class="cls-15" cx="4300.43" cy="694.52" r="111.21" transform="translate(768.47 3244.29) rotate(-45)"/><path class="cls-10" d="m4300.43,755.91c-4.83,0-9.66-1.8-13.41-5.41l-61.82-59.61c-7.68-7.4-7.9-19.63-.5-27.31,7.41-7.68,19.64-7.9,27.31-.5l48.1,46.38,103.74-104.64c7.51-7.58,19.74-7.63,27.32-.12,7.58,7.51,7.63,19.74.12,27.32l-117.15,118.17c-3.77,3.81-8.75,5.72-13.72,5.72Z"/></g><g><g><g><path class="cls-17" d="m3466.16,3247.7h-1262.63c-57.85,0-92.5-44.49-77.39-99.38l230.14-835.83c8.31-30.17,40.81-54.62,72.61-54.62h1356.99c31.8,0,50.84,24.45,42.53,54.62l-241.86,877.61c-15.11,54.89-62.54,57.6-120.4,57.6Z"/><path class="cls-2" d="m2356.28,2312.49c8.31-30.17,40.81-54.62,72.61-54.62h1356.99c31.8,0,50.84,24.45,42.53,54.62l-230.14,835.83"/><polygon class="cls-16" points="3535.62 3194.9 2145.88 3194.9 2400.09 2296.71 3789.83 2296.71 3535.62 3194.9"/><g><g><g><polygon class="cls-12" points="3375.26 2876.66 3057.33 2876.66 3143.59 2563.38 3461.52 2563.38 3375.26 2876.66"/><path class="cls-5" d="m3421.14,2710.02s-55.19,102.65-140.34,90.65c-85.15-12-96.24-143.98-164.37-138.64l-59.1,214.63h317.92l45.88-166.64Z"/></g><path class="cls-3" d="m3249.85,2940.65c36.2.3,71.04.3,107.79,0"/><path class="cls-3" d="m3157.41,2940.65h42.67"/><path class="cls-3" d="m3039.71,2940.65c23.9.3,45.34.3,70.49,0"/><path class="cls-3" d="m3195.46,2984.64c34.3.6,68.7.81,103.23.58"/><path class="cls-3" d="m3110.3,2984.64h37.72"/><path class="cls-3" d="m3027.6,2984.64h41.35"/><path class="cls-3" d="m3142.32,3028.64c60.94-1.24,121.59-1.29,181.89-.18"/><path class="cls-3" d="m3072.92,3028.64h19.49"/><path class="cls-3" d="m3015.49,3028.64h19.63"/></g><polygon class="cls-5" points="3478.4 2502.05 3160.48 2502.05 3177.73 2439.4 3495.65 2439.4 3478.4 2502.05"/><polygon class="cls-5" points="3027.86 2555.38 2541.62 2555.38 2573.55 2439.4 3059.79 2439.4 3027.86 2555.38"/><polygon class="cls-8" points="2919.57 2948.65 2433.33 2948.65 2521.8 2627.37 3008.04 2627.37 2919.57 2948.65"/><line class="cls-3" x1="2411.75" y1="3027.02" x2="2897.99" y2="3027.02"/></g><path class="cls-17" d="m3576.51,3194.9c-11.78,40.1-30.58,69.71-79.7,69.71h-1456.77c-49.12,0-71.13-29.61-82.92-69.71h1619.39Z"/><path class="cls-17" d="m3025.3,3194.9c-11.78,40.1-30.58,69.71-79.7,69.71h-1456.77c-49.12,0-71.13-29.61-82.92-69.71h1619.39Z"/></g><line class="cls-2" x1="1405.91" y1="3194.9" x2="3025.3" y2="3194.9"/></g><path class="cls-16" d="m1588.94,3840.98c7.89-11.17,12.28-17.38,12.28-17.38,0,0,56.11,7.03,138.67,17.38h-150.95Z"/><g><rect class="cls-16" x="1216.42" y="3264.9" width="3165.03" height="95.68"/><line class="cls-2" x1="4330.71" y1="3264.61" x2="976.66" y2="3264.61"/><line class="cls-2" x1="3792.12" y1="3365.84" x2="993.66" y2="3365.84"/></g><g><path class="cls-15" d="m1069.92,2181.42c-33.79-158.81-104.75-314.24-324.37-155.43-219.63,158.81-726.99,821.95-689.82,1001.03,37.17,179.08,883.25,278.26,883.25,278.26l130.94-1123.86Z"/><path class="cls-15" d="m663.05,2153.85c194.81-375.43,784.99-279.08,1031.09-73.9,269.03,224.3-385.64,1285.89-385.64,1285.89l-719.94,25.44s-153.46-798.14,74.49-1237.43Z"/><path class="cls-2" d="m705,2096.95c-277.07,435.88-8.96,1222.78-131.78,1165.72"/></g><path class="cls-2" d="m1069.92,2025.99c-90.29,140.46-148.29,393.23-177.95,619.19"/><path class="cls-18" d="m2322.57,3840.98c-21.96-9.27-45.28-16.15-69.69-20.28l-823.35-139.27s-122.17-119.48-143.99-187.66l22.96-127.93-719.94,25.44,3.76,123.8s-108.82,137.44-157.23,325.9h1887.48Z"/><line class="cls-2" x1="588.56" y1="3391.28" x2="1308.5" y2="3365.84"/><line class="cls-2" x1="592.32" y1="3515.08" x2="1285.54" y2="3493.77"/><g><g><g><g><path class="cls-13" d="m1479.76,1580.3l-78.66,331.71s-82.42,60.9-211.16,23.61c-128.74-37.29-94.47-110.76-94.47-110.76l128.49-495.07,255.8,250.52Z"/><path class="cls-16" d="m1129.45,1146.84c181.38-276.39,403.78-140.35,477.2,0,73.42,140.35,66.94,183.54,64.78,211.61-2.16,28.07-12.67,53.56-10.51,72.99,2.16,19.43,23.47,50.09-6.76,136.46-30.23,86.37-58.37,165.67-90.69,181.38-76.84,37.34-328.21-41.03-386.51-224.56-58.3-183.54-47.5-377.87-47.5-377.87Z"/><path class="cls-2" d="m1129.45,1146.84c181.38-276.39,403.78-140.35,477.2,0,73.42,140.35,66.94,183.54,64.78,211.61-2.16,28.07-12.67,53.56-10.51,72.99,2.16,19.43,23.47,50.09-6.76,136.46-30.23,86.37-58.37,165.67-90.69,181.38-20.5,9.96-53.42,11.69-91.77,5.38"/><path class="cls-18" d="m1412.31,967.62c327.07,76.32,241.84,321.73,166.26,468.56-75.57,146.83-421.74,304.46-540.5,17.27-118.76-287.18,115.13-546.3,374.24-485.84Z"/><path class="cls-18" d="m1116.16,840.68c127.88-50.64,231.71,7.9,280.92,60.07,73.89,78.33,52.85,224.04-81.94,291.44-126.16,63.08-262.35-7.41-305.28-101.97-33.49-73.77-22.74-198.43,106.3-249.53Z"/><path class="cls-4" d="m1439.06,1016.03c-2.41,65.87-42.32,135.35-123.91,176.15-81.6,40.8-167.4,25.72-229.45-15.61"/><path class="cls-16" d="m1579.94,1465.07c-7.44-138.86-128.96-29.81-82.95,82.3,46.01,112.11,88.78,26.57,82.95-82.3Z"/><path class="cls-2" d="m1576.81,1439.52c-20.46-98.07-122.61,3.57-79.81,107.85,26.81,65.33,52.52,63.54,68.16,29.13"/><line class="cls-2" x1="1528.84" y1="1461.64" x2="1563.25" y2="1531.22"/></g><path class="cls-2" d="m1019.17,1286.27c-9.74,392.61,197.25,323.33,197.25,323.33"/><path class="cls-2" d="m1155.58,1058.53c-225.13,86.41-161.92,403.11-161.92,403.11"/><line class="cls-2" x1="1471.69" y1="1614.32" x2="1440.01" y2="1747.9"/><path class="cls-2" d="m1390.43,965.61c288.24,1.37,247.26,244.52,247.26,244.52"/></g><path class="cls-15" d="m988.41,1857.86c77.53-125.81,413.07,7.57,521.15,131.33-205.41,106.91-606.55,22.56-521.15-131.33Z"/></g><path class="cls-2" d="m980.18,1922.32c237.95,67.71,510.72,52.23,510.72,52.23"/></g><g><path class="cls-16" d="m1489.28,2052.31c105.05-31.58,215.81,27.99,247.39,133.04,1.01,3.37,2.08,7.37,2.91,10.75l214.91,893.93,696.22-7.05c47.78-.48,86.9,37.85,87.38,85.63.43,41.99-110.03,73.34-110.03,73.34l-788.4,185.94c-77.21,16.17-152.99-29.73-175.5-103.79l-6.07-20.24-301.84-1004.16c-31.58-105.05,27.99-215.81,133.04-247.39Z"/><g><path class="cls-16" d="m2903.42,3198.09c8.34,0,16.66-3.28,22.86-9.8,12.02-12.62,11.53-32.6-1.09-44.62l-130.01-123.78c-7.96-7.58-18.25-11.83-29.89-7.64-36.15,9.45-96.71,69.51-96.71,69.51-16.84,4.49,3.82,20.56,20.68,16.07l75.21-20.04,117.21,111.59c6.11,5.81,13.94,8.7,21.76,8.7Z"/><path class="cls-2" d="m2903.42,3198.09c8.34,0,16.66-3.28,22.86-9.8,12.02-12.62,11.53-32.6-1.09-44.62l-130.01-123.78c-7.96-7.58-18.25-11.83-29.89-7.64-36.15,9.45-96.71,69.51-96.71,69.51-16.84,4.49,3.82,20.56,20.68,16.07l75.21-20.04,117.21,111.59c6.11,5.81,13.94,8.7,21.76,8.7Z"/><path class="cls-16" d="m2963.44,3189.6c8.34,0,16.66-3.28,22.86-9.8,12.02-12.62,11.53-32.6-1.09-44.62l-130.01-123.78c-7.96-7.58-18.25-11.83-29.89-7.64-36.15,9.45-96.71,69.51-96.71,69.51-16.84,4.49,3.82,20.56,20.68,16.07l75.21-20.04,117.21,111.59c6.11,5.81,13.94,8.7,21.76,8.7Z"/><path class="cls-2" d="m2824.48,3069.31l117.21,111.59c6.11,5.81,13.94,8.7,21.76,8.7,8.34,0,16.66-3.28,22.86-9.8,12.02-12.62,11.53-32.6-1.09-44.62l-130.01-123.78c-7.96-7.58-18.25-11.83-29.89-7.64-9.85,2.57-21.51,5.58-33.26,13.43"/><g><path class="cls-16" d="m2505.67,3198.09c88.71,41.68,145.56,62.43,190.77,46.53,27.13-9.54,189.35-172.45,189.35-172.45,0,0,20.48-63.35,10.43-65.41-19.02-3.92-226.66,58.74-312.02,76.9s-78.53,114.43-78.53,114.43Z"/><path class="cls-16" d="m3024.75,3192.46c8.34,0,16.66-3.28,22.86-9.8,12.02-12.62,11.53-32.6-1.09-44.62l-130.01-123.78c-7.96-7.58-19.28-10.46-29.89-7.64l-92.29,24.6c-16.84,4.49-26.85,21.78-22.37,38.62,4.49,16.84,21.77,26.86,38.62,22.37l75.21-20.04,117.21,111.59c6.11,5.81,13.94,8.7,21.76,8.7Z"/><path class="cls-2" d="m2811.87,3040.71l74.75-34.08c10.61-2.83,21.93.06,29.89,7.64l130.01,123.78c12.62,12.02,13.11,31.99,1.09,44.62-6.2,6.52-14.52,9.8-22.86,9.8-7.82,0-15.65-2.89-21.76-8.7l-117.21-111.59-163.45,154.35c-35.85,30.99-104.2,18.39-104.2,18.39"/></g></g><polyline class="cls-2" points="2346.51 3086.06 2584.19 3083.66 2698.09 3054.97 2734.18 3027.59"/></g><polygon class="cls-16" points="2219.08 3088.08 2346.51 3078.47 2401.8 3405.44 2202.93 3353.02 2219.08 3088.08"/><path class="cls-15" d="m2286.4,3068.66c-161.93-.71-318.05-1.4-318.05-1.4l-207.41-878.89c-1.09-4.53-2.46-9.68-3.84-14.19-36.79-120.58-164.37-188.5-284.94-151.7-120.58,36.79-188.5,164.37-151.7,284.94l306.07,1003.02,8.03,26.33c26,84.39,113,135.87,200.62,116.19,0,0,240.5-12.57,459.16-61.68l-7.93-322.62Z"/><polyline class="cls-2" points="1968.35 3067.26 2286.4 3068.66 2294.33 3391.28 1947.78 3444.07"/><line class="cls-2" x1="1415.2" y1="2555.38" x2="1550.94" y2="3038.92"/><line class="cls-2" x1="2346.51" y1="3078.47" x2="2401.8" y2="3405.44"/><path class="cls-2" d="m1509.56,2126.14c-221.66,127.31-94.36,429.24-94.36,429.24"/><polyline class="cls-2" points="1935.46 3148.32 1968.35 3067.26 1889.41 3086.06"/><path class="cls-9" d="m1405.6,3796.49c9.55-52.33,23.93-115.06,23.93-115.06l-66.13,52.79"/><line class="cls-2" x1="592.32" y1="2416.66" x2="508.51" y2="2595.93"/></g><g><line class="cls-9" x1="2393.68" y1="675" x2="2852.89" y2="675"/><line class="cls-9" x1="2393.68" y1="761.6" x2="2852.89" y2="761.6"/><line class="cls-9" x1="2393.68" y1="848.21" x2="2852.89" y2="848.21"/><line class="cls-9" x1="2393.68" y1="934.81" x2="2852.89" y2="934.81"/><line class="cls-9" x1="2393.68" y1="1021.42" x2="2647.87" y2="1021.42"/></g><line class="cls-2" x1="178.32" y1="3840.98" x2="3022.52" y2="3840.98"/><g><g><path class="cls-10" d="m4487.19,3167.97h-779.41c-55.54,0-100.99,45.44-100.99,100.99v144.94c0,55.54,45.44,100.99,100.99,100.99h23.39v90.13l90.13-90.13h665.89c55.54,0,100.99-45.44,100.99-100.99v-144.94c0-55.54-45.44-100.99-100.99-100.99Z"/><line class="cls-10" x1="3765.29" y1="3267.66" x2="4377.22" y2="3267.66"/><line class="cls-10" x1="3765.29" y1="3340.04" x2="4426.66" y2="3340.04"/><line class="cls-10" x1="3765.29" y1="3412.42" x2="4259.87" y2="3412.42"/></g><g><rect class="cls-10" x="3213.58" y="3650.45" width="377.79" height="243.32"/><polygon class="cls-10" points="3213.58 3650.45 3213.58 3893.77 3368.96 3772.11 3213.58 3650.45"/><polygon class="cls-10" points="3591.37 3650.45 3591.37 3893.77 3435.99 3772.11 3591.37 3650.45"/><path class="cls-10" d="m3591.37,3893.77h-377.79l145.48-146.65c23.92-24.11,62.91-24.11,86.83,0l145.48,146.65Z"/><path class="cls-10" d="m3213.58,3650.45h377.79l-145.48,146.65c-23.92,24.11-62.91,24.11-86.83,0l-145.48-146.65Z"/></g><g><path class="cls-10" d="m4005.92,2644.24c-23.92-24.11-62.91-24.11-86.83,0l-145.48,146.65h0v243.32h377.79v-243.32h0l-145.48-146.65Z"/><g><rect class="cls-10" x="3825.76" y="2662.09" width="273.48" height="354.74"/><line class="cls-10" x1="3908.99" y1="2718.78" x2="4051.6" y2="2718.78"/><line class="cls-10" x1="3872.79" y1="2755.24" x2="4051.6" y2="2755.24"/><line class="cls-10" x1="3872.79" y1="2791.7" x2="4051.6" y2="2791.7"/><line class="cls-10" x1="3872.79" y1="2828.16" x2="4051.6" y2="2828.16"/><line class="cls-10" x1="3872.79" y1="2864.63" x2="4051.6" y2="2864.63"/><line class="cls-10" x1="3872.79" y1="2901.09" x2="4051.6" y2="2901.09"/></g><g><polygon class="cls-10" points="3773.61 2790.89 3773.61 3034.21 3928.99 2912.55 3773.61 2790.89"/><polygon class="cls-10" points="4151.4 2790.89 4151.4 3034.21 3996.02 2912.55 4151.4 2790.89"/><path class="cls-10" d="m4151.4,3034.21h-377.79l145.48-146.65c23.92-24.11,62.91-24.11,86.83,0l145.48,146.65Z"/></g></g><g><circle class="cls-10" cx="3003.87" cy="3568.28" r="136.84" transform="translate(-1643.34 3169.18) rotate(-45)"/><g><circle class="cls-10" cx="2956.1" cy="3568.28" r="15.33" transform="translate(-533.41 519.59) rotate(-9.22)"/><circle class="cls-10" cx="3003.87" cy="3568.28" r="15.33"/><circle class="cls-10" cx="3051.64" cy="3568.28" r="15.33" transform="translate(-532.17 534.9) rotate(-9.22)"/></g></g><g><g><circle class="cls-10" cx="4515.78" cy="3139.87" r="136.84"/><path class="cls-10" d="m4567.18,3211.82c-.75-31.29-19.64-57.55-45.18-65.85,2.28-1.39,4.42-3.05,6.36-4.99,6.31-6.32,9.78-14.69,9.78-23.58-.01-18.39-14.98-33.35-33.37-33.35-8.9,0-17.27,3.48-23.58,9.79-6.31,6.31-9.78,14.69-9.78,23.59,0,12.08,6.47,22.69,16.13,28.54-10.06,3.26-19.28,9.35-26.9,17.96-11.39,12.88-17.84,29.82-18.27,47.91h124.81Z"/></g><line class="cls-10" x1="4576.55" y1="3077.62" x2="4576.55" y2="3111.25"/><line class="cls-10" x1="4559.73" y1="3094.43" x2="4593.36" y2="3094.43"/></g><g><circle class="cls-10" cx="1995.16" cy="2555.38" r="15.33" transform="translate(-383.56 352.59) rotate(-9.22)"/><circle class="cls-10" cx="2042.93" cy="2555.38" r="15.33"/><circle class="cls-10" cx="2090.71" cy="2555.38" r="15.33" transform="translate(-818.75 994.59) rotate(-22.5)"/></g></g><g><path class="cls-7" d="m456.68,3800.7c53.08,16.3,111.54,28.02,175.78,34.47,17.26,1.73,34.92,3.1,53,4.06,21.72,1.15,44.06,1.75,67.01,1.75,1108.12,0,216.77-1462.35-329.39-1462.35-369.73,0-733.44,1186.77,33.59,1422.06Z"/><path class="cls-2" d="m341.2,2459.21c130.77-146.24,779.08,325.3,828.57,975.9"/><path class="cls-11" d="m379.4,3284.41l77.28,516.29c67.31,20.67,143.3,33.99,228.79,38.53l-83.05-554.82c-3.5-23.38-16.29-44.65-34.06-60.06-17.77-15.41-40.53-24.99-63.99-24.99h-52.4c-46.91,0-79.58,38.27-72.58,85.06Z"/><path class="cls-9" d="m632.46,3835.17l-82.44-550.76c-5.23-34.95-31.16-65.14-63.5-78.18"/></g></g></svg>