<?xml version="1.0" encoding="UTF-8"?><svg id="Layer_2" xmlns="http://www.w3.org/2000/svg" viewBox="0 0 4536.97 3919.93"><defs><style>.cls-1,.cls-2,.cls-3{fill:#fff;}.cls-4{stroke-dasharray:0 0 29.49 29.49;}.cls-4,.cls-5,.cls-6,.cls-7,.cls-8,.cls-9,.cls-2,.cls-3,.cls-10{stroke-linecap:round;stroke-linejoin:round;stroke-width:10px;}.cls-4,.cls-5,.cls-6,.cls-7,.cls-9{fill:none;}.cls-4,.cls-5,.cls-9,.cls-2{stroke:#c1c7d7;}.cls-5{stroke-dasharray:0 0 27.31 27.31;}.cls-6,.cls-8,.cls-3,.cls-10{stroke:#2e2e2e;}.cls-7{stroke:#fff;}.cls-11,.cls-8{fill:#c1c7d7;}.cls-12,.cls-10{fill:#203058;}.cls-13{fill:#2e2e2e;}</style></defs><g id="Layer_1-2"><g><g><g><path class="cls-2" d="m4006.48,185.49H1919.08v464.66c0,88.8,93.26,146.17,172.87,106.83,59.33-29.32,126.13-45.79,196.79-45.79,245.66,0,444.81,199.15,444.81,444.81s-199.15,444.81-444.81,444.81c-70.65,0-137.46-16.47-196.79-45.79-79.61-39.34-172.87,18.03-172.87,106.83v430.4h2087.4c40.76,0,73.8-33.04,73.8-73.8V259.3c0-40.76-33.04-73.8-73.8-73.8Z"/><g><line class="cls-9" x1="1919.08" y1="356.05" x2="4080.28" y2="356.05"/><g><rect class="cls-9" x="3744.97" y="251.09" width="64.65" height="64.65"/><polyline class="cls-9" points="3761.02 251.09 3761.02 235.04 3825.67 235.04 3825.67 299.69 3809.62 299.69"/></g><line class="cls-9" x1="3929.53" y1="275.73" x2="3992.06" y2="275.73"/><line class="cls-9" x1="3960.79" y1="244.47" x2="3960.79" y2="306.99"/></g></g><g><line class="cls-9" x1="2719.48" y1="1267.46" x2="3987.22" y2="1267.46"/><line class="cls-9" x1="2560.57" y1="448.66" x2="2560.57" y2="802.57"/><line class="cls-9" x1="2560.57" y1="726.32" x2="3987.22" y2="726.32"/><line class="cls-9" x1="2704.37" y1="996.89" x2="3987.22" y2="996.89"/><g><line class="cls-9" x1="2721.39" y1="1052.23" x2="2732.04" y2="1041.67"/><line class="cls-5" x1="2751.43" y1="1022.45" x2="2896.88" y2="878.24"/><polyline class="cls-9" points="2906.58 868.62 2917.23 858.06 2932.14 859.76"/><polyline class="cls-4" points="2961.44 863.1 3273.9 898.75 3630.56 619.74 3958.42 534.84"/><line class="cls-9" x1="3972.7" y1="531.14" x2="3987.22" y2="527.38"/></g><polyline class="cls-9" points="2731.39 1111.84 2917.23 1086.64 3273.9 779.01 3630.56 951.48 3987.22 809.35"/><circle class="cls-11" cx="2917.23" cy="858.06" r="16.31" transform="translate(247.7 2314.12) rotate(-45)"/><circle class="cls-11" cx="3273.9" cy="780.25" r="16.31" transform="translate(1979.3 3886.89) rotate(-80.78)"/><circle class="cls-11" cx="3630.48" cy="950.31" r="16.31" transform="translate(1871.48 4265.33) rotate(-76.72)"/><circle class="cls-11" cx="3630.48" cy="619.69" r="16.31"/><circle class="cls-11" cx="3987.22" cy="809.07" r="16.31" transform="translate(2283.72 4503.74) rotate(-76.72)"/><circle class="cls-11" cx="3987.22" cy="527.38" r="16.31" transform="translate(2557.87 4286.77) rotate(-76.72)"/><circle class="cls-11" cx="3273.04" cy="899.01" r="16.31" transform="translate(1861.36 3985.77) rotate(-80.78)"/><circle class="cls-11" cx="2917.23" cy="1084.9" r="16.31"/><rect class="cls-2" x="2747.14" y="445.52" width="366.12" height="81.86" rx="40.93" ry="40.93" transform="translate(5860.41 972.91) rotate(180)"/><rect class="cls-2" x="3023.35" y="1090.83" width="454.89" height="81.86" rx="40.93" ry="40.93"/><path class="cls-9" d="m3113.27,486.45h62.67c54.61,0,98.88,44.27,98.88,98.88v194.92"/><path class="cls-9" d="m3478.24,1131.76h56.95c52.63,0,95.29-42.66,95.29-95.29v-86.17"/><line class="cls-9" x1="3079.12" y1="1131.76" x2="3338.91" y2="1131.76"/><line class="cls-9" x1="3063.79" y1="486.45" x2="2893.07" y2="486.45"/></g><g><line class="cls-9" x1="1989.57" y1="448.66" x2="2443.05" y2="448.66"/><line class="cls-9" x1="1989.57" y1="511.07" x2="2373.29" y2="511.07"/><line class="cls-9" x1="1989.57" y1="573.49" x2="2412.53" y2="573.49"/><line class="cls-9" x1="1989.57" y1="635.9" x2="2296.98" y2="635.9"/></g><g><line class="cls-9" x1="2560.57" y1="1697.14" x2="3113.35" y2="1697.14"/><line class="cls-9" x1="2560.57" y1="1759.55" x2="3028.31" y2="1759.55"/><line class="cls-9" x1="2560.57" y1="1821.97" x2="3076.14" y2="1821.97"/><line class="cls-9" x1="2560.57" y1="1884.38" x2="2935.29" y2="1884.38"/></g><g><line class="cls-9" x1="3378.02" y1="1697.14" x2="3930.8" y2="1697.14"/><line class="cls-9" x1="3378.02" y1="1759.55" x2="3845.76" y2="1759.55"/><line class="cls-9" x1="3378.02" y1="1821.97" x2="3893.59" y2="1821.97"/><line class="cls-9" x1="3378.02" y1="1884.38" x2="3752.74" y2="1884.38"/></g><g><line class="cls-9" x1="3378.02" y1="1408.47" x2="3930.8" y2="1408.47"/><line class="cls-9" x1="3378.02" y1="1470.89" x2="3845.76" y2="1470.89"/></g><line class="cls-9" x1="2655.01" y1="1408.47" x2="2999.68" y2="1408.47"/><line class="cls-9" x1="2606.64" y1="1468.38" x2="3076.14" y2="1468.38"/><line class="cls-9" x1="2560.57" y1="2007.08" x2="3987.22" y2="2007.08"/></g><g><g><path class="cls-11" d="m348.67,84.94c-40.76,0-73.8,33.04-73.8,73.8v1759.15c0,40.76,33.04,73.8,73.8,73.8h1578.83v-412.6c0-88.8,93.26-146.16,172.87-106.83,59.33,29.32,126.13,45.79,196.79,45.79,245.66,0,444.81-199.15,444.81-444.81s-199.15-444.81-444.81-444.81c-70.65,0-137.46,16.47-196.79,45.79-79.61,39.34-172.87-18.03-172.87-106.83V84.94H348.67Z"/><circle class="cls-7" cx="372.45" cy="170.62" r="32.49" transform="translate(144.92 511.3) rotate(-80.88)"/><circle class="cls-7" cx="490.14" cy="170.62" r="32.49" transform="translate(235.52 622.86) rotate(-79.81)"/><circle class="cls-7" cx="607.84" cy="170.62" r="32.49" transform="translate(342.99 743.72) rotate(-80.88)"/><polyline class="cls-7" points="821.36 197.01 791.93 167.57 821.36 138.13"/><polyline class="cls-7" points="899.47 138.13 928.91 167.57 899.47 197.01"/></g><g><rect class="cls-1" x="452.33" y="409.64" width="329.1" height="49.11" rx="24.56" ry="24.56"/><rect class="cls-1" x="832.3" y="409.64" width="438.94" height="49.11" rx="24.56" ry="24.56"/><rect class="cls-1" x="452.33" y="504.95" width="667.38" height="49.11" rx="24.56" ry="24.56"/><rect class="cls-1" x="1174.73" y="504.95" width="168.46" height="49.11" rx="24.56" ry="24.56"/><rect class="cls-1" x="1433.21" y="504.95" width="384.96" height="49.11" rx="24.56" ry="24.56"/><path class="cls-1" d="m753.15,1873.09h-276.26c-13.56,0-24.56-10.99-24.56-24.56h0c0-13.56,10.99-24.56,24.56-24.56h276.26c13.56,0,24.56,10.99,24.56,24.56h0c0,13.56-10.99,24.56-24.56,24.56Z"/><path class="cls-1" d="m887.19,649.37h-328.96c-13.56,0-24.56-10.99-24.56-24.56h0c0-13.56,10.99-24.56,24.56-24.56h328.96c13.56,0,24.56,10.99,24.56,24.56h0c0,13.56-10.99,24.56-24.56,24.56Z"/><path class="cls-1" d="m1390.36,649.37h-410.81c-13.56,0-24.56-10.99-24.56-24.56h0c0-13.56,10.99-24.56,24.56-24.56h410.81c13.56,0,24.56,10.99,24.56,24.56h0c0,13.56-10.99,24.56-24.56,24.56Z"/><path class="cls-1" d="m943.22,744.67h-303.64c-13.56,0-24.56-10.99-24.56-24.56h0c0-13.56,10.99-24.56,24.56-24.56h303.64c13.56,0,24.56,10.99,24.56,24.56h0c0,13.56-10.99,24.56-24.56,24.56Z"/><path class="cls-1" d="m857.74,839.98h-218.16c-13.56,0-24.56-10.99-24.56-24.56h0c0-13.56,10.99-24.56,24.56-24.56h218.16c13.56,0,24.56,10.99,24.56,24.56h0c0,13.56-10.99,24.56-24.56,24.56Z"/><path class="cls-1" d="m943.22,935.28h-303.64c-13.56,0-24.56-10.99-24.56-24.56h0c0-13.56,10.99-24.56,24.56-24.56h303.64c13.56,0,24.56,10.99,24.56,24.56h0c0,13.56-10.99,24.56-24.56,24.56Z"/><path class="cls-1" d="m1124.85,1520.08h-485.28c-13.56,0-24.56-10.99-24.56-24.56h0c0-13.56,10.99-24.56,24.56-24.56h485.28c13.56,0,24.56,10.99,24.56,24.56h0c0,13.56-10.99,24.56-24.56,24.56Z"/><rect class="cls-1" x="615.02" y="1566.27" width="393.46" height="49.11" rx="24.56" ry="24.56"/><path class="cls-1" d="m654.22,1764.82h-177.33c-13.56,0-24.56-10.99-24.56-24.56h0c0-13.56,10.99-24.56,24.56-24.56h177.33c13.56,0,24.56,10.99,24.56,24.56h0c0,13.56-10.99,24.56-24.56,24.56Z"/><path class="cls-1" d="m1643.82,1764.82h-177.33c-13.56,0-24.56-10.99-24.56-24.56h0c0-13.56,10.99-24.56,24.56-24.56h177.33c13.56,0,24.56,10.99,24.56,24.56h0c0,13.56-10.99,24.56-24.56,24.56Z"/><path class="cls-1" d="m1757.29,744.67h-330.09c-13.56,0-24.56-10.99-24.56-24.56h0c0-13.56,10.99-24.56,24.56-24.56h330.09c13.56,0,24.56,11,24.56,24.56h0c0,13.56-10.99,24.56-24.56,24.56Z"/><path class="cls-1" d="m1627.04,839.98h-199.84c-13.56,0-24.56-10.99-24.56-24.56h0c0-13.56,10.99-24.56,24.56-24.56h199.84c13.56,0,24.56,11,24.56,24.56h0c0,13.56-11,24.56-24.56,24.56Z"/><rect class="cls-1" x="1402.64" y="886.17" width="303.91" height="49.11" rx="24.56" ry="24.56"/><path class="cls-1" d="m1945.46,744.67h-18.55c-13.56,0-24.56-10.99-24.56-24.56h0c0-13.56,10.99-24.56,24.56-24.56h18.55c13.56,0,24.56,10.99,24.56,24.56h0c0,13.56-10.99,24.56-24.56,24.56Z"/><path class="cls-1" d="m2124.78,839.98h-197.87c-13.56,0-24.56-10.99-24.56-24.56h0c0-13.56,10.99-24.56,24.56-24.56h197.87c13.56,0,24.56,10.99,24.56,24.56h0c0,13.56-10.99,24.56-24.56,24.56Z"/><path class="cls-1" d="m2307.14,839.98h-74.67c-13.56,0-24.56-10.99-24.56-24.56h0c0-13.56,10.99-24.56,24.56-24.56h74.67c13.56,0,24.56,10.99,24.56,24.56h0c0,13.56-10.99,24.56-24.56,24.56Z"/><path class="cls-1" d="m2424.72,935.28h-497.81c-13.56,0-24.56-10.99-24.56-24.56h0c0-13.56,10.99-24.56,24.56-24.56h497.81c13.56,0,24.56,10.99,24.56,24.56h0c0,13.56-10.99,24.56-24.56,24.56Z"/><rect class="cls-1" x="533.68" y="981.48" width="486.39" height="49.11" rx="24.56" ry="24.56"/><rect class="cls-1" x="1080.13" y="981.48" width="434.09" height="49.11" rx="24.56" ry="24.56"/><path class="cls-1" d="m1284.9,1125.9h-645.32c-13.56,0-24.56-10.99-24.56-24.56h0c0-13.56,10.99-24.56,24.56-24.56h645.32c13.56,0,24.56,10.99,24.56,24.56h0c0,13.56-10.99,24.56-24.56,24.56Z"/><path class="cls-1" d="m1930.62,1125.9h-522.63c-13.56,0-24.56-10.99-24.56-24.56h0c0-13.56,10.99-24.56,24.56-24.56h522.63c13.56,0,24.56,10.99,24.56,24.56h0c0,13.56-10.99,24.56-24.56,24.56Z"/><path class="cls-1" d="m996.2,1221.2h-275.28c-13.56,0-24.56-10.99-24.56-24.56h0c0-13.56,10.99-24.56,24.56-24.56h275.28c13.56,0,24.56,10.99,24.56,24.56h0c0,13.56-10.99,24.56-24.56,24.56Z"/><rect class="cls-1" x="622.56" y="1267.4" width="519.47" height="49.11" rx="24.56" ry="24.56"/><rect class="cls-1" x="1438.7" y="1267.4" width="253.96" height="49.11" rx="24.56" ry="24.56"/><rect class="cls-1" x="533.68" y="1362.7" width="392.8" height="49.11" rx="24.56" ry="24.56"/><rect class="cls-1" x="1438.7" y="1362.7" width="356.69" height="49.11" rx="24.56" ry="24.56"/></g><g><rect class="cls-2" x="5" y="726.89" width="453.47" height="453.47" rx="62.13" ry="62.13"/><g><path class="cls-9" d="m156.55,1031.15c-56.57-38.45-114.07-77.53-114.07-77.53,0,0,57.5-39.08,114.07-77.53"/><path class="cls-9" d="m306.92,876.1c56.57,38.45,114.07,77.53,114.07,77.53,0,0-57.5,39.08-114.07,77.53"/><line class="cls-9" x1="274.87" y1="857.94" x2="188.59" y2="1049.31"/></g></g><line class="cls-7" x1="274.87" y1="251.75" x2="1927.5" y2="251.75"/><g><rect class="cls-2" x="1402.64" y="5" width="453.47" height="453.47" rx="62.13" ry="62.13"/><g><path class="cls-9" d="m1531.46,77.63h0c-20.35,0-36.85,16.5-36.85,36.85v80.4c0,20.35-16.5,36.85-36.85,36.85h0c20.35,0,36.85,16.5,36.85,36.85v80.41c0,20.35,16.5,36.85,36.85,36.85"/><path class="cls-9" d="m1727.28,385.83h0c20.35,0,36.85-16.5,36.85-36.85v-80.41c0-20.35,16.5-36.85,36.85-36.85h0c-20.35,0-36.85-16.5-36.85-36.85v-80.4c0-20.35-16.5-36.85-36.85-36.85"/><g><line class="cls-9" x1="1552.59" y1="298.68" x2="1552.59" y2="311.09"/><line class="cls-9" x1="1630.39" y1="298.68" x2="1630.39" y2="311.09"/><line class="cls-9" x1="1708.18" y1="298.68" x2="1708.18" y2="311.09"/></g></g></g></g><g><rect class="cls-2" x="2018.25" y="1756.52" width="453.47" height="453.47" rx="62.13" ry="62.13"/><g><path class="cls-2" d="m2409.78,2005.27c.29-4.01.44-8.05.44-12.13s-.15-8.12-.44-12.13l-30.81-7.71c-1.53-10.43-4.25-20.47-8.01-29.99l22.83-22.09c-3.54-7.31-7.61-14.33-12.15-20.99l-30.56,8.73c-6.45-8.12-13.81-15.48-21.93-21.93l8.73-30.56c-6.66-4.54-13.68-8.6-20.99-12.15l-22.09,22.83c-9.51-3.77-19.56-6.48-29.99-8.01l-7.71-30.81c-4.01-.29-8.05-.44-12.13-.44s-8.12.15-12.13.44l-7.71,30.81c-10.43,1.53-20.47,4.25-29.99,8.01l-22.09-22.83c-7.31,3.54-14.33,7.61-20.99,12.15l8.73,30.56c-8.12,6.45-15.48,13.81-21.93,21.93l-30.56-8.73c-4.54,6.66-8.6,13.68-12.15,20.99l22.83,22.09c-3.77,9.51-6.48,19.56-8.01,29.99l-30.81,7.71c-.29,4.01-.44,8.05-.44,12.13s.15,8.12.44,12.13l30.81,7.71c1.53,10.43,4.25,20.47,8.01,29.99l-22.83,22.09c3.54,7.31,7.61,14.33,12.15,20.99l30.56-8.73c6.45,8.12,13.81,15.48,21.93,21.93l-8.73,30.56c6.66,4.54,13.68,8.6,20.99,12.15l22.09-22.83c9.51,3.77,19.56,6.48,29.99,8.01l7.71,30.81c4.01.29,8.05.44,12.13.44s8.12-.15,12.13-.44l7.71-30.81c10.43-1.53,20.47-4.25,29.99-8.01l22.09,22.83c7.31-3.54,14.33-7.61,20.99-12.15l-8.73-30.56c8.12-6.45,15.48-13.81,21.93-21.93l30.56,8.73c4.54-6.66,8.6-13.68,12.15-20.99l-22.83-22.09c3.77-9.51,6.48-19.56,8.01-29.99l30.81-7.71Z"/><circle class="cls-2" cx="2244.98" cy="1993.14" r="80"/></g></g><g><rect class="cls-2" x="2477.64" y="129.31" width="453.47" height="453.47" rx="62.13" ry="62.13"/><g><g><line class="cls-2" x1="2587.21" y1="318.39" x2="2587.21" y2="393.71"/><line class="cls-2" x1="2554.6" y1="337.22" x2="2619.83" y2="374.88"/><line class="cls-2" x1="2554.6" y1="374.88" x2="2619.83" y2="337.22"/></g><g><line class="cls-2" x1="2704.37" y1="318.39" x2="2704.37" y2="393.71"/><line class="cls-2" x1="2671.76" y1="337.22" x2="2736.99" y2="374.88"/><line class="cls-2" x1="2671.76" y1="374.88" x2="2736.99" y2="337.22"/></g><g><line class="cls-2" x1="2821.53" y1="318.39" x2="2821.53" y2="393.71"/><line class="cls-2" x1="2788.92" y1="337.22" x2="2854.14" y2="374.88"/><line class="cls-2" x1="2788.92" y1="374.88" x2="2854.14" y2="337.22"/></g></g></g></g><g><g><path class="cls-1" d="m2122.48,3914.93c-26.95-124.19-55.12-253.97-55.12-253.97l-629.82-742.89s126.06,460.73,350.51,996.86h334.43Z"/><path class="cls-6" d="m2122.48,3914.93c-26.95-124.19-55.12-253.97-55.12-253.97l-629.82-742.89s126.06,460.73,350.51,996.86"/><g><path class="cls-1" d="m1156.76,3914.93c-28.4-159.62-47.68-267.94-47.68-267.94,0,0,1.16-441.68,1.16-767.36h342.26c10.85,188.54,11.11,606.62,40.35,1035.3h-336.09Z"/><path class="cls-6" d="m1156.76,3914.93c-28.4-159.62-47.68-267.94-47.68-267.94,0,0,1.16-441.68,1.16-767.36h342.26c10.85,188.54,11.11,606.62,40.35,1035.3"/></g><path class="cls-12" d="m2122.1,3801.41l-1020.32,10.83c-87.16-441.82,40.93-1171.93,40.93-1171.93l632.1-35.92s274.31,756.39,347.29,1197.02Z"/><line class="cls-6" x1="1352.61" y1="2768.43" x2="1437.54" y2="3752.79"/></g><path class="cls-6" d="m2122.1,3801.41l-1020.32,10.83s-37.06-374.75-12.83-631.38"/><g><path class="cls-13" d="m1354.83,943.05c57.93-128.76-53.39-212.19-159.81-176.87-106.42,35.32-135.79,193.05-128.21,375.62,7.58,182.57-141.7,68.27-210.42,244.02-68.72,175.75,195.02,356.89,320.83,315.95,57.96-18.86,178.66-107.42,128.93-351.19,79.52-178.52,48.68-407.54,48.68-407.54Z"/><path class="cls-6" d="m1210.59,777.97c-108.94,26.54-151.06,181.35-158.38,363.93-7.32,182.58-162.3,53.82-245.11,223.38"/></g><path class="cls-6" d="m1823.71,2666.72c-217.25,102.64-598.62,121.25-664.76,84.04"/><path class="cls-1" d="m1575.48,1871.54c-481.81,12.34-320.39-350.88-238.11-362.26,82.28-11.38,215.51-32.46,341.93,0,126.42,32.46,370.22,350.12-103.82,362.26Z"/><line class="cls-6" x1="1568.63" y1="2046.54" x2="1329.35" y2="2035.13"/><g><path class="cls-11" d="m1898.05,1614.97c-101.57-29.02-110.29-51.76-175.03-79.61-50.79,202.91-434.77,129.22-448.47,12.11-106.22,37.63-202.4,34.62-235.27,67.5-46.81,46.81,70.09,388.68,72.55,607.94,1.39,123.4,30.87,417.39,30.87,417.39,0,0,33.66,79.89,275.09,50.33,241.43-29.56,366.98-77.53,369.45-84.92,2.46-7.39,266.02-946.4,110.81-990.75Z"/><path class="cls-6" d="m1861.39,1738.28c-107.32,137.01-285.92,223.78-285.92,223.78"/></g><path class="cls-10" d="m1337.36,1509.28c-150.84,238.33-126.1,1253.11-154.16,1418.31-31.08,182.97-84.17,216.37-84.17,216.37,0,0-15.38,6.17-70.81-33.4,25.48-108.96,86.62-263.48,86.62-500.77,0-275.34-65.12-533.2-65.12-533.2,0,0-104.24-421.15-19.27-476.81,35.76-23.43,306.91-90.48,306.91-90.48Z"/><path class="cls-10" d="m1679.29,1509.28c82.36,376.03,95.51,1095.11,95.51,1095.11l126.71,543.03s41.28-16.48,62.4-88.89c21.12-72.4-104.64-393.81-107.65-529.56-3.02-135.76,227.24-463.71,227.24-463.71,0,0-77.45-425.63-146.83-470.88-69.39-45.25-257.37-85.09-257.37-85.09Z"/><path class="cls-6" d="m1742.85,2788.66c23.79,142.96,122.77,200.18,122.77,200.18"/><path class="cls-6" d="m1742.85,2624.83c-251.52,72.37-430.79,73.55-445.35,72.37"/><path class="cls-6" d="m1679.29,1509.28c114.24,93.03,172.97,216.32,172.97,216.32l-73.19,41.17,73.19,36.82s-100.52,396.98-88.42,574.05"/><path class="cls-6" d="m1321.02,1515.46c-104.74,91.76-154.14,194.72-154.14,194.72l59.25,46.04-67.18,47.37,30.52,372.44"/><g><rect class="cls-1" x="1372.6" y="1177.55" width="248.34" height="416.82" transform="translate(2993.54 2771.92) rotate(180)"/><line class="cls-3" x1="1620.94" y1="1566.78" x2="1620.94" y2="1193.56"/><line class="cls-3" x1="1372.6" y1="1566.78" x2="1372.6" y2="1193.56"/></g><path class="cls-8" d="m729.71,2320.42c33.92-6.04,59.71-32.67,65.77-65.59v-458.42h1798.39v458.42c6.06,32.92,31.85,59.55,65.77,65.59,178.07,31.71,313.27,187.32,313.27,374.5s-135.2,342.79-313.27,374.5c-33.92,6.04-59.71,32.68-65.77,65.59v458.42H795.48v-458.42c-6.06-32.91-31.85-59.55-65.77-65.59-178.07-31.71-313.27-187.32-313.27-374.5s135.2-342.79,313.27-374.5Z"/><g><path class="cls-13" d="m1302.61,1000.24c23.55-170.03,263.51-233.33,374.34-149.71,109.72,82.78,67.93,262.2-73.63,297.7-141.56,35.5-300.7-147.99-300.7-147.99Z"/><g><g><path class="cls-1" d="m1434.67,854.02c-319.34,159.67,38.11,562.79,278.98,487.24,37.93-11.9,47.33-192.76-11.34-315.99-59.65-125.28-126.99-241.57-267.63-171.25Z"/><path class="cls-6" d="m1512.57,1314.02c65.38,33.69,137.32,47.24,201.08,27.24,37.93-11.9,47.33-192.76-11.34-315.99-59.65-125.28-126.99-241.57-267.63-171.25"/><path class="cls-13" d="m1561.1,1078.79c-22.42-6.73-19.6,32.66,2.43,30.98s6.91-28.18-2.43-30.98Z"/><path class="cls-13" d="m1680.88,1036.93c-22.42-6.73-19.6,32.66,2.43,30.98,22.03-1.68,6.91-28.18-2.43-30.98Z"/><path class="cls-6" d="m1674.03,986.38c-33.12-6.83-60.03,16.08-60.03,16.08"/><path class="cls-6" d="m1539.08,1030.31c-34.76,8.42-52.28,45.07-52.28,45.07"/><path class="cls-6" d="m1590.46,1048.22c41.25,59.17,67.7,87.28,67.7,87.28,0,0,5.44,14.55-13.27,27.6"/></g><g><g><g><path class="cls-6" d="m1592.84,939.68c-46.59-30.32-127.95,2.96-153.09-21.45"/><path class="cls-13" d="m1652.74,933.77c-68.78-96.88-159.75,17.01-213-15.53,32.54,57.69-30.71,128.72-30.71,128.72,0,0-21.81,34.89,31.31,161.63l-69.63,78.13s-50.73-76.03-99.54-181.05c-48.81-105.02-26.73-213.65,104.94-286.89,131.68-73.24,275.15,8.49,276.63,114.99Z"/></g><path class="cls-7" d="m1347.22,836.47c-77.71,49.25-76.04,118.38-76.04,118.38"/></g><g><path class="cls-1" d="m1461.17,1200.71c13.41-73.88-116.66-105.92-118.48-45.96-1.82,59.95,105.93,115.09,118.48,45.96Z"/><line class="cls-6" x1="1430.98" y1="1184.18" x2="1377.95" y2="1159.96"/><path class="cls-6" d="m1425.2,1135.03c-34.68-19.08-81.43-16.05-82.51,19.72-1.56,51.34,77.24,99.15,107.79,68.41"/></g></g></g><path class="cls-6" d="m1606.36,1216.14s51.79,11.27,95.54-.57"/></g><g><path class="cls-3" d="m888.58,1796.41l188.02-.21s18.49-65.37,10.14-63.9c-67.84,2.42-118.89,28.69-161.32,4.89-14.1,9.47-36.84,59.22-36.84,59.22Z"/><path class="cls-3" d="m976.17,1876.93h0c11.57-3.08,18.45-14.95,15.37-26.52l-28.07-105.52c-3.08-11.57-14.95-18.45-26.52-15.37h0c-11.57,3.08-18.45,14.95-15.37,26.52l28.07,105.52c3.08,11.57,14.95,18.45,26.52,15.37Z"/><path class="cls-1" d="m1011.98,1889.67h0c11.8-2.03,19.72-13.24,17.69-25.03l-22.38-130.16c-2.03-11.8-13.24-19.72-25.03-17.69h0c-11.8,2.03-19.72,13.24-17.69,25.03l22.38,130.16c2.03,11.8,13.24,19.72,25.03,17.69Z"/><path class="cls-3" d="m1007.28,1734.48c-2.03-11.8-13.24-19.72-25.03-17.69h0c-11.8,2.03-19.72,13.24-17.69,25.03l22.38,130.16c2.03,11.8,13.24,19.72,25.03,17.69h0c11.8-2.03,19.72-13.24,17.69-25.03"/><path class="cls-1" d="m1067.13,1880.45h0c11.69,2.58,23.26-4.8,25.84-16.48l23.57-106.61c2.58-11.69-4.8-23.26-16.48-25.84h0c-11.69-2.58-23.26,4.8-25.84,16.48l-23.57,106.61c-2.58,11.69,4.8,23.26,16.48,25.84Z"/><path class="cls-6" d="m1050.64,1854.61c-2.58,11.69,4.8,23.26,16.48,25.84h0c11.69,2.58,23.26-4.8,25.84-16.48l23.57-106.61c2.58-11.69-4.8-23.26-16.48-25.84h0c-11.69-2.58-23.26,4.8-25.84,16.48"/><path class="cls-1" d="m1056.98,1893.57h0c11.8-2.03,19.72-13.24,17.69-25.03l-22.38-130.16c-2.03-11.8-13.24-19.72-25.03-17.69h0c-11.8,2.03-19.72,13.24-17.69,25.03l22.38,130.16c2.03,11.8,13.24,19.72,25.03,17.69Z"/><path class="cls-3" d="m1016.55,1785.39l15.39,90.5c2.03,11.8,13.24,19.72,25.03,17.69h0c11.8-2.03,19.72-13.24,17.69-25.03l-15.35-88.13"/></g><g><path class="cls-3" d="m2143.02,1796.41l-188.02-.21s-18.49-65.37-10.14-63.9c67.84,2.42,118.89,28.69,161.32,4.89,14.1,9.47,36.84,59.22,36.84,59.22Z"/><path class="cls-3" d="m2055.43,1876.93h0c-11.57-3.08-18.45-14.95-15.37-26.52l28.07-105.52c3.08-11.57,14.95-18.45,26.52-15.37h0c11.57,3.08,18.45,14.95,15.37,26.52l-28.07,105.52c-3.08,11.57-14.95,18.45-26.52,15.37Z"/><path class="cls-1" d="m2019.62,1889.67h0c-11.8-2.03-19.72-13.24-17.69-25.03l22.38-130.16c2.03-11.8,13.24-19.72,25.03-17.69h0c11.8,2.03,19.72,13.24,17.69,25.03l-22.38,130.16c-2.03,11.8-13.24,19.72-25.03,17.69Z"/><path class="cls-3" d="m2024.32,1734.48c2.03-11.8,13.24-19.72,25.03-17.69h0c11.8,2.03,19.72,13.24,17.69,25.03l-22.38,130.16c-2.03,11.8-13.24,19.72-25.03,17.69h0c-11.8-2.03-19.72-13.24-17.69-25.03"/><path class="cls-1" d="m1964.47,1880.45h0c-11.69,2.58-23.26-4.8-25.84-16.48l-23.57-106.61c-2.58-11.69,4.8-23.26,16.48-25.84h0c11.69-2.58,23.26,4.8,25.84,16.48l23.57,106.61c2.58,11.69-4.8,23.26-16.48,25.84Z"/><path class="cls-6" d="m1980.96,1854.61c2.58,11.69-4.8,23.26-16.48,25.84h0c-11.69,2.58-23.26-4.8-25.84-16.48l-23.57-106.61c-2.58-11.69,4.8-23.26,16.48-25.84h0c11.69-2.58,23.26,4.8,25.84,16.48"/><path class="cls-1" d="m1974.62,1893.57h0c-11.8-2.03-19.72-13.24-17.69-25.03l22.38-130.16c2.03-11.8,13.24-19.72,25.03-17.69h0c11.8,2.03,19.72,13.24,17.69,25.03l-22.38,130.16c-2.03,11.8-13.24,19.72-25.03,17.69Z"/><path class="cls-3" d="m2015.04,1785.39l-15.4,90.5c-2.03,11.8-13.24,19.72-25.03,17.69h0c-11.8-2.03-19.72-13.24-17.69-25.03l15.35-88.13"/><path class="cls-3" d="m1979.31,1738.38c2.03-11.8,13.24-19.72,25.03-17.69h0c11.8,2.03,19.72,13.24,17.69,25.03"/></g><path class="cls-3" d="m1052.29,1738.38c-2.03-11.8-13.24-19.72-25.03-17.69h0c-11.8,2.03-19.72,13.24-17.69,25.03"/></g><g><path class="cls-10" d="m2133.74,2824.01l-50.25,440.68,1677.88,191.31c59.41,6.77,113.07-35.9,119.84-95.31l191.31-1677.88-440.68-50.25c-39.63-4.52-69.81-36.99-72.41-76.8-11.77-180.09-150.9-331.54-336.54-352.7-185.64-21.17-355.29,95.07-407.3,267.89-11.5,38.2-48.21,63.04-87.84,58.53l-440.68-50.25-50.25,440.68c-4.52,39.63,20.33,76.35,58.53,87.84,172.82,52.01,289.06,221.65,267.89,407.3-21.17,185.64-172.61,324.77-352.7,336.54-39.81,2.6-72.28,32.78-76.8,72.41Z"/><path class="cls-12" d="m3979.07,3914.93c4.1-203.06,18.4-382.63,48.77-505.01,60.86-245.21,154.36-588.44,22.59-861.37-131.77-272.93-466.04,102.45-466.04,102.45-89.86,377.89-96.79,833.31-68.27,1263.93h462.95Z"/><path class="cls-6" d="m3526.94,2988.32c-23.62,345.37-24.75,604.01-24.75,604.01"/><path class="cls-12" d="m4466.56,3914.93c-14.2-144.47-111.55-1109.02-196.25-1295.38-211.21-464.71-438.59-56.63-438.59-56.63-1.68,9.7,99.44,663.03,206.96,1352.01h427.88Z"/><g><path class="cls-3" d="m3803.65,1651.82c-62.78-67.51-168.4-71.36-235.91-8.58l-457.39,425.28-623.16-189.77c-32.75-10-69.04,4.33-85.52,35.77-18.63,35.54-4.92,79.45,30.62,98.08l661.41,346.69c41.77,21.82,94.35,18.37,133.38-13.1l13.61-10.97,545.48-439.8c2.91-2.37,6.11-5.11,8.89-7.7,67.51-62.78,71.36-168.4,8.58-235.91Z"/><g><ellipse class="cls-6" cx="3598.67" cy="1113.98" rx="28.68" ry="59.18" transform="translate(-149.35 734.82) rotate(-11.42)"/><path class="cls-3" d="m4017.26,1216.04c145.94-116.73,106.11-369.02-99.86-397.23-205.98-28.21-231.84,23.51-258.29,89.71-26.45,66.2-46.37,98.72-55.77,137.96-9.29,38.75,16.2,47.4,13.69,84.6-1.08,15.97-34.15,66.22-39.38,92.06-2.76,13.66,38.6,24.01,38.6,24.01,0,0-1.18,158.09,55.39,194.13,56.58,36.04,272.25-98.35,345.63-225.24Z"/><polygon class="cls-1" points="3950.53 1102.78 4111.52 1561.44 3815.44 1605.08 3775.27 1148.26 3950.53 1102.78"/><polyline class="cls-3" points="3950.53 1102.78 4111.52 1561.44 3815.44 1605.08 3793.03 1350.25"/><path class="cls-11" d="m4405.43,1715.89s-208.38-253.14-385.15-260.36c-176.76-7.22-431.83,96.92-506.59,183.66-74.76,86.74-272.05,292.33-272.05,292.33l226.6,247.28,99.12-76.46-92.37,1000.38,905.22-106.75-117.68-472.22s180.29-690.86,142.91-807.87Z"/><path class="cls-13" d="m4025.85,1317.37c64.37-217.21,179.31-308.7,99.37-418.83-79.93-110.13-211.67-82.53-215.3-90.6-3.63-8.06-130.18-76.61-204.66-42.2-143.3,66.21-48.37,196.77-48.37,196.77,0,0,34.67,120.15,38.72,182.33,4.06,62.17-25.71,118.66-73.51,125.94-47.79,7.28-23.93,198.35,6.94,205.35,35.99,8.16,71.53,12.96,138.64-47.97-71.75-34.67-36.11-194.77-37.85-313.58-1.74-118.81,154.69-82.84,99.18,47.98-35.93,84.68,120.71,145.1,196.83,154.81Z"/><path class="cls-6" d="m4085.52,829.71c-127.41-46.11-175.59-21.76-175.59-21.76,0,0,.86-15.21-24.24-46.58"/><path class="cls-6" d="m3608.44,875.17c7.63,35.25,27.52,66.48,56.12,87.67"/><g><path class="cls-1" d="m3735.11,1079.13c17.5-35.91,55.96-60.46,79.07-32.66,28.87,34.73,9.58,103.78-23.95,122.11-7.67-35.4-26.13-68.36-55.12-89.45Z"/><line class="cls-6" x1="3760.1" y1="1127.99" x2="3788.35" y2="1073.61"/><path class="cls-6" d="m3733.08,1083.54c16.38-38.24,57.05-66,81.1-37.07,34.52,41.52.2,132.11-44.99,126.42"/></g><path class="cls-6" d="m3744.9,1062.08c-14.78,3.06-193.47,42.17-193.47,42.17"/><polyline class="cls-6" points="3241.63 1931.52 3468.23 2178.8 3347.01 1968.63"/><path class="cls-6" d="m3655.4,1543.36c228.6-19.06,169.44,249.97,169.44,249.97"/><line class="cls-6" x1="3667.98" y1="2011.02" x2="3468.23" y2="2178.8"/></g></g><polyline class="cls-6" points="3567.35 2102.35 3474.98 3102.72 4380.2 2995.98"/><line class="cls-6" x1="4301.37" y1="2367.52" x2="4211.46" y2="2758.32"/><line class="cls-6" x1="4152.5" y1="2651" x2="4262.52" y2="2562.92"/><path class="cls-6" d="m4072.52,3090.43c59.54,272.02-72.87,427.93-72.87,427.93,0,0-14.82,189.49-31.03,396.57"/><path class="cls-6" d="m3579.19,3090.43c-6.23,258.81,88.79,351.5,88.79,351.5"/><path class="cls-6" d="m3569.6,3906.29c.14,2.88.29,5.76.44,8.64"/><line class="cls-6" x1="3952.28" y1="3500.86" x2="4061.27" y2="3513.39"/><g><path class="cls-1" d="m2529.77,1872.58c-6.15-9.57-33.92-66.41-41.84-72.96-28.82-25.36-129.61-72.65-129.92-75.52-9.87-5.42-21.31,21.92-3.98,44.09,13.27,16.97,32.36,33.74,52.36,46.16-14.38,13.52-46.45,2.98-67.06-4.04-27.04-8.17-89.12-27.03-98.3-29.76-29.28-8.72-44.37,34.83-16.11,46.13-24.93-8.16-42.91-15.37-53.32,9.57-4.7,28.37,15.44,29.98,42.45,38.26-29.67-5.4-40.35,38.96-11.22,47.53,3.6,1.07,17.53,5.32,34.03,10.38-29.22-4.4-39.13,39.25-10.4,47.65,18.85,6.21,61.43,19.05,103.82,31.69,39.9,11.89,97.39,15.89,117.76,17.52,87.46,7,96.48-43.86,96.65-96.12.06-18.1-6.28-44.67-14.91-60.58Z"/><path class="cls-6" d="m2539.99,1900.05c-2.62-10.19-6.16-20-10.22-27.47-6.15-9.57-33.92-66.41-41.84-72.96-28.82-25.36-129.61-72.65-129.92-75.52-9.87-5.42-21.31,21.92-3.98,44.09,13.27,16.97,32.36,33.74,52.36,46.16-14.38,13.52-46.45,2.98-67.06-4.04-27.04-8.17-89.12-27.03-98.3-29.76-29.28-8.72-44.37,34.83-16.11,46.13-24.93-8.16-42.91-15.37-53.32,9.57-4.7,28.37,15.44,29.98,42.45,38.26-29.67-5.4-40.35,38.96-11.22,47.53,3.6,1.07,17.53,5.32,34.03,10.38-29.22-4.4-39.13,39.25-10.4,47.65,18.85,6.21,61.43,19.05,103.82,31.69,39.9,11.89,97.39,15.89,117.76,17.52,13.84,1.11,25.71.77,35.9-.8"/><line class="cls-6" x1="2240.35" y1="1933.16" x2="2321.67" y2="1958.2"/><line class="cls-6" x1="2214.35" y1="1874.43" x2="2326.57" y2="1908.63"/><line class="cls-6" x1="2227.13" y1="1827.47" x2="2343.19" y2="1862.52"/></g></g><line class="cls-6" x1="986.99" y1="3914.93" x2="4531.97" y2="3914.93"/></g></svg>