<?xml version="1.0" encoding="UTF-8"?><svg id="Layer_2" xmlns="http://www.w3.org/2000/svg" viewBox="0 0 4425.73 4030.8"><defs><style>.cls-1,.cls-2,.cls-3{fill:#fff;}.cls-4,.cls-5,.cls-6,.cls-7,.cls-8,.cls-9,.cls-2,.cls-10,.cls-3,.cls-11{stroke-linecap:round;stroke-linejoin:round;stroke-width:10px;}.cls-4,.cls-6{stroke:#4671f1;}.cls-4,.cls-12,.cls-11{fill:#203058;}.cls-5,.cls-6,.cls-7,.cls-9{fill:none;}.cls-5,.cls-8,.cls-10,.cls-3,.cls-11{stroke:#2e2e2e;}.cls-7{stroke:#fff;}.cls-13,.cls-8{fill:#c1c7d7;}.cls-9,.cls-2{stroke:#c1c7d7;}.cls-10,.cls-14{fill:#2e2e2e;}</style></defs><g id="Layer_1-2"><path class="cls-9" d="m1097.05,62.87c122.76-33.5,251.97-51.38,385.35-51.38,806.57,0,1460.43,653.86,1460.43,1460.43s-653.86,1460.43-1460.43,1460.43S21.97,2278.49,21.97,1471.92c0-154.7,24.05-303.77,68.62-443.7"/><g><g><path class="cls-2" d="m1387.21,3382.44c11.87,53.39,4.8,110.07,24.41,163.19,31.17,90.53,117.11,162.45,216.56,198.59-2.49-67.77-15.09-136.8-10.79-204.37,2.81-29.35,11.37-54.12,16.28-83.89,10.69-61.25,1.64-130.18-28.94-186.7-11.98-21.68-24.01-38.18-39.28-56.87-31.16-36.88-64.08-71.55-90.53-111.29-27.45-39.74-51.3-81.42-77.6-121.77-66.12,76.95-87.34,179.62-56.83,272.02,12.88,44.17,39.8,86.08,46.71,131.09Z"/><path class="cls-5" d="m1474.92,3101.09c-27.45-39.74-51.3-81.42-77.6-121.77-66.12,76.95-87.34,179.62-56.83,272.02,12.88,44.17,39.8,86.08,46.71,131.09"/><path class="cls-11" d="m1576.87,3296.83c-7.27,81.73-14.09,164.74.82,246.39,16.47,78.99,56.26,153.89,121.72,211.08,19.8-66.44,39.46-133.64,61.82-199.75,29.56-79.05,55.26-153.84,63.27-239.85,16.71-161.43-30.51-335.74-154.35-458.77-52.65,141.92-77.14,291.58-93.28,440.89Z"/><path class="cls-2" d="m1736.36,3350.06c.5,24.19,1.41,48.39,3.5,72.51,1.87,41.61-6.78,84.31-13.66,126.41-11.93,67.09-23.26,134.15-27.91,201.48,139.94-59.41,257.38-175.7,281.88-312.08,6.84-48.98,5.12-102.21,2.31-150.51-4.23-65.69-8.27-129.02-8.72-194.36-.89-54.22-.55-108.54-4.65-162.66-167.19,91.4-239.5,254.63-232.75,419.21Z"/><path class="cls-3" d="m1982.47,3287.86c-2.47-38.33-4.87-75.87-6.54-113.47-1.19-26.83-2-53.68-2.18-80.89-.89-54.22-.55-108.54-4.65-162.66-167.19,91.4-239.5,254.63-232.75,419.21.5,24.19,1.41,48.39,3.5,72.51,1.87,41.61-6.78,84.31-13.66,126.41-11.93,67.09-23.26,134.15-27.91,201.48"/><polygon class="cls-2" points="1801.89 4025.8 1524.83 4025.8 1438.81 3643.15 1887.92 3643.15 1801.89 4025.8"/><path class="cls-9" d="m1924.48,3045.39c-63.56,281.29-10.59,452.44-132.41,597.76"/><path class="cls-9" d="m1841.61,3116.3c15.78,123.13,51.79,127.81,51.79,127.81"/><path class="cls-9" d="m1963.32,3257.12c-26.48,57.52-77.48,74.12-77.48,74.12"/><path class="cls-9" d="m1774.41,3366.54c0,83.48,88.37,134.97,88.37,134.97"/><path class="cls-9" d="m1885.84,3578.14c-33.75,35.85-67.25,28.8-67.25,28.8"/><path class="cls-5" d="m1684.37,2964.16c45.9,152.15,40.08,298.32,17.13,388.72-22.95,90.4,0,290.27,0,290.27"/><path class="cls-5" d="m1756.76,3004.92c12.36,81.08-42.04,111.38-42.04,111.38"/><path class="cls-5" d="m1626.11,3135.28c21.19,68.05,88.6,102.65,88.6,102.65"/><path class="cls-5" d="m1736.36,3350.06c-11.38,39.8-42.1,47.64-42.1,47.64"/><path class="cls-5" d="m1593.16,3403.98c25.89,113.73,99.99,133.13,99.99,133.13"/><path class="cls-9" d="m1393.05,3064.03c51.22,211.51,127.13,284.81,141.26,370,14.12,85.19,11.45,196.17,41.04,209.12"/><path class="cls-9" d="m1482.4,3149.58c20.13,64.28-24.09,105.99-24.09,105.99"/><path class="cls-9" d="m1370.12,3237.93c47.67,139.89,150.62,149.26,150.62,149.26"/><path class="cls-9" d="m1430.14,3492.08c14.12,78.28,126.31,115.42,126.31,115.42"/><line class="cls-9" x1="1867.5" y1="3726.8" x2="1459.18" y2="3726.8"/><line class="cls-9" x1="1862.78" y1="3754.98" x2="1465.91" y2="3754.98"/></g><polyline class="cls-5" points="1887.92 3643.15 1438.81 3643.15 1499.01 3910.95"/><line class="cls-5" x1="1664.35" y1="3726.8" x2="1459.18" y2="3726.8"/><line class="cls-5" x1="1599.34" y1="3754.98" x2="1761.7" y2="3754.98"/></g><g><path class="cls-2" d="m740.65,906.1l-37.56,91.05c-40.5-8.39-79.84-21.74-117.09-39.73l25.61-95.11c-22.04-11.9-43.03-25.88-62.67-41.81l-78.09,60.11c-30.44-27.07-57.89-58.17-81.47-92.99l69.77-69.6c-6.51-10.62-12.61-21.6-18.23-32.99-5.62-11.39-10.62-22.92-15.08-34.54l-97.69,13.01c-13.28-39.91-21.25-80.61-24.21-121.24l95.22-25.38c-.68-25.28.99-50.45,4.96-75.18l-91.05-37.56c8.39-40.5,21.74-79.84,39.73-117.09l95.11,25.61c11.9-22.04,25.88-43.03,41.81-62.67l-60.11-78.09c27.07-30.44,58.17-57.89,92.99-81.47l69.6,69.77c10.62-6.51,21.6-12.61,32.99-18.23,11.39-5.62,22.92-10.62,34.54-15.08l-13.01-97.69c39.91-13.28,80.61-21.25,121.24-24.21l25.38,95.22c25.28-.68,50.45.99,75.18,4.96l37.56-91.06c40.5,8.39,79.84,21.74,117.09,39.73l-25.61,95.11c22.04,11.9,43.03,25.88,62.67,41.81l78.09-60.11c30.44,27.07,57.89,58.17,81.47,92.99l-69.77,69.6c6.51,10.62,12.61,21.6,18.23,32.99,5.62,11.39,10.62,22.92,15.08,34.54l97.69-13.01c13.28,39.91,21.25,80.61,24.21,121.24"/><path class="cls-2" d="m956.64,430.64c-41.42-83.97-143.08-118.47-227.05-77.04-83.97,41.42-118.47,143.08-77.04,227.05"/><path class="cls-9" d="m411.23,699.68c7.76,15.73,13.42,31.95,17.13,48.35l-56.3,36.77c.98,14.11,0,28.17-2.77,41.82l51.03,43.8c-11.71,31.9-30.89,61.09-56.55,84.73l-60.04-30.39c-5.74,3.86-11.77,7.42-18.15,10.56-6.38,3.14-12.87,5.77-19.42,7.97l-12.42,66.13c-34.38,5.97-69.21,3.43-101.65-6.7l-3.7-67.15c-12.53-6.1-24.28-13.89-34.87-23.25l-63.44,22.29c-10.75-12.91-20.18-27.28-27.94-43.01-7.76-15.73-13.42-31.95-17.13-48.35l56.3-36.77c-.98-14.11,0-28.17,2.77-41.82l-51.03-43.8c11.71-31.9,30.89-61.09,56.55-84.73l60.04,30.39c5.74-3.86,11.77-7.42,18.15-10.56,6.37-3.14,12.87-5.77,19.42-7.97l12.42-66.13c34.38-5.97,69.21-3.43,101.65,6.7l3.7,67.15c12.53,6.1,24.28,13.89,34.88,23.25m-173.4,151.33c19.13,38.79,66.09,54.72,104.88,35.59,38.79-19.13,54.72-66.09,35.59-104.88-19.13-38.79-66.09-54.72-104.88-35.59-38.79,19.13-54.72,66.09-35.59,104.88Z"/></g><g><path class="cls-2" d="m2484.33,3061.4c0-160.78,97.39-298.81,236.4-358.32,23.3,40.81,89.31,49.44,143.7,49.44,86.89,0,241.42-4.18,241.42-4.18,95.66,70.99,157.65,184.78,157.65,313.06,0,215.16-174.43,389.59-389.59,389.59s-389.59-174.42-389.59-389.59Z"/><g><rect class="cls-13" x="2668.01" y="2973.61" width="105.44" height="304.2"/><rect class="cls-14" x="2822.19" y="3034.53" width="105.44" height="243.29"/><rect class="cls-12" x="2976.37" y="2791.24" width="105.44" height="486.58"/><line class="cls-9" x1="2586.17" y1="3277.82" x2="3124.3" y2="3277.82"/></g></g><g><g><path class="cls-8" d="m821.87,384.95l-307.25,2309.93c-9.09,46.98,26.9,90.6,74.76,90.6h1382.95L821.87,384.95Z"/><path class="cls-8" d="m828.39,384.95l-193.82,2309.93c-9.09,46.98,26.9,90.6,74.76,90.6h1382.95L828.39,384.95Z"/><path class="cls-2" d="m3924.53,2785.48H1369.69c-63.79,0-118.47-45.59-129.94-108.33L851,551.18c-17.65-96.52,56.48-185.44,154.61-185.44h2524.75c63.79,0,118.47,45.58,129.94,108.33l394.16,2155.56c14.84,81.12-47.47,155.86-129.94,155.86Z"/><path class="cls-3" d="m901.58,827.28h2825.09l-72.44-401.39c-6.29-34.82-36.6-60.15-71.98-60.15H845.82c-14.95,0-26.25,13.55-23.56,28.26l79.31,433.28Z"/><g><path class="cls-5" d="m1019.38,487.09c10.87-.49,21.34-2.39,31.3-5.55,39.73-12.57,70.76-44.93,81.49-85.46,2.65-10.01,4.06-20.51,4.06-31.33,0-67.54-54.94-122.45-122.48-122.45s-122.48,54.91-122.48,122.45"/><path class="cls-5" d="m1039.88,485.48c0,2.15-.3,4.25-.83,6.22-2.83,10.23-12.43,17.63-23.67,17.08-11.72-.57-21.33-10-22.1-21.71-.9-13.6,9.87-24.92,23.28-24.92,7.52,0,14.2,3.57,18.47,9.08,3.06,3.95,4.86,8.88,4.86,14.25Z"/></g><g><path class="cls-5" d="m1426.82,487.09c10.87-.49,21.34-2.39,31.3-5.55,39.73-12.57,70.76-44.93,81.49-85.46,2.65-10.01,4.06-20.51,4.06-31.33,0-67.54-54.94-122.45-122.48-122.45s-122.48,54.91-122.48,122.45"/><path class="cls-5" d="m1447.31,485.48c0,2.15-.3,4.25-.83,6.22-2.83,10.23-12.43,17.63-23.67,17.08-11.72-.57-21.33-10-22.1-21.71-.9-13.6,9.87-24.92,23.28-24.92,7.52,0,14.2,3.57,18.47,9.08,3.06,3.95,4.86,8.88,4.86,14.25Z"/></g><g><path class="cls-5" d="m1834.25,487.09c10.87-.49,21.34-2.39,31.3-5.55,39.73-12.57,70.76-44.93,81.49-85.46,2.65-10.01,4.06-20.51,4.06-31.33,0-67.54-54.94-122.45-122.48-122.45s-122.48,54.91-122.48,122.45"/><path class="cls-5" d="m1854.75,485.48c0,2.15-.3,4.25-.83,6.22-2.83,10.23-12.43,17.63-23.67,17.08-11.72-.57-21.33-10-22.1-21.71-.9-13.6,9.87-24.92,23.28-24.92,7.51,0,14.2,3.57,18.47,9.08,3.06,3.95,4.86,8.88,4.86,14.25Z"/></g><g><path class="cls-5" d="m2241.69,487.09c10.87-.49,21.34-2.39,31.3-5.55,39.73-12.57,70.76-44.93,81.49-85.46,2.65-10.01,4.06-20.51,4.06-31.33,0-67.54-54.94-122.45-122.48-122.45s-122.48,54.91-122.48,122.45"/><path class="cls-5" d="m2262.19,485.48c0,2.15-.3,4.25-.83,6.22-2.83,10.23-12.43,17.63-23.67,17.08-11.72-.57-21.33-10-22.1-21.71-.9-13.6,9.87-24.92,23.28-24.92,7.51,0,14.2,3.57,18.47,9.08,3.06,3.95,4.86,8.88,4.86,14.25Z"/></g><g><path class="cls-5" d="m2649.13,487.09c10.87-.49,21.34-2.39,31.3-5.55,39.73-12.57,70.76-44.93,81.49-85.46,2.65-10.01,4.06-20.51,4.06-31.33,0-67.54-54.94-122.45-122.48-122.45s-122.48,54.91-122.48,122.45"/><path class="cls-5" d="m2669.63,485.48c0,2.15-.3,4.25-.83,6.22-2.83,10.23-12.43,17.63-23.67,17.08-11.72-.57-21.33-10-22.1-21.71-.9-13.6,9.87-24.92,23.28-24.92,7.52,0,14.2,3.57,18.47,9.08,3.06,3.95,4.86,8.88,4.86,14.25Z"/></g><g><path class="cls-5" d="m3056.57,487.09c10.87-.49,21.34-2.39,31.3-5.55,39.73-12.57,70.76-44.93,81.49-85.46,2.65-10.01,4.06-20.51,4.06-31.33,0-67.54-54.94-122.45-122.48-122.45s-122.48,54.91-122.48,122.45"/><path class="cls-5" d="m3077.07,485.48c0,2.15-.3,4.25-.83,6.22-2.83,10.23-12.43,17.63-23.67,17.08-11.72-.57-21.33-10-22.1-21.71-.9-13.6,9.87-24.92,23.28-24.92,7.51,0,14.2,3.57,18.47,9.08,3.06,3.95,4.86,8.88,4.86,14.25Z"/></g><g><path class="cls-5" d="m3464.01,487.09c10.87-.49,21.34-2.39,31.3-5.55,39.73-12.57,70.76-44.93,81.49-85.46,2.65-10.01,4.06-20.51,4.06-31.33,0-67.54-54.94-122.45-122.48-122.45s-122.48,54.91-122.48,122.45"/><path class="cls-5" d="m3484.51,485.48c0,2.15-.3,4.25-.83,6.22-2.83,10.23-12.43,17.63-23.67,17.08-11.72-.57-21.33-10-22.1-21.71-.9-13.6,9.87-24.92,23.28-24.92,7.52,0,14.2,3.57,18.47,9.08,3.06,3.95,4.86,8.88,4.86,14.25Z"/></g><g><path class="cls-2" d="m2519.93,1532.76h-142.81c-16.51,0-32.62-13.51-35.81-30.02l-27.55-142.81c-3.18-16.51,7.72-30.02,24.23-30.02h142.81c16.51,0,32.62,13.51,35.81,30.02l27.55,142.81c3.18,16.51-7.72,30.02-24.23,30.02Z"/><path class="cls-2" d="m2880.3,1532.76h-142.81c-16.51,0-32.62-13.51-35.81-30.02l-27.55-142.81c-3.18-16.51,7.72-30.02,24.23-30.02h142.81c16.51,0,32.62,13.51,35.81,30.02l27.55,142.81c3.19,16.51-7.72,30.02-24.23,30.02Z"/><path class="cls-8" d="m3240.68,1532.76h-142.81c-16.51,0-32.62-13.51-35.81-30.02l-27.55-142.81c-3.18-16.51,7.72-30.02,24.23-30.02h142.81c16.51,0,32.62,13.51,35.81,30.02l27.55,142.81c3.18,16.51-7.72,30.02-24.23,30.02Z"/><path class="cls-2" d="m1438.81,1532.76h-142.81c-16.51,0-32.62-13.51-35.81-30.02l-27.55-142.81c-3.18-16.51,7.72-30.02,24.23-30.02h142.81c16.51,0,32.62,13.51,35.81,30.02l27.55,142.81c3.19,16.51-7.72,30.02-24.23,30.02Z"/><path class="cls-8" d="m1799.18,1532.76h-142.81c-16.51,0-32.62-13.51-35.81-30.02l-27.55-142.81c-3.18-16.51,7.72-30.02,24.23-30.02h142.81c16.51,0,32.62,13.51,35.81,30.02l27.55,142.81c3.18,16.51-7.72,30.02-24.23,30.02Z"/><path class="cls-2" d="m2159.56,1532.76h-142.81c-16.51,0-32.62-13.51-35.81-30.02l-27.55-142.81c-3.18-16.51,7.72-30.02,24.23-30.02h142.81c16.51,0,32.62,13.51,35.81,30.02l27.55,142.81c3.18,16.51-7.72,30.02-24.23,30.02Z"/><path class="cls-2" d="m3601.05,1532.76h-142.81c-16.51,0-32.62-13.51-35.81-30.02l-27.55-142.81c-3.18-16.51,7.72-30.02,24.23-30.02h142.81c16.51,0,32.62,13.51,35.81,30.02l27.55,142.81c3.18,16.51-7.72,30.02-24.23,30.02Z"/><path class="cls-2" d="m2460.1,1222.58h-142.81c-16.51,0-32.62-13.51-35.81-30.02l-27.55-142.81c-3.18-16.51,7.72-30.02,24.23-30.02h142.81c16.51,0,32.62,13.51,35.81,30.02l27.55,142.81c3.18,16.51-7.72,30.02-24.23,30.02Z"/><path class="cls-8" d="m2820.47,1222.58h-142.81c-16.51,0-32.62-13.51-35.81-30.02l-27.55-142.81c-3.18-16.51,7.72-30.02,24.23-30.02h142.81c16.51,0,32.62,13.51,35.81,30.02l27.55,142.81c3.18,16.51-7.72,30.02-24.23,30.02Z"/><path class="cls-2" d="m3180.85,1222.58h-142.81c-16.51,0-32.62-13.51-35.81-30.02l-27.55-142.81c-3.19-16.51,7.72-30.02,24.23-30.02h142.81c16.51,0,32.62,13.51,35.81,30.02l27.55,142.81c3.18,16.51-7.72,30.02-24.23,30.02Z"/><path class="cls-2" d="m3541.22,1222.58h-142.81c-16.51,0-32.62-13.51-35.81-30.02l-27.55-142.81c-3.18-16.51,7.72-30.02,24.23-30.02h142.81c16.51,0,32.62,13.51,35.81,30.02l27.55,142.81c3.18,16.51-7.72,30.02-24.23,30.02Z"/><path class="cls-4" d="m2583.35,1861.52h-142.81c-16.51,0-32.62-13.51-35.81-30.02l-27.55-142.81c-3.18-16.51,7.72-30.02,24.23-30.02h142.81c16.51,0,32.62,13.51,35.81,30.02l27.55,142.81c3.18,16.51-7.72,30.02-24.23,30.02Z"/><path class="cls-2" d="m2943.72,1861.52h-142.81c-16.51,0-32.62-13.51-35.81-30.02l-27.55-142.81c-3.18-16.51,7.72-30.02,24.23-30.02h142.81c16.51,0,32.62,13.51,35.81,30.02l27.55,142.81c3.18,16.51-7.72,30.02-24.23,30.02Z"/><path class="cls-2" d="m3304.09,1861.52h-142.81c-16.51,0-32.62-13.51-35.81-30.02l-27.55-142.81c-3.18-16.51,7.72-30.02,24.23-30.02h142.81c16.51,0,32.62,13.51,35.81,30.02l27.55,142.81c3.18,16.51-7.72,30.02-24.23,30.02Z"/><path class="cls-2" d="m1502.23,1861.52h-142.81c-16.51,0-32.62-13.51-35.81-30.02l-27.55-142.81c-3.18-16.51,7.72-30.02,24.23-30.02h142.81c16.51,0,32.62,13.51,35.81,30.02l27.55,142.81c3.18,16.51-7.72,30.02-24.23,30.02Z"/><path class="cls-2" d="m1862.6,1861.52h-142.81c-16.51,0-32.62-13.51-35.81-30.02l-27.55-142.81c-3.18-16.51,7.72-30.02,24.23-30.02h142.81c16.51,0,32.62,13.51,35.81,30.02l27.55,142.81c3.19,16.51-7.72,30.02-24.23,30.02Z"/><path class="cls-2" d="m2222.97,1861.52h-142.81c-16.51,0-32.62-13.51-35.81-30.02l-27.55-142.81c-3.18-16.51,7.72-30.02,24.23-30.02h142.81c16.51,0,32.62,13.51,35.81,30.02l27.55,142.81c3.18,16.51-7.72,30.02-24.23,30.02Z"/><path class="cls-2" d="m3664.47,1861.52h-142.81c-16.51,0-32.62-13.51-35.81-30.02l-27.55-142.81c-3.18-16.51,7.72-30.02,24.23-30.02h142.81c16.51,0,32.62,13.51,35.81,30.02l27.55,142.81c3.18,16.51-7.72,30.02-24.23,30.02Z"/><path class="cls-2" d="m2646.76,2190.27h-142.81c-16.51,0-32.62-13.51-35.81-30.02l-27.55-142.81c-3.18-16.51,7.72-30.02,24.23-30.02h142.81c16.51,0,32.62,13.51,35.81,30.02l27.55,142.81c3.18,16.51-7.72,30.02-24.23,30.02Z"/><path class="cls-2" d="m3007.14,2190.27h-142.81c-16.51,0-32.63-13.51-35.81-30.02l-27.55-142.81c-3.18-16.51,7.72-30.02,24.23-30.02h142.81c16.51,0,32.62,13.51,35.81,30.02l27.55,142.81c3.18,16.51-7.72,30.02-24.23,30.02Z"/><path class="cls-2" d="m3367.51,2190.27h-142.81c-16.51,0-32.62-13.51-35.81-30.02l-27.55-142.81c-3.18-16.51,7.72-30.02,24.23-30.02h142.81c16.51,0,32.62,13.51,35.81,30.02l27.55,142.81c3.18,16.51-7.72,30.02-24.23,30.02Z"/><path class="cls-2" d="m1565.64,2190.27h-142.81c-16.51,0-32.62-13.51-35.81-30.02l-27.55-142.81c-3.18-16.51,7.72-30.02,24.23-30.02h142.81c16.51,0,32.62,13.51,35.81,30.02l27.55,142.81c3.18,16.51-7.72,30.02-24.23,30.02Z"/><path class="cls-2" d="m1926.01,2190.27h-142.81c-16.51,0-32.62-13.51-35.81-30.02l-27.55-142.81c-3.18-16.51,7.72-30.02,24.23-30.02h142.81c16.51,0,32.62,13.51,35.81,30.02l27.55,142.81c3.18,16.51-7.72,30.02-24.23,30.02Z"/><path class="cls-2" d="m2286.39,2190.27h-142.81c-16.51,0-32.62-13.51-35.81-30.02l-27.55-142.81c-3.18-16.51,7.72-30.02,24.23-30.02h142.81c16.51,0,32.62,13.51,35.81,30.02l27.55,142.81c3.18,16.51-7.72,30.02-24.23,30.02Z"/><path class="cls-2" d="m3727.88,2190.27h-142.81c-16.51,0-32.62-13.51-35.81-30.02l-27.55-142.81c-3.18-16.51,7.72-30.02,24.23-30.02h142.81c16.51,0,32.62,13.51,35.81,30.02l27.55,142.81c3.18,16.51-7.72,30.02-24.23,30.02Z"/><path class="cls-2" d="m2706.59,2500.45h-142.81c-16.51,0-32.62-13.51-35.81-30.02l-27.55-142.81c-3.18-16.51,7.72-30.02,24.23-30.02h142.81c16.51,0,32.62,13.51,35.81,30.02l27.55,142.81c3.18,16.51-7.72,30.02-24.23,30.02Z"/><path class="cls-2" d="m3066.97,2500.45h-142.81c-16.51,0-32.62-13.51-35.81-30.02l-27.55-142.81c-3.18-16.51,7.72-30.02,24.23-30.02h142.81c16.51,0,32.62,13.51,35.81,30.02l27.55,142.81c3.19,16.51-7.72,30.02-24.23,30.02Z"/><path class="cls-2" d="m3427.34,2500.45h-142.81c-16.51,0-32.62-13.51-35.81-30.02l-27.55-142.81c-3.18-16.51,7.72-30.02,24.23-30.02h142.81c16.51,0,32.62,13.51,35.81,30.02l27.55,142.81c3.18,16.51-7.72,30.02-24.23,30.02Z"/><path class="cls-2" d="m1625.47,2500.45h-142.81c-16.51,0-32.62-13.51-35.81-30.02l-27.55-142.81c-3.18-16.51,7.72-30.02,24.23-30.02h142.81c16.51,0,32.62,13.51,35.81,30.02l27.55,142.81c3.18,16.51-7.72,30.02-24.23,30.02Z"/><path class="cls-2" d="m1985.85,2500.45h-142.81c-16.51,0-32.62-13.51-35.81-30.02l-27.55-142.81c-3.18-16.51,7.72-30.02,24.23-30.02h142.81c16.51,0,32.62,13.51,35.81,30.02l27.55,142.81c3.18,16.51-7.72,30.02-24.23,30.02Z"/><path class="cls-8" d="m2346.22,2500.45h-142.81c-16.51,0-32.62-13.51-35.81-30.02l-27.55-142.81c-3.18-16.51,7.72-30.02,24.23-30.02h142.81c16.51,0,32.62,13.51,35.81,30.02l27.55,142.81c3.18,16.51-7.72,30.02-24.23,30.02Z"/></g><g><line class="cls-5" x1="2233.51" y1="707.98" x2="2376.32" y2="707.98"/><line class="cls-5" x1="2593.88" y1="707.98" x2="2736.7" y2="707.98"/><line class="cls-5" x1="2954.26" y1="707.98" x2="3097.07" y2="707.98"/><line class="cls-5" x1="1152.39" y1="707.98" x2="1295.2" y2="707.98"/><line class="cls-5" x1="1512.76" y1="707.98" x2="1655.58" y2="707.98"/><line class="cls-5" x1="1873.14" y1="707.98" x2="2015.95" y2="707.98"/><line class="cls-5" x1="3314.63" y1="707.98" x2="3457.44" y2="707.98"/></g></g><path class="cls-6" d="m2372.47,1608.71c-180.05,201.86,67.4,373.87,220.41,280.27,93.42-57.14,76.6-210.05-4.54-261.23-58.96-37.19-172.24-59.04-228.57,39.91-68.3,119.97,36,187.66,36,187.66"/><line class="cls-5" x1="901.58" y1="827.28" x2="1117.86" y2="2001.19"/><line class="cls-5" x1="3726.67" y1="827.28" x2="4002.35" y2="2344.6"/><line class="cls-5" x1="1972.32" y1="2785.48" x2="3614.84" y2="2784.25"/></g><g><g><g><g><path class="cls-1" d="m3068.03,2086.2l-182.15-145.04-2.26-135.81c-.25-14.92-6.38-29.14-17.05-39.56l-22.66-22.12c-1.47-1.44-3.04-2.73-4.68-3.87l-42.66-42.03c-3.96-3.9-9.11-6.36-14.63-7l-76.05-8.78c-4.9-.57-9.87.34-14.26,2.6l-38.63,19.88c-12.23,6.3-17.05,21.32-10.75,33.55.78,1.51,1.69,2.91,2.71,4.19,7.25,9.07,20.12,12.08,30.84,6.57l18.32-9.43c-.59,3.14-.63,6.41-.07,9.7-8.01,2-14,3.48-16.22,4-13.1,3.05-21.25,16.14-18.2,29.24,2.89,12.39,14.76,20.34,27.12,18.58-8.93,5.26-13.82,15.88-11.35,26.51,3.05,13.1,16.14,21.25,29.24,18.2.9-.21,2.37-.57,4.29-1.04-11.19,4.28-17.8,16.24-15,28.24,3.05,13.1,16.14,21.25,29.24,18.2.79-.18,1.94-.45,3.33-.77,0,0,18.2,127.14,74.93,137.83l.29-.04,159.52,183.97,106.79-125.74Z"/><path class="cls-5" d="m3068.03,2086.2l-182.15-145.04-2.26-135.81c-.25-14.92-6.38-29.14-17.05-39.56l-22.66-22.12c-1.47-1.44-3.04-2.73-4.68-3.87l-42.66-42.03c-3.96-3.9-9.11-6.36-14.63-7l-76.05-8.78c-4.9-.57-9.87.34-14.26,2.6l-38.63,19.88c-12.23,6.3-17.05,21.32-10.75,33.55.78,1.51,1.69,2.91,2.71,4.19,7.25,9.07,20.12,12.08,30.84,6.57l18.32-9.43c-.59,3.14-.63,6.41-.07,9.7-8.01,2-14,3.48-16.22,4-13.1,3.05-21.25,16.14-18.2,29.24,2.89,12.39,14.76,20.34,27.12,18.58-8.93,5.26-13.82,15.88-11.35,26.51,3.05,13.1,16.14,21.25,29.24,18.2.9-.21,2.37-.57,4.29-1.04-11.19,4.28-17.8,16.24-15,28.24,3.05,13.1,16.14,21.25,29.24,18.2.79-.18,1.94-.45,3.33-.77,0,0,18.2,127.14,74.93,137.83l.29-.04,159.52,183.97,106.79-125.74Z"/><polyline class="cls-5" points="2751.3 1737.39 2767.71 1739.29 2797.39 1774.22"/><path class="cls-14" d="m2613.37,1766.57l-41.56-11.47c-3.69-1.02-3.19-6.41.63-6.72l42.96-3.55c7.77-.64,15.59-.6,23.36.13l348.09,32.61c7.13.67,12.37,6.99,11.7,14.12h0c-.67,7.13-6.99,12.37-14.12,11.7l-348.09-32.61c-7.77-.73-15.45-2.14-22.97-4.21Z"/><polygon class="cls-1" points="2693.29 1745.15 2705.79 1800.26 2775.76 1788.7 2748.73 1737.88 2693.29 1745.15"/><path class="cls-5" d="m2807.01,1847.45l-61.68-115.94c-6.28-11.81-20.16-17.37-32.86-13.17h0c-13.46,4.45-21.32,18.42-18.14,32.23l31.31,135.89"/></g><path class="cls-13" d="m2814.11,2139.56l119.62-191.38,314.63,233.24s53.96-439.15,205.97-464.47c130.36-21.72,120.38,750.49-88.28,875.88-147.21,88.46-551.94-453.26-551.94-453.26Z"/><line class="cls-5" x1="2814.11" y1="2139.56" x2="2933.72" y2="1948.18"/><polyline class="cls-5" points="3207.34 2265.91 3248.36 2181.42 3254.61 2262.26"/></g><g><path class="cls-13" d="m3858.64,3001.36c195.57,90.18,293.42,193.57,300.47,261.59,7.05,68.02-319.46,37.96-489.45-25.26-169.99-63.23,188.99-236.33,188.99-236.33Z"/><path class="cls-12" d="m3765.66,4025.8c-54.25-352.3-95.34-616.55-95.34-616.55l433.61-550.46-734.38-28.02c-25.88,276.82,11.75,729.69,69.19,1195.03h326.91Z"/><path class="cls-13" d="m3609.45,1510.55l-188.68,96.01-82.15,178.67h43.29l-127.3,1215.9c265.91-3.45,556.01,50.83,556.01,50.83,0,0,40.22-1395.49,9.65-1470.59-30.57-75.11-210.83-70.82-210.83-70.82Z"/><path class="cls-12" d="m4210.22,4025.8c-58.07-620.43-109.23-1167-109.23-1167l-734.38-28.02c-66.87,715.28,300.76,578.48,300.76,578.48,0,0,34.17,265.49,81.74,616.55h461.1Z"/><path class="cls-5" d="m3548.58,3387.03c20.95,0,146.38,10.22,146.38,10.22"/><path class="cls-5" d="m4065.05,3332.29s29.81,305.63,67.65,693.51"/><path class="cls-5" d="m3440.66,3179.24c-7.15,157.03,21.38,481.32,63.01,846.57"/><path class="cls-5" d="m3596.55,3281.89s56.42,329.35,127.45,743.92"/><path class="cls-1" d="m4092.19,2894.71c-4.66-172.34,7.08-1155.83-52.61-1192.07-121.37-73.69-347.63-190.2-507.3-11.32-159.67,178.88-173.57,1276.53-173.57,1276.53,0,0,525.92,92.6,733.48-73.14Z"/><path class="cls-5" d="m3338.62,1785.23l82.15-178.67s15.85,100.31-4.34,193.71c-20.19,93.39-161.81,1200.86-161.81,1200.86"/><g><g><path class="cls-1" d="m3540.98,1358.66l77.49,293.57c27.49,88.26,273.1,12.07,247.12-80.11-25.98-92.18-122.82-435.83-122.82-435.83,0,0-248.86-28.27-201.79,222.38Z"/><path class="cls-1" d="m3684.85,946.29c362.2,71.34,42.97,583.56-109.04,553.62-125.74-24.77-135.22-170.37-110.63-309.34,25-141.27,60.15-275.7,219.67-244.28Z"/><path class="cls-5" d="m3684.85,946.29c-159.52-31.42-194.67,103-219.67,244.28-24.59,138.96-15.86,288.73,110.63,309.34,39.32,6.4,86.08-16.7,120.62-39.16"/><path class="cls-14" d="m3638.49,1192.84c20.5-12.87,28.52,27.17,6.1,31.55-22.42,4.38-14.63-26.19-6.1-31.55Z"/><path class="cls-14" d="m3492.65,1179.24c20.5-12.87,28.52,27.17,6.1,31.55-22.41,4.38-14.63-26.19-6.1-31.55Z"/><path class="cls-5" d="m3453.5,1134.58c26.89-18.96,93.25-8.94,93.25-8.94"/><path class="cls-5" d="m3625.55,1119.65c37.36,6.5,61.17,22.82,75.73,37.75"/><path class="cls-5" d="m3582.88,1181.17c-24.85,70.32-43.48,105.61-43.48,105.61,0,0-1.42,16,20.82,23.86"/></g><path class="cls-14" d="m3527.05,1000.09c81-17.38,249.28,96.28,261,143.41,0,0,6.51-30.1,63.21-19.45,125.47-176.85-78.08-192.1-230.87-225.52-66.59-14.56-69.49-40.92-69.49-40.92,0,0-105.49,79.73-23.85,142.47Z"/><path class="cls-14" d="m3750.24,1011.17c16.3,125.66-14.94,213.35-26.35,234.74h47.91v87.53l51.87,89.94s59.75-143.37,114.16-265.25c54.4-121.88-187.59-146.96-187.59-146.96Z"/><g><path class="cls-1" d="m3738.89,1333.35c-33.68-69.95,87.16-137.65,105.45-78.39,18.3,59.26-73.94,143.84-105.45,78.39Z"/><line class="cls-5" x1="3764.43" y1="1308.57" x2="3810.63" y2="1269.85"/><path class="cls-5" d="m3756.68,1257.99c29.32-28.55,76.75-38.39,87.66-3.03,15.67,50.75-49.72,120.07-88.62,97.82"/></g><path class="cls-5" d="m3595.5,1369.93c-43.22,20.75-83.28,0-83.28,0"/></g><g><path class="cls-13" d="m4150.65,1748.37c-85.2-97.11-200-156.28-200-156.28l-111.59-120.17-142.84,177.42s30.99,75.8,0,193.82c-5.55,21.13-76.25,84.19-87.23,162.57-47.2,337.18-134.93,1061.29-134.93,1061.29,464.04,39.02,685.03,195.93,685.03,195.93,0,0-58.12-579.38,22.22-934.19l59.62-281.39c13.92-88.16-38.95-240.48-90.29-299.01Z"/><path class="cls-5" d="m3696.23,1843.17c-5.55,21.13-76.25,84.19-87.23,162.57-47.2,337.18-134.93,1061.29-134.93,1061.29,19.4,2.66,38.85,5.02,58.3,7.08"/><path class="cls-5" d="m3950.65,1592.1c10.45,188.11-113.23,269.69-113.23,269.69,0,0-58.71-238.04-141.19-212.43"/></g><path class="cls-5" d="m4159.02,3267.78c-33.29-42.52-237.19-112.89-237.19-112.89"/></g></g><g><g><g><path class="cls-3" d="m3900.21,2643.65c-136.18,60.56-294,130.74-294,130.74-28.39,12.61-45.23,43.68-38.68,75.35,7.55,36.51,43.27,59.99,79.78,52.44,0,0,116.78-24.15,252.9-52.29v-206.23Z"/><g><line class="cls-5" x1="3234.99" y1="2746.8" x2="3490.12" y2="2766.41"/><g><g><path class="cls-3" d="m3048.99,2426.98l278-12.95c42.9,22.55,59.6-5.91,54.5-32.94-4.09-21.7-22.67-36.49-63.33-36.49h-312.4l43.22,82.38Z"/><polygon class="cls-3" points="3326.99 2414.03 3792.01 3016.94 3300.15 3016.94 2835.13 2414.03 3326.99 2414.03"/><polygon class="cls-10" points="3308.52 2439.1 3773.53 3042.01 3281.67 3042.01 2817.89 2364.41 3308.52 2439.1"/><path class="cls-3" d="m3490.12,2762.88c-281.94-116.11-297.91-416.95-154.35-416.95l-464.82-1.32c-143.55,0-148.73,302.16,133.21,418.27h485.96Z"/></g><g><g><path class="cls-1" d="m3518.68,2703.94s-201.17-13.4-231.61-13.17c-30.44.23-32.25,37.16,9.09,44.84-27.05,9.33-30.75,46.57,45.13,57.98-24.27,14.68-7.59,29.76,40.25,39.48-13.33,8.3,86.74,35.9,116.62,47.15,47.87,18.02,166.36,24.81,186.32,9.66,107.54-17.61-.21-82.63-41.58-125.24-37.86-39-52.06-56.03-124.21-60.69Z"/><path class="cls-1" d="m3476.03,2567.26c-26.87,37.08-3.04,77.63,20.23,100.15,23.27,22.52,19.83,75.91,19.83,75.91,0,0,92.53,55.79,119.24,41.88,26.71-13.91-18.3-95.8-81.29-142.44-62.99-46.65-78.01-75.49-78.01-75.49Z"/><path class="cls-5" d="m3642.89,2764.63c-3.67-30.9-41.09-86.52-88.85-121.88-62.99-46.65-78.01-75.49-78.01-75.49-26.87,37.08-3.04,77.63,20.23,100.15"/></g><line class="cls-5" x1="3296.15" y1="2735.6" x2="3430.16" y2="2765.64"/><line class="cls-5" x1="3341.28" y1="2793.59" x2="3450.33" y2="2830.23"/></g><path class="cls-5" d="m3511.92,2702.05s-195.49-13.33-217.22-16.29-29.13,10.86-29.13,21.23"/></g></g><path class="cls-5" d="m3647.31,2902.18c41.05-4.46,85.86-17.75,85.86-17.75"/></g><path class="cls-13" d="m3773.53,2946.72s505.48-184.98,564.87-212.99c57.92-27.32,102.9-98.13,82.22-164.94l-225.13-727.07c-1.42-4.55-3.14-9.4-4.96-13.9-35.83-88.18-136.36-130.62-224.54-94.8,2.66,128.74-94.8,224.54-94.8,224.54l230.18,566.55-411.14,191.36,83.3,231.24Z"/></g><polyline class="cls-5" points="4175.19 2540.56 4101.38 2524.12 4138.28 2583.36"/><line class="cls-5" x1="3968.65" y1="2884.43" x2="4219.72" y2="2787.42"/></g><polyline class="cls-5" points="3891.58 2621.77 3690.24 2715.49 3773.53 2946.72"/><path class="cls-5" d="m3965.99,1733.04c112.27-51.2,196.4,6.04,224.54,94.8"/><line class="cls-5" x1="3927.04" y1="2095.03" x2="4101.38" y2="2524.12"/></g><g><path class="cls-1" d="m1308.05,2366.95c-60.15,331.24,443.47,208.85,478.79-56.19,22.76-170.82-430.4-210.29-478.79,56.19Z"/><path class="cls-11" d="m1394.35,2705.71s-678.78-109.33-666.45-96.99c12.34,12.34,61.37-692.23,61.37-692.23,0,0,76.58-327.14,385.65-256.13,483.63,111.11,219.43,1045.35,219.43,1045.35Z"/><path class="cls-13" d="m1165.34,2705.71c-156.03-4.27-302.42-181.98-302.42-181.98,0,0-264.27-752.23,0-857.01,221.28-87.74,308.61,19.87,382.72,133.49,64.91,99.51,144.08,376.74,120.28,749.99-13.05,204.65-200.59,155.52-200.59,155.52Z"/><path class="cls-5" d="m1333.56,1793.52l-26.87,40.83,49.38,16.92s31.74,200.63,33.52,288.67"/><g><path class="cls-1" d="m568.64,4025.8c227.62-422.27,411.42-763.25,411.42-763.25l-439.84-129.54s-165.59,418.95-352.88,892.79h381.3Z"/><path class="cls-3" d="m238.19,4025.8h330.45c227.62-422.27,411.42-763.25,411.42-763.25l-439.84-129.54"/></g><g><path class="cls-1" d="m1366.71,4025.8c13.54-76.07,21.7-121.94,21.7-121.94,0,0-1.16-443.69-1.16-770.85h-294.56c-9.65,167.7-33.03,516.2-58.94,892.79h332.97Z"/><path class="cls-3" d="m1366.71,4025.8c13.54-76.07,21.7-121.94,21.7-121.94,0,0-1.16-443.69-1.16-770.85h-294.56c-9.65,167.7-33.03,516.2-58.94,892.79h332.97Z"/></g><g><path class="cls-14" d="m962.11,1105.28c39.9-123.81-70.54-188.83-164.37-145.63-93.83,43.2-104.63,190.62-79.05,357.01,25.58,166.39-122.77,76.97-167.76,244.91-44.99,167.93,214.99,306.87,326.01,256.55,111.01-50.32,85.18-712.83,85.18-712.83Z"/><path class="cls-5" d="m813.19,968.85c-97.04,35.42-119.81,181.46-107.87,349.39,11.94,167.92-143.11,65.84-201.62,229.55"/></g><path class="cls-13" d="m1393.14,3904.87c29.91-381.17,58.16-833.9,37.84-982.42-27.92-204.03-48.19-278.24-48.19-278.24l-6.86-105-567.28-15.48v123.11s-368.87,400.06-602.36,1258.03h1186.86Z"/><path class="cls-5" d="m808.64,2523.72v123.11s-368.87,400.06-602.36,1258.03h1186.86"/><path class="cls-5" d="m1430.98,2922.45c-27.92-204.03-48.19-278.24-48.19-278.24l-6.86-105-567.28-15.48v123.11"/><line class="cls-5" x1="1382.78" y1="2644.21" x2="862.93" y2="2644.21"/><g><path class="cls-14" d="m879.88,1154.71c53.23-148.92,281.55-160.85,365.77-64.59,83.38,95.3,11.92,249.25-122.42,254.63-134.35,5.38-243.35-190.05-243.35-190.05Z"/><g><path class="cls-1" d="m1020.44,1619.35c-224.58,22.31-45.72,284.19,199.65,423.23,97.9-206.24-7.75-442.29-199.65-423.23Z"/><g><g><path class="cls-1" d="m1168.38,1407.72l4.49,270.5c-2.25,82.34-231.3,76.35-231.3-8.98v-403.46s206.6-84.39,226.81,141.95Z"/><path class="cls-1" d="m1026.5,1047.69c-318.04,83.92-71.52,514.73,159.92,491.92,36.45-3.59,78.95-164.94,49.23-287.12-30.22-124.21-69.08-241.76-209.15-204.8Z"/><path class="cls-5" d="m1010.19,1477.21c52.63,42.69,114.95,68.44,176.22,62.4,36.45-3.59,78.95-164.94,49.23-287.12-30.22-124.21-69.08-241.76-209.15-204.8"/><path class="cls-14" d="m1098.23,1274.19c-18.95-10.28-23.82,25.77-3.64,28.4,20.18,2.63,11.53-24.12,3.64-28.4Z"/><path class="cls-14" d="m1214.12,1258.98c-18.95-10.28-23.82,25.77-3.64,28.4,20.18,2.63,11.53-24.12,3.64-28.4Z"/><path class="cls-5" d="m1217.46,1212.11c-28.58-12.39-57.17,3.2-57.17,3.2"/><path class="cls-5" d="m1087.48,1226.33c-32.93,1.05-55.63,30.81-55.63,30.81"/><path class="cls-5" d="m1130.45,1252.15c26.07,61.12,44.64,91.45,44.64,91.45,0,0,2.17,14.15-17.16,22.4"/></g><g><g><g><path class="cls-5" d="m1153.02,1154.71c-36.32-36.11-115.95-21.41-134.03-48.15"/><path class="cls-14" d="m1208.16,1160.65c-43.8-100.32-147.27-14.72-189.17-54.08,18.49,58.15-51.92,110.31-51.92,110.31,0,0-26.23,27.36-2.17,151.66-18.19,13.45-22.01,33.99-23.1,66.7-50.16-17.99-74.66-97.95-98.92-201.84-24.26-103.9,4.9-187.23,137.44-228.5,132.53-41.27,246.55,59.43,227.85,155.76Z"/></g><path class="cls-7" d="m950.92,1015.41c-79.35,29.79-90.85,92.46-90.85,92.46"/></g><g><path class="cls-1" d="m985.15,1365.35c26-64.11-85.28-117.47-98.2-63.74-12.92,53.73,73.88,123.73,98.2,63.74Z"/><line class="cls-5" x1="961.05" y1="1344.76" x2="917.77" y2="1312.94"/><path class="cls-5" d="m965.08,1299.34c-27.69-23.73-70.42-29.8-78.13,2.26-11.06,46.01,51.01,103.96,84.34,81.98"/></g></g></g></g></g><path class="cls-12" d="m890.74,1699.9c-200.35-122.32-505.81,372-553.98,623.56-48.17,251.57,350.59,342.56,446.93,136.49l107.05-42.82-34.79-254.24-80.29,2.68s369.32-310.44,115.08-465.67Z"/><path class="cls-12" d="m731.79,1707.48c60.96-49.06,142.03-71.15,209.79-74.56,0,0-4.35,58.63,14.18,88.95,39.43,64.52,75.84,132.92,81.13,258.58,10.7,254.24-107.05,725.26-107.05,725.26h-248.89l77.18-304.8s-107.6-628.03-26.33-693.43Z"/><path class="cls-5" d="m941.57,1632.92s-4.35,58.63,14.18,88.95c39.43,64.52,75.84,132.92,81.13,258.58,10.7,254.24-107.05,725.26-107.05,725.26h-248.89"/><path class="cls-5" d="m867.44,1656.49c-31.07,74.76,56.57,139.15,48.59,226.64,7.82-2.43,71,9.72,71,9.72l-60.06,64.4s77.07,185.9,68.57,273.38"/><g><path class="cls-1" d="m1560.22,2051.2c-4.99-13.67-20.11-20.7-33.78-15.71,0,0-82.5,30.86-142.27,53.11-43.41,4.72-118.25,14.17-168.11,24.77l-380.93,81.05,22.29,196.54,320.32-142.37c63.3,18.74,103.74,6.47,145.81-30.31l14.53,45.52c2.36,7.38,7.67,13.01,14.2,15.98,5.74,2.61,12.43,3.18,18.9,1.11,13.86-4.42,21.51-19.25,17.09-33.11,0,0-11.8-36.97-23-72.1.31-.35.63-.71.93-1.05l83.18,79.19c5.1,4.85,11.64,7.26,18.16,7.26,6.96,0,13.91-2.74,19.08-8.18,10.03-10.54,9.63-27.21-.91-37.25l-82.18-78.24,140.96-52.46c7.28-2.66,12.68-8.19,15.38-14.85,2.37-5.84,2.67-12.55.33-18.93Z"/><path class="cls-5" d="m857.41,2390.96l320.32-142.37c63.3,18.74,103.74,6.47,145.81-30.31l14.53,45.52c2.36,7.38,7.67,13.01,14.2,15.98,5.74,2.61,12.43,3.18,18.9,1.11,13.86-4.42,21.51-19.25,17.09-33.11,0,0-11.8-36.97-23-72.1.31-.35.63-.71.93-1.05l83.18,79.19c5.1,4.85,11.64,7.26,18.16,7.26,6.96,0,13.91-2.74,19.08-8.18,10.03-10.54,9.63-27.21-.91-37.25l-82.18-78.24,140.96-52.46c7.28-2.66,12.68-8.19,15.38-14.85,2.37-5.84,2.67-12.55.33-18.93"/><line class="cls-5" x1="1427.93" y1="2233.41" x2="1351.53" y2="2160.68"/><line class="cls-5" x1="1485.72" y1="2215.68" x2="1394.35" y2="2129.39"/></g><path class="cls-13" d="m1399.44,2474h407.37c21.96,0,42.63-10.35,55.79-27.92l409.5-546.88c11.59-15.48.55-37.55-18.8-37.55h-407.37c-21.96,0-42.63,10.35-55.79,27.92l-409.5,546.88c-11.59,15.48-.55,37.55,18.8,37.55Z"/><path class="cls-5" d="m1845.94,1861.65c-21.96,0-42.63,10.35-55.79,27.92l-409.5,546.88c-11.59,15.48-.55,37.55,18.8,37.55h407.37c21.96,0,42.63-10.35,55.79-27.92"/><path class="cls-5" d="m1310.55,2176.95c4.09,12.9,8.14,25.81,12.16,38.73"/><path class="cls-5" d="m669.84,2559.78c101.21-36.99,106.07-111.11,119.43-113.54,13.37-2.43,73.65-24.3,73.65-24.3l-27.8-234.5-77.01,16.61s-29.6-40.27-79.41-32.69"/><path class="cls-5" d="m862.93,1916.49c15.04,130.01-135.02,262.97-135.02,262.97"/><line class="cls-5" x1="758.12" y1="2204.04" x2="789.27" y2="2446.24"/><path class="cls-5" d="m772.7,2784.92c-303.23,408.35-464.96,1055.25-464.96,1055.25"/><g><g><path class="cls-1" d="m1960.69,2351.74c0-13.95-11.28-25.27-25.23-25.31l-48.58-.29c-6.76-.02-12.92,2.62-17.47,6.92-4.3,4.07-7.17,9.63-7.79,15.86-1.5,15.17,11.85,27.8,27.09,27.85l46.59.28c14.01.04,25.39-11.3,25.39-25.31h0Z"/><path class="cls-5" d="m1935.46,2326.43l-48.58-.29c-6.76-.02-12.92,2.62-17.47,6.92-4.3,4.07-7.17,9.63-7.79,15.86-1.5,15.17,11.85,27.8,27.09,27.85l46.59.28"/></g><g><path class="cls-1" d="m2054.93,2232.17c7.62-11.68,4.36-27.33-7.3-34.99l-48.14-31.75c-5.66-3.71-12.25-4.87-18.42-3.75-5.82,1.06-11.27,4.14-15.19,9.02-9.55,11.88-5.27,29.76,7.47,38.13l46.48,30.66c11.71,7.69,27.44,4.41,35.1-7.33h0Z"/><path class="cls-5" d="m1981.08,2161.69c-5.82,1.06-11.27,4.14-15.19,9.02-9.55,11.88-5.27,29.76,7.47,38.13l46.48,30.66c11.71,7.69,27.44,4.41,35.1-7.33h0c7.62-11.68,4.36-27.33-7.3-34.99"/></g><g><path class="cls-1" d="m2022.84,2269.26c0-13.95-11.28-25.27-25.23-25.31l-93.35-.29c-6.77-.02-12.92,2.62-17.47,6.92-4.3,4.07-7.17,9.63-7.79,15.86-1.5,15.17,11.85,27.8,27.09,27.85l91.36.28c14.01.04,25.39-11.3,25.39-25.31h0Z"/><line class="cls-5" x1="1904.26" y1="2243.66" x2="2003.39" y2="2244.66"/></g><path class="cls-1" d="m2009.87,2311.05c0-13.95-11.28-25.27-25.23-25.31l-111.45-.29c-6.77-.02-12.92,2.62-17.47,6.92-4.3,4.07-7.17,9.63-7.79,15.86-1.5,15.17,11.85,27.8,27.09,27.85l109.47.28c14.01.04,25.39-11.3,25.39-25.31h0Z"/><path class="cls-3" d="m2009.87,2311.05h0c0-13.95-11.28-25.27-25.23-25.31l-111.45-.29c-6.77-.02-12.92,2.62-17.47,6.92-4.3,4.07-7.17,9.63-7.79,15.86-1.5,15.17,11.85,27.8,27.09,27.85h67.79"/></g><line class="cls-5" x1="1169.71" y1="1540.47" x2="1172.87" y2="1723.38"/><path class="cls-5" d="m1188.88,1430.84c-49.4,10.28-73.73-17.36-73.73-17.36"/></g><line class="cls-5" x1="263.34" y1="4025.8" x2="4269.46" y2="4025.8"/></g></svg>