<?xml version="1.0" encoding="UTF-8"?><svg id="Layer_2" xmlns="http://www.w3.org/2000/svg" viewBox="0 0 4615.66 4085.93"><defs><style>.cls-1,.cls-2,.cls-3,.cls-4{fill:#fff;}.cls-5{fill:#e17847;}.cls-6{stroke-dasharray:0 0 21.24 42.49;}.cls-6,.cls-7,.cls-8,.cls-9{fill:none;}.cls-6,.cls-7,.cls-8,.cls-9,.cls-2,.cls-3{stroke-linecap:round;stroke-linejoin:round;}.cls-6,.cls-7,.cls-8,.cls-9,.cls-2,.cls-3,.cls-4{stroke-width:10px;}.cls-6,.cls-9,.cls-2{stroke:#c1c7d7;}.cls-7,.cls-3,.cls-4{stroke:#2e2e2e;}.cls-8{stroke:#4671f1;}.cls-10{fill:#c1c7d7;}.cls-11{fill:#203058;}.cls-12{fill:#2e2e2e;}.cls-4{stroke-miterlimit:10;}</style></defs><g id="Layer_1-2"><line class="cls-7" x1="2141.49" y1="1212.11" x2="2149.51" y2="1556.89"/><g><g><g><rect class="cls-2" x="2676" y="129.08" width="1211.97" height="171.18" rx="37.87" ry="37.87"/><line class="cls-2" x1="2733.02" y1="214.67" x2="3192.9" y2="214.67"/><g><line class="cls-9" x1="3422.85" y1="174.58" x2="3432.85" y2="174.58"/><line class="cls-6" x1="3475.33" y1="174.58" x2="3772.74" y2="174.58"/><line class="cls-9" x1="3793.98" y1="174.58" x2="3803.98" y2="174.58"/></g><g><line class="cls-9" x1="3422.85" y1="214.67" x2="3432.85" y2="214.67"/><line class="cls-6" x1="3475.33" y1="214.67" x2="3772.74" y2="214.67"/><line class="cls-9" x1="3793.98" y1="214.67" x2="3803.98" y2="214.67"/></g><g><line class="cls-9" x1="3422.85" y1="254.76" x2="3432.85" y2="254.76"/><line class="cls-6" x1="3475.33" y1="254.76" x2="3772.74" y2="254.76"/><line class="cls-9" x1="3793.98" y1="254.76" x2="3803.98" y2="254.76"/></g></g><g><line class="cls-2" x1="2800.84" y1="300.26" x2="2800.84" y2="360.42"/><line class="cls-2" x1="3763.14" y1="300.26" x2="3763.14" y2="360.42"/></g><g><rect class="cls-2" x="2676" y="360.42" width="1211.97" height="171.18" rx="37.87" ry="37.87"/><line class="cls-2" x1="2733.02" y1="446.01" x2="3192.9" y2="446.01"/><g><line class="cls-9" x1="3422.85" y1="405.92" x2="3432.85" y2="405.92"/><line class="cls-6" x1="3475.33" y1="405.92" x2="3772.74" y2="405.92"/><line class="cls-9" x1="3793.98" y1="405.92" x2="3803.98" y2="405.92"/></g><g><line class="cls-9" x1="3422.85" y1="446.01" x2="3432.85" y2="446.01"/><line class="cls-6" x1="3475.33" y1="446.01" x2="3772.74" y2="446.01"/><line class="cls-9" x1="3793.98" y1="446.01" x2="3803.98" y2="446.01"/></g><g><line class="cls-9" x1="3422.85" y1="486.11" x2="3432.85" y2="486.11"/><line class="cls-6" x1="3475.33" y1="486.11" x2="3772.74" y2="486.11"/><line class="cls-9" x1="3793.98" y1="486.11" x2="3803.98" y2="486.11"/></g></g><g><line class="cls-2" x1="2800.84" y1="531.61" x2="2800.84" y2="591.77"/><line class="cls-2" x1="3763.14" y1="531.61" x2="3763.14" y2="591.77"/></g><g><rect class="cls-2" x="2676" y="591.77" width="1211.97" height="171.18" rx="37.87" ry="37.87"/><line class="cls-2" x1="2733.02" y1="677.36" x2="3192.9" y2="677.36"/><g><line class="cls-9" x1="3422.85" y1="637.27" x2="3432.85" y2="637.27"/><line class="cls-6" x1="3475.33" y1="637.27" x2="3772.74" y2="637.27"/><line class="cls-9" x1="3793.98" y1="637.27" x2="3803.98" y2="637.27"/></g><g><line class="cls-9" x1="3422.85" y1="677.36" x2="3432.85" y2="677.36"/><line class="cls-6" x1="3475.33" y1="677.36" x2="3772.74" y2="677.36"/><line class="cls-9" x1="3793.98" y1="677.36" x2="3803.98" y2="677.36"/></g><g><line class="cls-9" x1="3422.85" y1="717.45" x2="3432.85" y2="717.45"/><line class="cls-6" x1="3475.33" y1="717.45" x2="3772.74" y2="717.45"/><line class="cls-9" x1="3793.98" y1="717.45" x2="3803.98" y2="717.45"/></g></g><g><line class="cls-2" x1="2800.84" y1="762.95" x2="2800.84" y2="823.11"/><line class="cls-2" x1="3763.14" y1="762.95" x2="3763.14" y2="823.11"/></g><g><rect class="cls-2" x="2676" y="823.11" width="1211.97" height="171.18" rx="37.87" ry="37.87"/><line class="cls-2" x1="2733.02" y1="908.7" x2="3192.9" y2="908.7"/><g><line class="cls-9" x1="3422.85" y1="868.61" x2="3432.85" y2="868.61"/><line class="cls-6" x1="3475.33" y1="868.61" x2="3772.74" y2="868.61"/><line class="cls-9" x1="3793.98" y1="868.61" x2="3803.98" y2="868.61"/></g><g><line class="cls-9" x1="3422.85" y1="908.7" x2="3432.85" y2="908.7"/><line class="cls-6" x1="3475.33" y1="908.7" x2="3772.74" y2="908.7"/><line class="cls-9" x1="3793.98" y1="908.7" x2="3803.98" y2="908.7"/></g><g><line class="cls-9" x1="3422.85" y1="948.8" x2="3432.85" y2="948.8"/><line class="cls-6" x1="3475.33" y1="948.8" x2="3772.74" y2="948.8"/><line class="cls-9" x1="3793.98" y1="948.8" x2="3803.98" y2="948.8"/></g></g></g><path class="cls-2" d="m1549.84,5c-155.24,0-294.78,67.18-391.16,174.04-71.02-69.53-168.24-112.41-275.48-112.41-217.52,0-393.85,176.33-393.85,393.85,0,2.19.05,4.36.08,6.54-37.02-15.78-77.77-24.52-120.56-24.52-170.02,0-307.85,137.83-307.85,307.85s137.83,307.85,307.85,307.85h1180.97c290.84,0,526.61-235.77,526.61-526.61S1840.68,5,1549.84,5Z"/><g><rect class="cls-2" x="869.69" y="661.13" width="2554.51" height="1694.71" rx="56.01" ry="56.01"/><polyline class="cls-9" points="960.27 2123.78 982 2145.51 1025.15 2102.76"/><polyline class="cls-9" points="960.27 1811.11 982 1832.84 1025.15 1790.09"/><g><rect class="cls-9" x="960.27" y="2124.13" width="43.46" height="43.46"/><line class="cls-9" x1="1059.01" y1="2278.62" x2="1369.21" y2="2278.62"/><line class="cls-9" x1="1059.01" y1="2227.12" x2="1516.93" y2="2227.12"/><line class="cls-9" x1="1059.01" y1="2175.63" x2="1483.17" y2="2175.63"/><line class="cls-9" x1="1059.01" y1="2124.13" x2="1516.93" y2="2124.13"/></g><g><rect class="cls-9" x="960.27" y="1811.46" width="43.46" height="43.46"/><line class="cls-9" x1="1059.01" y1="1965.95" x2="1369.21" y2="1965.95"/><line class="cls-9" x1="1059.01" y1="1914.45" x2="1516.93" y2="1914.45"/><line class="cls-9" x1="1059.01" y1="1862.96" x2="1483.17" y2="1862.96"/><line class="cls-9" x1="1059.01" y1="1811.46" x2="1516.93" y2="1811.46"/></g><g><line class="cls-9" x1="1059.01" y1="1653.28" x2="1369.21" y2="1653.28"/><line class="cls-9" x1="1059.01" y1="1601.78" x2="1516.93" y2="1601.78"/><line class="cls-9" x1="1059.01" y1="1550.29" x2="1483.17" y2="1550.29"/><line class="cls-9" x1="1059.01" y1="1498.79" x2="1516.93" y2="1498.79"/></g><g><line class="cls-9" x1="1059.01" y1="1340.6" x2="1369.21" y2="1340.6"/><line class="cls-9" x1="1059.01" y1="1289.11" x2="1516.93" y2="1289.11"/><line class="cls-9" x1="1059.01" y1="1237.61" x2="1483.17" y2="1237.61"/><line class="cls-9" x1="1059.01" y1="1186.12" x2="1516.93" y2="1186.12"/></g><line class="cls-9" x1="869.69" y1="789.79" x2="3424.2" y2="789.79"/><g><circle class="cls-9" cx="967.25" cy="727.76" r="31.3" transform="translate(93.95 1565.95) rotate(-80.78)"/><circle class="cls-9" cx="967.25" cy="727.76" r="12.02"/><circle class="cls-9" cx="1072.86" cy="727.76" r="31.3" transform="translate(182.64 1670.19) rotate(-80.78)"/><circle class="cls-9" cx="1178.46" cy="727.76" r="31.3" transform="translate(-169.44 1046.46) rotate(-45)"/></g><g><line class="cls-9" x1="3038.82" y1="751.91" x2="3085.54" y2="751.91"/><g><line class="cls-9" x1="3267.9" y1="702.79" x2="3317.01" y2="751.91"/><line class="cls-9" x1="3317.01" y1="702.79" x2="3267.9" y2="751.91"/></g><rect class="cls-9" x="3148.71" y="702.79" width="49.11" height="49.11"/></g><g><rect class="cls-9" x="960.27" y="878.3" width="598.69" height="122.68"/><line class="cls-9" x1="1799.9" y1="1542.24" x2="1985.95" y2="1542.24"/><line class="cls-9" x1="1799.9" y1="1481.75" x2="2100.72" y2="1481.75"/><line class="cls-9" x1="1799.9" y1="1421.26" x2="2064.04" y2="1421.26"/><line class="cls-9" x1="1727.84" y1="1327.82" x2="3311.48" y2="1327.82"/><g><path class="cls-9" d="m3076.65,1084.65c0-39.47,32-71.47,71.47-71.47,6.06,0,11.95.76,17.57,2.18l24.12-95.13c-13.34-3.37-27.3-5.17-41.69-5.17-93.66,0-169.59,75.93-169.59,169.59,0,50.26,21.87,95.4,56.6,126.45l65.37-73.16c-14.64-13.09-23.85-32.11-23.85-53.29Z"/><path class="cls-9" d="m3218.17,1070.38l96.16-19.59c-12.94-63.87-61.76-114.7-124.52-130.57l-24.12,95.13c26.45,6.68,47.02,28.11,52.48,55.02Z"/><path class="cls-9" d="m3218.17,1070.38c.93,4.61,1.43,9.38,1.43,14.27,0,39.47-32,71.47-71.47,71.47-18.29,0-34.98-6.88-47.62-18.18l-65.37,73.16c30,26.82,69.58,43.13,112.99,43.13,93.66,0,169.59-75.93,169.59-169.59,0-11.59-1.17-22.91-3.38-33.85l-96.16,19.59Z"/></g><g><line class="cls-9" x1="1785.68" y1="1071.51" x2="1785.68" y2="1254.24"/><line class="cls-9" x1="2525.39" y1="941.68" x2="2525.39" y2="1254.24"/><line class="cls-9" x1="2463.74" y1="1000.99" x2="2463.74" y2="1254.24"/><line class="cls-9" x1="2402.1" y1="1118" x2="2402.1" y2="1254.24"/><line class="cls-9" x1="2340.46" y1="1057.09" x2="2340.46" y2="1254.24"/><line class="cls-9" x1="2278.82" y1="1031.44" x2="2278.82" y2="1254.24"/><line class="cls-9" x1="2217.18" y1="1066.71" x2="2217.18" y2="1254.24"/><line class="cls-9" x1="2155.53" y1="1151.66" x2="2155.53" y2="1254.24"/><line class="cls-9" x1="2093.89" y1="1049.07" x2="2093.89" y2="1254.24"/><line class="cls-9" x1="2032.25" y1="975.34" x2="2032.25" y2="1254.24"/><line class="cls-9" x1="1970.61" y1="1039.46" x2="1970.61" y2="1254.24"/><line class="cls-9" x1="1908.96" y1="1162.88" x2="1908.96" y2="1254.24"/><line class="cls-9" x1="1847.32" y1="1000.99" x2="1847.32" y2="1254.24"/></g><g><path class="cls-9" d="m1727.84,1742.63c374.56-266.48,476.7,113.91,724.91,269.19,248.21,155.28,396.12-217.26,582.38-170.63,149.36,37.39,287.8,170.63,287.8,170.63"/><line class="cls-9" x1="3317.71" y1="2179.38" x2="3317.71" y2="1489.27"/><line class="cls-9" x1="3118.98" y1="2179.38" x2="3118.98" y2="1542.24"/><line class="cls-9" x1="2920.24" y1="2179.38" x2="2920.24" y2="1753"/><line class="cls-9" x1="2721.51" y1="2179.38" x2="2721.51" y2="1553.45"/><line class="cls-9" x1="2522.77" y1="2179.38" x2="2522.77" y2="1878.59"/><line class="cls-9" x1="2324.04" y1="2179.38" x2="2324.04" y2="2059.89"/><line class="cls-9" x1="2125.3" y1="2179.38" x2="2125.3" y2="1940.39"/><line class="cls-9" x1="1926.57" y1="2179.38" x2="1926.57" y2="1866.45"/><line class="cls-9" x1="1727.84" y1="2179.38" x2="1727.84" y2="2068.24"/><polyline class="cls-9" points="1727.84 2068.24 1926.57 1866.45 2125.3 1933.6 2324.04 2058.07 2522.77 1878.59 2721.51 1553.45 2920.24 1753 3118.98 1542.24 3317.71 1489.27"/><circle class="cls-2" cx="1727.84" cy="2068.24" r="22.91"/><circle class="cls-2" cx="1926.57" cy="1866.45" r="22.91"/><circle class="cls-2" cx="2125.3" cy="1934.74" r="22.91"/><circle class="cls-2" cx="2324.04" cy="2056.52" r="22.91"/><circle class="cls-2" cx="2522.77" cy="1878.59" r="22.91"/><circle class="cls-2" cx="2721.51" cy="1553.45" r="22.91"/><circle class="cls-2" cx="2920.24" cy="1753" r="22.91"/><circle class="cls-2" cx="3118.98" cy="1542.24" r="22.91"/><circle class="cls-2" cx="3317.71" cy="1489.27" r="22.91" transform="translate(-81.34 2782.17) rotate(-45)"/></g></g></g><line class="cls-9" x1="1725.77" y1="446.01" x2="2676" y2="446.01"/><circle class="cls-10" cx="1725.77" cy="446.01" r="25.93"/><circle class="cls-10" cx="356.28" cy="762.95" r="25.93"/><circle class="cls-10" cx="3887.98" cy="446.01" r="25.93"/><circle class="cls-10" cx="2676" cy="446.01" r="25.93"/><circle class="cls-10" cx="2676" cy="214.67" r="25.93"/><path class="cls-9" d="m2676,214.67h-186.74c-80.92,0-146.52,65.6-146.52,146.52v278.07"/><path class="cls-9" d="m3887.98,442.23h58.12c89.83,0,162.65,72.82,162.65,162.65v592.7c0,89.26-35.46,174.86-98.57,237.98l-276.72,276.72"/><path class="cls-9" d="m356.28,762.95v373.2c0,87.42,70.87,158.29,158.29,158.29h396.89"/><g><line class="cls-2" x1="958.99" y1="219.43" x2="958.99" y2="489.37"/><polyline class="cls-9" points="1050.12 398.24 958.99 489.37 867.85 398.24"/></g><g><line class="cls-2" x1="1415.87" y1="397.63" x2="1415.87" y2="86.44"/><polyline class="cls-9" points="1310.81 191.5 1415.87 86.44 1520.93 191.5"/></g><circle class="cls-2" cx="2341.74" cy="219.43" r="125.37" transform="translate(530.72 1720.13) rotate(-45)"/><circle class="cls-2" cx="623.14" cy="746.87" r="162.28"/><g><path class="cls-2" d="m646.1,696.71l-1.08-7.08c-1.27-8.35-8.45-14.53-16.9-14.53h-28.13c-6.11,0-11.76,3.26-14.81,8.56l-7.52,13.05h-12.04l-25.88,121.95h178.36l23.34-109.98c1.31-6.16-3.39-11.97-9.69-11.97h-85.64Z"/><path class="cls-2" d="m596.26,696.71l-7.2-12.86c-3.02-5.4-8.73-8.74-14.92-8.74h-28.22c-8.35,0-15.47,6.03-16.86,14.26l-1.24,7.35h0c-6.24,0-10.92,5.69-9.73,11.81l21.55,110.13h178.36l-22.3-113.94c-.91-4.65-4.99-8.01-9.73-8.01h-89.72Z"/></g><g><path class="cls-2" d="m2355.1,179.57l-.81-5.36c-.96-6.32-6.4-11-12.79-11h-21.29c-4.63,0-8.9,2.47-11.21,6.48l-5.69,9.88h-9.11l-19.59,92.3h134.99l17.67-83.24c.99-4.67-2.57-9.06-7.34-9.06h-64.82Z"/><path class="cls-2" d="m2317.38,179.57l-5.45-9.74c-2.29-4.09-6.61-6.62-11.29-6.62h-21.36c-6.32,0-11.71,4.56-12.76,10.79l-.94,5.57h0c-4.72,0-8.27,4.31-7.36,8.94l16.31,83.35h134.99l-16.88-86.24c-.69-3.52-3.77-6.06-7.36-6.06h-67.9Z"/></g></g><g><path class="cls-2" d="m733.68,3160.4c-14.47,76.39-5.86,157.48-29.76,233.49-38,129.53-142.77,232.43-264,284.14,3.03-96.97,18.39-195.73,13.15-292.41-3.42-41.99-13.86-77.43-19.85-120.03-13.03-87.64-2-186.26,35.28-267.12,14.6-31.03,29.27-54.62,47.89-81.37,37.99-52.77,78.12-102.37,110.36-159.23,33.46-56.86,62.53-116.49,94.6-174.23,80.61,110.1,106.48,256.99,69.28,389.21-15.7,63.2-48.52,123.16-56.95,187.56Z"/><path class="cls-2" d="m502.47,3037.92c8.86,116.94,17.18,235.71-1,352.54-20.08,113.02-68.59,220.18-148.38,302.01-24.13-95.06-48.1-191.22-75.37-285.8-36.04-113.1-67.36-220.12-77.13-343.17-20.38-230.97,37.19-480.37,188.17-656.41,64.18,203.06,94.04,417.19,113.71,630.82Z"/><path class="cls-2" d="m308.04,3114.07c-.61,34.6-1.71,69.24-4.27,103.74-2.28,59.53,8.26,120.63,16.65,180.86,14.55,95.99,28.35,191.95,34.03,288.27-170.59-85-313.77-251.39-343.63-446.52-8.34-70.08-6.25-146.24-2.82-215.35,5.16-93.98,10.08-184.6,10.63-278.08,1.09-77.57.68-155.3,5.67-232.73,203.82,130.77,291.96,364.32,283.74,599.8Z"/><polygon class="cls-2" points="228.15 4080.93 565.9 4080.93 670.77 3533.43 123.27 3533.43 228.15 4080.93"/><path class="cls-9" d="m78.71,2678.15c77.48,402.47,12.91,647.34,161.42,855.27"/><path class="cls-9" d="m179.73,2779.62c-19.24,176.17-63.13,182.87-63.13,182.87"/><path class="cls-9" d="m31.36,2981.1c32.28,82.3,94.45,106.04,94.45,106.04"/><path class="cls-9" d="m261.65,3137.66c0,119.45-107.73,193.12-107.73,193.12"/><path class="cls-9" d="m125.81,3440.41c41.14,51.29,81.98,41.2,81.98,41.2"/><path class="cls-9" d="m371.41,2561.93c-55.96,217.69-48.87,426.83-20.89,556.18,27.98,129.35,0,415.31,0,415.31"/><path class="cls-9" d="m283.17,2620.25c-15.07,116.01,51.25,159.37,51.25,159.37"/><path class="cls-9" d="m442.44,2806.78c-25.83,97.36-108.02,146.86-108.02,146.86"/><path class="cls-9" d="m308.04,3114.07c13.87,56.94,51.32,68.16,51.32,68.16"/><path class="cls-9" d="m482.6,3191.23c-31.56,162.73-121.89,190.48-121.89,190.48"/><path class="cls-9" d="m726.56,2704.82c-62.44,302.62-154.99,407.5-172.21,529.39-17.22,121.89-13.96,280.67-50.03,299.21"/><path class="cls-9" d="m617.63,2827.23c-24.54,91.98,29.36,151.65,29.36,151.65"/><path class="cls-9" d="m754.51,2953.64c-58.11,200.16-183.61,213.56-183.61,213.56"/><path class="cls-9" d="m512.29,3356.11c7.63,38.74,25.82,48.81,25.82,48.81"/><path class="cls-9" d="m681.34,3317.28c-17.22,112.01-153.98,165.14-153.98,165.14"/><line class="cls-9" x1="148.16" y1="3653.12" x2="645.95" y2="3653.12"/><line class="cls-9" x1="153.92" y1="3693.44" x2="637.73" y2="3693.44"/></g><g><circle class="cls-2" cx="427.96" cy="1260.51" r="132.57" transform="translate(-765.97 671.81) rotate(-45)"/><g><g><path class="cls-9" d="m455.37,1314.52c0-11.87,4.72-23.07,12.47-32.07,7.85-9.12,12.6-20.98,12.6-33.96,0-30.82-26.69-55.41-58.22-51.92-23.64,2.62-42.87,21.52-45.86,45.11-2.03,15.99,3.2,30.74,12.81,41.51,7.9,8.85,11.82,20.55,11.82,32.41"/><path class="cls-9" d="m400.93,1315.59h54.53v10.35c0,4.38-3.55,7.93-7.93,7.93h-38.66c-4.38,0-7.93-3.55-7.93-7.93v-10.35h0Z"/><line class="cls-9" x1="405.25" y1="1347.6" x2="451.12" y2="1347.6"/><line class="cls-9" x1="405.25" y1="1360.56" x2="451.12" y2="1360.56"/><path class="cls-9" d="m441.7,1369.03c-7.46,7.46-19.57,7.46-27.03,0"/><path class="cls-9" d="m398.88,1240.3c16.19-7.46,42.43-7.46,58.61,0"/><line class="cls-9" x1="428.19" y1="1258.71" x2="428.19" y2="1315.59"/><line class="cls-9" x1="422.24" y1="1258.71" x2="434.13" y2="1258.71"/><g><path class="cls-9" d="m415.87,1315.59c-.57-36.5-6.51-65.38-16.99-75.29"/><path class="cls-9" d="m440.51,1315.59c.57-36.5,6.51-65.38,16.99-75.29"/></g></g><g><g><line class="cls-9" x1="486.87" y1="1281.31" x2="509.68" y2="1294.47"/><line class="cls-9" x1="346.7" y1="1200.38" x2="369.5" y2="1213.54"/></g><line class="cls-9" x1="381.14" y1="1165.94" x2="394.31" y2="1188.74"/><line class="cls-9" x1="428.19" y1="1153.33" x2="428.19" y2="1179.66"/><line class="cls-9" x1="475.24" y1="1165.94" x2="462.07" y2="1188.74"/><g><line class="cls-9" x1="369.5" y1="1281.31" x2="346.7" y2="1294.47"/><line class="cls-9" x1="509.68" y1="1200.38" x2="486.87" y2="1213.54"/></g><g><line class="cls-9" x1="360.43" y1="1247.43" x2="334.09" y2="1247.43"/><line class="cls-9" x1="522.28" y1="1247.43" x2="495.95" y2="1247.43"/></g></g></g></g><g><g><g><g><path class="cls-5" d="m1978.89,3635.64c1.13,14.38-9.62,26.96-24.01,28.08-14.38,1.13-26.96-9.62-28.08-24.01-.84-10.68-12.61-160.99-13.44-171.67-1.13-14.38,9.62-26.96,24.01-28.08,14.38-1.13,26.96,9.62,28.08,24,.84,10.68,12.61,160.99,13.44,171.67Z"/><path class="cls-5" d="m2162.63,3564.92c4.37,13.75-3.23,28.44-16.98,32.81-13.75,4.37-28.44-3.23-32.81-16.98-3.25-10.21-40.22-126.51-43.47-136.71-4.37-13.75,3.23-28.44,16.98-32.81,13.75-4.37,28.44,3.23,32.81,16.98,3.25,10.21,40.22,126.51,43.47,136.71Z"/><path class="cls-5" d="m2110.71,3620.46c3.37,14.03-5.26,28.13-19.29,31.51-14.03,3.37-28.13-5.26-31.51-19.29-2.5-10.41-40.81-169.71-43.31-180.12-3.37-14.03,5.26-28.13,19.29-31.51,14.03-3.37,28.13,5.26,31.51,19.29,2.5,10.42,40.81,169.71,43.31,180.12Z"/><path class="cls-5" d="m2057.09,3664.53c2.71,14.17-6.58,27.86-20.75,30.57-14.17,2.71-27.86-6.58-30.57-20.75-2.01-10.52-38.8-202.73-40.81-213.26-2.71-14.17,6.58-27.86,20.75-30.57,14.17-2.71,27.86,6.58,30.57,20.75,2.01,10.52,38.8,202.74,40.81,213.26Z"/></g><path class="cls-3" d="m2119.73,3435.92l-29.77-155.55c-7.57-39.54-45.76-65.46-85.3-57.9l-77.19,14.77c-18.99,3.63-35.76,14.66-46.62,30.66l-41.76,61.53c-10.32,15.2-12.43,33.54-7.36,49.82,8.54,46.42,24.3,133,24.3,133,2.18,11.83,32.52,2.81,39.15-26.5,4.18-18.51,5.57-40.21,4.11-61.24,4.56,5.93,8.29,13.99,10.39,24.95,2.38,12.43,6.31,34.15,6.31,34.15,1.9,10.29,11.82,17.07,22.1,15.1l159.76-30.57c14.94-2.86,24.73-17.29,21.87-32.23Z"/></g><path class="cls-1" d="m1865.55,3082.85v195.85s296.77-.27,295.04-10.49c-1.73-10.22-105.25-253.5-105.25-253.5l-189.79,68.14Z"/><path class="cls-10" d="m1847.18,2005.75v1175.13s328.99,21.84,335.14,0c6.15-21.84-81.52-1453.96-81.52-1453.96-187.64,63.54-253.62,138.25-253.62,278.83Z"/><polyline class="cls-7" points="1847.18 3180.88 2068.14 3190.41 2057.56 3306.93 1847.18 3268.15"/><path class="cls-11" d="m2928.74,4080.93c-68.49-573.81-137.89-1155.13-137.89-1155.13h-773.52s-116.24,581.33-230.98,1155.13c0,0,519.88,0,519.88,0,25-316.84,45.22-573.06,45.22-573.06l67.23-.22s1.07,258.67,2.36,573.28h507.7Z"/><polygon class="cls-1" points="2352.14 2730.51 2038.25 2816.88 1921.19 3268.21 2259.42 3386.12 2382.67 2854.77 2463.2 2867.19 2614.79 3344.42 2842.96 3257.26 2777.05 2761.94 2352.14 2730.51"/><polyline class="cls-7" points="2022.03 2879.41 1921.19 3268.21 2116 3336.12"/><g><line class="cls-7" x1="3061.37" y1="3386.12" x2="3149.96" y2="3339.77"/><line class="cls-7" x1="3077.55" y1="3426.74" x2="3172.64" y2="3377.55"/><g><path class="cls-3" d="m3234.43,3386.01c.05-.31.1-.63.14-.94.43-2.54,6.04-39.81-26.06-77.71l-102.9-123.55c-11.94-14.33-42.09-28.4-81.53,1.29-25.12,18.91-25.04,58.69-14.67,82.08.83,2.94,1.97,5.84,3.46,8.67l35.14,66.73c-1.17.61-2.12,1.11-2.78,1.46-10.97,5.74-15.2,19.29-9.46,30.25,5.23,9.99,16.93,14.39,27.26,10.76-1.54.78-2.73,1.38-3.46,1.77-10.97,5.74-15.2,19.29-9.46,30.25,4.65,8.89,14.43,13.35,23.81,11.67-9.66,6.2-13.16,18.87-7.73,29.24,5.74,10.97,19.29,15.2,30.25,9.46,1.5-.79,6.47-3.36,13.62-7.06,6.36,10.75,19.72,15.28,31.38,10.47h0c11.38-4.7,17.71-16.92,15-28.93l-1.12-4.95c30.9-15.98,63.15-32.65,67.41-34.88,6.09-3.19,10.1-8.79,11.48-15.01.09-.35.15-.7.21-1.07Z"/><line class="cls-7" x1="3109.43" y1="3459.26" x2="3049.64" y2="3345.7"/><polyline class="cls-7" points="3190.26 3368.43 3143.1 3320.62 3129.81 3324.02 3156.44 3441.92"/></g></g><path class="cls-10" d="m1887.22,1884.42c-27.14-148.46,765.59-367.35,927.68-67.33,85.36,158,98.57,1108.7,98.57,1108.7h-896.14c-14.37-23.82-102.97-892.91-130.11-1041.37Z"/><ellipse class="cls-1" cx="2367.47" cy="1748.45" rx="186.15" ry="68.64"/><path class="cls-7" d="m2170.29,1717.79c-56.74,41.94-16.65,106.08,111.01,125.19,117.3,17.57,304.01-14.79,306.12-75.26"/><line class="cls-7" x1="2182.63" y1="2925.79" x2="2798.93" y2="2925.79"/><line class="cls-7" x1="1901.46" y1="1974.15" x2="1996.78" y2="2757.06"/><polygon class="cls-1" points="2869.81 3016.44 2888.92 3268.21 3132.07 3190.58 3109.64 2999.18 2869.81 3016.44"/><line class="cls-7" x1="2888.92" y1="3268.21" x2="3132.07" y2="3190.58"/><line class="cls-7" x1="2834.79" y1="3157.99" x2="3128.32" y2="3122.13"/><g><path class="cls-10" d="m2736.1,1732.91c273.07,201.17,392.22,1384.21,392.22,1384.21l-310.5,35.86s-45.69-825.67-60.88-1045.64c-15.2-219.97-20.84-374.43-20.84-374.43Z"/><line class="cls-7" x1="2715.35" y1="2299.97" x2="2798.93" y2="2925.79"/></g><line class="cls-7" x1="2312.76" y1="3504.48" x2="2487.72" y2="3504.48"/><path class="cls-7" d="m2003.36,3386.75s-57.5,325.49-122.64,694.17"/><path class="cls-7" d="m2766.84,3756.99s12.81,136.94,30.29,323.94"/><path class="cls-7" d="m2825.77,2500.33c-22.12,0-81.4,16.92-81.4,16.92l81.4,17.5"/><g><g><path class="cls-11" d="m1963.05,1371.49c-.61-23.81,33.52-33.88,40.14-56.76,7.61-26.3-24.96-50.84-19.77-77.72,5.87-30.39,52.62-35.36,63.59-64.3,7.04-18.57-2.95-42.32,9.46-57.83,13.31-16.62,41.42-10.12,58.34-23.05,16.2-12.36,17.03-38.5,33.85-49.99,25.35-17.32,66.86,11.03,88.3-10.94,9.07-9.29,10.19-24.54,19.92-33.14,12.98-11.48,33.54-5.16,48.16,4.14,14.62,9.31,29.38,21.59,46.68,20.59,25.47-1.47,43.15-31.26,68.67-30.95,16.11.19,29.4,12.65,38.69,25.81,9.29,13.16,16.68,28.16,29.3,38.17,13.24,10.51,30.46,14.13,46.28,20.08,15.82,5.96,32.04,16.2,36.26,32.56,4.68,18.12-6.9,38.08-.2,55.55,11.06,28.8,61.65,28.06,67.84,58.29,4.4,21.48-18.92,42.45-12.11,63.29,8.09,24.77,50.07,24.31,57.56,49.27,5.41,18.05-11.74,35.38-12.33,54.22-.45,14.38,8.68,27,15.39,39.72,6.71,12.73,10.79,29.59,1.48,40.56-7.26,8.56-20.33,10.4-27.43,19.09-15.86,19.41,10.78,51.26-2.4,72.59-9.62,15.57-32.6,13.7-49.09,21.66-28.62,13.83-13.43,52.35-30.56,84.48-17.13,32.14-62.48-17.9-94.24-6.89-9.44,3.27-26.48,33.79-36.47,33.79-16.48,0-44.02-8.16-57.75-17.28-13.73-9.12-8.97-7.06-25.3-9.31-10.13-1.4-21.35,1.3-29.28,7.38-3.45-3.24-8.09-5.44-12.77-5.41-11.43.06-21.09,8.02-29.77,15.45-8.68,7.43-18.61,15.19-30.03,14.72-24.75-1.02-31.01-35.18-49.29-51.9-14.34-13.11-35.92-14.52-55.11-11.57-19.2,2.95-37.93,9.53-57.36,9.79-19.42.26-40.85-7.79-48.64-25.58-11.15-25.46,9.81-58.63-6.03-81.47-15.02-21.67-55.3-20.46-61.17-46.16-5-21.9,22-41.07,18.4-63.24-3.9-24.01-40.61-33.39-41.23-57.71Z"/><path class="cls-8" d="m2305.36,1014.79c-13.4-10.37-32.84-18.36-46.51-8.35-10.24,7.5-12.7,22.25-22.36,30.48-22.85,19.47-60.71-11.85-86.95,2.74-17.41,9.68-20.56,35.05-37.43,45.64-17.64,11.06-44.42,2.22-58.86,17.21-13.47,13.98-5.87,38-14.39,55.45-13.28,27.19-59.23,27.84-67.67,56.9-7.46,25.7,22.05,52.51,12.28,77.43-8.49,21.68-42.62,28.43-44.16,51.66-1.58,23.73,33.32,36.15,34.97,59.87,1.52,21.91-26.49,38.15-23.58,59.92,3.42,25.55,42.74,27.98,55.42,50.42,13.37,23.66-10.01,54.07-1.43,79.86,5.99,18.02,26.13,27.78,45.07,29.26,18.93,1.49,37.76-3.24,56.71-4.39"/></g><g><path class="cls-1" d="m2440.5,1465.32l4.52,272.27c-2.26,82.88-232.81,76.85-232.81-9.04v-406.11s207.95-84.94,228.29,142.88Z"/><path class="cls-1" d="m2356.32,1105.37c-331.08,0-138.95,506.06,0,506.06,114.94,0,148.51-126.49,150.96-253.03,2.49-128.65-5.15-253.03-150.96-253.03Z"/><path class="cls-7" d="m2241.93,1518.19c34.21,55.21,76.3,93.23,114.39,93.23,114.94,0,148.51-126.49,150.96-253.03,2.49-128.65-5.15-253.03-150.96-253.03-41.01,0-73.99,7.77-100.05,21.37"/><path class="cls-12" d="m2354.38,1330.36c-15.81-14.88-29.8,18.96-10.84,26.71,18.96,7.74,17.42-20.51,10.84-26.71Z"/><path class="cls-12" d="m2485.07,1343.66c-15.81-14.88-29.8,18.96-10.84,26.71,18.97,7.74,17.42-20.51,10.84-26.71Z"/><path class="cls-7" d="m2506.99,1303.8c-29.66-13.91-68.76-12.25-68.76-12.25"/><path class="cls-7" d="m2405.34,1329.73c9.68,66.18,19.96,100.47,19.96,100.47,0,0-1.52,14.33-22.46,17.39"/><path class="cls-7" d="m2439.93,1497.91s-52.25,13.68-98.6-22.6"/></g><path class="cls-11" d="m2431.97,1188.85c-5.28,9.88,1.3,44.74-3.84,54.57-9.41,17.98-42.59-.9-53.54,16.02-5.92,9.15-1.06,24.03-8.6,31.7-9.47,9.64-26.98-2.46-38.77,3.77-15.01,7.93-8.47,37.51-23.71,44.96-11.33,5.54-28.87-5-35.99,5.81-3.55,5.39-1.71,12.9-1.9,19.61-1.83,30.71-29.24,38.38-54.67,38.22.87,70.25-3.61,89.1-33.17,86.92-9.56-.58-20.51-34.05-29.92-36.32-32.97-7.35-45.41,10.53-67.76,28.15-20.64,11.06-56.91-14.27-66.53-35.71,3.19-22.95,16.78-44.1,23.95-66.24,16.23-31.76,18.76-54.69-7.18-72.7-52.29-45.02-20.19-61.49,20.74-76.54,28.98-7.69,39.96-24.38,18.76-49.23-9.03-17.38,4.31-38.78,21.3-45.28,31.13-13.87,75.6,15.09,64.07-26.69-7.09-53.57,55.76-74.01,97.22-53.11,7.81,3.11,16.27,6.98,23.97,4.31,10.01-3.47,12.78-16.73,20.22-24.59,35.57-37.6,192.26,45.73,135.33,152.34Z"/><path class="cls-7" d="m2411.98,1070.38c28.89,29.56,44.92,71.78,19.99,118.47-5.28,9.88,1.3,44.74-3.84,54.57-9.41,17.98-42.59-.9-53.54,16.02-5.92,9.15-1.06,24.03-8.6,31.7-9.47,9.64-26.98-2.46-38.77,3.77-15.01,7.93-8.47,37.51-23.71,44.96-11.33,5.54-28.87-5-35.99,5.81-3.55,5.39-1.71,12.9-1.9,19.61-1.83,30.71-29.24,38.38-54.67,38.22"/></g><polyline class="cls-7" points="2523.91 3058.32 2614.79 3344.42 2842.96 3257.26"/><path class="cls-7" d="m2018.59,2294.19s156.63,613.37,162.72,585.22c6.09-28.16,26.88-195.49,26.88-195.49"/></g><line class="cls-7" x1="2212.21" y1="1403.52" x2="2212.21" y2="1728.55"/></g><g><g><g><path class="cls-11" d="m1551.21,1866.65c169.37-41.11,196.67,573.07,196.67,573.07,0,0,116.75,287.76,121.68,420.96,4.93,133.19-279.54,121.68-307.49-39.46-27.95-161.15-161.15-490.02-146.35-616.63,14.8-126.62,135.49-337.93,135.49-337.93Z"/><g><path class="cls-1" d="m827.93,1776.3c92.68-94.02,111.37-97.09,111.37-97.09,0,0,32.34-61.4,87.41-80.21,55.07-18.8,253.18-35.59,294.82,131.63,41.64,167.22,95.36,355.93,58.43,539.27-36.94,183.34,28.97,877.25,28.97,877.25,0,0-610.22,125.44-605.52,9.93s24.51-1380.78,24.51-1380.78Z"/><g><path class="cls-12" d="m316.83,4080.93c48.42-202.18,94.95-393.54,135.24-554.92,70.6-282.73,139.12-465.29,139.12-465.29l885.85-12.24c27.36,247.09,12.15,630.22-20.06,1032.45,0,0-508.2,0-508.2,0,18.82-288.48,32.73-494.5,32.73-494.5h-58.69s-62.54,206.49-149.54,494.5h-456.46Z"/><path class="cls-7" d="m594.94,3511.61s-58.95,242.83-138.21,569.32"/><path class="cls-7" d="m1368.26,3371.36c6.29,138.05-3.71,403.8-20.9,709.57"/></g><line class="cls-9" x1="667.75" y1="3054.51" x2="1435.4" y2="3051.21"/><line class="cls-9" x1="674.37" y1="3127.31" x2="1435.4" y2="3120.69"/></g><path class="cls-12" d="m1096.13,1743.65l59.08,119.22-70.55,1108.92,115.14,135.09,129.72-108.62s-10.03-918.13-114.16-1139.61c22.47-44.15,17.94-125.55,17.94-125.55l-137.16,10.55Z"/><path class="cls-11" d="m1141.8,2680.49s72.54-414.01-142.05-882.23c-18.04-39.37-22.97-108.03-45.29-147.95-124.74,4.81-273.8,63.41-409.34,133.96,0,0,64.06,679.69,79,892.56,14.94,212.87-171.79,758.12-171.79,758.12,0,0,107.72,29.88,286.98,82.16,179.26,52.28,272.04,29.88,305.65-63.49l96.84-773.14Z"/><path class="cls-11" d="m1609.46,1877.64s-201.93-173.08-310.8-212.43c9.76,36.23,32.05,114.64,32.47,182.61,1.49,238.06-48.7,624.95-54.55,836.11-7.52,271.45-13.24,747.79-13.24,747.79,11.2,205.4,282.63,85.4,282.63,85.4,0,0-41.08-283.83-70.96-616.2-29.88-332.38,134.44-1023.27,134.44-1023.27Z"/><path class="cls-1" d="m1009.62,1864.98c67.52-149.82,285.92-136.1,317.58-32.71,11.61-86.52-2.11-286.98-231.06-266.93-196.98,17.25-193.08,177.25-86.52,299.64Z"/><path class="cls-7" d="m1356.04,1734.31c81.3,139.12,63.24,272.82,63.24,272.82l-57.82,30.71,70.46,70.46s-141.54,378.09-148.15,540.22"/><path class="cls-7" d="m922.53,1704.51c-5.54,172.53,43.25,302.62,43.25,302.62l88.53,7.23-56.01,90.34s149.96,328.09,149.96,476.98"/><path class="cls-11" d="m570.1,1774.06c194.69-47.64,279.64,605.45,279.64,605.45,0,0,409.99,181.61,460.97,222.72,50.98,41.11-101.95,200.61-162.79,189.1-60.84-11.51-487.28-81.7-569.5-206.68-82.22-124.97-232.58-755.73-8.32-810.6Z"/><g><path class="cls-4" d="m1614.85,2832.47c19.09-100.08,134.32-106.67,186.34-82.96,52.02,23.7,86.91,137.61,14.49,160.66-72.43,23.05-200.82-77.7-200.82-77.7Z"/><path class="cls-3" d="m1688.81,2842.2c17.41-91.28,65.35-79.16,112.79-57.54,47.44,21.62,166.84,171.24,100.79,192.26-66.06,21.02-213.58-134.72-213.58-134.72Z"/><path class="cls-12" d="m1068.76,2911.65l471.93-162.79,656.1,291.05s-27.95,36.18-98.66,65.77c-70.71,29.6-452.2,151.28-452.2,151.28l-577.17-345.31Z"/><polygon class="cls-3" points="1066.47 2878.77 1708.09 3258.99 2202.04 3082.46 1495.92 2722.61 1066.47 2878.77"/><path class="cls-12" d="m1073.69,2860.67l480.15-129.9,642.94,309.14s-49.33-16.44-156.21,16.44c-106.88,32.89-378.2,139.77-378.2,139.77l-588.68-335.45Z"/></g><path class="cls-1" d="m1731.86,2818.76c-8.22-46.04,70.76-40,82.27-8.76,11.51,31.24-1.7,67.95-47.74,67.95-45.2,27.98-58.83,35.5-81.8,32.67-17.07-2.11-40.21-24.66-27.37-32.75,33.45-21.05,74.64-59.12,74.64-59.12Z"/><path class="cls-7" d="m1818.06,2850.7c-9.85,15.6-27.62,27.27-51.67,27.27-45.2,27.98-58.83,35.5-81.8,32.67-17.07-2.11-40.21-24.66-27.37-32.75,33.45-21.05,74.64-59.12,74.64-59.12-2.3-12.86,2.97-22.12,12.01-28.12"/><path class="cls-7" d="m1009.62,1864.98c61.26-137.58,251-145.77,317.58-32.71"/><path class="cls-7" d="m1533.1,1815.62c122.86,196.94-50.59,724.51-50.59,724.51"/><path class="cls-7" d="m1158.62,2796.43c-72.27-1.81-467.46-93.69-525.28-160.54"/><path class="cls-7" d="m686.21,1873.24c107.87,168.76,163.53,506.28,163.53,506.28,0,0,423.35,192.95,460.97,222.72"/><path class="cls-7" d="m739.94,2455.21c21.68-57.82,109.8-75.69,109.8-75.69,0,0-55.6,30.52-57.41,55.82"/><path class="cls-7" d="m595.4,2928.58c68.67,31.58,140.83,62.5,216.99,79.9"/><path class="cls-7" d="m571.91,3026.14c144.54,65.04,202.36,77.69,222.23-23.49"/><g><path class="cls-1" d="m1432.07,2740.85c34.15-.56,78.63,98.98,71.04,146.46-7.58,47.47-74.27-16.42-88.17-51.91-13.9-35.49,17.13-94.54,17.13-94.54Z"/><path class="cls-1" d="m1249.53,2684.03c82.65-34.71,98.63-39,121.63-29.42,23,9.58-104.53,185.56-145.31,150.88-40.78-34.68,23.68-121.46,23.68-121.46Z"/><g><path class="cls-1" d="m1182.86,2743.91c-25.77-107.67,73.92-108.02,73.92-108.02,0,0,141.27,33.71,181.82,65.77,32.74,25.89,124.26,174.08,158.29,230.19,7.25,11.95,3.58,27.46-8.23,34.93h0c-11.04,6.98-25.56,4.55-33.72-5.65l-112.83-141.06s7.21,46.15,10.46,74.71c3.24,28.55-45.6,44.63-57.23,10.55,6.7,35.57-56.16,22.86-61.38-7.78-2.91,30.41-53.05,35.16-64.22-34.45-7.78-48.49-20.31-58.73-20.31-58.73l-66.57-60.46Z"/><line class="cls-7" x1="1376.35" y1="2845.94" x2="1398.38" y2="2908.65"/><line class="cls-7" x1="1326.02" y1="2857.51" x2="1335.24" y2="2896.65"/></g><polyline class="cls-7" points="1449.72 2884.5 1433.04 2822.46 1501.08 2889.84"/></g><path class="cls-1" d="m1371.16,2654.61s-138.78,28.28-145.31,150.88l-112.6-43.78c-5.39-49.58,89.3-129.61,156.2-151.81,9.72.65,15.6,2.23,15.6,2.23l86.11,42.47Z"/><path class="cls-7" d="m1312.33,2605.51c-11.24-3.02-26.18-1.1-42.88,4.4-66.9,22.2-161.6,102.22-156.2,151.81.93,8.87,5.09,16.77,13.13,23.16"/><path class="cls-7" d="m1602.45,2411.77c47.06-11.85,102.47,9.54,143.67,31.71-38.34-9.48-81.46-10.29-119.52.43-16.9,4.76-33.1,12.16-47.19,22.71"/></g><path class="cls-7" d="m1225.22,2807.8c4.84-127.3,145.93-154.06,145.93-154.06"/></g><g><g><path class="cls-12" d="m1068.59,1073.12c-112.55,68.27-151.06,103.33-125.85,208.78,25.21,105.45,71.98,281.05,111.5,321.77,39.52,40.72,14.35-530.55,14.35-530.55Z"/><g><g><path class="cls-1" d="m1300.52,1406.62l-40.03,276.03c-.16,73.3-247.54,28.95-245.18-47.4,3.14-101.38,35.42-425.48,35.42-425.48,0,0,254.96-73.19,249.79,196.85Z"/><path class="cls-7" d="m1015.31,1635.25c3.14-101.38,35.42-425.48,35.42-425.48,0,0,254.96-73.19,249.79,196.85l-40.03,276.03c-.11,50.61-118.09,45.13-190.33,11.76"/><path class="cls-1" d="m1207.05,1008.52c-390.97,0-164.09,597.6,0,597.6,135.72,0,175.38-149.37,178.27-298.8,2.94-151.92-6.08-298.8-178.27-298.8Z"/><path class="cls-7" d="m1207.05,1606.12c135.72,0,175.38-149.37,178.27-298.8,2.94-151.92-6.08-298.8-178.27-298.8"/><path class="cls-12" d="m1242.09,1292.97c-18.66-17.57-35.19,22.4-12.8,31.54,22.4,9.14,20.57-24.22,12.8-31.54Z"/><path class="cls-12" d="m1365.74,1292.97c-18.66-17.57-35.19,22.4-12.8,31.54,22.4,9.14,20.57-24.22,12.8-31.54Z"/><path class="cls-7" d="m1286.88,1280.86c11.43,78.15,23.57,103.23,23.57,103.23,0,0-5.68,11.39-28.71,11.39"/></g><path class="cls-12" d="m1381.34,1181.39c-8.63-76.66-48.67-83.26-77.56-65.51-28.89,17.75-76.41,58.51-248.12,52.62,0,0,3.2,164.43-19.61,187.24-22.81,22.81-58.67-.33-76.18-74.88-43-183.04,61.14-238.24,176.39-267.05,28.81-7.2,85.46-18.86,76.67-63.58,116.31-28.91,266.57,137.61,168.42,231.17Z"/><g><path class="cls-1" d="m1073.11,1415.06c49.32-65.8-62.39-160.87-93.53-103.04-31.14,57.83,47.39,164.6,93.53,103.04Z"/><path class="cls-7" d="m1033.62,1388.3s-32.91-21.02-13.68-43.49"/><path class="cls-7" d="m1056.42,1317.09c-25.65-24.7-61.3-33.95-76.85-5.07-26.67,49.53,27.1,134.94,72.07,119.79"/></g><path class="cls-12" d="m1302.03,1404.59c-60.85-10.74-112.67,25.04-118.24,68.51-52.63,1.16-107.72-130.04-107.72-130.04,0,0-7.01,84.17-18.57,107.3-11.57,23.13,118.54,209.49,228.43,209.4,86.38-.07,85.11-221.36,85.11-221.36,0,0-12.64,27.18-27.88,24.66,12.26-24.71-10.83-53.13-41.13-58.48Z"/><path class="cls-1" d="m1336.83,1474.45c-.02-3.63.11-8.32-1.22-11.13-3.36-36.96-90.15-18.35-112,9.76-2.74,3.97-3.8,7.29-4.67,12.67-3.9,24.01,17.57,62.01,61.51,55.04s56.43-56.85,56.38-66.34Z"/><path class="cls-7" d="m1321.66,1488.68s-43.18,9.97-79.84-5.62"/></g></g><path class="cls-7" d="m1314.62,1281.4s-15.19,91.12,44.61,87.32c59.8-3.8,62.65-108.21,62.65-108.21-50.82-6.1-90.36,15.29-107.26,20.88-6.77,2.24-15.01,1.64-21.83,0-21.78-5.25-74.52-21.97-143.33-11.45-11.37,1.74-21.82,110.17,56.01,107.32,77.83-2.85,87.32-95.87,87.32-95.87"/><line class="cls-7" x1="1149.45" y1="1269.95" x2="1040.97" y2="1299.62"/><path class="cls-7" d="m1269.01,1252.59c-45.24-35.32-90.41-23.07-90.41-23.07"/><path class="cls-7" d="m1178.6,946.9c16.37,78.33-256.79,62.27-212.79,234.58"/><path class="cls-7" d="m1384.97,1235.14c-21.41-5.63-42.82,0-42.82,0"/></g></g><g><g><g><path class="cls-12" d="m4448.4,1749.49c-160.8-84.11-60.27-179.4-82.66-243.72-35.04-100.67-104.67-56.2-123.9-178.15-19.23-121.95-157.21-267.75-312.82-246.47-137.06,18.74-236.91,89.71-239.89,259.88-2.98,170.18-111.15,127.97-121.28,241.15-10.13,113.18,33.43,142.24-41.17,211.54,160.39,108.71,825.05,110.16,921.72-44.23Z"/><path class="cls-7" d="m4472.37,1728.14c-160.88-74.8-66.5-172.73-91.11-234.63-38.51-96.87-104.78-50.11-128.71-168.54-23.94-118.43-165.07-254.66-316.44-226.58"/><g><path class="cls-3" d="m4586.98,3388.47c-9.66-149.43-28.93-448.72-28.57-450.96l-205.67,58.03,91.38,380.21c-32.2,11.6-58.79,36.06-90.91,48.38-33.64,12.9-66.36,11.9-66.88,19.97-.83,12.68,17.57,28.36,60.13,29.94-.25,1.91-.25,3.89.05,5.89.1.7.55,3.6,1.51,8.1-3.23-1.37-6.85-1.98-10.59-1.59-11.75,1.23-20.29,11.69-19.11,23.45,3.2,31.62,25.28,93.29,85.99,100.31.12.01.24.03.35.04,6.75.67,13.09-1.88,17.5-6.41.98.15,1.96.3,2.96.45,10.76,5.57,22.94,9.66,36.72,11.61.3.04.61.08.91.11,4.7.47,9.21-.63,13.01-2.88,7.93,3.08,16.54,5.4,25.89,6.72.3.04.61.08.91.11,5.68.56,11.1-1.16,15.3-4.44,26.22,1.97,47.06,1.78,52.04-2.96,12.73-12.12,34.25-162.92,17.08-224.09Z"/><path class="cls-7" d="m4356.19,3496.97c2.36,15.17,9.17,31.47,17.6,45.53"/><g><polygon class="cls-12" points="4419.73 3304.09 4546.21 3282.79 4548.71 3362.2 4428.06 3352.65 4419.73 3304.09"/><ellipse class="cls-3" cx="4570.09" cy="3322.42" rx="38.91" ry="57.7" transform="translate(-82.29 116.24) rotate(-1.44)"/><polyline class="cls-3" points="4584.42 3289.01 4570.5 3324.79 4600.23 3336.68"/></g><path class="cls-5" d="m3606.39,4080.93c37.44-165.24,80.52-355.32,117.06-516.59h-456.04c-27.11,170.21-57.36,360.08-82.29,516.59h421.27Z"/><path class="cls-5" d="m3808.52,4080.93c-9.84-187.47-18.42-364.8-24.57-516.6l417.43,2.27c-3.9,151.64-9.62,328.11-16.32,514.33h-376.53Z"/><g><path class="cls-11" d="m3486.41,2776.79s762.48-12.68,749.81,0c-12.68,12.68-63.06-711.29-63.06-711.29,0,0-630.03-37.48-629.39-35.86.63,1.61-57.35,747.15-57.35,747.15Z"/><g><path class="cls-10" d="m3786.73,2876.45c160.32-4.39,310.74-186.99,310.74-186.99,0,0,271.54-772.93,0-880.6-271.54-107.67-428.78,25.86-484.61,131.61-55.83,105.75-112.1,544.85-59.88,748.99,52.23,204.14,233.74,186.99,233.74,186.99Z"/><path class="cls-10" d="m3162.19,4080.93c53.14-346.98,157.9-824.88,256.05-1055.98,61.29-144.29,145.06-211.69,145.06-211.69l-10.32-123.8h544.48v126.5s99,151.54,118.25,310.89c8.97,74.28,2.52,510.02-6.93,954.08,0,0-431.41,0-431.41,0-12.61-229.7-22.37-407.51-22.37-407.51,0,0-53.53,208.16-104.79,407.51h-488.04Z"/></g></g><line class="cls-7" x1="3563.31" y1="2813.26" x2="4097.47" y2="2813.26"/><path class="cls-7" d="m3683.48,2814.89c-35.78,331.91,12.34,423.22,12.34,423.22"/><path class="cls-7" d="m3866.48,2813.26c8.25,186.94,324.49,313.58,324.49,313.58"/><path class="cls-7" d="m4127.56,4080.93c-3.26-486.92-6.61-987.28-6.61-987.28"/><g><path class="cls-11" d="m3618.64,1981.09c161.13-206.91,388.66-225.69,418.7-89.57,30.04,136.12,162.9-59.06,109.39-82.1-53.51-23.04-299.29-63.89-417.44-11.08-118.16,52.81-110.65,182.75-110.65,182.75Z"/><g><path class="cls-3" d="m3935.63,1760.19c230.76,22.92,46.98,292.01-205.15,434.88-100.6-211.91,7.97-454.46,205.15-434.88Z"/><g><g><path class="cls-1" d="m3783.61,1542.73l-4.62,277.95c2.31,84.61,237.67,78.45,237.67-9.23v-414.57s-212.29-86.71-233.05,145.86Z"/><path class="cls-1" d="m3929.4,1172.79c326.8,86.23,73.49,528.9-164.32,505.46-37.45-3.69-81.12-169.48-50.58-295.02,31.05-127.63,70.98-248.42,214.91-210.44Z"/><path class="cls-7" d="m3993.13,1568.9c-61.35,69.61-145.63,117.47-228.05,109.34-37.45-3.69-81.12-169.48-50.58-295.02,31.05-127.63,70.98-248.42,214.91-210.44"/><path class="cls-12" d="m3855.7,1405.52c19.48-10.57,24.48,26.48,3.74,29.18-20.74,2.7-11.85-24.78-3.74-29.18Z"/><path class="cls-12" d="m3736.61,1389.9c19.48-10.57,24.48,26.48,3.74,29.18-20.74,2.7-11.85-24.78-3.74-29.18Z"/><path class="cls-7" d="m3733.18,1341.73c29.37-12.73,58.74,3.29,58.74,3.29"/><path class="cls-7" d="m3866.73,1356.34c33.84,1.08,57.16,31.66,57.16,31.66"/><path class="cls-7" d="m3822.58,1382.88c-26.79,62.81-45.87,93.97-45.87,93.97,0,0-2.23,14.54,17.64,23.01"/><line class="cls-7" x1="3778.99" y1="1861.37" x2="3781.34" y2="1679.13"/></g><g><path class="cls-12" d="m3727.58,1317.36c45.01-103.08,166.48-43.63,209.53-84.08-19,59.75,52.44,116.7,64.49,134.19,12.05,17.49,29.92,62.18-8.91,134.99,18.69,13.82,22.61,34.92,23.73,68.54,51.54-18.49,76.71-100.64,101.64-207.4,24.93-106.76-5.04-192.38-141.22-234.79-136.18-42.41-268.49,89.58-249.27,188.55Z"/><g><path class="cls-1" d="m3971.88,1499.19c-26.71-65.87,87.63-120.71,100.91-65.5,13.27,55.21-75.91,127.13-100.91,65.5Z"/><line class="cls-7" x1="3996.65" y1="1478.03" x2="4041.11" y2="1445.34"/><path class="cls-7" d="m3992.51,1431.37c28.45-24.38,72.36-30.62,80.28,2.32,11.37,47.28-52.41,106.82-86.66,84.23"/></g></g></g></g></g><g><path class="cls-11" d="m3759.24,1815.25c-321.74-71.5-332.74,538.98-332.74,538.98,0,0-167.31-86.84-236.01,49.04-69.24,136.95,19.97,373.68,302.01,352.44,55.2-741.24,266.74-940.47,266.74-940.47Z"/><path class="cls-11" d="m3776.64,1789.2c-291.88,19.61-337.8,661.02-343.97,779.27-6.17,118.25,0,307.99,0,307.99h99.58c-53.21-641.74,244.39-1087.26,244.39-1087.26Z"/><path class="cls-7" d="m3486.41,2184.97c-39.66,164.23-50.9,329.14-53.74,383.49-2.95,56.5-3.08,129.32-2.41,189.97"/><path class="cls-7" d="m3736,1809.42c-90.85,50.92-122.12,129.73-122.12,129.73l27.61,41.96-50.74,17.38s-32.61,206.15-34.44,296.62"/></g><path class="cls-11" d="m4232.22,1850.74c-62.64-50.42-145.95-73.1-215.56-76.62,0,0,4.46,60.25-14.57,91.39-40.51,66.29-77.92,136.58-83.36,265.7-11,261.24,110,745.23,110,745.23h255.74s90.75-910.63-52.24-1025.71Z"/><path class="cls-7" d="m4092.84,1798.35c31.92,76.82-58.12,142.98-49.93,232.87-8.04-2.5-72.96,9.99-72.96,9.99l61.71,66.17s-79.19,191.02-70.45,280.91"/><path class="cls-7" d="m3533.1,2536.35c-27.43,161.37-.85,340.1-.85,340.1"/><path class="cls-11" d="m4190.97,1844.95c254.44-32.14,419.69,1248.7,419.69,1248.7h-344.44s-346.66-1214.42-75.25-1248.7Z"/><path class="cls-7" d="m4171.78,1849.7c-126.83,60.12-81.41,294.21-56.34,445.41,25.07,151.2,102.72,581.7,102.72,581.7"/><line class="cls-7" x1="4266.22" y1="3093.65" x2="4610.66" y2="3093.65"/><line class="cls-7" x1="4254.43" y1="3050.94" x2="4596.44" y2="2993.57"/><path class="cls-7" d="m4346.46,3474.05c28.73.54,51.12-1.54,68.4-4.73-6.58,20.74-22.67,67.99-28.95,74.53"/><g><g><path class="cls-1" d="m3332.49,2401c-38.53-15.11-165.27-60.75-239.94-87.52l-115.18-281.08c-4.01-9.63-15.16-14.07-24.7-9.84-8.77,3.89-13.14,13.8-10.09,22.9l23.91,71.46c-22.49-24.81-47.6-52.49-50.72-55.98-7.53-8.4-20.45-9.09-28.84-1.56-8.4,7.53-9.09,20.45-1.56,28.84,2.82,3.14,23.46,25.9,43.97,48.52-19.92-13.46-37.2-25.14-40.03-27.07-9.31-6.36-22.02-3.97-28.39,5.34-6.36,9.31-3.97,22.02,5.34,28.39,1.37.93,6.13,4.16,12.94,8.76-4.32,1.3-8.24,4.02-10.98,8.03-6.36,9.31-3.97,22.02,5.34,28.39,3.04,2.08,22.83,15.45,44.63,30.18-4.55.3-9.03,1.93-12.82,4.94h0c-9.31,7.39-11.47,20.66-4.97,30.62l103.2,158.21c1.59,2.44,3.4,4.63,5.37,6.6,9.72,12.91,27.9,25.37,46.86,27.94,58.92,38.27,183.19,118.41,223.98,140.21,54.18,28.97,108.43-164.42,52.66-186.28Z"/><path class="cls-3" d="m3332.49,2401c-38.53-15.11-165.27-60.75-239.94-87.52l-115.18-281.08c-4.01-9.63-15.16-14.07-24.7-9.84-8.77,3.89-13.14,13.8-10.09,22.9l23.91,71.46c-22.49-24.81-47.6-52.49-50.72-55.98-7.53-8.4-20.45-9.09-28.84-1.56-8.4,7.53-9.09,20.45-1.56,28.84,2.82,3.14,23.46,25.9,43.97,48.52-19.92-13.46-37.2-25.14-40.03-27.07-9.31-6.36-22.02-3.97-28.39,5.34-6.36,9.31-3.97,22.02,5.34,28.39,1.37.93,6.13,4.16,12.94,8.76-4.32,1.3-8.24,4.02-10.98,8.03-6.36,9.31-3.97,22.02,5.34,28.39,3.04,2.08,22.83,15.45,44.63,30.18-4.55.3-9.03,1.93-12.82,4.94h0c-9.31,7.39-11.47,20.66-4.97,30.62l103.2,158.21c1.59,2.44,3.4,4.63,5.37,6.6,9.72,12.91,27.9,25.37,46.86,27.94,17.59,11.42,41,26.58,66.27,42.79,59.4,38.12,129.09,82.12,157.71,97.42,54.18,28.97,108.43-164.42,52.66-186.28Z"/><path class="cls-7" d="m2965.17,2116.77l60.55,172.22-8.6,9.07-82.05-73.48c-8.36-7.48-20.89-7.86-29.68-.88h0"/></g><line class="cls-7" x1="2931.76" y1="2138.38" x2="2973.25" y2="2188.38"/><line class="cls-7" x1="2881.64" y1="2153.82" x2="2956.98" y2="2202.6"/></g></g><path class="cls-7" d="m3937.12,1233.28c-45.62,84.21,32.56,124.3,48.59,158.38"/><line class="cls-7" x1="3755.02" y1="3673.42" x2="3742.7" y2="3471.31"/><line class="cls-7" x1="3671.14" y1="3477.48" x2="3822.91" y2="3462.67"/><path class="cls-7" d="m3710.62,3473.78s-154.65,454.55-206.57,607.15"/><line class="cls-7" x1="3552.99" y1="2689.46" x2="3878.43" y2="2687.8"/></g><polyline class="cls-7" points="4256.13 2532.89 4162.99 2568.22 4230.44 2573.04"/></g><path class="cls-12" d="m3778.99,1582.03c-44.64-1.05-56.24-59.73,9.82-53.25,66.06,6.48,39.19,54.4-9.82,53.25Z"/></g><line class="cls-7" x1="23.03" y1="4080.93" x2="4370.55" y2="4080.93"/></g></svg>