<?xml version="1.0" encoding="UTF-8"?><svg id="Layer_2" xmlns="http://www.w3.org/2000/svg" viewBox="0 0 4627.63 4015.75"><defs><style>.cls-1,.cls-2,.cls-3,.cls-4{fill:#fff;}.cls-5,.cls-6,.cls-7,.cls-8,.cls-2,.cls-9,.cls-10,.cls-11,.cls-3,.cls-12,.cls-4,.cls-13{stroke-width:10px;}.cls-5,.cls-6,.cls-7,.cls-8,.cls-9,.cls-10,.cls-11,.cls-3,.cls-4,.cls-13{stroke-linecap:round;stroke-linejoin:round;}.cls-5,.cls-7,.cls-8,.cls-11{fill:none;}.cls-5,.cls-10,.cls-4,.cls-13{stroke:#2e2e2e;}.cls-6{fill:#9fbfd5;}.cls-6,.cls-2,.cls-9,.cls-11,.cls-3,.cls-12{stroke:#c1c7d7;}.cls-7{stroke:#4671f1;}.cls-8{stroke:#fff;}.cls-14,.cls-9,.cls-10,.cls-12{fill:#c1c7d7;}.cls-2,.cls-12{stroke-miterlimit:10;}.cls-15,.cls-13{fill:#203058;}.cls-16{fill:#2e2e2e;}</style></defs><g id="Layer_1-2"><path class="cls-11" d="m3837.92,306.07C3089.2-163.57,1317.82,49.42,1034.41,685.83"/><g><circle class="cls-3" cx="3502.49" cy="191.41" r="184.64" transform="translate(890.51 2532.69) rotate(-45)"/><g><g><polygon class="cls-3" points="3421.84 110.41 3388.26 143.98 3388.26 310.14 3541.09 310.14 3541.09 110.41 3421.84 110.41"/><polygon class="cls-3" points="3421.84 143.98 3421.84 110.41 3388.26 143.98 3421.84 143.98"/><line class="cls-3" x1="3421.84" y1="171.01" x2="3506.64" y2="171.01"/><line class="cls-3" x1="3421.84" y1="199.4" x2="3506.64" y2="199.4"/><line class="cls-3" x1="3421.84" y1="227.79" x2="3506.64" y2="227.79"/><line class="cls-3" x1="3421.84" y1="256.18" x2="3506.64" y2="256.18"/></g><g><polygon class="cls-3" points="3485.44 71.14 3451.86 104.72 3451.86 270.88 3604.7 270.88 3604.7 71.14 3485.44 71.14"/><polygon class="cls-3" points="3485.44 104.72 3485.44 71.14 3451.86 104.72 3485.44 104.72"/><line class="cls-3" x1="3485.44" y1="131.74" x2="3570.25" y2="131.74"/><line class="cls-3" x1="3485.44" y1="160.13" x2="3570.25" y2="160.13"/><line class="cls-3" x1="3485.44" y1="188.52" x2="3570.25" y2="188.52"/><line class="cls-3" x1="3485.44" y1="216.92" x2="3570.25" y2="216.92"/></g></g></g><g><g><path class="cls-3" d="m3817.79,1486.04l17.06-127.01c-15.62-7.56-30.98-16.07-46.01-25.54-15.03-9.47-29.33-19.66-42.89-30.49l-107.24,70.17c-23.96-21.94-45.78-45.58-65.41-70.62l78.26-101.45c-19.88-29.24-36.23-60.49-48.9-93.04l-127.88,7.14c-9.63-30.67-16.75-62.09-21.29-93.91l118.45-48.7c-2.6-34.84-1.33-70.08,3.99-105.04l-114.36-57.77c6.91-31.05,16.41-61.79,28.56-91.92l127.01,17.06c7.57-15.62,16.07-30.98,25.54-46.01,9.47-15.03,19.66-29.33,30.49-42.89l-70.17-107.24c21.94-23.96,45.58-45.78,70.62-65.41l101.45,78.26c29.24-19.88,60.49-36.23,93.04-48.9l-7.15-127.88c30.67-9.63,62.09-16.75,93.91-21.29l48.7,118.45c34.84-2.6,70.08-1.33,105.04,3.99l57.77-114.36c31.05,6.91,61.79,16.41,91.92,28.56l-17.06,127.01c15.62,7.57,30.98,16.07,46.01,25.54,15.03,9.47,29.33,19.66,42.89,30.49l107.24-70.17c23.96,21.94,45.78,45.58,65.41,70.62l-78.26,101.45c19.88,29.24,36.23,60.49,48.9,93.04l127.88-7.15c9.63,30.67,16.75,62.09,21.29,93.91l-118.46,48.7c2.6,34.84,1.33,70.08-3.99,105.04l114.36,57.77c-6.91,31.05-16.41,61.79-28.56,91.92l-127.01-17.06c-7.56,15.62-16.07,30.98-25.54,46.01s-19.66,29.33-30.49,42.89l70.17,107.24c-21.94,23.96-45.58,45.78-70.62,65.41l-101.45-78.26c-29.24,19.88-60.49,36.23-93.04,48.9l7.15,127.88c-30.67,9.63-62.09,16.75-93.91,21.29l-48.7-118.45c-34.84,2.6-70.08,1.33-105.04-3.99l-57.77,114.36c-31.05-6.91-61.79-16.41-91.92-28.56Zm400.31-434.44c62.68-99.43,32.88-230.85-66.55-293.53-99.43-62.68-230.85-32.88-293.53,66.55-62.68,99.43-32.88,230.85,66.55,293.53,99.43,62.68,230.85,32.88,293.53-66.55Z"/><path class="cls-11" d="m4246.68,607.15c182.79,115.22,237.56,356.8,122.34,539.59"/></g><polyline class="cls-11" points="4405.64 1145.74 4369.02 1146.74 4352.25 1112.93"/></g><path class="cls-11" d="m628.94,798.22c-653.6,408.38-446.82,1262.66,230.43,1596.09"/><path class="cls-11" d="m1750.73,2792.18c1246.45,524,2735.48-166.2,2510.89-1443.57"/><g><g><path class="cls-3" d="m2261.41,3367.38c11.87,53.39,4.8,110.07,24.41,163.19,31.17,90.53,117.11,162.45,216.56,198.59-2.49-67.77-15.09-136.8-10.79-204.37,2.81-29.35,11.37-54.12,16.28-83.89,10.69-61.25,1.64-130.18-28.94-186.7-11.98-21.68-24.01-38.18-39.28-56.87-31.16-36.88-64.08-71.55-90.53-111.29-27.45-39.74-51.3-81.42-77.6-121.77-66.12,76.95-87.34,179.62-56.83,272.02,12.88,44.17,39.8,86.08,46.71,131.09Z"/><path class="cls-5" d="m2349.12,3086.04c-27.45-39.74-51.3-81.42-77.6-121.77-66.12,76.95-87.34,179.62-56.83,272.02,12.88,44.17,39.8,86.08,46.71,131.09"/><path class="cls-13" d="m2451.07,3281.78c-7.27,81.73-14.09,164.74.82,246.39,16.47,78.99,56.26,153.89,121.72,211.08,19.8-66.44,39.46-133.64,61.82-199.75,29.56-79.05,55.26-153.84,63.27-239.85,16.71-161.43-30.51-335.74-154.35-458.77-52.65,141.92-77.14,291.58-93.28,440.89Z"/><path class="cls-3" d="m2610.55,3335c.5,24.19,1.41,48.39,3.5,72.51,1.87,41.61-6.78,84.31-13.66,126.41-11.93,67.09-23.26,134.15-27.91,201.48,139.94-59.41,257.38-175.7,281.88-312.08,6.84-48.98,5.12-102.21,2.31-150.51-4.23-65.69-8.27-129.02-8.72-194.36-.89-54.22-.55-108.54-4.65-162.66-167.19,91.4-239.5,254.63-232.75,419.21Z"/><path class="cls-4" d="m2856.67,3272.81c-2.47-38.33-4.87-75.87-6.54-113.47-1.19-26.83-2-53.68-2.18-80.89-.89-54.22-.55-108.54-4.65-162.66-167.19,91.4-239.5,254.63-232.75,419.21.5,24.19,1.41,48.39,3.5,72.51,1.87,41.61-6.78,84.31-13.66,126.41-11.93,67.09-23.26,134.15-27.91,201.48"/><polygon class="cls-3" points="2676.09 4010.75 2399.03 4010.75 2313.01 3628.09 2762.12 3628.09 2676.09 4010.75"/><path class="cls-11" d="m2798.67,3030.33c-63.56,281.29-10.59,452.44-132.41,597.76"/><path class="cls-11" d="m2715.81,3101.25c15.78,123.13,51.79,127.81,51.79,127.81"/><path class="cls-11" d="m2837.51,3242.06c-26.48,57.52-77.48,74.12-77.48,74.12"/><path class="cls-11" d="m2648.61,3351.48c0,83.48,88.37,134.97,88.37,134.97"/><path class="cls-11" d="m2760.04,3563.08c-33.75,35.85-67.25,28.8-67.25,28.8"/><path class="cls-5" d="m2558.57,2949.1c45.9,152.15,40.08,298.32,17.13,388.72-22.95,90.4,0,290.27,0,290.27"/><path class="cls-5" d="m2630.95,2989.86c12.36,81.08-42.04,111.38-42.04,111.38"/><path class="cls-5" d="m2500.31,3120.22c21.19,68.05,88.6,102.65,88.6,102.65"/><path class="cls-5" d="m2610.55,3335c-11.38,39.8-42.1,47.64-42.1,47.64"/><path class="cls-5" d="m2467.36,3388.92c25.89,113.73,99.99,133.13,99.99,133.13"/><path class="cls-11" d="m2267.25,3048.97c51.22,211.51,127.13,284.81,141.26,370,14.12,85.19,11.45,196.17,41.04,209.12"/><path class="cls-11" d="m2356.6,3134.52c20.13,64.28-24.09,105.99-24.09,105.99"/><path class="cls-11" d="m2244.32,3222.87c47.67,139.89,150.62,149.26,150.62,149.26"/><path class="cls-11" d="m2304.34,3477.02c14.12,78.28,126.31,115.42,126.31,115.42"/><line class="cls-11" x1="2741.7" y1="3711.75" x2="2333.37" y2="3711.75"/><line class="cls-11" x1="2736.98" y1="3739.93" x2="2340.11" y2="3739.93"/></g><polyline class="cls-5" points="2762.12 3628.09 2313.01 3628.09 2373.21 3895.89"/><line class="cls-5" x1="2538.54" y1="3711.75" x2="2333.37" y2="3711.75"/><line class="cls-5" x1="2473.54" y1="3739.93" x2="2635.9" y2="3739.93"/></g><g><g><rect class="cls-12" x="601.66" y="253.59" width="3336.94" height="2218.1" rx="122.96" ry="122.96"/><path class="cls-5" d="m601.66,674.25v-297.7c0-67.91,55.05-122.96,122.96-122.96h137.23"/><path class="cls-5" d="m3938.6,1815.47v533.26c0,67.91-55.05,122.96-122.96,122.96h-806.15"/><rect class="cls-2" x="695.69" y="347.62" width="3148.88" height="2030.04"/></g><g><line class="cls-3" x1="1572.1" y1="719.72" x2="3071.26" y2="719.72"/><line class="cls-3" x1="1572.1" y1="897.54" x2="3071.26" y2="897.54"/><path class="cls-3" d="m1572.1,1075.36h1499.16"/><path class="cls-3" d="m1572.1,1253.19h1499.16"/><path class="cls-3" d="m1572.1,1431.01h1499.16"/><line class="cls-3" x1="1572.1" y1="1608.83" x2="3071.26" y2="1608.83"/><path class="cls-3" d="m1572.1,1786.65h1499.16"/><path class="cls-3" d="m1572.1,1964.47h1499.16"/><path class="cls-3" d="m1572.1,2142.29h1499.16"/><rect class="cls-15" x="1769.26" y="897.54" width="545.42" height="177.82"/><rect class="cls-15" x="2200.05" y="1075.36" width="293.19" height="177.82"/><rect class="cls-15" x="2450.01" y="1253.19" width="142.85" height="177.82"/><rect class="cls-15" x="2507.72" y="1431.01" width="424.13" height="177.82"/><rect class="cls-15" x="2372.24" y="1962.39" width="517.72" height="177.82"/></g><line class="cls-6" x1="1572.1" y1="347.62" x2="1572.1" y2="2369.3"/><line class="cls-6" x1="3071.26" y1="347.62" x2="3071.26" y2="2369.3"/><g><line class="cls-6" x1="1818.2" y1="460.11" x2="2377.4" y2="460.11"/><line class="cls-6" x1="1818.2" y1="538.26" x2="2734.63" y2="538.26"/><line class="cls-6" x1="1818.2" y1="616.4" x2="2555.29" y2="616.4"/></g><g><line class="cls-6" x1="1818.2" y1="2225.4" x2="2377.4" y2="2225.4"/><line class="cls-6" x1="1818.2" y1="2303.55" x2="2734.63" y2="2303.55"/></g><g><g><line class="cls-6" x1="3343.76" y1="498.14" x2="3641.21" y2="498.14"/><line class="cls-6" x1="3343.76" y1="698.87" x2="3547.37" y2="698.87"/><line class="cls-6" x1="3343.76" y1="563.25" x2="3782.65" y2="563.25"/><line class="cls-6" x1="3343.76" y1="628.36" x2="3825.83" y2="628.36"/><rect class="cls-11" x="3183.24" y="468.84" width="58.61" height="58.61"/><polyline class="cls-11" points="3195.76 484.36 3215.3 504.35 3275.25 455.5"/></g><g><line class="cls-6" x1="3343.76" y1="886.56" x2="3641.21" y2="886.56"/><line class="cls-6" x1="3343.76" y1="1087.29" x2="3641.21" y2="1087.29"/><line class="cls-6" x1="3343.76" y1="951.67" x2="3725.09" y2="951.67"/><line class="cls-6" x1="3343.76" y1="1016.78" x2="3794.17" y2="1016.78"/><rect class="cls-11" x="3183.24" y="857.26" width="58.61" height="58.61"/></g><g><line class="cls-6" x1="3343.76" y1="1475.71" x2="3725.09" y2="1475.71"/><rect class="cls-11" x="3183.24" y="1245.68" width="58.61" height="58.61"/><polyline class="cls-11" points="3195.76 1261.2 3215.3 1281.19 3275.25 1232.34"/></g><g><line class="cls-6" x1="3343.76" y1="1663.4" x2="3745.91" y2="1663.4"/><line class="cls-6" x1="3343.76" y1="1864.13" x2="3568.96" y2="1864.13"/><line class="cls-6" x1="3343.76" y1="1728.51" x2="3782.65" y2="1728.51"/><line class="cls-6" x1="3343.76" y1="1793.62" x2="3745.91" y2="1793.62"/><rect class="cls-11" x="3183.24" y="1634.1" width="58.61" height="58.61"/><polyline class="cls-11" points="3195.76 1649.62 3215.3 1669.61 3275.25 1620.76"/></g><g><line class="cls-6" x1="3343.76" y1="2051.82" x2="3704.94" y2="2051.82"/><line class="cls-6" x1="3343.76" y1="2252.55" x2="3641.21" y2="2252.55"/><line class="cls-6" x1="3343.76" y1="2116.93" x2="3782.65" y2="2116.93"/><line class="cls-6" x1="3343.76" y1="2182.04" x2="3745.91" y2="2182.04"/><rect class="cls-11" x="3183.24" y="2022.52" width="58.61" height="58.61"/></g></g><g><g><line class="cls-6" x1="1034.41" y1="485.1" x2="1342.47" y2="485.1"/><line class="cls-6" x1="1034.41" y1="685.83" x2="1248.63" y2="685.83"/><line class="cls-6" x1="1034.41" y1="550.21" x2="1483.91" y2="550.21"/><line class="cls-6" x1="1034.41" y1="615.32" x2="1527.09" y2="615.32"/></g><g><line class="cls-6" x1="1034.41" y1="873.52" x2="1310.75" y2="873.52"/><line class="cls-6" x1="1034.41" y1="1074.25" x2="1242.07" y2="1074.25"/><line class="cls-6" x1="1034.41" y1="938.63" x2="1395.02" y2="938.63"/><line class="cls-6" x1="1034.41" y1="1003.74" x2="1360.01" y2="1003.74"/></g><g><line class="cls-6" x1="1034.41" y1="1261.94" x2="1342.47" y2="1261.94"/><line class="cls-6" x1="1034.41" y1="1462.67" x2="1426.35" y2="1462.67"/><line class="cls-6" x1="1034.41" y1="1327.05" x2="1483.91" y2="1327.05"/><line class="cls-6" x1="1034.41" y1="1392.16" x2="1447.17" y2="1392.16"/></g><g><line class="cls-6" x1="1034.41" y1="1650.36" x2="1447.17" y2="1650.36"/><line class="cls-6" x1="1034.41" y1="1851.09" x2="1270.22" y2="1851.09"/><line class="cls-6" x1="1034.41" y1="1715.47" x2="1483.91" y2="1715.47"/><line class="cls-6" x1="1034.41" y1="1780.58" x2="1447.17" y2="1780.58"/></g><g><line class="cls-6" x1="1034.41" y1="2038.78" x2="1366.85" y2="2038.78"/><line class="cls-6" x1="1034.41" y1="2239.51" x2="1303.12" y2="2239.51"/><line class="cls-6" x1="1034.41" y1="2103.89" x2="1444.57" y2="2103.89"/><line class="cls-6" x1="1034.41" y1="2169" x2="1407.82" y2="2169"/></g></g><line class="cls-9" x1="2036.89" y1="1696.18" x2="2889.96" y2="1696.18"/><g><path class="cls-9" d="m852.78,580.61c-13.98-5.36-23.9-18.89-23.9-34.75,0-20.55,16.66-37.22,37.22-37.22s37.22,16.66,37.22,37.22c0,15.86-9.93,29.39-23.9,34.75,29.34,4.14,54.36,21.74,68.6,46.35,8.05-13.91,12.66-30.06,12.66-47.29,0-52.23-42.34-94.58-94.58-94.58s-94.58,42.34-94.58,94.58c0,17.23,4.61,33.38,12.66,47.29,14.24-24.62,39.26-42.22,68.6-46.35Z"/><path class="cls-11" d="m866.09,674.25c35.01,0,65.57-19.02,81.92-47.29-14.24-24.62-39.26-42.22-68.6-46.35,13.98-5.36,23.9-18.89,23.9-34.75,0-20.55-16.66-37.22-37.22-37.22s-37.22,16.66-37.22,37.22c0,15.86,9.93,29.39,23.9,34.75-29.34,4.14-54.36,21.74-68.6,46.35,16.35,28.27,46.91,47.29,81.92,47.29Z"/></g><g><path class="cls-9" d="m852.78,1351.15c-13.98-5.36-23.9-18.89-23.9-34.75,0-20.55,16.66-37.22,37.22-37.22s37.22,16.66,37.22,37.22c0,15.86-9.93,29.39-23.9,34.75,29.34,4.14,54.36,21.74,68.6,46.35,8.05-13.91,12.66-30.06,12.66-47.29,0-52.23-42.34-94.58-94.58-94.58s-94.58,42.34-94.58,94.58c0,17.23,4.61,33.38,12.66,47.29,14.24-24.62,39.26-42.22,68.6-46.35Z"/><path class="cls-11" d="m866.09,1444.79c35.01,0,65.57-19.02,81.92-47.29-14.24-24.62-39.26-42.22-68.6-46.35,13.98-5.36,23.9-18.89,23.9-34.75,0-20.55-16.66-37.22-37.22-37.22s-37.22,16.66-37.22,37.22c0,15.86,9.93,29.39,23.9,34.75-29.34,4.14-54.36,21.74-68.6,46.35,16.35,28.27,46.91,47.29,81.92,47.29Z"/></g><g><path class="cls-9" d="m852.78,965.88c-13.98-5.36-23.9-18.89-23.9-34.75,0-20.55,16.66-37.22,37.22-37.22s37.22,16.66,37.22,37.22c0,15.86-9.93,29.39-23.9,34.75,29.34,4.14,54.36,21.74,68.6,46.35,8.05-13.91,12.66-30.06,12.66-47.29,0-52.23-42.34-94.58-94.58-94.58s-94.58,42.34-94.58,94.58c0,17.23,4.61,33.38,12.66,47.29,14.24-24.62,39.26-42.22,68.6-46.35Z"/><path class="cls-11" d="m866.09,1059.52c35.01,0,65.57-19.02,81.92-47.29-14.24-24.62-39.26-42.22-68.6-46.35,13.98-5.36,23.9-18.89,23.9-34.75,0-20.55-16.66-37.22-37.22-37.22s-37.22,16.66-37.22,37.22c0,15.86,9.93,29.39,23.9,34.75-29.34,4.14-54.36,21.74-68.6,46.35,16.35,28.27,46.91,47.29,81.92,47.29Z"/></g><line class="cls-5" x1="2605.54" y1="2376.45" x2="3487.12" y2="2376.45"/></g><g><path class="cls-4" d="m4006.74,2729.81c-8.95,31.07-15.59,54.14-15.59,54.14,68.28,112.17,242.02,381.21,242.02,381.21,13.19,21.72,34.53,36.82,58.33,26.19,25.81-11.53,4.47-100.17,4.47-100.17,0,0-89-214.46-134.76-316.87l-154.48-44.5Z"/><g><path class="cls-1" d="m4388.13,3171.21c-7.08-7.32-6.9-18.99.42-26.08,7.32-7.08,18.99-6.9,26.08.42,5.26,5.43,75.73,79.02,80.99,84.45,7.08,7.32,6.9,18.99-.42,26.08-7.32,7.08-18.99,6.9-26.08-.42-5.26-5.43-75.73-79.02-80.99-84.45Z"/><path class="cls-5" d="m4388.55,3145.13c7.32-7.08,18.99-6.9,26.08.42,5.26,5.43,75.73,79.02,80.99,84.45,7.08,7.32,6.9,18.99-.42,26.08-7.32,7.08-18.99,6.9-26.08-.42"/><path class="cls-1" d="m4432.47,3175.36c-7.08-7.32-6.9-18.99.42-26.08,7.32-7.08,18.99-6.9,26.08.42,5.26,5.43,75.73,79.02,80.99,84.45,7.08,7.32,6.9,18.99-.42,26.08-7.32,7.08-18.99,6.9-26.08-.42-5.26-5.43-75.73-79.02-80.99-84.45Z"/><path class="cls-5" d="m4539.95,3234.15c7.08,7.32,6.9,18.99-.42,26.08-7.32,7.08-18.99,6.9-26.08-.42-3.52-3.63-36.22-37.77-59.06-61.59"/><path class="cls-1" d="m4467.35,3178.63c-8.67-5.34-11.37-16.7-6.03-25.37,5.34-8.67,16.7-11.37,25.37-6.03,6.44,3.97,92.88,57.89,99.32,61.86,8.67,5.34,11.37,16.7,6.03,25.37-5.34,8.67-16.7,11.37-25.37,6.03-6.44-3.97-92.88-57.89-99.32-61.86Z"/><path class="cls-5" d="m4467.35,3178.63c-8.67-5.34-11.37-16.7-6.03-25.37,5.34-8.67,16.7-11.37,25.37-6.03,6.44,3.97,92.88,57.89,99.32,61.86,8.67,5.34,11.37,16.7,6.03,25.37-5.34,8.67-16.7,11.37-25.37,6.03-6.44-3.97-92.88-57.89-99.32-61.86Z"/><path class="cls-1" d="m4602.97,3175.78c2.3-9.13-3.36-18.38-12.54-20.47l-330.37-71.96c-15.05-3.01-20.56,1.07-30.49,40.46-7.85,31.13,4.71,65.31,24.75,66.61l150.77.78c8.83.57,17.42-3.04,23.2-9.75,3.99-4.64,6.23-10.3,6.71-16.09l149.16,22.92c8.56,1.32,16.71-4.09,18.83-12.49Z"/><path class="cls-5" d="m4428.28,3181.44c3.99-4.64,6.23-10.3,6.71-16.09l149.16,22.92c8.56,1.32,16.71-4.09,18.83-12.49,2.3-9.13-3.36-18.38-12.54-20.47l-296.49-64.58"/><g><path class="cls-1" d="m4431.25,3248.68h0c-5.15,9.42-16.63,13.37-26.48,9.11l-156.58-67.59c-21.05-9.09-28.61-35.11-15.7-54.06h0c16.01-23.5,48.6-28.48,70.89-10.82l122.55,97.08c7.94,6.29,10.19,17.39,5.33,26.27Z"/><path class="cls-5" d="m4343.94,3157.46l81.98,64.94c7.94,6.29,10.19,17.39,5.33,26.27h0c-5.15,9.42-16.63,13.37-26.48,9.11l-156.58-67.59c-8.34-3.6-27.08-14.18-21.24-41.17"/></g></g><g><polygon class="cls-1" points="3124.39 1825.37 3266.9 2154.85 3137.23 2277.69 3019.88 1865.97 3124.39 1825.37"/><g><path class="cls-15" d="m3128.93,1767.36c57.3,18.04,108.79,36.82,115.39,40.59,14.57,8.31,32.91.41,42.54-5.04,18.9-10.7,36.66-29.47,50-52.85,13.34-23.38,20.46-48.22,20.05-69.94-.21-11.07-2.73-30.87-17.31-39.19-6.57-3.75-49.71-37.24-94.83-76.63l-115.85,203.05Z"/><path class="cls-15" d="m3119.5,1770.06c18.93,10.8,42.74.53,55.25-6.55,24.55-13.9,47.61-38.27,64.94-68.63,17.32-30.37,26.57-62.62,26.04-90.83-.27-14.37-3.55-40.1-22.48-50.89-18.92-10.8-231.72-220.28-227.62-273.18,2.18-28.13-272.74,444.95-247.12,433.14,41.64-19.2,332.07,46.14,351,56.94Z"/><path class="cls-5" d="m3119.5,1770.06c18.93,10.8,42.74.53,55.25-6.55,24.55-13.9,47.61-38.27,64.94-68.63,17.32-30.37,26.57-62.62,26.04-90.83-.27-14.37-3.55-40.1-22.48-50.89"/><ellipse class="cls-4" cx="2844.32" cy="1469.31" rx="285.19" ry="169.91" transform="translate(158.6 3211.71) rotate(-60.29)"/><path class="cls-10" d="m2675.87,1584.25c-1.06-56.33,17.41-120.74,52-181.38,34.59-60.64,80.65-109.31,129.68-137.06,24.98-14.14,72.54-34.64,110.33-13.08,37.8,21.56,44.35,72.93,44.89,101.63,1.06,56.32-17.41,120.74-52,181.38-34.59,60.64-80.65,109.31-129.68,137.06-24.98,14.14-72.53,34.64-110.33,13.07-37.79-21.56-44.34-72.93-44.89-101.63Z"/><line class="cls-5" x1="2997.19" y1="1453.19" x2="2843.06" y2="1402.62"/><line class="cls-5" x1="2908.79" y1="1608.13" x2="2786.27" y2="1502.17"/><path class="cls-1" d="m2952.63,1784.83c33.63-50.81,49.53-59.88,49.53-59.88l73.33,17.48s14.7,18.84,29.39,43.48c11.49-17.43,15.35-23.52,15.35-23.52,0,0,45-26.57,47.6-3.21,2.6,23.36-15.1,95.2-28.76,126.38-1.39,3.18-2.78,6.09-4.15,8.77,1.85,18.91,6.25,20.19,6.25,20.19-22.75,59.14-35.79,74.09-106.08,22.21-70.28-51.88-116.1-101.07-82.48-151.89Z"/><polyline class="cls-15" points="2976.57 1872.15 3080.92 1703.9 3153.78 1755.11 3063.16 1923.73"/><path class="cls-15" d="m3062.07,1928.05c-14.91,37.73-100.92-35.89-85.49-55.9,15.42-20.01,97.69,25.03,85.49,55.9Z"/><path class="cls-5" d="m2987.89,1868.89c30.35-5.04,58.51,18,73.03,42.65"/><ellipse class="cls-5" cx="2814.67" cy="1452.39" rx="57.3" ry="34.14" transform="translate(158.34 3177.42) rotate(-60.29)"/><path class="cls-1" d="m3120.24,1762.38s-47.82-34.96-20.98-78.9c42.73,30.97,65.97,52.33,68.58,75.69,1.21,10.82-1.95,32.04-7.03,54.81-5.9,26.38-40.57-51.6-40.57-51.6Z"/><path class="cls-1" d="m2975.89,1752.34s11.96-22.38,30.35-35.34c3.05-13.52,6.48-29.69,15.33-35.85,13.5-9.41,123.14,36.98,116.5,56.34-2.65,7.72-17.9,16.85-66.77,2,15.84,16.37,31.67,34.49,38.33,41.95,13.85,15.5,15.17,48.95-11.26,42.08,7.72,9.57,20.52,54.26-22.64,35.17-16.93,33.23-59.32-20.34-59.32-20.34,0,0-14.91,17.45-29.44,14.34-14.54-3.11-41.11-26.58-34.33-67.86,0,0-1.94-27.24,23.26-32.49Z"/><path class="cls-5" d="m3135.12,1894.32c10.92-21.92,18.48-48.76,25.84-80.25m-208.15-29.24c-33.63,50.81,12.19,100,82.48,151.89m-13.54-255.57c-8.85,6.17-12.28,22.33-15.33,35.85"/><path class="cls-5" d="m2986.96,1852.68c14.53,3.11,29.44-14.34,29.44-14.34,0,0,42.39,53.57,59.32,20.34,43.16,19.09,30.36-25.6,22.64-35.17,26.43,6.86,25.11-26.58,11.26-42.08-6.66-7.46-22.49-25.58-38.33-41.95,48.87,14.85,64.12,5.72,66.77-2,2.79-8.14-14.99-21.07-37.53-32.61"/><path class="cls-5" d="m3075.73,1858.69c4.27-19.04-44.67-62.69-53.78-71.15-10.71-9.96-51.23,8.39-51.23,8.39"/><path class="cls-5" d="m3098.37,1823.52c-30.95-40.06-50.64-74.96-58.57-78.01"/><path class="cls-5" d="m3071.3,1739.48c-9.55-9.82-18.09-18.26-26.35-23.75"/></g><line class="cls-5" x1="3048.45" y1="1966.21" x2="3106.8" y2="2170.92"/><line class="cls-5" x1="3218.44" y1="2042.82" x2="3143.2" y2="1875.74"/></g><polygon class="cls-1" points="3054.73 2059.72 3218.44 2019.45 3266.9 2123.83 3140.76 2214.51 3054.73 2059.72"/><path class="cls-14" d="m3233.4,2034.3l-164.32,89.53s123.73,502.42,216.31,531c92.58,28.58,210.42-225.07,210.42-225.07l-262.4-395.46Z"/><g><path class="cls-10" d="m3326.93,2890.31s541.48-97.98,529.7-86.21c-11.78,11.78,47.96-667.26,47.96-667.26,0,0-73.11-312.32-368.17-244.53-461.71,106.08-209.49,997.99-209.49,997.99Z"/><path class="cls-1" d="m3545.56,2890.31c148.96-4.08,288.71-173.74,288.71-173.74,0,0,252.29-718.14,0-818.18-211.25-83.76-294.63,18.97-365.38,127.44-61.97,95-137.55,359.67-114.83,716.01,12.46,195.38,191.5,148.47,191.5,148.47Z"/><path class="cls-5" d="m3384.97,2019.45l25.65,38.98-47.14,16.15s-30.3,191.54-32,275.59"/><g><path class="cls-16" d="m3739.59,1362.39c-38.09-118.2,67.35-180.28,156.93-139.03,89.58,41.25,99.89,181.98,75.47,340.84-24.42,158.85,117.21,73.49,160.16,233.81,42.95,160.32-205.25,292.96-311.23,244.92-105.98-48.04-81.32-680.54-81.32-680.54Z"/><path class="cls-5" d="m3881.76,1232.15c92.64,33.81,114.38,173.24,102.98,333.56-11.4,160.31,136.62,62.86,192.49,219.15"/></g><path class="cls-15" d="m3326.18,4010.75c-27.83-358.6-53.19-774.89-34.22-913.52,26.66-194.79,46.01-265.63,46.01-265.63l6.55-100.24,541.58-14.78v117.53s345.17,374.35,568.36,1176.64h-1128.28Z"/><path class="cls-5" d="m3326.18,4010.75c-27.83-358.6-53.19-774.89-34.22-913.52,26.66-194.79,46.01-265.63,46.01-265.63l6.55-100.24,541.58-14.78v117.53"/><line class="cls-5" x1="3337.98" y1="2831.6" x2="3834.28" y2="2831.6"/><g><path class="cls-16" d="m3818.09,1409.59c-50.82-142.17-268.8-153.56-349.2-61.66-79.6,90.98-11.38,237.96,116.88,243.1,128.26,5.13,232.32-181.44,232.32-181.44Z"/><g><path class="cls-1" d="m3683.9,1853.18c214.4,21.3,43.65,271.31-190.6,404.05-93.47-196.89,7.4-422.25,190.6-404.05Z"/><path class="cls-5" d="m3683.9,1853.18c214.4,21.3,43.65,271.31-190.6,404.05-93.47-196.89,7.4-422.25,190.6-404.05Z"/><g><g><path class="cls-1" d="m3542.66,1651.13l-4.29,258.24c2.14,78.61,220.82,72.89,220.82-8.58v-385.18s-197.24-80.56-216.53,135.52Z"/><path class="cls-1" d="m3678.12,1307.42c303.63,80.11,68.28,491.41-152.67,469.63-34.8-3.43-75.37-157.46-47-274.11,28.85-118.58,65.95-230.81,199.67-195.52Z"/><path class="cls-5" d="m3693.68,1717.47c-50.24,40.75-109.74,65.34-168.24,59.57-34.8-3.43-75.37-157.46-47-274.11,28.85-118.58,65.95-230.81,199.67-195.52"/><path class="cls-16" d="m3609.64,1523.66c18.1-9.82,22.74,24.6,3.48,27.11-19.27,2.51-11.01-23.03-3.48-27.11Z"/><path class="cls-16" d="m3558.05,1661.58c24.39,29.09-36.1,50.13-47.72,16.24-11.61-33.89,37.56-28.35,47.72-16.24Z"/><path class="cls-16" d="m3498.99,1509.13c18.09-9.82,22.74,24.6,3.48,27.11s-11.01-23.03-3.48-27.11Z"/><path class="cls-5" d="m3495.81,1464.38c27.29-11.83,54.58,3.06,54.58,3.06"/><path class="cls-5" d="m3619.89,1477.96c31.44,1.01,53.11,29.42,53.11,29.42"/><path class="cls-5" d="m3578.87,1502.61c-24.89,58.36-42.61,87.31-42.61,87.31,0,0-2.07,13.51,16.39,21.38"/></g><g><g><g><path class="cls-5" d="m3557.33,1409.59c34.67-34.48,110.69-20.44,127.96-45.97"/><path class="cls-16" d="m3504.68,1415.26c41.82-95.77,140.6-14.05,180.6-51.63-17.66,55.51,49.56,105.31,49.56,105.31,0,0,25.05,26.12,2.08,144.79,17.37,12.84,21.01,32.45,22.05,63.68,47.89-17.18,71.27-93.51,94.44-192.7,23.16-99.19-4.68-178.75-131.21-218.15-126.53-39.4-235.38,56.74-217.52,148.7Z"/></g><path class="cls-8" d="m3750.27,1276.59c75.75,28.44,86.74,88.27,86.74,88.27"/></g><g><path class="cls-1" d="m3717.59,1610.68c-24.82-61.2,81.42-112.15,93.75-60.86,12.33,51.29-70.53,118.12-93.75,60.86Z"/><line class="cls-5" x1="3740.6" y1="1591.03" x2="3781.91" y2="1560.65"/><path class="cls-5" d="m3736.75,1547.67c26.44-22.65,67.23-28.45,74.59,2.16,10.56,43.93-48.69,99.25-80.52,78.26"/></g></g></g></g></g><path class="cls-14" d="m3959.47,1937.31c-58.2-46.84-135.6-67.92-200.28-71.18,0,0,4.15,55.98-13.54,84.92-37.64,61.59-72.4,126.89-77.45,246.87-10.22,242.72,102.2,692.4,102.2,692.4h237.61l-73.68-290.99s102.73-599.57,25.14-662.01Z"/><path class="cls-5" d="m3759.19,1866.13s4.15,55.98-13.54,84.92c-37.64,61.59-72.4,126.89-77.45,246.87-10.22,242.72,102.2,692.4,102.2,692.4h237.61"/><path class="cls-5" d="m3829.97,1888.63c29.66,71.37-54,132.85-46.39,216.37-7.47-2.32-67.78,9.28-67.78,9.28l57.34,61.48s-73.58,177.48-65.46,260.99"/><path class="cls-5" d="m3920.42,2965.93c289.49,389.85,443.89,1007.44,443.89,1007.44"/><line class="cls-5" x1="3541.39" y1="1777.87" x2="3538.37" y2="1952.49"/></g><line class="cls-5" x1="3069.08" y1="2123.83" x2="3233.4" y2="2034.3"/><line class="cls-5" x1="3218.44" y1="2019.45" x2="3054.73" y2="2059.72"/><polygon class="cls-1" points="4247.13 2935.23 4274.8 2991.15 4125.35 3081.55 4104.2 2962.65 4247.13 2935.23"/><line class="cls-5" x1="4274.8" y1="2991.15" x2="4125.35" y2="3081.55"/><path class="cls-14" d="m3918.15,1920.61c114.06-19.48,199.64,680.79,199.64,680.79l143.83,363.12-153.83,69.2s-177.18-186.54-263.24-470.38c-113.44-374.13-31.97-624.7,73.6-642.73Z"/><path class="cls-5" d="m3918.15,1920.61c114.06-19.48,199.64,680.79,199.64,680.79l143.83,363.12"/><path class="cls-5" d="m4107.8,3033.73s-177.18-186.54-263.24-470.38c-28.65-94.5-44.87-181.13-51.41-258.11"/><path class="cls-5" d="m4033.67,2607.78c56.71-4.21,84.12-6.38,84.12-6.38l-39.94,49.14"/><line class="cls-5" x1="4261.62" y1="2964.53" x2="4103.32" y2="3034.5"/></g><g><g><path class="cls-16" d="m1403.55,1685.52c-.03-26.31,35.79-41.19,37.43-67.45,1.78-28.43-37.71-48.68-32.1-76.61,5.49-27.35,47.08-29.98,60.58-54.4,15.52-28.06-15.31-64.54-2.4-93.89,14.6-33.18,69.27-26.72,89.32-56.92,12.87-19.38,7.62-49.1,25.82-63.58,19.52-15.53,49.93-.81,72.61-11.17,21.7-9.92,29.44-39.55,51.64-48.3,33.45-13.19,73.49,29.96,103.68,10.44,12.77-8.26,18.01-25.38,31.36-32.68,17.81-9.74,39.64,2.81,53.92,17.24,14.28,14.42,27.94,32.28,47.96,35.63,29.47,4.93,57.39-24.49,86.45-17.51,18.35,4.4,30.3,22.08,37.48,39.52,7.19,17.45,11.73,36.49,23.55,51.2,12.39,15.44,31.12,24.04,47.64,34.95,16.52,10.91,32.38,26.82,32.96,46.6.64,21.9-17.77,41.7-14.65,63.39,5.15,35.76,63.12,48.05,62.34,84.18-.56,25.67-32.63,43.56-30.26,69.13,2.81,30.39,50.87,40.76,52.94,71.21,1.49,22.02-22.6,37.36-28.16,58.72-4.25,16.31,2.91,33.09,7.27,49.36,4.36,16.28,4.63,36.59-8.84,46.71-10.51,7.89-25.91,6.61-36.28,14.68-23.16,18.05,6.6,82.88-13.99,103.81-15.04,15.29-55.72,8.44-69.76,21.62-27.15,25.48-11.73,35.85-39.64,68.1-27.91,32.25-99.23-27.88-138.37-23.56-11.63,1.29-19.26,28.37-30.67,25.77-18.82-4.29-39.4-1.51-140.33-96.37-21.14-19.87-91.72,21.36-119.02-33.55-10.13-20.37-37.24-25.91-59.94-27.53-22.69-1.62-45.79,1.03-68.04-3.72s-44.63-19.5-48.91-41.85c-6.13-31.97,26.42-64.41,14.27-94.61-11.53-28.65-57.84-37.72-57.87-68.6Z"/><path class="cls-5" d="m1884.83,1214.99c-13.24-14.78-33.95-28.09-51.81-19.45-13.38,6.48-19.33,22.94-32.21,30.39-30.43,17.6-67.43-26.48-100.73-15.22-22.1,7.47-31.09,36.03-52.77,44.66-22.65,9.02-51.63-6.83-71.45,7.38-18.48,13.26-14.8,42.53-28.3,60.83-21.05,28.52-74.12,19.55-89.98,51.24-14.03,28.03,14.3,65.15-2.22,91.79-14.37,23.18-55.1,23.74-61.79,50.18-6.83,27,30.74,48.68,27.63,76.36-2.88,25.56-38.58,38.35-39.82,64.04-1.47,30.16,43.31,41.26,53.18,69.8,10.4,30.08-22.96,60.17-18.53,91.68,3.1,22.02,24.23,37.52,45.73,43.23,21.49,5.71,44.18,4.25,66.26,6.93"/></g><g><g><g><path class="cls-14" d="m1505.82,4010.75c-20.15-247.86-35.92-486.63-41.71-679.2-5.7-189.44,83.86-400.58,113.67-465.3l647.24,66.41c47.16,150.82,139.17,598.39,232.05,1078.1h-405.1c-76.94-262.66-132.8-453.39-132.8-453.39,0,0-1.9,191.98-4.49,453.39h-408.86Z"/><line class="cls-5" x1="1929.25" y1="3233" x2="1917.55" y2="3552.64"/><line class="cls-5" x1="1931.8" y1="3163.58" x2="1929.25" y2="3233"/><path class="cls-5" d="m1515.61,3423.63s25.48,257.71,58.05,587.12"/><path class="cls-5" d="m1966.41,3461.19s64.78,237.93,149.61,549.55"/><path class="cls-5" d="m2373.83,3588.42s33.2,176.69,79.37,422.33"/><path class="cls-14" d="m2256.73,3006.04s-731.64-86.56-718.11-73.39c13.53,13.17,39.16-940.94,39.16-940.94,0,0,396.03-130.7,566.02,197.43.83,1.6,112.93,816.9,112.93,816.9Z"/><line class="cls-5" x1="2174.66" y1="2979.47" x2="1604.6" y2="2979.47"/><path class="cls-1" d="m1789.75,1883.62c-254.01,19.64-120.28,183.1,157.24,305.52,31.61-96.7,59.81-322.3-157.24-305.52Z"/><g><path class="cls-15" d="m1934.79,1894.62c297.26,77.98,279.09,720.38,285.68,843.18l149.4,606.11-126.96,34.97c-9.49-542.26-43.45-1160.78-334.02-1410.29l25.9-73.97Z"/><path class="cls-5" d="m1990.37,1936.94c96.96,52.88,130.32,134.73,130.32,134.73l-29.47,43.57,54.15,18.05s34.8,214.1,36.76,308.05"/></g><path class="cls-15" d="m1460.79,1979.85c66.85-52.36,155.75-75.92,230.05-79.57,0,0-4.76,62.57,15.55,94.92,43.23,68.85,83.16,141.84,88.96,275.94,11.74,271.31-117.39,1128.72-117.39,1128.72h-272.93l145.32-606.77c-59.29-377.8-169.32-750.78-89.56-813.25Z"/><path class="cls-5" d="m1609.54,1925.44c-34.07,79.78,62.03,148.5,53.29,241.85,8.58-2.59,77.86,10.37,77.86,10.37l-65.86,68.72s84.52,198.38,75.19,291.73"/><path class="cls-1" d="m1995.85,1687.9l-84.88,278.12c-21.33,85.41-217.29,37.51-197.68-51.53,19.61-89.04,74.71-421.66,74.71-421.66,0,0,238.19-45.61,207.85,195.08Z"/><line class="cls-5" x1="1847.65" y1="2894.01" x2="2230.93" y2="2894.01"/><path class="cls-5" d="m2207.74,2779.67c51.72,324.14,35.17,599.21,35.17,599.21l126.96-34.97"/><path class="cls-5" d="m1405.03,3399.87h272.93s72.56-461.15,72.56-533.62"/></g><g><polygon class="cls-1" points="1503.85 3070.81 1315.63 2877.68 1456.88 2787.92 1601.32 3021.04 1503.85 3070.81"/><polygon class="cls-1" points="1429.04 3053.72 1297.12 2836.04 1410.53 2761.03 1587.53 2973.32 1429.04 3053.72"/><g><path class="cls-1" d="m1569.88,3005.94c94.95-19.98-34.17,262.26-41.14,283.22-6.96,20.96-138.05-22.94-133.71-56.35,4.34-33.41,71.16-55.59,71.16-55.59,0,0-13-146.73,103.68-171.28Z"/><path class="cls-5" d="m1595.45,3011.29c39.39,40.34-60.6,259.5-66.7,277.88-6.96,20.96-138.05-22.94-133.71-56.35,4.34-33.41,71.16-55.59,71.16-55.59,0,0-6.8-76.73,33.56-128.5"/><path class="cls-5" d="m1479.11,3172.16c5.1,29.42,29.77,50.91,29.77,50.91,0,0-55.32-4.15-73.14,1.78,33.81-15.28,30.46-47.61,30.46-47.61"/></g><line class="cls-5" x1="1587.53" y1="2973.32" x2="1421.52" y2="3060.09"/></g><path class="cls-15" d="m1580.71,2950.17l-198.4,65.72-331.24-346.87c-73.71-77.19-74.48-198.45-1.76-276.57l411.48-412.61c81.14-75.9,101.57,108.69,156.84,230.27-107.53,153.03-336.15,330.21-336.15,330.21l299.23,409.85Z"/><path class="cls-5" d="m1611.91,2218.11c-57.49,88.92-143.53,159.53-143.53,159.53"/><polyline class="cls-5" points="1223.23 2524.51 1281.48 2540.33 1223.23 2566.89"/><line class="cls-5" x1="1580.71" y1="2950.17" x2="1382.3" y2="3015.89"/></g><g><g><path class="cls-1" d="m1861.88,1335.24c-308.4,81.37-69.36,499.13,155.07,477.01,35.34-3.48,76.56-159.94,47.74-278.41-29.3-120.45-66.98-234.43-202.81-198.59Z"/><path class="cls-5" d="m1846.08,1751.74c51.03,41.39,111.47,66.36,170.88,60.51,35.34-3.48,76.56-159.94,47.74-278.41-29.3-120.45-66.98-234.43-202.81-198.59"/><path class="cls-16" d="m1931.44,1554.88c-18.38-9.97-23.1,24.99-3.53,27.54,19.57,2.55,11.18-23.39,3.53-27.54Z"/><path class="cls-16" d="m2043.82,1540.13c-18.38-9.97-23.1,24.99-3.53,27.54,19.57,2.55,11.18-23.39,3.53-27.54Z"/><path class="cls-5" d="m2047.06,1494.67c-27.72-12.02-55.43,3.11-55.43,3.11"/><path class="cls-5" d="m1921.02,1508.46c-31.93,1.02-53.94,29.88-53.94,29.88"/><path class="cls-5" d="m1962.69,1533.5c25.28,59.27,43.28,88.68,43.28,88.68,0,0,2.1,13.72-16.64,21.72"/></g><g><path class="cls-1" d="m1821.8,1643.27c25.21-62.16-82.7-113.91-95.23-61.81-12.53,52.1,71.64,119.98,95.23,61.81Z"/><line class="cls-5" x1="1798.42" y1="1623.3" x2="1756.46" y2="1592.45"/><path class="cls-5" d="m1802.33,1579.26c-26.85-23.01-68.28-28.9-75.76,2.19-10.73,44.62,49.46,100.81,81.78,79.49"/></g></g><path class="cls-5" d="m1953.01,1704c41.72,16.01,74.65,0,74.65,0"/><line class="cls-5" x1="1960.24" y1="1808.92" x2="1905.12" y2="1980.33"/></g><path class="cls-16" d="m1962.27,1388.59c-2.59,14.49,19.77,55.42,17.33,69.79-4.47,26.3-53.62,16.15-60.46,41.74-3.69,13.84,8.41,30.48,2.1,43.12-7.93,15.89-34.73,7.86-46.95,20.44-15.55,16.01,4.61,50.34-11.42,65.84-11.92,11.52-38.13,5.45-42.64,21.86-2.25,8.18,3.09,16.83,5.57,25.3,10.17,39.14,16.26,92.42-22.2,113.31-22.82,12.39-71,18.26-88.95,32.16-35.68,27.64-39.55,53.02-65.73,79.75-52.57,53.64-140.81,15.74-132.27-90.3,3.77-46.74,9.08-92.02-30.66-104.03-83.65-35.1-27.96-76.32,17.12-111.73,33.13-21.37,40.08-46.69,3.5-69.17-18.34-18.07-10.33-50.24,8.28-65.25,33.3-29.97,100.66-11.78,69.3-59.36-30.58-64.11,39.72-115.16,100.04-105.83,11.03.73,23.17,2.13,31.72-4.33,11.11-8.4,9.2-26.11,15.31-38.94,29.24-61.44,258.96-20.77,231,135.63Z"/></g><g><g><g><polygon class="cls-15" points="634.44 2805.37 539.84 3195.88 1325.74 3379.69 1266.73 2759.67 634.44 2805.37"/><g><g><g><path class="cls-1" d="m987.22,1588.37l2.27,304.49c-3.38,92.65-261.12,83.55-260.24-12.49.88-96.04,4.16-454.1,4.16-454.1,0,0,233.4-92.85,253.81,162.1Z"/><path class="cls-1" d="m806.84,1190.55c-351.38,116.6,25.87,567.59,178.22,537.09,89.4-17.9,113.08-186.55,71.11-321.71-42.67-137.41-94.57-266.73-249.33-215.38Z"/><path class="cls-5" d="m985.06,1727.64c77.3-15.47,92-143.63,71.09-265.4"/><path class="cls-16" d="m903.87,1441.54c-11.1-21.58-38.49,8.86-21.4,24.1,17.1,15.24,26.02-15.12,21.4-24.1Z"/><path class="cls-16" d="m1037.02,1404.63c-8.92-22.57-39.18,5.02-23.67,21.88,15.51,16.85,27.38-12.48,23.67-21.88Z"/><path class="cls-5" d="m1031.49,1333.01c-36.83-13.43-65.22,9.31-65.22,9.31"/><path class="cls-5" d="m888.71,1369.09c-41.14,0-71.37,27.39-71.37,27.39"/><path class="cls-5" d="m937.89,1411.4c33.58,66.83,56.56,99.6,56.56,99.6,0,0,3.43,15.74-17.71,26.37"/></g><g><path class="cls-16" d="m1031.49,1333.01c-32.61-130.58-137.17-110.36-240.56-30.87,24.86,64.02-38.11,146.73-38.11,146.73,0,0-11.63,122.99-21.43,197.76-37.23-35.59-84.96-76.79-119.51-151.19-48.53-104.52-50.6-242.22,100.46-282.09,45.27-114.12,231.99-86.23,267.01-61.13,76.42,54.76,80.19,110.17,52.13,180.79Z"/><g><path class="cls-1" d="m795.69,1549.58c24.7-73.84-104.05-125.98-114.79-64.71-10.74,61.26,91.68,133.8,114.79,64.71Z"/><line class="cls-5" x1="767.16" y1="1528.15" x2="716.32" y2="1495.45"/><path class="cls-5" d="m768.5,1476.85c-32.77-24.71-81.2-28.53-87.6,8.02-9.2,52.47,64.6,113.2,100.5,86.17"/></g></g></g><path class="cls-1" d="m689.48,1811.36l40-108.95s71.36,72.66,152.62,78.18c0,0,81.92,109.66,91.39,216.95,9.47,107.29,0,157.78,0,157.78,0,0-273.75-175.92-284-343.96Z"/><path class="cls-1" d="m989.13,1806.63l-78.03,427.42,129.21,94.19s31.79-259.35,34.16-322.47c2.37-63.11-85.34-199.15-85.34-199.15Z"/><path class="cls-15" d="m936.59,4010.75c-111.18-364.05-242.04-792.51-242.04-792.51l519.14-229.26c87.97,348.59,172.68,696.75,250,1021.77h-527.1Z"/><path class="cls-15" d="m963.3,4010.75c11.4-129.68,33.75-384,33.75-384,0,0,66-378.49,53.77-494.93-12.23-116.44-578.99,0-578.99,0-26.5,248.26-20.17,558.42,2.64,878.93h488.83Z"/><line class="cls-5" x1="872" y1="3603.78" x2="1098.99" y2="3640.5"/><path class="cls-5" d="m997.05,3626.75s-22.35,254.32-33.75,384"/><line class="cls-5" x1="1063" y1="3902.78" x2="1003.9" y2="3626.75"/><path class="cls-5" d="m1075.03,3069.68c18.58,406.75-71.13,481.63-71.13,481.63"/><path class="cls-1" d="m590.97,3073.2c49.09-230.49,122.13-612.73,98.51-747.48-34.71-198.01-82.83-440.12-82.83-440.12l98.35-116.5c31.03,83.28,321.37,451.73,321.37,451.73,0,0,63.6-172.47,0-353.47,0,0,156.81,199.9,182.06,246.45,24.69,45.52,74.16,866.26,72.06,959.4h-689.52Z"/><path class="cls-15" d="m263.93,2116.16c-2.41,35.1,224.39,638.73,261.46,708.15-33.13,91.51-78.1,514.36-78.1,514.36,0,0,311.61-142.79,345.54-452.04,33.92-309.25,31.45-528.77,24.46-643.74-13.86-227.82-143.32-379.57-112.29-473.79,0,0-428.65,165.98-441.07,347.05Z"/><path class="cls-5" d="m447.29,3338.67s311.61-142.79,345.54-452.04c33.92-309.25,31.45-528.77,24.46-643.74-13.86-227.82-143.32-379.57-112.29-473.79"/><path class="cls-15" d="m984.16,1814.58c166.97,255.74,257.89,381.26,260.2,941.27,2.41,582.91,120.78,826.52,120.78,826.52,0,0-47.3-478.73-36.97-671.66,9.26-172.86,33.13-646.94-79.24-887.13-55.73-119.13-264.78-209-264.78-209Z"/><path class="cls-5" d="m988.96,1820.5c166.97,255.74,253.08,375.34,255.4,935.34,2.41,582.91,120.78,826.52,120.78,826.52"/><g><path class="cls-1" d="m657.48,3451.96c-17.8,108.31-68.1,162.94-108.58,189.95,0,0-94.23-4.94-122.6-115.53-28.37-110.59,99.08-139.02,99.08-139.02l132.09,64.6Z"/><polygon class="cls-1" points="492.14 3266.64 578.12 3401.3 437.3 3603.78 337.68 3467.28 492.14 3266.64"/><path class="cls-15" d="m472.94,1968.08c224.22,73.04-119.54,848.07-119.54,866.12s190.28,504.47,190.28,504.47l-192.78,187.71S-2.58,3013.42.01,2863.97c2.6-149.45,175.5-992.78,472.93-895.89Z"/><path class="cls-5" d="m450.82,1967.96c315.73,79.02-13.52,641.18-13.52,641.18"/><polyline class="cls-5" points="231.27 2852.24 353.4 2834.19 249.46 2888.62"/><polyline class="cls-5" points="471.83 3131.82 543.68 3338.67 350.9 3526.38"/></g><path class="cls-5" d="m689.48,2939.67c-73.64-22.47-164.09-115.36-164.09-115.36,0,0,26.49,74.7,49.38,98.09"/><path class="cls-5" d="m630.98,1830.95v324.37l108.43,21.32-77.67,67.56s157.39,405.65,140.4,547.97"/><path class="cls-5" d="m823.03,1914.22c23.79-72.23,58.12-124.69,58.12-124.69,0,0,96.54,122.48,104.28,258.83"/><path class="cls-1" d="m982.86,1940.96s47.46-17.33,91.61,14.86c-4.54-70.21-40.28-124.87-40.28-124.87l-54.24-84.03-19.46,175.38,22.36,18.67Z"/><path class="cls-5" d="m960.49,1932.7l73.7-101.75c45.32,35.61,40.28,124.87,40.28,124.87"/><path class="cls-5" d="m1064.71,1879.01c127.96,96.47,163.56,204.85,163.56,204.85l-38.81,58.57,59.48,44.79s1.74,406.53-5.16,511.61"/><path class="cls-5" d="m492.14,3667.26s25.45-4.43,56.76-25.35c40.48-27.01,90.78-81.64,108.58-189.95,4.43-27.01,6.87-57.37,6.6-91.49"/></g><line class="cls-5" x1="732.88" y1="3073.2" x2="1258.2" y2="3069.68"/><line class="cls-5" x1="699.99" y1="3125.22" x2="1126.9" y2="3117.92"/></g><path class="cls-5" d="m1248.94,2023.58c74.38,157.31,78.44,358.29,78.44,358.29"/><path class="cls-5" d="m925.28,1595.68c40.99,22.42,92.2,10.02,92.2,10.02"/><ellipse class="cls-5" cx="885.78" cy="1448.88" rx="60.49" ry="43.03" transform="translate(-760.44 1865.83) rotate(-72.77)"/><ellipse class="cls-5" cx="1016.58" cy="1404.31" rx="60.49" ry="43.03" transform="translate(-625.8 1959.39) rotate(-72.77)"/><line class="cls-5" x1="739.47" y1="1461.73" x2="842.38" y2="1445.31"/><line class="cls-5" x1="925.28" y1="1411.4" x2="970.05" y2="1393.84"/><path class="cls-5" d="m740.79,1573.77c-.21-.08-11.31,128.64-11.31,128.64,61.48,89.82,151.67,87.11,151.67,87.11"/><line class="cls-5" x1="985.06" y1="1727.64" x2="971.2" y2="1825.83"/><line class="cls-5" x1="578.12" y1="3401.3" x2="437.3" y2="3603.78"/></g><path class="cls-16" d="m797.27,1517.77l83.88,105.53s43.78-53.23,107.81-72.82c64.03-19.59,75.81,23.28,75.81,23.28,0,0,57.07,155.34-33.29,180.84-62.13,17.53-110.03,23.53-178.47-63.92-60.64-77.49-55.75-172.92-55.75-172.92Zm204.75,134.15c59.02-21.54,67.59-101.06-8.78-78.15-44.61,13.38-50.24,99.69,8.78,78.15Z"/></g><g><g><rect class="cls-14" x="1368.31" y="93.4" width="358.57" height="356.83" rx="71.65" ry="71.65"/><rect class="cls-3" x="1331.85" y="56.95" width="358.57" height="356.83" rx="71.65" ry="71.65"/></g><circle class="cls-15" cx="1496.44" cy="237.93" r="99.71" transform="translate(270.05 1127.83) rotate(-45)"/><path class="cls-3" d="m1496.43,292.97c-4.33,0-8.66-1.61-12.02-4.85l-55.42-53.44c-6.89-6.64-7.08-17.6-.45-24.49,6.64-6.89,17.6-7.08,24.49-.45l43.12,41.58,93-93.81c6.73-6.79,17.7-6.84,24.49-.11,6.79,6.73,6.84,17.7.11,24.49l-105.03,105.94c-3.38,3.41-7.84,5.13-12.3,5.13Z"/></g><g><circle class="cls-3" cx="502.71" cy="915.86" r="187.51" transform="translate(-500.37 623.72) rotate(-45)"/><g><g><path class="cls-11" d="m541.48,992.25c0-16.79,6.68-32.63,17.63-45.36,11.1-12.91,17.82-29.67,17.82-48.04,0-43.6-37.75-78.38-82.34-73.44-33.43,3.7-60.64,30.44-64.87,63.81-2.86,22.61,4.52,43.48,18.12,58.71,11.17,12.51,16.72,29.07,16.72,45.85"/><path class="cls-11" d="m464.46,993.77h77.12v14.64c0,6.19-5.03,11.22-11.22,11.22h-54.69c-6.19,0-11.22-5.03-11.22-11.22v-14.64h0Z"/><line class="cls-11" x1="470.58" y1="1039.05" x2="535.47" y2="1039.05"/><line class="cls-11" x1="470.58" y1="1057.38" x2="535.47" y2="1057.38"/><path class="cls-11" d="m522.14,1069.35c-10.56,10.56-27.68,10.56-38.23,0"/><path class="cls-11" d="m461.57,887.28c22.89-10.56,60.01-10.56,82.91,0"/><line class="cls-11" x1="503.02" y1="913.31" x2="503.02" y2="993.77"/><line class="cls-11" x1="494.61" y1="913.31" x2="511.44" y2="913.31"/><g><path class="cls-11" d="m485.6,993.77c-.8-51.62-9.21-92.48-24.03-106.49"/><path class="cls-11" d="m520.45,993.77c.8-51.62,9.21-92.48,24.03-106.49"/></g></g><g><g><line class="cls-11" x1="586.03" y1="945.28" x2="618.29" y2="963.9"/><line class="cls-11" x1="387.76" y1="830.81" x2="420.02" y2="849.43"/></g><line class="cls-11" x1="436.48" y1="782.09" x2="455.1" y2="814.35"/><line class="cls-11" x1="503.02" y1="764.26" x2="503.02" y2="801.51"/><line class="cls-11" x1="569.57" y1="782.09" x2="550.95" y2="814.35"/><g><line class="cls-11" x1="420.02" y1="945.28" x2="387.76" y2="963.9"/><line class="cls-11" x1="618.29" y1="830.81" x2="586.03" y2="849.43"/></g><g><line class="cls-11" x1="407.18" y1="897.35" x2="369.93" y2="897.35"/><line class="cls-11" x1="636.12" y1="897.35" x2="598.87" y2="897.35"/></g></g></g></g><g><ellipse class="cls-3" cx="3896.67" cy="307.3" rx="311.66" ry="302.31"/><ellipse class="cls-11" cx="3896.67" cy="307.3" rx="282.77" ry="274.28"/><path class="cls-5" d="m4179.44,307.3c0,151.48-126.6,274.28-282.77,274.28"/><polyline class="cls-5" points="3776.09 151.61 3896.67 307.3 4132.66 214.39"/><line class="cls-7" x1="3846.85" y1="423.66" x2="3937.06" y2="423.66"/><line class="cls-7" x1="3862.63" y1="448.25" x2="3921.27" y2="448.25"/></g><line class="cls-5" x1="337.33" y1="4010.75" x2="4607.02" y2="4010.75"/></g></svg>