<?xml version="1.0" encoding="UTF-8"?><svg id="Layer_2" xmlns="http://www.w3.org/2000/svg" viewBox="0 0 4442.93 3980.09"><defs><style>.cls-1,.cls-2,.cls-3,.cls-4{fill:#fff;}.cls-5,.cls-6,.cls-2,.cls-7,.cls-8,.cls-9,.cls-10,.cls-11,.cls-12,.cls-3,.cls-4{stroke-width:10px;}.cls-5,.cls-6,.cls-2,.cls-7,.cls-8,.cls-9,.cls-10,.cls-12,.cls-3,.cls-13,.cls-4{stroke-linecap:round;stroke-linejoin:round;}.cls-5,.cls-2,.cls-8{stroke:#203058;}.cls-5,.cls-14{fill:#203058;}.cls-6,.cls-7,.cls-8,.cls-11,.cls-12,.cls-15,.cls-13{fill:none;}.cls-6,.cls-10,.cls-4{stroke:#2e2e2e;}.cls-16{fill:#a65835;}.cls-7,.cls-11{stroke:#fff;}.cls-17,.cls-9,.cls-10{fill:#c1c7d7;}.cls-9,.cls-12,.cls-3{stroke:#c1c7d7;}.cls-11{stroke-miterlimit:10;}.cls-18{fill:#2e2e2e;}.cls-13{stroke:#f5e8df;stroke-width:18px;}.cls-19{fill:#c92627;}</style></defs><g id="Layer_1-2"><path class="cls-17" d="m613.63,3975.09l3255.18,2.69s1206.53-2259.06,92.79-3267.94C2847.86-299.05,1275.94-329.44,336.84,1252.09c-895.02,1507.31,276.78,2723,276.78,2723Z"/><g><path class="cls-11" d="m1276.86,3009.57c1146.72,1351.86,2711.08,497.3,2628.97-1041.96C3824.23,437.84,1670.9,195.47,924.64,821.04c-746.26,625.57-59.67,1702.95,352.22,2188.53Z"/><path class="cls-11" d="m2288.58,881.14C562.06,771.72,63.83,2373.73,1164.49,3401.54c1093.87,1021.47,2780.67-396.7,2884.63-1389.92,103.97-993.22-1140.39-1091.18-1760.55-1130.48Z"/><path class="cls-11" d="m1179.63,1401.92c-1094.88,1397.91-72.38,2827.21,1369.96,2496.42,1433.45-328.75,1514.2-2519.52,803.33-3188.5-710.87-668.99-1780.02,189.96-2173.29,692.08Z"/><path class="cls-11" d="m2498.79,3487.39c1691.68-376.52,1627.3-2422.13,303.47-3105.26C1486.58-296.8,346.41,1744,500.63,2730.08c154.22,986.08,1390.53,892.56,1998.16,757.32Z"/><path class="cls-11" d="m1721.34,3975.09C479.38,3496.96,342.59,1256.78,1026.52,588.37c715.15-698.93,1774.83,432.51,2165.79,950.74,828.53,1098.23,536.68,2094.74-347.4,2435.98"/></g><g><g><g><circle class="cls-18" cx="3426.21" cy="598.77" r="67.77" transform="translate(580.12 2598.07) rotate(-45)"/><circle class="cls-18" cx="3771.09" cy="382.13" r="67.77" transform="translate(834.32 2778.49) rotate(-45)"/><circle class="cls-18" cx="3800.98" cy="464.65" r="67.77"/><circle class="cls-18" cx="3785.14" cy="533.88" r="67.77" transform="translate(731.14 2832.87) rotate(-45)"/><circle class="cls-18" cx="3796.75" cy="605.59" r="67.77" transform="translate(118.54 1724.89) rotate(-25.99)"/><circle class="cls-18" cx="3746.23" cy="633" r="67.77" transform="translate(649.65 2834.39) rotate(-45)"/><circle class="cls-18" cx="3403.6" cy="522.55" r="67.77" transform="translate(109.29 1525.08) rotate(-25.65)"/><circle class="cls-18" cx="3383.96" cy="446.78" r="67.77" transform="translate(27.59 1067.75) rotate(-18)"/><circle class="cls-18" cx="3378.71" cy="370.54" r="67.77" transform="translate(-6.83 672.39) rotate(-11.35)"/><circle class="cls-18" cx="3418.17" cy="299.45" r="67.77" transform="translate(789.41 2504.72) rotate(-45)"/><circle class="cls-18" cx="3548.69" cy="269.33" r="67.77" transform="translate(58.03 962.88) rotate(-15.58)"/><circle class="cls-18" cx="3610.89" cy="234.23" r="67.77" transform="translate(260.04 1599.94) rotate(-25.89)"/><circle class="cls-18" cx="3710.25" cy="243.41" r="67.77" transform="translate(914.59 2694.84) rotate(-45)"/><circle class="cls-18" cx="3765.66" cy="273.05" r="67.77" transform="translate(909.86 2742.7) rotate(-45)"/><path class="cls-14" d="m4002.98,1125.93c-156.17-281.48-605.76-362.72-780.96-386.18-175.2-23.46-331.05,594.97-413.23,996.03l610.39,283.95s-32.65,229.35,88.99,99.18c121.63-130.17,383.6-639.49,383.6-639.49,0,0,290.9-29.65,111.22-353.5Z"/><path class="cls-14" d="m2342.39,1220.85c-63.95-219.28,174.97-349.73,242.64-313.18,89.23-53.2,540.08-197.65,655.2-154.81,115.13,42.84-101.23,457.2-228.9,464.5-127.67,7.3-137.68-10.12-137.68-10.12,0,0-49.96,35.11-82.04,23.47-188.43,264.89-418.87,94.25-449.22-9.86Z"/><path class="cls-6" d="m2950.92,989.31c-51.47,173.3-77.27,217.93-77.27,217.93"/><path class="cls-6" d="m2904.8,1046.2c-59.15,156.62-113.19,184.51-113.19,184.51"/><path class="cls-6" d="m2585.03,907.67c188.49,63.97,231.77,136.59,169.14,254.27"/><g><path class="cls-4" d="m3682.92,471.07l-206.96,371.24c-20.34,38.02,40.62,197.37,27.12,263.32,45.44-65.02,262.59-59.42,266.66-193.85l3.4-331.43-90.22-109.28Z"/><path class="cls-1" d="m3503.07,1105.62c84.09-63.32,218.94-39.15,270.59,16.03,53.69,57.36-3.92-209.88-3.92-209.88,0,0-48.54,92.72-136.1,104.03-73.66,9.52-130.56,89.82-130.56,89.82Z"/><path class="cls-6" d="m3503.07,1105.62c84.09-63.32,218.94-39.15,270.59,16.03,43.52,46.5,9.94-139.9-2.84-204.75"/><path class="cls-1" d="m3503.07,1105.62c3.01-105.22-94.78-206.32-170.16-211.73-90.36-6.48,175.59-115.87,175.59-115.87,0,0-50.86,81.54-8.26,168.85,32.57,66.75,2.82,158.74,2.82,158.74Z"/><path class="cls-6" d="m3503.07,1105.62c3.01-105.22-94.78-206.32-170.16-211.73-65.55-4.7,56.44-63.57,128.35-95.53"/></g><g><g><g><path class="cls-1" d="m3814.03,474.98c-11.05-21.62-42.67,3.05-59.57,14.29l-6.6,23.27c2.33,32.02-17.93,67.87.66,96.66,7.21,7.83,20.57,6.93,29.16.63,20.75-18.26,20.15-38.5,27.34-63.81,2.5-16.29,16.53-56.32,9.01-71.03Z"/><path class="cls-1" d="m3761.72,599.81c-3.01,47.07-6.51,109.58-44.92,136.61-50.41,35.47-71.37,75.39-123.12,76.69-62.11-5.69-86.94-39.82-135.37-76.07-57.59-43.1-57.76-190.97-71.35-271.65-16.48-97.79,28.32-316.08,302.56-220.34,64.53,32.26,69.38,78.73,68.19,132.75-.47,21.5,6.19,32.33,10.43,51.77,11.35,52.02.84,118.44-6.41,170.24Z"/></g><path class="cls-6" d="m3552.12,473.98c4.11,101.14-24.84,107.96-12.24,117.71,12.6,9.76,32.14,6.58,32.14,6.58"/></g><g><g><path class="cls-6" d="m3706.92,485.91c-42.68-17.89-86.33-13.68-108.86-9.49-9.39,1.75-15.98,10.38-15.11,19.89,2.3,25.34,13.38,71.57,63.57,73.49,69.29,2.65,60.4-83.9,60.4-83.9Z"/><path class="cls-6" d="m3401.17,479.84c43.23-16.52,86.73-10.91,109.11-6,9.33,2.05,15.64,10.88,14.47,20.36-3.1,25.25-15.66,71.11-65.89,71.42-69.34.43-57.69-85.78-57.69-85.78Z"/><line class="cls-6" x1="3584.08" y1="484.21" x2="3524.62" y2="482.12"/></g><line class="cls-6" x1="3382.03" y1="459.72" x2="3403.6" y2="474.21"/><line class="cls-6" x1="3780.38" y1="473.19" x2="3706.92" y2="485.91"/></g><path class="cls-6" d="m3534.2,435.36c-61.19-26.55-121.8,17.81-124.87,19.22"/><path class="cls-6" d="m3718.57,434.87c-61.19-26.55-113.6,16.96-116.67,18.36"/></g><path class="cls-18" d="m3746.23,577.67s23.99,217.17-38.94,303.15c-62.93,85.97-225.51,98.6-263.46-30.41-37.95-129-44.38-281.95-44.38-281.95,0,0,38.11,96.14,75.13,120.79-18.33-23.3-26.42-73.92-17.77-66.04,31.24,28.51,103.18-17.94,142.26-15.58,48.3,2.89,69.96,53.66,88.6,22.43,2.83,10.79-7.87,52.22-19.8,63.22,57-24.56,78.36-115.61,78.36-115.61Zm-101.2,115.08c.08-50.1-150.86-49.7-159.19-10.9-11.58,53.91,159.03,109.68,159.19,10.9Z"/><path class="cls-18" d="m3617.02,492.75c18.16-16.18,32.8,22.15,11.32,30.24-21.48,8.09-18.88-23.51-11.32-30.24Z"/><path class="cls-18" d="m3439.58,490.99c18.16-16.18,32.8,22.15,11.32,30.24-21.48,8.09-18.88-23.51-11.32-30.24Z"/><circle class="cls-18" cx="3735.21" cy="316.97" r="67.77"/><circle class="cls-18" cx="3650.86" cy="289.6" r="67.77" transform="translate(864.53 2666.37) rotate(-45)"/><circle class="cls-18" cx="3570.74" cy="329.89" r="67.77" transform="translate(-15.08 300.02) rotate(-4.8)"/><circle class="cls-18" cx="3792.73" cy="359.66" r="67.77" transform="translate(273.37 1818.52) rotate(-27.93)"/><circle class="cls-18" cx="3473.3" cy="337.55" r="67.77"/><circle class="cls-18" cx="3471.76" cy="257.72" r="67.77"/><circle class="cls-18" cx="3414.53" cy="321.39" r="67.77"/><circle class="cls-18" cx="3548.69" cy="249.19" r="67.77" transform="translate(863.18 2582.29) rotate(-45)"/><circle class="cls-18" cx="3643.72" cy="261.86" r="67.77" transform="translate(148.39 1323.9) rotate(-21.01)"/></g><g><path class="cls-4" d="m2967.69,378.2c-.09-2.08-.3-4.27-.66-6.58-7.38-48.24-22.98-151.75-22.98-151.75-.94-6.16-9.95-6.85-19.97-2.47.34-.66.66-1.34.95-2.04,6.15-14.76-.83-31.71-15.58-37.86l-54.22-22.6c-10.11-4.21-21.73-2.36-30.03,4.79l-47.1,40.57c-8.57,7.38-12.06,19.08-8.92,29.95l11.42,39.64c-26.04-61.38-69.31-163.38-72.55-171.02-6.1-14.39-22.71-21.1-37.1-15-14.39,6.1-21.1,22.71-15,37.1,3.52,8.3,54.32,128.05,78.9,185.99l-3.59,1.72c-26.69-48.01-77.22-138.92-81.49-146.61-7.59-13.66-24.82-18.58-38.48-10.98-13.66,7.59-18.58,24.82-10.98,38.48,4.18,7.53,52.74,94.88,79.81,143.58l-1.76.84c-23.27-36.48-61.88-97.02-66.4-104.11-8.4-13.18-25.9-17.04-39.07-8.64-13.18,8.4-17.04,25.9-8.64,39.07,5.86,9.19,68.97,108.14,81.74,128.16l71.73,149.92c1.94,4.04,4.18,7.83,6.68,11.39-80.94,122.04-250.91,363.51-310.68,450.14-77.6,112.46.67,241.96,88.9,273.82,63.82,23.04,164.11-10.92,192.84-89.83,74.55-204.77,154.96-548.51,196.32-620.28,6.01-10.42,11.98-20.43,17.79-30.38,14.11-9.42,24.91-23.2,30.63-39.39l26.8-75.96c4.7-13.31,4.64-27.15.71-39.65Zm-118.25-162.97l37.73,15.72c5.92,2.47,12.18,2.82,17.97,1.41-3.68,4.78-6.69,10.48-8.4,17.1-7.23,28.01-8.61,62.72-3.71,92.92-11.55-2.97-23.76-11.37-33.07-30.82-5.92-12.37-16.02-34.04-16.02-34.04-.5-1.07-1.1-2.05-1.75-2.99l-12.25-42.52,19.5-16.79Z"/><line class="cls-6" x1="2670.86" y1="322.21" x2="2706.25" y2="377.7"/><line class="cls-6" x1="2712.95" y1="275.7" x2="2751.69" y2="345.4"/><path class="cls-6" d="m2881.79,349.27s-108.26,60.01-57.59,164.58"/></g><line class="cls-6" x1="2808.79" y1="1735.79" x2="3295.78" y2="1964.16"/><path class="cls-6" d="m2991.67,1047.68c-104.09,254.22-182.88,688.11-182.88,688.11"/></g><g><path class="cls-18" d="m927.98,257.02c-240.39,81.76-118.97,556.61-305.22,720.07-186.25,163.46,579.88,640.05,828.32,295.54,248.43-344.51-79.51-391.25-82.48-619.33-2.72-208.31-189.97-481.53-440.61-396.28Z"/><path class="cls-10" d="m2091.71,975.37c-13.66-49.85-62.63-73.03-102.51-67.82-41.58,5.43-91.84,28.56-128.4,67.03-136.49-29.04-285.65-43.24-397.6-48.55-116.71-52.75-309.84-57.3-440.46-17.82-115.44,20.97-257.19,91.98-345.42,175.13-21.54-1.47-40.17,9.76-51.9,38.42-60.3,147.36-171.02,401.37-171.08,579.42-34.03,162.62,101.83,298.1,225.74,242.6,101.35-45.4,119.95-144.4,121.91-222.4,54.68,122.13,108.93,255.77,147.05,388.76l687.05-165.65c-48.06-244.52-50.47-514.78-56.58-705.7,133.24,42.01,380.42,109.34,526.5,82.09,40.11-.24,81.46-11.03,121.53-38.39,97.31-66.44,134.4-214.03-135.83-307.11Z"/><g><path class="cls-6" d="m1513.88,1098.98c58.47,171.31,67.97,245.85,67.97,245.85"/><path class="cls-6" d="m679.59,1375.31c6.63,118.18,41.37,177.08,41.37,177.08"/><path class="cls-6" d="m1448.89,1571.72c-299.66,118.58-605.24,82.75-605.24,82.75,0,0,185.95-4.82,329.17-70.94"/></g><g><path class="cls-1" d="m1019.87,875.21c-378.06,114.72-304.48,472.92,59.64,385.13,399.74-96.38,293.38-492.24-59.64-385.13Z"/><path class="cls-6" d="m846.77,967c-164.26,147.64-59.04,363.69,232.74,293.34,290.39-70.01,313.7-298.07,169.39-376.54"/><g><path class="cls-1" d="m1125.8,362.41l40.98,579.44c2.84,40.17-112.73,112.62-126.36,174-13.95-72.77-144.89-154.81-147.73-194.99l-38.14-539.27,271.25-19.18Z"/><g><path class="cls-18" d="m1143.71,615.66c127.06-48.49,199.47-342.96,14.69-390.68-281.95-72.82-441.07,248.52-300.39,436.97,97.17,130.17,285.7-46.29,285.7-46.29Z"/><g><g><path class="cls-1" d="m811.38,502.06c12.17-19.13,39.41,6.59,54.13,18.52l4.09,22.22c-4.98,29.57,10.71,64.68-9.11,89.82-7.4,6.65-19.74,4.63-27.17-1.98-17.69-18.8-15.35-37.57-19.81-61.74-.9-15.36-10.42-53.82-2.13-66.84Z"/><g><path class="cls-1" d="m1232.13,579.28c-7.47-21.41-39.87-2.6-56.93,5.64l-9.06,20.69c-1.92,29.92-25.22,60.52-11.69,89.52,5.68,8.16,18.15,9.03,26.9,4.29,21.52-14.25,23.54-33.06,33.41-55.57,4.39-14.75,22.46-50.01,17.37-64.58Z"/><path class="cls-1" d="m1188.86,686.88c-8.77,43.17-27.92,96.03-66.9,116.16-51.16,26.41-75.63,60.68-123.68,55.3-56.74-13.16-75.38-47.9-115.58-87.6-47.8-47.21-29.16-184.05-31.47-260.43-2.81-92.58,289.09-8.83,334.1-144.44,38.71,33.89,36.02,65.24,28.05,115.08-3.17,19.84,1.61,30.7,3.07,49.23,3.89,49.58-14.29,109.7-27.59,156.7Z"/><path class="cls-6" d="m1185.33,365.87c38.71,33.89,36.02,65.24,28.05,115.08-3.17,19.84,1.61,30.7,3.07,49.23,3.89,49.58-14.29,109.7-27.59,156.7-8.77,43.17-27.92,96.03-66.9,116.16-51.16,26.41-75.63,60.68-123.68,55.3-39.71-9.21-60.76-28.99-83.59-53.64"/></g><path class="cls-6" d="m1058.08,547.59c-16.66,93.06,9.25,103.05-3.65,110.47-12.9,7.42-30.58,2-30.58,2"/></g><path class="cls-6" d="m1026.52,506.09c-53.24-32.35-114.97.99-117.99,1.9"/><path class="cls-6" d="m1196.86,529.04c-53.24-32.35-107.27,1.24-110.29,2.15"/><path class="cls-6" d="m836.82,526.4c-13.95-11.55-9.44,24.76-2.3,39.47"/></g></g><path class="cls-18" d="m1130.89,584.58c18.86-12.66,27.53,24.67,6.63,29.42-20.9,4.76-14.48-24.15-6.63-29.42Z"/><path class="cls-18" d="m964.07,558.42c18.86-12.66,27.53,24.67,6.63,29.42-20.9,4.76-14.48-24.15-6.63-29.42Z"/></g></g><path class="cls-6" d="m1218.92,881.14c-39.19,17.04-78.58,30.3-78.58,30.3"/><path class="cls-1" d="m717.13,941.26h0c-30.44-2.16-57.26,7.57-64.47,37.22,0,0-119.32,541.96-150.59,627.07-39.51,107.55,246.93,119.02,250.33,20.54s22.86-623.23,22.86-623.23c-.41-32.53-25.68-59.32-58.13-61.62Z"/><path class="cls-1" d="m650.68,987.45c6.43-35.49,32.64-52.69,49.68-53.88,72.29-5.01,137.61-15.52,192.42-17.18,67.73-2.05,41.24,129.63-72.88,125.45-76.01-2.78-181.08,50.88-169.22-54.4Z"/><path class="cls-1" d="m970.5,951.67c42.71-10.3,109.83-33.63,160.22-55.48,11.54-5,16.84-18.42,11.83-29.96-5-11.54-18.42-16.84-29.96-11.83-133.63,57.96-262.11,65.39-263.39,65.46-12.55.67-22.2,11.39-21.54,23.94.66,12.56,11.36,22.2,23.92,21.55,3.58-.19,41.69,4.94,118.91-13.67Z"/><path class="cls-1" d="m1149.66,991.33c10.52-2.54,18.03-12.3,17.37-23.48-.74-12.56-11.52-22.13-24.08-21.39-119.4,7.05-255.41,1.42-256.77,1.36-12.57-.53-23.19,9.22-23.72,21.79-.53,12.57,9.22,23.19,21.79,23.72,1.38.06,139.63,5.79,261.39-1.4,1.38-.08,2.72-.28,4.02-.6Z"/><g><path class="cls-6" d="m1142.95,946.46c-43.42,2.56-89.04,3.45-129.58,3.54"/><path class="cls-6" d="m970.84,995.36c49.81.52,114.34.14,174.8-3.43,1.38-.08,2.72-.28,4.02-.6,10.52-2.54,18.03-12.3,17.37-23.48"/></g><path class="cls-1" d="m1097.03,1072.07c7.37-1.78,13.69-7.2,16.28-14.92,3.99-11.93-2.44-24.83-14.37-28.83-103.78-34.75-210.63-43.72-231.22-45.18-10.76-1-21.02,5.8-24.02,16.58-3.37,12.12,3.72,24.67,15.83,28.05,2.22.62,3.9.74,4.9.81,11.91.84,119.27,9.2,220.05,42.94,4.2,1.41,8.53,1.52,12.55.55Z"/><path class="cls-6" d="m745.94,1047.99s61.02-2.97,82.21-3.01c0,0,38.94-4.98,53.49-14.91,36.49,3.59,121.79,14.31,202.85,41.45,4.2,1.41,8.53,1.52,12.55.55,7.37-1.78,13.69-7.2,16.28-14.92,3.99-11.93-2.44-24.83-14.37-28.83-45.27-15.16-91.13-25.41-130.16-32.28"/><path class="cls-1" d="m1336.57,801.81h0c14.1-27.07,45.67-40.01,74.71-30.63,0,0,467.69,139.17,565.01,174.46,109.9,39.85-10.16,270.2-91.98,223.23-81.82-46.97-525.65-285.27-525.65-285.27-27.51-17.37-37.11-52.93-22.08-81.78Z"/><path class="cls-1" d="m1375.03,769.74c-68.24,31.38-134.21,50.83-185.28,75.05-61.22,29.04,22.36,134.18,122.04,78.46,55.8-31.19,128.43-58.7,119.35-128.11-1.72-13.18-30.45-37.2-56.11-25.4Z"/><path class="cls-1" d="m1116.92,912.38c77.23-18.62,128.54-41.33,131.81-42.79,11.48-5.14,16.62-18.62,11.47-30.09-5.14-11.48-18.62-16.61-30.09-11.47-1.16.52-118.9,52.45-264.27,61.76-12.56.8-22.08,11.63-21.27,24.18.8,12.55,11.63,22.08,24.18,21.27,54.8-3.51,105.46-12.56,148.17-22.86Z"/><path class="cls-1" d="m971.86,1003.65c.28-.07.57-.14.85-.22,134.52-37.87,252.84-90.85,257.82-93.09,11.47-5.16,16.58-18.64,11.42-30.11-5.16-11.47-18.64-16.58-30.11-11.43-1.19.53-120.34,53.86-251.47,90.78-12.11,3.41-19.16,15.99-15.75,28.09,3.33,11.82,15.4,18.83,27.24,15.97Z"/><path class="cls-6" d="m972.07,955.85c-12.11,3.41-19.16,15.99-15.75,28.09,3.33,11.82,15.4,18.83,27.24,15.97.28-.07,8.59-2.09,8.87-2.17,134.52-37.87,233.11-85.16,238.09-87.39"/><path class="cls-1" d="m1144.59,1069.01c5.39-1.3,10.33-4.56,13.63-9.55,11.56-17.43,14.14-33.23,16.03-44.77,1.6-9.76,2.3-12.5,4.55-14.56,55.12-50.5,86.43-67.91,86.74-68.09,11-6.03,15.08-19.85,9.09-30.87-6-11.02-19.74-15.14-30.78-9.18-1.44.77-35.83,19.59-95.81,74.55-14.2,13.01-16.71,28.42-18.74,40.81-1.55,9.48-2.88,17.66-9.03,26.92-6.95,10.48-4.09,24.61,6.39,31.57,5.49,3.65,11.99,4.59,17.93,3.16Z"/><path class="cls-6" d="m1382.23,874.91c-36.63,37.71-76.38,51.48-76.38,51.48-30.53,16.68-50.7,12.17-50.7,12.17-13.46,8.96-39.61,27.92-76.34,61.57-2.26,2.07-2.96,4.8-4.55,14.56-1.88,11.54-4.46,27.34-16.03,44.77-3.31,4.99-8.24,8.25-13.63,9.55-5.94,1.43-12.44.48-17.93-3.16-10.48-6.95-13.34-21.09-6.39-31.57,6.15-9.26,7.48-17.45,9.03-26.92,2.02-12.39,4.54-27.8,18.74-40.81,59.98-54.96,94.38-73.78,95.81-74.55"/><path class="cls-6" d="m1247.2,814.54c-78.76,37.13-108.39,45.77-108.39,45.77"/><path class="cls-6" d="m987.57,947.23c42.15-11.66,99.05-31.92,143.15-51.04,11.54-5,16.84-18.42,11.83-29.96-5-11.54-18.42-16.84-29.96-11.83-70.55,30.6-139.38,48.93-189.39,55.9-60.81,8.47-155.66,5.91-155.66,5.91"/><path class="cls-6" d="m1982.26,941.55c104.39,22.65,81.48,217.37-48.63,278.52"/><path class="cls-6" d="m766.9,1591.51c73.92,44.82,2.53,106.37-68.82,131.89-125.65,44.95-264.79-48.58-195.76-124.19"/><path class="cls-6" d="m1838.67,1154.4c-7.38,90.05,141.88,134.43,141.88,134.43"/><line class="cls-6" x1="773.46" y1="1051.47" x2="755.03" y2="1552.5"/><line class="cls-6" x1="1380.7" y1="895.03" x2="1872.99" y2="1162.54"/><path class="cls-6" d="m493.53,1610.65c-72.99,105.62-33.5,214.79-33.5,214.79"/><g><polygon class="cls-10" points="770.8 1208.11 651.89 1217.03 657.67 1131.7 772.66 1158.81 770.8 1208.11"/><ellipse class="cls-4" cx="630.53" cy="1172.03" rx="62.1" ry="41.89" transform="translate(-584.92 1714.16) rotate(-85.76)"/><polyline class="cls-4" points="611.62 1206.29 630.35 1169.45 599.77 1153.54"/></g><path class="cls-19" d="m1157.41,1558.17c1.93,0,1.93-3,0-3s-1.93,3,0,3h0Z"/></g><g><path class="cls-14" d="m1124.24,3975.09c23.39-298.62,85.02-1411.15-278.94-1572.48-239.95-106.36-669.67,159.43-768.4,392.29-92.26,217.61,101.97,634.82,217.01,971.68,0,0-4.01,100.42-8.33,208.51h838.65Z"/><g><g><path class="cls-1" d="m247.91,2638.74c65.64,142.63,483.78-8,444.48-103.53-39.31-95.54-222.53-77.31-323.14-37.14-95.16,37.99-139.15,101.98-121.34,140.67Z"/><g><g><path class="cls-1" d="m570.88,2201.14l29.04,321.47c4.54,98.17-316.95,195-324.42,93.46-7.48-101.54,13.07-563.97,13.07-563.97,0,0,238.44-118.51,282.31,149.04Z"/><line class="cls-6" x1="587.1" y1="2380.64" x2="599.97" y2="2531.98"/><path class="cls-1" d="m356.01,1870.05c-349.6,178.33,106.39,616.24,290.45,535.86,59.02-25.77,57.51-99.19,55.56-191.07-1.12-52.88-25.63-108.1-50.33-158.91-66.67-137.18-141.72-264.41-295.69-185.87Z"/><path class="cls-6" d="m420.17,2348.4c79.65,55.57,167.05,83.38,226.28,57.51,59.02-25.77,57.51-99.19,55.56-191.07-1.12-52.88-25.63-108.1-50.33-158.91-66.67-137.18-141.72-264.41-295.69-185.87"/><path class="cls-18" d="m512.61,2089.31c-24.7-7.19-21.25,36.08,2.94,34.04,24.19-2.04,7.34-31.04-2.94-34.04Z"/><path class="cls-18" d="m620.31,2052.33c-24.7-7.19-21.25,36.08,2.94,34.04,24.19-2.04,7.34-31.04-2.94-34.04Z"/><path class="cls-6" d="m621.99,1998.43c-38.81,1.29-79.2,24.1-79.2,24.1"/><path class="cls-6" d="m488.17,2016.76c-73.99,35.68-76.41,83.3-76.41,83.3"/><path class="cls-6" d="m551,2064.17c45.86,64.67,75.19,95.34,75.19,95.34,0,0,6.11,15.95-14.35,30.46"/></g><g><g><path class="cls-6" d="m550.23,1967.04c-51.48-32.92-138.81,26.38-166.67-.22"/><path class="cls-18" d="m614.18,1983.46c-76.46-105.89-171.8,18.67-230.62-16.63,13.72,107.37-57.45,194.07-57.45,194.07,0,0-17.75,102.88-16.07,182.79-74.62-65.56-148.16-167.96-176.13-251.38-41.02-122.32,76.97-222.3,126.72-183.26,33.76-91.75,168.62-155.25,237.19-131.5,94.17,32.62,114.66,127.78,116.37,205.91Z"/></g><g><path class="cls-1" d="m401.68,2248.08c14.09-81.33-129.17-115.39-130.63-49.47-1.47,65.92,117.45,125.57,130.63,49.47Z"/><line class="cls-6" x1="368.36" y1="2230.17" x2="309.85" y2="2204.02"/><path class="cls-6" d="m361.57,2176.2c-38.29-20.66-89.65-16.93-90.52,22.41-1.26,56.45,85.78,108.3,119.08,74.24"/></g></g></g></g><path class="cls-6" d="m307.37,1807.73c-52.73,43.95-46.75,101.32-46.75,101.32,0,0-29.86-35.06-58.29-23.75"/></g><path class="cls-6" d="m424.7,2737.2c408.22-67.46,318.84-233.98,276.94-254.36"/><line class="cls-6" x1="256.3" y1="3387.74" x2="293.92" y2="3766.58"/></g><g><rect class="cls-1" x="789.87" y="1319.58" width="2674.55" height="1774.35" rx="58.65" ry="58.65"/><path class="cls-14" d="m789.87,1461.45v-83.22c0-32.39,26.26-58.65,58.65-58.65h2557.26c32.39,0,58.65,26.26,58.65,58.65v83.22H789.87Z"/><g><rect class="cls-12" x="884.71" y="2851.33" width="45.5" height="45.5"/><line class="cls-12" x1="988.08" y1="3013.07" x2="1312.87" y2="3013.07"/><line class="cls-12" x1="988.08" y1="2959.16" x2="1467.53" y2="2959.16"/><line class="cls-12" x1="988.08" y1="2905.24" x2="1432.18" y2="2905.24"/><line class="cls-12" x1="988.08" y1="2851.33" x2="1467.53" y2="2851.33"/></g><g><rect class="cls-3" x="884.71" y="2523.96" width="45.5" height="45.5"/><line class="cls-12" x1="988.08" y1="2685.71" x2="1312.87" y2="2685.71"/><line class="cls-12" x1="988.08" y1="2631.79" x2="1467.53" y2="2631.79"/><line class="cls-12" x1="988.08" y1="2577.88" x2="1432.18" y2="2577.88"/><line class="cls-12" x1="988.08" y1="2523.96" x2="1467.53" y2="2523.96"/></g><g><line class="cls-8" x1="988.08" y1="2358.34" x2="1312.87" y2="2358.34"/><line class="cls-8" x1="988.08" y1="2304.43" x2="1467.53" y2="2304.43"/><line class="cls-8" x1="988.08" y1="2250.51" x2="1432.18" y2="2250.51"/><line class="cls-8" x1="988.08" y1="2196.6" x2="1467.53" y2="2196.6"/></g><g><line class="cls-12" x1="988.08" y1="2030.98" x2="1312.87" y2="2030.98"/><line class="cls-12" x1="988.08" y1="1977.06" x2="1467.53" y2="1977.06"/><line class="cls-12" x1="988.08" y1="1923.15" x2="1432.18" y2="1923.15"/><line class="cls-12" x1="988.08" y1="1869.23" x2="1467.53" y2="1869.23"/></g><g><circle class="cls-7" cx="892.02" cy="1389.34" r="32.78" transform="translate(-622.27 2047.29) rotate(-80.78)"/><circle class="cls-7" cx="892.02" cy="1389.34" r="12.58" transform="translate(-622.27 2047.29) rotate(-80.78)"/><circle class="cls-7" cx="1002.58" cy="1389.34" r="32.78" transform="translate(-529.41 2156.43) rotate(-80.78)"/><circle class="cls-7" cx="1113.15" cy="1389.34" r="32.78" transform="translate(-436.56 2265.57) rotate(-80.78)"/></g><g><line class="cls-7" x1="3060.93" y1="1414.62" x2="3109.84" y2="1414.62"/><g><line class="cls-7" x1="3300.77" y1="1363.19" x2="3352.19" y2="1414.62"/><line class="cls-7" x1="3352.19" y1="1363.19" x2="3300.77" y2="1414.62"/></g><rect class="cls-7" x="3175.98" y="1363.19" width="51.42" height="51.42"/></g><g><rect class="cls-17" x="884.71" y="1546.95" width="626.83" height="128.45"/><line class="cls-8" x1="1763.79" y1="2242.09" x2="1958.58" y2="2242.09"/><line class="cls-8" x1="1763.79" y1="2178.75" x2="2078.75" y2="2178.75"/><line class="cls-8" x1="1763.79" y1="2115.42" x2="2040.34" y2="2115.42"/><line class="cls-12" x1="1688.34" y1="2017.59" x2="3346.41" y2="2017.59"/><g><path class="cls-9" d="m2976.8,1739.4c0-54.06,43.82-97.88,97.88-97.88,8.3,0,16.36,1.04,24.06,2.98l33.03-130.28c-18.27-4.62-37.39-7.08-57.09-7.08-128.27,0-232.25,103.98-232.25,232.25,0,68.83,29.95,130.65,77.51,173.18l89.53-100.2c-20.05-17.92-32.67-43.98-32.67-72.98Z"/><path class="cls-3" d="m3170.6,1719.86c1.28,6.31,1.95,12.85,1.95,19.54,0,54.06-43.82,97.88-97.88,97.88-25.05,0-47.9-9.42-65.21-24.89l-89.53,100.2c41.08,36.73,95.3,59.07,154.74,59.07,128.27,0,232.25-103.98,232.25-232.25,0-15.88-1.6-31.38-4.63-46.36l-131.69,26.82Z"/><path class="cls-5" d="m3170.6,1719.86l131.69-26.82c-17.72-87.46-84.59-157.08-170.53-178.81l-33.03,130.28c36.22,9.15,64.4,38.49,71.86,75.35Z"/></g><g><line class="cls-8" x1="1748.9" y1="1749.24" x2="1748.9" y2="1940.55"/><line class="cls-8" x1="2523.37" y1="1613.31" x2="2523.37" y2="1940.55"/><line class="cls-8" x1="2458.83" y1="1675.4" x2="2458.83" y2="1940.55"/><line class="cls-8" x1="2394.29" y1="1797.91" x2="2394.29" y2="1940.55"/><line class="cls-8" x1="2329.75" y1="1734.14" x2="2329.75" y2="1940.55"/><line class="cls-8" x1="2265.21" y1="1707.29" x2="2265.21" y2="1940.55"/><line class="cls-8" x1="2200.67" y1="1744.21" x2="2200.67" y2="1940.55"/><line class="cls-8" x1="2136.14" y1="1833.15" x2="2136.14" y2="1940.55"/><line class="cls-8" x1="2071.6" y1="1725.75" x2="2071.6" y2="1940.55"/><line class="cls-8" x1="2007.06" y1="1648.55" x2="2007.06" y2="1940.55"/><line class="cls-8" x1="1942.52" y1="1715.68" x2="1942.52" y2="1940.55"/><line class="cls-8" x1="1877.98" y1="1844.9" x2="1877.98" y2="1940.55"/><line class="cls-8" x1="1813.44" y1="1675.4" x2="1813.44" y2="1940.55"/></g><g><line class="cls-8" x1="3352.93" y1="2909.17" x2="3352.93" y2="2186.63"/><line class="cls-8" x1="3144.85" y1="2909.17" x2="3144.85" y2="2242.09"/><line class="cls-8" x1="2936.78" y1="2909.17" x2="2936.78" y2="2462.75"/><line class="cls-8" x1="2728.71" y1="2909.17" x2="2728.71" y2="2253.82"/><line class="cls-8" x1="2520.63" y1="2909.17" x2="2520.63" y2="2594.24"/><line class="cls-8" x1="2312.56" y1="2909.17" x2="2312.56" y2="2784.06"/><line class="cls-8" x1="2104.49" y1="2909.17" x2="2104.49" y2="2658.95"/><line class="cls-8" x1="1896.41" y1="2909.17" x2="1896.41" y2="2581.53"/><line class="cls-8" x1="1688.34" y1="2909.17" x2="1688.34" y2="2792.81"/><polyline class="cls-8" points="1688.34 2792.81 1896.41 2581.53 2104.49 2651.84 2312.56 2782.15 2520.63 2594.24 2728.71 2253.82 2936.78 2462.75 3144.85 2242.09 3352.93 2186.63"/><circle class="cls-2" cx="1688.34" cy="2792.81" r="23.98" transform="translate(-940.24 858.69) rotate(-22.5)"/><circle class="cls-2" cx="1896.41" cy="2581.53" r="23.98" transform="translate(-955.56 4039.94) rotate(-80.78)"/><circle class="cls-2" cx="2104.49" cy="2653.03" r="23.98" transform="translate(-1259.59 2265.15) rotate(-45)"/><circle class="cls-2" cx="2312.56" cy="2780.54" r="23.98"/><circle class="cls-2" cx="2520.63" cy="2594.24" r="23.98" transform="translate(-583.33 4451.41) rotate(-76.72)"/><circle class="cls-2" cx="2728.71" cy="2253.82" r="23.98"/><circle class="cls-2" cx="2936.78" cy="2462.75" r="23.98" transform="translate(35.41 4967.12) rotate(-80.78)"/><circle class="cls-2" cx="3144.85" cy="2242.09" r="23.98"/><circle class="cls-2" cx="3352.93" cy="2186.63" r="23.98" transform="translate(657.45 5146) rotate(-80.78)"/><path class="cls-8" d="m1688.34,2451.9c392.16-279,499.1,119.27,758.98,281.84,259.88,162.57,414.74-227.47,609.75-178.65,156.37,39.15,301.33,178.65,301.33,178.65"/></g><line class="cls-8" x1="1688.34" y1="2909.17" x2="3346.41" y2="2909.17"/></g><rect class="cls-12" x="789.87" y="1319.58" width="2674.55" height="1774.35" rx="58.65" ry="58.65"/><path class="cls-6" d="m1933.63,3093.93H848.51c-32.39,0-58.65-26.26-58.65-58.65v-752.28"/><path class="cls-6" d="m3464.42,2710.79v324.49c0,32.39-26.26,58.65-58.65,58.65h-468.99"/><path class="cls-6" d="m1513.88,1319.58h1891.89c32.39,0,58.65,26.26,58.65,58.65v652.75"/><path class="cls-6" d="m789.87,1816.59v-438.37c0-32.39,26.26-58.65,58.65-58.65h209.67"/><polyline class="cls-8" points="884.71 2523.59 907.46 2546.34 952.64 2501.58"/><rect class="cls-2" x="884.71" y="2192.46" width="45.5" height="45.5"/><rect class="cls-3" x="884.71" y="1866.31" width="45.5" height="45.5"/><polyline class="cls-8" points="884.71 1865.94 907.46 1888.69 952.64 1843.93"/><polyline class="cls-8" points="884.71 2850.95 907.46 2873.7 952.64 2828.95"/></g><g><path class="cls-6" d="m4016.49,3035.63c-83.84-17.21-147.68-42.04-147.68-42.04l88.83-360.63"/><g><path class="cls-4" d="m3980.98,2751.7l-442.13-724.56,4.12-108.98c0-124.87-78.73-208.05-78.73-208.05l.34,143.88-33.82,74.39-41.81-88.59c-5.52-11.69-18.65-17.7-31.1-14.23-13.19,3.67-21.42,16.79-18.99,30.26l29.37,162.79c-.64,11.87,6.74,86.48,71.87,105.88l268.38,628.72c18.68,39.12,55.04,64.1,94.94,69.93l19.98,2.76,217.48,63.06-59.92-137.27Z"/><line class="cls-6" x1="3422.69" y1="1911.26" x2="3443.11" y2="1954.52"/></g></g><g><g><g><g><path class="cls-1" d="m127.86,2835.29c63.18-60.64,184.4-66.26,245.04-3.09l451.8,447.87,668.25-203.77c31.04-11.78,66.94.3,84.09,29.97,19.06,32.97,7.79,75.14-25.17,94.2l-707.39,409.05c-44.34,25.58-102.02,20.85-141.66-15.66l-10.73-9.88-586.01-485.59c-2.25-2.09,19.33-36.67,17.18-38.91-60.64-63.18-58.58-163.55,4.6-224.19Z"/><path class="cls-14" d="m394.54,3360.91l267.05-258.15s-408.39-534.37-566.12-265.15c-157.73,269.22,299.08,523.3,299.08,523.3Z"/></g><path class="cls-1" d="m1841.15,3027.83c-29.62-2.55-248.08,6.86-343.94,11.19,4.31-17.39,11.38-35.97,22.9-47.26,26.47-25.92,78.85-60.55,47.85-102.79,0,0-31.97,11.82-103.73,65.63-48.17,36.12-89.57,101.92-102.32,146.04-1.93,3.5-3.8,7.37-5.57,11.67-26.07,63.15,13.82,140.74,37.33,161.68,23.51,20.94,127.58-4.19,164.73-19.36,37.15-15.17,166.26-46.08,150.37-57.79,60.9-7.47,83.29-24.73,54.32-45.5,96.21-6.83,95.24-53.86,62.26-68.21,52.56-5.54,53.92-52,15.8-55.29Z"/><path class="cls-4" d="m1393.67,3274c23.51,20.94,127.58-4.19,164.73-19.36,37.15-15.17,166.26-46.08,150.37-57.79,60.9-7.47,83.29-24.73,54.32-45.5,96.21-6.83,95.24-53.86,62.26-68.21,52.56-5.54,53.92-52,15.8-55.29-29.62-2.55-248.08,6.86-343.94,11.19,4.31-17.39,11.38-35.97,22.9-47.26,26.47-25.92,78.85-60.55,47.85-102.79,0,0-31.97,11.82-103.73,65.63-48.17,36.12-89.57,101.92-102.32,146.04-1.93,3.5-3.8,7.37-5.57,11.67"/><line class="cls-6" x1="1702.68" y1="3095.01" x2="1825.35" y2="3083.12"/><line class="cls-6" x1="1686.47" y1="3165.37" x2="1763.09" y2="3151.34"/><line class="cls-6" x1="1672.49" y1="3198.2" x2="1704.89" y2="3192.27"/><path class="cls-6" d="m358.87,3335.68c-.54-.38,257.87-297.46,257.87-297.46"/><line class="cls-6" x1="957.85" y1="3545.31" x2="1420.08" y2="3276.38"/><polyline class="cls-6" points="789.47 3354.66 824.7 3280.08 834.94 3337.82"/></g><path class="cls-6" d="m148.48,2786.35c179.78-139.02,513.1,316.41,513.1,316.41l-267.05,258.15s-65.7-45.84-123.81-89.71"/></g><g><path class="cls-4" d="m741.19,1649.55c-14.58-1.1-25.52-13.81-24.42-28.39,1.1-14.58,13.81-25.52,28.39-24.42,10.83.81,104.11,8.38,114.94,9.19,14.58,1.1,25.52,13.81,24.42,28.39-1.1,14.58-13.81,25.52-28.39,24.42-10.83-.81-104.11-8.38-114.94-9.19Z"/><path class="cls-4" d="m777.12,1599.84c-14.58-1.1-25.52-13.81-24.42-28.39s13.81-25.52,28.39-24.42c10.83.81,62.29,4.52,73.11,5.34,14.58,1.1,25.52,13.81,24.42,28.39-1.1,14.58-13.81,25.52-28.39,24.42-10.83-.81-62.29-4.52-73.11-5.34Z"/><path class="cls-4" d="m735.2,1701.99c-14.58-1.1-25.52-13.81-24.42-28.39,1.1-14.58,13.81-25.52,28.39-24.42,10.83.81,94.87,7.9,105.7,8.71,14.58,1.1,25.52,13.81,24.42,28.39-1.1,14.58-13.81,25.52-28.39,24.42-10.83-.81-94.87-7.9-105.7-8.71Z"/><path class="cls-4" d="m757.93,1778.97c-14.51,1.83-27.76-8.45-29.59-22.96-1.83-14.51,8.45-27.76,22.96-29.59,10.77-1.36,62.62-7.37,73.4-8.73,14.51-1.83,27.76,8.45,29.59,22.96,1.83,14.51-8.45,27.76-22.96,29.59-10.77,1.36-62.62,7.37-73.4,8.73Z"/></g></g><path class="cls-6" d="m3792.73,504.8c5.03,3.84-7.59,44.78-7.59,44.78"/><g><path class="cls-14" d="m3826.14,1144.63c170.92-153.59,303.38,129.86,299.6,414.2-3.78,284.34-32.73,371.85-32.73,371.85,155.59,252.05-385.77,418.92-393.32,31.2-1.63-83.62,88.86-138.93,88.86-138.93-37.52.77-117.36-539.09,37.58-678.32Z"/><path class="cls-6" d="m4043.41,1791.87c-108.2-34.75-157.89,17.21-157.89,17.21,224.37,27.28,234.93,198.12,234.93,198.12"/><path class="cls-6" d="m3834.14,1290.77c-62.41,191.07-74.9,310.62-74.9,310.62"/><path class="cls-4" d="m3614.54,1627.28c-48.16,13.84-131.01,48.46-83.95,108.33,82.99,105.55,190.19,292.76,257.55,359.36,116.37,115.05,357.26-134.65,155.02-260.98-53.87-33.65-301.48-214.51-328.63-206.71Z"/><path class="cls-6" d="m4006.53,1898.21c60.86,161.33-135.5,279.89-197.41,215.19"/><g><g><path class="cls-4" d="m3427.36,1294.17c3.43-13.66,60.8-7.56,127.9,14.58,67.11,22.13,116.85,51.36,111.48,64.38-2.62,6.34-134.38,325.65-136.05,329.68-3.34,8.09-48.09.7-99.99-16.42-51.9-17.12-92.26-37.8-90.13-46.29,1.06-4.23,85.11-339.27,86.78-345.93Z"/><g><path class="cls-16" d="m3430.79,1261.36c2.53-7.66,61.25,4.46,131.04,27.47,69.78,23.02,124.2,48.22,121.67,55.88-1.44,4.37-1.88,25.24-3.45,29.99-2.64,8.01-63.96-5.01-136.95-29.09-73-24.08-130.03-50.09-127.38-58.1,1.57-4.75,13.63-21.79,15.07-26.16Z"/><path class="cls-17" d="m3430.79,1261.36c2.53-7.66,61.25,4.46,131.04,27.47,69.78,23.02,124.2,48.22,121.67,55.88-1.44,4.37-1.88,25.24-3.45,29.99-2.64,8.01-63.96-5.01-136.95-29.09-73-24.08-130.03-50.09-127.38-58.1,1.57-4.75,13.63-21.79,15.07-26.16Z"/><path class="cls-6" d="m3680.05,1374.71c-2.64,8.01-63.96-5.01-136.95-29.09-73-24.08-130.03-50.09-127.38-58.1"/><path class="cls-17" d="m3430.79,1261.36c-2.53,7.66,52,32.53,121.78,55.54,69.78,23.02,128.4,35.47,130.93,27.81,2.53-7.66-51.89-32.86-121.67-55.88-69.78-23.02-128.51-35.13-131.04-27.47Z"/><path class="cls-17" d="m3446.97,1262.26c1.83-3.66,15.4-18.45,16.57-22,2.23-6.76,50.29,2.69,107.23,21.47,56.94,18.78,101.19,39.78,98.96,46.54-1.17,3.54,1.49,23.7.23,27.54-2.23,6.76-53.95-4.23-115.53-24.54-61.58-20.31-110.65-42.65-107.46-49.01Z"/><path class="cls-15" d="m3446.97,1262.26c1.83-3.66,15.4-18.45,16.57-22,2.23-6.76,50.29,2.69,107.23,21.47,56.94,18.78,101.19,39.78,98.96,46.54-1.17,3.54,1.49,23.7.23,27.54-2.23,6.76-53.95-4.23-115.53-24.54-61.58-20.31-110.65-42.65-107.46-49.01Z"/><path class="cls-17" d="m3570.77,1261.74c56.94,18.78,101.19,39.78,98.96,46.54-2.23,6.76-50.19-2.99-107.13-21.77-56.94-18.78-101.29-39.48-99.06-46.24,2.23-6.76,50.29,2.69,107.23,21.47Z"/></g></g><path class="cls-1" d="m3703.27,1565.32c-.33-2.58-.89-5.33-1.71-8.28-12.24-43.66-38.3-137.38-38.3-137.38-3.27-11.66-32.85.16-36.81,30.14-3.76,28.52-.51,63.69,8.73,92.3-12.61,1.47-28.37-2.42-42.9-22.45-7.48-10.31-36.76-41.57-85.05-98.68h0c-22.12-29.56-78.41-104.47-83.73-111.73-8.58-11.72-25.03-14.26-36.75-5.68-11.72,8.58-14.26,25.03-5.68,36.75,6.07,8.29,78.45,104.58,90.8,121.21-26.59-25.93-56.41-55.03-60.76-59.27-10.39-10.14-27.04-9.93-37.18.46-10.14,10.39-9.93,27.04.46,37.18,5.12,4.99,45.48,44.37,74.36,72.54l-.59.83c-29.03-22.34-60.99-46.94-65.72-50.58-11.51-8.86-28.02-6.71-36.87,4.8-8.86,11.51-6.71,28.02,4.8,36.87,4.07,3.13,28.3,21.78,53.48,41.15-16.17-10.4-28.88-18.57-31.8-20.44-12.21-7.85-28.48-4.32-36.34,7.9-7.85,12.21-4.32,28.48,7.9,36.34,1.35.87,4.8,3.09,9.71,6.24,28.68,21.64,44.55,34.1,53.33,46.21,0,0,116.24,143.21,179.79,127.99l80.3-29.08c15.75-11.43,26.32-28.64,29.38-47.86l11.77-73.92c1.89-11.85.06-23.43-4.62-33.57Z"/><path class="cls-6" d="m3696.12,1672.8l11.77-73.92c1.89-11.85.06-23.43-4.62-33.57-.33-2.58-.89-5.33-1.71-8.28-12.24-43.66-38.3-137.38-38.3-137.38-3.27-11.66-32.85.16-36.81,30.14-3.76,28.52-.51,63.69,8.73,92.3-12.61,1.47-28.37-2.42-42.9-22.45-7.48-10.31-36.76-41.57-85.05-98.68h0c-22.12-29.56-78.41-104.47-83.73-111.73-8.58-11.72-25.03-14.26-36.75-5.68-11.72,8.58-14.26,25.03-5.68,36.75,6.07,8.29,78.45,104.58,90.8,121.21-26.59-25.93-56.41-55.03-60.76-59.27-10.39-10.14-27.04-9.93-37.18.46-10.14,10.39-9.93,27.04.46,37.18,5.12,4.99,45.48,44.37,74.36,72.54l-.59.83c-29.03-22.34-60.99-46.94-65.72-50.58-11.51-8.86-28.02-6.71-36.87,4.8-8.86,11.51-6.71,28.02,4.8,36.87,4.07,3.13,28.3,21.78,53.48,41.15-16.17-10.4-28.88-18.57-31.8-20.44-12.21-7.85-28.48-4.32-36.34,7.9-7.85,12.21-4.32,28.48,7.9,36.34,1.35.87,4.8,3.09,9.71,6.24,28.68,21.64,44.55,34.1,53.33,46.21,0,0,73.99,91.16,136.18,120.29"/><path class="cls-6" d="m3562.6,1286.5c-94.97-29.32-99.06-46.24-99.06-46.24"/><path class="cls-6" d="m3654.11,1334.84c-131.98-18.97-207.14-72.58-207.14-72.58"/><path class="cls-13" d="m3821.97,1158.99l-88.5-11.81c-29.03-3.87-57.87,8.37-75.25,31.95l-69.69,94.55"/></g><g><polygon class="cls-10" points="3603.29 1859.22 3719.52 1795.74 3662.61 1719.69 3571.79 1814.39 3603.29 1859.22"/><polygon class="cls-10" points="3729.82 1666.92 3632.16 1756.38 3705.62 1816.59 3771.14 1702.91 3729.82 1666.92"/><ellipse class="cls-4" cx="3685.96" cy="1762.42" rx="65.7" ry="69.3" transform="translate(-236.9 620.69) rotate(-9.33)"/><polyline class="cls-4" points="3707.28 1805.16 3686.85 1759.66 3737.87 1751.29"/></g></g><g><path class="cls-4" d="m3697.72,2948.45c-54.61-73.63-158.56-89.05-232.19-34.45l-433.74,321.67-538.88-241.05c-3.53-3.41-7.42-6.49-11.63-9.15l-62.36-39.37c-2.54-1.6-5.16-2.98-7.83-4.15-4.1-2.42-9.46-4.28-16.21-5.32-44.15-6.84-138.84-21.71-138.84-21.71-11.79-1.83-13.26,29.53,12.01,45.31,20.21,12.62,46.66,22.71,72.06,27.62-3.09,11.63-12.37,24.27-36.65,29.76-8.39,1.9-20.08,5.13-26.61,6.98-1.65.3-3.29.77-4.91,1.41-2.01.44-4,1.25-5.89,2.33-28.69,11.37-143.91,57.02-152.87,60.57-13.3,5.27-19.81,20.33-14.54,33.63,5.27,13.3,20.33,19.81,33.63,14.54,7.35-2.91,112.88-44.1,156.81-61.5l-26.38,10.98c-51.93,32.69-134.47,84.65-140.77,88.62-12.11,7.62-15.75,23.62-8.12,35.73,7.62,12.11,23.62,15.75,35.73,8.12,5.7-3.59,106.22-62.02,157.61-94.37,0,0-92.35,55.38-96.29,57.87-12.11,7.62-15.75,23.62-8.12,35.73,7.62,12.11,23.62,15.75,35.73,8.12,2.9-1.83,19.21-12.1,40.26-25.35-3.96,7.85-3.83,17.52,1.2,25.5,7.62,12.11,23.62,15.75,35.73,8.12,1.93-1.21,8.15-5.13,16.81-10.58l151.95-57.29,495.46,353.72c38.49,27.41,91.3,30.72,133.88,4.12l15.95-9.97,522.68-326.55c3.6-2.27,7.45-4.87,10.93-7.45,73.63-54.61,89.05-158.56,34.45-232.19Z"/><path class="cls-14" d="m3643.22,3975.09c-10.75-63.46-32.21-213.35-5.62-266.9,34.11-68.68,523.39-68.23,523.39-68.23,54.25,63.73,106.74,185.08,151.22,335.13h-668.99Z"/><g><polygon class="cls-4" points="3564.47 2373.98 3690.1 2807.92 3972.17 2807.92 3821.29 2338.66 3564.47 2373.98"/><g><path class="cls-18" d="m3864.87,2118.53c-203.54-185.54-353.79-78.54-386.23,2.79-34.28,85.93,16.85,399.3,298.24,280.61,217.6-91.78,87.99-283.4,87.99-283.4Z"/><path class="cls-1" d="m3638.4,2094.92c-94-7.95-133.66,104.88-168.69,191.6-26.38,65.29-65.96,88.32-62.34,99.55,8.42,26.14,38.61,38.1,38.61,38.1,0,0,14.07,130.95,52.75,171.22,26.92,28.03,239.53,11.93,249.6-166.94,2.97-52.8,95.89-70.36,102.55-126.15,17.53-146.9-26.02-213.75-212.47-207.38Z"/><path class="cls-6" d="m3850.87,2302.3c17.53-146.9-26.02-213.75-212.47-207.38-94-7.95-133.66,104.88-168.69,191.6-26.38,65.29-65.96,88.32-62.34,99.55,8.42,26.14,38.61,38.1,38.61,38.1,0,0,14.07,130.95,52.75,171.22,20.05,20.87,143.03,17.28,208.71-59.76"/></g><path class="cls-6" d="m3517.95,2250.84c48.7,31.18,51.13,64.32,51.13,64.32"/><path class="cls-18" d="m3495.15,2307.19c-1.27,38.06,28.57-5.87,21.4-18.27-7.17-12.4-20.51-8.35-21.4,18.27Z"/><path class="cls-6" d="m3458.64,2490.37c34.89,10.14,57.81-22.15,57.81-22.15"/><path class="cls-18" d="m3566.85,2056.72c-103.38,94.82,164.88,298.83,164.88,298.83,0,0,76.38,112.36,48.04,196.43,184.03,9.65,317.07-270.07,237.69-408.55-96.12-167.67-310.18-215.51-450.61-86.71Z"/><path class="cls-6" d="m3602.56,2042.68c-190.37,131.82,92.86,282.74,92.86,282.74"/><path class="cls-6" d="m3732.3,2385.97c17.73,72.25,24.51,147.05,22.25,221.35"/><g><path class="cls-1" d="m3684.86,2431.46c-63.66-46.7,12.47-165.2,57.2-120.75,44.74,44.45,2.36,164.45-57.2,120.75Z"/><line class="cls-6" x1="3695.95" y1="2397.02" x2="3718.92" y2="2340.19"/><path class="cls-6" d="m3664.82,2355.32c12.68-39.64,50.55-71.13,77.24-44.61,38.31,38.07,12.73,131.54-32.81,130.16"/></g></g><g><path class="cls-10" d="m4232.12,2837.6c-31.93-43.14-102.86-58.5-167.98-62.81-199.94-163.97-449.14,24.8-477.13,47.04-38.22,11.64-67.19,25.21-89.16,40.41-93.47,33.04-195.71,123.68-296.03,213.46,6.76,12.13,213.03,319.51,217.27,301.23.95-4.09,24.75-16.92,59.06-37.09,61.94,204.86,159.45,368.35,159.45,368.35,0,0,445.82-62.74,517.43-65.3,71.61-2.56,56.27-107.42,74.17-309.48,17.9-202.06,70.06-405.11,2.92-495.81Z"/><path class="cls-6" d="m3546.77,3291.62c-67.41,52.74-127.67,85.3-127.67,85.3"/></g><path class="cls-6" d="m4155.03,3642.89c-275.38-26.13-344.17-179.18-386.71-265.96"/><path class="cls-6" d="m4076.93,2807.92c-200.45-62.73-412.11,16.01-412.11,16.01"/><path class="cls-6" d="m3637.6,3708.19c-23.04,110.22-4.34,210.1,7.68,266.9"/><path class="cls-6" d="m4141.23,3791.32c35.7,64.34,50.26,126.12,51.64,183.78"/><line class="cls-6" x1="4171.67" y1="3675.77" x2="3903.18" y2="3740.61"/><path class="cls-6" d="m3660.49,2882.3c-76.08-58.38-165.38-19.06-165.38-19.06"/><g><path class="cls-18" d="m3965.5,2222.18c-20.95-65.76,46.15-110.08,149.28-62.6,103.12,47.48,114.99,209.49,86.88,392.36-28.11,182.87,134.93,84.6,184.37,269.16,49.44,184.56-139.82,365.72-348.62,176.65-120.25-108.88-146.71-290.23-98.93-449.85,46.31-154.68,27.02-325.72,27.02-325.72Z"/><path class="cls-6" d="m4097.79,2169.69c106.65,38.92,131.67,199.43,118.55,383.98-13.12,184.55,157.28,72.36,221.59,252.28"/></g><path class="cls-12" d="m4017.46,2143.43c-58.94-3.3-55.83,78.74-55.83,78.74"/><path class="cls-6" d="m3938.48,2715.56c-188.91-32.09-354.06,108.37-354.06,108.37"/><path class="cls-6" d="m3647.75,3577.02c-86.39-194.17-95.76-304.98-95.76-304.98"/></g></g><path class="cls-6" d="m955.46,702.31c36.77,47.18,91.76,42.72,91.76,42.72"/><line class="cls-6" x1="1365.49" y1="755.34" x2="1958.1" y2="939.28"/><line class="cls-6" x1="622.89" y1="1111.82" x2="658.75" y2="950"/><line class="cls-6" x1="598.3" y1="1220.08" x2="498.4" y2="1627.73"/><path class="cls-6" d="m551,2269.45c76.04,26.36,125.26-7.71,125.26-7.71"/><line class="cls-6" x1="279.78" y1="2279.45" x2="273.86" y2="2640.88"/><line class="cls-6" x1="1081.61" y1="3201.74" x2="1357.87" y2="3117.49"/><path class="cls-6" d="m3536.68,688.94c74.21,0,113.13-28.07,113.13-28.07"/><path class="cls-6" d="m3485.28,955.45c29.87,53.77,27.79,137.53,27.79,137.53,0,0,59.33-59.74,154.07-85.87,98.52-27.17,103.96-108.42,103.96-108.42"/><line class="cls-4" x1="2278.7" y1="3201.02" x2="2322.93" y2="3169.19"/><line class="cls-6" x1="168.78" y1="3975.09" x2="4393.97" y2="3975.09"/></g></svg>