<?xml version="1.0" encoding="UTF-8"?><svg id="Layer_2" xmlns="http://www.w3.org/2000/svg" xmlns:xlink="http://www.w3.org/1999/xlink" viewBox="0 0 4414.75 4065"><defs><style>.cls-1,.cls-2,.cls-3{fill:#fff;}.cls-4{fill:#e17847;}.cls-5,.cls-6,.cls-7,.cls-8,.cls-9,.cls-2,.cls-10,.cls-3,.cls-11{stroke-linecap:round;stroke-linejoin:round;stroke-width:10px;}.cls-5,.cls-6,.cls-7,.cls-9{fill:none;}.cls-5,.cls-10,.cls-3{stroke:#2e2e2e;}.cls-6{stroke:#4671f1;}.cls-7,.cls-11{stroke:#fff;}.cls-12{clip-path:url(#clippath-1);}.cls-13,.cls-8{fill:#c1c7d7;}.cls-8,.cls-9,.cls-2{stroke:#c1c7d7;}.cls-14{fill:#e0c7e0;}.cls-15{fill:#203058;}.cls-16{clip-path:url(#clippath);}.cls-10,.cls-17,.cls-11{fill:#2e2e2e;}</style><clipPath id="clippath"><rect class="cls-2" x="509.91" y="378.03" width="1467.51" height="835.74" rx="161.6" ry="161.6"/></clipPath><clipPath id="clippath-1"><rect class="cls-9" x="223.81" y="1569.58" width="2226.88" height="1879.26" rx="196.86" ry="196.86"/></clipPath></defs><g id="Layer_1-2"><g><g><g><path class="cls-8" d="m4406.3,1352.13l-108.77,14.51c-2.73,14.61-6.3,29.21-10.74,43.76-4.44,14.55-9.64,28.65-15.53,42.3l82.12,72.79c-12.73,24.73-27.35,48.09-43.61,69.94l-101.43-41.81c-19.68,23.01-41.81,43.55-65.85,61.35l34.7,104.03c-23.17,14.86-47.52,27.82-72.79,38.74l-66.91-86.89c-28.19,10-57.59,16.88-87.67,20.36l-21.97,107.49c-27.21,1.28-54.74.36-82.37-2.89l-14.51-108.77c-14.61-2.73-29.21-6.3-43.76-10.74-14.55-4.44-28.65-9.64-42.3-15.53l-72.79,82.12c-24.73-12.73-48.09-27.35-69.94-43.61l41.81-101.43c-23.01-19.68-43.55-41.81-61.35-65.85l-104.03,34.7c-14.86-23.17-27.82-47.52-38.74-72.79l86.89-66.91c-10-28.19-16.88-57.59-20.36-87.67l-107.49-21.97c-1.28-27.21-.36-54.74,2.89-82.37l108.77-14.51c2.73-14.61,6.3-29.21,10.74-43.76,4.44-14.55,9.64-28.65,15.53-42.3l-82.12-72.79c12.73-24.73,27.35-48.09,43.61-69.94l101.43,41.81c19.68-23.01,41.81-43.55,65.85-61.35l-34.7-104.03c23.17-14.86,47.52-27.82,72.79-38.74l66.91,86.89c28.19-10,57.59-16.88,87.67-20.36l21.97-107.49c27.21-1.28,54.74-.36,82.37,2.89l14.51,108.77c14.61,2.73,29.21,6.3,43.76,10.74,14.55,4.44,28.65,9.64,42.3,15.53l72.79-82.12c24.73,12.73,48.09,27.35,69.94,43.61l-41.81,101.43c23.01,19.68,43.55,41.81,61.35,65.85l104.03-34.7c14.86,23.17,27.82,47.52,38.74,72.79l-86.89,66.91c10,28.19,16.88,57.59,20.36,87.67l107.49,21.97c1.28,27.21.36,54.74-2.89,82.37Zm-449.03-232.87c-96.26-29.39-198.11,24.82-227.5,121.08s24.82,198.11,121.08,227.5c96.26,29.39,198.11-24.82,227.5-121.08,29.39-96.26-24.82-198.11-121.08-227.5Z"/><path class="cls-9" d="m3583.66,1195.74c54.02-176.95,241.26-276.6,418.21-222.57"/></g><polyline class="cls-9" points="3992.8 943.14 4001.87 973.16 3977.71 994.63"/></g><g><path class="cls-8" d="m2364.16,5h953.09c70.87,0,128.33,57.45,128.33,128.33v256.66c0,70.87-57.45,128.33-128.33,128.33h-805.9l-153.92,153.92v-154.09c-67.75-3.5-121.61-59.53-121.61-128.15V133.33c0-70.87,57.45-128.33,128.33-128.33Z"/><line class="cls-7" x1="3280.78" y1="152.18" x2="2408.89" y2="152.18"/><line class="cls-7" x1="3067.17" y1="262.62" x2="2408.89" y2="262.62"/><line class="cls-7" x1="2920.07" y1="373.05" x2="2416.18" y2="373.05"/></g><g><g><rect class="cls-13" x="348.85" y="178.43" width="358.57" height="356.83" rx="71.65" ry="71.65"/><rect class="cls-2" x="312.4" y="141.97" width="358.57" height="356.83" rx="71.65" ry="71.65"/></g><circle class="cls-15" cx="476.98" cy="322.96" r="99.71" transform="translate(-88.66 431.87) rotate(-45)"/><path class="cls-2" d="m476.98,378c-4.33,0-8.66-1.61-12.02-4.85l-55.42-53.44c-6.89-6.64-7.08-17.6-.45-24.49,6.64-6.89,17.6-7.08,24.49-.45l43.12,41.58,93-93.81c6.73-6.79,17.7-6.84,24.49-.11,6.79,6.73,6.84,17.7.11,24.49l-105.03,105.94c-3.38,3.41-7.84,5.13-12.3,5.13Z"/></g><polyline class="cls-5" points="1841.7 2617.05 1790.52 2591.09 1816.11 2632.19"/><polyline class="cls-5" points="1518.48 2857.7 1605.24 2999.71 1594.8 2905.88"/><rect class="cls-2" x="2655.6" y="295.77" width="1390.96" height="1361.78" rx="194.21" ry="194.21"/><path class="cls-5" d="m3173.17,1657.55h-323.35c-51.74,0-98.76-20.24-133.57-53.23"/><path class="cls-5" d="m4046.57,860.03v603.31c0,107.26-86.95,194.21-194.21,194.21h-186.51"/><path class="cls-5" d="m3792.77,295.77h59.59c107.26,0,194.21,86.95,194.21,194.21v50.33"/><g><rect class="cls-1" x="509.91" y="378.03" width="1467.51" height="835.74" rx="161.6" ry="161.6"/><g class="cls-16"><g><g><path class="cls-3" d="m1627.74,597.36c-17.03-23.09-52.59-80-79.95-73.67-27.36,6.33.64,41.84,39.61,97.28-21.18-35.18-85.69-110.26-113.2-97.55-27.51,12.71,31.37,47.73,71.69,120.98-27.29-42.49-93.78-125.45-135.64-97.06-23.24,15.76,55.82,65.95,94.79,121.39-21.18-35.18-108.92-96.6-133.53-78.92-31.38,22.54,49.79,39.23,92.52,101.63,43.9,65.97,82.04,222.96,158.17,233.29,76.13,10.33,100.3-66.76,77.08-160-23.22-93.23-71.54-167.38-71.54-167.38Z"/><g><path class="cls-15" d="m1016.41,1243.81c-19.96-95.79-2.57-181.64,83.61-233.39,136.19-81.78,280.88,84.31,382.22,233.39h-465.83Z"/><path class="cls-3" d="m1689.8,1243.81c1.17-15.71,2.26-31.44,3.3-47.17,4.27-64.9,7.54-129.98,9.53-195.27,1.81-65.33,2.73-130.81.54-196.83-1.15-34.69-30.2-61.87-64.88-60.72-25.76.85-47.38,17.15-56.34,39.65-24.34,61.41-45.57,123.36-65.91,185.47-20.16,62.14-39.05,124.5-56.93,187.03-8.36,29.24-16.5,58.52-24.33,87.85h255.03Z"/></g><path class="cls-17" d="m818.55,439.8c-88.56,53.71-118.86,81.3-99.02,164.27,19.84,82.97,56.63,221.13,87.73,253.17,31.1,32.04,11.29-417.43,11.29-417.43Z"/><path class="cls-15" d="m1357.43,1243.81c-2.73-77.38-9.32-134.32-21.23-159.54-71.35-151.1-899.43-163.79-910.77-12.59-2.79,37.27-2.08,98.4.84,172.13h931.16Z"/><path class="cls-1" d="m657.57,973.37c63.63-7.1,147.22-25.22,219.22-23.92,77.46,1.39,143.42,22.84,213.42,33.66,81.47,199.62-519.78,114.07-432.64-9.74Z"/><path class="cls-5" d="m1090.21,983.11c81.47,199.62-519.78,114.07-432.64-9.74"/><g><g><path class="cls-1" d="m1012.11,742.68l4.68,281.65c-2.34,85.73-240.83,79.5-240.83-9.35v-420.09s215.11-87.86,236.16,147.8Z"/><path class="cls-1" d="m925.03,370.32c-342.49,0-100.09,536.56,43.65,536.56,118.89,0,109.98-143.91,112.51-274.81,2.57-133.08-5.32-261.74-156.16-261.74Z"/><path class="cls-5" d="m846.08,813.43c39.29,55.6,84.43,93.45,122.6,93.45,118.89,0,109.98-143.91,112.51-274.81,2.57-133.08-5.32-261.74-156.16-261.74"/></g><path class="cls-17" d="m1077.71,521.75c-7.56-67.16-42.63-72.94-67.94-57.39-25.31,15.55-66.93,51.25-217.35,46.09,0,0,2.8,144.04-17.18,164.02-19.98,19.98-45.93-1.81-66.73-65.59-73.91-226.61,53.56-208.7,154.52-233.94,25.24-6.31,74.86-16.52,67.16-55.7,101.89-25.32,233.51,120.54,147.53,202.5Z"/><g><path class="cls-1" d="m807.7,726.45c43.2-57.64-54.66-140.92-81.93-90.26-27.28,50.66,41.51,144.19,81.93,90.26Z"/><path class="cls-5" d="m773.11,703s-28.83-18.41-11.98-38.1"/><path class="cls-5" d="m793.08,640.63c-22.47-21.64-53.69-29.74-67.32-4.44-23.36,43.39,23.74,118.21,63.13,104.94"/></g><path class="cls-5" d="m1025.43,790.93s-37.83,8.74-69.94-4.92"/></g><path class="cls-5" d="m1139.51,1028.02c-39,185.82-393.56,114.46-470.35,55.96"/><g><g><g><path class="cls-17" d="m1456.79,565.72c24.19-.2,219.69-1.79,243.89-1.99,33.71-.28,61.55,61.04,62.17,136.97.63,75.92-26.19,137.7-59.9,137.98-24.19.2-219.69,1.79-243.89,1.99-33.71.28-61.55-61.04-62.17-136.97-.63-75.92,26.19-137.7,59.9-137.98Z"/><path class="cls-15" d="m1653.55,701.6c.47,56.67,17.76,104.31,40.95,118.84,19.41-19.13,32.74-63.05,32.32-114.08-.47-56.66-17.76-104.31-40.95-118.83-19.41,19.13-32.74,63.05-32.32,114.07Z"/></g><path class="cls-17" d="m1080.43,593.3c9.32.46,91.09,5.65,100.41,6.11,12.99.64,22.34,24.88,20.89,54.14-1.45,29.26-13.16,52.45-26.15,51.81-9.32-.46-91.09-5.65-100.41-6.11-12.99-.64-22.34-24.88-20.89-54.14,1.45-29.26,13.16-52.45,26.15-51.81Z"/></g><path class="cls-1" d="m1711.45,759.31c2.54-14.56,3.89-30.49,3.75-47.2-.34-40.65-9.34-76.67-22.97-99.14-3.03,4.32-5.88,9.32-8.46,14.88,16.69,21.22,28.15,61.26,28.54,107.25.06,8.28-.24,16.38-.86,24.21Z"/></g><path class="cls-15" d="m352.7,1243.81c-18.6-93.26-.78-171.13,84.5-207.65,126.01-53.96,255.65,80.88,344.24,207.65h-428.74Z"/><path class="cls-1" d="m1077.61,1243.81c9.7-43.29,18.93-86.74,27.64-130.38,13.03-66.23,25.21-132.75,34.4-200.31,4.68-34.34-19.37-65.97-53.72-70.65-25.79-3.51-50.06,9.23-62.52,30.3-34.63,58.73-66.29,118.5-97.09,178.56-30.63,60.12-60.03,120.67-88.47,181.55-1.7,3.64-3.4,7.29-5.09,10.93h244.85Z"/><path class="cls-5" d="m896.37,582.09c64.41-32.38,103.11,9.25,103.11,9.25"/><path class="cls-5" d="m1280.39,1094.6c15.4,49.43,27.59,99.62,37.19,149.21"/><path class="cls-5" d="m482.68,1032.14c109.45,31.04,214.44,157.59,255.27,211.67"/><path class="cls-1" d="m1557.9,880.5c-109.9-32.25-164.34-155.68-115.04-137.83,49.3,17.85,165.37,70.63,170.57,97.99,5.2,27.36-55.53,39.84-55.53,39.84Z"/><g><g><g><path class="cls-17" d="m1179.49,569.25c20.42,1.01,373.5,4.31,393.92,5.32,28.45,1.41-65.54,51.38-68.2,104.95-2.66,53.57-30.7,135.31-59.15,133.9-20.42-1.01-255.77-49.15-276.19-50.16-28.45-1.41-49.36-45.98-46.71-99.56,2.66-53.57,27.88-95.86,56.33-94.45Z"/><path class="cls-17" d="m1221.03,569.8c24.16,1.2,219.43,10.91,243.59,12.11,33.67,1.67,57.91,64.5,54.15,140.33-3.76,75.83-34.1,135.95-67.77,134.28-24.16-1.2-219.43-10.91-243.59-12.11-33.67-1.67-57.91-64.5-54.15-140.33,3.76-75.83,34.1-135.95,67.77-134.28Z"/><path class="cls-15" d="m1409.61,716.82c-2.81,56.61,11.7,105.16,34.01,121.01,20.48-17.97,36.33-61.06,38.86-112.02,2.81-56.6-11.7-105.16-34.01-121-20.48,17.97-36.33,61.06-38.86,112.01Z"/></g><path class="cls-17" d="m978.71,607.34c9.32.46,91.09,5.65,100.41,6.11,12.99.64,22.34,24.88,20.89,54.14-1.45,29.26-13.16,52.45-26.15,51.81-9.32-.46-91.09-5.65-100.41-6.11-12.99-.64-22.34-24.88-20.89-54.14s13.16-52.45,26.15-51.81Z"/></g><path class="cls-1" d="m1464.08,777.78c3.38-14.39,5.64-30.22,6.47-46.9,2.01-40.61-4.89-77.08-17.2-100.31-3.28,4.14-6.4,8.96-9.3,14.37,15.44,22.15,24.56,62.79,22.29,108.72-.42,8.27-1.18,16.34-2.26,24.12Z"/></g><g><path class="cls-1" d="m1144.91,819.17c-48.77-79.96-106.79-83.74-106.79-83.74,0,0-33.79,73.98-3.37,149.29,30.42,75.32,110.17-65.55,110.17-65.55Z"/><path class="cls-1" d="m1106.3,649.05c17.03-23.09,52.59-80,79.95-73.67,27.36,6.33-.64,41.84-39.61,97.28,21.18-35.18,85.69-110.26,113.2-97.55,27.51,12.71-31.37,47.73-71.69,120.98,27.29-42.49,93.78-125.45,135.64-97.06,23.24,15.76-55.82,65.95-94.79,121.39,21.18-35.18,108.92-96.6,133.53-78.92,31.38,22.54-49.79,39.23-92.52,101.63-43.9,65.97-82.04,222.96-158.17,233.29-76.13,10.33-100.3-66.76-77.08-160,23.22-93.23,71.54-167.38,71.54-167.38Z"/></g><path class="cls-5" d="m1044.51,587.53c25.1-12.38,38.97-8.68,38.97-8.68"/><path class="cls-5" d="m917.7,620.5c30.25,24.92,69.2,6.21,69.2,6.21"/></g><path class="cls-3" d="m1596.75,866.14c-44.07,40.74-122.65-34.09-122.65-34.09"/><path class="cls-5" d="m1042.54,707.13c-30.87,49.64-19.62,128.64-19.62,128.64l-8.41,52.22-179.78,351.55"/><path class="cls-5" d="m1234.75,819.79c-27.69,79.87-79.59,137.38-103.6,150.63"/></g><line class="cls-5" x1="775.62" y1="742.44" x2="764.63" y2="1014"/><line class="cls-5" x1="652.3" y1="982.61" x2="767.15" y2="951.7"/></g><rect class="cls-9" x="509.91" y="378.03" width="1467.51" height="835.74" rx="161.6" ry="161.6"/></g><path class="cls-5" d="m1815.82,1213.77H671.51c-89.25,0-161.6-72.35-161.6-161.6v-512.54c0-89.25,72.35-161.6,161.6-161.6"/><g><g class="cls-12"><g><g><g><g><path class="cls-15" d="m804.22,3469.7c12.11-107.88,22.15-197.4,22.15-197.4l-575.09-77.82s-27.45,57.65-59.47,124.91v150.31h612.41Z"/><g><g><g><path class="cls-1" d="m795.95,2170.35l-55.16,273.24c-20.43,82.38-249.64,25.81-230.82-60.07,18.83-85.89,89.02-406.08,89.02-406.08,0,0,226.55-39.35,196.96,192.91Z"/><path class="cls-1" d="m709.06,1780.04c-336.73,38.47-83.44,513.4,58.8,514.69,83.47.76,136.35-145.9,124.14-274.89-12.42-131.13-34.63-256.75-182.93-239.81Z"/><path class="cls-5" d="m628.42,2189.74c43.8,61.34,96.65,104.6,139.44,104.99,72.16.65,121.46-108.88,125.6-221.91"/><path class="cls-17" d="m748.85,2023.14c-5.89-21.42-36.15.71-23.7,17.57,12.46,16.87,26.15-8.66,23.7-17.57Z"/><path class="cls-17" d="m875.08,2015.08c-3.76-21.9-36.05-2.86-25.31,15.15,10.73,18.01,26.88-6.04,25.31-15.15Z"/><path class="cls-5" d="m883.58,1949.88c-30.48-18.96-60.18-3.91-60.18-3.91"/><path class="cls-5" d="m748.88,1955.38c-36.86-7.73-69.09,11.13-69.09,11.13"/><path class="cls-5" d="m784.99,2002.53c17.53,66.19,31.97,99.86,31.97,99.86,0,0,.11,14.75-20.82,20.3"/></g><g><path class="cls-17" d="m883.58,1949.88c-4.69-123.12-102.17-124.64-209.74-72.84,10.25,62.03-61.71,124.31-61.71,124.31,0,0-33.52,108.01-56.34,173.16-26.67-38.88-61.7-84.76-78.68-157.91-23.85-102.76.16-226.52,143-233.87,62-93.74,224.05-33.68,250.72-4.61,58.18,63.42,51.15,113.77,12.75,171.77Z"/><g><path class="cls-1" d="m631.63,2099.63c36-61.52-69.57-132.42-90.7-79.54-21.13,52.87,57.01,137.1,90.7,79.54Z"/><line class="cls-5" x1="610.1" y1="2075.06" x2="570.69" y2="2036.21"/><path class="cls-5" d="m620.93,2029.35c-24.72-28.3-67.39-40.81-80-9.26-18.1,45.28,36.61,113.56,73.86,96.08"/></g></g></g><path class="cls-1" d="m487.3,2314.22l56.3-90.1s50.29,78.51,122.05,98.72c0,0,52.8,113.64,41.13,211.54-11.67,97.91-29.64,141.36-29.64,141.36,0,0-212.22-209.04-189.85-361.52Z"/><path class="cls-1" d="m756.66,2366.26l-150.2,368.3,98.08,108.66s77.2-226.4,91.17-282.5c13.97-56.1-39.06-194.46-39.06-194.46Z"/><path class="cls-15" d="m726.79,3469.7c5.83-1.24,9-1.91,9-1.91.03.64.05,1.27.08,1.91h-9.07Z"/><path class="cls-15" d="m296.9,3469.7c-36.14-3.62-72.11-6.26-105.09-8.18v8.18h105.09Z"/><path class="cls-1" d="m369.12,3469.7c-74.98-15.72-140.95-29.55-177.3-37.17v-74.34c85.57-197.83,195.17-471.47,198.87-583.12,6.09-183.93,8.45-409.89,8.45-409.89l110-85.91c12.16,80.45,203.09,465.09,203.09,465.09,0,0,89.38-142.58,66.39-316.7,0,0,102.95,208.56,116.83,255,11.38,38.09-64.05,568.07-100.11,787.02h-426.23Z"/><path class="cls-15" d="m273.98,3469.7c43.22-45.49,80.94-102.27,103.95-172.66,88.48-270.7,127.5-467.86,142.83-572.18,30.37-206.73-57.11-367-11.61-445.59,0,0-181.3,29.78-317.32,96.11v1094.31h82.16Z"/><path class="cls-5" d="m273.98,3469.7c43.22-45.49,80.94-102.27,103.95-172.66,88.48-270.7,127.5-467.86,142.83-572.18,30.37-206.73-57.11-367-11.61-445.59"/><path class="cls-15" d="m841.1,3469.7c3.98-18.57,7.98-35.57,11.96-50.53,40.77-153.14,151.2-573.41,95.64-809.72-27.56-117.21-197.98-236.99-197.98-236.99,101.57,260.49,159.45,390.04,56.33,892.22-15.18,73.95-27.01,142.26-36.13,205.03h70.18Z"/><path class="cls-5" d="m753.91,2378.66c101.57,260.49,156.25,383.83,53.14,886.01-15.18,73.95-27.01,142.26-36.13,205.03"/><path class="cls-5" d="m244.06,2409.7c187,90.77,48.57,333.26-52.24,471.59"/><path class="cls-5" d="m275.37,3325.14c-29.9-16.44-60.22-48.4-83.56-77.01"/><path class="cls-5" d="m431.21,2320.78l-60.93,290.63,93.14,39.47-82.28,45.94s64.82,393.01,22.87,517.33"/><path class="cls-5" d="m587.64,2431.46c34.88-60.25,75.49-100.8,75.49-100.8,0,0,63.49,127.87,44.81,251.49"/><path class="cls-1" d="m725.81,2485.44s45.78-6.62,79.29,30.52c9.12-63.76-12.63-119.44-12.63-119.44l-32.81-85.48-50.38,153.48,16.53,20.92Z"/><path class="cls-5" d="m707.33,2473.84l85.14-77.32c33.91,40.42,12.63,119.44,12.63,119.44"/><path class="cls-5" d="m810.78,2445.31c96.53,110.46,108.07,214.26,108.07,214.26l-45.77,45.19,44.88,51.3s-74.8,364.56-100.72,457.41"/></g><path class="cls-5" d="m289.17,3452.94s33.53,6.79,82.71,16.76"/></g><path class="cls-5" d="m948.69,2609.44c37.1,154.92,2.99,335.75,2.99,335.75"/><path class="cls-5" d="m739.08,2165.26c32.52,27.79,80.73,26.29,80.73,26.29"/><ellipse class="cls-5" cx="731.26" cy="2026.32" rx="55.37" ry="39.39" transform="translate(-1395.12 1681.04) rotate(-60.93)"/><ellipse class="cls-5" cx="856.83" cy="2010.96" rx="55.37" ry="39.39" transform="translate(-1317.13 1782.89) rotate(-60.93)"/><line class="cls-5" x1="597.76" y1="2010.35" x2="693.05" y2="2014.97"/><line class="cls-5" x1="773.69" y1="2000.16" x2="817.11" y2="1992.84"/><path class="cls-5" d="m577.9,2110.98c-.17-.11-34.29,113.13-34.29,113.13,38.21,92.03,119.53,106.54,119.53,106.54"/><line class="cls-5" x1="767.86" y1="2294.73" x2="736.99" y2="2380.1"/></g><g><path class="cls-2" d="m1135.23,3401.83c-10.53,33.29,15.14,66.97,51.04,66.97h443.66l-206.36-5.21c-26.76-.68-46.94-23.81-43.2-49.52l63.97-439.56h-173.97l-135.15,427.31Z"/><path class="cls-2" d="m754.35,3315.15h1210.45c15.19,0,25.49-11.93,23-26.65l-134.52-796.63c-2.49-14.72-16.81-26.65-32-26.65H610.82c-15.19,0-25.49,11.93-23,26.65l134.52,796.63c2.49,14.72,16.81,26.65,32,26.65Z"/><path class="cls-2" d="m705.58,3189.2c10.65,63.05,17.51,103.7,17.51,103.7,2.07,12.28,14.03,22.24,26.71,22.24h1219.56c12.68,0,21.27-9.96,19.19-22.24,0,0-6.87-40.66-17.51-103.7H705.58Z"/><polygon class="cls-2" points="1940.73 3164.22 1826.96 2490.49 613.68 2490.49 727.45 3164.22 1940.73 3164.22"/></g><g><g><g><polygon class="cls-2" points="836.59 3023.35 1169.49 3023.35 1115.37 2691.09 782.47 2691.09 836.59 3023.35"/><path class="cls-8" d="m807.8,2846.62s45.92,108.87,136.47,96.14c90.55-12.72,117.42-152.7,188.14-147.04l37.08,227.63h-332.9l-28.79-176.73Z"/><path class="cls-9" d="m815.85,2777.02c-10.58-18.81-19.41-38.35-28.78-57.65"/><path class="cls-9" d="m864.72,2836.82c-9.36-6.95-17.76-15.32-25.23-24.44"/><path class="cls-9" d="m940.31,2864.48c-13.14,5.68-28.88,1.46-42.84-5.76"/><path class="cls-9" d="m990.58,2835.21c-7.31,4.22-14.09,9.24-21.02,14.01"/><path class="cls-9" d="m1057.08,2829.96c-11.41-4.24-23.14-5.71-34.33-4.56"/><path class="cls-7" d="m1117.09,2879.31c-8.02-9.41-16.22-18.73-25.37-26.99"/><path class="cls-7" d="m1158.9,2958.32c-5.07-14.77-11.25-29.32-18.72-43.33"/></g><path class="cls-9" d="m960.51,3091.21c-37.94.32-74.43.32-112.87,0"/><path class="cls-9" d="m1057.31,3091.21h-44.68"/><path class="cls-9" d="m1180.55,3091.21c-25.06.32-47.51.32-73.81,0"/></g><polygon class="cls-9" points="771.87 2626.06 1104.78 2626.06 1093.95 2559.6 761.05 2559.6 771.87 2626.06"/><polygon class="cls-9" points="1237.49 2682.61 1746.64 2682.61 1726.6 2559.6 1217.45 2559.6 1237.49 2682.61"/><polygon class="cls-8" points="1305.43 3099.7 1814.58 3099.7 1759.07 2758.96 1249.92 2758.96 1305.43 3099.7"/><g><g><path class="cls-7" d="m1400.04,2818.14c-29.33,1.46-58.08,1.46-86.72,0"/><path class="cls-7" d="m1535.79,2818.14h-84.79"/><path class="cls-7" d="m1652.35,2818.14c.12.36.26.71.4,1.07-28.17.08-56.57-.26-84.53-1.07h84.13Z"/><path class="cls-7" d="m1356.1,2888.11c41.49-.47,83.21-.34,124.87.44h-124.35c-.18-.14-.35-.3-.52-.44Z"/><path class="cls-7" d="m1569.87,2888.56h-38.12"/><path class="cls-7" d="m1732.31,2888.56c-39.54-.98-81.35-.98-120.55,0"/><path class="cls-7" d="m1391.59,2958.98h-55.33c18.21-.11,36.6-.2,55.1-.26.08.09.15.17.23.26Z"/><path class="cls-7" d="m1426.2,2958.65c44.04-.05,88.31.06,131.61.33h-131.33c-.09-.11-.19-.22-.28-.33Z"/><path class="cls-7" d="m1621.54,2958.98h-14.57"/><path class="cls-7" d="m1743.78,2958.98c-26.39-.46-55.13-.46-81.43,0"/></g><path class="cls-7" d="m1486.52,3029.44s-.03-.03-.04-.05h144.84c-47.63.03-96.18.05-144.8.05Z"/><path class="cls-7" d="m1396.72,3029.39h56.69l.04.05c-18.96,0-37.87-.01-56.73-.02,0,0,0-.02,0-.03Z"/><path class="cls-7" d="m1755.25,3029.39c-13.24.06-26.3.06-40.18,0"/></g></g></g><path class="cls-1" d="m873.12,3454.42c-2.38-13.5-3.67-23.86-3.64-26.96.11-11.75,10.78-26.75,10.78-26.75,0,0-119.13,22.75-137.86,1.22-18.73-21.53,142.3-37.28,247.05-84.73,44.9-20.34,120.44-48.92,150.4-8.57,37.93,51.07-31.27,79.6-31.27,79.6l-125.08,57.67s1.95,3.95,4.29,8.52c0,0-78.93,0-78.93,0-1.43-2.81-2.23-4.44-2.23-4.44,0,0,.54,1.62,1.41,4.44h-34.93Z"/><path class="cls-5" d="m1125.18,3284.83l-24.56,3.8c-35.05-3.26-80.34,14.6-111.18,28.57-104.76,47.45-265.79,63.2-247.05,84.73,18.73,21.53,137.86-1.22,137.86-1.22,0,0-10.67,15-10.78,26.75-.03,3.1,1.26,13.46,3.64,26.96m114.67,0c-2.34-4.58-4.29-8.52-4.29-8.52l125.08-57.67m-200.53,66.19c-.88-2.83-1.41-4.44-1.41-4.44,0,0,.8,1.63,2.23,4.44"/><path class="cls-5" d="m954.58,3405.72l-8.91,28.95c-1.99,6.46-2.37,13.23-1.21,19.74"/><line class="cls-5" x1="924.82" y1="3387.15" x2="906.63" y2="3449.98"/><path class="cls-5" d="m910.21,3364.26c-20.22,26.11-29.95,36.45-29.95,36.45"/></g><g><path class="cls-17" d="m1793.95,1800.71c-123.52-33.1-295.46-8.89-300.41,73.62-4.94,82.51,109.82,165.03,204.13,146.25,94.3-18.78,96.28-219.87,96.28-219.87Z"/><path class="cls-3" d="m2096.16,3453.9c8.9-31.55,18.76-66.5,21.12-74.87.93-5.34,2-11.61,2.77-16.27,3.18-19.19-3.37-30.15-11.16-36.38-10.88,20.97-28.72,42.21-46.74,55.86-18.94,14.34-41.88,4.33-37.17-3.93,0,0,37.99-66.31,55.63-97.26,1.19-2.08,2.42-3.91,3.68-5.51,3.08-8.21,8.54-15.64,16.21-21.13l47.81-34.23c12.43-8.9,27.89-12.5,42.97-10l1.36.22c23.26-65.96,60.71-173.23,60.53-179.51l164.39-12.91-128.41,257.39c8.7,53.56-8.01,125.47-8.01,125.47.13,1.12.2,2.25.15,3.42-.17,3.85-1.17,25.93-2.25,49.64,0,0-41.35,0-41.35,0,.46-10.11.91-20.01,1.29-28.41l-2.46-.41c-1,8.47-2.16,18.39-3.39,28.82,0,0-41.6,0-41.6,0,1.53-13,2.99-25.43,4.18-35.57l-1.18-.19c-1.67,10.11-3.73,22.52-5.92,35.77,0,0-41.87,0-41.87,0,2.61-15.76,5.08-30.7,7.03-42.51l-2.57-.42c-3.39,12.01-7.74,27.46-12.11,42.94h-42.92Z"/><path class="cls-15" d="m1833.32,3453.9c-26.66-189.7-43.96-312.76-43.96-312.76l375.93-33.26c105.3,125.08,149.1,198.72,138.96,346.02h-470.94Z"/><path class="cls-15" d="m1539.97,3453.9c74-141.44,127.45-241.8,127.45-241.8l268.08-115.29c147.48,109.69,166.02,242.61,133.51,357.1h-529.03Z"/><path class="cls-13" d="m1579.09,2336.92c-158.45,74.42-256.26,594.59-256.26,594.59l-341.36,334.54,108.87,178.19s362.74-260.73,420.63-354.98c57.56-93.71,207.82-458.21,211.73-548.07,3.91-89.86-143.61-204.28-143.61-204.28Z"/><path class="cls-13" d="m2051.66,2336.92c235.21,102.95,434.75,305.37,447.36,479.65,12.61,174.27-148.3,447-148.3,447l-137.45-127.04,60.23-273.96s-200.52-191.14-263.48-328.65c-62.96-137.51,41.65-197,41.65-197Z"/><polygon class="cls-3" points="1643.67 2012.78 1701.57 2354.72 1916.7 2379.37 1842.63 2008.29 1643.67 2012.78"/><path class="cls-13" d="m2128.45,2336.92c-176.38-98.93-514.56-63.85-564.05,11.01-49.5,74.86-36.67,236.71-36.67,236.71l154.36,523.23-55.89,182.96,647.31-87.69c-54-144.62-126.93-327.23-126.93-327.23,0,0,107.95-468.28-18.12-538.99Z"/><path class="cls-5" d="m1626.19,3290.84l647.31-87.69c-54-144.62-126.93-327.23-126.93-327.23,0,0,107.95-468.28-18.12-538.99"/><g><path class="cls-1" d="m1641.88,1852.67c-72.37,2.76-92,92.45-110.56,161.8-13.97,52.22-41.97,73.48-38.16,81.69,8.87,19.13,32.99,25.41,32.99,25.41,0,0,23,98.45,56.25,125.51s221.44-64.73,220.92-206.61c-.42-113.57-19.98-210.15-161.44-187.81Z"/><path class="cls-5" d="m1641.88,1852.67c-72.37,2.76-92,92.45-110.56,161.8-13.97,52.22-41.97,73.48-38.16,81.69,8.87,19.13,32.99,25.41,32.99,25.41,0,0,23,98.45,56.25,125.51,17.72,14.42,79.48-4.93,133.21-47.63"/><path class="cls-5" d="m1564.73,1982.76c40.03,19.19,44.99,44.21,44.99,44.21"/><path class="cls-17" d="m1552.65,2027.83c2.6,29.12,21.22-7.15,14.59-15.92-6.62-8.77-16.41-4.44-14.59,15.92Z"/><path class="cls-5" d="m1542.01,2170.83c27.53,4.46,41.97-22.3,41.97-22.3"/></g><line class="cls-5" x1="1665.43" y1="2766.6" x2="1562.99" y2="2993"/><line class="cls-5" x1="1614.3" y1="2878.13" x2="1682.08" y2="3107.88"/><line class="cls-3" x1="2350.72" y1="3263.57" x2="2267.56" y2="3187.76"/><line class="cls-3" x1="2146.57" y1="2875.92" x2="2137.5" y2="3001.08"/><line class="cls-5" x1="1626.19" y1="3290.84" x2="2273.5" y2="3203.15"/><polyline class="cls-5" points="1626.19 3290.84 1682.08 3107.88 1796.67 3092.83"/><path class="cls-17" d="m1870.16,2165.54c155.06-113.2,140.06-312.88-27.31-381.45-100.82-41.31-203.5-17.24-246.1,28.97-26.36,28.6-32.17,99.21-32.17,99.21,0,0,42.46-13.9,79.1,34.01,32.47,42.47-21.23,78.8,83.52,64.47l7.99,64.77s66.7,81.26,134.97,90.03Z"/><g><path class="cls-1" d="m1713.02,2105.52c-52.88-29.61-6-127.04,32.26-97.37,38.26,29.67,17.22,125.07-32.26,97.37Z"/><line class="cls-5" x1="1718.23" y1="2078.24" x2="1730.4" y2="2032.79"/><path class="cls-5" d="m1690.61,2049.39c5.94-31.39,31.84-58.94,54.67-41.23,32.76,25.41,22.04,99.03-12.79,102.25"/></g><path class="cls-17" d="m1643.67,1916.62c-38.43,298.29,76.5,574.32-13.15,648.91,13.61,25.56,405.11,44.55,479.13-192.89-131.44-15.21-83.14-456.02-192.96-509.09-109.82-53.07-273.03,53.07-273.03,53.07Z"/></g><line class="cls-5" x1="1003.09" y1="3247.44" x2="1116.49" y2="3433.05"/></g><rect class="cls-9" x="223.81" y="1569.58" width="2226.88" height="1879.26" rx="196.86" ry="196.86"/></g><g><path class="cls-5" d="m1663.76,1569.58h590.07c108.72,0,196.86,88.14,196.86,196.86v381.55"/><path class="cls-5" d="m1043.76,3448.84H420.67c-108.72,0-196.86-88.14-196.86-196.86v-1209.75"/></g><path class="cls-15" d="m3363.54,1653.73c2.21-12.8,13.36-22.54,26.79-22.54s24.59,9.74,26.79,22.54h-53.58Z"/><circle class="cls-13" cx="3256.13" cy="2042.23" r="27.19"/><g><path class="cls-17" d="m3531.28,184.58c84.69,38.64,122.72,78.37,113.73,154.52-8.99,76.14-35.4,185.06-59.79,216.93-24.39,31.87-53.94-371.44-53.94-371.44Z"/><path class="cls-13" d="m3154.18,842.94c-15.19-1.13-159.82,360.06-259.39,485.1-99.57,125.04,370.16,215.76,370.16,215.76l-110.77-700.85Z"/><path class="cls-1" d="m3379.78,481.13l-1.99,266.87c2.96,81.2,228.85,73.23,228.08-10.95-.46-49.8-8.31-179.07-9.21-277.09-.62-67.66,5.57-120.9,5.57-120.9,0,0-204.56-81.38-222.45,142.07Z"/><path class="cls-1" d="m3640.68,680.97l-35.06-95.49s-64.46,41.72-135.67,46.56c0,0-71.8,96.11-80.1,190.14-8.3,94.03,0,138.28,0,138.28,0,0,239.92-154.19,250.82-279.5Z"/><path class="cls-1" d="m3376,654.71l68.39,374.6-113.25,82.55s-27.86-227.31-29.94-282.62c-2.07-55.31,74.8-174.54,74.8-174.54Z"/><path class="cls-1" d="m3702.09,1653.19c-39.16-196.98-80.53-445.17-63.32-543.38,30.42-173.54,72.6-385.73,72.6-385.73l-86.2-102.11c-27.2,72.99-281.66,395.91-281.66,395.91,0,0-55.74-151.16,0-309.79,0,0-137.44,175.2-159.56,215.99-17.39,32.07-48.82,503.12-59.52,729.11h577.66Z"/><path class="cls-13" d="m3556.92,1653.19c-3.98-17.35-6.98-34.69-8.88-51.94-29.73-271.03-27.57-463.43-21.43-564.19,12.15-199.67,125.61-332.66,98.41-415.24,0,0,375.68,145.47,386.57,304.17,2.11,30.76-168.51,474.68-201.01,535.53-.89,38.47,4.24,109.28,12.15,191.67h-265.81Z"/><path class="cls-5" d="m3605.72,586l19.3,35.82c27.2,82.58-86.26,215.57-98.41,415.24-6.13,100.76-8.3,293.16,21.43,564.19"/><path class="cls-13" d="m3101.18,1653.19c.2-13,.03-25.11-.56-36.15-8.12-151.5-50.81-561.68,47.68-772.19,48.85-104.41,232.06-183.18,232.06-183.18-146.34,224.14-226.02,334.15-228.05,824.96-.25,59.56-2.23,115.03-5.55,166.56h-45.57Z"/><path class="cls-5" d="m3376.14,666.87c-146.34,224.14-221.81,328.96-223.84,819.76-.25,59.51-2.24,114.99-5.58,166.56"/><path class="cls-5" d="m3689.89,676.03v284.29l-95.03,18.69,68.08,59.21s-137.94,355.53-123.05,480.26"/><path class="cls-5" d="m3521.57,749.01c-20.85-63.3-50.94-109.28-50.94-109.28,0,0-84.61,107.34-91.39,226.85"/><path class="cls-1" d="m3381.49,772.45s-33.56,37.59-80.29,13.02c-3-85.74,35.3-109.44,35.3-109.44l52.6-62.05,12,142.11-19.6,16.36Z"/><path class="cls-5" d="m3401.09,765.21l-64.59-89.18c-39.72,31.21-35.3,109.44-35.3,109.44"/><path class="cls-5" d="m3309.76,718.15c-112.15,84.55-143.35,179.54-143.35,179.54l34.01,51.33-52.13,39.25s-1.53,356.3,4.52,448.39"/><g><g><path class="cls-14" d="m2916.89,1317.31c53.57-.65,322.45,37.75,352.01,39.18s32.59,148.79-33.41,178.12l-342-104.41s-30.18-112.23,23.4-112.89Z"/><path class="cls-15" d="m3100.26,1560.72h-351.94c-18.97,0-36.83-8.94-48.2-24.12l-353.78-472.47c-10.02-13.38-.47-32.44,16.24-32.44h351.94c18.97,0,36.83,8.94,48.2,24.12l353.78,472.47c10.02,13.38.47,32.44-16.24,32.44Z"/><path class="cls-5" d="m2520.11,1296.21c-87.39-116.71-173.78-232.07-173.78-232.07-10.02-13.38-.47-32.44,16.24-32.44h124.29"/><path class="cls-5" d="m2714.51,1031.69c18.97,0,36.83,8.94,48.2,24.12l353.78,472.47c10.02,13.38.47,32.44-16.24,32.44h-351.94c-18.97,0-36.83-8.94-48.2-24.12"/><g><g><path class="cls-1" d="m2900.41,1274.13s-175.75-11.71-202.34-11.51c-26.59.2-28.18,32.47,7.94,39.17-23.63,8.15-26.87,40.68,39.43,50.66-21.2,12.82-6.63,26,35.16,34.49-11.65,7.25,76.13,35.7,101.04,48.23,24.92,12.53,95.66,35.61,113.09,22.38,17.43-13.23,33.85-67.79,19.22-112.97-14.63-45.18-50.51-66.38-113.54-70.46Z"/><path class="cls-1" d="m2863.15,1154.72c-23.47,32.39-2.65,67.82,17.67,87.49,20.33,19.67,17.33,66.31,17.33,66.31,0,0,80.84,48.74,104.17,36.59,23.33-12.15-15.99-83.69-71.02-124.44-55.03-40.75-68.15-65.95-68.15-65.95Z"/><path class="cls-5" d="m3008.92,1327.15c-3.21-26.99-35.9-75.58-77.62-106.48-55.03-40.75-68.15-65.95-68.15-65.95-23.47,32.39-2.65,67.82,17.67,87.49"/></g><line class="cls-5" x1="2706.01" y1="1301.79" x2="2823.08" y2="1328.04"/><line class="cls-5" x1="2745.43" y1="1352.45" x2="2840.7" y2="1384.47"/></g><g><polygon class="cls-1" points="3097.88 1320 3015.29 1308.05 2960.63 1514.9 3072.2 1526.86 3097.88 1320"/><path class="cls-13" d="m3949.39,835.04c-157.94-121.18-201.51,11.75-228.3,63.72s-202.22,459.2-202.22,459.2l-446.68-45.79s-49.12,214.59-44.13,231.62c0,0,530.85,136.64,609.98,99.22,61.39-29.03,473.23-683.76,311.35-807.97Z"/></g></g><path class="cls-5" d="m3783.2,810.04c-100.45,148.35-264.32,547.93-264.32,547.93l-212.77-21.81"/><path class="cls-5" d="m3838.87,1411.48c-87.96,164.51-159.47,214.75-208.45,234.2-65.06,25.84-307.14-34.17-307.14-34.17"/><polyline class="cls-5" points="3587.57 1416.91 3518.87 1357.97 3518.87 1416.91"/><path class="cls-5" d="m3173.17,1578.88l-145.1-35.09c.18-2.42.52-5.47.99-9.05,6.98-52.92,43.14-222.57,43.14-222.57"/></g><line class="cls-5" x1="3389.1" y1="613.98" x2="3399.6" y2="718.15"/><path class="cls-5" d="m3605.87,586.15s-18.43,35.82-84.15,49.65"/><line class="cls-5" x1="3015.29" y1="1308.05" x2="2960.63" y2="1514.9"/><line class="cls-5" x1="2788.39" y1="1396" x2="2972.52" y2="1469.89"/><path class="cls-5" d="m3097.88,1015.85c-18.41,143.97,0,254.39,0,254.39"/><path class="cls-1" d="m3418.28,135c306.1-32.6,183.31,452.2,55,467.3-106.13,12.49-140.7-101.85-156.25-218.5-16.43-123.25-33.45-234.46,101.25-248.8Z"/><path class="cls-5" d="m3483.94,601.05c-134.53,15.84-150.89-100.66-166.9-217.24-16.28-118.53-22.75-234.21,111.9-250.06"/><path class="cls-17" d="m3431.36,352.87c12.98-15.45,29.58,14.27,12.91,23.48-16.67,9.21-18.31-17.05-12.91-23.48Z"/><path class="cls-17" d="m3331.58,360.25c12.98-15.45,29.58,14.27,12.91,23.48-16.67,9.21-18.31-17.05-12.91-23.48Z"/><path class="cls-5" d="m3317.47,328.94c7.04-.99,14.45-.56,21.28,1.45"/><path class="cls-5" d="m3426.45,328.52c6.26-7,15.06-10.98,24.11-12.94"/><path class="cls-5" d="m3391.57,354.05c-1.74,62.17-8.93,82.89-8.93,82.89,0,0,5.49,8.38,23.5,6.26"/><path class="cls-17" d="m3308.55,284.97c-.3-60.74,30.39-69.59,54.62-58.37,24.23,11.22,65.14,38.72,198.87,18.31,0,0,12.63,128.87,32.57,144.61,19.94,15.74,46.12-5.62,52.68-65.56,22.14-202.24-67.33-207.98-160.84-211.84-23.36-.96-69.36-1.88-67.48-23.41-70.62,3.67-156.53,100.84-110.42,196.27Z"/><g><path class="cls-1" d="m3571.09,439.32c-44.62-46.91,33.98-131.54,63.66-89.18,29.67,42.36-21.91,133.07-63.66,89.18Z"/><path class="cls-5" d="m3599.5,414.76s23.8-19.46,6.69-35.27"/><path class="cls-5" d="m3575.12,361.18c17.78-21.67,44.81-32.19,59.63-11.04,25.41,36.27-8.77,108.01-45.33,100.31"/></g><path class="cls-17" d="m3384.15,449.74c46.6-14,92.37,7.13,105.73,45.15,41.26-3.94,72.26-111.6,72.26-111.6,0,0,13.23,65.17,24.4,82.2,11.17,17.02-35.14,126.15-79.27,158.93-47.83,35.54-126.29,47.05-155.76-2.44-32.29-54.24-17.59-140.05-17.59-140.05,0,0,10.59,21.61,21.5,19.28-4.37-30,5.53-44.49,28.73-51.46Z"/><path class="cls-1" d="m3360.74,506.07c-4.39-37.6,82.07-16.66,91.59,10.32,6.06,17.17-9.75,35.32-43.01,33.97-33.26-1.34-45.73-19.88-48.58-44.3Z"/><path class="cls-5" d="m3382.64,517.48s40.28,5.81,61.74-11.81"/><ellipse class="cls-5" cx="3441.86" cy="351.61" rx="38.38" ry="50.59" transform="translate(-17.5 404.77) rotate(-6.71)"/><ellipse class="cls-5" cx="3339.23" cy="363.69" rx="38.38" ry="50.59" transform="translate(-19.62 392.85) rotate(-6.71)"/><line class="cls-5" x1="3601.95" y1="340.86" x2="3471.23" y2="340.31"/><line class="cls-5" x1="3405.72" y1="330.96" x2="3369.6" y2="335.21"/></g><circle class="cls-13" cx="3256.13" cy="1657.55" r="27.19"/><line class="cls-2" x1="3256.13" y1="2042.23" x2="3256.13" y2="1653.73"/><g><circle class="cls-2" cx="1969.26" cy="398.8" r="187.51" transform="translate(294.79 1509.28) rotate(-45)"/><g><g><path class="cls-9" d="m2008.04,475.19c0-16.79,6.68-32.63,17.63-45.36,11.1-12.91,17.82-29.67,17.82-48.04,0-43.6-37.75-78.38-82.34-73.44-33.43,3.7-60.64,30.44-64.87,63.81-2.86,22.61,4.52,43.48,18.12,58.71,11.17,12.51,16.72,29.07,16.72,45.85"/><path class="cls-9" d="m1931.02,476.71h77.12v14.64c0,6.19-5.03,11.22-11.22,11.22h-54.69c-6.19,0-11.22-5.03-11.22-11.22v-14.64h0Z"/><line class="cls-9" x1="1937.14" y1="521.99" x2="2002.02" y2="521.99"/><line class="cls-9" x1="1937.14" y1="540.31" x2="2002.02" y2="540.31"/><path class="cls-9" d="m1988.7,552.29c-10.56,10.56-27.68,10.56-38.23,0"/><path class="cls-9" d="m1928.13,370.22c22.89-10.56,60.01-10.56,82.91,0"/><line class="cls-9" x1="1969.58" y1="396.25" x2="1969.58" y2="476.71"/><line class="cls-9" x1="1961.17" y1="396.25" x2="1977.99" y2="396.25"/><g><path class="cls-9" d="m1952.16,476.71c-.8-51.62-9.21-92.48-24.03-106.49"/><path class="cls-9" d="m1987,476.71c.8-51.62,9.21-92.48,24.03-106.49"/></g></g><g><g><line class="cls-9" x1="2052.59" y1="428.22" x2="2084.85" y2="446.84"/><line class="cls-9" x1="1854.32" y1="313.74" x2="1886.57" y2="332.37"/></g><line class="cls-9" x1="1903.03" y1="265.03" x2="1921.66" y2="297.29"/><line class="cls-9" x1="1969.58" y1="247.19" x2="1969.58" y2="284.44"/><line class="cls-9" x1="2036.13" y1="265.03" x2="2017.51" y2="297.29"/><g><line class="cls-9" x1="1886.57" y1="428.22" x2="1854.32" y2="446.84"/><line class="cls-9" x1="2084.85" y1="313.74" x2="2052.59" y2="332.37"/></g><g><line class="cls-9" x1="1873.73" y1="380.29" x2="1836.49" y2="380.29"/><line class="cls-9" x1="2102.68" y1="380.29" x2="2065.43" y2="380.29"/></g></g></g></g><g><circle class="cls-2" cx="2835.3" cy="476.71" r="244.92" transform="translate(493.35 2144.48) rotate(-45)"/><g><g><path class="cls-9" d="m2902.48,568.77c16.53,0,29.92,13.4,29.92,29.92v26.49h-168.33v-26.49c0-16.52,13.4-29.92,29.92-29.92"/><path class="cls-9" d="m2815.84,293.89c21.49,8.62,32.06,16.53,32.06,16.53l5.81,1.1c22.2,4.2,41.84,17.01,54.63,35.63h0c22.4,32.6,29.6,73.31,19.74,111.61l-2.41,9.36c-4.08,15.87-6.78,32.06-8.05,48.4h0c-1.27,16.3-5.3,32.26-11.91,47.21l-2.36,5.34h-112.76c-9.36-16.98-11.51-37.01-5.97-55.6l.49-1.64c3.9-13.09,10.6-25.18,19.65-35.41l26.02-29.45c5.48-6.2,4.73-15.7-1.64-20.97h0c-2.71-2.25-6.15-3.44-9.67-3.36l-42.11.97-6.27,11.39c-3.38,6.14-10.54,9.14-17.28,7.25h0c-12.07-3.39-21.22-13.24-23.72-25.52l-.95-4.68c-.96-4.74.48-9.65,3.85-13.12l32.94-33.88c3.62-3.72,6.7-7.93,9.15-12.5h0c3.85-7.16,9.21-13.4,15.72-18.27l18.51-13.85-16.68-20.57c-3.48-4.29.19-10.61,5.64-9.66,4.78.83,10.96,1.03,17.57,3.68Z"/></g><path class="cls-9" d="m2857.28,341.11c14.06,3.03,26.5,12.29,34.6,25.74h0c14.19,23.55,18.75,52.96,12.51,80.63"/></g></g><g><circle class="cls-2" cx="275.02" cy="1630.36" r="270.02"/><g><rect class="cls-13" x="132.31" y="1569.52" width="73.08" height="210.84"/><rect class="cls-17" x="239.17" y="1611.73" width="73.08" height="168.62"/><rect class="cls-15" x="346.03" y="1443.11" width="73.08" height="337.24"/><line class="cls-9" x1="75.59" y1="1780.35" x2="448.56" y2="1780.35"/><polyline class="cls-9" points="75.59 1735.11 155.94 1719.08 270.11 1645.92 363.77 1652.43 448.56 1580.78"/><polyline class="cls-9" points="62.02 1631.22 142.38 1622.9 256.54 1584.94 350.2 1588.32 434.99 1551.14"/></g></g><path class="cls-9" d="m1974.86,960.47h46.27c96,0,173.82,77.82,173.82,173.82v34.55c0,46.1,18.31,90.31,50.91,122.91l450.76,450.76c32.6,32.6,50.91,76.81,50.91,122.91v668.09c0,96,77.82,173.82,173.82,173.82h0"/><path class="cls-9" d="m1977.42,1052.17h33.27c46.83,0,84.79,37.96,84.79,84.79v132.42c0,65.2-52.86,118.06-118.06,118.06h-666.57c-65.2,0-118.06,52.86-118.06,118.06v64.08"/><line class="cls-9" x1="1989.73" y1="868.77" x2="2655.6" y2="868.77"/><path class="cls-9" d="m1294.79,3453.48v35.7c0,113.14,91.71,204.85,204.85,204.85h617.36"/><circle class="cls-13" cx="1977.42" cy="868.77" r="27.19" transform="translate(803.12 2681.5) rotate(-80.78)"/><circle class="cls-13" cx="2655.6" cy="868.77" r="27.19" transform="translate(1372.67 3350.92) rotate(-80.78)"/><circle class="cls-13" cx="1977.42" cy="960.47" r="27.19"/><circle class="cls-13" cx="1192.79" cy="1569.58" r="27.19"/><circle class="cls-13" cx="2921.35" cy="2707.32" r="27.19" transform="translate(-218.96 5157.28) rotate(-80.78)"/><circle class="cls-13" cx="1294.79" cy="3448.84" r="27.19"/><circle class="cls-13" cx="1977.42" cy="1052.17" r="27.19"/><g><path class="cls-2" d="m2712.15,3307.95c-12.42,55.83-5.02,115.11-25.53,170.66-32.6,94.68-122.47,169.89-226.48,207.69,2.6-70.88,15.78-143.06,11.28-213.73-2.93-30.69-11.89-56.6-17.03-87.73-11.18-64.06-1.71-136.15,30.27-195.25,12.53-22.68,25.11-39.93,41.08-59.48,32.59-38.57,67.01-74.82,94.68-116.39,28.71-41.56,53.65-85.15,81.16-127.35,69.15,80.47,91.34,187.84,59.43,284.48-13.47,46.2-41.63,90.02-48.85,137.09Z"/><path class="cls-2" d="m2513.81,3218.43c7.6,85.47,14.74,172.28-.86,257.68-17.22,82.61-58.84,160.93-127.29,220.75-20.7-69.48-41.26-139.76-64.65-208.9-30.92-82.67-57.79-160.89-66.17-250.83-17.48-168.82,31.9-351.12,161.42-479.79,55.06,148.42,80.67,304.94,97.55,461.09Z"/><path class="cls-5" d="m2294.1,2943.84c27.11-68.35,67.5-132.2,122.15-186.5,55.06,148.42,80.67,304.94,97.55,461.09,7.6,85.47,14.74,172.28-.86,257.68-17.22,82.61-58.84,160.93-127.29,220.75"/><path class="cls-2" d="m2347.01,3274.09c-.52,25.29-1.47,50.61-3.66,75.83-1.96,43.51,7.09,88.17,14.29,132.2,12.48,70.16,24.32,140.3,29.19,210.7-146.35-62.13-269.17-183.75-294.79-326.37-7.15-51.22-5.36-106.89-2.42-157.4,4.43-68.69,8.65-134.93,9.12-203.26.93-56.7.58-113.52,4.87-170.11,174.85,95.58,250.47,266.29,243.41,438.41Z"/><polygon class="cls-2" points="2278.47 3980.79 2568.22 3980.79 2658.19 3580.61 2188.51 3580.61 2278.47 3980.79"/><path class="cls-9" d="m2150.28,2955.46c66.47,294.18,11.08,473.16,138.48,625.14"/><path class="cls-9" d="m2236.94,3029.63c-16.5,128.77-54.16,133.67-54.16,133.67"/><path class="cls-9" d="m2109.66,3176.89c27.69,60.16,81.02,77.51,81.02,77.51"/><path class="cls-9" d="m2307.22,3291.33c0,87.31-92.41,141.16-92.41,141.16"/><path class="cls-9" d="m2190.68,3512.62c35.29,37.49,70.33,30.12,70.33,30.12"/><path class="cls-9" d="m2401.38,2870.51c-48,159.12-41.92,311.98-17.92,406.53,24,94.55,0,303.56,0,303.56"/><path class="cls-9" d="m2325.68,2913.14c-12.92,84.79,43.97,116.49,43.97,116.49"/><path class="cls-9" d="m2462.31,3049.48c-22.16,71.17-92.66,107.35-92.66,107.35"/><path class="cls-9" d="m2347.01,3274.09c11.9,41.62,44.03,49.82,44.03,49.82"/><path class="cls-9" d="m2496.76,3330.48c-27.07,118.94-104.57,139.22-104.57,139.22"/><path class="cls-9" d="m2706.05,2974.96c-53.57,221.19-132.96,297.85-147.73,386.95-14.77,89.09-11.98,205.15-42.91,218.7"/><path class="cls-9" d="m2612.6,3064.42c-21.05,67.23,25.19,110.84,25.19,110.84"/><path class="cls-9" d="m2730.03,3156.82c-49.85,146.3-157.52,156.1-157.52,156.1"/><path class="cls-9" d="m2522.23,3451c6.55,28.32,22.15,35.68,22.15,35.68"/><path class="cls-9" d="m2667.25,3422.62c-14.77,81.87-132.09,120.7-132.09,120.7"/><line class="cls-9" x1="2209.86" y1="3668.09" x2="2636.89" y2="3668.09"/><line class="cls-9" x1="2214.8" y1="3697.56" x2="2629.84" y2="3697.56"/></g><g><line class="cls-5" x1="3621.43" y1="2785.05" x2="3744.82" y2="2939.93"/><g><line class="cls-9" x1="3640.68" y1="2194.38" x2="4194.74" y2="2194.38"/><line class="cls-9" x1="3640.68" y1="2347.76" x2="4194.74" y2="2347.76"/><line class="cls-9" x1="3640.68" y1="2501.14" x2="4194.74" y2="2501.14"/><line class="cls-9" x1="3640.68" y1="2654.52" x2="4194.74" y2="2654.52"/><line class="cls-9" x1="3640.68" y1="2807.9" x2="4194.74" y2="2807.9"/><line class="cls-9" x1="3640.68" y1="2961.28" x2="4194.74" y2="2961.28"/><line class="cls-9" x1="3640.68" y1="3114.65" x2="4194.74" y2="3114.65"/><line class="cls-9" x1="3640.68" y1="3268.03" x2="4194.74" y2="3268.03"/></g><rect class="cls-9" x="2921.35" y="2042.23" width="1291.34" height="2017.77" rx="227.78" ry="227.78"/><path class="cls-9" d="m4212.69,2270.02v1562.21c0,125.79-101.98,227.78-227.78,227.78h-835.79c-35.29,0-68.7-8.03-98.52-22.35-76.47-36.74-129.26-114.92-129.26-205.43v-1562.21c0-125.8,101.99-227.78,227.78-227.78h835.79c125.8,0,227.78,101.98,227.78,227.78Z"/><path class="cls-5" d="m2921.34,2583.6v-313.58c0-125.8,101.99-227.78,227.78-227.78"/><g><g><g><g><path class="cls-17" d="m4212.69,3714.94v117.29c0,125.79-101.98,227.78-227.78,227.78h-835.79c-35.29,0-68.7-8.03-98.52-22.35-35.15-77.23-55.49-142.63-51.53-185.63,19.96-216.73,912.92-126.59,912.92-126.59l-27.95-87.82h219.57s51.78,26.34,109.08,77.33Z"/><g><path class="cls-15" d="m4212.69,3726.79v13.21c-1.32-6.21-1.54-10.98,0-13.21Z"/><path class="cls-17" d="m4212.69,3802.95v29.27c0,125.79-101.98,227.78-227.78,227.78h-396.4c-6.73-76.82,3.46-140.38,39.6-178.88,149.87-159.69,487.39-99.61,584.58-78.17Z"/></g><g><path class="cls-3" d="m3685.31,3084.66l-437.21-68.69.08-469.38c.03-25.07-17.86-47.36-43.4-51.99-28.71-5.21-56.2,13.84-61.41,42.55l-101.22,557.95c-8.8,48.96,22.35,96.88,71.35,108.04l12.1,2.76,513.9,117.08c2.57.57,5.49,1.15,8.13,1.56,66.24,10.41,128.38-34.86,138.78-101.1,10.41-66.24-34.86-128.38-101.1-138.78Z"/><path class="cls-15" d="m3320.49,3290.34l37.6-281.88s184.29,23.35,307.08,15.04c107.19-7.26,156.25,113.78,113.66,213.13-33.81,78.89-129.56,216.39-186.75,168.98-96-79.58-271.59-115.27-271.59-115.27Z"/><path class="cls-15" d="m4212.69,3081.12v731.25l-329.51-67.57s-468.41-466.33-367.18-630.01,434.47-191.69,600.91-109.91c33.34,16.38,65.34,42.72,95.77,76.24Z"/><g><path class="cls-1" d="m3907.97,2992.83c32.01,110.59-272.13,227.63-296.16,155.79-24.03-71.84,86.33-149.61,161.39-175.6,71-24.58,126.08-10.19,134.77,19.81Z"/><g><g><path class="cls-1" d="m3545.13,2904.41l138.1,192.21c44.57,56.62,202.22-67.19,157.66-127.09-44.56-59.9-210.68-283.19-210.68-283.19,0,0-189.08,48.65-85.07,218.07Z"/><path class="cls-1" d="m3505.48,2617.73c279.41-68.8,216.3,407.19,98.98,435.84-73.58,17.96-145.44-84.64-173.8-190.93-28.83-108.06-48.24-214.61,74.82-244.91Z"/><path class="cls-5" d="m3659.19,3003.33c-15.6,26.78-34.35,45.26-54.73,50.24-73.58,17.96-145.44-84.64-173.8-190.93-28.83-108.06-48.24-214.61,74.82-244.91"/><path class="cls-17" d="m3523.8,2814.44c10.25-15.84,29.09,9.81,14.7,20.29-14.4,10.47-18.96-13.69-14.7-20.29Z"/><path class="cls-17" d="m3446.34,2845.59c10.25-15.84,29.09,9.81,14.7,20.29-14.4,10.47-18.96-13.69-14.7-20.29Z"/><path class="cls-5" d="m3419.55,2816.51c22.14-17.9,55.48-24.62,55.48-24.62"/><path class="cls-5" d="m3502.55,2762.49c58.15-15.7,82.33,9.54,82.33,9.54"/><path class="cls-5" d="m3490.45,2818.91c5.59,57.87,4.03,88.94,4.03,88.94,0,0,4.26,11.77,22.57,10.01"/><path class="cls-5" d="m3563.95,2959.21s-14.2,12.15-32.71,18.38"/></g><g><g><path class="cls-5" d="m3444.29,2764.68c12.76-42.95,89.63-51.95,92.32-80.07"/><path class="cls-17" d="m3416.7,2804.46c-8.39-95.4,104.23-72.06,119.92-119.85,43.9,66.13,124.96,80.07,124.96,80.07,0,0,59.19,48.54,96.6,93.66,9.93-72.15,1.6-164.21-22.9-223.89-35.92-87.51-149.32-86.36-158.18-40.85-62.73-34.69-167.98-5.21-194.61,40.85-36.58,63.26-2.29,125.86,34.23,170.01Z"/></g><g><path class="cls-4" d="m3661.48,2849.28c-46.82-38.34,16.28-125.95,48.71-90.1,32.43,35.85-4.9,125.97-48.71,90.1Z"/><line class="cls-5" x1="3671.37" y1="2823.37" x2="3691.27" y2="2780.8"/><path class="cls-5" d="m3649.24,2790.18c11.32-29.82,41.6-52.39,60.95-31,27.77,30.7,4.38,101.21-30.43,98.29"/></g></g></g></g><g><path class="cls-1" d="m4061.8,3023.5c-67.05.24-121.2,54.79-120.96,121.83l1.82,510.19-387.13,109.48c-23.59,6.66-40.13,29.11-38.38,54.53,2,29.15,27.26,51.15,56.4,49.14l490.42-33.75c45.22-3.06,82.18-39.36,84.86-85.79l.77-13.26,33.82-583.97c.13-2.35.21-5.07.2-7.45-.24-67.05-54.79-121.2-121.83-120.96Z"/><path class="cls-15" d="m4194.71,3454.75h-284.38s-62.3-500.68,170.54-447.21c189.79,43.58,113.84,447.21,113.84,447.21Z"/></g><path class="cls-5" d="m4024.41,3007.54c-172.94,19.14-114.07,447.21-114.07,447.21h284.38"/><path class="cls-5" d="m3516.01,3114.79c-69.14,197.49,263.61,522.82,263.61,522.82"/><path class="cls-5" d="m3860.48,3123.62c-258.75,158.4-289.05,23.18-275.59-8.22"/><path class="cls-5" d="m3320.49,3290.34s37.6-281.88,37.6-281.88"/><line class="cls-5" x1="3365.05" y1="3209.19" x2="3407.12" y2="3008.01"/><path class="cls-5" d="m4200.92,3421.88c.09-.5-300.24-26.52-300.24-26.52"/></g></g><polyline class="cls-5" points="4000.73 3682.73 3942.47 3652.64 3964.19 3694.03"/></g><g><g><path class="cls-1" d="m3623.83,3846.9c-91.55,43.02-140.44,19.36-192.28-36.89-51.84-56.26-56.26-79.42-49.64-79.42s129.67,19.59,184.73,31.3c55.06,11.72,57.19,85.01,57.19,85.01Z"/><path class="cls-1" d="m3477.6,3761.89c-.16.97-.39,1.95-.7,2.92l-33.06,103.62c-1.82,5.71-5.92,10.05-10.98,12.35-4.44,2.02-9.6,2.46-14.61.86-10.71-3.42-16.62-14.87-13.2-25.58,0,0,21.89-68.6,30.04-94.17h42.51Z"/><path class="cls-1" d="m3343.8,3866.34c-5.38,0-10.75-2.12-14.75-6.32-7.75-8.14-7.44-21.03.7-28.78l83.86-79.84c5.13-4.89,12.43-6.75,19.28-4.93l59.53,15.87c10.86,2.89,17.32,14.05,14.43,24.91-2.9,10.86-14.05,17.32-24.91,14.43l-48.51-12.93-75.6,71.98c-3.94,3.75-8.99,5.61-14.03,5.61Z"/><path class="cls-1" d="m3307.84,3844.94c-5.38,0-10.75-2.12-14.75-6.32-7.75-8.14-7.44-21.03.7-28.78l83.86-79.84c5.13-4.89,12.43-6.75,19.28-4.93l59.53,15.87c10.86,2.89,17.32,14.05,14.43,24.91-2.9,10.86-14.04,17.32-24.91,14.43l-48.51-12.93-75.6,71.98c-3.94,3.75-8.99,5.61-14.03,5.61Z"/><line class="cls-5" x1="3374.41" y1="3844.94" x2="3433.44" y2="3788.75"/><line class="cls-5" x1="3329.76" y1="3831.24" x2="3394.6" y2="3762.89"/></g><ellipse class="cls-11" cx="3691.15" cy="2780.8" rx="54.47" ry="83.17"/><path class="cls-10" d="m3436.38,2589.47c172.08-63.18,256.16,135.18,256.16,135.18,0,0,37.22-1.41,37.34-4.93s-111.71-234.67-293.5-130.25Z"/><path class="cls-7" d="m3693.24,2659.85c-27.04-35.55-68.35-76.54-121.59-91.55"/><path class="cls-7" d="m3436.38,2589.47c172.08-63.18,256.16,135.18,256.16,135.18,0,0,28.7-2.08,28.82-5.61"/><ellipse class="cls-17" cx="3717.62" cy="2780.8" rx="46.25" ry="70.62"/><path class="cls-11" d="m3677.19,2746.47c7.9-21.64,23.05-36.28,40.43-36.28,6.39,0,12.47,1.98,18,5.55"/><path class="cls-5" d="m3727.72,2777.7c-7.79,159.24-73.13,188.66-73.13,188.66"/><circle class="cls-17" cx="3654.59" cy="2966.36" r="17.79" transform="translate(-243.53 5604.53) rotate(-73.15)"/><g><path class="cls-1" d="m3204.87,2194.49c-8.99.99-15.75,8.66-15.62,17.7l2.22,146.13c-10.39,2.95-34.58,9.85-57.95,16.51l-2.21-3.76c-5.38-9.12-16.54-13.03-26.43-9.27-10.14,3.85-15.8,14.56-13.46,25.03-6.67,1.9-11.31,3.22-12.71,3.61-10.25,2.86-16.23,13.49-13.37,23.74,2.71,9.69,12.37,15.56,22.08,13.74-6.88,4.47-10.38,13.03-8.05,21.34,2.86,10.25,13.5,16.23,23.74,13.37.71-.2,1.85-.53,3.35-.97-8.69,3.77-13.5,13.45-10.88,22.84,2.86,10.25,13.49,16.23,23.74,13.37.62-.17,1.51-.42,2.6-.73l17.31,62.48c.74,2.67,1.75,5.17,2.97,7.52,7.3,20.74,30.67,45.66,57.51,42.7,42.19-4.65,52.78-31.22,51.81-47.22l-27.26-352.22c-.86-9.81-9.61-16.99-19.39-15.91Z"/><path class="cls-5" d="m3155.06,2588.87c-5.86-6.86-10.32-14.55-12.85-21.73-1.22-2.34-2.23-4.85-2.97-7.52l-17.31-62.48c-1.09.3-1.98.55-2.6.73-10.25,2.86-20.88-3.12-23.74-13.37-2.62-9.38,2.19-19.07,10.88-22.84-1.5.44-2.64.77-3.35.97-10.25,2.86-20.88-3.12-23.74-13.37-2.32-8.31,1.18-16.88,8.05-21.34-9.71,1.82-19.37-4.05-22.08-13.74-2.86-10.25,3.12-20.88,13.37-23.74,1.4-.39,6.04-1.71,12.71-3.61-2.34-10.48,3.32-21.18,13.46-25.03,9.89-3.76,21.06.16,26.43,9.27l2.21,3.76c23.36-6.66,47.56-13.56,57.95-16.51l-2.22-146.13c-.14-9.05,6.63-16.71,15.62-17.7,9.78-1.08,18.54,6.1,19.39,15.91l23.92,336.19-.02,107.97"/><path class="cls-5" d="m3173.99,2442.61c4.48-1.25,8.95-2.51,13.43-3.76"/><path class="cls-5" d="m3104.65,2462.01c1.8-.77,3.64-1.44,5.5-2.03"/><path class="cls-5" d="m3155.06,2408.75c8.1-2.31,16.21-4.62,24.31-6.92"/><path class="cls-5" d="m3087.42,2427.92c3.6-1.03,10.63-2.93,14.23-3.96"/><path class="cls-5" d="m3191.48,2358.32l2.93,96.56-10.32,5.7-52.77-89.5c-5.38-9.12-16.54-13.03-26.43-9.27h0c-10.49,3.99-16.21,15.3-13.22,26.11l29.46,106.33"/></g></g></g><g><path class="cls-3" d="m3823.53,3889.78c20.04-3.1,29.73-17.46,35.22-36.13h-987.56c5.49,18.67,13.86,33.03,33.59,36.13h918.76Z"/><path class="cls-3" d="m2869.3,3854.38h566.83c30.5,0,45.6-23.56,33.72-52.63l-180.87-442.65c-6.53-15.98-25.41-28.93-42.17-28.93h-616.58c-16.76,0-25.06,12.95-18.53,28.93l180.87,442.65c11.88,29.07,46.23,52.63,76.73,52.63Z"/></g><line class="cls-5" x1="2810.29" y1="3889.78" x2="4082.96" y2="3889.78"/></g><g><ellipse class="cls-2" cx="4082.96" cy="2147.99" rx="267.72" ry="259.68"/><ellipse class="cls-9" cx="4082.96" cy="2147.99" rx="242.9" ry="235.61"/><path class="cls-6" d="m4325.86,2147.99c0,130.12-108.75,235.61-242.9,235.61"/><polyline class="cls-6" points="3979.38 2014.25 4082.96 2147.99 4285.68 2068.18"/><line class="cls-6" x1="4040.17" y1="2247.94" x2="4117.65" y2="2247.94"/><line class="cls-6" x1="4053.72" y1="2269.06" x2="4104.1" y2="2269.06"/></g><path class="cls-5" d="m4212.69,2909.88v922.34c0,125.79-101.98,227.78-227.78,227.78h-835.79c-35.29,0-68.7-8.03-98.52-22.35-59.67-28.67-104.92-82.57-121.92-147.87"/></g><line class="cls-5" x1="1192.79" y1="3980.63" x2="2823.08" y2="3980.63"/></g><polyline class="cls-5" points="2240.61 3812.36 2188.51 3580.61 2658.19 3580.61"/><line class="cls-5" x1="2601.2" y1="3834.08" x2="2568.22" y2="3980.79"/></g></svg>