<?xml version="1.0" encoding="UTF-8"?><svg id="Layer_2" xmlns="http://www.w3.org/2000/svg" viewBox="0 0 4497.5 4184.31"><defs><style>.cls-1,.cls-2{fill:#fff;}.cls-3{fill:#e17847;}.cls-4{fill:#0a74be;}.cls-5,.cls-6,.cls-7,.cls-8,.cls-9,.cls-2,.cls-10{stroke-linecap:round;stroke-linejoin:round;stroke-width:10px;}.cls-5,.cls-7,.cls-9,.cls-11{fill:none;}.cls-5,.cls-8,.cls-2{stroke:#2e2e2e;}.cls-6,.cls-9,.cls-10{stroke:#c1c7d7;}.cls-6,.cls-12{fill:#2e2e2e;}.cls-7{stroke:#fff;}.cls-13,.cls-8{fill:#c1c7d7;}.cls-14,.cls-10{fill:#203058;}</style></defs><g id="Layer_1-2"><path class="cls-13" d="m3966.35,546.43c681.65,722.32,623.3,2077.48-302.11,2950.78-925.41,873.31-2182.99,895.33-2864.64,173.01C117.96,2947.9-542.77,1816.72,692.39,756.82,1658.02-71.79,3284.7-175.89,3966.35,546.43Z"/><g><path class="cls-7" d="m63.44,5c85.12,1410.71,983.87,2203.44,1138.28,2898.58,78.5,353.38-187.03,805.09-373.54,1055.65"/><path class="cls-7" d="m371.42,7.99c-109.15,968.02-245.33,1886.21-26.41,2535.14,143.79,426.2,481.64,1012.91,701.08,1416.1"/><path class="cls-7" d="m556.02,7.99c551.89,1112.24,704.63,3283.87,773.89,3672.41,17.67,99.14,56.08,193.4,103.49,278.83"/><path class="cls-7" d="m1340.85,7.99c-371.76,1237.95,846.5,3027.11,583.68,3951.24"/><path class="cls-7" d="m1707.84,7.99c680.04,1520.82,738.26,2294.53,386.7,3951.24"/><path class="cls-7" d="m827.9,7.99c1555.49,1856.97,1408.05,2927.46,851.85,3954.85"/></g><g><path class="cls-7" d="m2487.39,5c85.12,1410.71,983.87,2203.44,1138.28,2898.58,78.5,353.38-187.03,805.09-373.54,1055.65"/><path class="cls-7" d="m2795.36,7.99c-109.15,968.02-245.33,1886.21-26.41,2535.14,143.79,426.2,481.64,1012.91,701.08,1416.1"/><path class="cls-7" d="m2979.96,7.99c551.89,1112.24,704.63,3283.87,773.89,3672.41,17.67,99.14,56.08,193.4,103.49,278.83"/><path class="cls-7" d="m3764.79,7.99c-371.76,1237.95,846.5,3027.11,583.68,3951.24"/><path class="cls-7" d="m3251.84,7.99c1555.49,1856.97,1408.05,2927.46,851.85,3954.85"/></g><rect class="cls-1" x="339.29" y="3956.77" width="3533.56" height="225"/><g><g><path class="cls-5" d="m3269.69,3956.77c169.72-1558.53,392.56-3604.76,392.56-3604.76H1309.55s-222.83,2046.24-392.56,3604.77"/><path class="cls-2" d="m3404.94,3956.77c91.17-837.16,391.38-3593.97,391.38-3593.97,6.94-63.71-42.97-119.35-107.05-119.35H1309.25c-54.96,0-101.1,41.39-107.05,96.03,0,0-305.94,2809.4-393.92,3617.29h2596.67Z"/><path class="cls-2" d="m2212.77,300.66h-903.52c-25.81,0-47.39,19.35-50.18,45.02l-157.8,1449.05"/><path class="cls-2" d="m3613.84,1510.14l125.62-1153.54c1.57-14.44-2.9-28.36-12.61-39.17-9.7-10.82-23.05-16.77-37.58-16.77h-199.59"/><line class="cls-2" x1="3449.37" y1="3020.41" x2="3513.4" y2="2432.46"/></g><g><g><g><polygon class="cls-9" points="2205.97 2765 2120.31 2765.32 2169.93 2357.46 2255.62 2357.29 2205.97 2765"/><polygon class="cls-10" points="2363.56 2764.42 2277.97 2764.74 2313.54 2459.57 2399.14 2459.33 2363.56 2764.42"/><polygon class="cls-9" points="2521 2763.83 2435.49 2764.15 2496.08 2244.91 2581.6 2244.72 2521 2763.83"/><polygon class="cls-10" points="2678.29 2763.24 2592.86 2763.56 2643.34 2331.43 2728.79 2331.22 2678.29 2763.24"/><polygon class="cls-6" points="2835.43 2762.66 2750.09 2762.98 2816.19 2197.77 2901.56 2197.59 2835.43 2762.66"/><polygon class="cls-10" points="2992.44 2762.07 2907.17 2762.39 2975.95 2197.67 3061.24 2197.52 2992.44 2762.07"/><polygon class="cls-9" points="3149.29 2761.49 3064.1 2761.81 3109.48 2374.65 3194.68 2374.43 3149.29 2761.49"/><line class="cls-9" x1="1570.26" y1="2767.37" x2="3263.1" y2="2759.49"/></g><polyline class="cls-9" points="2243.17 2297.63 2218.85 2245.84 2182.37 2297.75"/><polyline class="cls-9" points="2522.52 2124.3 2546.86 2176.08 2583.31 2124.19"/></g><g><path class="cls-9" d="m2440.88,1006.15c-42.19-19.7-90.02-30.72-141.67-30.86-7.16-.02-14.3.19-21.41.58-192.46,10.62-362.86,170.18-385.65,365.87-23.62,202.86,120.36,367.36,321.37,367.49,96.84.06,189.25-38.05,261.63-100.21,77.7-66.73,132.35-161.2,144.62-266.02,17.61-150.44-57.02-279.95-178.89-336.85Z"/><g><path class="cls-12" d="m2404.86,968.44c-42.19-19.7-90.02-30.72-141.67-30.86-7.16-.02-14.3.19-21.41.58l-21.45,366.5,184.53-336.22Z"/><path class="cls-13" d="m2241.78,938.16c-192.46,10.62-362.86,170.18-385.65,365.87-23.62,202.86,120.36,367.36,321.37,367.49,96.84.06,189.25-38.05,261.63-100.21l-218.8-266.65,21.45-366.5Z"/><path class="cls-5" d="m1989.63,1047.69c-71.81,66.05-121.86,156.49-133.49,256.34-23.62,202.86,120.36,367.36,321.37,367.49,57.06.04,112.58-13.18,163.37-36.76"/><path class="cls-14" d="m2583.75,1305.29c17.61-150.44-57.02-279.95-178.89-336.85l-184.53,336.22,218.8,266.65c77.7-66.73,132.35-161.2,144.62-266.02Z"/><path class="cls-5" d="m2583.83,1219.73c-13.5-112.8-80.96-205.52-178.97-251.29-42.19-19.7-90.02-30.72-141.67-30.86-7.16-.02-14.3.19-21.41.58"/></g><polyline class="cls-9" points="1287.01 1509.76 1625.28 1510.14 1845.38 1431.98"/><polyline class="cls-9" points="2377.19 937.58 2748.52 714.82 3426.02 717.18"/><line class="cls-9" x1="2762.2" y1="1511.43" x2="3332.46" y2="1512.07"/><line class="cls-9" x1="1390.54" y1="617.31" x2="1905.79" y2="619.24"/><line class="cls-9" x1="2926.26" y1="623.07" x2="3436.87" y2="624.99"/><line class="cls-9" x1="2850.48" y1="1269.32" x2="3360.92" y2="1270.26"/><line class="cls-9" x1="2841.85" y1="1342.87" x2="3352.28" y2="1343.7"/><line class="cls-9" x1="2833.23" y1="1416.42" x2="3260.43" y2="1417.02"/><line class="cls-9" x1="1382.86" y1="683.56" x2="1898.09" y2="685.39"/><line class="cls-9" x1="1375.17" y1="749.8" x2="1890.39" y2="751.54"/><line class="cls-9" x1="1367.49" y1="816.04" x2="1882.69" y2="817.67"/><path class="cls-9" d="m1359.8,882.27c122.84,1.39,247.41-.02,373.42,1.11"/></g><line class="cls-9" x1="1298.49" y1="1417.06" x2="1595.27" y2="1416.42"/></g><g><g><path class="cls-2" d="m2761.26,1506.93c-43.77-64.74-129.94-160.99-142.65-207.84-14.61-53.89-46.05-8.13-42.01,28.12,4.04,36.25,43.58,70.72,35.21,96.71-6.56,20.35-17.96,18.15-76.86,4.75-58.9-13.4-196.8-56.33-216.23-34.75-13.37,14.84.45,26.72.45,26.72,0,0-34.8-2.34-33.05,20.24,1.75,22.58,38.22,26.38,38.22,26.38,0,0-24.89,25.72,8.28,32.78,11.18,2.38,12.75,2.33,33.58,5.79,39.07,30.54,104.75,107.72,141.96,110.32,35.5,2.48,120.88,9.57,171.71,8.75,83.85-1.36,111.61-73.26,81.39-117.97Z"/><path class="cls-5" d="m2319.17,1420.62c67.5-.67,192.22,39.52,192.22,39.52"/><path class="cls-5" d="m2324.34,1467.25c72.61-3.43,185.12,39.13,185.12,39.13"/><path class="cls-5" d="m2366.2,1505.83c-9.99-14.24,10.42-33.58,35.76-15.44,26.6,19.05,100.71,66.11,100.71,66.11"/></g><path class="cls-12" d="m4131.38,1279.13c4.59-27.3-30.01-48.95-27.16-76.48,3.08-29.81,47.57-43.98,46.59-73.94-.96-29.34-43.66-39.28-53.45-66.95-11.24-31.81,27.07-64.33,18.76-97.03-9.4-36.97-67.26-39.73-82.84-74.55-9.99-22.34.6-52.28-15.78-70.46-17.56-19.5-51.68-9.49-73.42-24.17-20.81-14.05-23.7-46.14-45.22-59.08-32.43-19.49-81.46,18.36-109.41-7.14-11.82-10.78-14.3-29.46-26.88-39.35-16.79-13.19-41.63-3.95-58.94,8.54-17.32,12.5-34.59,28.66-55.95,28.67-31.44.01-55.32-35.36-86.69-33.16-19.8,1.39-35.27,17.66-45.75,34.52-10.48,16.86-18.5,35.83-33.31,49.06-15.54,13.87-36.46,19.56-55.49,28.02-19.03,8.46-38.25,22.22-42.28,42.66-4.46,22.62,11.22,46.36,4.22,68.32-11.54,36.22-73.83,38.93-79.28,76.56-3.87,26.74,26.31,50.86,19.43,76.99-8.18,31.05-59.86,33.49-67.28,64.73-5.37,22.6,16.98,42.69,19.05,65.82,1.58,17.66-8.75,33.83-16.09,49.97-7.34,16.14-11.15,37.17,1.08,50.01,9.54,10.01,25.75,11.35,35.1,21.52,20.91,22.75-9.6,63.83,8.14,89.12,12.95,18.47,41.09,14.51,61.94,23.13,36.2,14.96,20.27,63.43,43.64,101.74,23.38,38.31,88.61-3.5,128.47,7.77,11.84,3.35,15.07,32.78,27.36,32.06,20.28-1.19,113.57,58.44,234.75-22.51,25.38-16.96,35.62-45.5,56.92-67.37,16.7-17.15,43.14-20.43,66.97-18.18,23.83,2.26,47.35,9,71.26,7.93,23.91-1.07,49.69-12.51,58.01-34.95,11.9-32.12-16.26-71.42,1.58-100.66,16.93-27.74,66.56-29.12,71.95-61.17Z"/><g><polygon class="cls-1" points="2806.39 1548.88 2880.84 1645.95 2780.79 1734.37 2638.86 1641.62 2806.39 1548.88"/><path class="cls-14" d="m3553.88,1522.19c-70.04-76.88-192.05-69.63-240.54,73.21-58.49,172.29-125.87,321.31-125.87,321.31l-362.2-361.5-130.85,172.82s253.39,330.17,408.34,485.13c148.67,148.67,381.37-212.67,479.65-431.14,44.27-98.41,14.87-212.18-28.54-259.82Z"/><polygon class="cls-14" points="3407.32 1794.8 3261.72 2375.29 3183.64 2922.99 3513.35 2922.99 3407.32 1794.8"/><path class="cls-8" d="m3934.1,3956.77c50.7-433.42,91.39-856.01,79.55-1014.69-14.98-200.79-53-396.92-103.55-528.19l-590.41,60.68c-79.17,260.2-95.33,274.35-318.61,1482.15,0,0,408.67.06,408.67.06,107.93-379.74,177.14-693.38,177.14-693.38,0,0-9.12,321.77-19.65,693.38h366.86Z"/><line class="cls-5" x1="3580.53" y1="2721.64" x2="3588.52" y2="3258.51"/><g><path class="cls-1" d="m3319.69,2474.57s569.99-12.15,556.36,1.48c-13.63,13.63,137.6-853.07,137.6-853.07,0,0-561.43-77.78-560.74-76.04.68,1.73-133.22,927.63-133.22,927.63Z"/><polyline class="cls-5" points="3767.34 2469.76 3319.69 2474.57 3648.75 2435.26"/></g><line class="cls-5" x1="3335.91" y1="2531.07" x2="3910.1" y2="2531.07"/><path class="cls-14" d="m3400.43,1644.82c173.2-222.41,412.74-250.88,445.03-104.55,32.29,146.32,175.77-65.09,117.59-88.25-147.65-58.78-325.97-60.49-538.38,21.59-129.77,50.14-24.24,171.22-24.24,171.22Z"/><path class="cls-1" d="m3806.5,1410.1c248.05,24.64-93.31,280.75-247.16,266.22-113.57-10.72-118.55-185.92,17.63-254.89,48.31-24.46,174.03-16.85,229.53-11.34Z"/><path class="cls-5" d="m3867.26,1519.77c-63.95,78.51-218.23,165.03-307.92,156.56-90.78-8.57-112.18-122.24-47.56-202.73"/><g><path class="cls-14" d="m3598.75,1411.9c-283.34,94.47-298.48,686.74-319.52,821.75l-95.59,689.34s267.7-1393.8,415.11-1511.08Z"/><path class="cls-5" d="m3343.78,2027.36c1.97-97.25,37.02-318.85,37.02-318.85l54.54-18.69-45.78-27.77,52.94-115.16"/></g><path class="cls-14" d="m4054.95,1496.43c-67.34-54.19-156.46-84.45-231.29-88.23,0,0-98.29,87.19-105.69,389.73-6.88,280.98,118.24,1168.28,118.24,1168.28h213.71l-112.8-544.41s198.02-860.83,117.84-925.36Z"/><path class="cls-5" d="m3875.55,1419.87s-61.73,78.49-24.11,270.57c-8.64-2.68-78.42,10.74-78.42,10.74l66.34,71.13s-85.13,205.33-75.73,301.95"/><g><path class="cls-1" d="m3519.77,1171.57l68.88,308.05c21.48,88.41,220.66,36.72,200.91-55.44-19.75-92.16-93.39-435.74-93.39-435.74,0,0-206.96-65.99-176.39,183.13Z"/><path class="cls-1" d="m3653.62,802.82c348.53,102.57,62.91,570.54-191.91,538.13-40.13-5.1-82.02-184.57-45.39-318.54,37.24-136.2,83.81-264.77,237.31-219.59Z"/><path class="cls-5" d="m3651.39,1282.66c-57.9,42.34-124.79,66.54-189.68,58.28-40.13-5.1-82.02-184.57-45.39-318.54,37.24-136.2,83.81-264.77,237.31-219.59"/><path class="cls-12" d="m3546.84,1080.45c21.25-10.76,25.5,29.2,3.13,31.47-22.36,2.27-11.98-26.99-3.13-31.47Z"/><path class="cls-12" d="m3438.62,1053.2c21.25-10.76,25.5,29.2,3.13,31.47-22.36,2.27-11.98-26.99-3.13-31.47Z"/><path class="cls-5" d="m3409.46,1011.96c38.39-9.76,71.94,13.67,71.94,13.67"/><path class="cls-5" d="m3539.64,1034.42c31.11-1.51,61.86,13.2,79.66,39.73"/><path class="cls-5" d="m3481.82,1057.66c-22.14,69.98-39.31,105.3-39.31,105.3,0,0-.87,15.79,21.26,22.79"/></g><path class="cls-5" d="m4049.91,2966.21h-213.71s-73.08-477.31-73.08-552.32"/><line class="cls-5" x1="3319.69" y1="1935.08" x2="3183.64" y2="2922.99"/><g><polygon class="cls-1" points="4009.88 2525.27 4183.68 2346.95 4053.26 2264.06 3919.89 2479.31 4009.88 2525.27"/><polygon class="cls-1" points="4078.96 2509.5 4200.77 2308.49 4096.05 2239.24 3932.61 2435.26 4078.96 2509.5"/><g><path class="cls-1" d="m3948.91,2465.38c-87.68-18.45,31.56,242.16,37.98,261.52,6.43,19.35,127.47-21.18,123.46-52.03-4.01-30.85-65.71-51.33-65.71-51.33,0,0,12.01-135.49-95.74-158.16Z"/><path class="cls-5" d="m3938.66,2601.12c19.46,59.18,45.33,117.04,48.24,125.77,6.43,19.35,129.15-21.45,123.46-52.03-6.3-33.87-50.81-56.01-50.81-56.01"/><path class="cls-5" d="m4032.73,2618.85c-4.71,27.17-27.49,47.01-27.49,47.01,0,0,51.09-3.83,67.53,1.64-31.22-14.11-28.12-43.96-28.12-43.96"/></g><line class="cls-5" x1="3932.61" y1="2435.26" x2="4085.9" y2="2515.37"/></g><path class="cls-14" d="m3938.92,2413.88l183.2,60.68,305.85-320.28c68.06-71.27,68.77-183.24,1.63-255.37l-374.65-402.48c-74.92-70.09-249.41,92.81-150.12,234.11,99.29,141.3,310.39,304.9,310.39,304.9l-276.3,378.44Z"/><path class="cls-5" d="m3910.1,1737.92c53.08,82.11,132.53,147.31,132.53,147.31"/><polyline class="cls-5" points="4269 2020.84 4215.21 2035.44 4269 2059.98"/><line class="cls-5" x1="3938.92" y1="2413.88" x2="4122.11" y2="2474.57"/><polyline class="cls-5" points="3189.21 1990.95 3187.47 1916.72 3213.29 1953.84"/><polyline class="cls-5" points="2694.43 1728.03 2825.28 1555.21 3017.49 1747.06"/><line class="cls-5" x1="2638.86" y1="1641.62" x2="2806.39" y2="1548.88"/></g><path class="cls-12" d="m3495.48,811.8c-44.56,96.45,49.79,96.53,75.17,98.52,37.14,2.91,14.29,32.34,33.66,63.96,18.12,29.59,57.49,15.31,77.44,34.29,29.63,28.18-17.93,69.45,7.29,99.91,25.22,30.46,41.77,31.91,42.38,57.91.85,35.89-39.35,46.99-38.35,82.55,1.33,47.28,83.87,45.14,94.03,84.48,10.16,39.34,108.89-42.56,102.65-169.3-6.24-126.73-55.94-338.39-146.86-379.09-178.87-80.07-247.41,26.77-247.41,26.77Z"/></g><g><g><path class="cls-13" d="m189.81,3956.77c2.81-46.77,23.55-391.97,23.55-391.97,1.31-21.85-1.39-43.59-7.97-64.16l-171.13-534.65c-22.74-71.06,30.27-143.69,104.88-143.69h373.18c86.91,0,164.46,54.55,193.84,136.35l194.62,541.99c7.38,20.57,10.94,42.31,10.48,64.16l85.31,350.12c-.29,13.55-.77,27.63-1.15,41.85H189.81Z"/><path class="cls-5" d="m193.05,3956.77c2.81-46.77,23.55-391.97,23.55-391.97,1.31-21.85-1.39-43.59-7.97-64.16l-122.62-383.11"/><path class="cls-5" d="m139.14,2822.3h373.18c86.91,0,164.46,54.55,193.84,136.35l194.62,541.99c7.38,20.57,10.94,42.31,10.48,64.16"/></g><g><path class="cls-3" d="m529.71,3956.77c-10.86-23.6-15.51-53.72-14.33-91.35,3.6-114.28,99.16-204,213.44-200.39l1088.11,39.86,11.12.33c28.98,1.01,58.08,9.6,84.24,26.44,75.66,48.71,98.68,148.39,53.05,225.11H529.71Z"/><path class="cls-3" d="m1786.28,3956.76c47.66-199.39,84.29-352.59,84.29-352.59,17.83-89.93-40.62-177.28-130.55-195.11-24.04-4.77-47.9-4.08-70.29,1.2l-11.86,2.89-983.95,219.7c-111.18,26.72-98.41,178.15-71.69,289.34,3.07,12.79,10.01,24.28,19.89,34.58,0,0,559.23,0,559.23,0,235.29-89.81,566.88-216.37,566.88-216.37l-212.7-191.02s-24.57,181.45-55.16,407.39h305.92Z"/><path class="cls-12" d="m380.11,3956.77c-102.01-202.95,155.11-586.8,155.11-586.8l523.81,69.1-26.41,103.56,561.43-116.84c-109.57,33.72-118.11,244.94-118.11,244.94,0,0-28.77,24.4-34.14,199.66-.85,27.7.58,57.97,3.34,86.39H380.11Z"/><path class="cls-5" d="m1850.98,3700.86s-28.36,110.58-65.64,255.91"/><path class="cls-5" d="m1482.45,3956.77c17.58-164.01,30.67-286.04,30.67-286.04"/></g><path class="cls-14" d="m1301.22,2579.13c130.87,303.86,288.23,668.98,288.23,668.98,0,0-38.17,101.17-54.33,100.2-16.16-.96-436.54,0-436.54,0l130.62-513.24,72.02-255.94Z"/><g><g><path class="cls-1" d="m1058.48,3512.77s-589.03-117.17-577.36-104.06c11.67,13.11,253.74-904.27,253.74-904.27,0,0,422.66-110.82,520.91,43.23,98.25,154.05-197.29,965.1-197.29,965.1Z"/><path class="cls-14" d="m1301.22,2649.03c-176.21-226.28-425.04-246.82-457.9-97.95-32.85,148.87-178.15-64.59-119.63-89.79,58.52-25.2,254.23-101.41,383.44-43.66,129.22,57.75,194.08,231.4,194.08,231.4Z"/><g><path class="cls-2" d="m954.56,2407.45c-119.78,11.9-137.43,84.44-93.44,174.08,48.7,99.23,407.42,57.93,367.69-33.85-41.83-96.63-163.66-151.21-274.25-140.22Z"/><path class="cls-1" d="m1157.8,2206.69l-40.63,301.28c-16.38,91.1-269.85,45.82-255.46-48.99,14.39-94.81,68.04-448.25,68.04-448.25,0,0,243.76-58.91,228.04,195.96Z"/></g><path class="cls-14" d="m1130.63,2434.7c337.95,143.82,184.28,530.05,170.59,652.3-13.69,122.25-215.21,445-215.21,445l-53.39,10.62c138.58-543.56,229.15-956.3,93.29-1076.75,1.71-25.65,4.72-31.16,4.72-31.16Z"/><path class="cls-14" d="m616.07,2501.6c77.22-52.12,172.25-75.58,248.99-79.21,0,0-15.3,62.29.13,94.49,32.84,68.54,61.6,141.2,45.22,274.7-33.14,270.09-301.29,894.98-301.29,894.98l-280.06-87.35,138.81-374.6s54.02-659.45,148.2-723.01Z"/></g><path class="cls-5" d="m910.42,2791.57c-14.22,224.37-301.29,894.98-301.29,894.98l-188.34-55.57"/></g><g><path class="cls-13" d="m258.14,3956.77c-8.5-84.35-21.47-213.08-21.47-213.08-6.16-61.14,31.22-118.31,89.74-137.06,134.28-43.03,378.43-108.33,573.1-88.35,77.89,7.99,130.75,83.09,112.84,159.31,0,0-42.52,180.95-65.6,279.18,0,0-99.53,0-99.53,0,23.08-98.23,65.6-279.18,65.6-279.18,17.91-76.23-34.95-151.32-112.84-159.31-194.67-19.97-438.82,45.32-573.1,88.35-58.52,18.75-95.9,75.92-89.74,137.06,0,0,12.97,128.73,21.47,213.08h99.53Z"/><path class="cls-5" d="m258.14,3956.77c-8.5-84.35-21.47-213.08-21.47-213.08"/><g><path class="cls-5" d="m158.61,3956.77c-8.5-84.35-21.47-213.08-21.47-213.08"/><path class="cls-5" d="m340.4,3573.27c135.15-36.11,311.66-70.17,459.59-55,77.89,7.99,130.75,83.09,112.84,159.31,0,0-42.52,180.95-65.6,279.18"/></g></g><line class="cls-5" x1="900.24" y1="2196.3" x2="861.72" y2="2458.99"/><path class="cls-5" d="m1311.2,2701.72c31.48,173.15-59.24,437.38-59.24,437.38"/><g><g><g><g><path class="cls-2" d="m1535.07,3172.05c-.91-13.28-12.41-23.32-25.69-22.41,0,0-80.36,6.13-138.57,10.47-39.35-6.9-107.54-17.64-154.06-21.01l-351.7,24.67-30.43,178.42,302.58-74.72c50.87,32.58,100.99,12.82,147.33-8.8l1.18,43.71c.19,7.09,3.43,13.38,8.42,17.66,4.38,3.75,10.11,5.96,16.33,5.79,13.31-.36,23.81-11.44,23.45-24.75,0,0-.96-35.5-1.87-69.22.36-.23.73-.46,1.09-.69l52.96,90.78c3.25,5.56,8.38,9.35,14.12,11.01,6.12,1.77,12.92,1.13,18.86-2.33,11.5-6.71,15.39-21.47,8.68-32.97l-52.32-89.68,137.25-10.23c7.08-.48,13.23-3.97,17.3-9.14,3.57-4.53,5.54-10.35,5.11-16.56Z"/><line class="cls-2" x1="1372.42" y1="3298.54" x2="1323.79" y2="3215.17"/><line class="cls-2" x1="1427.73" y1="3297.66" x2="1369.39" y2="3198.56"/></g><path class="cls-2" d="m1283.63,3219.04c.31,12.38.58,24.75.83,37.13"/></g><g><path class="cls-1" d="m1022.08,3369.96c-19.66-3.04-29.18-17.13-34.56-35.46h1051.06c-5.38,18.33-13.6,32.42-32.96,35.46h-983.54Z"/><path class="cls-1" d="m2023.27,3335.23h-618.77c-33.3,0-49.78-25.72-36.81-57.45l197.44-483.21c7.13-17.44,27.74-31.58,46.04-31.58h673.08c18.3,0,27.36,14.14,20.23,31.58l-197.44,483.21c-12.97,31.73-50.47,57.45-83.77,57.45Z"/><path class="cls-5" d="m1844.6,2762.98h439.64c18.3,0,27.36,14.14,20.23,31.58l-197.44,483.21c-12.97,31.73-50.47,57.45-83.77,57.45"/><path class="cls-5" d="m1800.22,3335.23h-395.72c-33.3,0-49.78-25.72-36.81-57.45l117.11-286.62"/></g></g><path class="cls-14" d="m691.2,2493.58c-213.94-69.91-360.54,580.99-387.49,845.32-26.94,264.33,708.6,32.09,708.6,32.09l-41.07-230.16-346.73,44.92s338.18-603.45,66.68-692.17Z"/><path class="cls-5" d="m432.17,2777.52c-69.51,189.38-114.67,426.05-128.46,561.38-26.94,264.33,708.6,32.09,708.6,32.09l-41.07-230.16-346.73,44.92s194.84-347.67,170.01-554.02"/><polyline class="cls-5" points="550.78 3210.42 624.51 3185.75 576.17 3248.11"/></g><g><rect class="cls-1" x="1126.74" y="3366.95" width="2893.58" height="63.13" transform="translate(5147.06 6797.03) rotate(180)"/><line class="cls-5" x1="4031.35" y1="3366.95" x2="1046.18" y2="3366.95"/><line class="cls-5" x1="4165.22" y1="3430.08" x2="1082.65" y2="3430.08"/></g><g><path class="cls-12" d="m841.45,1942.98c140.78-225.14,281.04-217.67,359.32-97.73,48.75,74.69,88.07,375.1-204.01,338-225.87-28.69-155.31-240.27-155.31-240.27Z"/><path class="cls-1" d="m1045.59,1862.23c85.21-31.8,151.34,62.66,206.39,134.07,41.45,53.77,84.18,64.86,83.74,76.23-1.03,26.46-25.95,45.4-25.95,45.4,0,0,20.95,125.23-4.5,172.67-17.72,33.02-208.97,61.38-273.23-74.57-21.79-46.1-62.06-7.99-82.73-58.06-54.44-131.84-78.47-253.24,96.29-295.75Z"/><path class="cls-5" d="m1045.59,1862.23c85.21-31.8,151.34,62.66,206.39,134.07,41.45,53.77,84.18,64.86,83.74,76.23-1.03,26.46-25.95,45.4-25.95,45.4,0,0,20.95,125.23-4.5,172.67-12.47,23.24-110.89,44.17-190.5,7.14"/></g><path class="cls-5" d="m1197.92,1975.71c-37.11,41.6-30.77,73-30.77,73"/><path class="cls-12" d="m1233.72,2022.1c11.07,35-28.05,1.97-24.61-11.4,3.43-13.37,16.88-13.08,24.61,11.4Z"/><path class="cls-5" d="m1315.21,2182.69c-29.76,18.48-59.43-5.55-59.43-5.55"/><path class="cls-12" d="m1102.1,1808.18c120.61,61.18-75.46,320.28-75.46,320.28,0,0-16.38,189.46-152.77,207.54-106.5,69.5-202.68-138.26-167.61-330.27,33.48-183.3,232-280.66,395.84-197.55Z"/><path class="cls-5" d="m1065.3,1804.42c210.99,72.94-12.78,286.63-12.78,286.63"/><g><path class="cls-1" d="m1089.87,2186.77c46.97-59.89-54.49-150.14-84.48-97.25-29.99,52.89,40.53,153.29,84.48,97.25Z"/><line class="cls-5" x1="1070.63" y1="2157.67" x2="1034.54" y2="2110.87"/><path class="cls-5" d="m1088.7,2110.86c-22.07-33.51-65.41-52.91-83.3-21.35-25.68,45.3,22.35,125.43,64.27,112.32"/></g><g><path class="cls-12" d="m703.06,2188.68c114.3-106.61-28.37-181.02-130.96-120.63-102.59,60.39-97.91,230.67-49.34,418.49,48.57,187.83-131.87,102.46-164.02,300.22-32.15,197.76,116.62,288.86,230.38,206.46,384.2-278.29-.35-697.93,113.94-804.54Z"/><path class="cls-5" d="m590.88,2076.82c-107.17,51.83-116.38,221.92-83.27,413.08,33.11,191.16-156.47,92.05-204.63,286.53"/></g><g><g><g><path class="cls-1" d="m2609.4,3229.84c152.54-1.54,457.45-4.63,457.45-4.63,37.21-.38,67.68,29.48,68.06,66.69.33,32.7-85.7,72.99-85.7,72.99l-464.69-4.87,24.88-130.19Z"/><g><path class="cls-1" d="m3263.68,3314.87c6.49,0,12.98-2.56,17.8-7.63,9.36-9.83,8.98-25.39-.85-34.75l-101.26-96.41c-6.2-5.9-14.21-9.21-23.28-5.95-28.16,7.36-75.33,54.14-75.33,54.14-13.12,3.49,2.98,16.02,16.1,12.52l58.58-15.61,91.29,86.91c4.76,4.53,10.86,6.78,16.95,6.78Z"/><path class="cls-5" d="m3263.68,3314.87c6.49,0,12.98-2.56,17.8-7.63,9.36-9.83,8.98-25.39-.85-34.75l-101.26-96.41c-6.2-5.9-14.21-9.21-23.28-5.95-28.16,7.36-75.33,54.14-75.33,54.14-13.12,3.49,2.98,16.02,16.1,12.52l58.58-15.61,91.29,86.91c4.76,4.53,10.86,6.78,16.95,6.78Z"/><path class="cls-1" d="m3310.43,3308.25c6.49,0,12.98-2.56,17.8-7.63,9.36-9.83,8.98-25.39-.85-34.75l-101.26-96.41c-6.2-5.9-14.21-9.21-23.28-5.95-28.16,7.36-75.33,54.14-75.33,54.14-13.12,3.49,2.98,16.02,16.1,12.52l58.58-15.61,91.29,86.91c4.76,4.53,10.86,6.78,16.95,6.78Z"/><path class="cls-5" d="m3202.2,3214.56l91.29,86.91c4.76,4.53,10.86,6.78,16.95,6.78,6.49,0,12.98-2.56,17.8-7.63,9.36-9.83,8.98-25.39-.85-34.75l-101.26-96.41c-6.2-5.9-14.21-9.21-23.28-5.95-7.67,2.01-16.75,4.34-25.91,10.46"/><g><path class="cls-1" d="m2953.88,3314.87c69.09,32.47,113.37,48.63,148.59,36.24,21.13-7.43,147.48-134.32,147.48-134.32,0,0,15.95-49.34,8.12-50.95-14.82-3.05-176.54,45.75-243.03,59.9-66.49,14.15-61.16,89.13-61.16,89.13Z"/><path class="cls-1" d="m3358.19,3310.48c6.49,0,12.98-2.56,17.8-7.63,9.36-9.83,8.98-25.39-.85-34.75l-101.26-96.41c-6.2-5.9-15.01-8.15-23.28-5.95l-71.89,19.16c-13.12,3.5-20.92,16.96-17.42,30.08,3.5,13.12,16.96,20.92,30.08,17.42l58.58-15.61,91.29,86.91c4.76,4.53,10.86,6.78,16.95,6.78Z"/><path class="cls-5" d="m3192.38,3192.29l58.22-26.54c8.27-2.2,17.08.05,23.28,5.95l101.26,96.41c9.83,9.36,10.21,24.92.85,34.75-4.83,5.07-11.31,7.63-17.8,7.63-6.09,0-12.19-2.25-16.95-6.78l-91.29-86.91-127.31,120.22c-27.92,24.14-81.16,27.81-81.16,27.81"/></g></g><polyline class="cls-5" points="2829.91 3227.61 3015.04 3225.74 3103.76 3203.39 3131.87 3182.07"/></g><path class="cls-1" d="m2996.96,3185.28l4.12,179.12-297.23-2.7s48.05-206.62,52.86-205.25c4.81,1.37,240.25,28.83,240.25,28.83Z"/><line class="cls-5" x1="2996.96" y1="3185.28" x2="3001.08" y2="3364.39"/></g><path class="cls-4" d="m2142.91,3956.76c-14.97-32.97-23.5-51.75-23.5-51.75,32.32-23.76,422.82-157.29,437.14-156.51,3.52.19,34.18,83.2,78.41,208.26h-492.05Z"/><polygon class="cls-2" points="1744.61 2067.67 1609.69 2546.89 1864.37 2575.18 1964.51 2322.88 1744.61 2067.67"/><path class="cls-12" d="m1707.1,3956.77c-103.13-158.27-138.24-356.32-138.24-356.32l420.77-66.23,1254.85,212.93c103.46,19.6,149.79,109.67,148.71,209.62h-1686.09Z"/><path class="cls-1" d="m1340.69,3956.77c-8.47-84.04-21.05-208.98-21.05-208.98-6.14-60.91,31.1-117.86,89.4-136.54,133.77-42.87,376.99-107.91,570.92-88.02,77.6,7.96,130.25,82.77,112.41,158.7,0,0-41.42,176.29-64.58,274.83,0,0-99.15,0-99.15,0,23.16-98.55,64.58-274.83,64.58-274.83,17.94-76.36-35.45-150.94-113.49-158.81-193.68-19.54-436.14,45.29-569.69,88.08-58.35,18.7-95.69,75.62-89.55,136.59,0,0,15.27,151.58,21.05,208.98h99.15Z"/><path class="cls-13" d="m1489.64,3956.77c-170.95-220.86-248.66-1197.71-192.84-1287.49,56.15-90.32,226.93-253.79,410.62-253.79s443.9,118.86,517.79,212.02c73.89,93.16-83.98,429.21-83.98,429.21,0,0,30.55,276.03,101.29,504.84,45.4,146.87,187.28,280.44,162.3,395.2h-915.18Z"/><path class="cls-1" d="m1293.99,3956.77c3.45-57.46,23.26-387.19,23.26-387.19,1.31-21.76-1.38-43.43-7.94-63.91l-170.47-532.62c-22.66-70.79,30.15-143.14,104.48-143.14h371.76c86.58,0,163.84,54.35,193.1,135.83l193.88,539.93c7.36,20.49,10.89,42.15,10.44,63.91,0,0-6.94,329.73-8.15,387.19h-710.35Z"/><path class="cls-5" d="m1317.25,3569.57c1.31-21.76-1.38-43.43-7.94-63.91l-170.47-532.62c-22.66-70.79,30.15-143.14,104.48-143.14"/><path class="cls-5" d="m1293.99,3956.77c3.45-57.46,23.26-387.19,23.26-387.19,1.31-21.76-1.38-43.43-7.94-63.91"/><path class="cls-5" d="m1243.32,2829.9h371.76c86.58,0,163.84,54.35,193.1,135.83l193.88,539.93c7.36,20.49,10.89,42.15,10.44,63.91,0,0-6.94,329.73-8.15,387.19"/><path class="cls-5" d="m2114.21,2550.55c-63.71-10.89-140.86,8.4-170.89,70.13"/><line class="cls-5" x1="2082.25" y1="3112.64" x2="2200.2" y2="3678.15"/><line class="cls-5" x1="1562" y1="3488.46" x2="1947.65" y2="3488.46"/><line class="cls-5" x1="1384.85" y1="3541.89" x2="1698.27" y2="3541.89"/><line class="cls-9" x1="3135.51" y1="3923.09" x2="2380.66" y2="3829.27"/><path class="cls-1" d="m2072.5,3956.77c-8.47-84.04-21.05-208.98-21.05-208.98-6.14-60.91,31.1-117.86,89.4-136.54,133.77-42.87,376.99-107.91,570.92-88.02,77.6,7.96,130.25,82.77,112.41,158.7,0,0-41.42,176.29-64.58,274.83,0,0-99.15,0-99.15,0,23.16-98.55,64.58-274.83,64.58-274.83,17.84-75.93-34.82-150.74-112.41-158.7-193.93-19.9-437.15,45.15-570.92,88.02-58.3,18.68-95.54,75.63-89.4,136.54,0,0,12.59,124.94,21.05,208.98h99.15Z"/><g><path class="cls-11" d="m2660.45,3956.77c23.16-98.55,64.58-274.83,64.58-274.83,17.84-75.94-34.82-150.74-112.41-158.71-9.26-.95-18.63-1.7-28.1-2.28-164.02,8.74-338,56.43-443.67,90.29-58.3,18.68-95.54,75.63-89.4,136.54,0,0,12.59,124.94,21.05,208.98"/><path class="cls-5" d="m2072.5,3956.77c-8.47-84.04-21.05-208.98-21.05-208.98-6.14-60.91,31.1-117.86,89.4-136.54,105.67-33.86,279.65-81.56,443.67-90.29"/><path class="cls-5" d="m1967.3,3896.66s2.92,29.01,6.06,60.11"/><path class="cls-5" d="m2759.6,3956.77c23.16-98.55,64.58-274.83,64.58-274.83,17.84-75.94-34.82-150.74-112.41-158.71-40.73-4.18-83.64-4.6-127.25-2.28,9.47.57,18.84,1.33,28.1,2.28"/></g><path class="cls-5" d="m1976.75,3658.04c21.91-33.16,61.42-45.74,74.04-49.69"/><path class="cls-13" d="m1996.7,2619.85c72.17-79.21,152.46-70.17,257.1,44.76,104.64,114.93,246.87,424.1,246.87,424.1l439.96,73.52-53.31,197.1s-407.23,5.57-507.13,5.57c-47.32,0-311.64-252.25-412.9-477.34-45.62-101.4-15.32-218.62,29.41-267.71Z"/><polyline class="cls-5" points="2512.89 3153.62 2500.68 3088.7 2476.06 3153.62"/><path class="cls-5" d="m2028.76,2982.06c51.17,82.7,154.62,203.34,154.62,203.34"/><g><path class="cls-1" d="m1695.22,2171.23c-149.61-88.65-145.62-326.29,40.53-378.99,186.15-52.69,216.68-8.39,249.64,49.18,32.96,57.58,55.52,84.96,69.28,119.9,13.58,34.5-8.78,45.78-1.65,79.73,3.06,14.58,40.06,56.59,48.23,79.73,4.32,12.23-20.98,21.73-20.98,21.73,0,0,10.11,150.91-37.35,191.46-47.46,40.55-263.62-55.33-347.69-162.75Z"/><path class="cls-5" d="m2094.74,2107.33c2.81,4.89,5.09,9.45,6.5,13.45,4.32,12.23-20.98,21.73-20.98,21.73,0,0,10.11,150.91-37.35,191.46-21.84,18.66-79.42,8.43-143.41-18.53"/><path class="cls-5" d="m1735.75,1792.24c186.15-52.69,216.68-8.39,249.64,49.18,32.96,57.58,55.52,84.96,69.28,119.9,13.58,34.5-8.78,45.78-1.65,79.73.64,3.05,2.77,7.31,5.81,12.35"/><path class="cls-12" d="m1942.99,1723.83c-73.09-22.06-139.63,31.31-141.93,39.22-2.3,7.9-159.11,6.23-218.49,118.08-59.38,111.84-40.65,254,101.89,402.84,51.29,35.38,221.37-113.06,177.29-186.43-66.11-110.03,65.47-148.3,101.61-51.94,12.33-10.03-25.88-93.29,7.92-170.49,33.8-77.2,56.42-30.03,56.42-30.03-1.21-37.4-16.94-100.8-84.71-121.25Z"/><g><path class="cls-1" d="m1937.47,2008.49c-20.78-30.82-59.4-48.46-77.1-19.85-22.11,35.74,4.62,96.88,37.9,109.42,2.48-33.61,15.22-66.38,39.2-89.57Z"/><line class="cls-5" x1="1920.78" y1="2056.75" x2="1887.7" y2="2010.3"/><path class="cls-5" d="m1860.38,1988.64c-26.43,42.73,16.94,121.76,57.85,110.66"/></g><path class="cls-5" d="m2020.06,2007.44c20.1-27.85,48.58-30.97,48.58-30.97"/><ellipse class="cls-5" cx="2089.26" cy="2050.86" rx="57.54" ry="27.88" transform="translate(-82.44 4014.22) rotate(-86.58)"/><path class="cls-5" d="m1932.74,2002.08c14.65.94,200.68,33,200.68,33"/></g><path class="cls-2" d="m1989.68,2479.19c-159.69-235.6-403.56-192.63-374.5-56.37,22.54,105.67,374.5,56.37,374.5,56.37Z"/><path class="cls-13" d="m2003.12,2489.78c-242.91-183.03-410.06-152.45-414.06-44.47-4,107.97,414.06,44.47,414.06,44.47Z"/><path class="cls-5" d="m2003.12,2489.78c-242.91-183.03-410.06-152.45-414.06-44.47"/><path class="cls-5" d="m1845.92,2439.94c-146.66-34.36-230.74-6.36-230.74-6.36"/><path class="cls-5" d="m2255.98,3598.61c70.41,170.14,174.34,269.26,165.51,358.16"/><line class="cls-5" x1="2940.64" y1="3162.23" x2="2887.32" y2="3359.32"/></g></g></g><line class="cls-5" x1="152.56" y1="3956.78" x2="4243.6" y2="3956.78"/><path class="cls-5" d="m3436.87,1229.89c40.96,26.81,91.06,0,91.06,0"/><line class="cls-5" x1="1144.05" y1="2308.67" x2="1114.36" y2="2521.62"/><path class="cls-5" d="m4039,2490.86l-23.29,24.51s26.11,15.78,29.08,85.75"/><path class="cls-5" d="m1278.91,2829.9c2.26-60.81-5.84-111.79,17.89-160.62,17.33-35.67,46.05-69.6,84.2-102.87"/><path class="cls-5" d="m1130.63,2434.7c145.15,55.97,192.68,192.05,192.68,192.05"/><path class="cls-5" d="m865.07,2422.39c-96.55,2.95-146.14,29.3-146.14,29.3"/><path class="cls-5" d="m858.66,2488.36c6.56,49.45,53.59,108.62,54.49,186.56"/><line class="cls-5" x1="3359.71" y1="2197.52" x2="3319.69" y2="2474.57"/></g></svg>