<?xml version="1.0" encoding="UTF-8"?><svg id="Layer_2" xmlns="http://www.w3.org/2000/svg" viewBox="0 0 4443.45 4061.93"><defs><style>.cls-1,.cls-2,.cls-3{fill:#fff;}.cls-4{fill:#e17847;}.cls-5,.cls-6,.cls-7{fill:none;}.cls-5,.cls-6,.cls-7,.cls-2,.cls-3,.cls-8,.cls-9{stroke-linecap:round;stroke-linejoin:round;stroke-width:10px;}.cls-5,.cls-3,.cls-8{stroke:#2e2e2e;}.cls-6,.cls-9{stroke:#fff;}.cls-10,.cls-9{fill:#c1c7d7;}.cls-7,.cls-2{stroke:#c1c7d7;}.cls-11,.cls-8{fill:#203058;}.cls-12{fill:#2e2e2e;}</style></defs><g id="Layer_1-2"><path class="cls-10" d="m1331.38,4055.5c-223.11-95.16-418.63-227.91-569.13-395.28C88.31,2910.74-515.39,1645.39,691.45,790.72,1749.24,41.61,3363.41-344.67,4037.36,404.81c673.95,749.48,449.33,2051.51-236.17,3001.43-288.51,399.8-641.59,649.26-641.59,649.26h-1828.21Z"/><g><rect class="cls-1" x="3023.65" y="3187.49" width="820.4" height="141.91" transform="translate(6867.71 6516.88) rotate(180)"/><line class="cls-5" x1="3873.76" y1="3187.49" x2="2984.84" y2="3187.49"/><line class="cls-5" x1="3818.7" y1="3222.44" x2="2929.78" y2="3222.44"/><line class="cls-5" x1="3847.25" y1="3261.15" x2="2958.33" y2="3261.15"/><line class="cls-5" x1="3789.02" y1="3295.27" x2="2900.1" y2="3295.27"/><g><path class="cls-10" d="m3770.39,4056.92c-46.61-233.77-78.27-392.56-78.27-392.56h207.02s21.54,158.79,53.25,392.56h-182Z"/><g><path class="cls-10" d="m728.08,3406.24h3326.03v-76.85H728.08v76.85Z"/><path class="cls-10" d="m728.08,3790.41h3222.2v-384.17H728.08v384.17Z"/><path class="cls-5" d="m4015.06,3329.4H728.07"/><path class="cls-5" d="m4013.01,3406.24H728.07"/></g><path class="cls-5" d="m3998.73,3790.41H728.08"/><path class="cls-5" d="m3916.24,3790.41s14.12,104.09,36.16,266.52"/></g></g><g><g><path class="cls-6" d="m710.84,687.98c-19.06,3.63-38.11,7.35-57.13,11.18"/><path class="cls-6" d="m1024.67,636.31c-26.3,3.81-52.49,8.35-78.8,12.06"/><path class="cls-6" d="m3032.59,626.42c-8.19-1.14-16.37-2.3-24.54-3.51"/><path class="cls-6" d="m3821.92,793.61c-21.94-9.19-44.32-17.34-67.06-24.36"/><path class="cls-6" d="m3954.93,864.56c-22.82-16.67-48.22-29.26-72.93-42.82"/><path class="cls-6" d="m4015.06,931.24c-2.82-5.09-6.02-9.97-9.46-14.66"/><path class="cls-9" d="m728.08,1113c-248.17,67.95-395.38,152.61-395.38,244.39v672.44c0-91.78,147.21-176.44,395.38-244.39v-672.44Z"/><path class="cls-9" d="m1333.39,656.31c-167.55,16.3-322.12,37.37-459.63,62.38v552.58c137.51-25.01,292.08-46.08,459.63-62.38v-552.58Z"/><path class="cls-9" d="m2299.3,215.75c211,4.15,405.67,15.41,578.84,33.12v679.73c-173.17-17.72-367.83-28.97-578.83-33.12V215.75Z"/><path class="cls-9" d="m3201.93,457.41c-144.33-18.9-302.71-33.61-471.15-43.31v600.6c168.44,9.7,326.81,24.41,471.15,43.31V457.41Z"/><path class="cls-9" d="m3832.78,1353.46c-94.13-55.16-244.23-104.84-436.17-146.12v787.24c191.94,41.27,342.04,90.95,436.17,146.12v-787.24Z"/><g><path class="cls-6" d="m705.69,1254.59c-4.74,1.08-9.49,2.15-14.24,3.2"/><path class="cls-6" d="m774.86,1014.92c-24.33,3.81-48.53,8.36-72.65,13.29"/><path class="cls-6" d="m3334.16,1008.86c-66.66-12.58-132.42-23.15-199.32-30.48"/><path class="cls-6" d="m3790.34,1126.64c-11.6-4.57-23.27-8.96-35-13.18"/><path class="cls-6" d="m3925.03,1190.84c-15.85-9.08-31.97-17.68-48.31-25.84"/><path class="cls-6" d="m747.62,1145.06c-4.95,1.05-9.92,1.99-14.91,2.86"/><path class="cls-6" d="m3801.19,1258.02c-87.9-34-187.35-64.17-262-82.97"/><path class="cls-6" d="m1119.17,483.48c-58.07,6.46-116.15,13.35-173.87,22.46"/><path class="cls-6" d="m3962.45,735.8c-16.15-13.68-33.81-25.49-52.15-36.02"/><path class="cls-6" d="m4021.73,815.16c-.73-2.6-1.56-5.18-2.46-7.73"/></g></g><g><g><path class="cls-6" d="m3738.96,2002.88c14.64,5.7,28.64,11.48,41.98,17.33"/><path class="cls-6" d="m3738.96,1915.43c14.64,5.7,28.64,11.48,41.98,17.33"/><path class="cls-6" d="m3738.96,1827.98c14.64,5.7,28.64,11.48,41.98,17.33"/><path class="cls-6" d="m3738.96,1740.54c14.64,5.7,28.64,11.48,41.98,17.33"/><path class="cls-6" d="m3738.96,1653.09c14.64,5.7,28.64,11.48,41.98,17.33"/><path class="cls-6" d="m3738.96,1565.64c14.64,5.7,28.64,11.48,41.98,17.33"/><path class="cls-6" d="m3738.96,1478.19c14.64,5.7,28.64,11.48,41.98,17.33"/><path class="cls-6" d="m3738.96,1390.74c14.64,5.7,28.64,11.48,41.98,17.33"/></g><g><path class="cls-6" d="m3479.68,1925.3c32.68,7.69,63.98,15.64,93.81,23.83"/><path class="cls-6" d="m3479.68,1837.85c55.67,13.1,107.32,26.95,154.55,41.47"/><path class="cls-6" d="m3479.68,1750.4c67.42,15.87,128.95,32.84,183.88,50.76"/><path class="cls-6" d="m3479.68,1662.95c32.68,7.69,63.98,15.64,93.81,23.83"/><path class="cls-6" d="m3479.68,1575.5c55.67,13.1,107.32,26.95,154.55,41.47"/><path class="cls-6" d="m3479.68,1488.05c67.42,15.87,128.95,32.84,183.88,50.76"/><path class="cls-6" d="m3479.68,1400.6c32.68,7.69,63.98,15.64,93.81,23.83"/><path class="cls-6" d="m3479.68,1313.16c55.67,13.1,107.32,26.95,154.55,41.47"/></g></g><g><g><path class="cls-9" d="m3054.24,955.1c0,11.7-10.13,20.84-21.81,19.66-11.18-1.12-22.42-2.22-33.74-3.29-14.63-1.38-29.37-2.72-44.23-4.01-10.24-.89-20.53-1.76-30.87-2.61-10.29-.85-18.21-9.41-18.21-19.7v-87.62c0-11.56,9.91-20.66,21.47-19.7,9.25.76,18.45,1.55,27.61,2.34,14.85,1.29,29.6,2.63,44.23,4.01,12.66,1.2,25.23,2.43,37.72,3.69,10.13,1.02,17.84,9.52,17.84,19.67v87.55Z"/><path class="cls-9" d="m3020.46,513.21c37.14,3.65,73.52,7.58,109.06,11.78,9.98,1.18,17.49,9.61,17.49,19.63v58.34c0,11.84-10.36,21.01-22.16,19.63-35.29-4.14-71.4-8.01-108.26-11.61-10.15-.99-17.9-9.5-17.9-19.67v-58.43c0-11.68,10.11-20.82,21.77-19.68Z"/><path class="cls-9" d="m3020.46,664.71c37.14,3.65,73.52,7.58,109.06,11.78,9.98,1.18,17.49,9.61,17.49,19.63v68.19c0,11.84-10.36,21.01-22.16,19.63-35.29-4.14-71.4-8.01-108.26-11.61-10.15-.99-17.9-9.5-17.9-19.67v-68.27c0-11.68,10.11-20.82,21.77-19.68Z"/><path class="cls-9" d="m2932.98,764.76c-35.51-2.97-71.64-5.69-108.34-8.15-10.41-.7-18.5-9.32-18.5-19.72v-68.37c0-11.44,9.73-20.5,21.18-19.73,36.92,2.49,73.26,5.24,108.97,8.25,10.27.87,18.17,9.42,18.17,19.7v68.32c0,11.57-9.91,20.66-21.48,19.69Z"/><path class="cls-9" d="m2932.98,603.42c-35.51-2.97-71.64-5.69-108.34-8.15-10.41-.7-18.5-9.32-18.5-19.72v-58.53c0-11.44,9.73-20.5,21.18-19.73,36.92,2.49,73.26,5.24,108.97,8.25,10.27.87,18.17,9.42,18.17,19.7v58.48c0,11.57-9.91,20.66-21.48,19.69Z"/></g><path class="cls-9" d="m2998.68,844.19v-12.19c0-16.15,13.83-28.85,29.98-27.53l14.21,1.16c16.14,1.32,29.98-11.39,29.98-27.53h0"/><path class="cls-9" d="m2966.91,841.27v-16.08c0-14.33-10.99-26.28-25.31-27.52l-36-3.13c-14.32-1.24-25.31-13.19-25.31-27.52v-2.19"/><line class="cls-9" x1="2880.3" y1="652.57" x2="2880.3" y2="599.23"/><line class="cls-9" x1="3072.84" y1="670.09" x2="3072.84" y2="616.75"/></g><g><path class="cls-9" d="m956.38,1156.74v-3.06c86.7-14.07,179.28-26.66,276.85-37.58v3.06"/><path class="cls-9" d="m956.38,1094.36v-3.06c86.7-14.07,179.28-26.66,276.85-37.58v3.06"/><path class="cls-9" d="m956.38,1031.99v-3.06c86.7-14.07,179.28-26.66,276.85-37.58v3.06"/><path class="cls-9" d="m956.38,969.61v-3.06c86.7-14.07,179.28-26.66,276.85-37.58v3.06"/><path class="cls-9" d="m956.38,907.23v-3.06c86.7-14.07,179.28-26.66,276.85-37.58v3.06"/><path class="cls-9" d="m956.38,844.86v-3.06c38.45-6.24,78.05-12.19,118.73-17.83h35.16"/></g><g><line class="cls-6" x1="378.91" y1="1461.96" x2="378.91" y2="1765.35"/><line class="cls-6" x1="421.42" y1="1427.87" x2="421.42" y2="1658.2"/><line class="cls-6" x1="463.94" y1="1402.19" x2="463.94" y2="1549.96"/><line class="cls-6" x1="506.45" y1="1380.93" x2="506.45" y2="1667.82"/><line class="cls-6" x1="548.96" y1="1362.53" x2="548.96" y2="1549.96"/><line class="cls-6" x1="591.48" y1="1346.21" x2="591.48" y2="1458.72"/><line class="cls-6" x1="633.99" y1="1331.48" x2="633.99" y2="1588.73"/></g></g><g><path class="cls-5" d="m3220.56,1056.48c33.72,3.51,67.32,7.99,100.93,12.41,32.25,4.24,64.76,6.91,96.4,14.59,17.53,4.26,35.46,5.45,53.28,8.01"/><path class="cls-9" d="m2631.79,1007.57c11.81.55,23.62,1.13,35.43,1.73"/><path class="cls-9" d="m2515.24,1002.93c14.75.48,29.5,1.01,44.25,1.57"/><path class="cls-5" d="m3141,1175.55c74.18,5.27,146.31,15.84,217.57,27.6"/><path class="cls-9" d="m2710.92,1116.78c29.35,1.52,58.7,3.2,88.03,5.07"/><path class="cls-5" d="m2060.44,1104.7c6.39-.06,12.77-.12,19.16-.17"/><path class="cls-9" d="m3922.04,1528.76c10.46,4.02,20.88,8.15,31.26,12.39"/><path class="cls-9" d="m3212.08,1374.14c32.07,3.94,64.1,8.14,96.09,12.63"/><path class="cls-9" d="m3030.57,1354.47c8.88.85,17.77,1.71,26.65,2.59"/><path class="cls-9" d="m2763.59,1333.19c37.3,2.21,74.55,4.11,111.77,7.46"/><path class="cls-9" d="m2459.3,1320.14c13.76.02,27.51.16,41.27.4"/><path class="cls-9" d="m2321.21,1317.46c5.8.07,11.61.15,17.41.23"/><path class="cls-3" d="m3484.6,1355.15c-172.66-30.95-371.73-55.74-589.25-72.73l-.02-538.8c217.53,16.99,416.6,41.79,589.27,72.73v538.8Z"/><path class="cls-9" d="m3814.59,769.92c218.86,65.46,347.1,144.91,347.1,230.58v538.8c0-85.66-128.24-165.12-347.1-230.58v-538.8Z"/><path class="cls-3" d="m1033.24,1457.51c-256.34,39.8-463.97,92.34-601.05,153.08v-787.04c137.08-60.74,344.72-113.27,601.05-153.08v787.04Z"/><g><path class="cls-5" d="m881.47,1376.43c23.06-4.44,46.63-8.76,70.7-12.97"/><path class="cls-5" d="m881.47,1264c23.06-4.44,46.63-8.76,70.7-12.97"/><path class="cls-5" d="m881.47,1151.56c23.06-4.44,46.63-8.76,70.7-12.97"/><path class="cls-5" d="m881.47,1039.13c23.06-4.44,46.63-8.76,70.7-12.97"/><path class="cls-5" d="m881.47,926.69c23.06-4.44,46.63-8.76,70.7-12.97"/><path class="cls-5" d="m881.47,814.26c23.06-4.44,46.63-8.76,70.7-12.97"/></g><g><path class="cls-5" d="m530.39,1449.02c78.79-27.42,172.74-52.74,279.46-75.48"/><path class="cls-5" d="m530.39,1336.59c33.54-11.67,69.83-22.96,108.68-33.84"/><path class="cls-5" d="m530.39,1224.15c59.22-20.61,127-40.03,202.34-58.07"/><path class="cls-5" d="m530.39,1111.72c48.93-17.03,103.71-33.25,163.77-48.54"/><path class="cls-5" d="m530.39,999.28c64.23-22.35,138.53-43.31,221.62-62.61"/><path class="cls-5" d="m530.39,886.85c45.92-15.98,97-31.25,152.76-45.71"/></g><path class="cls-3" d="m3370.4,1210.52c-118.75-18.28-247.85-33.84-385.14-46.23v-255.59c137.29,12.39,266.39,27.95,385.14,46.23v255.59Z"/><path class="cls-5" d="m2985.26,996.68c137.29,12.39,266.39,27.95,385.14,46.23"/><path class="cls-5" d="m2985.26,841.38c100.06,9.03,195.76,19.74,286.28,31.97"/><path class="cls-5" d="m3153.72,1241.05c75.43,8.69,147.8,18.38,216.68,28.98"/><path class="cls-5" d="m2985.26,1055.94c137.29,12.39,266.39,27.95,385.14,46.23"/><path class="cls-5" d="m2985.26,1112.51c137.29,12.39,266.39,27.95,385.14,46.23"/><line class="cls-5" x1="3101.37" y1="920.14" x2="3101.37" y2="1177.99"/><line class="cls-5" x1="3230.63" y1="1027.93" x2="3230.63" y2="1083.32"/><line class="cls-5" x1="3230.63" y1="1146.76" x2="3230.63" y2="1188.54"/></g><g><path class="cls-4" d="m2200.06,4055.5c-29.6-130.6-59.06-260.63-86.07-379.83h662.98c19.55,122.72,40.22,252.46,60.51,379.83h-637.42Z"/><path class="cls-4" d="m2009.06,4055.5c6.49-134.86,12.24-262.59,16.99-379.84l-606.85,3.3c2.99,116.51,6.73,243.11,11.02,376.55h578.84Z"/><g><path class="cls-10" d="m2021.99,2675.64c-233.07-6.38-451.75-271.85-451.75-271.85,0,0-394.76-1123.67,0-1280.2,394.76-156.52,623.35,37.6,704.51,191.33,81.17,153.74,162.97,792.1,87.05,1088.87-75.92,296.77-339.81,271.85-339.81,271.85Z"/><path class="cls-12" d="m2865.83,4055.5c-82.62-433.57-198.23-905.21-308.14-1163.98-89.1-209.77-210.89-307.75-210.89-307.75l15-179.98h-791.56v183.9s-143.92,220.31-171.9,451.96c-10.51,87.01-6.46,515.13,2.69,1015.85,0,0,654.92,0,654.92,0,7.46-135.93,12.14-221.25,12.14-221.25,0,0,23.43,91.12,56.89,221.25h740.84Z"/></g><line class="cls-7" x1="2346.8" y1="2583.77" x2="1570.24" y2="2583.77"/><path class="cls-7" d="m2172.1,2586.13c52.02,482.53-17.94,615.27-17.94,615.27"/><path class="cls-7" d="m1528.99,4055.5c3.82-570.03,7.12-1064.11,7.12-1064.11"/><g><path class="cls-10" d="m2307.51,1381.77c-234.24-300.8-606.17-335.89-649.84-138-43.67,197.89-232.86-77.85-159.03-119.36,147.75-83.05,509.9-73.21,681.68,3.56,171.77,76.77,127.19,253.8,127.19,253.8Z"/><g><path class="cls-1" d="m1805.53,1052.84c-335.48,33.32-68.29,424.52,298.24,632.22,146.25-308.08-11.58-660.69-298.24-632.22Z"/><path class="cls-1" d="m2026.54,736.69l6.71,404.07c-3.35,123-345.51,114.05-345.51-13.42s47.18-593.91,47.18-593.91c0,0,261.43-134.84,291.62,203.26Z"/><g><path class="cls-12" d="m1636.61,396.08c76.83-170.78-70.82-281.44-211.96-234.59-141.15,46.85-180.1,256.05-170.05,498.21,10.06,242.16-187.94,90.56-279.09,323.66-91.15,233.11,258.67,473.36,425.54,419.07,76.88-25.01,236.96-142.47,171-465.81,105.47-236.78,64.56-540.54,64.56-540.54Z"/><path class="cls-5" d="m1445.29,177.12c-144.5,35.2-200.36,240.53-210.07,482.7-9.7,242.17-215.26,71.38-325.1,296.29"/></g><g><path class="cls-12" d="m1567.35,471.93c31.23-225.53,349.51-309.48,496.5-198.57,145.53,109.8,90.1,347.78-97.66,394.86-187.76,47.08-398.84-196.29-398.84-196.29Z"/><g><g><path class="cls-1" d="m1742.51,277.99c-423.56,211.78,31.16,751.72,350.64,651.52,50.31-15.78,82.16-260.93,4.34-424.38-79.11-166.17-168.44-320.41-354.98-227.14Z"/><path class="cls-5" d="m1845.83,888.12c86.72,44.69,162.74,67.92,247.31,41.39,50.31-15.78,82.16-260.93,4.34-424.38-79.11-166.17-168.44-320.41-354.98-227.14"/><path class="cls-12" d="m1910.21,576.11c-29.74-8.92-25.99,43.33,3.22,41.1,29.21-2.23,9.16-37.38-3.22-41.1Z"/><path class="cls-12" d="m2069.07,520.6c-29.74-8.92-25.99,43.33,3.22,41.1,29.21-2.23,9.16-37.38-3.22-41.1Z"/><path class="cls-5" d="m2059.99,453.55c-43.93-9.06-79.62,21.32-79.62,21.32"/><path class="cls-5" d="m1880.99,511.82c-46.1,11.17-69.34,59.78-69.34,59.78"/><path class="cls-5" d="m1949.15,535.58c54.71,78.48,89.8,115.76,89.8,115.76,0,0,7.21,19.3-17.61,36.61"/></g><g><g><g><path class="cls-5" d="m1952.3,391.61c-61.8-40.22-169.7,3.93-203.06-28.45"/><path class="cls-12" d="m2031.76,383.77c-91.23-128.5-211.89,22.56-282.51-20.6,43.16,76.51-40.73,170.73-40.73,170.73,0,0-28.93,46.28,41.53,214.38l-33.3,114.9s-135.46-94.21-200.21-233.51c-64.74-139.29-26.34-301.29,148.31-398.42,174.65-97.14,364.95,11.26,366.91,152.52Z"/></g><path class="cls-6" d="m1626.51,254.71c-103.07,65.32-100.86,157.02-100.86,157.02"/></g><g><path class="cls-1" d="m1777.65,737.83c17.79-97.99-154.74-140.48-157.15-60.96-2.41,79.52,140.5,152.65,157.15,60.96Z"/><line class="cls-5" x1="1737.62" y1="715.9" x2="1667.28" y2="683.78"/><path class="cls-5" d="m1729.95,650.71c-46-25.3-108-21.29-109.44,26.16-2.06,68.1,102.45,131.51,142.97,90.74"/></g></g></g><path class="cls-5" d="m1970.24,758.3s68.69,14.95,126.72-.76"/></g></g></g><g><path class="cls-11" d="m2061.96,1132.88c175.4-38.98,287.28,61.47,358.6,202.25,118.88,234.63,292.31,623.03,310.48,843.64,21.61,262.41-92.47,275.72-272.44,271.78-80.26-1077.59-396.64-1317.66-396.64-1317.66Z"/><path class="cls-11" d="m2041.77,1114.54c424.32,28.51,398.98,973.91,342.26,1289.25l72.29,304.51-204.25-141.2c77.35-932.95-210.3-1452.56-210.3-1452.56Z"/><path class="cls-5" d="m2458.6,1670.38c57.66,238.76,74,478.49,78.12,557.51"/><path class="cls-5" d="m2095.75,1124.41c132.08,74.02,177.53,188.6,177.53,188.6l-40.14,61,73.77,25.27s47.41,299.7,50.07,431.22"/></g><path class="cls-11" d="m1374.35,1184.48c91.07-73.29,212.17-106.28,313.38-111.38,0,0-6.49,87.58,21.18,132.87,58.89,96.37,113.28,198.55,121.19,386.27,15.99,379.79-111.09,905.39-159.91,1083.4-48.82,178.01-442.05,218.13-442.05,218.13,0,0,198.11-506.11,186.56-790.8-15.85-390.66-160.6-821.71-40.35-918.49Z"/><path class="cls-11" d="m1434.32,1176.06c-184.95-23.36-245.39,451.49-351.68,911.16-106.3,459.67,368.55,559.18,445.13,155.54,91.53-482.46,121.38-1039.56-93.45-1066.7Z"/><path class="cls-5" d="m1462.22,1182.97c184.38,87.4,118.36,427.72,81.9,647.53-36.45,219.81-149.33,845.66-149.33,845.66"/><line class="cls-7" x1="2068.09" y1="3834.25" x2="2086" y2="3540.43"/><line class="cls-7" x1="2190.04" y1="3549.4" x2="1969.4" y2="3527.87"/><path class="cls-7" d="m2132.64,3544.02s89.15,262.03,174.02,511.48"/><path class="cls-11" d="m2176.15,1911.89c401.57,13,641.35,211.55,545.99,434.71-53.98,126.33-213.73,121.42-365.17,69.91-116.09-39.49-223.42-30.97-278.35-87.12-126.59-129.4,14.96-420.18,97.53-417.5Z"/><path class="cls-5" d="m2722.14,2346.6c-50.78,118.82-195.12,121.54-338.11,78.58"/><path class="cls-5" d="m2319.04,1925.18c115.51,18.36,211.95,53.9,283.52,101.24"/><path class="cls-3" d="m1682.14,1812.42c197.47,71.12,474.18,132.99,524.61,139.55,50.43,6.56-1.29,288.45-99.57,288.45s-402.72-192.06-457.39-249.9c-54.66-57.84,32.34-178.1,32.34-178.1Z"/><path class="cls-5" d="m2201.45,1929.56c64.65,86.91-28.42,310.59-82.76,346.82"/><path class="cls-3" d="m1774.95,1022.13c-37.33,267.72-329.93,795.21-329.93,795.21,0,0,130.24,179.06,231.46,170.4,101.21-8.65,265.82-856.5,265.82-856.5l-167.34-109.11Z"/><g><path class="cls-1" d="m1807.9,1177.95c62.61,90.43,97.57,51.22,171.37,13.87,73.8-37.35,160.96-104.78,154.56-135.91-6.41-31.18-28.97-20.05-28.97-20.05,0,0,28.01-16.23,19.07-40.04-7.88-20.98-30.79-18.66-30.79-18.66,0,0,25.79-9.92,21.16-31.8-5.05-23.89-28.76-23.89-28.76-23.89,0,0,33.77-.25,33.19-32.17-.57-31.92-101.96-18.94-153.71-16.92-51.75,2.02-135.97,113.44-135.97,113.44,0,0-27.85-100.3-79.04-122.65-51.19-22.36-59.19-11.51-35.89,30.48,23.3,41.99,55.29,146.67,39.49,195.33-15.8,48.66,54.3,88.98,54.3,88.98Z"/><path class="cls-5" d="m1898.98,1230.93c23.03-6.01,47.93-22.74,80.29-39.12,73.8-37.35,160.96-104.78,154.56-135.91-6.41-31.18-28.97-20.05-28.97-20.05,0,0,28.01-16.23,19.07-40.04-7.88-20.98-30.79-18.66-30.79-18.66,0,0,25.79-9.92,21.16-31.8-5.05-23.89-28.76-23.89-28.76-23.89,0,0,33.77-.25,33.19-32.17-.57-31.92-101.96-18.94-153.71-16.92-51.75,2.02-135.97,113.44-135.97,113.44,0,0-27.85-100.3-79.04-122.65-51.19-22.36-59.19-11.51-35.89,30.48,23.3,41.99,55.29,146.67,39.49,195.33-2.89,8.91-2.91,17.54-.99,25.7,1.05,4.48,2.68,8.82,4.73,12.98"/><path class="cls-5" d="m1985.6,939.58c42.36-9.2,102.48-18.58,102.48-18.58"/><path class="cls-5" d="m2012.35,1000.25c55.06-8.66,80.78-23.1,80.78-23.1"/><path class="cls-5" d="m2023.91,1066.5c57.27-12.21,80.95-30.66,80.95-30.66"/></g><path class="cls-11" d="m1514.94,1608.02l309.17,182.6s-267.25,764.85-530.73,701.15c-436.19-105.45,221.56-883.75,221.56-883.75Z"/><path class="cls-5" d="m1183.81,1987.74c109.91-208.97,331.12-379.72,331.12-379.72l309.17,182.6s-267.25,764.85-530.73,701.15"/></g><g><g><path class="cls-9" d="m721.58,2383.12c-3.63-.91-7.25-1.82-10.87-2.75"/><path class="cls-9" d="m847.32,2410.68c-19.06-3.63-38.11-7.35-57.13-11.18"/><path class="cls-9" d="m1161.16,2462.35c-26.3-3.81-52.49-8.35-78.8-12.06"/><path class="cls-5" d="m3169.08,2472.24c-8.19,1.14-16.37,2.3-24.54,3.51"/><path class="cls-9" d="m3958.41,2305.05c-21.94,9.19-44.32,17.34-67.06,24.36"/><path class="cls-9" d="m4091.41,2234.1c-22.82,16.67-48.22,29.26-72.93,42.82"/><path class="cls-9" d="m4151.55,2167.41c-2.82,5.09-6.02,9.97-9.46,14.66"/><path class="cls-3" d="m644.33,2377.33c-248.17-67.95-395.38-152.61-395.38-244.39v-672.44c0,91.78,147.21,176.44,395.38,244.39v672.44Z"/><path class="cls-3" d="m1469.87,2442.34c-167.55-16.3-322.12-37.37-459.63-62.38v-552.58c137.51,25.01,292.08,46.08,459.63,62.38v552.58Z"/><path class="cls-3" d="m1927.02,2974.62c-206.56-9.31-400.95-25.38-577.48-47.04v-665.85c176.54,21.66,370.92,37.73,577.48,47.04v665.85Z"/><path class="cls-3" d="m3861.73,2876.29c-106.31,34.96-237.69,66.32-388.91,93v-529.69c151.22-26.68,282.6-58.04,388.91-93v529.69Z"/><path class="cls-3" d="m3338.42,2641.25c-144.33,18.9-302.71,33.61-471.15,43.31v-600.6c168.44-9.7,326.81-24.41,471.15-43.31v600.6Z"/><path class="cls-3" d="m4050.29,1054.16c-94.1,55.15-244.17,104.82-436.06,146.08V413.19c191.89-41.26,341.95-90.93,436.06-146.08v787.04Z"/><g><path class="cls-9" d="m911.35,2083.74c-24.33-3.81-48.53-8.36-72.65-13.29"/><path class="cls-9" d="m3570.3,2152.18c-66.66,12.58-132.42,23.15-199.32,30.48"/><path class="cls-9" d="m3926.82,1972.02c-11.6,4.57-23.27,8.96-35,13.18"/><path class="cls-9" d="m4061.51,1907.82c-15.85,9.08-31.97,17.68-48.31,25.84"/><path class="cls-9" d="m1255.65,2615.18c-58.07-6.46-116.15-13.35-173.87-22.46"/><path class="cls-9" d="m4098.93,2362.86c-16.15,13.68-33.81,25.49-52.15,36.02"/><path class="cls-9" d="m4158.21,2283.5c-.73,2.6-1.56,5.18-2.46,7.73"/></g><g><path class="cls-3" d="m1423.42,2699.15v150.13c25.26,2.8,50.85,5.49,76.76,8.06v-150.13c-25.91-2.57-51.5-5.26-76.76-8.06Z"/><path class="cls-3" d="m1534.01,2500.44v360.18c25.3,2.39,50.89,4.67,76.76,6.85v-360.18c-25.87-2.17-51.46-4.45-76.76-6.85Z"/><path class="cls-3" d="m1644.61,2598.84v271.4c25.34,2.01,50.93,3.92,76.76,5.72v-271.4c-25.83-1.8-51.43-3.7-76.76-5.72Z"/><path class="cls-3" d="m1755.2,2878.24c25.37,1.66,50.96,3.21,76.76,4.66v-498.81c-25.8-1.45-51.39-3-76.76-4.66v498.81Z"/></g></g><g><g><path class="cls-5" d="m3956.98,404.81c14.64-5.7,28.64-11.48,41.98-17.33"/><path class="cls-5" d="m3956.98,492.26c14.64-5.7,28.64-11.48,41.98-17.33"/><path class="cls-5" d="m3956.98,579.71c14.64-5.7,28.64-11.48,41.98-17.33"/><path class="cls-5" d="m3956.98,667.16c14.64-5.7,28.64-11.48,41.98-17.33"/><path class="cls-5" d="m3956.98,754.61c14.64-5.7,28.64-11.48,41.98-17.33"/><path class="cls-5" d="m3956.98,842.06c14.64-5.7,28.64-11.48,41.98-17.33"/><path class="cls-5" d="m3956.98,929.51c14.64-5.7,28.64-11.48,41.98-17.33"/><path class="cls-5" d="m3956.98,1016.96c14.64-5.7,28.64-11.48,41.98-17.33"/></g><g><path class="cls-5" d="m3697.7,482.4c32.68-7.69,63.98-15.64,93.81-23.83"/><path class="cls-5" d="m3697.7,569.85c55.67-13.1,107.32-26.95,154.55-41.47"/><path class="cls-5" d="m3697.7,657.3c67.42-15.87,128.95-32.84,183.88-50.76"/><path class="cls-5" d="m3697.7,744.74c32.68-7.69,63.98-15.64,93.81-23.83"/><path class="cls-5" d="m3697.7,832.19c55.67-13.1,107.32-26.95,154.55-41.47"/><path class="cls-5" d="m3697.7,919.64c67.42-15.87,128.95-32.84,183.88-50.76"/><path class="cls-5" d="m3697.7,1007.09c32.68-7.69,63.98-15.64,93.81-23.83"/><path class="cls-5" d="m3697.7,1094.54c55.67-13.1,107.32-26.95,154.55-41.47"/></g></g><g><g><path class="cls-3" d="m3190.72,2143.56c0-11.7-10.13-20.84-21.81-19.66-11.18,1.12-22.42,2.22-33.74,3.29-14.63,1.38-29.37,2.72-44.23,4.01-10.24.89-20.53,1.76-30.87,2.61-10.29.85-18.21,9.41-18.21,19.7v87.62c0,11.56,9.91,20.66,21.47,19.7,9.25-.76,18.45-1.55,27.61-2.34,14.85-1.29,29.6-2.63,44.23-4.01,12.66-1.2,25.23-2.42,37.72-3.69,10.13-1.02,17.84-9.52,17.84-19.67v-87.55Z"/><path class="cls-3" d="m3156.94,2585.45c37.14-3.65,73.52-7.58,109.06-11.78,9.98-1.18,17.49-9.61,17.49-19.63v-58.34c0-11.84-10.36-21.01-22.16-19.63-35.29,4.14-71.4,8.01-108.26,11.61-10.15.99-17.9,9.5-17.9,19.67v58.43c0,11.68,10.11,20.82,21.77,19.68Z"/><path class="cls-3" d="m3156.94,2433.95c37.14-3.65,73.52-7.58,109.06-11.78,9.98-1.18,17.49-9.61,17.49-19.63v-68.19c0-11.84-10.36-21.01-22.16-19.63-35.29,4.14-71.4,8.01-108.26,11.61-10.15.99-17.9,9.5-17.9,19.67v68.27c0,11.68,10.11,20.82,21.77,19.68Z"/><path class="cls-3" d="m3069.46,2333.9c-35.51,2.97-71.64,5.69-108.34,8.15-10.41.7-18.5,9.32-18.5,19.72v68.37c0,11.44,9.73,20.5,21.18,19.73,36.92-2.49,73.26-5.24,108.97-8.25,10.27-.86,18.17-9.42,18.17-19.7v-68.32c0-11.57-9.92-20.66-21.48-19.69Z"/><path class="cls-3" d="m3069.46,2495.24c-35.51,2.97-71.64,5.69-108.34,8.15-10.41.7-18.5,9.32-18.5,19.72v58.53c0,11.44,9.73,20.5,21.18,19.73,36.92-2.49,73.26-5.24,108.97-8.25,10.27-.86,18.17-9.42,18.17-19.7v-58.48c0-11.57-9.91-20.66-21.48-19.69Z"/></g><path class="cls-3" d="m3135.17,2254.47v12.19c0,16.15,13.83,28.85,29.98,27.53l14.21-1.16c16.14-1.32,29.98,11.39,29.98,27.53h0"/><path class="cls-3" d="m3103.39,2257.39v16.08c0,14.33-10.99,26.28-25.31,27.52l-36,3.13c-14.32,1.24-25.31,13.19-25.31,27.52v2.19"/><line class="cls-3" x1="3016.78" y1="2446.09" x2="3016.78" y2="2499.43"/><line class="cls-3" x1="3209.33" y1="2428.57" x2="3209.33" y2="2481.91"/></g><g><path class="cls-3" d="m1092.86,1941.92v3.06c86.7,14.07,179.28,26.66,276.85,37.58v-3.06"/><path class="cls-3" d="m1092.86,2004.3v3.06c86.7,14.07,179.28,26.66,276.85,37.58v-3.06"/><path class="cls-3" d="m1092.86,2066.67v3.06c86.7,14.07,179.28,26.66,276.85,37.58v-3.06"/><path class="cls-3" d="m1092.86,2129.05v3.06c86.7,14.07,179.28,26.66,276.85,37.58v-3.06"/><path class="cls-3" d="m1092.86,2191.43v3.06c86.7,14.07,179.28,26.66,276.85,37.58v-3.06"/><path class="cls-3" d="m1092.86,2253.8v3.06c38.45,6.24,78.05,12.19,118.73,17.83h35.16"/></g><g><line class="cls-5" x1="295.16" y1="2028.37" x2="295.16" y2="1724.98"/><line class="cls-5" x1="337.67" y1="2062.46" x2="337.67" y2="1832.13"/><line class="cls-5" x1="380.19" y1="2088.14" x2="380.19" y2="1940.37"/><line class="cls-5" x1="422.7" y1="2109.4" x2="422.7" y2="1822.51"/><line class="cls-5" x1="465.21" y1="2127.8" x2="465.21" y2="1940.37"/><line class="cls-5" x1="507.73" y1="2144.12" x2="507.73" y2="2031.61"/><line class="cls-5" x1="550.24" y1="2158.85" x2="550.24" y2="1901.6"/></g><g><path class="cls-5" d="m3587.07,2527.09c80.87-16.49,154.34-34.53,219.28-53.9"/><path class="cls-5" d="m3533.91,2605.09c102.06-19.21,193.54-40.79,272.44-64.31"/><path class="cls-5" d="m3533.91,2672.67c102.06-19.21,193.54-40.79,272.44-64.31"/><path class="cls-5" d="m3533.91,2740.25c102.06-19.21,193.54-40.79,272.44-64.31"/><path class="cls-5" d="m3533.91,2807.83c102.06-19.21,193.54-40.79,272.44-64.31"/><path class="cls-5" d="m3533.91,2875.4c79.19-14.91,152.02-31.24,217.54-48.8"/></g></g><path class="cls-5" d="m1707.98,871.25s-20.27,226.57-15.94,256.09"/><g><g><path class="cls-2" d="m1095.96,3205.03c-15.72,70.69-6.36,145.74-32.33,216.08-41.28,119.87-155.07,215.1-286.75,262.95,3.29-89.74,19.98-181.14,14.28-270.61-3.72-38.86-15.05-71.66-21.56-111.08-14.16-81.1-2.17-172.38,38.33-247.21,15.86-28.71,31.8-50.55,52.01-75.31,41.27-48.84,84.85-94.73,119.87-147.36,36.35-52.62,67.92-107.81,102.75-161.24,87.55,101.89,115.65,237.83,75.24,360.19-17.05,58.49-52.71,113.98-61.85,173.58Z"/><path class="cls-5" d="m979.81,2832.51c36.35-52.62,67.92-107.81,102.75-161.24,87.55,101.89,115.65,237.83,75.24,360.19-17.05,58.49-52.71,113.98-61.85,173.58"/><path class="cls-8" d="m844.83,3091.69c9.62,108.22,18.66,218.13-1.08,326.25-21.81,104.59-74.5,203.76-161.17,279.5-26.21-87.97-52.24-176.96-81.86-264.49-39.14-104.66-73.17-203.71-83.78-317.58-22.13-213.75,40.39-444.55,204.38-607.47,69.71,187.92,102.14,386.08,123.51,583.79Z"/><path class="cls-2" d="m633.65,3162.16c-.66,32.02-1.86,64.08-4.64,96.01-2.48,55.09,8.97,111.64,18.09,167.38,15.8,88.84,30.79,177.64,36.96,266.78-185.29-78.67-340.8-232.64-373.24-413.22-9.06-64.86-6.78-135.34-3.06-199.29,5.6-86.98,10.95-170.84,11.55-257.35,1.18-71.79.73-143.72,6.16-215.38,221.38,121.02,317.12,337.15,308.18,555.08Z"/><path class="cls-3" d="m307.76,3079.81c3.27-50.76,6.45-100.46,8.65-150.24,1.57-35.52,2.64-71.08,2.89-107.11,1.18-71.79.73-143.72,6.16-215.38,221.38,121.02,317.12,337.15,308.18,555.08-.66,32.02-1.86,64.08-4.64,96.01-2.48,55.09,8.97,111.64,18.09,167.38,15.8,88.84,30.79,177.64,36.96,266.78"/><polygon class="cls-2" points="546.87 4056.93 913.73 4056.93 1027.63 3550.25 432.96 3550.25 546.87 4056.93"/><path class="cls-7" d="m384.56,2758.74c84.16,372.46,14.03,599.07,175.33,791.5"/><path class="cls-7" d="m494.28,2852.65c-20.89,163.03-68.57,169.24-68.57,169.24"/><path class="cls-7" d="m333.13,3039.1c35.06,76.17,102.59,98.14,102.59,98.14"/><path class="cls-7" d="m583.26,3183.99c0,110.54-117.01,178.72-117.01,178.72"/><path class="cls-7" d="m435.72,3464.17c44.69,47.47,89.04,38.13,89.04,38.13"/><path class="cls-5" d="m702.48,2651.19c-60.78,201.46-53.08,395.01-22.69,514.71,30.39,119.7,0,384.35,0,384.35"/><path class="cls-5" d="m606.64,2705.16c-16.36,107.36,55.67,147.48,55.67,147.48"/><path class="cls-5" d="m779.63,2877.78c-28.05,90.1-117.32,135.91-117.32,135.91"/><path class="cls-5" d="m633.65,3162.16c15.07,52.7,55.75,63.08,55.75,63.08"/><path class="cls-5" d="m823.25,3233.56c-34.28,150.6-132.39,176.27-132.39,176.27"/><path class="cls-7" d="m1088.23,2783.43c-67.82,280.06-168.34,377.12-187.04,489.92-18.7,112.8-15.16,259.75-54.34,276.9"/><path class="cls-7" d="m969.91,2896.7c-26.65,85.12,31.89,140.34,31.89,140.34"/><path class="cls-7" d="m1118.59,3013.69c-63.12,185.23-199.43,197.64-199.43,197.64"/><path class="cls-7" d="m1039.11,3350.21c-18.7,103.66-167.24,152.83-167.24,152.83"/><line class="cls-7" x1="460" y1="3661.02" x2="1000.67" y2="3661.02"/><line class="cls-7" x1="466.25" y1="3698.33" x2="991.75" y2="3698.33"/></g><polyline class="cls-5" points="432.96 3550.25 1027.63 3550.25 947.92 3904.85"/><line class="cls-5" x1="729" y1="3661.02" x2="1000.67" y2="3661.02"/><line class="cls-5" x1="815.07" y1="3698.33" x2="600.09" y2="3698.33"/></g><line class="cls-5" x1="446.64" y1="4056.93" x2="4021.73" y2="4056.93"/><line class="cls-5" x1="486.95" y1="3790.41" x2="546.87" y2="4056.93"/></g></svg>