<?xml version="1.0" encoding="UTF-8"?><svg id="Layer_2" xmlns="http://www.w3.org/2000/svg" viewBox="0 0 4638.66 3968.55"><defs><style>.cls-1,.cls-2,.cls-3,.cls-4,.cls-5,.cls-6,.cls-7,.cls-8,.cls-9{stroke-linecap:round;stroke-linejoin:round;stroke-width:10px;}.cls-1,.cls-3{stroke:#fff;}.cls-1,.cls-10,.cls-8,.cls-9{fill:#203058;}.cls-11,.cls-6,.cls-7{fill:#fff;}.cls-2,.cls-3,.cls-5{fill:none;}.cls-2,.cls-7,.cls-9{stroke:#2e2e2e;}.cls-12,.cls-4{fill:#c1c7d7;}.cls-4,.cls-5,.cls-6,.cls-8{stroke:#c1c7d7;}.cls-13{fill:#2e2e2e;}</style></defs><g id="Layer_1-2"><g><rect class="cls-11" x="1009.15" y="3306.93" width="619.59" height="107.17"/><line class="cls-2" x1="986.71" y1="3306.93" x2="1658.05" y2="3306.93"/><line class="cls-2" x1="1028.29" y1="3333.33" x2="1699.63" y2="3333.33"/><line class="cls-2" x1="1006.73" y1="3362.56" x2="1678.07" y2="3362.56"/><line class="cls-2" x1="1050.71" y1="3388.33" x2="1722.05" y2="3388.33"/><g><path class="cls-12" d="m1064.78,3963.55c35.2-176.55,59.11-296.47,59.11-296.47h-156.35s-16.27,119.92-40.22,296.47h137.45Z"/><g><path class="cls-12" d="m3384.77,3472.14H850.51v-58.04h2534.26v58.04Z"/><path class="cls-12" d="m3384.77,3762.27H928.92v-290.13h2455.85v290.13Z"/><path class="cls-2" d="m915.92,3414.1h2468.86"/><path class="cls-2" d="m881.55,3472.14h2503.23"/></g><path class="cls-2" d="m892.33,3762.27h2492.44"/><path class="cls-2" d="m954.63,3762.27s-10.66,78.61-27.31,201.28"/></g></g><g><path class="cls-6" d="m5,3026.01c0-160.78,97.39-298.81,236.4-358.32,23.3,40.81,89.31,49.44,143.7,49.44,86.89,0,241.42-4.18,241.42-4.18,95.66,70.99,157.65,184.78,157.65,313.06,0,215.16-174.42,389.59-389.59,389.59S5,3241.17,5,3026.01Z"/><g><rect class="cls-12" x="188.68" y="2938.22" width="105.44" height="304.2"/><rect class="cls-13" x="342.86" y="2999.13" width="105.44" height="243.29"/><rect class="cls-10" x="497.04" y="2755.84" width="105.44" height="486.58"/><line class="cls-5" x1="106.84" y1="3242.42" x2="644.98" y2="3242.42"/></g></g><path class="cls-5" d="m2314.77,3229.11c-879.46,0-1592.4-712.94-1592.4-1592.4S1435.32,44.32,2314.77,44.32c142.98,0,281.55,18.84,413.38,54.18"/><g><path class="cls-6" d="m2637.55,469.02c2.96-40.63,10.93-81.33,24.21-121.24l97.69,13.01c4.46-11.63,9.46-23.16,15.08-34.54s11.72-22.37,18.23-32.99l-69.77-69.6c23.59-34.82,51.03-65.92,81.47-92.99l78.09,60.11c19.64-15.93,40.64-29.91,62.67-41.81l-25.61-95.11c37.24-17.99,76.59-31.34,117.08-39.73l37.56,91.06c24.73-3.97,49.89-5.65,75.18-4.96l25.38-95.22c40.63,2.96,81.33,10.93,121.24,24.21l-13.01,97.69c11.63,4.46,23.16,9.46,34.54,15.08,11.39,5.62,22.37,11.72,32.99,18.23l69.6-69.77c34.82,23.59,65.92,51.03,92.99,81.47l-60.11,78.09c15.93,19.64,29.91,40.64,41.81,62.67l95.11-25.61c17.99,37.24,31.34,76.59,39.73,117.09l-91.05,37.56c3.97,24.73,5.65,49.89,4.96,75.18l95.22,25.38c-2.96,40.63-10.93,81.33-24.21,121.24l-97.69-13.01c-4.46,11.63-9.47,23.16-15.08,34.54s-11.72,22.37-18.23,32.99l69.77,69.6c-23.59,34.82-51.03,65.92-81.47,92.99l-78.09-60.11c-19.65,15.93-40.64,29.91-62.67,41.81l25.61,95.11c-37.24,17.99-76.59,31.34-117.09,39.73l-37.56-91.05"/><path class="cls-6" d="m3213.56,657.52c32.17-15.94,59.56-42.18,76.68-76.87,41.42-83.97,6.93-185.63-77.04-227.05-83.97-41.42-185.63-6.93-227.05,77.04"/><path class="cls-6" d="m3829.27,912.34c-10.6,9.36-22.35,17.15-34.88,23.25l-3.7,67.15c-32.44,10.12-67.27,12.67-101.65,6.7l-12.42-66.13c-6.56-2.21-13.05-4.83-19.42-7.97-6.37-3.14-12.41-6.7-18.15-10.56l-60.04,30.39c-25.66-23.64-44.84-52.83-56.55-84.73l51.03-43.8c-2.78-13.66-3.75-27.72-2.77-41.82l-56.3-36.77c3.7-16.39,9.36-32.61,17.13-48.35,7.76-15.73,17.19-30.1,27.94-43.01l63.44,22.29c10.6-9.36,22.35-17.15,34.88-23.25l3.7-67.15c32.44-10.12,67.27-12.67,101.65-6.7l12.42,66.13c6.56,2.21,13.05,4.83,19.42,7.97,6.38,3.14,12.41,6.7,18.15,10.56l60.04-30.39c25.66,23.64,44.84,52.83,56.55,84.73l-51.03,43.8c2.78,13.66,3.75,27.72,2.77,41.82l56.3,36.77c-3.7,16.39-9.36,32.61-17.13,48.35-7.76,15.73-17.19,30.1-27.94,43.01l-63.44-22.29Zm-68.53-186.92c-38.79-19.13-85.74-3.2-104.88,35.59-19.13,38.79-3.2,85.74,35.59,104.88,38.79,19.13,85.74,3.2,104.88-35.59,19.13-38.79,3.2-85.74-35.59-104.88Z"/></g><g><g><path class="cls-6" d="m2431.32,3320.18c11.87,53.39,4.8,110.07,24.42,163.19,31.17,90.53,117.11,162.45,216.56,198.59-2.49-67.77-15.09-136.8-10.79-204.37,2.81-29.35,11.37-54.12,16.28-83.89,10.69-61.25,1.64-130.18-28.94-186.7-11.98-21.68-24.01-38.18-39.28-56.87-31.16-36.88-64.08-71.55-90.53-111.29-27.45-39.74-51.3-81.42-77.6-121.77-66.12,76.95-87.34,179.62-56.83,272.02,12.88,44.17,39.8,86.08,46.71,131.09Z"/><path class="cls-2" d="m2519.03,3038.84c-27.45-39.74-51.3-81.42-77.6-121.77-66.12,76.95-87.34,179.62-56.83,272.02,12.88,44.17,39.8,86.08,46.71,131.09"/><path class="cls-9" d="m2620.97,3234.58c-7.27,81.73-14.09,164.74.82,246.39,16.47,78.99,56.26,153.89,121.72,211.08,19.8-66.44,39.46-133.64,61.82-199.75,29.56-79.05,55.26-153.84,63.27-239.85,16.71-161.43-30.51-335.74-154.35-458.77-52.65,141.92-77.14,291.58-93.28,440.89Z"/><path class="cls-6" d="m2780.46,3287.81c.5,24.19,1.41,48.39,3.5,72.51,1.87,41.61-6.78,84.31-13.66,126.41-11.93,67.09-23.26,134.15-27.91,201.48,139.94-59.41,257.38-175.7,281.88-312.08,6.84-48.98,5.12-102.21,2.31-150.51-4.23-65.69-8.27-129.02-8.72-194.36-.89-54.22-.55-108.54-4.65-162.66-167.19,91.4-239.5,254.63-232.75,419.21Z"/><path class="cls-7" d="m3026.58,3225.61c-2.47-38.33-4.87-75.87-6.54-113.47-1.19-26.83-2-53.68-2.18-80.89-.89-54.22-.55-108.54-4.65-162.66-167.19,91.4-239.5,254.63-232.75,419.21.5,24.19,1.41,48.39,3.5,72.51,1.87,41.61-6.78,84.31-13.66,126.41-11.93,67.09-23.26,134.15-27.91,201.48"/><polygon class="cls-6" points="2846 3963.55 2568.94 3963.55 2482.91 3580.9 2932.02 3580.9 2846 3963.55"/><path class="cls-5" d="m2968.58,2983.13c-63.56,281.29-10.59,452.44-132.41,597.76"/><path class="cls-5" d="m2885.71,3054.05c15.78,123.13,51.79,127.81,51.79,127.81"/><path class="cls-5" d="m3007.42,3194.87c-26.48,57.52-77.48,74.12-77.48,74.12"/><path class="cls-5" d="m2818.52,3304.29c0,83.48,88.37,134.97,88.37,134.97"/><path class="cls-5" d="m2929.94,3515.89c-33.75,35.85-67.25,28.8-67.25,28.8"/><path class="cls-2" d="m2728.48,2901.91c45.9,152.15,40.08,298.32,17.13,388.72-22.95,90.4,0,290.27,0,290.27"/><path class="cls-2" d="m2800.86,2942.67c12.36,81.08-42.04,111.38-42.04,111.38"/><path class="cls-2" d="m2670.22,3073.03c21.19,68.05,88.6,102.65,88.6,102.65"/><path class="cls-2" d="m2780.46,3287.81c-11.38,39.8-42.1,47.64-42.1,47.64"/><path class="cls-2" d="m2637.27,3341.73c25.89,113.73,99.99,133.13,99.99,133.13"/><path class="cls-5" d="m2437.15,3001.78c51.22,211.51,127.14,284.81,141.26,370,14.12,85.19,11.45,196.17,41.04,209.12"/><path class="cls-5" d="m2526.51,3087.32c20.13,64.28-24.09,105.99-24.09,105.99"/><path class="cls-5" d="m2414.22,3175.68c47.67,139.89,150.62,149.26,150.62,149.26"/><path class="cls-5" d="m2474.25,3429.83c14.12,78.28,126.31,115.42,126.31,115.42"/><line class="cls-5" x1="2911.61" y1="3664.55" x2="2503.28" y2="3664.55"/><line class="cls-5" x1="2906.88" y1="3692.73" x2="2510.02" y2="3692.73"/></g><polyline class="cls-2" points="2932.02 3580.9 2482.91 3580.9 2543.12 3848.7"/><line class="cls-2" x1="2708.45" y1="3664.55" x2="2503.28" y2="3664.55"/><line class="cls-2" x1="2643.45" y1="3692.73" x2="2805.81" y2="3692.73"/></g><g><g><path class="cls-11" d="m2498.56,1751.1c-.15.05-254.8-103.32-254.8-103.32l-5.06,100.38,205.93,132.07,53.94-129.13Z"/><path class="cls-10" d="m2339.92,1853.44c86.48,60.98,388.31,257.78,504.72,237.04,230.87-41.13,615.56-110.08,615.56-110.08,0,0,41.84-162.72,17.33-268.79-31.16-134.84-652.08,125.8-652.08,125.8,0,0-262.58-77.44-413.98-130.78l-71.56,146.81Z"/><g><path class="cls-13" d="m3295.13,1603.18c137.6-109.46,25.49-184.87,35.36-251.29,15.45-103.95,89.31-72.66,86.02-194.59-3.28-121.93,68.16-276.86,219.43-282.92,133.23-5.33,260.05,42.89,280.92,209.86,21.48,171.85,61.57,119.65,109.06,221.43,46.27,99.15-7.01,239.29,120.63,261.09-92.54,266.04-732.54,170-851.42,36.43Z"/><path class="cls-2" d="m3299.59,1560.86c90.73-88.36,2.7-159.39,14.03-218.23,19.42-100.85,90.48-66.76,92.28-186.07,1.8-119.32,111.56-276.1,260-274.81"/></g><g><g><path class="cls-12" d="m4146.52,3963.55c20.51-540.21,16.01-1012.9-52.67-1124.29-135.53-219.84-782.57-43.37-782.57-43.37,0,0-164.6,540.95-355.29,1167.66,0,0,550.9,0,550.9,0,75.36-236.6,125.96-395.46,125.96-395.46,0,0-6.67,161.44-16.33,395.46h530Z"/><path class="cls-11" d="m4006.24,2623.32l142.59,283.54s-346.32,186.59-576.47,195.07l-51.34-214.36-105.31,166.3s-180.93-72.12-197.9-98.26l145.6-260.02,642.83-72.27Z"/><path class="cls-10" d="m3271.17,1766.87c.63,44.87,12.09,125.78,27.34,213.71-18.02,104.3-19.22,184.92,43.48,225.1,27.2,129.08,46.87,201.79,46.87,201.79l-91.42,392.02c2.55,153.61,809.55-2.84,809.55-2.84l-117.32-389.18s147.22-584.03,158.5-654.82c28.52-179.09-880.24-218.34-877,14.22Z"/></g><path class="cls-11" d="m3913.84,1659.02c0,46.28-341.44,201.99-414.61,279.63-66.96-128.77-58.7-242.39-34.19-279.63,25.45-38.66,100.47-83.8,224.4-83.8s224.4,37.52,224.4,83.8Z"/><path class="cls-11" d="m3795.61,1587.6c1.75-.87,9.6-37.53,1.75-59.35-7.85-21.82-293.24-20.51-284.51,27.93,8.73,48.44,100.36,94.69,193.74,82.47,93.38-12.22,89.02-51.05,89.02-51.05Z"/><g><path class="cls-11" d="m3762.36,1336.79l23.35,278.5c-2.35,86.22-242.19,79.94-242.19-9.41v-422.45s197.67-83.63,218.83,153.36Z"/><path class="cls-11" d="m3669.08,945.77c205.51,54.22,195.48,254.6,90.26,392.59-72.89,95.59-215.99,165.63-271.52,138.53-38.55-18.82-80.01-173.47-47.5-307.11,33.05-135.86,75.55-264.43,228.76-224.01Z"/><path class="cls-2" d="m3657.92,1430.13c-65.14,42.28-135.06,63.87-170.11,46.76-38.55-18.82-80.01-173.47-47.5-307.11,33.05-135.86,75.55-264.43,228.76-224.01"/><path class="cls-13" d="m3616.9,1195.39c20.73-11.25,26.06,28.19,3.98,31.06-22.07,2.88-12.61-26.38-3.98-31.06Z"/><path class="cls-13" d="m3483.51,1162.99c20.73-11.25,26.06,28.19,3.98,31.06-22.07,2.88-12.61-26.38-3.98-31.06Z"/><path class="cls-2" d="m3460.21,1124.12c27.61-13.14,67.91,0,67.91,0"/><path class="cls-2" d="m3603.99,1142.04c36.02,1.15,59.23,31.34,59.23,31.34"/><path class="cls-2" d="m3543.06,1164.39c-28.51,66.86-48.82,100.03-48.82,100.03,0,0-2.37,15.48,18.77,24.5"/><path class="cls-2" d="m3491.59,1351.43s36.4,13.6,73.07-1.11"/></g><g><g><path class="cls-2" d="m3530.69,1061.34c39.72-39.5,126.82-23.41,146.6-52.66"/><path class="cls-13" d="m3470.38,1067.84c47.91-109.73,161.08-16.1,206.92-59.16-20.23,63.6,56.78,120.66,56.78,120.66,0,0,28.69,29.93,2.38,165.88,19.9,14.71,25.88,35.79,30.6,75.66,54.86-19.68,76.33-109.84,102.86-223.48,26.54-113.64-5.36-204.79-150.32-249.93-144.96-45.14-269.67,65-249.21,170.36Z"/></g><g><path class="cls-11" d="m3714.3,1291.73c-28.43-70.12,93.28-128.49,107.41-69.72,14.13,58.77-80.81,135.33-107.41,69.72Z"/><line class="cls-2" x1="3740.67" y1="1269.21" x2="3788" y2="1234.41"/><path class="cls-2" d="m3736.26,1219.54c30.29-25.95,77.02-32.59,85.45,2.47,12.1,50.33-55.79,113.71-92.25,89.67"/></g></g><path class="cls-11" d="m3530.74,1648.66l-18.44-92.22s68.24,47.96,79.31,108.82c16.6-95.91,206.58-136.49,206.58-136.49l23.98,94.07s-94.07,129.11-204.73,105.13c-110.67-23.98-86.69-79.31-86.69-79.31Z"/><path class="cls-2" d="m3512.29,1556.44s68.24,47.96,79.31,108.82c16.6-95.91,206.58-136.49,206.58-136.49"/></g><g><path class="cls-11" d="m4051.51,2795.72c-108.03-22.73,38.88,298.37,46.8,322.22,7.92,23.85,157.06-26.1,152.12-64.11-4.94-38.01-80.96-63.24-80.96-63.24,0,0,14.79-166.94-117.96-194.87Z"/><path class="cls-2" d="m4051.51,2795.72c-108.03-22.73,38.88,298.37,46.8,322.22,7.92,23.85,157.06-26.1,152.12-64.11-4.94-38.01-80.96-63.24-80.96-63.24"/><path class="cls-2" d="m4154.78,2984.82c-5.8,33.47-33.87,57.92-33.87,57.92,0,0,62.94-4.72,83.21,2.02-38.47-17.39-34.65-54.17-34.65-54.17"/></g><path class="cls-10" d="m4598.87,2155.55l-15.04-14.55-442.29-427.92c-3.32-3.19-7.05-6.53-10.68-9.51-73.7-60.33-182.35-49.49-242.68,24.21-60.33,73.7-49.49,182.35,24.21,242.68l384.05,314.38-274.09,463.82c-17.64,29.82-12.79,68.94,13.69,93.41,30.47,28.17,78.01,26.3,106.18-4.18l461.76-499.59c48.01-52.03,46.05-133.26-5.1-182.75Z"/><path class="cls-2" d="m3284.43,1942.11c2.55,15.81,5.4,31.17,8.36,45.72,6.41,31.48-37.86,168.6,49.2,217.85,23.77,102.96,46.87,201.79,46.87,201.79l-91.42,392.02"/><path class="cls-2" d="m3980.61,1669.53c-67.17,38.01-96.77,106.75-89.97,180.84"/><path class="cls-2" d="m4398.74,2287.1c-51.13,37.87-102.29-2.25-102.29-2.25,0,0,5.72,30.65,37.91,40.12"/><path class="cls-2" d="m3299.13,2810.39c69.44,122.46,635.81,15.56,635.81,15.56"/><path class="cls-2" d="m3472.22,2442.69c-63.95-14.36-83.35-35.22-83.35-35.22"/><path class="cls-2" d="m3989.68,2407.48c-125.2,28.11-198.03,37.86-279.68,44.39"/><path class="cls-2" d="m3617.03,2215.14c-117.8,7.57-275.04-9.46-275.04-9.46"/><line class="cls-2" x1="3617.03" y1="3124.14" x2="3632.85" y2="3568.09"/><path class="cls-2" d="m3989.68,3027.25c78.78,356.83,159.15,440.24,159.15,440.24"/><path class="cls-2" d="m4079.18,3420.88s-12.26,228.29-29.15,542.68"/><path class="cls-2" d="m3537.17,3420.88c-35.64,180-77.72,362.54-123.46,542.68"/><path class="cls-2" d="m3889.68,1689.22c-164.23,102.76-369.4,219.39-390.45,249.43"/><path class="cls-2" d="m3062.73,3612.74c1.7,3.74-39.3,143.17-101.93,350.81"/><line class="cls-2" x1="2411.47" y1="1706.63" x2="2339.92" y2="1853.44"/><polyline class="cls-2" points="2844.64 1922.66 2825.45 1837.41 2806.96 1911.07"/><path class="cls-2" d="m4142.22,2837.9c-65.43,58.57-156.76-24.5-124.09-80.94l58.62-100.34"/><line class="cls-2" x1="2344.86" y1="1816.25" x2="2294.98" y2="1784.26"/><g><g><path class="cls-7" d="m2090.38,1622.09c-27.38.64-113.5,2.64-113.5,2.64-9.67.22-17.58,7.76-18.27,17.41-.75,10.5,7.28,19.55,17.79,20.06,0,0,85.07,4.84,172.7,9.83l-58.72-49.94Z"/><path class="cls-11" d="m2053.29,1469.51l288.83,218.61c13.3,10.82,34.7,53.08,7.84,89.65-21.23,28.9-72.45,22.49-87.82,6.16l-74.67-89.46c-7.65,12.14-15.47-3.3-27.99-10.86l-193.06-99.03c-8.14-5.22-10.98-15.77-6.55-24.37,4.82-9.35,16.39-12.91,25.63-7.89l33.77,18.37-37.27-23.89c-8.14-5.22-10.98-15.77-6.55-24.37,4.82-9.35,16.39-12.91,25.63-7.89l119.21,64.85-90.91-81.03c-7.22-6.43-8.36-17.3-2.64-25.1,6.23-8.48,18.21-10.18,26.55-3.76Z"/><path class="cls-2" d="m2072.96,1637.25l-106.53-52.67c-8.14-5.22-10.98-15.77-6.55-24.37,4.82-9.35,16.39-12.91,25.63-7.89l33.77,18.37-37.27-23.89c-8.14-5.22-10.98-15.77-6.55-24.37,4.82-9.35,16.39-12.91,25.63-7.89l119.21,64.85-90.91-81.03c-7.22-6.43-8.36-17.3-2.64-25.1,6.23-8.48,18.21-10.18,26.55-3.76l288.83,218.61,59.17,23.59"/><g><path class="cls-11" d="m2086.22,1674.26h0c-4.45,11.14.31,23.83,10.99,29.29l163.34,88.57c22.8,11.67,56.83-2.13,63.97-26.73h0c8.85-30.5-10.04-62.11-41.1-68.74l-170.77-36.48c-11.06-2.36-22.22,3.59-26.42,14.1Z"/><path class="cls-2" d="m2221.26,1683.37l-108.62-23.21c-11.06-2.36-22.22,3.59-26.42,14.1h0c-4.45,11.14.31,23.83,10.99,29.29l105,53.73"/></g></g><line class="cls-2" x1="2019.27" y1="1570.69" x2="2071.11" y2="1598.35"/></g></g><g><path class="cls-4" d="m3125.96,2738.15H317.19c-65.29,0-118.22-52.93-118.22-118.22V550c0-65.29,52.93-118.22,118.22-118.22h2808.78c65.29,0,118.22,52.93,118.22,118.22v2069.93c0,65.29-52.93,118.22-118.22,118.22Zm0-60c32.1,0,58.22-26.12,58.22-58.22V550c0-32.1-26.12-58.22-58.22-58.22H317.19c-32.1,0-58.22,26.12-58.22,58.22v2069.93c0,32.1,26.12,58.22,58.22,58.22h2808.78Z"/><path class="cls-12" d="m198.97,631.19v-81.19c0-65.29,52.93-118.22,118.22-118.22h2808.78c65.29,0,118.22,52.93,118.22,118.22v81.19H198.97Z"/><g><circle class="cls-3" cx="309.84" cy="533.54" r="39.98"/><circle class="cls-1" cx="454.66" cy="533.54" r="39.98"/><circle class="cls-3" cx="599.48" cy="533.54" r="39.98"/><polyline class="cls-3" points="758.89 566.01 722.67 529.79 758.89 493.56"/><polyline class="cls-3" points="855 493.56 891.22 529.79 855 566.01"/><g><rect class="cls-3" x="2872.03" y="508.83" width="79.55" height="79.55"/><polyline class="cls-3" points="2891.78 508.83 2891.78 489.08 2971.33 489.08 2971.33 568.63 2951.58 568.63"/></g><line class="cls-3" x1="3099.12" y1="539.14" x2="3176.06" y2="539.14"/><line class="cls-3" x1="3137.59" y1="500.67" x2="3137.59" y2="577.61"/></g><path class="cls-2" d="m198.97,1850.23V550c0-65.29,52.93-118.22,118.22-118.22h1850.57"/><path class="cls-2" d="m3244.18,768.15v1851.79c0,65.29-52.93,118.22-118.22,118.22h-1911.19"/><polyline class="cls-2" points="816.36 631.19 266.86 631.19 266.86 1090.7"/></g></g><g><g><rect class="cls-6" x="403.52" y="903.5" width="785" height="270" rx="135" ry="135"/><rect class="cls-8" x="403.52" y="1383.5" width="785" height="270" rx="135" ry="135"/><rect class="cls-6" x="403.52" y="1863.5" width="785" height="270" rx="135" ry="135"/><rect class="cls-6" x="2388.52" y="1363.5" width="680" height="270" rx="135" ry="135"/><rect class="cls-6" x="1413.52" y="1143.5" width="747.72" height="270" rx="131.95" ry="131.95"/><rect class="cls-6" x="1413.52" y="1623.5" width="747.72" height="270" rx="131.95" ry="131.95"/><rect class="cls-4" x="1413.52" y="2103.5" width="747.72" height="270" rx="131.95" ry="131.95"/><path class="cls-5" d="m1188.52,1038.5h0c67.81,0,122.77,54.97,122.77,122.77v722.66c0,67.81-54.97,122.77-122.77,122.77h0"/><path class="cls-5" d="m2159.23,1272.62h0c67.81,0,122.77,54.97,122.77,122.77v241.32"/><line class="cls-5" x1="1188.52" y1="1518.5" x2="1311.29" y2="1518.5"/><line class="cls-5" x1="1413.52" y1="1275.45" x2="1308.6" y2="1275.45"/><line class="cls-5" x1="1413.52" y1="1761.55" x2="1308.6" y2="1761.55"/><line class="cls-5" x1="2282" y1="1498.5" x2="2388.52" y2="1498.5"/><line class="cls-6" x1="1797.99" y1="1893.56" x2="1797.99" y2="2103.5"/><circle class="cls-12" cx="1188.52" cy="1038.5" r="27.81"/><circle class="cls-12" cx="1188.52" cy="1518.5" r="27.81" transform="translate(-725.63 1285.17) rotate(-45)"/><circle class="cls-12" cx="1797.99" cy="1893.56" r="27.81" transform="translate(-639.49 2830.05) rotate(-67.5)"/><circle class="cls-12" cx="1413.52" cy="1758.5" r="27.81" transform="translate(-366.21 371.8) rotate(-13.28)"/><circle class="cls-12" cx="1413.52" cy="1275.45" r="27.81"/><circle class="cls-12" cx="2161.24" cy="1275.45" r="27.81"/><circle class="cls-12" cx="2388.52" cy="1498.5" r="27.81" transform="translate(-360.02 2127.84) rotate(-45)"/><circle class="cls-12" cx="1797.99" cy="2103.5" r="27.81" transform="translate(-833.45 2959.65) rotate(-67.5)"/><circle class="cls-12" cx="1188.52" cy="2006.7" r="27.81"/></g><g><line class="cls-5" x1="523.44" y1="978.94" x2="1030.34" y2="978.94"/><line class="cls-5" x1="523.44" y1="1038.5" x2="1030.34" y2="1038.5"/><line class="cls-5" x1="523.44" y1="1098.06" x2="761.23" y2="1098.06"/></g><g><line class="cls-5" x1="2418.92" y1="2270.91" x2="3045.08" y2="2270.91"/><line class="cls-5" x1="2418.92" y1="2330.47" x2="3045.08" y2="2330.47"/><line class="cls-5" x1="2418.92" y1="2390.03" x2="3045.08" y2="2390.03"/></g><g><line class="cls-5" x1="2418.92" y1="2447.13" x2="3045.08" y2="2447.13"/><line class="cls-5" x1="2418.92" y1="2506.69" x2="3045.08" y2="2506.69"/><line class="cls-5" x1="2418.92" y1="2566.25" x2="2712.65" y2="2566.25"/></g><line class="cls-5" x1="2418.92" y1="844.62" x2="3045.08" y2="844.62"/><g><line class="cls-5" x1="2418.92" y1="901.72" x2="3045.08" y2="901.72"/><line class="cls-5" x1="2418.92" y1="961.28" x2="3045.08" y2="961.28"/><line class="cls-5" x1="2418.92" y1="1020.84" x2="2712.65" y2="1020.84"/></g><g><line class="cls-3" x1="523.44" y1="1458.94" x2="672.95" y2="1458.94"/><line class="cls-3" x1="523.44" y1="1518.5" x2="1030.34" y2="1518.5"/><line class="cls-3" x1="523.44" y1="1578.06" x2="949.18" y2="1578.06"/></g><g><line class="cls-5" x1="523.44" y1="1938.94" x2="714.24" y2="1938.94"/><line class="cls-5" x1="523.44" y1="1998.5" x2="1030.34" y2="1998.5"/><line class="cls-5" x1="523.44" y1="2058.06" x2="979.08" y2="2058.06"/></g><g><line class="cls-5" x1="2492.08" y1="1438.94" x2="2682.88" y2="1438.94"/><line class="cls-5" x1="2492.08" y1="1498.5" x2="2998.98" y2="1498.5"/><line class="cls-5" x1="2492.08" y1="1558.06" x2="2947.72" y2="1558.06"/></g><g><line class="cls-5" x1="1544.54" y1="1701.98" x2="1898.91" y2="1701.98"/><line class="cls-5" x1="1544.54" y1="1761.55" x2="2051.44" y2="1761.55"/><line class="cls-5" x1="1544.54" y1="1821.11" x2="2027.05" y2="1821.11"/></g><g><line class="cls-5" x1="1544.54" y1="1215.89" x2="1990.03" y2="1215.89"/><line class="cls-5" x1="1544.54" y1="1275.45" x2="2014.24" y2="1275.45"/><line class="cls-5" x1="1544.54" y1="1335.01" x2="1770.18" y2="1335.01"/></g><g><line class="cls-2" x1="1533.93" y1="2178.94" x2="1724.73" y2="2178.94"/><line class="cls-2" x1="1533.93" y1="2238.5" x2="2040.83" y2="2238.5"/><line class="cls-2" x1="1533.93" y1="2298.06" x2="1989.57" y2="2298.06"/></g></g><g><g><rect class="cls-12" x="2166.91" y="195.35" width="533.07" height="530.48" rx="106.51" ry="106.51"/><rect class="cls-6" x="2130.06" y="158.5" width="533.07" height="530.48" rx="106.51" ry="106.51"/></g><circle class="cls-10" cx="2374.73" cy="427.56" r="148.23" transform="translate(393.21 1804.42) rotate(-45)"/><path class="cls-6" d="m2374.73,509.38c-6.44,0-12.88-2.4-17.87-7.21l-82.39-79.45c-10.24-9.87-10.53-26.17-.66-36.41,9.87-10.24,26.17-10.53,36.41-.66l64.11,61.82,138.26-139.46c10.01-10.1,26.31-10.17,36.41-.16,10.1,10.01,10.17,26.31.16,36.41l-156.14,157.5c-5.03,5.07-11.66,7.62-18.29,7.62Z"/></g><g><g><polygon class="cls-6" points="650.14 2394.71 568.59 2476.26 568.59 2879.77 939.76 2879.77 939.76 2394.71 650.14 2394.71"/><polygon class="cls-6" points="650.14 2476.26 650.14 2394.71 568.59 2476.26 650.14 2476.26"/><line class="cls-6" x1="650.14" y1="2541.88" x2="856.09" y2="2541.88"/><line class="cls-6" x1="650.14" y1="2610.83" x2="856.09" y2="2610.83"/><line class="cls-6" x1="650.14" y1="2679.78" x2="856.09" y2="2679.78"/><line class="cls-6" x1="650.14" y1="2748.73" x2="856.09" y2="2748.73"/></g><g><polygon class="cls-6" points="804.6 2299.35 723.05 2380.9 723.05 2784.41 1094.22 2784.41 1094.22 2299.35 804.6 2299.35"/><polygon class="cls-6" points="804.6 2380.9 804.6 2299.35 723.05 2380.9 804.6 2380.9"/><line class="cls-6" x1="804.6" y1="2446.52" x2="1010.55" y2="2446.52"/><line class="cls-6" x1="804.6" y1="2515.47" x2="1010.55" y2="2515.47"/><line class="cls-6" x1="804.6" y1="2584.42" x2="1010.55" y2="2584.42"/><line class="cls-6" x1="804.6" y1="2653.37" x2="1010.55" y2="2653.37"/></g></g><line class="cls-2" x1="804.6" y1="3963.55" x2="4228.34" y2="3963.55"/><path class="cls-2" d="m2258.84,2678.15h862.7c34.6,0,62.65-28.05,62.65-62.65v-242"/><polyline class="cls-2" points="568.59 2566.75 568.59 2879.77 804.6 2879.77"/></g></svg>