<?xml version="1.0" encoding="UTF-8"?><svg id="Layer_2" xmlns="http://www.w3.org/2000/svg" viewBox="0 0 4440.16 4056.85"><defs><style>.cls-1,.cls-2{fill:#fff;}.cls-3,.cls-4,.cls-5,.cls-6,.cls-2,.cls-7{stroke-linecap:round;stroke-linejoin:round;}.cls-3,.cls-4,.cls-5,.cls-2,.cls-7{stroke-width:10px;}.cls-3,.cls-4,.cls-6{fill:none;}.cls-3,.cls-5,.cls-2{stroke:#2e2e2e;}.cls-4,.cls-7{stroke:#fff;}.cls-8,.cls-5,.cls-7{fill:#c1c7d7;}.cls-6{stroke:#000;stroke-width:6px;}.cls-9{fill:#203058;}.cls-10{fill:#2e2e2e;}</style></defs><g id="Layer_1-2"><path class="cls-8" d="m4156.02,665.18c588.17,800.28,233.81,2059.9-791.48,2813.44-1025.29,753.54-2145.44,699.79-2733.61-100.49C42.76,2577.86-474.63,1374.34,880.9,473.5,1940.65-230.77,3567.85-135.1,4156.02,665.18Z"/><rect class="cls-1" x="978.23" y="3935.83" width="2440.78" height="121.02"/><g><g><g><path class="cls-7" d="m3727.12,1605.54l-579.42,131.52c-28.27,6.42-45.99,34.54-39.57,62.81l107.52,473.69,192.54,121.3,473.69-107.52c28.27-6.42,45.99-34.54,39.57-62.81l-131.52-579.42c-6.42-28.27-34.54-45.99-62.81-39.57Z"/><path class="cls-4" d="m3384.18,2289.13c-6.42-28.27-34.54-45.99-62.81-39.57l-105.73,24,192.54,121.3-24-105.73Z"/></g><path class="cls-4" d="m3297.08,1957.46c12.82-8.44,27.47,7.15,41.79,12.68,17.62,6.8,37.91-3.13,50.1-17.56,12.2-14.43,18.67-32.67,27.38-49.44,3.59-6.91,9.04-14.49,16.83-14.37,4.88.07,9.1,3.27,12.83,6.42,20.52,17.34,38.21,38.02,52.17,60.98,2.05,3.37,4.21,6.97,7.75,8.7,6.94,3.39,14.97-2.09,19.81-8.11,10.57-13.18,15.38-29.95,23.45-44.8,8.07-14.84,21.78-28.9,38.67-28.79,31.88.21,46.96,47.79,78.81,49.35,29.03,1.42,43.66-34.74,68.51-49.81,17-10.31,40.02-9.67,56.43,1.55"/><path class="cls-4" d="m3419.01,2111.63c9.26-45.06,66.28-72.85,107.48-52.38,8.54,4.24,17.05,10.29,26.54,9.44,30.03-2.69,27.13-63.88,57.24-62.41,7.65.37,14.17,5.4,20.14,10.21,12.96,10.44,25.92,20.89,38.88,31.33"/></g><g><g><path class="cls-7" d="m4055.74,551.12l-590.76-181.8c-28.83-8.87-59.39,7.31-68.26,36.13l-148.63,482.96,110.76,209.23,482.96,148.63c28.83,8.87,59.39-7.31,68.26-36.13l181.8-590.76c8.87-28.83-7.31-59.39-36.13-68.26Z"/><path class="cls-4" d="m3392.02,989.84c8.87-28.83-7.31-59.39-36.13-68.26l-107.8-33.17,110.76,209.23,33.17-107.8Z"/></g><path class="cls-4" d="m3446.82,666.53c23.92-35.39,47.84-70.77,71.76-106.15,6.55,49.9,4.88,100.86-4.94,150.22"/><path class="cls-4" d="m3598.16,708.59c1.8,1.25,3.6,2.5,5.39,3.75"/><path class="cls-4" d="m3681.86,711.73c-1.29,6.02-2.59,12.05-3.88,18.07,15.52-26.86,36.17-50.75,60.5-70,10.71,13.39-4.64,32.74-2.45,49.74,2.24,17.4,23.33,27.02,40.53,23.57,17.2-3.45,31.02-15.84,43.91-27.73,1.36,11.87,2.73,23.74,4.09,35.6,18.82-6.19,37.63-12.38,56.45-18.58,5.35-1.76,10.95-3.54,16.51-2.64,18.9,3.07,19.75,29.83,15.58,48.52"/><path class="cls-4" d="m3476.48,890.4c-.25-21.82,11.79-43.37,30.5-54.59,5.56-3.34,12.46-5.82,18.43-3.29,10.25,4.33,10.01,18.85,7.32,29.64-7.48,30.05-20.59,58.68-38.43,83.99,18.63,7.5,38.72,11.35,58.8,11.26"/><path class="cls-4" d="m3640.34,970.11c1.8,1.25,3.6,2.5,5.39,3.75"/><path class="cls-4" d="m3650.52,906.19c4.44-13.23,21.79-18.16,35.08-13.91,13.29,4.25,23.37,14.9,32.91,25.08,10.02,10.69,20.64,21.64,34.43,26.6,13.78,4.95,31.62,1.87,39.03-10.76-1.6,9.85,11.08,16.27,20.95,14.84,9.88-1.43,18.95-7.13,28.93-7.3,26.88-.44,36.99,34.63,38.78,61.45"/></g></g><g><g><g><g><path class="cls-7" d="m1079.28,1768.47l-617.75,20.86c-30.14,1.02-53.75,26.28-52.74,56.42l17.05,505.03,172.95,161.65,505.03-17.05c30.14-1.02,53.75-26.28,52.74-56.42l-20.86-617.75c-1.02-30.14-26.28-53.75-56.42-52.74Z"/><path class="cls-4" d="m594.99,2399.7c-1.02-30.14-26.28-53.75-56.42-52.74l-112.72,3.81,172.95,161.65-3.81-112.72Z"/></g><path class="cls-4" d="m541.32,2076.2c11.07-41.25,22.14-82.51,33.21-123.76,22.47,45.03,37.51,93.76,44.33,143.62"/><path class="cls-4" d="m698.09,2066.59c2.11.6,4.22,1.19,6.32,1.79"/><path class="cls-4" d="m778.24,2042.25c.74,6.12,1.49,12.23,2.23,18.35,5.91-30.46,17.64-59.78,34.36-85.91,14.49,9.17,6.29,32.46,13.91,47.82,7.8,15.72,30.87,17.93,46,9.06,15.13-8.88,24.15-25.09,32.46-40.54,5.16,10.77,10.32,21.55,15.48,32.32,15.77-11.99,31.53-23.98,47.3-35.97,4.48-3.41,9.2-6.92,14.74-7.88,18.87-3.26,28.39,21.75,30.55,40.78"/><path class="cls-4" d="m642.38,2278.15c-7.35-20.54-3-44.84,11.02-61.55,4.17-4.97,9.88-9.56,16.35-9.12,11.1.75,15.61,14.55,16.59,25.63,2.73,30.84-.32,62.19-8.92,91.93,20.05,1.02,40.3-1.9,59.25-8.54"/><path class="cls-4" d="m823.28,2300.05l6.32,1.79"/><path class="cls-4" d="m812.05,2236.3c-.11-13.95,14.67-24.28,28.62-24.6,13.95-.32,26.95,6.46,39.29,12.97,12.95,6.83,26.58,13.73,41.22,13.91,14.64.19,30.5-8.55,33.38-22.91,1.71,9.83,15.78,11.77,24.65,7.19,8.87-4.57,15.59-12.92,24.97-16.33,25.27-9.18,46.27,20.67,56.71,45.44"/></g><g><g><path class="cls-7" d="m2107.05,461.84l-570.09-238.86c-27.82-11.65-59.82,1.45-71.47,29.26l-195.27,466.06,89.71,219.08,466.06,195.27c27.82,11.65,59.81-1.45,71.47-29.26l238.86-570.09c11.65-27.82-1.45-59.82-29.26-71.47Z"/><path class="cls-4" d="m1403.51,833.37c11.65-27.82-1.45-59.82-29.26-71.47l-104.03-43.59,89.71,219.08,43.59-104.03Z"/></g><path class="cls-4" d="m1715.65,726.38c54.65-3.44,106.59-38.14,129.41-87.92,12.98-28.32,15.97-63.82-2.17-89.15-8.59-11.99-21.03-20.59-33.57-28.34-71.48-44.2-218.3-70.27-256.3,35.83-33.14,92.54,81.63,174.68,162.64,169.58Z"/><path class="cls-4" d="m1476.26,695.49c105.52-109.64,215.06-215.41,328.34-317.01"/><path class="cls-4" d="m1534.29,724.55c83.31-97.62,172.84-189.93,267.87-276.17"/><path class="cls-4" d="m1568.6,807.88c60.87-77.43,124.64-152.58,191.12-225.24,26.81-29.3,55.7-59.27,93.39-71.79"/><path class="cls-4" d="m1645.3,825.41c64.54-83.46,140.41-158.14,224.86-221.37,16.08-12.04,34.15-24.19,54.21-23.28"/></g></g><g><path class="cls-7" d="m1037.85,722.59l-587.56,132.28c-28.67,6.45-46.68,34.93-40.22,63.6l108.14,480.34,194.95,123.3,480.34-108.14c28.67-6.45,46.68-34.93,40.22-63.6l-132.28-587.56c-6.45-28.67-34.93-46.68-63.6-40.22Z"/><path class="cls-4" d="m689.02,1414.89c-6.45-28.67-34.93-46.68-63.6-40.22l-107.21,24.14,194.95,123.3-24.14-107.21Z"/><path class="cls-4" d="m574.73,1152.03c36.87-57.05,81.62-109.01,132.57-153.93,24.4,32.41,26.13,80.14,4.14,114.23-4,6.21-11.22,12.65-17.86,9.42-5.44-2.64-6.3-9.91-6.3-15.96.03-22,11.8-51.77,33.08-46.19,7.13,1.87,12.65,7.71,19.67,9.93,21.1,6.66,35.83-19.52,50.46-36.13,23.89-27.14,68.78-32.47,98.37-11.69"/></g></g><g><g><g><g><g><path class="cls-6" d="m1715.8,2757.7c74.92-27.49,153.3-41.36,231.74-43.05"/><path class="cls-6" d="m1645.79,2788.01c6.16-3.1,12.36-6.09,18.59-8.98"/><path class="cls-6" d="m2930.34,3712.3c4.06,20.69,8,41.41,11.73,62.18"/><path class="cls-6" d="m2650.22,3082.77c70.62,97.23,127.11,207.3,176.85,320.57"/><path class="cls-6" d="m2586.13,3002.9c9.03,10.14,17.87,20.51,26.52,31.09"/><path class="cls-6" d="m2312.73,2782.59c84.26,43.88,162.26,103.47,231.53,174.7"/><path class="cls-6" d="m2004.5,2714.65c85.89,8.33,173.05,13.58,255.92,43.63"/></g><g><line class="cls-6" x1="1821.73" y1="3662.92" x2="2294.82" y2="3870.14"/><line class="cls-6" x1="1657.22" y1="3590.85" x2="1740.07" y2="3627.14"/><line class="cls-6" x1="1798.34" y1="3826.87" x2="2126.39" y2="3895.92"/></g></g><g><path class="cls-10" d="m1929.88,705.79c-504.64,205.09-185.35,1206.91-563.84,1580.21-378.49,373.31,1321.75,1298.42,1810.82,529.61,489.08-768.81-219.09-827.99-253.91-1316.09-31.8-445.79-466.92-1007.57-993.07-793.73Z"/><path class="cls-3" d="m1954.1,705.79c-383.33,70.58-382.14,838.83-410.04,1048.85-30.64,230.67-161.46,469.94-161.46,469.94"/><g><path class="cls-9" d="m1379.24,2373.72c-474.09,348.32-1321.48,1088.16-1022.83,1443.91,298.66,355.75,1041.48-564.64,1243.52-828.16,202.03-263.52,26.8-797.59-220.69-615.75Z"/><path class="cls-9" d="m3223.81,2320.55c332.93,364.04,1042.46,1098.18,743.81,1453.93-298.66,355.75-775.86-521.49-977.9-785.01-202.03-263.52,26.83-895.55,234.09-668.92Z"/><path class="cls-9" d="m1578.52,3931.52c-99.11-628.46-379.73-1204.64-347.94-1375.93,52.71-284.11,658.98-494.11,1060.72-471.21,401.74-22.9,1008.02,187.1,1060.72,471.21,31.68,170.69-98.44,740.81-198,1375.93h-1575.51Z"/><path class="cls-6" d="m3241.85,2885.98c45.59,249.79,2.75,390.1,2.75,390.1"/><path class="cls-6" d="m1736.23,3682.41c684.57,96.62,1303.84-131.76,1303.84-131.76,0,0-390.23,83.45-722.15,17.57"/></g><g><path class="cls-1" d="m2210.95,1991.27c-769.25,26.02-809.18,684.7-80.21,717.06,774.64,34.39,783.96-740.86,80.21-717.06Z"/><path class="cls-3" d="m1667.33,2527.99c77.59,96.45,231.63,170.06,463.4,180.35,545.39,24.22,711.41-352.92,516.3-569.95"/><g><path class="cls-1" d="m2366.68,906.82l160.06,1235.84c11.1,85.68-227.38,255.26-248.9,388.4-38.96-154.1-329.61-313.48-340.71-399.16l-148.96-1150.16,578.52-74.92Z"/><g><path class="cls-10" d="m2436.64,1446.97c266.08-119.7,384.4-759.38-17.28-838.53-612.92-120.77-913.61,587.25-588.82,973.3,224.34,266.66,606.1-134.77,606.1-134.77Z"/><g><g><path class="cls-1" d="m1710.73,1245.13c23.69-42.5,85.22,9.19,118.24,32.91l11.53,47.07c-6.98,63.94,31,137.19-8.31,193.5-15.01,15.16-41.69,12.38-58.43-.84-40.22-38.06-37.57-78.55-50.13-129.75-3.84-32.79-29.02-113.97-12.91-142.88Z"/><g><path class="cls-1" d="m2621.45,1358.01c-18.68-44.92-85.71-.6-121.22,19.19l-16.83,45.44c-.37,64.32-46.47,132.75-13.86,193.18,13.18,16.77,40.01,17.07,58.14,5.84,44.31-33.21,46.3-73.75,64.62-123.18,7.56-32.14,41.86-109.91,29.15-140.47Z"/><path class="cls-1" d="m2542.2,1593.86c-15.09,226-283.7,402.72-386.76,390.97-123.56-14.08-168.42-75.34-258.46-173.19-97.59-106.06-85.4-390.53-99.89-553.81-17.56-197.91,618.02-54.98,697.5-351.01,87.14,67.74,85.28,135.23,74.43,242.95-4.32,42.88,7.28,65.55,12.71,105.04,14.51,105.69-32.55,234.48-39.53,339.04Z"/><path class="cls-3" d="m2566.02,1445.9c-9.93,51.32-20.74,101.98-23.81,147.95-15.09,226-283.7,402.72-386.76,390.97-94.79-10.8-143.26-49.37-201.35-110.93"/></g><path class="cls-3" d="m2254.89,1360.13c-24.08,201.38,32.68,219.54,5.97,237.05-26.7,17.51-65.24,8.09-65.24,8.09"/></g><path class="cls-3" d="m2171.98,1226.92c-118.06-62.64-246.1,16.46-252.45,18.78"/><path class="cls-3" d="m2539.64,1254.81c-118.06-62.64-229.57,16.04-235.93,18.36"/><path class="cls-3" d="m1768.25,1294.08c-31.31-23-17.12,54.21,0,84.81"/></g></g><path class="cls-10" d="m2405.31,1382c38.81-29.47,62.05,49.39,17.87,62.19-44.17,12.79-34.03-49.92-17.87-62.19Z"/><path class="cls-10" d="m2044.77,1346.78c38.81-29.47,62.05,49.39,17.87,62.19-44.17,12.79-34.03-49.92-17.87-62.19Z"/><path class="cls-3" d="m2086.65,1705.31c113.65,78.47,217.07,39.8,217.07,39.8"/></g></g><path class="cls-6" d="m1868.58,2126.56c90.3,15.84,179.12,23.68,179.12,23.68"/><g><path class="cls-9" d="m505.96,2982.14c111.59-56.54,294.32-72.73,433.88,12.99,145.43,89.32,187.83,278.15,169.9,347.63-35.14,136.15-172.78,592.04-572.7,591.96-252.77-.05-566.31-307.57-130.71-708.44-36.08-104.85,22.66-205.14,99.63-244.14Z"/><path class="cls-3" d="m537.05,3934.71c-219.94-.04-485.89-232.88-264.3-557.44"/><path class="cls-9" d="m3901.65,3081.03c-203.46-113.23-580.47,233-523.08,361.37,57.39,128.37,162.56,493.44,504.2,493.44,359.95,0,499.91-587.1,18.89-854.8Z"/><path class="cls-1" d="m2931.06,2005.55h0c57.71-30.92,129.3-15.68,169.42,36.06,0,0,698.34,936.7,834.2,1075.91,171.67,175.91-379.06,449.58-472.09,259.76-93.02-189.82-591.31-1200.12-591.31-1200.12-27.73-64.04-1.74-138.65,59.77-171.61Z"/><path class="cls-1" d="m3098.47,2044.84c-10.51-45.89-85.92-75.76-122.05-69.66-153.28,25.9-294.8,36.83-409.93,60.92-142.27,29.78-20.83,291.08,215.06,224.99,157.12-44.02,370.19,10.67,316.92-216.26Z"/><path class="cls-1" d="m2422.14,2148.75c-94.26,0-245.96-14.91-362.04-35.15-26.58-4.64-44.37-29.94-39.74-56.52,4.64-26.58,29.95-44.37,56.52-39.74,307.84,53.68,579.51,4.58,582.21,4.08,26.5-4.92,52.02,12.58,56.96,39.1,4.93,26.52-12.54,52.01-39.05,56.96-7.55,1.41-84.46,31.28-254.87,31.28Z"/><path class="cls-1" d="m2068.44,2321.54c-23.2,0-43.79-16.59-48.03-40.24-4.77-26.56,12.9-51.95,39.46-56.72,252.55-45.33,533.37-125.46,536.18-126.26,25.94-7.43,52.99,7.57,60.42,33.51,7.43,25.94-7.57,52.99-33.51,60.42-2.85.82-288.29,82.28-545.83,128.5-2.92.53-5.82.78-8.69.78Z"/><g><path class="cls-6" d="m2059.87,2224.58c91.85-16.49,187.43-37.57,272.02-57.77"/><path class="cls-3" d="m2443.39,2240.02c-103.62,26.14-238.38,57.78-366.26,80.73-2.92.53-5.82.78-8.69.78-23.2,0-43.79-16.59-48.03-40.24"/></g><path class="cls-1" d="m2218.78,2463.47c-16.27,0-32.17-8.12-41.45-22.93-14.32-22.87-7.4-53.01,15.46-67.34,198.96-124.65,417.29-197.09,459.5-210.49,21.93-7.5,46.75,1.52,58.43,22.49,13.13,23.57,4.66,53.33-18.92,66.45-4.31,2.4-7.75,3.49-9.81,4.15-24.41,7.74-244.11,79.15-437.32,200.2-8.06,5.05-17.03,7.46-25.89,7.46Z"/><path class="cls-3" d="m2938.88,2236.71s-128.75,24.48-172.96,35.06c0,0-83.7,9.19-119.05-4.19-74.29,25.84-246.8,91.08-402.19,188.44-8.06,5.05-17.03,7.46-25.89,7.46-16.27,0-32.17-8.12-41.45-22.93-14.32-22.87-7.4-53.01,15.46-67.34,86.8-54.38,177.28-98.82,255.22-132.76"/><path class="cls-1" d="m1534.53,2005.55h0c-57.71-30.92-129.3-15.68-169.42,36.06,0,0-660.42,812.17-790.19,992.38-146.54,203.51,344.75,466.48,432.94,284.31,88.19-182.17,586.44-1141.15,586.44-1141.15,27.73-64.04,1.74-138.65-59.77-171.61Z"/><path class="cls-1" d="m1486.99,1972.74c158.1,31.13,305.45,38.52,424.14,63.36,142.27,29.78,20.83,291.08-215.06,224.99-132.05-36.99-297.36-57.85-313.33-207.16-3.03-28.35,44.79-92.9,104.26-81.19Z"/><path class="cls-1" d="m2097.02,2140.43c-170.43,0-288.86-21.55-296.41-22.96-26.52-4.95-44.01-30.47-39.06-56.99,4.95-26.52,30.47-44.01,56.99-39.06,2.68.49,274.35,49.59,582.19-4.08,26.6-4.65,51.89,13.15,56.52,39.74,4.64,26.58-13.16,51.89-39.74,56.52-116.06,20.24-226.24,26.84-320.49,26.84Z"/><path class="cls-1" d="m2445.44,2257.84c-.63,0-1.25-.01-1.88-.03-299.58-11.35-572.99-62.34-584.48-64.5-26.51-5-43.96-30.54-38.97-57.05,4.99-26.52,30.55-43.95,57.05-38.97,2.75.52,278.04,51.82,570.1,62.88,26.96,1.02,47.99,23.71,46.97,50.67-1,26.33-22.66,47.01-48.79,47.01Z"/><path class="cls-3" d="m2420.96,2158.24c26.96,1.02,47.99,23.71,46.97,50.67-1,26.33-22.66,47.01-48.79,47.01-.63,0-18.97-.05-19.6-.07-299.58-11.35-528.98-60.38-540.47-62.55"/><path class="cls-1" d="m2118.05,2480.99c-11.9,0-23.83-4.32-33.24-13.05-32.88-30.54-46.21-62.19-55.94-85.3-8.24-19.56-11.07-24.91-16.82-28.08-140.35-77.61-214.4-98.18-215.13-98.38-25.98-7.05-41.43-33.81-34.47-59.81,6.96-26,33.55-41.49,59.59-34.62,3.38.89,84.58,22.84,237.3,107.3,36.15,19.99,49.15,50.87,59.59,75.68,7.99,18.99,14.9,35.38,32.37,51.61,19.77,18.36,20.92,49.27,2.56,69.05-9.62,10.36-22.7,15.61-35.81,15.61Z"/><path class="cls-3" d="m1524.86,2195.7c95.36,60.22,185.18,68.96,185.18,68.96,72.05,19.43,111.86-.11,111.86-.11,32.57,11.91,96.65,38.3,190.16,90.01,5.75,3.18,8.58,8.52,16.82,28.08,9.73,23.11,23.05,54.76,55.94,85.3,9.41,8.73,21.34,13.05,33.24,13.05,13.11,0,26.19-5.25,35.81-15.61,18.36-19.77,17.21-50.69-2.56-69.05-17.48-16.23-24.38-32.62-32.37-51.61-10.45-24.81-23.44-55.69-59.59-75.68-152.72-84.45-233.92-106.4-237.3-107.3"/><path class="cls-3" d="m2384.31,2148.07c-93.77-3.13-222.62-16.76-324.2-34.47-26.58-4.64-44.37-29.94-39.74-56.52,4.64-26.58,29.95-44.37,56.52-39.74,162.53,28.34,315.29,31.97,423.08,21.35"/><path class="cls-3" d="m3403.86,3322.27c-105.41,152.58,88.33,210.47,250.4,197.87,285.42-22.19,475.81-327.32,274.34-414.82"/><path class="cls-3" d="m1071.21,3237.51c121.98,150.64-88.83,409.77-88.83,409.77"/></g><path class="cls-3" d="m3065.09,1985.38s755.39,1018.68,817.46,1073.24"/></g><g><path class="cls-2" d="m3145.81,3934.96h-1508.56c-119.24,0-237.45-21.98-348.72-64.85h0c-7.14-2.75-5.17-13.34,2.48-13.34h2201.03c7.65,0,9.62,10.59,2.48,13.34h0c-111.27,42.87-229.48,64.85-348.72,64.85Z"/><g><path class="cls-2" d="m3620.31,2748.78H1162.75c-56.45,0-92.9,45.44-81.6,100.63l191.81,936.11c8.11,39.58,52.56,71.25,99.38,71.25h2038.38c46.82,0,91.27-31.67,99.38-71.25l191.81-936.11c11.31-55.19-25.14-100.63-81.6-100.63Z"/><path class="cls-3" d="m2541.52,3378.54c-1.2,47.09-68.35,84.72-149.99,84.72s-148.79-37.63-149.99-84.72c-1.22-47.86,65.92-87.24,149.99-87.24s151.22,39.38,149.99,87.24Z"/></g><g><path class="cls-2" d="m1666.5,3882.62h-74.27c-17.95,0-32.49-14.55-32.49-32.49h0c0-17.95,14.55-32.49,32.49-32.49h74.27c17.95,0,32.49,14.55,32.49,32.49h0c0,17.95-14.55,32.49-32.49,32.49Z"/><path class="cls-2" d="m3190.84,3882.62h-74.27c-17.95,0-32.49-14.55-32.49-32.49h0c0-17.95,14.55-32.49,32.49-32.49h74.27c17.95,0,32.49,14.55,32.49,32.49h0c0,17.95-14.55,32.49-32.49,32.49Z"/></g></g><line class="cls-3" x1="5" y1="3935.83" x2="4393.7" y2="3935.83"/><path class="cls-3" d="m3995.09,3149.48c138.5,143.01,45.16,346.12,45.16,346.12"/><g><polygon class="cls-10" points="3060.12 2597.13 3297.33 2501.36 3205.17 2342.72 3009.73 2504.06 3060.12 2597.13"/><ellipse class="cls-2" cx="3295.69" cy="2394.52" rx="89.86" ry="133.23" transform="translate(-759.4 2005.22) rotate(-30.52)"/><polyline class="cls-3" points="3364.58 2442.46 3293.58 2389.37 3337.28 2329.74"/></g></g><g><g><path class="cls-5" d="m4162.75,3496.57h0c-21.08-3.84-34.97-23.54-31-43.99l87.34-450.9c3.96-20.45,24.27-33.92,45.35-30.07h0c21.09,3.84,34.97,23.54,31,43.99l-87.34,450.9c-3.96,20.45-24.26,33.92-45.35,30.07Z"/><path class="cls-2" d="m3999.41,3455.79h0c-18.88.53-34.62-13.88-35.17-32.18l-9.98-337.02-8.19-276.42c-.55-18.31,14.31-33.58,33.18-34.12h0c18.87-.53,34.62,13.88,35.17,32.19l18.17,613.44c.55,18.31-14.31,33.58-33.18,34.12Z"/></g><g><polygon class="cls-5" points="4037.61 3746.99 3976.85 3755.11 3873.97 3030.72 3934.73 3022.6 4037.61 3746.99"/><polygon class="cls-5" points="3873.97 3030.72 3881.09 2862.87 3934.73 3022.6 3873.97 3030.72"/></g><g><path class="cls-5" d="m3893.03,3338.02h371.8v505.07c0,50.21-40.77,90.98-90.98,90.98h-189.84c-50.21,0-90.98-40.77-90.98-90.98v-505.07h0Z"/><line class="cls-5" x1="3892.57" y1="3424.6" x2="4265.02" y2="3424.6"/><line class="cls-5" x1="3892.57" y1="3493.3" x2="4265.02" y2="3493.3"/></g></g></g><line class="cls-3" x1="597.85" y1="3002.9" x2="1358.61" y2="2049.61"/><path class="cls-3" d="m1437.78,1979.71c21.88-7.22,19-14.82,99.6,2.26,80.61,17.09,393.86,60.86,487.81,60.86"/><path class="cls-3" d="m2494.26,865.79c71.75,337.05-656.89,235.05-697.52,358.48"/></g><path class="cls-3" d="m406.33,3226.28c22.19,119.32,169.48,271.43,341.68,293.93"/></g></svg>